<?xml version="1.0" standalone="no"?>
<!DOCTYPE svg PUBLIC "-//W3C//DTD SVG 1.1//EN" "http://www.w3.org/Graphics/SVG/1.1/DTD/svg11.dtd" >
<svg xmlns="http://www.w3.org/2000/svg" xmlns:xlink="http://www.w3.org/1999/xlink" version="1.1">
<metadata>
Created by FontForge 20170731 at Wed Nov 16 18:21:10 2022
 By Aleksey,,,
Copyright 2020 Ilya Naumoff
</metadata>
<defs>
<font id="FactorA-Extrabold" horiz-adv-x="579" >
  <font-face 
    font-family="Factor A TRIAL Extrabold"
    font-weight="800"
    font-stretch="normal"
    units-per-em="2048"
    panose-1="0 0 0 0 0 0 0 0 0 0"
    ascent="1536"
    descent="-512"
    x-height="1034"
    cap-height="1536"
    bbox="-104 -524 2263 1954"
    underline-thickness="172"
    underline-position="-540"
    unicode-range="U+000D-FB02"
  />
<missing-glyph horiz-adv-x="1525" 
d="M186 0v1536h1153v-1536h-1153zM512 307h502v922h-502v-922z" />
    <glyph glyph-name="ff" unicode="ff" horiz-adv-x="1587" 
d="M551 1143v-109h395v119q0 183 117.5 295.5t290.5 112.5q107 0 192 -35l-69 -254q-38 14 -84 14q-69 0 -107.5 -37t-38.5 -106v-109h330v-264h-330v-770h-301v770h-395v-770h-301v770h-240v96l135 168h105v119q0 183 117 295.5t290 112.5q108 0 193 -35l-70 -254
q-38 14 -84 14q-70 0 -107.5 -36.5t-37.5 -106.5z" />
    <glyph glyph-name="fi" unicode="fi" horiz-adv-x="1435" 
d="M885 770h-334v-770h-301v770h-240v96l135 168h105v96q0 193 119.5 312t298.5 119q98 0 188 -35l-68 -254q-51 14 -86 14q-74 0 -112.5 -39t-38.5 -114v-99h334v-264zM969 1341q0 75 50 125t128 50q75 0 125.5 -50t50.5 -125q0 -76 -50.5 -126t-127.5 -50t-126.5 49.5
t-49.5 126.5zM995 0v1034h301v-1034h-301z" />
    <glyph glyph-name="fl" unicode="fl" horiz-adv-x="1435" 
d="M885 770h-334v-770h-301v770h-240v96l135 168h105v96q0 193 119.5 312t298.5 119q98 0 188 -35l-68 -254q-51 14 -86 14q-74 0 -112.5 -39t-38.5 -114v-99h334v-264zM995 0v1536h301v-1536h-301z" />
    <glyph glyph-name=".notdef" horiz-adv-x="1525" 
d="M186 0v1536h1153v-1536h-1153zM512 307h502v922h-502v-922z" />
    <glyph glyph-name=".null" horiz-adv-x="0" 
 />
    <glyph glyph-name=".null" horiz-adv-x="0" 
 />
    <glyph glyph-name="nonmarkingreturn" horiz-adv-x="682" 
 />
    <glyph glyph-name="CR" unicode="&#xd;" horiz-adv-x="0" 
 />
    <glyph glyph-name="space" unicode=" " horiz-adv-x="450" 
 />
    <glyph glyph-name="exclam" unicode="!" horiz-adv-x="800" 
d="M221 1536h359l-50 -1018h-262zM399 -23q-85 0 -139.5 53t-54.5 136q0 85 54.5 138.5t139.5 53.5q86 0 141.5 -53.5t55.5 -138.5q0 -83 -55.5 -136t-141.5 -53z" />
    <glyph glyph-name="numbersign" unicode="#" horiz-adv-x="1562" 
d="M92 244v252h217l119 417h-182v254h254l69 246h275l-70 -246h277l71 246h273l-72 -246h147v-254h-219l-121 -417h181v-252h-254l-70 -244h-272l69 244h-272l-70 -244h-274l70 244h-146zM584 496h274l121 417h-277z" />
    <glyph glyph-name="dollar" unicode="$" horiz-adv-x="1335" 
d="M1253 1171l-276 -86q-40 141 -160 183v-377q79 -19 141 -41t123.5 -58.5t102.5 -82.5t66.5 -114t25.5 -151q0 -188 -125 -308t-334 -150v-207h-246v203q-204 24 -338 135t-174 280l295 101q41 -186 217 -230v387q-56 13 -99 25t-93 32t-87 43t-73.5 56.5t-59 73
t-36.5 93.5t-14 118q0 193 129 312.5t333 145.5v177h246v-183q165 -28 279.5 -124.5t156.5 -252.5zM410 1114q0 -65 41 -104t120 -64v336q-161 -34 -161 -168zM975 430q0 65 -40 102.5t-118 63.5v-330q75 15 116.5 56.5t41.5 107.5z" />
    <glyph glyph-name="percent" unicode="%" horiz-adv-x="2062" 
d="M592 -37l-186 131l1062 1481l189 -131zM530 756q-184 0 -305 115t-121 290q0 173 121 287.5t305 114.5t305 -114.5t121 -287.5q0 -175 -121 -290t-305 -115zM709 1161q0 78 -51.5 128t-127.5 50t-128 -50t-52 -128q0 -80 52 -131t128 -51t127.5 51t51.5 131zM1534 -25
q-184 0 -305 115.5t-121 290.5q0 173 121 287t305 114t305 -114t121 -287q0 -175 -121 -290.5t-305 -115.5zM1712 381q0 78 -51 128t-127 50t-128 -50t-52 -128q0 -80 52 -131t128 -51t127 50.5t51 131.5z" />
    <glyph glyph-name="ampersand" unicode="&#x26;" horiz-adv-x="1441" 
d="M1061 1188q0 -226 -281 -395l221 -265q51 115 78 263l275 -60q-52 -246 -168 -422l260 -309h-346l-96 111q-181 -136 -418 -136q-236 0 -374 117.5t-138 327.5q0 132 67.5 236.5t212.5 189.5q-153 157 -153 330q0 164 123 274.5t315 110.5q186 0 304 -105t118 -268z
M500 1165q0 -31 9.5 -59t28 -52.5t33.5 -40.5t39 -38q87 52 119.5 95.5t32.5 96.5q0 59 -34 95t-95 36t-97 -36t-36 -97zM391 453q0 -96 65 -147.5t175 -51.5q113 0 198 55l-299 344q-139 -75 -139 -200z" />
    <glyph glyph-name="parenleft" unicode="(" horiz-adv-x="839" 
d="M115 606q0 320 141 577t410 414l155 -239q-393 -258 -393 -752q0 -492 393 -753l-155 -242q-266 154 -408.5 414t-142.5 581z" />
    <glyph glyph-name="parenright" unicode=")" horiz-adv-x="839" 
d="M725 606q0 -321 -142.5 -581t-408.5 -414l-156 242q394 262 394 753q0 494 -394 752l156 239q269 -157 410 -414t141 -577z" />
    <glyph glyph-name="comma" unicode="," horiz-adv-x="591" 
d="M285 -340h-250l153 651h328z" />
    <glyph glyph-name="period" unicode="." horiz-adv-x="583" 
d="M291 -23q-85 0 -140 53t-55 136q0 84 55 138t140 54q86 0 141 -53.5t55 -138.5q0 -83 -55 -136t-141 -53z" />
    <glyph glyph-name="slash" unicode="/" horiz-adv-x="1028" 
d="M338 0h-315l671 1536h314z" />
    <glyph glyph-name="zero" unicode="0" horiz-adv-x="1390" 
d="M696 -25q-271 0 -430.5 209.5t-159.5 587.5q0 372 159.5 580.5t430.5 208.5q269 0 428.5 -208.5t159.5 -580.5q0 -378 -159 -587.5t-429 -209.5zM696 1268q-264 0 -264 -496q0 -504 264 -504q265 0 265 504q0 239 -65.5 367.5t-199.5 128.5z" />
    <glyph glyph-name="one" unicode="1" horiz-adv-x="862" 
d="M367 0v1057h-322v198q144 9 242.5 89.5t130.5 191.5h260v-1536h-311z" />
    <glyph glyph-name="two" unicode="2" horiz-adv-x="1183" 
d="M1114 297v-297h-1020v250l236 221q177 165 275 277.5t132.5 183t34.5 135.5q0 92 -53 146.5t-144 54.5q-88 0 -149.5 -56t-73.5 -157l-315 65q39 211 189 326t360 115q232 0 372 -137.5t140 -348.5q0 -155 -111.5 -311t-417.5 -438l-30 -29h575z" />
    <glyph glyph-name="three" unicode="3" horiz-adv-x="1220" 
d="M594 -25q-220 0 -371.5 115.5t-187.5 323.5l315 90q14 -109 76 -169.5t170 -60.5q97 0 159 51t62 138q0 83 -54.5 130.5t-141.5 47.5h-138v289h115q80 0 134 46.5t54 123.5q0 78 -52 125t-136 47q-86 0 -146 -50t-79 -137l-307 72q41 183 184.5 293.5t357.5 110.5
q224 0 361 -119t137 -307q0 -203 -197 -330q116 -50 176 -146t60 -219q0 -208 -157.5 -336.5t-393.5 -128.5z" />
    <glyph glyph-name="four" unicode="4" horiz-adv-x="1280" 
d="M723 0v311h-688v258l608 967h385v-940h221v-285h-221v-311h-305zM369 596h354v561z" />
    <glyph glyph-name="five" unicode="5" horiz-adv-x="1216" 
d="M1155 508q0 -233 -152.5 -383t-402.5 -150q-133 0 -247.5 44t-197.5 139t-106 227l316 80q9 -94 72.5 -143.5t158.5 -49.5q111 0 173 63.5t62 166.5q0 107 -63 170t-164 63q-74 0 -129.5 -27.5t-81.5 -80.5l-272 71l121 838h841v-289h-587l-41 -286q91 45 207 45
q221 0 357 -139t136 -359z" />
    <glyph glyph-name="six" unicode="6" horiz-adv-x="1212" 
d="M604 -25q-154 0 -278 63t-197.5 182t-73.5 274q0 189 121 374l445 668h348l-363 -543q12 2 43 2q221 0 364.5 -134.5t143.5 -356.5q0 -157 -73.5 -278.5t-199 -186t-280.5 -64.5zM604 266q103 0 168.5 66.5t65.5 173.5q0 105 -66 170t-168 65q-93 0 -160 -57
q-71 -65 -71 -178q0 -107 64 -173.5t167 -66.5z" />
    <glyph glyph-name="seven" unicode="7" horiz-adv-x="1105" 
d="M150 0l569 1251h-674v285h1008v-272l-572 -1264h-331z" />
    <glyph glyph-name="eight" unicode="8" horiz-adv-x="1296" 
d="M651 -25q-158 0 -285.5 58t-201.5 168.5t-74 253.5q0 118 58.5 211.5t166.5 154.5q-163 120 -163 316q0 188 142 306t357 118t357.5 -118t142.5 -306q0 -178 -162 -316q104 -59 160.5 -152.5t56.5 -213.5q0 -143 -73.5 -253.5t-199.5 -168.5t-282 -58zM848 1104
q0 81 -56 129.5t-143 48.5q-86 0 -139 -48.5t-53 -129.5q0 -83 53.5 -132.5t138.5 -49.5q87 0 143 50t56 132zM889 477q0 94 -66.5 149.5t-169.5 55.5q-105 0 -172 -55.5t-67 -149.5q0 -95 67 -151t172 -56q103 0 169.5 56t66.5 151z" />
    <glyph glyph-name="nine" unicode="9" horiz-adv-x="1212" 
d="M608 1561q154 0 278 -63t197.5 -182t73.5 -274q0 -189 -121 -374l-444 -668h-348l362 543q-12 -2 -43 -2q-221 0 -364.5 134.5t-143.5 356.5q0 157 73.5 278.5t199 186t280.5 64.5zM608 1270q-103 0 -168 -66.5t-65 -173.5q0 -105 65.5 -170t167.5 -65q93 0 160 57
q72 66 72 178q0 107 -64.5 173.5t-167.5 66.5z" />
    <glyph glyph-name="colon" unicode=":" horiz-adv-x="583" 
d="M291 678q-85 0 -140 52.5t-55 135.5q0 85 55 139t140 54q86 0 141 -54t55 -139q0 -83 -55 -135.5t-141 -52.5zM291 -23q-85 0 -140 53t-55 136q0 84 55 138t140 54q86 0 141 -53.5t55 -138.5q0 -83 -55 -136t-141 -53z" />
    <glyph glyph-name="semicolon" unicode=";" horiz-adv-x="593" 
d="M328 678q-85 0 -140 52.5t-55 135.5q0 85 55 139t140 54q86 0 141 -54t55 -139q0 -83 -55 -135.5t-141 -52.5zM285 -340h-250l153 651h328z" />
    <glyph glyph-name="question" unicode="?" horiz-adv-x="1159" 
d="M598 1561q142 -1 256 -52.5t182 -151t68 -231.5q0 -75 -23.5 -137t-61 -103t-82.5 -75.5t-90 -62t-82.5 -54t-61 -60.5t-23.5 -73v-43h-313v60q0 65 22.5 119t59 90.5t80 68t87.5 58t80.5 53.5t59 63t22.5 78q0 80 -54 125t-142 45q-98 0 -161.5 -53.5t-78.5 -141.5
l-299 70q40 189 187.5 298.5t367.5 109.5zM530 -23q-85 0 -139.5 53t-54.5 136q0 85 54.5 138.5t139.5 53.5q86 0 141.5 -53.5t55.5 -138.5q0 -83 -55.5 -136t-141.5 -53z" />
    <glyph glyph-name="at" unicode="@" horiz-adv-x="1949" 
d="M1407 379q0 -42 26 -70t66 -28q71 0 110.5 75.5t39.5 214.5q0 180 -87 324.5t-240.5 225.5t-344.5 81q-195 0 -349 -85.5t-240.5 -240.5t-86.5 -354q0 -187 86.5 -336.5t240 -233t345.5 -83.5q79 0 171.5 19.5t166.5 52.5l63 -177q-184 -90 -424 -90q-246 0 -441 110
t-303 303.5t-108 434.5q0 149 42 283t121 240t186 184t243 120t287 42q186 0 348.5 -61.5t278 -169.5t181.5 -259.5t66 -325.5q0 -146 -47 -260t-141 -181.5t-223 -67.5q-99 0 -166.5 40.5t-102.5 106.5q-93 -154 -268 -154q-191 0 -300 130t-109 327q0 132 45.5 238.5
t141 172.5t226.5 66q152 0 244 -137l14 119h242v-596zM1137 520q0 103 -49.5 165.5t-135.5 62.5t-134 -63t-48 -165q0 -99 48 -158t134 -59t135.5 59t49.5 158z" />
    <glyph glyph-name="A" unicode="A" horiz-adv-x="1564" 
d="M25 0l581 1536h352l582 -1536h-342l-147 412h-551l-148 -412h-327zM608 709h336l-168 469z" />
    <glyph glyph-name="B" unicode="B" horiz-adv-x="1382" 
d="M180 0v1536h606q204 0 329.5 -108.5t125.5 -290.5q0 -213 -188 -324q127 -50 191.5 -146t64.5 -227q0 -198 -136 -319t-356 -121h-637zM748 1264h-246v-338h246q81 0 128.5 47t47.5 125q0 77 -47 121.5t-129 44.5zM791 649h-289v-377h289q90 0 141 50t51 137
q0 88 -52 139t-140 51z" />
    <glyph glyph-name="C" unicode="C" horiz-adv-x="1607" 
d="M92 768q0 223 97.5 403.5t275.5 285t403 104.5q263 0 446.5 -137t239.5 -371l-319 -92q-78 299 -367 299q-200 0 -319 -138.5t-119 -353.5q0 -216 115.5 -354t316.5 -138q151 0 250.5 77.5t138.5 221.5l318 -90q-71 -239 -257.5 -374.5t-451.5 -135.5q-230 0 -406 103.5
t-269 283t-93 406.5z" />
    <glyph glyph-name="D" unicode="D" horiz-adv-x="1570" 
d="M180 0v1536h527q228 0 404.5 -101t271 -274t94.5 -387q0 -218 -94.5 -394t-271 -278t-404.5 -102h-527zM707 1235h-199v-934h199q195 0 313.5 130t118.5 339q0 207 -118.5 336t-313.5 129z" />
    <glyph glyph-name="E" unicode="E" horiz-adv-x="1325" 
d="M180 0v1536h1045v-293h-717v-301h487v-293h-487v-356h737v-293h-1065z" />
    <glyph glyph-name="F" unicode="F" horiz-adv-x="1230" 
d="M180 0v1536h991v-293h-663v-346h491v-293h-491v-604h-328z" />
    <glyph glyph-name="G" unicode="G" horiz-adv-x="1701" 
d="M430 776q0 -237 119 -370.5t325 -133.5q163 0 266 77t117 204h-509v285h849v-150q0 -155 -52.5 -287.5t-146.5 -226t-230 -146.5t-298 -53q-167 0 -311.5 60t-247 165.5t-161 254.5t-58.5 321q0 223 101 402.5t280 281t401 101.5q258 0 442.5 -127t246.5 -347l-318 -90
q-34 124 -130 193.5t-241 69.5q-199 0 -321.5 -129.5t-122.5 -354.5z" />
    <glyph glyph-name="H" unicode="H" horiz-adv-x="1685" 
d="M180 0v1536h328v-578h670v578h327v-1536h-327v657h-670v-657h-328z" />
    <glyph glyph-name="I" unicode="I" horiz-adv-x="688" 
d="M180 0v1536h328v-1536h-328z" />
    <glyph glyph-name="J" unicode="J" horiz-adv-x="1298" 
d="M596 -25q-223 0 -363.5 109.5t-177.5 286.5l314 102q15 -95 74 -146t153 -51q102 0 159.5 56t57.5 153v750h-618v301h946v-1057q0 -220 -147.5 -362t-397.5 -142z" />
    <glyph glyph-name="K" unicode="K" horiz-adv-x="1533" 
d="M508 653v-653h-328v1536h328v-575h176l440 575h387l-565 -715l578 -821h-385l-461 653h-170z" />
    <glyph glyph-name="L" unicode="L" horiz-adv-x="1245" 
d="M180 0v1536h328v-1235h684v-301h-1012z" />
    <glyph glyph-name="M" unicode="M" horiz-adv-x="1912" 
d="M180 0v1536h346l439 -580l424 580h344v-1536h-312v1110l-430 -578h-69l-428 566v-1098h-314z" />
    <glyph glyph-name="N" unicode="N" horiz-adv-x="1687" 
d="M180 0v1536h348l672 -1063v1063h307v-1536h-348l-674 1071v-1071h-305z" />
    <glyph glyph-name="O" unicode="O" horiz-adv-x="1761" 
d="M92 768q0 226 101.5 407t282 283.5t405.5 102.5t405.5 -102.5t281.5 -283.5t101 -407t-101 -407t-281.5 -283.5t-405.5 -102.5t-405.5 102.5t-282 283.5t-101.5 407zM1331 768q0 223 -123 357.5t-327 134.5t-327.5 -134.5t-123.5 -357.5t123.5 -357.5t327.5 -134.5
t327 134.5t123 357.5z" />
    <glyph glyph-name="P" unicode="P" horiz-adv-x="1433" 
d="M180 0v1536h645q235 0 382 -142t147 -364q0 -219 -147.5 -361.5t-381.5 -142.5h-317v-526h-328zM807 1243h-299v-424h299q101 0 160 56t59 155q0 100 -59 156.5t-160 56.5z" />
    <glyph glyph-name="Q" unicode="Q" horiz-adv-x="1761" 
d="M92 768q0 226 101.5 407t282 283.5t405.5 102.5t405.5 -102.5t281.5 -283.5t101 -407q0 -182 -67 -336.5t-189 -261.5l176 -205l-225 -190l-209 243q-134 -43 -274 -43q-225 0 -405.5 102.5t-282 283.5t-101.5 407zM424 768q0 -226 125 -363t332 -137q10 0 29 1t28 1
l-256 301l225 191l305 -356q125 134 125 362q0 226 -124.5 363t-331.5 137t-332 -137t-125 -363z" />
    <glyph glyph-name="R" unicode="R" horiz-adv-x="1503" 
d="M180 0v1536h625q231 0 375.5 -132.5t144.5 -354.5q0 -137 -68.5 -243.5t-187.5 -162.5l406 -643h-369l-352 563h-248v-563h-326zM795 1243h-289v-387h293q92 0 145 52.5t53 140.5q0 89 -54 141.5t-148 52.5z" />
    <glyph glyph-name="S" unicode="S" horiz-adv-x="1368" 
d="M1296 1155l-323 -90q-26 100 -95 156.5t-180 56.5q-118 0 -185 -45.5t-67 -126.5q0 -36 17.5 -63.5t38 -44t69.5 -33t76.5 -23t95.5 -20.5q22 -5 33 -7q61 -12 105.5 -23t102.5 -31t99.5 -42t85 -56.5t70.5 -76t44 -98.5t17 -125q0 -223 -166 -355.5t-436 -132.5
q-257 0 -420.5 111t-222.5 324l334 96q52 -246 320 -246q116 0 187 46t71 136q0 37 -15 65.5t-39.5 46.5t-62.5 32t-77 23.5t-89 19.5q-21 4 -31 6q-65 12 -108.5 22t-105.5 29t-103.5 40.5t-87.5 56.5t-73.5 76.5t-45.5 100.5t-18 130q0 138 79.5 246.5t213.5 166.5t298 58
q231 0 382.5 -104t211.5 -302z" />
    <glyph glyph-name="T" unicode="T" horiz-adv-x="1327" 
d="M500 0v1235h-439v301h1205v-301h-439v-1235h-327z" />
    <glyph glyph-name="U" unicode="U" horiz-adv-x="1562" 
d="M780 276q131 0 208 73.5t77 195.5v991h328v-983q0 -261 -170 -419.5t-443 -158.5t-441.5 158.5t-168.5 419.5v983h328v-991q0 -122 76.5 -195.5t205.5 -73.5z" />
    <glyph glyph-name="V" unicode="V" horiz-adv-x="1525" 
d="M45 1536h348l377 -1190l375 1190h336l-500 -1536h-432z" />
    <glyph glyph-name="W" unicode="W" horiz-adv-x="1939" 
d="M932 1087h72l339 -679l230 1128h321l-313 -1536h-346l-270 535l-258 -535h-347l-315 1536h326l233 -1126z" />
    <glyph glyph-name="X" unicode="X" horiz-adv-x="1464" 
d="M408 1536l337 -506l314 506h366l-499 -776l508 -760h-381l-346 520l-316 -520h-352l487 791l-497 745h379z" />
    <glyph glyph-name="Y" unicode="Y" horiz-adv-x="1460" 
d="M567 0v635l-549 901h375l346 -586l344 586h361l-549 -899v-637h-328z" />
    <glyph glyph-name="Z" unicode="Z" horiz-adv-x="1372" 
d="M102 1536h1207v-88l-756 -1147h725v-301h-1217v88l758 1147h-717v301z" />
    <glyph glyph-name="bracketleft" unicode="[" horiz-adv-x="811" 
d="M180 -391v2009h592v-277h-291v-1458h291v-274h-592z" />
    <glyph glyph-name="bracketright" unicode="]" horiz-adv-x="811" 
d="M631 -391h-592v274h291v1458h-291v277h592v-2009z" />
    <glyph glyph-name="a" unicode="a" horiz-adv-x="1146" 
d="M760 0l-19 131q-117 -156 -327 -156q-140 0 -236 82.5t-96 227.5q0 63 21 114.5t55.5 86.5t86 63.5t104 45.5t118.5 32l262 59q-29 121 -176 121q-80 0 -132 -35t-69 -102l-282 53q38 149 167 242.5t326 93.5q216 0 340.5 -114.5t124.5 -321.5v-623h-268zM381 309
q0 -44 30.5 -67t80.5 -23q46 0 88 14t77.5 42t56.5 75.5t21 108.5v16l-231 -57q-60 -13 -91.5 -38t-31.5 -71z" />
    <glyph glyph-name="b" unicode="b" horiz-adv-x="1300" 
d="M139 0v1536h301v-590q116 113 289 113q143 0 259.5 -70t183.5 -194.5t67 -278.5q0 -232 -146.5 -386.5t-363.5 -154.5q-184 0 -305 127l-23 -102h-262zM682 780q-112 0 -177 -71.5t-65 -192.5t65 -192.5t177 -71.5t178 72t66 192t-66 192t-178 72z" />
    <glyph glyph-name="c" unicode="c" horiz-adv-x="1138" 
d="M61 516q0 234 156 388.5t393 154.5q190 0 324.5 -102t171.5 -271l-299 -61q-17 74 -70 114.5t-129 40.5q-105 0 -170 -70t-65 -194t62 -194t169 -70q85 0 139 39.5t72 109.5l295 -53q-35 -162 -174 -267.5t-334 -105.5q-234 0 -387.5 153.5t-153.5 387.5z" />
    <glyph glyph-name="d" unicode="d" horiz-adv-x="1300" 
d="M1161 0h-262l-25 109q-124 -134 -307 -134q-215 0 -360.5 154.5t-145.5 386.5q0 154 66.5 278.5t182.5 194.5t257 70q174 0 293 -119v596h301v-1536zM616 780q-112 0 -176.5 -71.5t-64.5 -192.5t64.5 -192.5t176.5 -71.5t178 72t66 192t-66 192t-178 72z" />
    <glyph glyph-name="e" unicode="e" horiz-adv-x="1187" 
d="M612 -25q-254 0 -402.5 150.5t-148.5 384.5q0 239 152.5 394t392.5 155q228 0 372 -140t144 -366q0 -69 -14 -129h-746q42 -191 254 -191q174 0 226 125l262 -75q-54 -149 -182 -228.5t-310 -79.5zM604 815q-88 0 -149.5 -45t-87.5 -133h452q-12 84 -68.5 131t-146.5 47z
" />
    <glyph glyph-name="f" unicode="f" horiz-adv-x="894" 
d="M885 770h-334v-770h-301v770h-240v96l135 168h105v96q0 193 119.5 312t298.5 119q98 0 188 -35l-68 -254q-51 14 -86 14q-74 0 -112.5 -39t-38.5 -114v-99h334v-264z" />
    <glyph glyph-name="g" unicode="g" horiz-adv-x="1280" 
d="M61 532q0 227 141 377t355 150q174 0 297 -123l25 98h262v-1016q0 -103 -35 -192.5t-100 -156.5t-166 -105.5t-226 -38.5q-218 0 -351 97.5t-167 254.5l305 66q39 -144 211 -144q110 0 169 54t59 147v117q-120 -107 -283 -107q-214 0 -355 148t-141 374zM375 532
q0 -115 63 -184t168 -69q106 0 170 69t64 184q0 112 -64 180t-170 68q-104 0 -167.5 -68t-63.5 -180z" />
    <glyph glyph-name="h" unicode="h" horiz-adv-x="1236" 
d="M139 0v1536h301v-573q119 96 271 96q114 0 206 -48t149.5 -148t57.5 -238v-625h-301v575q0 97 -49 151t-135 54q-85 0 -142 -52.5t-57 -152.5v-575h-301z" />
    <glyph glyph-name="i" unicode="i" 
d="M113 1341q0 75 50 125t128 50q75 0 125.5 -50t50.5 -125q0 -76 -50.5 -126t-127.5 -50t-126.5 49.5t-49.5 126.5zM139 0v1034h301v-1034h-301z" />
    <glyph glyph-name="j" unicode="j" 
d="M113 1341q0 75 50 125t128 50q75 0 125.5 -50t50.5 -125q0 -76 -50.5 -126t-127.5 -50t-126.5 49.5t-49.5 126.5zM139 1034h301v-1120q0 -177 -97.5 -283t-270.5 -106q-88 0 -176 29l55 247q31 -10 74 -10q114 0 114 117v1126z" />
    <glyph glyph-name="k" unicode="k" horiz-adv-x="1181" 
d="M817 1034h354l-383 -461l388 -573h-347l-286 430h-103v-430h-301v1536h301v-825h117z" />
    <glyph glyph-name="l" unicode="l" 
d="M139 0v1536h301v-1536h-301z" />
    <glyph glyph-name="m" unicode="m" horiz-adv-x="1773" 
d="M139 0v1034h254l23 -88q113 113 266 113q88 0 163.5 -35.5t125.5 -103.5q127 139 311 139q161 0 269 -108t108 -300v-651h-299v625q0 76 -39.5 117.5t-110.5 41.5t-116 -40t-45 -119v-625h-299v625q0 76 -40 117.5t-110 41.5q-71 0 -116.5 -40t-45.5 -119v-625h-299z" />
    <glyph glyph-name="n" unicode="n" horiz-adv-x="1236" 
d="M139 0v1034h262l21 -84q127 109 289 109q114 0 206 -48t149.5 -148t57.5 -238v-625h-301v575q0 97 -49 151t-135 54t-142.5 -52t-56.5 -153v-575h-301z" />
    <glyph glyph-name="o" unicode="o" horiz-adv-x="1234" 
d="M616 1059q243 0 401.5 -154t158.5 -389q0 -154 -72 -277.5t-200 -193.5t-288 -70q-239 0 -397 154t-158 387q0 235 158 389t397 154zM616 780q-112 0 -177.5 -71.5t-65.5 -192.5t65.5 -192.5t177.5 -71.5q113 0 179.5 71.5t66.5 192.5t-66.5 192.5t-179.5 71.5z" />
    <glyph glyph-name="p" unicode="p" horiz-adv-x="1300" 
d="M139 1034h262l23 -104q120 129 305 129q143 0 259.5 -70t183.5 -194.5t67 -278.5q0 -232 -146.5 -386.5t-363.5 -154.5q-173 0 -289 113v-539h-301v1485zM682 780q-112 0 -177 -71.5t-65 -192.5t65 -192.5t177 -71.5t178 72t66 192t-66 192t-178 72z" />
    <glyph glyph-name="q" unicode="q" horiz-adv-x="1300" 
d="M567 1059q180 0 305 -131l27 106h262v-1485h-301v545q-119 -119 -293 -119q-215 0 -360.5 154.5t-145.5 386.5q0 154 66.5 278.5t182.5 194.5t257 70zM616 780q-112 0 -176.5 -71.5t-64.5 -192.5t64.5 -192.5t176.5 -71.5t178 72t66 192t-66 192t-178 72z" />
    <glyph glyph-name="r" unicode="r" horiz-adv-x="835" 
d="M139 0v1034h273l20 -104q103 127 277 127q41 0 106 -15l-35 -297q-48 13 -106 13q-103 0 -168.5 -65.5t-65.5 -180.5v-512h-301z" />
    <glyph glyph-name="s" unicode="s" horiz-adv-x="1024" 
d="M522 -25q-184 0 -312.5 75t-176.5 231l309 67q24 -133 182 -133q68 0 108 25.5t40 70.5q0 12 -3.5 22.5t-12.5 18.5t-18 14.5t-25 11.5t-28.5 8.5t-34.5 7t-36 5.5t-39.5 5.5t-40.5 5.5q-59 9 -103.5 19.5t-95.5 33.5t-84 55t-55 84t-22 119q0 147 126.5 242.5
t325.5 95.5q358 0 457 -291l-293 -66q-29 121 -164 121q-68 0 -106.5 -25.5t-38.5 -66.5q0 -17 6 -29.5t20.5 -22t29 -16t42 -12t47.5 -8.5t58 -8q46 -6 78 -11.5t77 -17t76 -25.5t64.5 -37.5t54 -53t34 -72t13.5 -94.5q0 -159 -120.5 -254t-338.5 -95z" />
    <glyph glyph-name="t" unicode="t" horiz-adv-x="888" 
d="M10 872l408 390h94v-228h352v-264h-352v-375q0 -141 145 -141q56 0 125 29l68 -244q-128 -64 -264 -64q-174 0 -274.5 94t-100.5 253v448h-201v102z" />
    <glyph glyph-name="u" unicode="u" horiz-adv-x="1208" 
d="M414 1034v-616q0 -79 47 -122.5t127 -43.5q77 0 128.5 45t51.5 133v604h301v-1034h-250l-20 92q-108 -117 -297 -117q-79 0 -148.5 25.5t-123.5 74.5t-85.5 128.5t-31.5 179.5v651h301z" />
    <glyph glyph-name="v" unicode="v" horiz-adv-x="1101" 
d="M383 0l-379 1034h326l229 -678l225 678h314l-379 -1034h-336z" />
    <glyph glyph-name="w" unicode="w" horiz-adv-x="1425" 
d="M25 1034h301l135 -696l225 455h66l223 -449l129 690h297l-207 -1034h-317l-162 334l-166 -334h-316z" />
    <glyph glyph-name="x" unicode="x" horiz-adv-x="1069" 
d="M346 1034l203 -291l186 291h332l-352 -526l354 -508h-346l-215 307l-189 -307h-321l342 545l-344 489h350z" />
    <glyph glyph-name="y" unicode="y" horiz-adv-x="1153" 
d="M4 1034h334l266 -641l227 641h318l-571 -1485h-314l189 471z" />
    <glyph glyph-name="z" unicode="z" horiz-adv-x="978" 
d="M63 770v264h869v-94l-453 -676h449v-264h-873v94l449 676h-441z" />
    <glyph glyph-name="braceleft" unicode="{" horiz-adv-x="880" 
d="M829 -383h-165q-184 0 -293.5 102.5t-96.5 280.5l19 258q5 65 -0.5 106.5t-26.5 73.5t-61.5 47t-106.5 19v254q120 1 161.5 42.5t33.5 147.5l-19 260q-15 190 100.5 300t313.5 110h141v-277h-116q-65 0 -101 -42t-32 -117l14 -205q20 -288 -213 -348q125 -37 174.5 -132
t38.5 -243l-14 -201q-4 -75 31.5 -116t101.5 -41h116v-279z" />
    <glyph glyph-name="braceright" unicode="}" horiz-adv-x="880" 
d="M51 -383v279h117q66 0 101.5 41t31.5 116l-14 201q-11 148 38.5 243t174.5 132q-233 60 -213 348l14 205q4 75 -32 117t-101 42h-117v277h142q197 0 312.5 -110t100.5 -300l-18 -260q-8 -106 33 -147.5t161 -42.5v-254q-66 -4 -106.5 -19t-61 -47t-26 -73.5t-0.5 -106.5
l18 -258q13 -179 -96 -281t-293 -102h-166z" />
    <glyph glyph-name="exclamdown" unicode="&#xa1;" horiz-adv-x="800" 
d="M401 1059q85 0 140 -53t55 -136q0 -84 -55 -138t-140 -54q-86 0 -141 53.5t-55 138.5q0 83 55 136t141 53zM580 -500h-359l49 1018h262z" />
    <glyph glyph-name="questiondown" unicode="&#xbf;" horiz-adv-x="1159" 
d="M629 1059q85 0 139.5 -53t54.5 -136q0 -85 -54.5 -138.5t-139.5 -53.5q-86 0 -141.5 53.5t-55.5 138.5q0 83 55.5 136t141.5 53zM561 -524q-219 2 -362.5 119.5t-143.5 314.5q0 75 23.5 137t61 103t82.5 75.5t90 62t82.5 54t61 60.5t23.5 73v43h314v-59q0 -65 -22.5 -119
t-59 -91t-80.5 -68t-88 -58t-80.5 -54t-59 -63t-22.5 -78q0 -80 54.5 -125t142.5 -45q98 0 161 53.5t78 141.5l299 -70q-40 -189 -187.5 -298t-367.5 -109z" />
    <glyph glyph-name="uni0400" unicode="&#x400;" horiz-adv-x="1325" 
d="M328 1915h372l189 -277h-262zM180 0v1536h1045v-293h-717v-301h487v-293h-487v-356h737v-293h-1065z" />
    <glyph glyph-name="afii10023" unicode="&#x401;" horiz-adv-x="1325" 
d="M516 1634q-69 0 -115.5 45.5t-46.5 114.5t46.5 114.5t115.5 45.5t114.5 -45.5t45.5 -114.5t-45.5 -114.5t-114.5 -45.5zM928 1634q-69 0 -115.5 45.5t-46.5 114.5t46.5 114.5t115.5 45.5t114 -45.5t45 -114.5t-45 -114.5t-114 -45.5zM180 0v1536h1045v-293h-717v-301h487
v-293h-487v-356h737v-293h-1065z" />
    <glyph glyph-name="afii10051" unicode="&#x402;" horiz-adv-x="1781" 
d="M500 0v1235h-439v301h1205v-301h-439v-291q144 115 355 115q100 0 187.5 -31.5t154 -91t105 -152.5t38.5 -209v-182q0 -188 -118.5 -303t-317.5 -115q-118 0 -207 31l47 277q57 -13 96 -13q87 0 130.5 44.5t43.5 127.5v95q0 117 -65 175t-178 58q-85 0 -158.5 -30
t-112.5 -93v-647h-327z" />
    <glyph glyph-name="afii10052" unicode="&#x403;" horiz-adv-x="1239" 
d="M750 1915h370l-303 -277h-256zM180 0v1536h1006v-301h-678v-1235h-328z" />
    <glyph glyph-name="afii10053" unicode="&#x404;" horiz-adv-x="1607" 
d="M92 768q0 223 97.5 403.5t275.5 285t403 104.5q263 0 446.5 -137t239.5 -371l-319 -92q-78 299 -367 299q-159 0 -268.5 -90t-148.5 -242h503v-301h-510q35 -160 144 -255.5t274 -95.5q151 0 250.5 77.5t138.5 221.5l318 -90q-71 -239 -257.5 -374.5t-451.5 -135.5
q-230 0 -406 103.5t-269 283t-93 406.5z" />
    <glyph glyph-name="afii10054" unicode="&#x405;" horiz-adv-x="1368" 
d="M1296 1155l-323 -90q-26 100 -95 156.5t-180 56.5q-118 0 -185 -45.5t-67 -126.5q0 -36 17.5 -63.5t38 -44t69.5 -33t76.5 -23t95.5 -20.5q22 -5 33 -7q61 -12 105.5 -23t102.5 -31t99.5 -42t85 -56.5t70.5 -76t44 -98.5t17 -125q0 -223 -166 -355.5t-436 -132.5
q-257 0 -420.5 111t-222.5 324l334 96q52 -246 320 -246q116 0 187 46t71 136q0 37 -15 65.5t-39.5 46.5t-62.5 32t-77 23.5t-89 19.5q-21 4 -31 6q-65 12 -108.5 22t-105.5 29t-103.5 40.5t-87.5 56.5t-73.5 76.5t-45.5 100.5t-18 130q0 138 79.5 246.5t213.5 166.5t298 58
q231 0 382.5 -104t211.5 -302z" />
    <glyph glyph-name="afii10055" unicode="&#x406;" horiz-adv-x="688" 
d="M180 0v1536h328v-1536h-328z" />
    <glyph glyph-name="afii10056" unicode="&#x407;" horiz-adv-x="688" 
d="M170 1630q-63 0 -100 43t-37 117q0 72 37 115t100 43q62 0 98.5 -43t36.5 -115q0 -73 -36.5 -116.5t-98.5 -43.5zM522 1630q-63 0 -101 43.5t-38 116.5q0 72 38 115t101 43q60 0 96.5 -43t36.5 -115q0 -73 -36.5 -116.5t-96.5 -43.5zM180 0v1536h328v-1536h-328z" />
    <glyph glyph-name="afii10057" unicode="&#x408;" horiz-adv-x="1298" 
d="M596 -25q-223 0 -363.5 109.5t-177.5 286.5l314 102q15 -95 74 -146t153 -51q102 0 159.5 56t57.5 153v750h-618v301h946v-1057q0 -220 -147.5 -362t-397.5 -142z" />
    <glyph glyph-name="afii10058" unicode="&#x409;" horiz-adv-x="2220" 
d="M57 293q27 -6 54 -6q80 0 123.5 78.5t68.5 294.5t33 630l6 246h1026v-465h268q110 0 206.5 -36t170 -102.5t116 -169t42.5 -228.5q0 -235 -150 -385t-385 -150h-596v1235h-391l-4 -137q-8 -269 -32 -462.5t-61.5 -321.5t-95.5 -203t-127.5 -105.5t-164.5 -30.5
q-93 0 -160 41zM1618 770h-250v-469h250q101 0 163 67.5t62 166.5q0 107 -60.5 171t-164.5 64z" />
    <glyph glyph-name="afii10059" unicode="&#x40a;" horiz-adv-x="2312" 
d="M180 0v1536h328v-553h592v553h327v-551h314q144 0 261.5 -56.5t189 -170t71.5 -266.5q0 -217 -146 -354.5t-376 -137.5h-641v682h-592v-682h-328zM1731 684h-304v-383h304q96 0 150 54.5t54 136.5q0 89 -52.5 140.5t-151.5 51.5z" />
    <glyph glyph-name="afii10060" unicode="&#x40b;" horiz-adv-x="1787" 
d="M500 0v1235h-439v301h1205v-301h-439v-291q144 115 355 115q100 0 187.5 -30.5t154 -88.5t105 -149.5t38.5 -204.5v-586h-326v537q0 117 -65 175t-178 58q-85 0 -158.5 -30t-112.5 -93v-647h-327z" />
    <glyph glyph-name="afii10061" unicode="&#x40c;" horiz-adv-x="1533" 
d="M834 1915h370l-303 -277h-256zM508 653v-653h-328v1536h328v-575h176l440 575h387l-565 -715l578 -821h-385l-461 653h-170z" />
    <glyph glyph-name="uni040D" unicode="&#x40d;" horiz-adv-x="1673" 
d="M442 1915h373l189 -277h-263zM180 0v1536h312v-1034l712 1034h289v-1536h-311v1032l-711 -1032h-291z" />
    <glyph glyph-name="afii10062" unicode="&#x40e;" horiz-adv-x="1409" 
d="M725 1794q56 0 91 32.5t38 88.5h266q-3 -157 -115 -255.5t-282 -98.5t-282 98.5t-113 255.5h268q0 -57 34 -89t95 -32zM399 0l168 383l-563 1153h358l369 -776l338 776h336l-672 -1536h-334z" />
    <glyph glyph-name="afii10145" unicode="&#x40f;" horiz-adv-x="1595" 
d="M180 0v1536h328v-1235h579v1235h328v-1536h-459v-369h-317v369h-459z" />
    <glyph glyph-name="afii10017" unicode="&#x410;" horiz-adv-x="1564" 
d="M25 0l581 1536h352l582 -1536h-342l-147 412h-551l-148 -412h-327zM608 709h336l-168 469z" />
    <glyph glyph-name="afii10018" unicode="&#x411;" horiz-adv-x="1425" 
d="M180 0v1536h1065v-301h-737v-266h356q231 0 369.5 -134t138.5 -352q0 -215 -139 -349t-369 -134h-684zM836 682h-328v-395h328q91 0 144.5 52t53.5 144q0 96 -53.5 147.5t-144.5 51.5z" />
    <glyph glyph-name="afii10019" unicode="&#x412;" horiz-adv-x="1449" 
d="M180 0v1536h672q204 0 329.5 -107.5t125.5 -287.5q0 -214 -191 -328q260 -102 260 -364q0 -202 -134 -325.5t-353 -123.5h-709zM817 1264h-315v-338h315q80 0 128 47t48 125q0 76 -48 121t-128 45zM856 649h-354v-377h354q91 0 143 50.5t52 136.5q0 87 -53.5 138.5
t-141.5 51.5z" />
    <glyph glyph-name="afii10020" unicode="&#x413;" horiz-adv-x="1239" 
d="M180 0v1536h1006v-301h-678v-1235h-328z" />
    <glyph glyph-name="afii10021" unicode="&#x414;" horiz-adv-x="1654" 
d="M16 -369v670h119q40 32 69.5 73t49.5 100.5t33 122t20.5 157.5t11 184.5t5.5 224.5l6 373h1091v-1235h191v-670h-316v369h-964v-369h-316zM639 1102q-5 -314 -42.5 -505.5t-115.5 -295.5h619v934h-459z" />
    <glyph glyph-name="afii10022" unicode="&#x415;" horiz-adv-x="1325" 
d="M180 0v1536h1045v-293h-717v-301h487v-293h-487v-356h737v-293h-1065z" />
    <glyph glyph-name="afii10024" unicode="&#x416;" horiz-adv-x="2117" 
d="M1217 1536v-578h151l363 578h364l-465 -715l473 -821h-366l-373 653h-147v-653h-320v653h-145l-381 -653h-357l478 805l-469 731h362l360 -578h152v578h320z" />
    <glyph glyph-name="afii10025" unicode="&#x417;" horiz-adv-x="1409" 
d="M690 -25q-121 0 -225.5 26.5t-192.5 81t-148.5 146.5t-82.5 215l319 84q42 -258 332 -258q133 0 211 52t78 145q0 80 -55 124t-156 44h-223v293h198q92 0 149.5 41.5t57.5 120.5q0 83 -65 133.5t-193 50.5q-129 0 -209.5 -55.5t-105.5 -161.5l-309 69q48 200 217.5 317.5
t421.5 117.5q264 0 419.5 -121t155.5 -312q0 -224 -217 -331q121 -42 183.5 -134.5t62.5 -213.5q0 -216 -171.5 -345t-451.5 -129z" />
    <glyph glyph-name="afii10026" unicode="&#x418;" horiz-adv-x="1673" 
d="M180 0v1536h312v-1034l712 1034h289v-1536h-311v1032l-711 -1032h-291z" />
    <glyph glyph-name="afii10027" unicode="&#x419;" horiz-adv-x="1673" 
d="M872 1794q58 0 93 32.5t36 88.5h267q-3 -157 -114.5 -255.5t-281.5 -98.5t-282 98.5t-115 255.5h268q0 -57 34.5 -89t94.5 -32zM180 0v1536h312v-1034l712 1034h289v-1536h-311v1032l-711 -1032h-291z" />
    <glyph glyph-name="afii10028" unicode="&#x41a;" horiz-adv-x="1533" 
d="M508 653v-653h-328v1536h328v-575h176l440 575h387l-565 -715l578 -821h-385l-461 653h-170z" />
    <glyph glyph-name="afii10029" unicode="&#x41b;" horiz-adv-x="1634" 
d="M57 293q27 -6 54 -6q48 0 80.5 26.5t58 91t41.5 188t26.5 300.5t18.5 446l6 197h1112v-1536h-328v1235h-477l-4 -137q-8 -269 -32 -462.5t-61.5 -321.5t-95.5 -203t-127.5 -105.5t-164.5 -30.5q-93 0 -160 41z" />
    <glyph glyph-name="afii10030" unicode="&#x41c;" horiz-adv-x="1912" 
d="M180 0v1536h346l439 -580l424 580h344v-1536h-312v1110l-430 -578h-69l-428 566v-1098h-314z" />
    <glyph glyph-name="afii10031" unicode="&#x41d;" horiz-adv-x="1685" 
d="M180 0v1536h328v-578h670v578h327v-1536h-327v657h-670v-657h-328z" />
    <glyph glyph-name="afii10032" unicode="&#x41e;" horiz-adv-x="1761" 
d="M92 768q0 226 101.5 407t282 283.5t405.5 102.5t405.5 -102.5t281.5 -283.5t101 -407t-101 -407t-281.5 -283.5t-405.5 -102.5t-405.5 102.5t-282 283.5t-101.5 407zM1331 768q0 223 -123 357.5t-327 134.5t-327.5 -134.5t-123.5 -357.5t123.5 -357.5t327.5 -134.5
t327 134.5t123 357.5z" />
    <glyph glyph-name="afii10033" unicode="&#x41f;" horiz-adv-x="1654" 
d="M180 0v1536h1295v-1536h-326v1235h-643v-1235h-326z" />
    <glyph glyph-name="afii10034" unicode="&#x420;" horiz-adv-x="1433" 
d="M180 0v1536h645q235 0 382 -142t147 -364q0 -219 -147.5 -361.5t-381.5 -142.5h-317v-526h-328zM807 1243h-299v-424h299q101 0 160 56t59 155q0 100 -59 156.5t-160 56.5z" />
    <glyph glyph-name="afii10035" unicode="&#x421;" horiz-adv-x="1607" 
d="M92 768q0 223 97.5 403.5t275.5 285t403 104.5q263 0 446.5 -137t239.5 -371l-319 -92q-78 299 -367 299q-200 0 -319 -138.5t-119 -353.5q0 -216 115.5 -354t316.5 -138q151 0 250.5 77.5t138.5 221.5l318 -90q-71 -239 -257.5 -374.5t-451.5 -135.5q-230 0 -406 103.5
t-269 283t-93 406.5z" />
    <glyph glyph-name="afii10036" unicode="&#x422;" horiz-adv-x="1327" 
d="M500 0v1235h-439v301h1205v-301h-439v-1235h-327z" />
    <glyph glyph-name="afii10037" unicode="&#x423;" horiz-adv-x="1409" 
d="M399 0l168 383l-563 1153h358l369 -776l338 776h336l-672 -1536h-334z" />
    <glyph glyph-name="afii10038" unicode="&#x424;" horiz-adv-x="1841" 
d="M756 -51v201q-203 3 -361.5 85t-246 227t-87.5 329q0 182 87 326.5t245.5 228t362.5 88.5v153h327v-153q315 -6 506 -185.5t191 -457.5q0 -279 -191 -457t-506 -184v-201h-327zM387 791q0 -154 96 -252.5t273 -98.5v705q-120 -1 -205 -50t-124.5 -127t-39.5 -177z
M1454 791q0 154 -96.5 254t-274.5 100v-705q179 0 275 98.5t96 252.5z" />
    <glyph glyph-name="afii10039" unicode="&#x425;" horiz-adv-x="1464" 
d="M408 1536l337 -506l314 506h366l-499 -776l508 -760h-381l-346 520l-316 -520h-352l487 791l-497 745h379z" />
    <glyph glyph-name="afii10040" unicode="&#x426;" horiz-adv-x="1650" 
d="M180 0v1536h328v-1235h582v1235h327v-1235h191v-670h-320v369h-1108z" />
    <glyph glyph-name="afii10041" unicode="&#x427;" horiz-adv-x="1507" 
d="M651 539q-152 0 -261.5 39t-171.5 110.5t-90 159.5t-28 199v489h326v-408q0 -150 73.5 -216t215.5 -66q144 0 284 59v631h328v-1536h-328v604q-170 -65 -348 -65z" />
    <glyph glyph-name="afii10042" unicode="&#x428;" horiz-adv-x="2183" 
d="M180 0v1536h326v-1235h424v1235h325v-1235h424v1235h324v-1536h-1823z" />
    <glyph glyph-name="afii10043" unicode="&#x429;" horiz-adv-x="2236" 
d="M180 0v1536h326v-1235h424v1235h325v-1235h424v1235h324v-1235h190v-670h-315v369h-1698z" />
    <glyph glyph-name="afii10044" unicode="&#x42a;" horiz-adv-x="1538" 
d="M340 0v1235h-340v301h668v-465h288q110 0 206.5 -36t169.5 -102.5t115 -169t42 -228.5q0 -235 -149 -385t-384 -150h-616zM938 770h-270v-469h268q102 0 163.5 67t61.5 167q0 106 -60.5 170.5t-162.5 64.5z" />
    <glyph glyph-name="afii10045" unicode="&#x42b;" horiz-adv-x="2000" 
d="M180 0v1536h328v-465h289q110 0 206 -36t169 -102.5t115 -169t42 -228.5q0 -235 -149.5 -385t-382.5 -150h-617zM1493 0v1536h328v-1536h-328zM778 770h-270v-469h268q101 0 163 67.5t62 166.5q0 106 -60.5 170.5t-162.5 64.5z" />
    <glyph glyph-name="afii10046" unicode="&#x42c;" horiz-adv-x="1378" 
d="M180 0v1536h328v-465h289q110 0 206 -36t169 -102.5t115 -169t42 -228.5q0 -235 -149.5 -385t-382.5 -150h-617zM778 770h-270v-469h268q101 0 163 67.5t62 166.5q0 106 -60.5 170.5t-162.5 64.5z" />
    <glyph glyph-name="afii10047" unicode="&#x42d;" horiz-adv-x="1624" 
d="M647 942h531q-38 150 -141 235t-263 85q-155 0 -259.5 -78.5t-139.5 -210.5l-307 92q67 228 256 362t452 134q223 0 396 -103t265.5 -283t92.5 -407q0 -170 -54.5 -316.5t-152.5 -251.5t-242 -165t-317 -60q-273 0 -453 131t-241 357l319 92q32 -127 128 -204t247 -77
q177 0 285.5 96.5t138.5 270.5h-541v301z" />
    <glyph glyph-name="afii10048" unicode="&#x42e;" horiz-adv-x="2353" 
d="M180 0v1536h328v-600h192q53 279 264.5 452t508.5 173q225 0 405.5 -102.5t281.5 -283.5t101 -407t-101 -407t-281.5 -283.5t-405.5 -102.5q-307 0 -521.5 184t-257.5 476h-186v-635h-328zM1923 768q0 223 -123 357.5t-327 134.5t-327.5 -134.5t-123.5 -357.5
t123.5 -357.5t327.5 -134.5t327 134.5t123 357.5z" />
    <glyph glyph-name="afii10049" unicode="&#x42f;" horiz-adv-x="1521" 
d="M1341 0h-325v567h-256l-367 -567h-358l397 608q-149 44 -234 158t-85 287q0 218 148 350.5t388 132.5h692v-1536zM657 860h359v383h-361q-95 0 -149.5 -51.5t-54.5 -140.5q0 -88 55 -139.5t151 -51.5z" />
    <glyph glyph-name="afii10065" unicode="&#x430;" horiz-adv-x="1146" 
d="M760 0l-19 131q-117 -156 -327 -156q-140 0 -236 82.5t-96 227.5q0 63 21 114.5t55.5 86.5t86 63.5t104 45.5t118.5 32l262 59q-29 121 -176 121q-80 0 -132 -35t-69 -102l-282 53q38 149 167 242.5t326 93.5q216 0 340.5 -114.5t124.5 -321.5v-623h-268zM381 309
q0 -44 30.5 -67t80.5 -23q46 0 88 14t77.5 42t56.5 75.5t21 108.5v16l-231 -57q-60 -13 -91.5 -38t-31.5 -71z" />
    <glyph glyph-name="afii10066" unicode="&#x431;" horiz-adv-x="1267" 
d="M651 -25q-144 0 -255 53t-181 149.5t-105.5 227t-35.5 289.5q0 370 143 571.5t457 237.5l225 25q89 9 168 33l41 -269q-86 -25 -195 -35l-213 -22q-157 -18 -232.5 -97.5t-92.5 -256.5q121 153 348 153q98 0 184.5 -34.5t153.5 -98.5t106 -164t39 -223
q0 -166 -73.5 -289.5t-198.5 -186.5t-283 -63zM651 776q-112 0 -176.5 -70.5t-64.5 -191.5t64.5 -191.5t176.5 -70.5t178 71t66 191t-66 191t-178 71z" />
    <glyph glyph-name="afii10067" unicode="&#x432;" horiz-adv-x="1120" 
d="M139 0v1034h555q148 0 239 -70t91 -200q0 -155 -152 -229q195 -59 195 -244q0 -138 -91 -214.5t-247 -76.5h-590zM639 813h-211v-184h211q47 0 72.5 24.5t25.5 67.5t-25.5 67.5t-72.5 24.5zM657 221q48 0 75.5 25t27.5 69q0 45 -27.5 71t-75.5 26h-229v-191h229z" />
    <glyph glyph-name="afii10068" unicode="&#x433;" horiz-adv-x="944" 
d="M139 0v1034h764v-264h-463v-770h-301z" />
    <glyph glyph-name="afii10069" unicode="&#x434;" horiz-adv-x="1275" 
d="M39 -283v547h100q47 38 72 147t31 314l8 309h833v-770h148v-547h-291v283h-610v-283h-291zM518 727q-9 -326 -86 -463h363v512h-275z" />
    <glyph glyph-name="afii10070" unicode="&#x435;" horiz-adv-x="1187" 
d="M612 -25q-254 0 -402.5 150.5t-148.5 384.5q0 239 152.5 394t392.5 155q228 0 372 -140t144 -366q0 -69 -14 -129h-746q42 -191 254 -191q174 0 226 125l262 -75q-54 -149 -182 -228.5t-310 -79.5zM604 815q-88 0 -149.5 -45t-87.5 -133h452q-12 84 -68.5 131t-146.5 47z
" />
    <glyph glyph-name="afii10072" unicode="&#x436;" horiz-adv-x="1630" 
d="M350 1034l238 -358h82v358h288v-358h82l238 358h338l-340 -475l348 -559h-336l-241 399h-89v-399h-288v399h-90l-250 -399h-324l352 547l-344 487h336z" />
    <glyph glyph-name="afii10073" unicode="&#x437;" horiz-adv-x="1060" 
d="M526 -25q-194 0 -321 74t-178 215l292 84q36 -131 203 -131q81 0 124.5 25.5t43.5 70.5q0 90 -133 90h-141v234h137q131 0 131 84q0 45 -43 70.5t-115 25.5q-163 0 -196 -125l-283 62q44 148 172.5 226.5t323.5 78.5q199 0 320.5 -86t121.5 -219q0 -156 -180 -224
q196 -53 196 -235q0 -104 -64 -177.5t-169.5 -108t-241.5 -34.5z" />
    <glyph glyph-name="afii10074" unicode="&#x438;" horiz-adv-x="1251" 
d="M139 0v1034h291v-620l391 620h291v-1034h-291v621l-391 -621h-291z" />
    <glyph glyph-name="afii10075" unicode="&#x439;" horiz-adv-x="1251" 
d="M625 1366q45 0 72 25.5t30 72.5h254q-8 -135 -105 -220t-251 -85q-153 0 -250.5 85t-106.5 220h254q0 -47 27.5 -72.5t75.5 -25.5zM139 0v1034h291v-620l391 620h291v-1034h-291v621l-391 -621h-291z" />
    <glyph glyph-name="afii10076" unicode="&#x43a;" horiz-adv-x="1179" 
d="M139 1034h301v-354h115l258 354h348l-364 -479l372 -555h-346l-268 397h-115v-397h-301v1034z" />
    <glyph glyph-name="afii10077" unicode="&#x43b;" horiz-adv-x="1218" 
d="M41 252q24 -4 33 -4q38 0 61.5 14.5t43.5 59.5t31 133.5t15 230.5l13 348h841v-1034h-301v770h-264l-6 -162q-14 -346 -98.5 -489.5t-284.5 -143.5q-58 0 -119 23z" />
    <glyph glyph-name="afii10078" unicode="&#x43c;" horiz-adv-x="1482" 
d="M139 0v1034h299l310 -438l296 438h299v-1034h-280v635l-287 -416h-63l-293 414v-633h-281z" />
    <glyph glyph-name="afii10079" unicode="&#x43d;" horiz-adv-x="1247" 
d="M139 0v1034h301v-370h369v370h301v-1034h-301v393h-369v-393h-301z" />
    <glyph glyph-name="afii10080" unicode="&#x43e;" horiz-adv-x="1234" 
d="M616 1059q243 0 401.5 -154t158.5 -389q0 -154 -72 -277.5t-200 -193.5t-288 -70q-239 0 -397 154t-158 387q0 235 158 389t397 154zM616 780q-112 0 -177.5 -71.5t-65.5 -192.5t65.5 -192.5t177.5 -71.5q113 0 179.5 71.5t66.5 192.5t-66.5 192.5t-179.5 71.5z" />
    <glyph glyph-name="afii10081" unicode="&#x43f;" horiz-adv-x="1228" 
d="M139 0v1034h951v-1034h-302v770h-348v-770h-301z" />
    <glyph glyph-name="afii10082" unicode="&#x440;" horiz-adv-x="1300" 
d="M139 1034h262l23 -104q120 129 305 129q143 0 259.5 -70t183.5 -194.5t67 -278.5q0 -232 -146.5 -386.5t-363.5 -154.5q-173 0 -289 113v-539h-301v1485zM682 780q-112 0 -177 -71.5t-65 -192.5t65 -192.5t177 -71.5t178 72t66 192t-66 192t-178 72z" />
    <glyph glyph-name="afii10083" unicode="&#x441;" horiz-adv-x="1138" 
d="M61 516q0 234 156 388.5t393 154.5q190 0 324.5 -102t171.5 -271l-299 -61q-17 74 -70 114.5t-129 40.5q-105 0 -170 -70t-65 -194t62 -194t169 -70q85 0 139 39.5t72 109.5l295 -53q-35 -162 -174 -267.5t-334 -105.5q-234 0 -387.5 153.5t-153.5 387.5z" />
    <glyph glyph-name="afii10084" unicode="&#x442;" horiz-adv-x="1001" 
d="M350 0v770h-315v264h932v-264h-316v-770h-301z" />
    <glyph glyph-name="afii10085" unicode="&#x443;" horiz-adv-x="1153" 
d="M4 1034h334l266 -641l227 641h318l-571 -1485h-314l189 471z" />
    <glyph glyph-name="afii10086" unicode="&#x444;" horiz-adv-x="1511" 
d="M610 -451v435q-156 6 -280.5 73.5t-196.5 187.5t-72 271q0 231 155 378.5t394 156.5v485h291v-485q239 -9 394 -156t155 -379q0 -152 -72 -272t-196.5 -187t-280.5 -73v-435h-291zM1149 516q0 128 -63.5 201t-184.5 82v-563q121 9 184.5 82t63.5 198zM362 516
q0 -125 63.5 -198t184.5 -82v563q-121 -9 -184.5 -82t-63.5 -201z" />
    <glyph glyph-name="afii10087" unicode="&#x445;" horiz-adv-x="1069" 
d="M346 1034l203 -291l186 291h332l-352 -526l354 -508h-346l-215 307l-189 -307h-321l342 545l-344 489h350z" />
    <glyph glyph-name="afii10088" unicode="&#x446;" horiz-adv-x="1267" 
d="M139 0v1034h301v-770h336v770h301v-770h146v-547h-291v283h-793z" />
    <glyph glyph-name="afii10089" unicode="&#x447;" horiz-adv-x="1159" 
d="M492 317q-195 0 -297.5 92t-102.5 257v368h301v-305q0 -82 43 -119t133 -37q71 0 150 31v430h301v-1034h-301v356q-119 -39 -227 -39z" />
    <glyph glyph-name="afii10090" unicode="&#x448;" horiz-adv-x="1732" 
d="M139 0v1034h297v-770h281v770h297v-770h282v770h297v-1034h-1454z" />
    <glyph glyph-name="afii10091" unicode="&#x449;" horiz-adv-x="1785" 
d="M139 0v1034h297v-770h281v770h297v-770h282v770h297v-770h148v-547h-291v283h-1311z" />
    <glyph glyph-name="afii10092" unicode="&#x44a;" horiz-adv-x="1232" 
d="M274 0v770h-258v264h559v-274h218q178 0 287.5 -104.5t109.5 -274.5q0 -171 -109.5 -276t-287.5 -105h-519zM745 510h-170v-260h170q66 0 103 34.5t37 96.5q0 61 -37 95t-103 34z" />
    <glyph glyph-name="afii10093" unicode="&#x44b;" horiz-adv-x="1554" 
d="M139 0v1034h301v-274h203q175 0 283 -104.5t108 -274.5t-108 -275.5t-283 -105.5h-504zM1114 0v1034h301v-1034h-301zM596 514h-156v-268h156q66 0 102.5 35.5t36.5 99.5q0 63 -36.5 98t-102.5 35z" />
    <glyph glyph-name="afii10094" unicode="&#x44c;" horiz-adv-x="1099" 
d="M139 0v1034h301v-274h217q179 0 288.5 -104.5t109.5 -274.5t-110 -275.5t-288 -105.5h-518zM610 510h-170v-260h170q66 0 103 34.5t37 96.5q0 61 -37 95t-103 34z" />
    <glyph glyph-name="afii10095" unicode="&#x44d;" horiz-adv-x="1148" 
d="M1087 518q0 -155 -66.5 -278t-191.5 -194t-288 -71q-193 0 -322 83t-170 241l279 82q39 -148 215 -148q185 0 239 168h-305v238h305q-56 160 -229 160q-92 0 -154 -43.5t-84 -118.5l-270 76q45 155 181.5 250.5t326.5 95.5q239 0 386.5 -152.5t147.5 -388.5z" />
    <glyph glyph-name="afii10096" unicode="&#x44e;" horiz-adv-x="1742" 
d="M139 0v1034h301v-375h148q45 180 190.5 290t345.5 110q243 0 401 -154t158 -389q0 -154 -71.5 -277.5t-199.5 -193.5t-288 -70q-205 0 -353.5 116.5t-188.5 303.5h-142v-395h-301zM1124 780q-112 0 -177.5 -71.5t-65.5 -192.5t65.5 -192.5t177.5 -71.5q113 0 179.5 71.5
t66.5 192.5t-66.5 192.5t-179.5 71.5z" />
    <glyph glyph-name="afii10097" unicode="&#x44f;" horiz-adv-x="1150" 
d="M66 690q0 156 105.5 250t279.5 94h563v-1034h-291v338h-143l-218 -338h-311l246 373q-231 86 -231 317zM498 573h225v226h-225q-61 0 -94 -29.5t-33 -83.5q0 -55 32.5 -84t94.5 -29z" />
    <glyph glyph-name="uni0450" unicode="&#x450;" horiz-adv-x="1187" 
d="M197 1464h372l189 -276h-262zM612 -25q-254 0 -402.5 150.5t-148.5 384.5q0 239 152.5 394t392.5 155q228 0 372 -140t144 -366q0 -69 -14 -129h-746q42 -191 254 -191q174 0 226 125l262 -75q-54 -149 -182 -228.5t-310 -79.5zM604 815q-88 0 -149.5 -45t-87.5 -133h452
q-12 84 -68.5 131t-146.5 47z" />
    <glyph glyph-name="afii10071" unicode="&#x451;" horiz-adv-x="1187" 
d="M385 1184q-69 0 -115.5 45t-46.5 114t46.5 114.5t115.5 45.5t114.5 -45.5t45.5 -114.5t-45.5 -114t-114.5 -45zM797 1184q-69 0 -115.5 45t-46.5 114t46.5 114.5t115.5 45.5t114 -45.5t45 -114.5t-45 -114t-114 -45zM612 -25q-254 0 -402.5 150.5t-148.5 384.5
q0 239 152.5 394t392.5 155q228 0 372 -140t144 -366q0 -69 -14 -129h-746q42 -191 254 -191q174 0 226 125l262 -75q-54 -149 -182 -228.5t-310 -79.5zM604 815q-88 0 -149.5 -45t-87.5 -133h452q-12 84 -68.5 131t-146.5 47z" />
    <glyph glyph-name="afii10099" unicode="&#x452;" horiz-adv-x="1236" 
d="M139 0v1157h-139v236h139v143h301v-143h299v-236h-299v-194q119 96 271 96q114 0 206 -48t149.5 -148t57.5 -238v-713q0 -175 -95.5 -281t-262.5 -106q-90 0 -178 29l53 249q45 -10 70 -10q112 0 112 121v661q0 97 -49 151t-135 54q-85 0 -142 -52.5t-57 -152.5v-575
h-301z" />
    <glyph glyph-name="afii10100" unicode="&#x453;" horiz-adv-x="944" 
d="M592 1464h371l-304 -276h-256zM139 0v1034h764v-264h-463v-770h-301z" />
    <glyph glyph-name="afii10101" unicode="&#x454;" horiz-adv-x="1132" 
d="M61 516q0 235 155.5 389t391.5 154q189 0 321 -102t169 -271l-279 -61q-19 77 -75 119t-138 42q-80 0 -139.5 -40t-87.5 -113h287v-238h-285q26 -72 83.5 -110.5t139.5 -38.5q89 0 146.5 41t76.5 114l277 -53q-34 -162 -172.5 -267.5t-331.5 -105.5q-233 0 -386 154
t-153 387z" />
    <glyph glyph-name="afii10102" unicode="&#x455;" horiz-adv-x="1024" 
d="M522 -25q-184 0 -312.5 75t-176.5 231l309 67q24 -133 182 -133q68 0 108 25.5t40 70.5q0 12 -3.5 22.5t-12.5 18.5t-18 14.5t-25 11.5t-28.5 8.5t-34.5 7t-36 5.5t-39.5 5.5t-40.5 5.5q-59 9 -103.5 19.5t-95.5 33.5t-84 55t-55 84t-22 119q0 147 126.5 242.5
t325.5 95.5q358 0 457 -291l-293 -66q-29 121 -164 121q-68 0 -106.5 -25.5t-38.5 -66.5q0 -17 6 -29.5t20.5 -22t29 -16t42 -12t47.5 -8.5t58 -8q46 -6 78 -11.5t77 -17t76 -25.5t64.5 -37.5t54 -53t34 -72t13.5 -94.5q0 -159 -120.5 -254t-338.5 -95z" />
    <glyph glyph-name="afii10103" unicode="&#x456;" 
d="M113 1341q0 75 50 125t128 50q75 0 125.5 -50t50.5 -125q0 -76 -50.5 -126t-127.5 -50t-126.5 49.5t-49.5 126.5zM139 0v1034h301v-1034h-301z" />
    <glyph glyph-name="afii10104" unicode="&#x457;" 
d="M141 1178q-61 0 -98 45t-37 120t36.5 119.5t98.5 44.5q60 0 96.5 -44.5t36.5 -119.5t-36.5 -120t-96.5 -45zM457 1178q-61 0 -98 45t-37 120t36.5 119.5t98.5 44.5q60 0 96.5 -44.5t36.5 -119.5t-36.5 -120t-96.5 -45zM139 0v1034h301v-1034h-301z" />
    <glyph glyph-name="afii10105" unicode="&#x458;" 
d="M113 1341q0 75 50 125t128 50q75 0 125.5 -50t50.5 -125q0 -76 -50.5 -126t-127.5 -50t-126.5 49.5t-49.5 126.5zM139 1034h301v-1120q0 -177 -97.5 -283t-270.5 -106q-88 0 -176 29l55 247q31 -10 74 -10q114 0 114 117v1126z" />
    <glyph glyph-name="afii10106" unicode="&#x459;" horiz-adv-x="1695" 
d="M41 252q24 -4 37 -4q24 0 41.5 5.5t34 22t27.5 46.5t20.5 78.5t15 119t8.5 166.5l13 348h806v-286h209q178 0 288 -103t110 -270t-110 -271t-288 -104h-510v770h-229l-6 -162q-14 -346 -98.5 -489.5t-284.5 -143.5q-58 0 -119 23zM1206 504h-162v-260h162q66 0 103 34.5
t37 96.5q0 61 -37 95t-103 34z" />
    <glyph glyph-name="afii10107" unicode="&#x45a;" horiz-adv-x="1742" 
d="M139 0v1034h301v-354h357v354h301v-348h233q163 0 265 -94t102 -246q0 -154 -102 -250t-265 -96h-534v416h-357v-416h-301zM1296 449h-198v-211h198q54 0 83.5 28.5t29.5 79.5q0 49 -29.5 76t-83.5 27z" />
    <glyph glyph-name="afii10108" unicode="&#x45b;" horiz-adv-x="1236" 
d="M139 0v1157h-139v236h139v143h301v-143h299v-236h-299v-194q119 96 271 96q114 0 206 -48t149.5 -148t57.5 -238v-625h-301v575q0 97 -49 151t-135 54q-85 0 -142 -52.5t-57 -152.5v-575h-301z" />
    <glyph glyph-name="afii10109" unicode="&#x45c;" horiz-adv-x="1179" 
d="M676 1464h371l-304 -276h-256zM139 1034h301v-354h115l258 354h348l-364 -479l372 -555h-346l-268 397h-115v-397h-301v1034z" />
    <glyph glyph-name="uni045D" unicode="&#x45d;" horiz-adv-x="1251" 
d="M219 1464h373l188 -276h-262zM139 0v1034h291v-620l391 620h291v-1034h-291v621l-391 -621h-291z" />
    <glyph glyph-name="afii10110" unicode="&#x45e;" horiz-adv-x="1153" 
d="M590 1366q45 0 72 25.5t30 72.5h254q-8 -135 -105 -220t-251 -85q-153 0 -250.5 85t-106.5 220h254q0 -47 27.5 -72.5t75.5 -25.5zM4 1034h334l266 -641l227 641h318l-571 -1485h-314l189 471z" />
    <glyph glyph-name="afii10193" unicode="&#x45f;" horiz-adv-x="1212" 
d="M139 0v1034h301v-770h332v770h301v-1034h-319v-283h-295v283h-320z" />
    <glyph glyph-name="afii10146" unicode="&#x462;" horiz-adv-x="1384" 
d="M227 0v1063h-182v289h182v192h328v-192h330v-289h-330v-186h309q204 0 334.5 -122t130.5 -315q0 -192 -130.5 -316t-334.5 -124h-637zM842 600h-287v-321h285q73 0 118.5 44.5t45.5 116.5t-44.5 116t-117.5 44z" />
    <glyph glyph-name="afii10194" unicode="&#x463;" horiz-adv-x="1142" 
d="M145 0v989h-145v248h145v299h301v-299h306v-248h-306v-217h254q179 0 288.5 -106t109.5 -279t-110 -280t-288 -107h-555zM653 522h-207v-272h207q66 0 103 36t37 101q0 64 -37 99.5t-103 35.5z" />
    <glyph glyph-name="afii10147" unicode="&#x472;" horiz-adv-x="1761" 
d="M92 768q0 226 101.5 407t282 283.5t405.5 102.5t405.5 -102.5t281.5 -283.5t101 -407t-101 -407t-281.5 -283.5t-405.5 -102.5t-405.5 102.5t-282 283.5t-101.5 407zM881 1260q-165 0 -279.5 -90t-152.5 -248h864q-38 158 -152.5 248t-279.5 90zM881 276q169 0 285 94.5
t151 258.5h-873q35 -164 151.5 -258.5t285.5 -94.5z" />
    <glyph glyph-name="afii10195" unicode="&#x473;" horiz-adv-x="1234" 
d="M616 1059q243 0 401.5 -154t158.5 -389q0 -154 -72 -277.5t-200 -193.5t-288 -70q-239 0 -397 154t-158 387q0 235 158 389t397 154zM616 797q-88 0 -150 -44.5t-89 -123.5h483q-28 79 -91.5 123.5t-152.5 44.5zM616 238q89 0 152.5 43t89.5 120h-479q27 -77 88 -120
t149 -43z" />
    <glyph glyph-name="afii10148" unicode="&#x474;" horiz-adv-x="1591" 
d="M45 1536h348l365 -1180l270 879q51 167 140.5 246.5t230.5 79.5q101 0 180 -45l-53 -273q-24 8 -62 8q-106 0 -141 -110l-356 -1141h-430z" />
    <glyph glyph-name="afii10196" unicode="&#x475;" horiz-adv-x="1138" 
d="M379 0l-375 1034h320l233 -694l131 432q45 147 121 217t209 70q51 0 119 -21l-33 -262q-20 4 -39 4q-44 0 -72.5 -22.5t-48.5 -79.5l-229 -678h-336z" />
    <glyph glyph-name="afii10050" unicode="&#x490;" horiz-adv-x="1245" 
d="M180 0v1536h705v332h307v-570h-6v-63h-678v-1235h-328z" />
    <glyph glyph-name="afii10098" unicode="&#x491;" horiz-adv-x="956" 
d="M139 0v1034h484v281h292v-545h-475v-770h-301z" />
    <glyph glyph-name="ellipsis" unicode="&#x2026;" horiz-adv-x="1699" 
d="M291 -23q-85 0 -140 53t-55 136q0 84 55 138t140 54q86 0 141 -53.5t55 -138.5q0 -83 -55 -136t-141 -53zM850 -23q-85 0 -140 53t-55 136q0 84 55 138t140 54q86 0 141.5 -53.5t55.5 -138.5q0 -83 -55.5 -136t-141.5 -53zM1407 -23q-85 0 -140 53t-55 136q0 84 55 138
t140 54q86 0 141.5 -53.5t55.5 -138.5q0 -83 -55.5 -136t-141.5 -53z" />
    <glyph glyph-name="Euro" unicode="&#x20ac;" horiz-adv-x="1562" 
d="M41 489v220h135q-2 18 -2 59q0 37 2 55h-135v219h172q69 237 248 378t426 141q241 0 406 -123.5t223 -333.5l-310 -92q-75 250 -319 250q-115 0 -199 -57.5t-129 -162.5h442v-219h-491q-2 -18 -2 -55q0 -41 2 -59h491v-220h-440q45 -103 128.5 -159t197.5 -56
q130 0 213 67t114 181l310 -92q-66 -211 -233 -333t-408 -122q-247 0 -424.5 138t-247.5 376h-170z" />
    <glyph glyph-name="uni20BD" unicode="&#x20bd;" horiz-adv-x="1443" 
d="M258 0v178h-192v268h192v127h-190v273h190v690h616q229 0 373 -134.5t144 -346.5q0 -215 -143.5 -348.5t-373.5 -133.5h-288v-127h391v-268h-391v-178h-328zM860 1255h-274v-409h274q93 0 148 56.5t55 152.5q0 95 -54.5 147.5t-148.5 52.5z" />
    <glyph glyph-name="arrowleft" unicode="&#x2190;" horiz-adv-x="1468" 
d="M45 776l551 600l195 -180l-283 -287h883v-266h-883l283 -289l-195 -180z" />
    <glyph glyph-name="arrowup" unicode="&#x2191;" horiz-adv-x="1286" 
d="M774 100h-266v957l-279 -269l-178 189l592 549l592 -547l-180 -191l-281 269v-957z" />
    <glyph glyph-name="arrowright" unicode="&#x2192;" horiz-adv-x="1468" 
d="M78 643v266h885l-283 287l192 180l551 -600l-551 -602l-194 180l285 289h-885z" />
    <glyph glyph-name="arrowdown" unicode="&#x2193;" horiz-adv-x="1286" 
d="M643 10l-592 549l178 189l279 -269v957h266v-959l281 268l180 -190z" />
    <glyph glyph-name="E.alt" horiz-adv-x="1521" 
d="M692 414q-165 0 -284 104q27 -118 131 -182t247 -64q105 0 191.5 33.5t152.5 108t93 184.5l295 -76q-81 -275 -271 -411t-459 -136q-200 0 -355.5 71t-244 205.5t-88.5 311.5q0 132 50 238q-21 73 -21 160q0 169 83 305.5t236 215.5t349 79q236 0 399.5 -111t226.5 -315
l-293 -103q-35 118 -126.5 181t-221.5 63t-223 -63t-121 -169q122 84 264 84q163 0 268 -100t105 -258q0 -154 -109.5 -255t-273.5 -101zM659 881q-113 0 -186 -105q33 -55 82.5 -84.5t103.5 -29.5q58 0 95 29.5t37 80.5q0 50 -37 79.5t-95 29.5z" />
    <glyph glyph-name="L.alt" horiz-adv-x="1691" 
d="M1712 295q-58 -163 -170 -241.5t-260 -78.5q-144 0 -263 58t-228 155l-3 2q-72 -114 -165.5 -164.5t-212.5 -50.5q-182 0 -291 104t-109 269q0 171 111.5 283t288.5 112q133 0 276 -90l199 510q79 207 183 302.5t280 95.5q51 0 108 -13l-41 -284q-18 6 -41 6
q-123 0 -184 -154l-262 -655q51 -42 71.5 -58.5t64 -47.5t71.5 -43.5t67 -24t76 -11.5q126 0 182 146zM305 358q0 -50 31.5 -80t85.5 -30q50 0 87.5 33.5t72.5 109.5q-90 80 -156 80q-53 0 -87 -32t-34 -81z" />
    <glyph glyph-name="M.alt" horiz-adv-x="2215" 
d="M561 963l-199 -963h-325l207 989q58 281 217.5 426.5t396.5 145.5q166 0 311 -82q151 82 330 82q279 0 444.5 -192.5t165.5 -526.5q0 -381 -237 -842h-346q264 471 264 825q0 203 -85.5 320t-242.5 117q-16 0 -61 -5q89 -130 135.5 -284.5t46.5 -286.5
q0 -216 -123.5 -337.5t-320.5 -121.5q-199 0 -318 122.5t-119 330.5q0 134 54.5 289t154.5 286q-40 5 -51 5q-112 0 -190 -73.5t-109 -223.5zM1143 518q58 0 90.5 42.5t32.5 125.5q0 110 -30.5 218t-86.5 190q-62 -86 -95.5 -196.5t-33.5 -211.5q0 -82 32.5 -125t90.5 -43z
" />
    <glyph glyph-name="Q.alt" horiz-adv-x="1761" 
d="M881 -25q-225 0 -405.5 102.5t-282 283.5t-101.5 407q0 227 101.5 408t281.5 283t406 102q225 0 405.5 -102t281.5 -283t101 -408q0 -187 -76 -352t-213 -275l181 -194l-218 -191l-229 250q-112 -31 -233 -31zM418 768q0 -230 127.5 -367t333.5 -137l-27 29
q-131 142 -131 328q0 170 109.5 275t279.5 105q129 0 215 -59q-52 160 -161.5 246t-274.5 86q-214 0 -342.5 -137.5t-128.5 -368.5zM1141 399l41 -45q72 47 113.5 109.5t41.5 130.5q0 70 -39.5 114t-107.5 44q-70 0 -112 -44t-42 -114q0 -46 23.5 -89t81.5 -106z" />
    <glyph glyph-name="R.alt" horiz-adv-x="1628" 
d="M231 0q-122 483 -122 772q0 184 54.5 333.5t151.5 249t230.5 153t290.5 53.5q146 0 269 -47t207.5 -129t131.5 -197t47 -248q0 -199 -102 -354l180 -586h-320l-119 381q-98 -43 -210 -43q-177 0 -290.5 103.5t-113.5 267.5q0 156 105.5 257t265.5 101q90 0 169 -35
t132 -100q2 4 2 16q0 142 -96 231t-254 89q-66 0 -125 -15t-115 -52t-96.5 -93t-65 -144t-24.5 -198q0 -132 29.5 -302t101.5 -464h-314zM803 709q0 -50 39.5 -78.5t101.5 -28.5t111 27q-27 91 -61.5 130.5t-92.5 39.5q-46 0 -72 -25t-26 -65z" />
    <glyph glyph-name="S.alt" horiz-adv-x="1402" 
d="M141 1149q0 124 72 218.5t194.5 144t276.5 49.5q212 0 360.5 -91.5t200.5 -259.5l-321 -90q-21 80 -83.5 125t-158.5 45q-91 0 -145 -32.5t-54 -90.5q0 -52 43.5 -75t154.5 -50q11 -3 17 -4l144 -34q267 -64 392.5 -182.5t125.5 -317.5q0 -105 -38.5 -192.5t-106 -149.5
t-161 -104.5t-202.5 -62.5t-231 -20q-277 0 -435.5 100.5t-158.5 278.5q0 154 121.5 249t312.5 95q163 0 288 -73.5t169 -214.5l-291 -93q-41 134 -162 134q-51 0 -84 -26.5t-33 -68.5q0 -57 65 -87.5t189 -30.5q194 0 313 62t119 181q0 94 -71 153t-236 97l-209 47
q-180 41 -278.5 129.5t-98.5 241.5z" />
    <glyph glyph-name="W.alt" horiz-adv-x="2220" 
d="M2128 670q0 -163 -49.5 -295.5t-137 -219t-206 -133.5t-256.5 -47q-175 0 -328 80q-144 -80 -309 -80q-240 0 -399.5 133t-204.5 381l-191 1047h334l154 -883q35 -206 121 -295.5t221 -89.5q18 0 26 2q-94 124 -144 277t-50 297q0 227 122.5 364.5t317.5 137.5
q199 0 317.5 -136t118.5 -368q0 -147 -49 -295.5t-139 -270.5q33 -8 80 -8q89 0 155.5 33.5t104.5 92.5t56.5 130.5t18.5 155.5q0 143 -59.5 293.5t-179.5 351.5l-66 111l281 153l106 -186q117 -208 175.5 -385t58.5 -348zM1147 1067q-64 0 -100.5 -56.5t-36.5 -156.5
q0 -120 39.5 -235.5t111.5 -200.5q123 163 123 436q0 99 -36.5 156t-100.5 57z" />
    <glyph glyph-name="arrowleft.alt" horiz-adv-x="2011" 
d="M72 776l567 641l201 -174l-324 -346q141 -16 322 -16q55 0 149 4q-24 95 -24 200q0 227 128.5 363.5t329.5 136.5q187 0 297.5 -107t110.5 -276q0 -160 -105.5 -289t-312.5 -204q119 -82 293 -82q113 0 211 18l24 -252q-101 -22 -245 -22q-196 0 -345.5 70.5
t-244.5 197.5q-131 -16 -266 -16q-143 0 -310 20l314 -334l-203 -176zM1239 1092q0 -80 23 -164q146 41 216 112t70 162q0 63 -36.5 99t-98.5 36q-80 0 -127 -65.5t-47 -179.5z" />
    <glyph glyph-name="arrowright.alt" horiz-adv-x="2011" 
d="M96 643q82 -16 207 -16q179 0 295 80q-208 73 -312 201.5t-104 289.5q0 171 113.5 279t306.5 108q196 0 321.5 -134t125.5 -357q0 -107 -27 -209q94 -4 152 -4q180 0 321 16l-324 346l201 174l567 -641l-567 -643l-203 176l314 334q-167 -20 -309 -20t-273 16
q-99 -127 -252 -198.5t-352 -71.5q-113 0 -225 24zM463 1198q0 -90 72 -160t219 -110q22 80 22 166q0 112 -48 177.5t-128 65.5q-62 0 -99.5 -37.5t-37.5 -101.5z" />
    <glyph glyph-name="afii10022.alt" horiz-adv-x="1511" 
d="M692 414q-165 0 -284 104q27 -118 131 -182t247 -64q105 0 191.5 33.5t152.5 108t93 184.5l295 -76q-81 -275 -271 -411t-459 -136q-200 0 -355.5 71t-244 205.5t-88.5 311.5q0 132 50 238q-21 73 -21 160q0 169 83 305.5t236 215.5t349 79q236 0 399.5 -111t226.5 -315
l-293 -103q-35 118 -126.5 181t-221.5 63t-223 -63t-121 -169q122 84 264 84q163 0 268 -100t105 -258q0 -154 -109.5 -255t-273.5 -101zM659 881q-113 0 -186 -105q33 -55 82.5 -84.5t103.5 -29.5q58 0 95 29.5t37 80.5q0 50 -37 79.5t-95 29.5z" />
    <glyph glyph-name="afii10023.alt" horiz-adv-x="1511" 
d="M580 1634q-69 0 -115.5 45.5t-46.5 114.5t46.5 114.5t115.5 45.5t114 -45.5t45 -114.5t-45 -114.5t-114 -45.5zM991 1634q-69 0 -115.5 45.5t-46.5 114.5t46.5 114.5t115.5 45.5t114.5 -45.5t45.5 -114.5t-45.5 -114.5t-114.5 -45.5zM692 414q-165 0 -284 104
q27 -118 131 -182t247 -64q105 0 191.5 33.5t152.5 108t93 184.5l295 -76q-81 -275 -271 -411t-459 -136q-200 0 -355.5 71t-244 205.5t-88.5 311.5q0 132 50 238q-21 73 -21 160q0 169 83 305.5t236 215.5t349 79q236 0 399.5 -111t226.5 -315l-293 -103
q-35 118 -126.5 181t-221.5 63t-223 -63t-121 -169q122 84 264 84q163 0 268 -100t105 -258q0 -154 -109.5 -255t-273.5 -101zM659 881q-113 0 -186 -105q33 -55 82.5 -84.5t103.5 -29.5q58 0 95 29.5t37 80.5q0 50 -37 79.5t-95 29.5z" />
    <glyph glyph-name="afii10025.alt" horiz-adv-x="1495" 
d="M795 422q-162 0 -264.5 96t-102.5 248q0 156 109 251t274 95q143 0 252 -76q-19 118 -105 184t-219 66q-79 0 -144.5 -24t-109.5 -64t-72.5 -86.5t-41.5 -97.5l-295 69q59 222 235.5 350t427.5 128q148 0 269.5 -46.5t199 -125.5t120 -180.5t42.5 -213.5q0 -96 -24 -166
q59 -124 59 -274q0 -173 -87.5 -305.5t-241 -203.5t-349.5 -71q-167 0 -308.5 54t-244.5 166.5t-137 269.5l313 78q32 -142 133 -210.5t246 -68.5q168 0 265 78.5t108 204.5q-128 -125 -307 -125zM709 766q0 -40 34 -65t93 -25q52 0 103.5 26.5t84.5 81.5q-42 36 -95.5 56
t-97.5 20q-57 0 -89.5 -25.5t-32.5 -68.5z" />
    <glyph glyph-name="afii10030.alt" horiz-adv-x="2179" 
d="M1366 1270q-36 0 -74 -10q95 -144 147 -320.5t52 -327.5q0 -203 -114 -324.5t-298 -121.5q-183 0 -294 119.5t-111 320.5q0 157 55.5 334.5t155.5 321.5q-27 8 -64 8q-226 0 -274 -287l-168 -983h-322l174 1001q50 280 195 420t371 140q155 0 295 -93q144 93 299 93
q222 0 358 -134t186 -426l170 -1001h-329l-158 975q-49 295 -252 295zM969 614q0 -79 30.5 -122t83.5 -43q52 0 81.5 43t29.5 122q0 126 -28.5 249.5t-80.5 217.5q-56 -92 -86 -215.5t-30 -251.5z" />
    <glyph glyph-name="afii10038.alt" horiz-adv-x="2168" 
d="M922 -51v291q-122 -134 -312 -134q-236 0 -383 181t-147 475q0 305 146 488.5t386 185.5q185 3 310 -136v293h325v-293q124 139 307 136q242 -2 388.5 -185.5t146.5 -488.5q0 -293 -148.5 -474.5t-384.5 -181.5q-187 0 -309 134v-291h-325zM403 764q0 -182 71.5 -282.5
t199.5 -100.5q115 0 181.5 91t66.5 255v88q0 164 -66.5 255t-181.5 91q-128 0 -199.5 -104.5t-71.5 -292.5zM1765 764q0 189 -71 293t-199 104q-115 0 -181.5 -91t-66.5 -255v-88q0 -164 66.5 -255t181.5 -91q128 0 199 100.5t71 282.5z" />
    <glyph glyph-name="afii10040.alt" horiz-adv-x="1712" 
d="M1266 -449l-60 -26l-127 235l54 31q71 41 71 98q0 49 -53 136l-16 26q-158 -76 -365 -76q-283 1 -446.5 154t-163.5 414v993h319v-944q0 -149 87 -234.5t241 -85.5q108 0 190 33q-200 380 -200 768q0 223 116.5 355.5t311.5 132.5q198 0 309 -129.5t111 -364.5
q0 -242 -68.5 -467.5t-212.5 -380.5l20 -35q62 -108 93.5 -184t31.5 -147q0 -185 -243 -302zM1102 1079q0 -310 117 -579q118 201 118 579q0 207 -116 207q-119 0 -119 -207z" />
    <glyph glyph-name="afii10042.alt" horiz-adv-x="2324" 
d="M2177 287h76v-287h-135q-171 0 -303 104q-176 -129 -408 -129q-225 0 -393 127q-156 -127 -359 -127q-243 0 -369 128t-126 348v1085h305l-4 -1049q0 -119 59.5 -181t167.5 -62q84 0 154 39q-111 160 -166 376t-55 433q0 215 102.5 342t275.5 127q175 0 278 -127
t103 -342q0 -204 -48.5 -413t-143.5 -370q100 -65 229 -65q134 0 232 55q-94 157 -141.5 368.5t-47.5 424.5q0 216 103 342.5t280 126.5q170 0 274.5 -129.5t104.5 -344.5q0 -198 -51.5 -402t-155.5 -363q72 -35 162 -35zM1741 1092q0 -385 96 -582q107 213 107 582
q0 202 -101 202q-102 0 -102 -202zM901 1092q0 -358 115 -582q86 214 86 582q0 202 -101 202q-100 0 -100 -202z" />
    <glyph glyph-name="afii10043.alt" horiz-adv-x="2281" 
d="M1931 -449l-59 -26l-129 235l55 31q72 41 72 98q0 49 -53 136l-35 57q-160 -107 -375 -107q-225 0 -393 127q-152 -127 -359 -127q-243 0 -369 128t-126 348v1085h305l-4 -1049q0 -119 59.5 -181t167.5 -62q88 0 156 41q-110 160 -163.5 374.5t-53.5 432.5q0 215 103 342
t276 127q175 0 277.5 -127t102.5 -342q0 -203 -49.5 -412.5t-146.5 -370.5q95 -65 229 -65q136 0 236 59q-98 164 -149.5 366.5t-51.5 422.5q0 216 103 342.5t280 126.5q170 0 273.5 -127.5t103.5 -341.5q0 -213 -55 -427.5t-168 -375.5l59 -105q61 -105 92 -182t31 -149
q0 -99 -66.5 -174.5t-175.5 -127.5zM1735 1092q0 -368 104 -572q96 208 96 572q0 202 -100 202t-100 -202zM905 1092q0 -355 113 -584q90 220 90 584q0 202 -100 202q-103 0 -103 -202z" />
    <glyph glyph-name="afii10049.alt" horiz-adv-x="1685" 
d="M1538 0h-311v821q0 100 -21.5 178.5t-57 128t-84.5 82t-100 45.5t-108 13q-158 0 -253 -95.5t-95 -257.5v-6q113 148 297 148q153 0 251.5 -101.5t98.5 -259.5q0 -156 -106.5 -255t-272.5 -99q-134 0 -258 68l-164 -410h-321l254 631q-84 147 -84 315q0 131 47.5 244
t132.5 195t211 129t276 47q147 0 268.5 -46t211 -134t139 -224.5t49.5 -308.5v-848zM778 791q-95 0 -160 -136q62 -53 142 -53q53 0 83.5 27.5t30.5 72.5q0 39 -26 64t-70 25z" />
    </font>
</defs>
</svg>
