<?xml version="1.0" standalone="no"?>
<!DOCTYPE svg PUBLIC "-//W3C//DTD SVG 1.1//EN" "http://www.w3.org/Graphics/SVG/1.1/DTD/svg11.dtd" >
<svg xmlns="http://www.w3.org/2000/svg" xmlns:xlink="http://www.w3.org/1999/xlink" version="1.1">
<metadata>
Created by FontForge 20170731 at Wed Nov 16 18:21:11 2022
 By Aleksey,,,
Copyright 2020 Ilya Naumoff
</metadata>
<defs>
<font id="FactorA-Bold" horiz-adv-x="1230" >
  <font-face 
    font-family="Factor A TRIAL"
    font-weight="700"
    font-stretch="normal"
    units-per-em="2048"
    panose-1="0 0 0 0 0 0 0 0 0 0"
    ascent="1536"
    descent="-512"
    x-height="1026"
    cap-height="1536"
    bbox="-96 -528.009 2284 1939"
    underline-thickness="135"
    underline-position="-458"
    unicode-range="U+000D-FB02"
  />
<missing-glyph horiz-adv-x="1472" 
d="M201 0v1536h1073v-1536h-1073zM481 266h510v1006h-510v-1006z" />
    <glyph glyph-name="ff" unicode="ff" horiz-adv-x="1554" 
d="M510 1167v-141h438v141q0 175 110 282t275 107q91 0 176 -28l-53 -221q-53 16 -94 16q-154 0 -154 -156v-141h336v-227h-336v-799h-260v799h-438v-799h-260v799h-240v75l133 152h107v141q0 175 110 282t275 107q93 0 178 -28l-55 -221q-53 16 -94 16q-154 0 -154 -156z
" />
    <glyph glyph-name="fi" unicode="fi" horiz-adv-x="1392" 
d="M848 799h-338v-799h-260v799h-240v75l133 152h107v135q0 178 110.5 286.5t276.5 108.5q93 0 178 -28l-55 -221q-53 16 -94 16q-156 0 -156 -158v-139h338v-227zM952 1343q0 68 45.5 113t114.5 45t113.5 -45t44.5 -113t-44.5 -111.5t-113.5 -43.5t-114.5 44t-45.5 111z
M981 0v1026h260v-1026h-260z" />
    <glyph glyph-name="fl" unicode="fl" horiz-adv-x="1392" 
d="M848 799h-338v-799h-260v799h-240v75l133 152h107v135q0 178 110.5 286.5t276.5 108.5q93 0 178 -28l-55 -221q-53 16 -94 16q-156 0 -156 -158v-139h338v-227zM981 0v1536h260v-1536h-260z" />
    <glyph glyph-name=".notdef" horiz-adv-x="1472" 
d="M201 0v1536h1073v-1536h-1073zM481 266h510v1006h-510v-1006z" />
    <glyph glyph-name=".null" horiz-adv-x="0" 
 />
    <glyph glyph-name=".null" horiz-adv-x="0" 
 />
    <glyph glyph-name="nonmarkingreturn" horiz-adv-x="682" 
 />
    <glyph glyph-name="CR" unicode="&#xd;" horiz-adv-x="0" 
 />
    <glyph glyph-name="space" unicode=" " horiz-adv-x="450" 
 />
    <glyph glyph-name="exclam" unicode="!" horiz-adv-x="757" 
d="M225 1536h307l-40 -1034h-226zM379 -20q-76 0 -125 46t-49 119q0 76 49 124t125 48q77 0 125.5 -48t48.5 -124q0 -73 -48.5 -119t-125.5 -46z" />
    <glyph glyph-name="numbersign" unicode="#" horiz-adv-x="1538" 
d="M92 270v219h219l121 433h-194v221h258l75 270h238l-76 -270h322l75 270h236l-76 -270h156v-221h-219l-121 -433h192v-219h-256l-75 -270h-238l76 270h-318l-75 -270h-240l76 270h-156zM549 489h319l123 433h-319z" />
    <glyph glyph-name="dollar" unicode="$" horiz-adv-x="1316" 
d="M1208 1184l-243 -78q-41 146 -172 192v-415q77 -21 135.5 -42.5t122 -58.5t104.5 -82t67.5 -112.5t26.5 -149.5q0 -184 -123 -302t-333 -148v-234h-232v232q-209 24 -336.5 136.5t-156.5 276.5l266 82q43 -202 227 -245v442q-76 20 -130 39t-116.5 54t-101 78
t-64.5 110.5t-26 152.5q0 185 121.5 298.5t316.5 139.5v211h232v-215q165 -27 273.5 -119.5t141.5 -242.5zM391 1130q0 -70 44 -113.5t126 -72.5v367q-170 -33 -170 -181zM977 422q0 74 -47.5 117.5t-136.5 74.5v-381q87 18 135.5 65t48.5 124z" />
    <glyph glyph-name="percent" unicode="%" horiz-adv-x="2025" 
d="M545 -39l-162 119l1098 1495l161 -117zM532 772q-180 0 -296.5 112t-116.5 283q0 169 116.5 279t296.5 110q181 0 297.5 -110t116.5 -279q0 -171 -116.5 -283t-297.5 -112zM727 1167q0 83 -56 137t-139 54q-82 0 -137 -54t-55 -137q0 -84 55 -139t137 -55q83 0 139 55
t56 139zM1493 -20q-180 0 -297 112t-117 283q0 169 117 279t297 110q181 0 297.5 -110t116.5 -279q0 -171 -116.5 -283t-297.5 -112zM1688 375q0 82 -56 136t-139 54q-82 0 -137.5 -53.5t-55.5 -136.5q0 -84 55.5 -139.5t137.5 -55.5t138.5 55.5t56.5 139.5z" />
    <glyph glyph-name="ampersand" unicode="&#x26;" horiz-adv-x="1443" 
d="M1038 1190q0 -123 -81 -222.5t-209 -172.5l268 -314q55 122 78 287l241 -43q-40 -258 -155 -434l250 -291h-310l-102 115q-173 -135 -416 -135q-238 0 -376 117.5t-138 330.5q0 130 67 232t216 188q-160 170 -160 338q0 160 118.5 265t301.5 105q178 0 292.5 -103
t114.5 -263zM475 1178q0 -43 20.5 -85.5t40.5 -66.5t60 -65q99 55 139.5 104.5t40.5 112.5q0 66 -39.5 106.5t-109.5 40.5q-69 0 -110.5 -40t-41.5 -107zM360 449q0 -110 76 -171t203 -61q136 0 227 70l-344 389q-162 -88 -162 -227z" />
    <glyph glyph-name="parenleft" unicode="(" horiz-adv-x="829" 
d="M129 614q0 211 62.5 400.5t187 342.5t299.5 242l123 -208q-191 -111 -297.5 -311t-106.5 -466q0 -263 106 -463.5t298 -316.5l-123 -209q-174 89 -299 242.5t-187.5 344t-62.5 402.5z" />
    <glyph glyph-name="parenright" unicode=")" horiz-adv-x="829" 
d="M700 614q0 -212 -62.5 -402.5t-187 -344t-298.5 -242.5l-123 209q192 116 297.5 316.5t105.5 463.5q0 266 -106 466t-297 311l123 208q175 -89 299.5 -242t186.5 -342.5t62 -400.5z" />
    <glyph glyph-name="comma" unicode="," horiz-adv-x="544" 
d="M254 -332h-215l137 623h289z" />
    <glyph glyph-name="period" unicode="." horiz-adv-x="548" 
d="M274 -20q-76 0 -125 46t-49 119q0 76 49 124t125 48q77 0 126 -48t49 -124q0 -73 -49 -119t-126 -46z" />
    <glyph glyph-name="slash" unicode="/" horiz-adv-x="985" 
d="M301 0h-274l667 1536h273z" />
    <glyph glyph-name="zero" unicode="0" horiz-adv-x="1394" 
d="M698 -20q-264 0 -420.5 210t-156.5 582q0 368 156.5 576t420.5 208q263 0 418.5 -208t155.5 -576q0 -372 -155.5 -582t-418.5 -210zM698 1305q-103 0 -170 -68.5t-96 -184.5t-29 -280q0 -541 295 -541q150 0 221.5 143t71.5 398q0 249 -72 391t-221 142z" />
    <glyph glyph-name="one" unicode="1" horiz-adv-x="841" 
d="M362 0v1102h-313v168q73 4 137 28.5t108.5 62.5t75 82.5t44.5 92.5h221v-1536h-273z" />
    <glyph glyph-name="two" unicode="2" horiz-adv-x="1210" 
d="M1118 262v-262h-1014v223l302 291q235 227 317 343t82 218q0 103 -60 166.5t-163 63.5q-96 0 -168 -61.5t-86 -178.5l-271 53q23 141 101 241.5t189.5 148.5t246.5 48q223 0 358 -132t135 -341q0 -78 -23 -148t-81.5 -154t-140.5 -172.5t-219 -221.5l-127 -125h622z" />
    <glyph glyph-name="three" unicode="3" horiz-adv-x="1239" 
d="M598 -20q-80 0 -152.5 16t-139 50.5t-118 85t-87.5 124.5t-50 164l275 74q14 -122 84 -189t188 -67q109 0 181.5 57.5t72.5 159.5q0 95 -62.5 151t-156.5 56h-148v253h117q90 0 152.5 51.5t62.5 143.5q0 88 -60 142.5t-153 54.5q-95 0 -162.5 -53.5t-87.5 -149.5l-266 61
q37 180 178.5 285.5t349.5 105.5q216 0 348 -115t132 -300q0 -209 -201 -334q118 -46 179 -142t61 -223q0 -140 -73 -246.5t-194 -161t-270 -54.5z" />
    <glyph glyph-name="four" unicode="4" horiz-adv-x="1263" 
d="M735 0v328h-694v233l623 975h340v-958h219v-250h-219v-328h-269zM332 578h403v626z" />
    <glyph glyph-name="five" unicode="5" horiz-adv-x="1232" 
d="M1149 508q0 -232 -150.5 -380t-400.5 -148q-98 0 -186.5 25t-162 73.5t-124 127.5t-66.5 181l275 70q11 -110 85 -165.5t179 -55.5q122 0 196 73t74 191q0 122 -74 195t-192 73q-76 0 -137.5 -30t-91.5 -83l-234 64l127 817h813v-250h-590l-51 -328q98 46 215 46
q225 0 360.5 -138.5t135.5 -357.5z" />
    <glyph glyph-name="six" unicode="6" horiz-adv-x="1226" 
d="M610 -20q-232 0 -385 138t-153 365q0 185 123 373l446 680h309l-372 -559q38 6 77 6q218 0 359 -134t141 -353q0 -154 -72.5 -272.5t-196 -181t-276.5 -62.5zM610 231q117 0 190.5 74.5t73.5 192.5q0 115 -73.5 185.5t-188.5 70.5q-103 0 -178 -62q-84 -74 -84 -194
q0 -118 73 -192.5t187 -74.5z" />
    <glyph glyph-name="seven" unicode="7" horiz-adv-x="1116" 
d="M152 0l612 1288h-713v248h1010v-236l-617 -1300h-292z" />
    <glyph glyph-name="eight" unicode="8" horiz-adv-x="1320" 
d="M659 -20q-152 0 -275.5 54t-198 161.5t-74.5 250.5q0 127 62.5 224.5t174.5 152.5q-83 54 -127.5 135.5t-44.5 180.5q0 127 65.5 223.5t174.5 145t243 48.5q135 0 244.5 -49t175.5 -145t66 -223q0 -96 -45 -176.5t-125 -139.5q110 -55 172.5 -153t62.5 -224
q0 -143 -75.5 -250.5t-199.5 -161.5t-276 -54zM879 1118q0 88 -62.5 141.5t-157.5 53.5q-93 0 -154 -53.5t-61 -141.5q0 -89 61.5 -144.5t153.5 -55.5q95 0 157.5 55.5t62.5 144.5zM928 465q0 105 -76.5 167t-189.5 62q-115 0 -192 -62t-77 -167q0 -104 76.5 -165.5
t192.5 -61.5q114 0 190 61.5t76 165.5z" />
    <glyph glyph-name="nine" unicode="9" horiz-adv-x="1226" 
d="M616 1556q232 0 385.5 -138t153.5 -365q0 -185 -123 -373l-446 -680h-310l373 559q-37 -6 -78 -6q-218 0 -358.5 134t-140.5 353q0 154 72 272.5t195.5 181t276.5 62.5zM616 1305q-117 0 -190.5 -74.5t-73.5 -192.5q0 -115 73.5 -185.5t188.5 -70.5q104 0 179 62
q84 74 84 194q0 118 -73.5 192.5t-187.5 74.5z" />
    <glyph glyph-name="colon" unicode=":" horiz-adv-x="548" 
d="M274 711q-75 0 -124.5 46.5t-49.5 119.5q0 76 49 124t125 48q77 0 126 -48t49 -124q0 -73 -49 -119.5t-126 -46.5zM274 -20q-76 0 -125 46t-49 119q0 76 49 124t125 48q77 0 126 -48t49 -124q0 -73 -49 -119t-126 -46z" />
    <glyph glyph-name="semicolon" unicode=";" horiz-adv-x="546" 
d="M295 711q-75 0 -124.5 46.5t-49.5 119.5q0 76 49 124t125 48q77 0 125.5 -48t48.5 -124q0 -73 -48.5 -119.5t-125.5 -46.5zM254 -332h-215l137 623h289z" />
    <glyph glyph-name="question" unicode="?" horiz-adv-x="1126" 
d="M582 1556q210 0 347.5 -113t137.5 -306q0 -76 -23.5 -139t-61.5 -105t-84 -77.5t-92 -64.5t-84 -57t-61.5 -63.5t-23.5 -77.5v-51h-272v67q0 65 23 120.5t60.5 94.5t82 73t89.5 63.5t82.5 59.5t60.5 67.5t23 80.5q0 87 -59.5 136t-153.5 49q-109 0 -177.5 -59t-82.5 -154
l-256 55q32 183 175 292.5t350 108.5zM510 -20q-76 0 -125 46t-49 119q0 76 49 124t125 48q77 0 125.5 -48t48.5 -124q0 -73 -48.5 -119t-125.5 -46z" />
    <glyph glyph-name="at" unicode="@" horiz-adv-x="1941" 
d="M1386 360q0 -43 30.5 -74.5t72.5 -31.5q74 0 113.5 79t39.5 226q0 136 -51 255t-140 203t-214 132.5t-268 48.5q-145 0 -270 -50.5t-213 -139.5t-137.5 -215t-49.5 -273q0 -189 82 -339t230.5 -235t336.5 -85q184 0 346 73l60 -153q-195 -94 -424 -94q-179 0 -331 63
t-257.5 173.5t-165 264.5t-59.5 332q0 243 108.5 436.5t303 302.5t440.5 109q244 0 439.5 -103.5t306 -288.5t110.5 -415q0 -135 -44 -244.5t-136.5 -178t-219.5 -68.5q-94 0 -158 41.5t-93 109.5q-86 -168 -271 -168q-125 0 -217 62t-138 165.5t-46 233.5
q0 204 108.5 338.5t298.5 134.5q168 0 252 -151l13 135h212v-611zM1151 516q0 110 -55 181t-150 71t-149 -71.5t-54 -180.5q0 -108 54 -177t149 -69q94 0 149.5 69t55.5 177z" />
    <glyph glyph-name="A" unicode="A" horiz-adv-x="1536" 
d="M29 0l585 1536h308l585 -1536h-299l-168 459h-557l-168 -459h-286zM575 709h373l-186 505z" />
    <glyph glyph-name="B" unicode="B" horiz-adv-x="1376" 
d="M199 0v1536h573q202 0 324.5 -108t122.5 -289q0 -214 -191 -326q262 -102 262 -369q0 -202 -132.5 -323t-350.5 -121h-608zM748 1296h-269v-385h269q90 0 143 53.5t53 143.5q0 85 -53.5 136.5t-142.5 51.5zM795 666h-316v-426h316q97 0 155 57t58 152q0 99 -58.5 158
t-154.5 59z" />
    <glyph glyph-name="C" unicode="C" horiz-adv-x="1609" 
d="M104 768q0 163 55 307.5t153 251t242 168t312 61.5q260 0 442.5 -135t239.5 -370l-282 -78q-39 155 -139.5 239t-260.5 84q-146 0 -254 -73t-161.5 -191.5t-53.5 -263.5q0 -109 30.5 -204t88 -167.5t147.5 -114.5t201 -42q164 0 272.5 85.5t145.5 235.5l281 -78
q-70 -242 -253 -372.5t-446 -130.5q-176 0 -320.5 61t-240 167.5t-147.5 250t-52 309.5z" />
    <glyph glyph-name="D" unicode="D" horiz-adv-x="1568" 
d="M199 0v1536h497q226 0 402 -99.5t271 -273t95 -391.5q0 -165 -55.5 -307.5t-155 -245t-243.5 -161t-314 -58.5h-497zM696 1276h-215v-1016h215q215 0 345 140.5t130 369.5q0 228 -130 367t-345 139z" />
    <glyph glyph-name="E" unicode="E" horiz-adv-x="1310" 
d="M199 0v1536h1015v-254h-733v-354h506v-254h-506v-420h754v-254h-1036z" />
    <glyph glyph-name="F" unicode="F" horiz-adv-x="1226" 
d="M199 0v1536h970v-254h-688v-383h508v-254h-508v-645h-282z" />
    <glyph glyph-name="G" unicode="G" horiz-adv-x="1697" 
d="M397 772q0 -244 130 -389t352 -145q177 0 296 90.5t123 236.5h-565v248h858v-133q0 -208 -89 -367t-251.5 -246t-373.5 -87q-165 0 -308.5 60t-245.5 164.5t-160.5 251.5t-58.5 316q0 223 100 402.5t277.5 280.5t397.5 101q255 0 434.5 -125.5t240.5 -338.5l-274 -78
q-42 135 -144.5 208.5t-256.5 73.5q-218 0 -350 -143t-132 -381z" />
    <glyph glyph-name="H" unicode="H" horiz-adv-x="1695" 
d="M199 0v1536h282v-596h733v596h283v-1536h-283v680h-733v-680h-282z" />
    <glyph glyph-name="I" unicode="I" horiz-adv-x="679" 
d="M199 0v1536h282v-1536h-282z" />
    <glyph glyph-name="J" unicode="J" horiz-adv-x="1277" 
d="M588 -20q-216 0 -351 106.5t-167 280.5l274 82q12 -97 77 -153t167 -56q110 0 170.5 61.5t60.5 169.5v805h-624v260h907v-1065q0 -215 -140.5 -353t-373.5 -138z" />
    <glyph glyph-name="K" unicode="K" horiz-adv-x="1486" 
d="M481 678v-678h-282v1536h282v-594h172l465 594h340l-575 -717l594 -819h-336l-496 678h-164z" />
    <glyph glyph-name="L" unicode="L" 
d="M199 0v1536h282v-1276h695v-260h-977z" />
    <glyph glyph-name="M" unicode="M" horiz-adv-x="1910" 
d="M199 0v1536h299l463 -606l452 606h299v-1536h-272v1155l-457 -602h-57l-457 596v-1149h-270z" />
    <glyph glyph-name="N" unicode="N" horiz-adv-x="1697" 
d="M199 0v1536h301l731 -1122v1122h268v-1536h-301l-733 1130v-1130h-266z" />
    <glyph glyph-name="O" unicode="O" horiz-adv-x="1761" 
d="M104 768q0 169 58 315.5t159.5 250.5t246.5 163t313 59q224 0 401.5 -101t276 -281t98.5 -406q0 -225 -98.5 -405t-276 -281.5t-401.5 -101.5q-168 0 -313 59.5t-246.5 163.5t-159.5 250t-58 315zM1364 768q0 239 -132.5 383.5t-350.5 144.5q-219 0 -351.5 -144.5
t-132.5 -383.5t132.5 -383.5t351.5 -144.5q218 0 350.5 144.5t132.5 383.5z" />
    <glyph glyph-name="P" unicode="P" horiz-adv-x="1419" 
d="M199 0v1536h606q234 0 380 -138t146 -354q0 -211 -147 -350t-379 -139h-324v-555h-282zM799 1282h-318v-473h318q115 0 182.5 63.5t67.5 171.5q0 110 -67 174t-183 64z" />
    <glyph glyph-name="Q" unicode="Q" horiz-adv-x="1761" 
d="M104 768q0 169 58 315.5t159.5 250.5t246.5 163t313 59q224 0 401.5 -101t276 -281t98.5 -406q0 -194 -74.5 -355.5t-208.5 -267.5l180 -213l-198 -165l-215 251q-122 -38 -260 -38q-168 0 -313 59.5t-246.5 163.5t-159.5 250t-58 315zM395 768q0 -241 133 -385.5
t353 -144.5q25 0 71 4l-280 329l198 166l330 -387q79 70 122.5 177.5t43.5 240.5q0 239 -132.5 384.5t-352.5 145.5t-353 -145.5t-133 -384.5z" />
    <glyph glyph-name="R" unicode="R" horiz-adv-x="1478" 
d="M199 0v1536h596q224 0 364.5 -127t140.5 -336q0 -150 -76.5 -255t-209.5 -152l426 -666h-322l-391 610h-246v-610h-282zM791 1282h-310v-418h310q104 0 165.5 57t61.5 152q0 94 -61.5 151.5t-165.5 57.5z" />
    <glyph glyph-name="S" unicode="S" horiz-adv-x="1361" 
d="M1272 1155l-283 -74q-24 107 -98.5 167.5t-190.5 60.5q-129 0 -200.5 -50t-71.5 -139q0 -29 9 -52.5t23.5 -41.5t39.5 -33.5t49 -26t61 -21t66 -17.5t72 -17q12 -3 18 -4q61 -13 104 -24t101 -31t97.5 -42t82 -56.5t68.5 -76t42.5 -99t16.5 -125.5q0 -216 -159.5 -344.5
t-418.5 -128.5q-255 0 -412.5 112t-215.5 326l288 80q61 -269 342 -269q128 0 206.5 53t78.5 160q0 24 -6 44.5t-14.5 36.5t-26.5 30.5t-32 24.5t-42 20.5t-45 16.5t-53 15t-54 13t-59 12q-69 15 -105.5 24t-101 29.5t-100.5 40.5t-82.5 55t-71 76t-42 99.5t-17.5 128.5
q0 128 76 231.5t205.5 160t285.5 56.5q226 0 372.5 -103.5t197.5 -297.5z" />
    <glyph glyph-name="T" unicode="T" horiz-adv-x="1300" 
d="M508 0v1276h-447v260h1178v-260h-448v-1276h-283z" />
    <glyph glyph-name="U" unicode="U" horiz-adv-x="1572" 
d="M786 240q143 0 229.5 86.5t86.5 228.5v981h282v-975q0 -261 -165.5 -421t-432.5 -160t-432.5 160t-165.5 421v975h283v-981q0 -143 86.5 -229t228.5 -86z" />
    <glyph glyph-name="V" unicode="V" horiz-adv-x="1486" 
d="M49 1536h303l398 -1219l395 1219h293l-510 -1536h-369z" />
    <glyph glyph-name="W" unicode="W" horiz-adv-x="1892" 
d="M913 1036h60l352 -676l236 1176h280l-309 -1536h-297l-293 561l-285 -561h-299l-309 1536h285l237 -1174z" />
    <glyph glyph-name="X" unicode="X" horiz-adv-x="1433" 
d="M365 1536l358 -532l338 532h315l-497 -764l518 -772h-330l-373 557l-342 -557h-305l492 788l-502 748h328z" />
    <glyph glyph-name="Y" unicode="Y" horiz-adv-x="1435" 
d="M578 0v653l-551 883h325l373 -610l373 610h313l-551 -879v-657h-282z" />
    <glyph glyph-name="Z" unicode="Z" horiz-adv-x="1374" 
d="M109 1536h1202v-61l-805 -1215h762v-260h-1205v61l803 1215h-757v260z" />
    <glyph glyph-name="bracketleft" unicode="[" horiz-adv-x="800" 
d="M199 -375v1993h553v-240h-293v-1513h293v-240h-553z" />
    <glyph glyph-name="bracketright" unicode="]" horiz-adv-x="800" 
d="M602 -375h-553v240h293v1513h-293v240h553v-1993z" />
    <glyph glyph-name="a" unicode="a" horiz-adv-x="1132" 
d="M772 0l-18 141q-58 -76 -144.5 -118.5t-191.5 -42.5q-144 0 -238 80t-94 223q0 61 21 111.5t55.5 86t87 64t107 46.5t124.5 34l262 59q-33 145 -196 145q-178 0 -221 -155l-248 45q39 151 162 240.5t311 89.5q209 0 329.5 -110t120.5 -321v-618h-229zM350 301
q0 -53 33 -80.5t90 -27.5q112 0 194.5 71.5t82.5 202.5v22l-252 -61q-72 -17 -110 -45.5t-38 -81.5z" />
    <glyph glyph-name="b" unicode="b" horiz-adv-x="1296" 
d="M150 0v1536h260v-618q128 131 311 131q106 0 199.5 -40.5t160.5 -111.5t105.5 -170.5t38.5 -212.5q0 -231 -144 -382.5t-360 -151.5q-197 0 -322 141l-14 -121h-235zM682 809q-123 0 -197.5 -81.5t-74.5 -213.5q0 -134 74.5 -215.5t197.5 -81.5t197.5 81.5t74.5 215.5
q0 132 -74.5 213.5t-197.5 81.5z" />
    <glyph glyph-name="c" unicode="c" horiz-adv-x="1140" 
d="M72 512q0 152 69 275t192 192.5t275 69.5q186 0 316.5 -100.5t167.5 -266.5l-263 -47q-20 83 -78.5 128.5t-144.5 45.5q-117 0 -190.5 -80.5t-73.5 -216.5t71 -215.5t189 -79.5q94 0 155.5 47t82.5 129l256 -43q-28 -160 -164.5 -265t-327.5 -105q-230 0 -381 151
t-151 381z" />
    <glyph glyph-name="d" unicode="d" horiz-adv-x="1296" 
d="M1147 0h-234l-16 121q-128 -141 -322 -141q-141 0 -256 68.5t-181 191t-66 274.5q0 230 144.5 382.5t358.5 152.5q184 0 312 -131v618h260v-1536zM614 809q-122 0 -196 -81t-74 -214q0 -134 73.5 -215.5t196.5 -81.5q124 0 198.5 81.5t74.5 215.5q0 133 -74.5 214
t-198.5 81z" />
    <glyph glyph-name="e" unicode="e" horiz-adv-x="1189" 
d="M614 -20q-250 0 -396 147t-146 381t149 387.5t381 153.5q226 0 368 -138t142 -360q0 -59 -12 -117h-762q18 -116 90 -172.5t186 -56.5q190 0 246 145l242 -49q-46 -153 -174 -237t-314 -84zM602 834q-92 0 -160.5 -51.5t-95.5 -149.5h494q-17 97 -78.5 149t-159.5 52z
" />
    <glyph glyph-name="f" unicode="f" horiz-adv-x="858" 
d="M848 799h-338v-799h-260v799h-240v75l133 152h107v135q0 178 110.5 286.5t276.5 108.5q93 0 178 -28l-55 -221q-53 16 -94 16q-156 0 -156 -158v-139h338v-227z" />
    <glyph glyph-name="g" unicode="g" horiz-adv-x="1284" 
d="M72 524q0 227 141 376t354 149q189 0 316 -136l16 113h234v-1010q0 -215 -138.5 -351t-380.5 -136q-213 0 -343.5 97t-159.5 253l266 51q38 -163 237 -163q124 0 191 61t67 170v129q-125 -125 -305 -125q-213 0 -354 148.5t-141 373.5zM344 524q0 -128 72 -206t192 -78
q119 0 191.5 78.5t72.5 205.5q0 129 -72.5 207t-191.5 78q-120 0 -192 -78t-72 -207z" />
    <glyph glyph-name="h" unicode="h" 
d="M150 0v1536h260v-604q124 117 290 117q83 0 155.5 -28t128.5 -81t88 -136t32 -186v-618h-260v578q0 111 -56.5 170t-150.5 59q-43 0 -81.5 -12t-72.5 -37.5t-53.5 -71.5t-19.5 -108v-578h-260z" />
    <glyph glyph-name="i" unicode="i" horiz-adv-x="559" 
d="M121 1343q0 68 45.5 113t114.5 45t113 -45t44 -113t-44 -111.5t-113 -43.5t-114.5 44t-45.5 111zM150 0v1026h260v-1026h-260z" />
    <glyph glyph-name="j" unicode="j" horiz-adv-x="559" 
d="M121 1343q0 68 45.5 113t114.5 45t113 -45t44 -113t-44 -111.5t-113 -43.5t-114.5 44t-45.5 111zM150 1026h260v-1139q0 -164 -93.5 -261t-255.5 -97q-83 0 -157 27l51 215q46 -11 72 -11q123 0 123 127v1139z" />
    <glyph glyph-name="k" unicode="k" horiz-adv-x="1130" 
d="M805 1026h311l-401 -459l405 -567h-303l-311 442h-96v-442h-260v1536h260v-844h112z" />
    <glyph glyph-name="l" unicode="l" horiz-adv-x="559" 
d="M150 0v1536h260v-1536h-260z" />
    <glyph glyph-name="m" unicode="m" horiz-adv-x="1748" 
d="M150 0v1026h233l14 -100q110 123 260 123q92 0 168 -39t125 -113q125 152 305 152q159 0 263 -105.5t104 -294.5v-649h-260v629q0 87 -44.5 133.5t-119.5 46.5q-77 0 -129.5 -43t-52.5 -137v-629h-260v629q0 87 -44.5 133.5t-119.5 46.5q-76 0 -129 -44t-53 -136v-629
h-260z" />
    <glyph glyph-name="n" unicode="n" 
d="M150 0v1026h235l14 -102q125 125 301 125q83 0 155.5 -28t128.5 -81t88 -136t32 -186v-618h-260v578q0 111 -56.5 170t-150.5 59q-43 0 -81.5 -12t-72.5 -37.5t-53.5 -71.5t-19.5 -108v-578h-260z" />
    <glyph glyph-name="o" unicode="o" horiz-adv-x="1236" 
d="M618 1049q236 0 391.5 -152.5t155.5 -382.5q0 -231 -155 -382.5t-392 -151.5q-236 0 -391 151t-155 383q0 152 70.5 274t195.5 191.5t280 69.5zM618 809q-124 0 -200 -81.5t-76 -213.5q0 -134 76 -215.5t200 -81.5t199.5 81.5t75.5 215.5q0 132 -75.5 213.5t-199.5 81.5z
" />
    <glyph glyph-name="p" unicode="p" horiz-adv-x="1296" 
d="M150 1026h235l14 -119q129 142 322 142q106 0 199.5 -40.5t160.5 -111.5t105.5 -170.5t38.5 -212.5q0 -231 -144 -382.5t-360 -151.5q-185 0 -311 129v-560h-260v1477zM682 809q-123 0 -197.5 -81.5t-74.5 -213.5q0 -134 74.5 -215.5t197.5 -81.5t197.5 81.5t74.5 215.5
q0 132 -74.5 213.5t-197.5 81.5z" />
    <glyph glyph-name="q" unicode="q" horiz-adv-x="1296" 
d="M575 1049q191 0 320 -142l18 119h234v-1477h-260v562q-128 -131 -312 -131q-141 0 -256 68.5t-181 191t-66 274.5q0 230 144.5 382.5t358.5 152.5zM614 809q-122 0 -196 -81t-74 -214q0 -134 73.5 -215.5t196.5 -81.5q124 0 198.5 81.5t74.5 215.5q0 133 -74.5 214
t-198.5 81z" />
    <glyph glyph-name="r" unicode="r" horiz-adv-x="811" 
d="M150 0v1026h243l15 -121q101 139 282 139q46 0 101 -14l-31 -254q-44 12 -107 12q-105 0 -174 -69t-69 -191v-528h-260z" />
    <glyph glyph-name="s" unicode="s" horiz-adv-x="997" 
d="M512 -20q-181 0 -303.5 74.5t-163.5 232.5l266 53q28 -150 201 -150q79 0 123.5 29.5t44.5 83.5q0 13 -3.5 23.5t-12.5 19.5t-17 15.5t-24.5 12.5t-28 10t-33.5 8.5t-35.5 7t-39.5 7t-40 7.5q-51 8 -86 16t-81 23t-77 36.5t-59.5 52.5t-42.5 76.5t-14 102.5
q0 143 121 235.5t307 92.5q340 0 432 -285l-258 -53q-29 127 -174 127q-74 0 -118 -29.5t-44 -75.5q0 -27 14.5 -46t48 -31t63.5 -18.5t85 -14.5q48 -8 76 -13t74 -17t74 -25.5t62 -36.5t53 -51.5t32.5 -69.5t13.5 -91q0 -152 -112 -245.5t-324 -93.5z" />
    <glyph glyph-name="t" unicode="t" horiz-adv-x="851" 
d="M10 874l383 386h72v-234h356v-227h-356v-432q0 -148 145 -148q56 0 140 33l57 -213q-118 -59 -254 -59q-163 0 -255.5 86.5t-92.5 238.5v494h-195v75z" />
    <glyph glyph-name="u" unicode="u" horiz-adv-x="1204" 
d="M385 1026v-614q0 -95 52 -144t149 -49q86 0 147.5 52.5t61.5 164.5v590h260v-1026h-234l-12 100q-53 -60 -123.5 -90t-171.5 -30q-167 0 -278 106t-111 301v639h260z" />
    <glyph glyph-name="v" unicode="v" horiz-adv-x="1075" 
d="M391 0l-383 1026h287l250 -717l250 717h272l-385 -1026h-291z" />
    <glyph glyph-name="w" unicode="w" horiz-adv-x="1382" 
d="M29 1026h260l145 -723l238 469h49l235 -469l138 723h260l-211 -1026h-273l-178 354l-180 -354h-272z" />
    <glyph glyph-name="x" unicode="x" horiz-adv-x="1028" 
d="M307 1026l215 -307l201 307h289l-346 -512l362 -514h-303l-233 330l-207 -330h-279l340 535l-348 491h309z" />
    <glyph glyph-name="y" unicode="y" horiz-adv-x="1116" 
d="M8 1026h289l287 -692l247 692h277l-567 -1477h-269l177 457z" />
    <glyph glyph-name="z" unicode="z" horiz-adv-x="948" 
d="M59 799v227h840v-74l-479 -725h477v-227h-848v76l467 723h-457z" />
    <glyph glyph-name="braceleft" unicode="{" horiz-adv-x="874" 
d="M823 -373h-178q-78 0 -145.5 22.5t-119 65.5t-78 113t-19.5 158l20 301q9 125 -32 177t-165 58v221q118 3 161 44t36 147l-20 303q-14 182 95.5 281.5t289.5 99.5h155v-240h-131q-72 0 -110.5 -42t-32.5 -124l20 -251q9 -126 -41 -214.5t-155 -115.5q105 -29 155 -121.5
t41 -226.5l-20 -248q-6 -85 32.5 -126.5t110.5 -41.5h131v-240z" />
    <glyph glyph-name="braceright" unicode="}" horiz-adv-x="874" 
d="M51 -373v240h131q72 0 111 41.5t33 126.5l-21 248q-9 134 41.5 226.5t155.5 121.5q-105 27 -155.5 115.5t-41.5 214.5l21 251q6 82 -33 124t-111 42h-131v240h156q180 0 289.5 -99.5t95.5 -281.5l-21 -303q-7 -106 36 -147t161 -44v-221q-124 -6 -165 -58t-32 -177
l21 -301q7 -88 -20 -158t-78 -113t-119 -65.5t-146 -22.5h-178z" />
    <glyph glyph-name="exclamdown" unicode="&#xa1;" horiz-adv-x="757" 
d="M379 1049q75 0 124.5 -46.5t49.5 -119.5q0 -76 -49 -124t-125 -48q-77 0 -125.5 48t-48.5 124q0 73 48.5 119.5t125.5 46.5zM532 -508h-307l41 1034h226z" />
    <glyph glyph-name="questiondown" unicode="&#xbf;" horiz-adv-x="1126" 
d="M616 1049q76 0 125.5 -46.5t49.5 -119.5q0 -76 -49.5 -124t-125.5 -48q-77 0 -125.5 48t-48.5 124q0 73 48.5 119.5t125.5 46.5zM545 -528q-210 0 -348 113t-138 306q0 76 23.5 139t61.5 105t84 77.5t92 64.5t84 57t61.5 63.5t23.5 77.5v51h273v-67q0 -65 -23.5 -120.5
t-60.5 -94.5t-82 -73t-90 -63.5t-82 -59.5t-60.5 -67.5t-23.5 -80.5q0 -87 59.5 -136t153.5 -49q109 0 177.5 59t82.5 154l256 -55q-32 -183 -174.5 -292.5t-349.5 -108.5z" />
    <glyph glyph-name="uni0400" unicode="&#x400;" horiz-adv-x="1310" 
d="M356 1915h336l193 -277h-240zM199 0v1536h1015v-254h-733v-354h506v-254h-506v-420h754v-254h-1036z" />
    <glyph glyph-name="afii10023" unicode="&#x401;" horiz-adv-x="1310" 
d="M522 1649q-63 0 -105 41t-42 104t42 104t105 41t105.5 -41t42.5 -104t-42.5 -104t-105.5 -41zM928 1649q-63 0 -105.5 41t-42.5 104t42.5 104t105.5 41t105 -41t42 -104t-42 -104t-105 -41zM199 0v1536h1015v-254h-733v-354h506v-254h-506v-420h754v-254h-1036z" />
    <glyph glyph-name="afii10051" unicode="&#x402;" horiz-adv-x="1773" 
d="M508 0v1276h-447v260h1178v-260h-448v-344q144 117 364 117q97 0 185 -30t157.5 -86.5t110.5 -146t41 -200.5v-203q0 -178 -114 -290.5t-296 -112.5q-130 0 -207 26l45 242q55 -15 105 -15q91 0 137.5 50.5t46.5 144.5v125q0 122 -76.5 184t-202.5 62q-93 0 -173 -31.5
t-123 -101.5v-666h-283z" />
    <glyph glyph-name="afii10052" unicode="&#x403;" horiz-adv-x="1218" 
d="M764 1915h336l-291 -277h-238zM199 0v1536h975v-260h-693v-1276h-282z" />
    <glyph glyph-name="afii10053" unicode="&#x404;" horiz-adv-x="1609" 
d="M104 768q0 163 55 307.5t153 251t242 168t312 61.5q260 0 442.5 -135t239.5 -370l-282 -78q-39 155 -139.5 239t-260.5 84q-181 0 -299 -107.5t-155 -279.5h557v-262h-561q31 -181 149.5 -294t306.5 -113q164 0 272.5 85.5t145.5 235.5l281 -78q-70 -242 -253 -372.5
t-446 -130.5q-176 0 -320.5 61t-240 167.5t-147.5 250t-52 309.5z" />
    <glyph glyph-name="afii10054" unicode="&#x405;" horiz-adv-x="1361" 
d="M1272 1155l-283 -74q-24 107 -98.5 167.5t-190.5 60.5q-129 0 -200.5 -50t-71.5 -139q0 -29 9 -52.5t23.5 -41.5t39.5 -33.5t49 -26t61 -21t66 -17.5t72 -17q12 -3 18 -4q61 -13 104 -24t101 -31t97.5 -42t82 -56.5t68.5 -76t42.5 -99t16.5 -125.5q0 -216 -159.5 -344.5
t-418.5 -128.5q-255 0 -412.5 112t-215.5 326l288 80q61 -269 342 -269q128 0 206.5 53t78.5 160q0 24 -6 44.5t-14.5 36.5t-26.5 30.5t-32 24.5t-42 20.5t-45 16.5t-53 15t-54 13t-59 12q-69 15 -105.5 24t-101 29.5t-100.5 40.5t-82.5 55t-71 76t-42 99.5t-17.5 128.5
q0 128 76 231.5t205.5 160t285.5 56.5q226 0 372.5 -103.5t197.5 -297.5z" />
    <glyph glyph-name="afii10055" unicode="&#x406;" horiz-adv-x="679" 
d="M199 0v1536h282v-1536h-282z" />
    <glyph glyph-name="afii10056" unicode="&#x407;" horiz-adv-x="679" 
d="M170 1647q-56 0 -91.5 40.5t-35.5 104.5t35.5 105.5t91.5 41.5q54 0 89.5 -41.5t35.5 -105.5t-35.5 -104.5t-89.5 -40.5zM512 1647q-56 0 -91.5 40.5t-35.5 104.5t35.5 105.5t91.5 41.5q54 0 89.5 -41.5t35.5 -105.5t-35.5 -104.5t-89.5 -40.5zM199 0v1536h282v-1536
h-282z" />
    <glyph glyph-name="afii10057" unicode="&#x408;" horiz-adv-x="1277" 
d="M588 -20q-216 0 -351 106.5t-167 280.5l274 82q12 -97 77 -153t167 -56q110 0 170.5 61.5t60.5 169.5v805h-624v260h907v-1065q0 -215 -140.5 -353t-373.5 -138z" />
    <glyph glyph-name="afii10058" unicode="&#x409;" horiz-adv-x="2222" 
d="M53 254q30 -10 60 -10q47 0 78.5 26t56.5 86.5t40.5 173.5t26 271.5t17.5 396.5l10 338h997v-489h291q237 0 386 -143t149 -382q0 -232 -148 -377t-387 -145h-573v1276h-447l-6 -170q-9 -263 -28.5 -448t-52.5 -319t-84.5 -211t-119.5 -112.5t-163 -35.5q-82 0 -148 34z
M1622 784h-283v-524h281q117 0 189.5 73.5t72.5 188.5q0 118 -71.5 190t-188.5 72z" />
    <glyph glyph-name="afii10059" unicode="&#x40a;" horiz-adv-x="2340" 
d="M199 0v1536h282v-573h660v573h282v-573h338q231 0 377 -131.5t146 -350.5q0 -215 -145 -348t-378 -133h-620v702h-660v-702h-282zM1755 702h-332v-442h332q118 0 182 61t64 160q0 102 -63.5 161.5t-182.5 59.5z" />
    <glyph glyph-name="afii10060" unicode="&#x40b;" horiz-adv-x="1775" 
d="M508 0v1276h-447v260h1178v-260h-448v-344q144 117 364 117q98 0 185.5 -29.5t157 -85.5t110.5 -145t41 -199v-590h-283v553q0 122 -76.5 184t-202.5 62q-93 0 -173 -31.5t-123 -101.5v-666h-283z" />
    <glyph glyph-name="afii10061" unicode="&#x40c;" horiz-adv-x="1486" 
d="M829 1915h336l-291 -277h-237zM481 678v-678h-282v1536h282v-594h172l465 594h340l-575 -717l594 -819h-336l-496 678h-164z" />
    <glyph glyph-name="uni040D" unicode="&#x40d;" horiz-adv-x="1683" 
d="M477 1915h336l193 -277h-240zM199 0v1536h270v-1106l764 1106h252v-1536h-271v1104l-763 -1104h-252z" />
    <glyph glyph-name="afii10062" unicode="&#x40e;" horiz-adv-x="1382" 
d="M705 1786q59 0 96.5 35t38.5 94h243q-3 -158 -108.5 -251t-269.5 -93q-166 0 -272 93t-109 251h245q0 -60 37 -94.5t99 -34.5zM391 0l176 391l-559 1145h309l396 -823l368 823h293l-692 -1536h-291z" />
    <glyph glyph-name="afii10145" unicode="&#x40f;" horiz-adv-x="1615" 
d="M199 0v1536h282v-1276h656v1276h282v-1536h-475v-369h-274v369h-471z" />
    <glyph glyph-name="afii10017" unicode="&#x410;" horiz-adv-x="1536" 
d="M29 0l585 1536h308l585 -1536h-299l-168 459h-557l-168 -459h-286zM575 709h373l-186 505z" />
    <glyph glyph-name="afii10018" unicode="&#x411;" horiz-adv-x="1419" 
d="M199 0v1536h1026v-260h-744v-324h361q231 0 370.5 -129.5t139.5 -345.5t-139.5 -346.5t-370.5 -130.5h-643zM829 700h-348v-448h348q108 0 171 59t63 166t-63 165t-171 58z" />
    <glyph glyph-name="afii10019" unicode="&#x412;" horiz-adv-x="1439" 
d="M199 0v1536h637q201 0 322.5 -108t121.5 -289q0 -211 -190 -326q262 -102 262 -369q0 -202 -132.5 -323t-349.5 -121h-671zM811 1296h-332v-385h332q90 0 143.5 53.5t53.5 143.5q0 85 -54 136.5t-143 51.5zM858 666h-379v-426h379q96 0 153.5 56.5t57.5 152.5
q0 98 -58 157.5t-153 59.5z" />
    <glyph glyph-name="afii10020" unicode="&#x413;" horiz-adv-x="1218" 
d="M199 0v1536h975v-260h-693v-1276h-282z" />
    <glyph glyph-name="afii10021" unicode="&#x414;" horiz-adv-x="1624" 
d="M12 -369v629h123q108 88 143 278.5t41 624.5l5 373h1056v-1276h187v-629h-275v369h-1007v-369h-273zM592 1108q-5 -341 -41 -541.5t-115 -306.5h668v1016h-510z" />
    <glyph glyph-name="afii10022" unicode="&#x415;" horiz-adv-x="1310" 
d="M199 0v1536h1015v-254h-733v-354h506v-254h-506v-420h754v-254h-1036z" />
    <glyph glyph-name="afii10024" unicode="&#x416;" horiz-adv-x="2066" 
d="M1169 1536v-594h172l373 594h316l-463 -721l481 -815h-319l-398 678h-162v-678h-274v678h-160l-405 -678h-312l486 805l-467 731h313l373 -594h172v594h274z" />
    <glyph glyph-name="afii10025" unicode="&#x417;" horiz-adv-x="1392" 
d="M674 -20q-118 0 -220.5 26.5t-187.5 79.5t-141.5 142.5t-73.5 207.5l275 74q40 -277 352 -277q151 0 237 60.5t86 167.5q0 94 -63 145t-178 51h-225v254h202q102 0 166 50.5t64 142.5q0 95 -72.5 150t-214.5 55q-140 0 -224.5 -59.5t-107.5 -174.5l-268 62
q42 193 203 306t401 113q262 0 413.5 -117t151.5 -309q0 -224 -200 -329q114 -42 173.5 -135.5t59.5 -214.5q0 -214 -166.5 -342.5t-441.5 -128.5z" />
    <glyph glyph-name="afii10026" unicode="&#x418;" horiz-adv-x="1683" 
d="M199 0v1536h270v-1106l764 1106h252v-1536h-271v1104l-763 -1104h-252z" />
    <glyph glyph-name="afii10027" unicode="&#x419;" horiz-adv-x="1683" 
d="M866 1786q60 0 97.5 35t37.5 94h244q-1 -158 -107 -251t-272 -93t-272 93t-107 251h246q0 -60 35.5 -94.5t97.5 -34.5zM199 0v1536h270v-1106l764 1106h252v-1536h-271v1104l-763 -1104h-252z" />
    <glyph glyph-name="afii10028" unicode="&#x41a;" horiz-adv-x="1486" 
d="M481 678v-678h-282v1536h282v-594h172l465 594h340l-575 -717l594 -819h-336l-496 678h-164z" />
    <glyph glyph-name="afii10029" unicode="&#x41b;" horiz-adv-x="1605" 
d="M53 254q30 -10 60 -10q47 0 79 26.5t56.5 87t40 176t25.5 274.5t18 402l10 326h1065v-1536h-283v1276h-514l-6 -170q-9 -263 -28.5 -448t-52.5 -319t-84.5 -211t-119.5 -112.5t-163 -35.5q-82 0 -148 34z" />
    <glyph glyph-name="afii10030" unicode="&#x41c;" horiz-adv-x="1910" 
d="M199 0v1536h299l463 -606l452 606h299v-1536h-272v1155l-457 -602h-57l-457 596v-1149h-270z" />
    <glyph glyph-name="afii10031" unicode="&#x41d;" horiz-adv-x="1695" 
d="M199 0v1536h282v-596h733v596h283v-1536h-283v680h-733v-680h-282z" />
    <glyph glyph-name="afii10032" unicode="&#x41e;" horiz-adv-x="1761" 
d="M104 768q0 169 58 315.5t159.5 250.5t246.5 163t313 59q224 0 401.5 -101t276 -281t98.5 -406q0 -225 -98.5 -405t-276 -281.5t-401.5 -101.5q-168 0 -313 59.5t-246.5 163.5t-159.5 250t-58 315zM1364 768q0 239 -132.5 383.5t-350.5 144.5q-219 0 -351.5 -144.5
t-132.5 -383.5t132.5 -383.5t351.5 -144.5q218 0 350.5 144.5t132.5 383.5z" />
    <glyph glyph-name="afii10033" unicode="&#x41f;" horiz-adv-x="1667" 
d="M199 0v1536h1269v-1536h-282v1276h-705v-1276h-282z" />
    <glyph glyph-name="afii10034" unicode="&#x420;" horiz-adv-x="1419" 
d="M199 0v1536h606q234 0 380 -138t146 -354q0 -211 -147 -350t-379 -139h-324v-555h-282zM799 1282h-318v-473h318q115 0 182.5 63.5t67.5 171.5q0 110 -67 174t-183 64z" />
    <glyph glyph-name="afii10035" unicode="&#x421;" horiz-adv-x="1609" 
d="M104 768q0 163 55 307.5t153 251t242 168t312 61.5q260 0 442.5 -135t239.5 -370l-282 -78q-39 155 -139.5 239t-260.5 84q-146 0 -254 -73t-161.5 -191.5t-53.5 -263.5q0 -109 30.5 -204t88 -167.5t147.5 -114.5t201 -42q164 0 272.5 85.5t145.5 235.5l281 -78
q-70 -242 -253 -372.5t-446 -130.5q-176 0 -320.5 61t-240 167.5t-147.5 250t-52 309.5z" />
    <glyph glyph-name="afii10036" unicode="&#x422;" horiz-adv-x="1300" 
d="M508 0v1276h-447v260h1178v-260h-448v-1276h-283z" />
    <glyph glyph-name="afii10037" unicode="&#x423;" horiz-adv-x="1382" 
d="M391 0l176 391l-559 1145h309l396 -823l368 823h293l-692 -1536h-291z" />
    <glyph glyph-name="afii10038" unicode="&#x424;" horiz-adv-x="1826" 
d="M772 -43v190q-202 1 -361 81t-248 225.5t-89 332.5q0 281 194.5 457.5t503.5 181.5v154h283v-154q311 -3 504.5 -180t193.5 -459q0 -284 -195.5 -461.5t-502.5 -177.5v-190h-283zM356 786q0 -172 113 -278.5t303 -106.5v773q-190 0 -303 -108t-113 -280zM1473 786
q0 172 -114 280t-304 108v-773q190 0 304 106.5t114 278.5z" />
    <glyph glyph-name="afii10039" unicode="&#x425;" horiz-adv-x="1433" 
d="M365 1536l358 -532l338 532h315l-497 -764l518 -772h-330l-373 557l-342 -557h-305l492 788l-502 748h328z" />
    <glyph glyph-name="afii10040" unicode="&#x426;" horiz-adv-x="1660" 
d="M199 0v1536h282v-1276h656v1276h282v-1276h185v-629h-273v369h-1132z" />
    <glyph glyph-name="afii10041" unicode="&#x427;" horiz-adv-x="1503" 
d="M657 561q-282 0 -415 132t-133 364v479h282v-406q0 -163 79.5 -235t236.5 -72q147 0 315 68v645h283v-1536h-283v631q-193 -70 -365 -70z" />
    <glyph glyph-name="afii10042" unicode="&#x428;" horiz-adv-x="2189" 
d="M199 0v1536h280v-1276h475v1276h283v-1276h473v1276h281v-1536h-1792z" />
    <glyph glyph-name="afii10043" unicode="&#x429;" horiz-adv-x="2234" 
d="M199 0v1536h280v-1276h475v1276h283v-1276h473v1276h281v-1276h186v-629h-274v369h-1704z" />
    <glyph glyph-name="afii10044" unicode="&#x42a;" horiz-adv-x="1531" 
d="M360 0v1276h-360v260h643v-489h297q237 0 386 -143t149 -382q0 -232 -148 -377t-387 -145h-580zM930 784h-287v-524h287q117 0 189.5 73.5t72.5 188.5q0 118 -72 190t-190 72z" />
    <glyph glyph-name="afii10045" unicode="&#x42b;" horiz-adv-x="1990" 
d="M199 0v1536h282v-489h295q237 0 386 -143t149 -382q0 -232 -148 -377t-387 -145h-577zM1509 0v1536h283v-1536h-283zM768 784h-287v-524h287q116 0 188 73.5t72 188.5q0 118 -71.5 190t-188.5 72z" />
    <glyph glyph-name="afii10046" unicode="&#x42c;" horiz-adv-x="1370" 
d="M199 0v1536h282v-489h295q237 0 386 -143t149 -382q0 -232 -148 -377t-387 -145h-577zM768 784h-287v-524h287q116 0 188 73.5t72 188.5q0 118 -71.5 190t-188.5 72z" />
    <glyph glyph-name="afii10047" unicode="&#x42d;" horiz-adv-x="1626" 
d="M657 918h566q-34 177 -146 281t-295 104q-170 0 -286.5 -91.5t-149.5 -234.5l-262 80q59 227 249.5 363t454.5 136q225 0 393 -103t254.5 -280.5t86.5 -404.5q0 -170 -53 -315t-150 -249.5t-240.5 -164t-316.5 -59.5q-269 0 -445 132t-233 359l274 80
q33 -145 135.5 -231.5t274.5 -86.5q195 0 314.5 113.5t146.5 310.5h-572v261z" />
    <glyph glyph-name="afii10048" unicode="&#x42e;" horiz-adv-x="2344" 
d="M199 0v1536h282v-614h219q48 283 256.5 458.5t507.5 175.5q168 0 313 -59t246.5 -163t159.5 -250.5t58 -315.5t-58 -315t-159.5 -250t-246.5 -163.5t-313 -59.5q-311 0 -522.5 189.5t-247.5 489.5h-213v-659h-282zM1948 768q0 239 -132.5 383.5t-351.5 144.5
q-218 0 -350.5 -144.5t-132.5 -383.5t132.5 -383.5t350.5 -144.5q219 0 351.5 144.5t132.5 383.5z" />
    <glyph glyph-name="afii10049" unicode="&#x42f;" horiz-adv-x="1509" 
d="M1311 0h-281v596h-282l-394 -596h-315l414 625q-153 38 -241.5 150t-88.5 292q0 211 142 340t370 129h676v-1536zM643 850h387v432h-389q-104 0 -164.5 -59t-60.5 -158q0 -98 61 -156.5t166 -58.5z" />
    <glyph glyph-name="afii10065" unicode="&#x430;" horiz-adv-x="1132" 
d="M772 0l-18 141q-58 -76 -144.5 -118.5t-191.5 -42.5q-144 0 -238 80t-94 223q0 61 21 111.5t55.5 86t87 64t107 46.5t124.5 34l262 59q-33 145 -196 145q-178 0 -221 -155l-248 45q39 151 162 240.5t311 89.5q209 0 329.5 -110t120.5 -321v-618h-229zM350 301
q0 -53 33 -80.5t90 -27.5q112 0 194.5 71.5t82.5 202.5v22l-252 -61q-72 -17 -110 -45.5t-38 -81.5z" />
    <glyph glyph-name="afii10066" unicode="&#x431;" horiz-adv-x="1271" 
d="M653 -20q-186 0 -314 88t-189.5 244.5t-61.5 373.5q0 377 139.5 581.5t446.5 235.5l227 23q93 8 182 33l33 -234q-75 -20 -213 -35l-223 -22q-152 -15 -230.5 -108.5t-97.5 -282.5q65 80 161 118.5t202 38.5q99 0 186 -35.5t153.5 -100.5t105 -164t38.5 -220
q0 -241 -152 -387.5t-393 -146.5zM653 813q-124 0 -199 -82t-75 -219q0 -134 75 -214.5t199 -80.5t199.5 80.5t75.5 214.5q0 136 -75 218.5t-200 82.5z" />
    <glyph glyph-name="afii10067" unicode="&#x432;" horiz-adv-x="1107" 
d="M150 0v1026h518q150 0 238.5 -68t88.5 -198q0 -160 -145 -228q190 -51 190 -243q0 -137 -89.5 -213t-237.5 -76h-563zM637 825h-236v-207h236q55 0 84 26.5t29 76.5q0 104 -113 104zM659 203q57 0 88 27t31 79q0 53 -31 82t-88 29h-258v-217h258z" />
    <glyph glyph-name="afii10068" unicode="&#x433;" horiz-adv-x="931" 
d="M150 0v1026h741v-227h-481v-799h-260z" />
    <glyph glyph-name="afii10069" unicode="&#x434;" horiz-adv-x="1253" 
d="M35 -293v520h100q49 36 73 147.5t32 330.5l10 321h809v-799h145v-520h-258v293h-653v-293h-258zM489 709q-9 -342 -86 -482h400v574h-311z" />
    <glyph glyph-name="afii10070" unicode="&#x435;" horiz-adv-x="1189" 
d="M614 -20q-250 0 -396 147t-146 381t149 387.5t381 153.5q226 0 368 -138t142 -360q0 -59 -12 -117h-762q18 -116 90 -172.5t186 -56.5q190 0 246 145l242 -49q-46 -153 -174 -237t-314 -84zM602 834q-92 0 -160.5 -51.5t-95.5 -149.5h494q-17 97 -78.5 149t-159.5 52z
" />
    <glyph glyph-name="afii10072" unicode="&#x436;" horiz-adv-x="1564" 
d="M313 1026l248 -377h96v377h248v-377h99l245 377h295l-336 -477l355 -549h-295l-262 412h-101v-412h-248v412h-102l-268 -412h-285l356 539l-340 487h295z" />
    <glyph glyph-name="afii10073" unicode="&#x437;" horiz-adv-x="1048" 
d="M524 -20q-188 0 -309.5 72.5t-167.5 207.5l254 76q41 -143 221 -143q91 0 140 30.5t49 83.5q0 103 -146 103h-162v219h158q137 0 137 94q0 52 -48.5 81.5t-129.5 29.5q-174 0 -215 -140l-242 56q38 142 161 220.5t308 78.5q194 0 311.5 -84.5t117.5 -216.5
q0 -152 -164 -220q89 -25 136.5 -85.5t47.5 -149.5q0 -103 -63.5 -175t-164.5 -105t-229 -33z" />
    <glyph glyph-name="afii10074" unicode="&#x438;" 
d="M150 0v1026h251v-659l428 659h252v-1026h-252v659l-428 -659h-251z" />
    <glyph glyph-name="afii10075" unicode="&#x439;" 
d="M621 1352q53 0 83 28.5t33 83.5h228q-5 -135 -98.5 -218t-243.5 -83q-151 0 -245 83t-97 218h227q0 -55 30 -83.5t83 -28.5zM150 0v1026h251v-659l428 659h252v-1026h-252v659l-428 -659h-251z" />
    <glyph glyph-name="afii10076" unicode="&#x43a;" horiz-adv-x="1144" 
d="M150 1026h260v-371h112l287 371h309l-389 -481l406 -545h-310l-305 406h-110v-406h-260v1026z" />
    <glyph glyph-name="afii10077" unicode="&#x43b;" horiz-adv-x="1193" 
d="M39 221q20 -4 33 -4q41 0 63.5 13.5t42 61t29 138.5t14.5 246l15 350h808v-1026h-260v799h-299l-8 -183q-10 -243 -46.5 -378.5t-110.5 -196.5t-203 -61q-54 0 -107 16z" />
    <glyph glyph-name="afii10078" unicode="&#x43c;" horiz-adv-x="1464" 
d="M150 0v1026h264l321 -442l316 442h264v-1026h-248v676l-305 -426h-57l-308 424v-674h-247z" />
    <glyph glyph-name="afii10079" unicode="&#x43d;" horiz-adv-x="1234" 
d="M150 0v1026h260v-381h415v381h260v-1026h-260v414h-415v-414h-260z" />
    <glyph glyph-name="afii10080" unicode="&#x43e;" horiz-adv-x="1236" 
d="M618 1049q236 0 391.5 -152.5t155.5 -382.5q0 -231 -155 -382.5t-392 -151.5q-236 0 -391 151t-155 383q0 152 70.5 274t195.5 191.5t280 69.5zM618 809q-124 0 -200 -81.5t-76 -213.5q0 -134 76 -215.5t200 -81.5t199.5 81.5t75.5 215.5q0 132 -75.5 213.5t-199.5 81.5z
" />
    <glyph glyph-name="afii10081" unicode="&#x43f;" horiz-adv-x="1218" 
d="M150 0v1026h919v-1026h-260v799h-399v-799h-260z" />
    <glyph glyph-name="afii10082" unicode="&#x440;" horiz-adv-x="1296" 
d="M150 1026h235l14 -119q129 142 322 142q106 0 199.5 -40.5t160.5 -111.5t105.5 -170.5t38.5 -212.5q0 -231 -144 -382.5t-360 -151.5q-185 0 -311 129v-560h-260v1477zM682 809q-123 0 -197.5 -81.5t-74.5 -213.5q0 -134 74.5 -215.5t197.5 -81.5t197.5 81.5t74.5 215.5
q0 132 -74.5 213.5t-197.5 81.5z" />
    <glyph glyph-name="afii10083" unicode="&#x441;" horiz-adv-x="1140" 
d="M72 512q0 152 69 275t192 192.5t275 69.5q186 0 316.5 -100.5t167.5 -266.5l-263 -47q-20 83 -78.5 128.5t-144.5 45.5q-117 0 -190.5 -80.5t-73.5 -216.5t71 -215.5t189 -79.5q94 0 155.5 47t82.5 129l256 -43q-28 -160 -164.5 -265t-327.5 -105q-230 0 -381 151
t-151 381z" />
    <glyph glyph-name="afii10084" unicode="&#x442;" horiz-adv-x="987" 
d="M365 0v799h-326v227h909v-227h-323v-799h-260z" />
    <glyph glyph-name="afii10085" unicode="&#x443;" horiz-adv-x="1116" 
d="M8 1026h289l287 -692l247 692h277l-567 -1477h-269l177 457z" />
    <glyph glyph-name="afii10086" unicode="&#x444;" horiz-adv-x="1462" 
d="M606 -451v447q-234 9 -384 152t-150 366t149.5 365t384.5 151v506h252v-506q233 -9 383 -151t150 -365t-150 -366t-383 -152v-447h-252zM334 514q0 -133 70.5 -211.5t201.5 -87.5v596q-132 -9 -202 -86t-70 -211zM1128 514q0 134 -70 211t-200 86v-596q130 9 200 87.5
t70 211.5z" />
    <glyph glyph-name="afii10087" unicode="&#x445;" horiz-adv-x="1028" 
d="M307 1026l215 -307l201 307h289l-346 -512l362 -514h-303l-233 330l-207 -330h-279l340 535l-348 491h309z" />
    <glyph glyph-name="afii10088" unicode="&#x446;" horiz-adv-x="1247" 
d="M150 0v1026h260v-799h383v799h260v-799h145v-520h-258v293h-790z" />
    <glyph glyph-name="afii10089" unicode="&#x447;" horiz-adv-x="1138" 
d="M485 328q-196 0 -294.5 91.5t-98.5 256.5v350h260v-295q0 -92 48.5 -133t148.5 -41q95 0 178 35v434h262v-1026h-262v373q-123 -45 -242 -45z" />
    <glyph glyph-name="afii10090" unicode="&#x448;" horiz-adv-x="1708" 
d="M150 0v1026h260v-799h315v799h258v-799h317v799h259v-1026h-1409z" />
    <glyph glyph-name="afii10091" unicode="&#x449;" horiz-adv-x="1753" 
d="M150 0v1026h260v-799h315v799h258v-799h317v799h259v-799h145v-520h-258v293h-1296z" />
    <glyph glyph-name="afii10092" unicode="&#x44a;" horiz-adv-x="1189" 
d="M252 0v799h-240v227h500v-291h240q174 0 281.5 -101.5t107.5 -266.5q0 -164 -108 -265.5t-281 -101.5h-500zM713 510h-201v-285h201q76 0 116.5 36.5t40.5 105.5t-40.5 106t-116.5 37z" />
    <glyph glyph-name="afii10093" unicode="&#x44b;" horiz-adv-x="1523" 
d="M150 0v1026h260v-291h219q175 0 282 -101t107 -267q0 -164 -107 -265.5t-282 -101.5h-479zM1114 0v1026h260v-1026h-260zM592 512h-182v-289h182q76 0 117 37.5t41 106.5q0 70 -40.5 107.5t-117.5 37.5z" />
    <glyph glyph-name="afii10094" unicode="&#x44c;" horiz-adv-x="1087" 
d="M150 0v1026h260v-291h239q174 0 281.5 -101.5t107.5 -266.5q0 -164 -108 -265.5t-281 -101.5h-499zM610 510h-200v-285h200q77 0 117.5 36.5t40.5 105.5t-41 106t-117 37z" />
    <glyph glyph-name="afii10095" unicode="&#x44d;" horiz-adv-x="1150" 
d="M1079 516q0 -237 -145 -386.5t-389 -149.5q-190 0 -315.5 83t-166.5 242l248 70q41 -172 238 -172q215 0 264 209h-328v213h326q-24 94 -88.5 146t-167.5 52q-98 0 -164.5 -50t-89.5 -130l-242 66q51 155 180.5 247.5t315.5 92.5q241 0 382.5 -149.5t141.5 -383.5z" />
    <glyph glyph-name="afii10096" unicode="&#x44e;" horiz-adv-x="1718" 
d="M150 0v1026h260v-383h157q42 181 187.5 293.5t345.5 112.5q236 0 391.5 -152.5t155.5 -382.5q0 -231 -155 -382.5t-392 -151.5q-210 0 -358.5 121t-180.5 315h-151v-416h-260zM1100 809q-124 0 -200.5 -81.5t-76.5 -213.5q0 -133 76 -215t201 -82q124 0 199 81.5
t75 215.5q0 132 -75 213.5t-199 81.5z" />
    <glyph glyph-name="afii10097" unicode="&#x44f;" horiz-adv-x="1138" 
d="M80 692q0 151 100 242.5t264 91.5h545v-1026h-250v354h-166l-239 -354h-275l256 377q-112 36 -173.5 116t-61.5 199zM494 563h245v256h-245q-71 0 -108.5 -33t-37.5 -96q0 -127 146 -127z" />
    <glyph glyph-name="uni0450" unicode="&#x450;" horiz-adv-x="1189" 
d="M209 1464h336l192 -276h-239zM614 -20q-250 0 -396 147t-146 381t149 387.5t381 153.5q226 0 368 -138t142 -360q0 -59 -12 -117h-762q18 -116 90 -172.5t186 -56.5q190 0 246 145l242 -49q-46 -153 -174 -237t-314 -84zM602 834q-92 0 -160.5 -51.5t-95.5 -149.5h494
q-17 97 -78.5 149t-159.5 52z" />
    <glyph glyph-name="afii10071" unicode="&#x451;" horiz-adv-x="1189" 
d="M387 1198q-63 0 -105 41t-42 104t42 104.5t105 41.5t105.5 -41.5t42.5 -104.5t-42.5 -104t-105.5 -41zM793 1198q-63 0 -105.5 41t-42.5 104t42.5 104.5t105.5 41.5t105 -41.5t42 -104.5t-42 -104t-105 -41zM614 -20q-250 0 -396 147t-146 381t149 387.5t381 153.5
q226 0 368 -138t142 -360q0 -59 -12 -117h-762q18 -116 90 -172.5t186 -56.5q190 0 246 145l242 -49q-46 -153 -174 -237t-314 -84zM602 834q-92 0 -160.5 -51.5t-95.5 -149.5h494q-17 97 -78.5 149t-159.5 52z" />
    <glyph glyph-name="afii10099" unicode="&#x452;" 
d="M150 0v1169h-150v213h150v154h260v-154h327v-213h-327v-237q124 117 290 117q83 0 155.5 -28t128.5 -81t88 -136t32 -186v-731q0 -163 -90.5 -260.5t-243.5 -97.5q-90 0 -170 27l47 217q63 -13 80 -13q117 0 117 127v691q0 111 -56.5 170t-150.5 59q-43 0 -81.5 -12.5
t-72 -38t-53.5 -71.5t-20 -107v-578h-260z" />
    <glyph glyph-name="afii10100" unicode="&#x453;" horiz-adv-x="931" 
d="M602 1464h336l-291 -276h-237zM150 0v1026h741v-227h-481v-799h-260z" />
    <glyph glyph-name="afii10101" unicode="&#x454;" horiz-adv-x="1138" 
d="M72 512q0 232 152 384.5t382 152.5q187 0 317 -100.5t167 -266.5l-252 -47q-19 83 -80 129.5t-150 46.5q-92 0 -159 -49t-93 -137h312v-222h-314q26 -89 92 -138.5t160 -49.5q96 0 159.5 48.5t82.5 129.5l248 -43q-30 -161 -166.5 -265.5t-327.5 -104.5
q-229 0 -379.5 151t-150.5 381z" />
    <glyph glyph-name="afii10102" unicode="&#x455;" horiz-adv-x="997" 
d="M512 -20q-181 0 -303.5 74.5t-163.5 232.5l266 53q28 -150 201 -150q79 0 123.5 29.5t44.5 83.5q0 13 -3.5 23.5t-12.5 19.5t-17 15.5t-24.5 12.5t-28 10t-33.5 8.5t-35.5 7t-39.5 7t-40 7.5q-51 8 -86 16t-81 23t-77 36.5t-59.5 52.5t-42.5 76.5t-14 102.5
q0 143 121 235.5t307 92.5q340 0 432 -285l-258 -53q-29 127 -174 127q-74 0 -118 -29.5t-44 -75.5q0 -27 14.5 -46t48 -31t63.5 -18.5t85 -14.5q48 -8 76 -13t74 -17t74 -25.5t62 -36.5t53 -51.5t32.5 -69.5t13.5 -91q0 -152 -112 -245.5t-324 -93.5z" />
    <glyph glyph-name="afii10103" unicode="&#x456;" horiz-adv-x="559" 
d="M121 1343q0 68 45.5 113t114.5 45t113 -45t44 -113t-44 -111.5t-113 -43.5t-114.5 44t-45.5 111zM150 0v1026h260v-1026h-260z" />
    <glyph glyph-name="afii10104" unicode="&#x457;" horiz-adv-x="559" 
d="M139 1194q-56 0 -91.5 41.5t-35.5 105.5q0 66 35.5 107t91.5 41q53 0 88 -41.5t35 -106.5q0 -64 -35 -105.5t-88 -41.5zM428 1194q-56 0 -91.5 41.5t-35.5 105.5q0 66 35.5 107t91.5 41q54 0 89.5 -41t35.5 -107q0 -64 -35.5 -105.5t-89.5 -41.5zM150 0v1026h260v-1026
h-260z" />
    <glyph glyph-name="afii10105" unicode="&#x458;" horiz-adv-x="559" 
d="M121 1343q0 68 45.5 113t114.5 45t113 -45t44 -113t-44 -111.5t-113 -43.5t-114.5 44t-45.5 111zM150 1026h260v-1139q0 -164 -93.5 -261t-255.5 -97q-83 0 -157 27l51 215q46 -11 72 -11q123 0 123 127v1139z" />
    <glyph glyph-name="afii10106" unicode="&#x459;" horiz-adv-x="1665" 
d="M39 221q24 -4 39 -4q39 0 60.5 13t40 60.5t28 138.5t14.5 247l15 350h770v-295h221q175 0 282 -100.5t107 -263.5q0 -164 -107 -265.5t-282 -101.5h-482v799h-260l-8 -183q-10 -243 -46.5 -378.5t-110.5 -196.5t-203 -61q-51 0 -107 16zM1188 508h-182v-285h182
q77 0 118.5 37t41.5 107q0 69 -41.5 105t-118.5 36z" />
    <glyph glyph-name="afii10107" unicode="&#x45a;" horiz-adv-x="1732" 
d="M150 0v1026h260v-362h397v362h260v-360h250q163 0 264.5 -91.5t101.5 -240.5t-101.5 -241.5t-264.5 -92.5h-510v436h-397v-436h-260zM1288 453h-221v-240h221q62 0 95.5 31.5t33.5 89.5q0 57 -33 88t-96 31z" />
    <glyph glyph-name="afii10108" unicode="&#x45b;" 
d="M150 0v1169h-150v213h150v154h260v-154h327v-213h-327v-237q124 117 290 117q83 0 155.5 -28t128.5 -81t88 -136t32 -186v-618h-260v578q0 111 -56.5 170t-150.5 59q-43 0 -81.5 -12t-72.5 -37.5t-53.5 -71.5t-19.5 -108v-578h-260z" />
    <glyph glyph-name="afii10109" unicode="&#x45c;" horiz-adv-x="1144" 
d="M659 1464h336l-290 -276h-238zM150 1026h260v-371h112l287 371h309l-389 -481l406 -545h-310l-305 406h-110v-406h-260v1026z" />
    <glyph glyph-name="uni045D" unicode="&#x45d;" 
d="M227 1464h336l193 -276h-240zM150 0v1026h251v-659l428 659h252v-1026h-252v659l-428 -659h-251z" />
    <glyph glyph-name="afii10110" unicode="&#x45e;" horiz-adv-x="1116" 
d="M573 1352q53 0 83.5 28.5t33.5 83.5h228q-5 -135 -99 -218t-244 -83q-151 0 -245 83t-97 218h228q0 -55 29.5 -83.5t82.5 -28.5zM8 1026h289l287 -692l247 692h277l-567 -1477h-269l177 457z" />
    <glyph glyph-name="afii10193" unicode="&#x45f;" horiz-adv-x="1204" 
d="M150 0v1026h260v-799h383v799h262v-1026h-324v-293h-258v293h-323z" />
    <glyph glyph-name="afii10146" unicode="&#x462;" horiz-adv-x="1359" 
d="M211 0v1087h-184v256h184v209h283v-209h358v-256h-358v-213h331q214 0 344.5 -120t130.5 -316t-131 -317t-344 -121h-614zM815 633h-321v-391h321q90 0 146.5 54.5t56.5 141.5q0 88 -56 141.5t-147 53.5z" />
    <glyph glyph-name="afii10194" unicode="&#x463;" horiz-adv-x="1114" 
d="M152 0v961h-152v217h152v358h260v-358h327v-217h-327v-224h262q175 0 283 -101.5t108 -266.5q0 -166 -108 -267.5t-283 -101.5h-522zM637 514h-225v-289h225q77 0 117.5 37t40.5 107t-40.5 107.5t-117.5 37.5z" />
    <glyph glyph-name="afii10147" unicode="&#x472;" horiz-adv-x="1761" 
d="M104 768q0 169 58 315.5t159.5 250.5t246.5 163t313 59q224 0 401.5 -101t276 -281t98.5 -406q0 -225 -98.5 -405t-276 -281.5t-401.5 -101.5q-168 0 -313 59.5t-246.5 163.5t-159.5 250t-58 315zM881 1296q-184 0 -309 -104t-160 -285h938q-35 181 -160 285t-309 104z
M881 240q188 0 314.5 109.5t158.5 297.5h-946q32 -188 158.5 -297.5t314.5 -109.5z" />
    <glyph glyph-name="afii10195" unicode="&#x473;" horiz-adv-x="1236" 
d="M618 1049q236 0 391.5 -152.5t155.5 -382.5q0 -231 -155 -382.5t-392 -151.5q-236 0 -391 151t-155 383q0 152 70.5 274t195.5 191.5t280 69.5zM618 813q-98 0 -168 -51t-96 -141h529q-26 90 -96.5 141t-168.5 51zM618 213q98 0 167.5 51t95.5 139h-525
q26 -89 95.5 -139.5t166.5 -50.5z" />
    <glyph glyph-name="afii10148" unicode="&#x474;" horiz-adv-x="1560" 
d="M49 1536h303l393 -1214l306 940q52 157 130 225.5t210 68.5q103 0 168 -36l-48 -238q-30 10 -65 10q-47 0 -79.5 -21t-51.5 -77l-391 -1194h-369z" />
    <glyph glyph-name="afii10196" unicode="&#x475;" horiz-adv-x="1124" 
d="M385 0l-377 1026h285l250 -725l170 492q45 136 114 196t187 60q53 0 108 -19l-28 -225q-24 4 -39 4q-43 0 -69.5 -23t-51.5 -90l-258 -696h-291z" />
    <glyph glyph-name="afii10050" unicode="&#x490;" horiz-adv-x="1220" 
d="M199 0v1536h704v348h273v-543h-2v-65h-693v-1276h-282z" />
    <glyph glyph-name="afii10098" unicode="&#x491;" horiz-adv-x="935" 
d="M150 0v1026h487v285h258v-512h-485v-799h-260z" />
    <glyph glyph-name="ellipsis" unicode="&#x2026;" horiz-adv-x="1597" 
d="M274 -20q-76 0 -125 46t-49 119q0 76 49 124t125 48q77 0 126 -48t49 -124q0 -73 -49 -119t-126 -46zM799 -20q-76 0 -125 46t-49 119q0 76 49 124t125 48q77 0 125.5 -48t48.5 -124q0 -73 -48.5 -119t-125.5 -46zM1323 -20q-76 0 -125 46t-49 119q0 76 49 124t125 48
q77 0 125.5 -48t48.5 -124q0 -73 -48.5 -119t-125.5 -46z" />
    <glyph glyph-name="Euro" unicode="&#x20ac;" horiz-adv-x="1579" 
d="M63 487v209h144q-2 23 -2 72q0 46 2 66h-144v208h177q64 237 234.5 375.5t416.5 138.5q250 0 409 -129t220 -354l-260 -80q-87 312 -369 312q-135 0 -225 -68.5t-134 -194.5h484v-208h-522q-2 -20 -2 -66q0 -49 2 -72h522v-209h-479q45 -122 135 -188t219 -66
q158 0 253 86t128 228l260 -78q-65 -228 -231.5 -358.5t-417.5 -130.5q-243 0 -411 136t-232 371h-177z" />
    <glyph glyph-name="uni20BD" unicode="&#x20bd;" horiz-adv-x="1462" 
d="M272 0v182h-202v238h202v147h-200v248h200v721h598q234 0 379.5 -136t145.5 -349q0 -211 -146 -347.5t-379 -136.5h-315v-147h414v-238h-414v-182h-283zM868 1286h-313v-471h313q112 0 178 64.5t66 173.5q0 108 -65.5 170.5t-178.5 62.5z" />
    <glyph glyph-name="arrowleft" unicode="&#x2190;" horiz-adv-x="1429" 
d="M49 752l531 581l172 -155l-297 -310h901v-233h-901l297 -307l-172 -158z" />
    <glyph glyph-name="arrowup" unicode="&#x2191;" horiz-adv-x="1255" 
d="M743 102h-231v957l-309 -297l-152 166l578 549l575 -545l-155 -168l-306 293v-955z" />
    <glyph glyph-name="arrowright" unicode="&#x2192;" horiz-adv-x="1429" 
d="M74 635v233h901l-297 310l172 155l530 -581l-530 -582l-172 158l297 307h-901z" />
    <glyph glyph-name="arrowdown" unicode="&#x2193;" horiz-adv-x="1255" 
d="M629 49l-578 547l152 166l309 -295v954h231v-952l306 293l155 -168z" />
    <glyph glyph-name="E.alt" horiz-adv-x="1513" 
d="M684 426q-183 0 -307 113q17 -135 128.5 -217t278.5 -82q164 0 279.5 86t150.5 256l269 -58q-72 -272 -254 -408t-447 -136q-300 0 -484.5 158.5t-184.5 424.5q0 138 49 242q-19 64 -19 164q0 166 80.5 299.5t227.5 210.5t333 77q240 0 401.5 -117.5t217.5 -324.5
l-266 -80q-30 126 -125 198.5t-238 72.5q-145 0 -241 -74.5t-115 -198.5q123 92 278 92q157 0 260 -98t103 -248q0 -153 -106.5 -252.5t-268.5 -99.5zM657 897q-55 0 -109 -27t-93 -84q33 -65 87 -99t115 -34q63 0 102.5 34t39.5 89q0 54 -39.5 87.5t-102.5 33.5z" />
    <glyph glyph-name="L.alt" horiz-adv-x="1689" 
d="M1710 295q-104 -315 -416 -315q-80 0 -152 18t-136 54.5t-109.5 70t-103.5 84.5l-2 2q-74 -121 -168 -175t-224 -54q-172 0 -280.5 100t-108.5 260q0 169 111.5 279t290.5 110q131 0 284 -100l199 534q76 205 174.5 299t269.5 94q51 0 103 -12l-35 -246q-28 7 -45 7
q-122 0 -180 -154l-273 -694q3 -3 9.5 -8.5t9.5 -8.5q121 -104 165 -134q98 -66 187 -66q143 0 195 157zM279 352q0 -57 38 -93t101 -36q57 0 100.5 37.5t85.5 128.5q-106 96 -184 96q-61 0 -101 -38t-40 -95z" />
    <glyph glyph-name="M.alt" horiz-adv-x="2189" 
d="M543 991l-205 -991h-283l207 1014q56 266 210.5 404t375.5 138q166 0 309 -86q156 86 332 86q265 0 425.5 -183t160.5 -503q0 -186 -62.5 -409t-197.5 -461h-306q283 471 283 856q0 204 -83 323t-249 119q-59 0 -102 -14q95 -127 146.5 -287t51.5 -297
q0 -204 -118.5 -325t-311.5 -121q-188 0 -301.5 119t-113.5 317q0 141 59.5 303.5t167.5 292.5q-45 10 -84 10q-120 0 -200.5 -76.5t-110.5 -228.5zM1135 510q67 0 103 49.5t36 145.5q0 116 -35 232t-98 202q-72 -89 -111 -206.5t-39 -225.5q0 -95 38.5 -146t105.5 -51z" />
    <glyph glyph-name="Q.alt" horiz-adv-x="1761" 
d="M881 -20q-168 0 -313 59.5t-246.5 163.5t-159.5 250t-58 315t58 315.5t159.5 250.5t246.5 163t313 59q224 0 401.5 -101t276 -281t98.5 -406q0 -189 -79.5 -362t-229.5 -283l186 -211l-197 -166l-227 262q-109 -28 -229 -28zM393 768q0 -242 134.5 -387t353.5 -145
q22 0 32 2l-69 79q-117 136 -117 310q0 178 111.5 287.5t291.5 109.5q118 0 211 -57q-55 163 -174 248t-284 85q-222 0 -356 -145.5t-134 -386.5zM1102 403l72 -81q85 53 134.5 128.5t49.5 155.5q0 84 -45.5 136.5t-126.5 52.5t-130.5 -52t-49.5 -133q0 -100 96 -207z" />
    <glyph glyph-name="R.alt" horiz-adv-x="1611" 
d="M240 0q-61 275 -87 450.5t-26 342.5q0 347 193.5 555t506.5 208q281 0 456 -170t175 -432q0 -214 -123 -370l183 -584h-281l-129 412q-93 -37 -207 -37q-174 0 -285.5 97t-111.5 253q0 150 99.5 245t252.5 95q103 0 188 -46t138 -136q8 31 8 67q0 157 -99.5 255
t-263.5 98q-91 0 -167.5 -29.5t-136.5 -89t-94 -160t-34 -233.5q0 -149 27 -317t94 -474h-276zM758 727q0 -55 44.5 -86t117.5 -31q62 0 118 27q-33 101 -72 145.5t-100 44.5q-50 0 -79 -27.5t-29 -72.5z" />
    <glyph glyph-name="S.alt" horiz-adv-x="1406" 
d="M168 1155q0 184 144 292.5t372 108.5q210 0 356 -94.5t191 -265.5l-283 -74q-53 197 -268 197q-98 0 -159.5 -39t-61.5 -106q0 -63 56 -93t200 -65l129 -31q261 -64 382.5 -183t121.5 -308q0 -167 -97 -285t-258 -173.5t-370 -55.5q-269 0 -422.5 97.5t-153.5 274.5
q0 156 119 248t305 92q170 0 289 -80.5t155 -230.5l-260 -78q-43 164 -192 164q-65 0 -104.5 -31t-39.5 -82q0 -68 73.5 -104.5t213.5 -36.5q93 0 173 15t145 45.5t102 82.5t37 121q0 100 -82 167t-279 110l-137 30q-87 19 -154 46.5t-124 70t-88 107t-31 147.5z" />
    <glyph glyph-name="W.alt" horiz-adv-x="2183" 
d="M2091 649q0 -314 -175 -491.5t-458 -177.5q-175 0 -321 81q-143 -81 -310 -81q-222 0 -370.5 120t-190.5 342l-211 1094h283l184 -971q64 -334 330 -334q38 0 76 9q-106 131 -162.5 299t-56.5 323q0 225 117 361.5t307 136.5t303.5 -133t113.5 -367q0 -155 -53.5 -318.5
t-153.5 -291.5q62 -19 123 -19q93 0 164 35t112.5 96t62 136.5t20.5 163.5q0 149 -61.5 305t-184.5 356l-76 123l242 137l106 -184q240 -410 240 -750zM1130 1112q-72 0 -113.5 -65.5t-41.5 -182.5q0 -128 42.5 -257t123.5 -222q68 90 105.5 216.5t37.5 262.5
q0 114 -41.5 181t-112.5 67z" />
    <glyph glyph-name="arrowleft.alt" horiz-adv-x="2002" 
d="M94 752l576 630l174 -153l-352 -369q175 -18 354 -18q86 0 160 6q-31 108 -31 217q0 217 120 342t310 125q169 0 269 -99.5t100 -254.5q0 -150 -100.5 -277t-295.5 -201q118 -94 305 -94q116 0 203 17l23 -222q-88 -18 -238 -18q-184 0 -325 66t-232 184
q-133 -19 -276 -19q-127 0 -340 23l346 -361l-174 -155zM1221 1071q0 -99 26 -178q141 44 211 118.5t70 162.5q0 67 -37 105t-102 38q-76 0 -122 -66.5t-46 -179.5z" />
    <glyph glyph-name="arrowright.alt" horiz-adv-x="2002" 
d="M117 618q75 -16 192 -16q191 0 314 92q-200 70 -297 195t-97 278q0 162 105.5 263.5t286.5 101.5t294 -120.5t113 -328.5q0 -122 -35 -235q73 -6 164 -6q179 0 354 18l-354 369l174 153l578 -630l-578 -631l-174 155l348 361q-217 -23 -340 -23q-150 0 -286 19
q-94 -119 -238.5 -185.5t-329.5 -66.5q-128 0 -217 20zM473 1167q0 -87 72 -160.5t217 -115.5q29 89 29 184q0 111 -48 176.5t-125 65.5q-66 0 -105.5 -40.5t-39.5 -109.5z" />
    <glyph glyph-name="afii10022.alt" horiz-adv-x="1511" 
d="M684 426q-183 0 -307 113q17 -135 128.5 -217t278.5 -82q164 0 279.5 86t150.5 256l269 -58q-72 -272 -254 -408t-447 -136q-300 0 -484.5 158.5t-184.5 424.5q0 138 49 242q-19 64 -19 164q0 166 80.5 299.5t227.5 210.5t333 77q240 0 401.5 -117.5t217.5 -324.5
l-266 -80q-30 126 -125 198.5t-238 72.5q-145 0 -241 -74.5t-115 -198.5q123 92 278 92q157 0 260 -98t103 -248q0 -153 -106.5 -252.5t-268.5 -99.5zM657 897q-55 0 -109 -27t-93 -84q33 -65 87 -99t115 -34q63 0 102.5 34t39.5 89q0 54 -39.5 87.5t-102.5 33.5z" />
    <glyph glyph-name="afii10023.alt" horiz-adv-x="1511" 
d="M586 1649q-63 0 -105.5 41t-42.5 104t42.5 104t105.5 41t105 -41t42 -104t-42 -104t-105 -41zM991 1649q-63 0 -105 41t-42 104t42 104t105 41t105.5 -41t42.5 -104t-42.5 -104t-105.5 -41zM684 426q-183 0 -307 113q17 -135 128.5 -217t278.5 -82q164 0 279.5 86
t150.5 256l269 -58q-72 -272 -254 -408t-447 -136q-300 0 -484.5 158.5t-184.5 424.5q0 138 49 242q-19 64 -19 164q0 166 80.5 299.5t227.5 210.5t333 77q240 0 401.5 -117.5t217.5 -324.5l-266 -80q-30 126 -125 198.5t-238 72.5q-145 0 -241 -74.5t-115 -198.5
q123 92 278 92q157 0 260 -98t103 -248q0 -153 -106.5 -252.5t-268.5 -99.5zM657 897q-55 0 -109 -27t-93 -84q33 -65 87 -99t115 -34q63 0 102.5 34t39.5 89q0 54 -39.5 87.5t-102.5 33.5z" />
    <glyph glyph-name="afii10025.alt" horiz-adv-x="1480" 
d="M784 428q-161 0 -267.5 95.5t-106.5 250.5q0 154 111 249t276 95q154 0 274 -86q-17 130 -108 204.5t-234 74.5q-106 0 -188 -44.5t-126 -108.5t-63 -142l-268 59q51 220 224 350.5t421 130.5q143 0 260 -44t193 -119t117.5 -174.5t41.5 -212.5q0 -96 -28 -175
q67 -120 67 -278q0 -257 -183.5 -415t-479.5 -158q-258 0 -441.5 130t-230.5 353l281 69q32 -145 134.5 -222t256.5 -77q184 0 289.5 91t105.5 233v8q-137 -137 -328 -137zM670 774q0 -50 40 -79t109 -29q65 0 123.5 32.5t93.5 100.5q-46 43 -105 66.5t-112 23.5
q-69 0 -109 -31t-40 -84z" />
    <glyph glyph-name="afii10030.alt" horiz-adv-x="2181" 
d="M1362 1300q-50 0 -105 -20q98 -146 152.5 -332.5t54.5 -345.5q0 -200 -110.5 -317t-288.5 -117q-170 0 -277.5 113.5t-107.5 308.5q0 165 57.5 354t161.5 336q-41 20 -94 20q-231 0 -283 -303l-170 -997h-276l172 1014q46 272 189 407t366 135q147 0 276 -92
q136 92 285 92q448 0 534 -538l170 -1018h-284l-164 995q-47 305 -258 305zM946 594q0 -87 34 -131.5t93 -44.5t92 44.5t33 131.5q0 136 -32.5 273t-92.5 239q-61 -102 -94 -238t-33 -274z" />
    <glyph glyph-name="afii10038.alt" horiz-adv-x="2154" 
d="M936 -43v317q-125 -170 -332 -170q-232 0 -374 178t-142 470q0 306 147.5 493t385.5 189q197 0 315 -156v303h283v-303q121 156 317 156q236 -2 383 -189t147 -493q0 -292 -141.5 -470t-374.5 -178q-206 0 -331 170v-317h-283zM371 752q0 -191 76 -299.5t219 -108.5
q122 0 196 100.5t74 268.5v112q0 168 -74 268.5t-196 100.5q-142 0 -218.5 -118t-76.5 -324zM1784 752q0 207 -75.5 324.5t-219.5 117.5q-122 0 -196 -100.5t-74 -268.5v-112q0 -168 74 -268.5t196 -100.5q144 0 219.5 108.5t75.5 299.5z" />
    <glyph glyph-name="afii10040.alt" horiz-adv-x="1716" 
d="M1309 -434l-56 -25l-108 207l53 29q76 44 76 110q0 31 -14.5 63.5t-53.5 96.5l-24 41q-177 -108 -422 -108q-272 0 -427 146t-155 402v1008h277v-987q0 -145 89 -229t247 -84q154 0 272 67q-209 388 -209 791q0 217 104.5 339.5t286.5 122.5q183 0 284 -121.5t101 -342.5
q0 -234 -63 -457t-193 -381l39 -68q68 -117 97.5 -190.5t29.5 -140.5q0 -185 -231 -289zM1118 1094q0 -309 125 -602q123 220 123 602q0 117 -31 171t-92 54q-125 0 -125 -225z" />
    <glyph glyph-name="afii10042.alt" horiz-adv-x="2322" 
d="M2161 250h67v-250h-112q-178 0 -312 115q-178 -135 -407 -135q-226 0 -396 135q-154 -135 -354 -135q-223 0 -346 123t-123 341v1092h258v-1073q0 -120 56.5 -184t169.5 -64q107 0 190 64q-112 163 -167.5 384t-55.5 441q0 213 96 332.5t266 119.5q171 0 268 -119.5
t97 -332.5q0 -209 -51.5 -426t-151.5 -381q109 -82 252 -82q144 0 254 74q-96 161 -144.5 378.5t-48.5 436.5q0 213 98 332.5t269 119.5q168 0 264 -122.5t96 -337.5q0 -207 -55 -420.5t-164 -374.5q79 -51 187 -51zM1716 1104q0 -404 107 -623q123 229 123 623
q0 118 -28.5 170.5t-84.5 52.5q-117 0 -117 -223zM877 1104q0 -381 127 -621q102 236 102 621q0 118 -28.5 170.5t-84.5 52.5q-58 0 -87 -52.5t-29 -170.5z" />
    <glyph glyph-name="afii10043.alt" horiz-adv-x="2263" 
d="M1923 -434l-57 -25l-109 207l55 29q76 46 76 110q0 30 -14 62t-53 98l-35 55q-167 -122 -387 -122q-227 0 -393 137q-156 -137 -359 -137q-223 0 -346 123t-123 341v1092h258v-1073q0 -120 56.5 -184t169.5 -64q105 0 194 66q-109 164 -162 383t-53 440q0 213 96 332.5
t267 119.5t267.5 -119.5t96.5 -332.5q0 -208 -54 -425t-157 -382q109 -82 252 -82q154 0 262 82q-107 185 -164 379.5t-57 427.5q0 213 98 332.5t269 119.5q169 0 264.5 -119.5t95.5 -332.5q0 -216 -52.5 -432.5t-160.5 -378.5l61 -107q68 -117 97.5 -190.5t29.5 -140.5
q0 -184 -229 -289zM1702 1104q0 -352 125 -602q104 222 104 602q0 223 -114 223q-115 0 -115 -223zM889 1104q0 -384 119 -619q110 241 110 619q0 118 -28.5 170.5t-85.5 52.5q-115 0 -115 -223z" />
    <glyph glyph-name="afii10049.alt" horiz-adv-x="1648" 
d="M1495 0h-270v850q0 119 -31 209t-85.5 142t-120.5 77t-144 25q-163 0 -263 -101.5t-100 -271.5q0 -37 13 -74q117 199 327 199q147 0 239.5 -92.5t92.5 -241.5q0 -156 -106.5 -252t-274.5 -96q-128 0 -250 61l-200 -434h-283l280 602q-110 157 -110 354q0 266 179.5 433
t467.5 167q292 0 465.5 -179t173.5 -507v-870zM803 817q-57 0 -96.5 -39t-83.5 -129q62 -41 147 -41q62 0 97.5 30.5t35.5 82.5q0 42 -27.5 69t-72.5 27z" />
    </font>
</defs>
</svg>
