<?xml version="1.0" standalone="no"?>
<!DOCTYPE svg PUBLIC "-//W3C//DTD SVG 1.1//EN" "http://www.w3.org/Graphics/SVG/1.1/DTD/svg11.dtd" >
<svg xmlns="http://www.w3.org/2000/svg" xmlns:xlink="http://www.w3.org/1999/xlink" version="1.1">
<metadata>
Created by FontForge 20170731 at Wed Nov 16 18:21:10 2022
 By Aleksey,,,
Copyright 2020 Ilya Naumoff
</metadata>
<defs>
<font id="FactorA-MediumItalic" horiz-adv-x="1208" >
  <font-face 
    font-family="Factor A TRIAL Medium Italic"
    font-weight="500"
    font-style="italic"
    font-stretch="normal"
    units-per-em="2048"
    panose-1="0 0 0 0 0 0 0 0 0 0"
    ascent="1536"
    descent="-512"
    x-height="1018"
    cap-height="1536"
    bbox="-254 -539 2355 1931"
    underline-thickness="143"
    underline-position="-505"
    slope="-10"
    unicode-range="U+000D-FB02"
  />
<missing-glyph horiz-adv-x="1409" 
d="M129 0l270 1536h975l-270 -1536h-975zM395 215h518l197 1108h-518z" />
    <glyph glyph-name="ff" unicode="ff" horiz-adv-x="1538" 
d="M602 1180l-29 -162h455l31 172q30 167 149 265.5t277 98.5q103 0 174 -36l-82 -177q-46 19 -98 19q-81 0 -137.5 -45.5t-73.5 -134.5l-29 -162h369l-31 -184h-371l-145 -834h-211l145 834h-454l-146 -834h-213l146 834h-258l10 61l119 123h161l31 172q32 167 150 265.5
t276 98.5q103 0 176 -36l-82 -177q-46 19 -100 19q-81 0 -136.5 -45.5t-72.5 -134.5z" />
    <glyph glyph-name="fi" unicode="fi" horiz-adv-x="1351" 
d="M913 834h-372l-146 -834h-213l148 834h-260l10 61l119 123h163l29 168q31 178 146 273t274 95q103 0 180 -38l-76 -175q-46 19 -98 19q-85 0 -142.5 -47t-74.5 -139l-27 -156h371zM1104 1350q0 58 38 95.5t97 37.5t97 -37.5t38 -95.5q0 -59 -38.5 -97.5t-96.5 -38.5
t-96.5 38.5t-38.5 97.5zM895 0l180 1018h211l-178 -1018h-213z" />
    <glyph glyph-name="fl" unicode="fl" horiz-adv-x="1351" 
d="M913 834h-372l-146 -834h-213l148 834h-260l10 61l119 123h163l29 168q31 178 146 273t274 95q103 0 180 -38l-76 -175q-46 19 -98 19q-85 0 -142.5 -47t-74.5 -139l-27 -156h371zM895 0l270 1536h213l-270 -1536h-213z" />
    <glyph glyph-name=".notdef" horiz-adv-x="1409" 
d="M129 0l270 1536h975l-270 -1536h-975zM395 215h518l197 1108h-518z" />
    <glyph glyph-name=".null" horiz-adv-x="0" 
 />
    <glyph glyph-name=".null" horiz-adv-x="0" 
 />
    <glyph glyph-name="nonmarkingreturn" horiz-adv-x="682" 
 />
    <glyph glyph-name="CR" unicode="&#xd;" horiz-adv-x="0" 
 />
    <glyph glyph-name="space" unicode=" " horiz-adv-x="450" 
 />
    <glyph glyph-name="exclam" unicode="!" horiz-adv-x="708" 
d="M414 1536h248l-218 -1055h-182zM291 -16q-65 0 -106.5 39.5t-41.5 103.5q0 63 41.5 103t106.5 40t106 -40t41 -103q0 -64 -41 -103.5t-106 -39.5z" />
    <glyph glyph-name="numbersign" unicode="#" horiz-adv-x="1503" 
d="M57 303l33 180h238l200 447h-198l32 180h248l135 303h201l-135 -303h317l136 303h200l-135 -303h189l-33 -180h-236l-200 -447h194l-33 -180h-241l-135 -303h-199l135 303h-324l-135 -303h-200l135 303h-189zM528 483h322l199 447h-320z" />
    <glyph glyph-name="dollar" unicode="$" horiz-adv-x="1294" 
d="M1337 1147l-215 -55q-6 96 -57.5 162t-142.5 92l-88 -492q67 -22 114 -42t101.5 -53.5t88.5 -73t56.5 -98t22.5 -130.5q0 -129 -63.5 -233t-186.5 -168.5t-287 -71.5l-29 -166h-180l31 174q-204 30 -319 151.5t-130 305.5l223 49q3 -130 70 -210.5t191 -103.5l90 516
q-67 22 -114 40.5t-103 52.5t-90 72.5t-57 98t-23 132.5q0 197 152.5 323.5t385.5 134.5l27 146h178l-29 -160q167 -31 265.5 -131.5t117.5 -261.5zM463 1118q0 -76 52.5 -123t150.5 -84l79 449q-130 -10 -206 -76.5t-76 -165.5zM993 438q0 76 -50 122.5t-146 82.5l-82 -465
q130 17 204 88.5t74 171.5z" />
    <glyph glyph-name="percent" unicode="%" horiz-adv-x="1933" 
d="M377 -37l-123 109l1393 1501l122 -107zM571 797q-152 0 -246 87.5t-94 237.5q0 86 35 165.5t94 138.5t143 94.5t177 35.5q152 0 246 -86.5t94 -236.5q0 -86 -35 -165.5t-94 -139t-143 -95.5t-177 -36zM664 1401q-106 0 -181 -80.5t-75 -187.5q0 -87 48 -133t130 -46
q107 0 182.5 80t75.5 187q0 89 -48 134.5t-132 45.5zM1346 -20q-152 0 -246 87.5t-94 237.5q0 115 58.5 214.5t162 159.5t227.5 60q152 0 246 -86.5t94 -236.5q0 -115 -58.5 -215t-162 -160.5t-227.5 -60.5zM1438 584q-106 0 -181 -81t-75 -188q0 -87 48 -132.5t130 -45.5
q107 0 182.5 79.5t75.5 186.5q0 89 -48 135t-132 46z" />
    <glyph glyph-name="ampersand" unicode="&#x26;" horiz-adv-x="1427" 
d="M1163 1212q0 -76 -30 -140.5t-86.5 -116t-121.5 -91t-151 -76.5l252 -362q99 136 160 322l184 -66q-90 -255 -229 -418l182 -264h-244l-88 123q-193 -141 -440 -141q-210 0 -335.5 104.5t-125.5 292.5q0 144 91.5 261t297.5 212q-58 93 -86 166.5t-28 148.5
q0 164 122 275.5t308 111.5q171 0 269.5 -94.5t98.5 -247.5zM578 1165q0 -94 100 -233q140 65 208 129t68 145q0 75 -45.5 118.5t-122.5 43.5q-94 0 -151 -55.5t-57 -147.5zM317 401q0 -101 71 -162t190 -61q168 0 305 101l-303 428q-149 -68 -206 -141.5t-57 -164.5z" />
    <glyph glyph-name="parenleft" unicode="(" horiz-adv-x="802" 
d="M352 465q0 -214 79.5 -377.5t215.5 -271.5l-145 -152q-171 128 -271 332.5t-100 460.5q0 362 184 661t502 481l115 -167q-269 -159 -424.5 -411.5t-155.5 -555.5z" />
    <glyph glyph-name="parenright" unicode=")" horiz-adv-x="802" 
d="M496 795q0 214 -79.5 377.5t-215.5 271.5l145 151q171 -128 271 -332.5t100 -459.5q0 -362 -184 -661.5t-502 -481.5l-115 168q269 159 424.5 411.5t155.5 555.5z" />
    <glyph glyph-name="comma" unicode="," horiz-adv-x="501" 
d="M86 -317h-174l201 553h254z" />
    <glyph glyph-name="period" unicode="." horiz-adv-x="507" 
d="M188 -16q-65 0 -106 39.5t-41 103.5q0 63 41 103t106 40t106.5 -40t41.5 -103q0 -64 -41.5 -103.5t-106.5 -39.5z" />
    <glyph glyph-name="slash" unicode="/" horiz-adv-x="956" 
d="M152 0h-226l973 1536h225z" />
    <glyph glyph-name="zero" unicode="0" horiz-adv-x="1394" 
d="M604 -18q-207 0 -329.5 140t-122.5 390q0 278 95.5 517t265 382t372.5 143q205 0 328 -140t124 -390q-1 -278 -96.5 -517t-264.5 -382t-372 -143zM866 1350q-133 0 -246 -119.5t-176 -308.5t-63 -394q0 -165 64 -253.5t178 -88.5q133 0 246 119.5t176 308.5t63 394
q0 165 -65 253.5t-177 88.5z" />
    <glyph glyph-name="one" unicode="1" horiz-adv-x="790" 
d="M270 0l199 1141h-287l23 137q140 11 241 77.5t142 180.5h174l-273 -1536h-219z" />
    <glyph glyph-name="two" unicode="2" horiz-adv-x="1146" 
d="M1040 207l-36 -207h-992l33 180l416 365q239 209 301 271q134 132 165 231q13 41 13 83q0 101 -64 160.5t-171 59.5t-194.5 -66.5t-129.5 -198.5l-217 54q68 203 220.5 309t342.5 106q198 0 320 -109t122 -290q0 -69 -21 -133t-58 -123.5t-109.5 -136.5t-151.5 -150
t-208 -184l-252 -221h671z" />
    <glyph glyph-name="three" unicode="3" horiz-adv-x="1228" 
d="M559 -18q-214 0 -348.5 113t-149.5 317l220 55q3 -141 81 -209t207 -68q146 0 237 76t91 199q0 101 -63 163t-181 62h-133l35 205h127q138 0 219.5 68.5t81.5 177.5q0 98 -62.5 153.5t-170.5 55.5q-107 0 -192.5 -57t-127.5 -175l-211 58q46 125 131.5 211.5t190.5 126.5
t227 40q202 0 322 -107.5t120 -277.5q0 -129 -74 -225t-210 -149q96 -45 147 -133t51 -199q0 -203 -156.5 -342t-408.5 -139z" />
    <glyph glyph-name="four" unicode="4" horiz-adv-x="1255" 
d="M698 0l62 350h-742l35 182l854 1004h275l-174 -983h215l-37 -203h-215l-62 -350h-211zM303 553h494l127 727z" />
    <glyph glyph-name="five" unicode="5" 
d="M549 -18q-197 0 -328 102t-151 293l217 53q10 -119 85 -180.5t189 -61.5q152 0 251 97.5t99 244.5q0 126 -74 200.5t-200 74.5q-167 0 -270 -119l-177 55l267 795h786l-37 -201h-608l-135 -387q95 49 225 49q204 0 327.5 -123.5t123.5 -324.5q0 -115 -43 -218.5
t-119 -181t-187 -122.5t-241 -45z" />
    <glyph glyph-name="six" unicode="6" horiz-adv-x="1200" 
d="M537 -18q-213 0 -343.5 120t-130.5 320q0 227 185 438l577 676h269l-484 -551q40 6 80 6q198 0 324.5 -118.5t126.5 -323.5q0 -153 -78.5 -283t-218 -207t-307.5 -77zM551 188q155 0 259.5 107.5t104.5 253.5q0 117 -71.5 186.5t-188.5 69.5q-155 0 -260.5 -110.5
t-105.5 -254.5q0 -112 71 -182t191 -70z" />
    <glyph glyph-name="seven" unicode="7" horiz-adv-x="1079" 
d="M61 0l869 1333h-735l34 203h983l-34 -188l-875 -1348h-242z" />
    <glyph glyph-name="eight" unicode="8" horiz-adv-x="1296" 
d="M580 -18q-224 0 -362 108t-138 295q0 159 104 277t273 165q-81 43 -125.5 115t-44.5 164q0 187 155 317.5t385 130.5q193 0 313 -100t120 -264q0 -121 -80.5 -222t-218.5 -155q108 -40 170.5 -129t62.5 -205q0 -139 -77.5 -252.5t-218.5 -179t-318 -65.5zM504 1102
q0 -93 62 -146t165 -53q131 0 220 77.5t89 184.5q0 90 -63 144.5t-166 54.5q-133 0 -220 -75.5t-87 -186.5zM313 412q0 -107 77 -168.5t202 -61.5q159 0 265 85t106 218q0 108 -78 172t-201 64q-158 0 -264.5 -88t-106.5 -221z" />
    <glyph glyph-name="nine" unicode="9" horiz-adv-x="1200" 
d="M758 1554q213 0 343 -120t130 -320q0 -228 -184 -438l-578 -676h-268l483 551q-41 -6 -80 -6q-198 0 -324 118.5t-126 323.5q0 153 78.5 283t218 207t307.5 77zM743 1348q-155 0 -259.5 -107.5t-104.5 -253.5q0 -117 71.5 -186.5t188.5 -69.5q155 0 261 110.5t106 254.5
q0 112 -71.5 182t-191.5 70z" />
    <glyph glyph-name="colon" unicode=":" horiz-adv-x="507" 
d="M315 711q-65 0 -106 39.5t-41 103.5q0 63 41 103t106 40t106.5 -40t41.5 -103q0 -64 -41.5 -103.5t-106.5 -39.5zM188 -16q-65 0 -106 39.5t-41 103.5q0 63 41 103t106 40t106.5 -40t41.5 -103q0 -64 -41.5 -103.5t-106.5 -39.5z" />
    <glyph glyph-name="semicolon" unicode=";" horiz-adv-x="507" 
d="M317 713q-65 0 -106 39.5t-41 103.5q0 63 41 103t106 40t106.5 -40t41.5 -103q0 -64 -41.5 -103.5t-106.5 -39.5zM86 -317h-174l201 553h254z" />
    <glyph glyph-name="question" unicode="?" horiz-adv-x="1124" 
d="M735 1554q206 0 325.5 -102t119.5 -272q0 -78 -28 -142.5t-74 -109.5t-101.5 -84t-113 -72.5t-106.5 -66t-84 -74.5t-44 -90l-13 -60h-215l13 66q13 73 49.5 133t85 100.5t103.5 75.5t108 66t96 64t69.5 77.5t26.5 97.5q0 91 -63.5 144t-173.5 53q-118 0 -204 -59
t-128 -179l-209 58q64 184 214.5 280t346.5 96zM469 -16q-65 0 -106 39.5t-41 103.5q0 63 41 103t106 40t106 -40t41 -103q0 -64 -41 -103.5t-106 -39.5z" />
    <glyph glyph-name="at" unicode="@" horiz-adv-x="1933" 
d="M508 436q0 139 59 261.5t170.5 200t251.5 77.5q172 0 254 -141l29 124h182l-111 -622q-9 -50 16.5 -80.5t70.5 -30.5q101 0 171 124t70 298q0 254 -164 409.5t-438 155.5q-223 0 -405 -105t-285 -286.5t-103 -400.5q0 -270 166.5 -429t446.5 -159q184 0 342 76l49 -135
q-198 -88 -408 -88q-341 0 -546 202t-205 527q0 157 46 301t132.5 260t203 202t264 132.5t308.5 46.5q226 0 398 -89.5t264 -248t92 -361.5q0 -157 -52 -290.5t-154 -217t-234 -83.5q-92 0 -149.5 37.5t-78.5 103.5q-122 -152 -307 -152q-164 0 -255 104t-91 277zM711 442
q0 -99 48.5 -156t137.5 -57q123 0 207 108.5t84 254.5q0 96 -50.5 153.5t-140.5 57.5q-121 0 -203.5 -106.5t-82.5 -254.5z" />
    <glyph glyph-name="A" unicode="A" horiz-adv-x="1466" 
d="M-63 0l868 1536h250l301 -1536h-230l-88 479h-596l-266 -479h-239zM559 690h440l-108 598z" />
    <glyph glyph-name="B" unicode="B" horiz-adv-x="1411" 
d="M123 0l270 1536h568q177 0 285 -104.5t108 -268.5q0 -129 -77 -227t-208 -143q112 -41 171.5 -129.5t59.5 -210.5q0 -198 -150.5 -325.5t-401.5 -127.5h-625zM918 1343h-332l-80 -454h340q126 0 202 69t76 179q0 92 -54 149t-152 57zM836 694h-363l-88 -501h365
q149 0 236 75t87 195q0 103 -63.5 167t-173.5 64z" />
    <glyph glyph-name="C" unicode="C" horiz-adv-x="1611" 
d="M805 190q179 0 317 102.5t199 270.5l217 -67q-88 -238 -290 -376t-464 -138q-194 0 -338.5 82t-220 228t-75.5 337q0 114 28 227.5t80 216t130 191t172.5 153t214 101t249.5 36.5q257 0 410.5 -139.5t177.5 -376.5l-223 -59q-14 169 -111.5 268t-273.5 99
q-174 0 -317.5 -97.5t-222.5 -257.5t-79 -346q0 -211 112.5 -333t307.5 -122z" />
    <glyph glyph-name="D" unicode="D" horiz-adv-x="1574" 
d="M123 0l270 1536h447q318 0 500 -177t182 -476q0 -184 -68 -347t-187.5 -281t-291 -186.5t-369.5 -68.5h-483zM834 1325h-248l-197 -1114h240q189 0 340 85.5t235 236t84 337.5q0 218 -119.5 336.5t-334.5 118.5z" />
    <glyph glyph-name="E" unicode="E" horiz-adv-x="1282" 
d="M123 0l270 1536h983l-37 -205h-751l-76 -422h530l-36 -207h-529l-88 -495h774l-37 -207h-1003z" />
    <glyph glyph-name="F" unicode="F" 
d="M123 0l270 1536h959l-35 -205h-729l-80 -459h534l-38 -206h-533l-119 -666h-229z" />
    <glyph glyph-name="G" unicode="G" horiz-adv-x="1677" 
d="M805 -20q-306 0 -481 176t-177 469q-1 140 38.5 276t117 253t183 207t246 141.5t296.5 51.5q248 0 400.5 -129.5t185.5 -347.5l-225 -57q-15 146 -114.5 236t-262.5 90q-136 0 -254.5 -56.5t-200 -151t-128 -221.5t-46.5 -266q2 -219 116.5 -341t321.5 -122
q205 0 346 109.5t183 288.5h-611l35 200h846l-18 -110q-55 -319 -264.5 -507.5t-532.5 -188.5z" />
    <glyph glyph-name="H" unicode="H" horiz-adv-x="1693" 
d="M123 0l270 1536h230l-109 -616h811l109 616h229l-270 -1536h-230l125 707h-811l-125 -707h-229z" />
    <glyph glyph-name="I" unicode="I" horiz-adv-x="653" 
d="M125 0l270 1536h230l-271 -1536h-229z" />
    <glyph glyph-name="J" unicode="J" horiz-adv-x="1245" 
d="M483 -18q-215 0 -337.5 107t-133.5 292l219 57q-3 -117 65.5 -182.5t197.5 -65.5q136 0 220.5 74.5t106.5 204.5l152 856h-672l39 211h897l-186 -1069q-41 -234 -191.5 -359.5t-376.5 -125.5z" />
    <glyph glyph-name="K" unicode="K" horiz-adv-x="1478" 
d="M477 698l-125 -698h-229l270 1536h230l-109 -623h221l617 623h282l-729 -739l463 -797h-254l-409 698h-228z" />
    <glyph glyph-name="L" unicode="L" horiz-adv-x="1234" 
d="M123 0l270 1536h230l-234 -1325h758l-37 -211h-987z" />
    <glyph glyph-name="M" unicode="M" horiz-adv-x="1921" 
d="M123 0l270 1536h240l385 -659l610 659h264l-272 -1536h-219l217 1239l-614 -659h-52l-389 661l-221 -1241h-219z" />
    <glyph glyph-name="N" unicode="N" horiz-adv-x="1677" 
d="M123 0l270 1536h246l575 -1231l218 1231h217l-271 -1536h-245l-576 1233l-217 -1233h-217z" />
    <glyph glyph-name="O" unicode="O" horiz-adv-x="1732" 
d="M1034 1554q301 0 472 -177.5t171 -469.5q0 -140 -40 -275.5t-117.5 -252t-183 -206t-247 -140.5t-298.5 -51q-199 0 -344.5 82t-220 227.5t-74.5 337.5q0 116 28.5 230.5t80.5 217t131 190t174.5 151.5t216 100t251.5 36zM1012 1346q-176 0 -320.5 -96.5t-224.5 -256
t-80 -344.5q0 -214 112 -336.5t314 -122.5q177 0 322.5 96.5t226 256t80.5 344.5q0 214 -113 336.5t-317 122.5z" />
    <glyph glyph-name="P" unicode="P" horiz-adv-x="1392" 
d="M123 0l270 1536h568q213 0 335.5 -120.5t122.5 -319.5q0 -102 -38.5 -195t-110.5 -166.5t-187 -117.5t-256 -44h-374l-101 -573h-229zM928 1331h-342l-97 -551h353q157 0 249.5 84t92.5 217q0 117 -67 183.5t-189 66.5z" />
    <glyph glyph-name="Q" unicode="Q" horiz-adv-x="1732" 
d="M1034 1554q301 0 472 -177.5t171 -469.5q0 -239 -114 -454.5t-314 -341.5l158 -236l-176 -117l-176 262q-125 -38 -264 -38q-199 0 -344.5 82t-220 227.5t-74.5 337.5q0 116 28.5 230.5t80.5 217t131 190t174.5 151.5t216 100t251.5 36zM686 575l178 117l271 -405
q142 93 224.5 253.5t82.5 346.5q0 214 -113 336.5t-317 122.5q-176 0 -320.5 -96.5t-224.5 -256t-80 -344.5q0 -214 112 -336.5t314 -122.5q58 0 121 13z" />
    <glyph glyph-name="R" unicode="R" horiz-adv-x="1445" 
d="M123 0l270 1536h555q204 0 323.5 -117t119.5 -303q0 -164 -102 -289t-288 -170l320 -657h-250l-305 627h-303l-111 -627h-229zM918 1331h-332l-88 -500h340q151 0 234 74.5t83 198.5q0 105 -61.5 166t-175.5 61z" />
    <glyph glyph-name="S" unicode="S" horiz-adv-x="1290" 
d="M1341 1139l-225 -56q-8 126 -91 199.5t-228 73.5q-142 0 -229 -68.5t-87 -171.5q0 -50 24.5 -89t66 -64.5t95.5 -46.5t114 -41t119.5 -41.5t113.5 -54t95.5 -74t66 -105t24.5 -143.5q0 -100 -39.5 -186.5t-112.5 -150.5t-183 -101t-244 -37q-263 0 -412.5 129.5
t-167.5 345.5l233 49q3 -156 97 -241t260 -85q152 0 242 73.5t90 184.5q0 52 -24.5 92t-66 66t-95.5 47t-114 40t-119.5 40t-113.5 52.5t-95.5 72.5t-66 103.5t-24.5 142.5q0 205 161 332.5t412 127.5q221 0 360 -109t164 -306z" />
    <glyph glyph-name="T" unicode="T" horiz-adv-x="1273" 
d="M434 0l234 1325h-480l39 211h1184l-37 -211h-477l-233 -1325h-230z" />
    <glyph glyph-name="U" unicode="U" horiz-adv-x="1560" 
d="M741 190q164 0 272 93t140 268l172 985h229l-170 -981q-51 -274 -225.5 -423.5t-439.5 -149.5q-279 0 -422.5 162.5t-93.5 441.5l166 950h229l-168 -965q-32 -177 52.5 -279t258.5 -102z" />
    <glyph glyph-name="V" unicode="V" horiz-adv-x="1435" 
d="M215 1536h234l180 -1290l710 1290h246l-852 -1536h-293z" />
    <glyph glyph-name="W" unicode="W" horiz-adv-x="1968" 
d="M1042 1087h56l250 -811l510 1260h235l-623 -1536h-249l-215 684l-451 -684h-250l-63 1536h225l55 -1239z" />
    <glyph glyph-name="X" unicode="X" horiz-adv-x="1396" 
d="M471 1536l311 -588l494 588h264l-659 -776l401 -760h-254l-319 608l-516 -608h-261l672 805l-385 731h252z" />
    <glyph glyph-name="Y" unicode="Y" horiz-adv-x="1374" 
d="M481 0l117 666l-405 870h239l309 -668l543 668h262l-721 -883l-114 -653h-230z" />
    <glyph glyph-name="Z" unicode="Z" horiz-adv-x="1277" 
d="M264 1536h1145l-10 -66l-1051 -1259h817l-39 -211h-1165l12 66l1051 1259h-797z" />
    <glyph glyph-name="bracketleft" unicode="[" horiz-adv-x="800" 
d="M61 -354l349 1972h528l-35 -193h-317l-281 -1587h318l-33 -192h-529z" />
    <glyph glyph-name="bracketright" unicode="]" horiz-adv-x="800" 
d="M786 1618l-348 -1972h-528l35 192h317l281 1587h-318l33 193h528z" />
    <glyph glyph-name="a" unicode="a" horiz-adv-x="1275" 
d="M498 -18q-193 0 -308.5 123t-115.5 323q0 156 72.5 294.5t208.5 226t304 87.5q218 0 318 -170l39 152h194l-178 -1018h-192l14 143q-140 -161 -356 -161zM545 170q159 0 261.5 119t102.5 280q0 129 -65.5 204t-188.5 75q-105 0 -191 -57t-132.5 -149t-46.5 -198
q0 -125 68.5 -199.5t191.5 -74.5z" />
    <glyph glyph-name="b" unicode="b" horiz-adv-x="1275" 
d="M68 0l270 1536h211l-119 -668q144 168 356 168q192 0 307 -123t115 -323q0 -116 -43.5 -226t-119 -194.5t-188 -136t-241.5 -51.5q-223 0 -315 178l-43 -160h-190zM735 848q-107 0 -193 -58t-131.5 -149t-45.5 -192q0 -128 67.5 -203.5t188.5 -75.5q108 0 195 57
t133 148.5t46 197.5q0 126 -68 200.5t-192 74.5z" />
    <glyph glyph-name="c" unicode="c" horiz-adv-x="1122" 
d="M543 170q105 0 181 55.5t114 153.5l198 -53q-59 -159 -194 -251.5t-320 -92.5q-210 0 -330 121.5t-120 324.5q0 117 43.5 227t119 194.5t187.5 135.5t240 51q183 0 293 -99.5t128 -268.5l-206 -43q-8 103 -68.5 163t-163.5 60q-102 0 -186 -57.5t-129 -149t-45 -195.5
q0 -127 67.5 -201.5t190.5 -74.5z" />
    <glyph glyph-name="d" unicode="d" horiz-adv-x="1275" 
d="M502 -18q-195 0 -310.5 123t-115.5 323q0 116 43.5 226t119.5 194.5t187 136t238 51.5q219 0 313 -162l115 662h211l-271 -1536h-192l16 143q-137 -161 -354 -161zM549 170q106 0 191.5 56.5t131.5 147.5t46 195q0 129 -67 204t-192 75q-106 0 -192.5 -57t-133 -149
t-46.5 -198q0 -125 69 -199.5t193 -74.5z" />
    <glyph glyph-name="e" unicode="e" horiz-adv-x="1165" 
d="M1014 252q-57 -126 -186 -198t-300 -72q-214 0 -334 123t-120 329q0 157 73.5 294t211.5 222.5t309 85.5q201 0 318.5 -114t117.5 -304q0 -82 -29 -165h-792q2 -134 70.5 -211.5t195.5 -77.5q101 0 174 42t108 113zM651 858q-121 0 -212 -69t-132 -181h586q2 12 2 33
q0 98 -67 157.5t-177 59.5z" />
    <glyph glyph-name="f" unicode="f" horiz-adv-x="870" 
d="M913 834h-372l-146 -834h-213l148 834h-260l10 61l119 123h163l29 168q31 178 146 273t274 95q103 0 180 -38l-76 -175q-46 19 -98 19q-85 0 -142.5 -47t-74.5 -139l-27 -156h371z" />
    <glyph glyph-name="g" unicode="g" horiz-adv-x="1263" 
d="M502 -4q-192 0 -309 122.5t-117 317.5q0 92 27 180.5t78 163.5t120 133t160 90.5t190 32.5q223 0 320 -168l33 150h194l-178 -1024q-38 -220 -181.5 -341.5t-361.5 -121.5q-193 0 -311 92t-139 248l202 47q6 -93 71 -147t181 -54q133 0 221.5 74t114.5 221l23 135
q-134 -151 -338 -151zM549 184q157 0 257.5 117t100.5 274q0 126 -64 199.5t-184 73.5q-159 0 -262.5 -117t-103.5 -278q0 -122 67.5 -195.5t188.5 -73.5z" />
    <glyph glyph-name="h" unicode="h" 
d="M68 0l270 1536h213l-111 -629q132 129 310 129q180 0 279.5 -122t62.5 -330l-103 -584h-213l103 578q23 126 -32.5 194t-166.5 68q-110 0 -193 -69t-106 -193l-100 -578h-213z" />
    <glyph glyph-name="i" unicode="i" horiz-adv-x="522" 
d="M276 1350q0 58 38.5 95.5t97.5 37.5t97 -37.5t38 -95.5q0 -59 -38.5 -97.5t-96.5 -38.5t-97 39t-39 97zM68 0l180 1018h211l-178 -1018h-213z" />
    <glyph glyph-name="j" unicode="j" horiz-adv-x="522" 
d="M276 1350q0 58 38.5 95.5t97.5 37.5t97 -37.5t38 -95.5q0 -59 -38.5 -97.5t-96.5 -38.5t-97 39t-39 97zM246 1018h211l-207 -1186q-27 -152 -117 -226.5t-233 -74.5q-87 0 -154 29l53 174q54 -15 86 -15q66 0 105.5 35t50.5 99z" />
    <glyph glyph-name="k" unicode="k" horiz-adv-x="1105" 
d="M909 1018h265l-490 -473l328 -545h-236l-278 459h-136l-81 -459h-213l270 1536h213l-156 -879h144z" />
    <glyph glyph-name="l" unicode="l" horiz-adv-x="522" 
d="M68 0l270 1536h213l-270 -1536h-213z" />
    <glyph glyph-name="m" unicode="m" horiz-adv-x="1769" 
d="M68 0l178 1018h186l-8 -113q125 131 297 131q89 0 161.5 -42.5t114.5 -131.5q135 174 349 174q79 0 143.5 -29t107.5 -84t59.5 -135t-1.5 -182l-107 -606h-211l107 606q20 114 -26.5 177t-139.5 63q-100 0 -170.5 -68.5t-91.5 -195.5l-105 -582h-211l107 606
q21 114 -25.5 177t-138.5 63q-96 0 -167.5 -64t-92.5 -182l-104 -600h-211z" />
    <glyph glyph-name="n" unicode="n" horiz-adv-x="1206" 
d="M68 0l180 1018h188l-6 -119q128 137 320 137q179 0 278 -122t62 -330l-103 -584h-211l101 578q23 126 -32.5 194t-166.5 68q-110 0 -192 -69t-105 -193l-100 -578h-213z" />
    <glyph glyph-name="o" unicode="o" horiz-adv-x="1204" 
d="M674 1036q215 0 339 -122.5t124 -323.5q0 -116 -44 -226t-120.5 -194.5t-191 -136t-246.5 -51.5q-215 0 -339 122.5t-124 323.5q0 117 44.5 227t121.5 194.5t191.5 135.5t244.5 51zM657 848q-105 0 -191.5 -56.5t-133.5 -148t-47 -194.5q0 -128 69.5 -203.5t196.5 -75.5
q106 0 192.5 56.5t133.5 147.5t47 195q0 129 -69.5 204t-197.5 75z" />
    <glyph glyph-name="p" unicode="p" horiz-adv-x="1277" 
d="M248 1018h190l-12 -146q142 164 360 164q191 0 306.5 -123.5t115.5 -322.5q0 -116 -43.5 -226t-119 -194.5t-188 -136t-241.5 -51.5q-216 0 -309 168l-106 -601h-213zM735 848q-107 0 -193 -58t-131.5 -149t-45.5 -192q0 -128 67.5 -203.5t188.5 -75.5q108 0 195 57
t133 148.5t46 197.5q0 126 -68 200.5t-192 74.5z" />
    <glyph glyph-name="q" unicode="q" horiz-adv-x="1280" 
d="M500 -18q-194 0 -310 123.5t-116 322.5q0 116 43.5 226t119.5 194.5t187 136t238 51.5q231 0 321 -176l41 158h190l-260 -1469h-211l103 582q-137 -149 -346 -149zM547 170q107 0 192.5 57t130.5 147.5t45 194.5q0 129 -66 204t-190 75q-160 0 -267 -120.5t-107 -283.5
q0 -125 69.5 -199.5t192.5 -74.5z" />
    <glyph glyph-name="r" unicode="r" horiz-adv-x="782" 
d="M68 0l178 1018h198l-12 -125q132 143 322 143q59 0 100 -14l-66 -209q-41 14 -88 14q-120 0 -211.5 -81t-119.5 -236l-90 -510h-211z" />
    <glyph glyph-name="s" unicode="s" horiz-adv-x="946" 
d="M428 -18q-176 0 -287.5 80t-138.5 239l203 43q26 -188 231 -188q94 0 147.5 38t53.5 103q0 23 -10 41.5t-23.5 30.5t-39.5 24t-46 19t-54 18l-4.5 1.5t-4 1t-4.5 1.5l-56 17q-58 18 -99 38t-79.5 51t-58 76.5t-19.5 104.5q0 137 115.5 226t298.5 89q163 0 266 -72
t127 -210l-201 -47q-9 79 -62.5 119t-139.5 40q-88 0 -139.5 -34.5t-51.5 -94.5q0 -36 24.5 -61t49.5 -35.5t83 -29.5q3 -1 4 -1.5t3.5 -1t4 -1t3.5 -1.5l51 -16q46 -14 79.5 -27.5t72.5 -37.5t63.5 -52t41 -70.5t16.5 -95.5q0 -141 -111.5 -233t-308.5 -92z" />
    <glyph glyph-name="t" unicode="t" horiz-adv-x="804" 
d="M88 899l389 301h60l-33 -182h360l-30 -184h-363l-86 -488q-13 -84 21.5 -127t113.5 -43q53 0 129 31l51 -170q-120 -55 -237 -55q-160 0 -241 90.5t-54 246.5l92 515h-184z" />
    <glyph glyph-name="u" unicode="u" horiz-adv-x="1181" 
d="M432 1018l-104 -594q-22 -119 30 -185.5t160 -66.5q106 0 184.5 68t102.5 198l102 580h211l-178 -1018h-180l10 121q-120 -139 -324 -139q-182 0 -274 115t-57 317l106 604h211z" />
    <glyph glyph-name="v" unicode="v" horiz-adv-x="1042" 
d="M305 0l-203 1018h222l141 -770l428 770h229l-581 -1018h-236z" />
    <glyph glyph-name="w" unicode="w" horiz-adv-x="1398" 
d="M131 1018h207l41 -782l336 512h47l162 -515l317 785h211l-412 -1018h-233l-123 401l-266 -401h-234z" />
    <glyph glyph-name="x" unicode="x" horiz-adv-x="1007" 
d="M342 1018l190 -346l293 346h242l-442 -514l276 -504h-231l-203 369l-307 -369h-234l447 541l-262 477h231z" />
    <glyph glyph-name="y" unicode="y" horiz-adv-x="1087" 
d="M102 1018h226l190 -742l416 742h233l-848 -1469h-231l283 486z" />
    <glyph glyph-name="z" unicode="z" horiz-adv-x="935" 
d="M840 184l-33 -184h-846l12 61l664 773h-518l31 184h837l-10 -62l-668 -772h531z" />
    <glyph glyph-name="braceleft" unicode="{" horiz-adv-x="868" 
d="M653 -360h-164q-160 0 -239.5 95t-40.5 261l76 323q52 216 -168 230l30 178q108 5 170.5 53.5t71.5 137.5l39 370q18 163 117.5 246.5t251.5 83.5h204l-32 -193h-148q-80 0 -128.5 -44.5t-55.5 -123.5l-33 -317q-24 -255 -272 -307q108 -28 149.5 -114t10.5 -214
l-74 -295q-21 -85 12.5 -130.5t112.5 -45.5h143z" />
    <glyph glyph-name="braceright" unicode="}" horiz-adv-x="868" 
d="M260 1618h164q160 0 240 -95t41 -261l-76 -324q-52 -215 168 -229l-31 -179q-108 -5 -170.5 -53t-71.5 -137l-39 -371q-18 -163 -117 -246t-251 -83h-205l33 192h147q80 0 128.5 44.5t55.5 123.5l33 317q24 256 273 308q-108 28 -149.5 113.5t-10.5 213.5l74 295
q21 85 -12.5 130.5t-112.5 45.5h-144z" />
    <glyph glyph-name="exclamdown" unicode="&#xa1;" horiz-adv-x="708" 
d="M420 1032q65 0 106 -39.5t41 -103.5q0 -63 -41.5 -103.5t-105.5 -40.5q-65 0 -106.5 40.5t-41.5 103.5q0 64 41.5 103.5t106.5 39.5zM297 -520h-248l217 1055h183z" />
    <glyph glyph-name="questiondown" unicode="&#xbf;" horiz-adv-x="1124" 
d="M659 1032q65 0 106.5 -39.5t41.5 -103.5q0 -63 -41.5 -103.5t-106.5 -40.5q-64 0 -105.5 40.5t-41.5 103.5q0 64 41 103.5t106 39.5zM393 -539q-205 0 -324.5 102.5t-119.5 272.5q0 78 28 142.5t74 109.5t101.5 84t113 72.5t106.5 66t84 74.5t44 90l12 60h215l-12 -66
q-13 -73 -49.5 -133t-85 -100.5t-104 -75.5t-108.5 -66t-96 -64t-69.5 -77.5t-26.5 -97.5q0 -91 64 -144t174 -53q118 0 203.5 59t127.5 179l209 -58q-64 -185 -214.5 -281t-346.5 -96z" />
    <glyph glyph-name="uni0400" unicode="&#x400;" horiz-adv-x="1282" 
d="M645 1915h254l154 -277h-179zM123 0l270 1536h983l-37 -205h-751l-76 -422h530l-36 -207h-529l-88 -495h774l-37 -207h-1003z" />
    <glyph glyph-name="afii10023" unicode="&#x401;" horiz-adv-x="1282" 
d="M762 1677q-52 0 -88.5 36.5t-36.5 88.5q0 54 36 89.5t89 35.5t89 -35.5t36 -89.5q0 -52 -36.5 -88.5t-88.5 -36.5zM1149 1677q-53 0 -89 36.5t-36 88.5q0 54 36 89.5t89 35.5t88 -35.5t35 -89.5q0 -53 -35.5 -89t-87.5 -36zM123 0l270 1536h983l-37 -205h-751l-76 -422
h530l-36 -207h-529l-88 -495h774l-37 -207h-1003z" />
    <glyph glyph-name="afii10051" unicode="&#x402;" horiz-adv-x="1792" 
d="M434 0l234 1325h-480l39 211h1184l-37 -211h-477l-80 -455q85 71 196.5 109.5t229.5 38.5q227 0 343 -135.5t77 -364.5l-41 -227q-26 -150 -111 -229.5t-247 -79.5q-100 0 -174 32l55 189q43 -15 82 -15q80 0 121 34.5t53 105.5l33 196q23 135 -44 213t-208 78
q-129 0 -241 -57.5t-173 -167.5l-104 -590h-230z" />
    <glyph glyph-name="afii10052" unicode="&#x403;" horiz-adv-x="1198" 
d="M1047 1915h258l-312 -277h-194zM123 0l270 1536h957l-37 -211h-727l-234 -1325h-229z" />
    <glyph glyph-name="afii10053" unicode="&#x404;" horiz-adv-x="1611" 
d="M805 190q179 0 317 102.5t199 270.5l217 -67q-88 -238 -290 -376t-464 -138q-194 0 -338.5 82t-220 228t-75.5 337q0 114 28 227.5t80 216t130 191t172.5 153t214 101t249.5 36.5q257 0 410.5 -139.5t177.5 -376.5l-223 -59q-14 169 -111.5 268t-273.5 99
q-204 0 -359.5 -128t-222.5 -331h567l-37 -209h-567v-33q0 -211 112.5 -333t307.5 -122z" />
    <glyph glyph-name="afii10054" unicode="&#x405;" horiz-adv-x="1290" 
d="M1341 1139l-225 -56q-8 126 -91 199.5t-228 73.5q-142 0 -229 -68.5t-87 -171.5q0 -50 24.5 -89t66 -64.5t95.5 -46.5t114 -41t119.5 -41.5t113.5 -54t95.5 -74t66 -105t24.5 -143.5q0 -100 -39.5 -186.5t-112.5 -150.5t-183 -101t-244 -37q-263 0 -412.5 129.5
t-167.5 345.5l233 49q3 -156 97 -241t260 -85q152 0 242 73.5t90 184.5q0 52 -24.5 92t-66 66t-95.5 47t-114 40t-119.5 40t-113.5 52.5t-95.5 72.5t-66 103.5t-24.5 142.5q0 205 161 332.5t412 127.5q221 0 360 -109t164 -306z" />
    <glyph glyph-name="afii10055" unicode="&#x406;" horiz-adv-x="653" 
d="M125 0l270 1536h230l-271 -1536h-229z" />
    <glyph glyph-name="afii10056" unicode="&#x407;" horiz-adv-x="653" 
d="M735 1927q45 0 70.5 -27t25.5 -73q0 -59 -37 -105.5t-92 -46.5q-45 0 -70.5 28t-25.5 73q0 59 37 105t92 46zM412 1927q44 0 70 -27t26 -73q0 -59 -37 -105.5t-92 -46.5q-45 0 -71.5 28t-26.5 73q0 59 37.5 105t93.5 46zM125 0l270 1536h230l-271 -1536h-229z" />
    <glyph glyph-name="afii10057" unicode="&#x408;" horiz-adv-x="1245" 
d="M483 -18q-215 0 -337.5 107t-133.5 292l219 57q-3 -117 65.5 -182.5t197.5 -65.5q136 0 220.5 74.5t106.5 204.5l152 856h-672l39 211h897l-186 -1069q-41 -234 -191.5 -359.5t-376.5 -125.5z" />
    <glyph glyph-name="afii10058" unicode="&#x409;" horiz-adv-x="2242" 
d="M-4 201q24 -6 47 -6q46 0 81 18t76 75t78.5 160t82.5 276.5t94 420.5l77 391h973l-92 -522h281q218 0 349.5 -131.5t131.5 -335.5q0 -114 -42 -214t-118.5 -174t-191.5 -116.5t-254 -42.5h-563l233 1325h-524l-60 -283q-53 -263 -107 -450t-106.5 -305.5t-113.5 -186.5
t-121 -93t-137 -25q-80 0 -127 26zM1665 805h-289l-104 -594h317q164 0 258.5 90.5t94.5 235.5q0 123 -73.5 195.5t-203.5 72.5z" />
    <glyph glyph-name="afii10059" unicode="&#x40a;" horiz-adv-x="2326" 
d="M123 0l270 1536h230l-105 -596h711l104 596h230l-105 -596h332q206 0 334.5 -121t128.5 -313q0 -223 -156 -364.5t-414 -141.5h-620l129 729h-711l-129 -729h-229zM1772 733h-351l-92 -526h363q154 0 241.5 81.5t87.5 211.5q0 106 -65.5 169.5t-183.5 63.5z" />
    <glyph glyph-name="afii10060" unicode="&#x40b;" horiz-adv-x="1792" 
d="M434 0l234 1325h-480l39 211h1184l-37 -211h-477l-80 -453q85 69 195.5 107.5t228.5 38.5q221 0 337 -141.5t75 -374.5l-88 -502h-232l90 508q26 141 -43.5 224t-208.5 83q-125 0 -233.5 -57t-169.5 -166l-104 -592h-230z" />
    <glyph glyph-name="afii10061" unicode="&#x40c;" horiz-adv-x="1478" 
d="M1120 1915h258l-311 -277h-195zM477 698l-125 -698h-229l270 1536h230l-109 -623h221l617 623h282l-729 -739l463 -797h-254l-409 698h-228z" />
    <glyph glyph-name="uni040D" unicode="&#x40d;" horiz-adv-x="1671" 
d="M737 1915h254l154 -277h-178zM123 0l270 1536h223l-208 -1178l1022 1178h212l-272 -1536h-221l207 1176l-1020 -1176h-213z" />
    <glyph glyph-name="afii10062" unicode="&#x40e;" horiz-adv-x="1366" 
d="M895 1792q71 0 121.5 35.5t62.5 103.5h191q-29 -138 -132 -216.5t-251 -78.5q-158 0 -244 82t-72 213h185q-12 -66 27 -102.5t112 -36.5zM313 0l256 401l-381 1135h242l293 -893l569 893h250l-983 -1536h-246z" />
    <glyph glyph-name="afii10145" unicode="&#x40f;" horiz-adv-x="1634" 
d="M123 0l270 1536h230l-234 -1325h754l233 1325h230l-271 -1536h-495l-66 -369h-221l65 369h-495z" />
    <glyph glyph-name="afii10017" unicode="&#x410;" horiz-adv-x="1466" 
d="M-63 0l868 1536h250l301 -1536h-230l-88 479h-596l-266 -479h-239zM559 690h440l-108 598z" />
    <glyph glyph-name="afii10018" unicode="&#x411;" horiz-adv-x="1396" 
d="M123 0l270 1536h987l-37 -211h-757l-70 -391h352q213 0 335 -120t122 -308q0 -143 -69 -257t-203.5 -181.5t-313.5 -67.5h-616zM840 735h-359l-94 -536h369q156 0 245 82.5t89 212.5q0 111 -66 176t-184 65z" />
    <glyph glyph-name="afii10019" unicode="&#x412;" horiz-adv-x="1439" 
d="M123 0l270 1536h606q176 0 283 -106t107 -269q0 -131 -73 -229t-200 -146q103 -43 159 -129.5t56 -203.5q0 -198 -151.5 -325.5t-403.5 -127.5h-653zM952 1343h-366l-80 -454h373q127 0 203.5 68t76.5 178q0 92 -54.5 150t-152.5 58zM866 694h-393l-88 -501h393
q150 0 236 74.5t86 195.5q0 103 -63 167t-171 64z" />
    <glyph glyph-name="afii10020" unicode="&#x413;" horiz-adv-x="1198" 
d="M123 0l270 1536h957l-37 -211h-727l-234 -1325h-229z" />
    <glyph glyph-name="afii10021" unicode="&#x414;" horiz-adv-x="1624" 
d="M-139 -369l102 580h137q114 106 187 304.5t164 647.5l73 373h1032l-235 -1325h197l-103 -580h-219l66 369h-1115l-65 -369h-221zM666 1114q-74 -368 -145.5 -576t-170.5 -327h746l196 1114h-583z" />
    <glyph glyph-name="afii10022" unicode="&#x415;" horiz-adv-x="1282" 
d="M123 0l270 1536h983l-37 -205h-751l-76 -422h530l-36 -207h-529l-88 -495h774l-37 -207h-1003z" />
    <glyph glyph-name="afii10024" unicode="&#x416;" horiz-adv-x="2062" 
d="M1325 1536l-111 -625h189l549 625h266l-647 -735l387 -801h-250l-336 698h-194l-123 -698h-226l123 698h-186l-582 -698h-256l668 815l-387 721h242l333 -625h205l111 625h225z" />
    <glyph glyph-name="afii10025" unicode="&#x417;" horiz-adv-x="1368" 
d="M627 -18q-245 0 -398.5 112t-171.5 334l226 57q9 -154 101.5 -227.5t256.5 -73.5q171 0 274 74.5t103 208.5q0 103 -62.5 161t-191.5 58h-223l39 209h208q149 0 230.5 64t81.5 171q0 104 -74.5 165t-206.5 61q-86 0 -160.5 -25.5t-136.5 -84.5t-94 -146l-219 57
q49 131 145.5 222t219 133t266.5 42q231 0 363 -111t132 -286q0 -135 -80.5 -231t-228.5 -140q112 -36 170.5 -120.5t58.5 -202.5q0 -209 -173 -345t-455 -136z" />
    <glyph glyph-name="afii10026" unicode="&#x418;" horiz-adv-x="1671" 
d="M123 0l270 1536h223l-208 -1178l1022 1178h212l-272 -1536h-221l207 1176l-1020 -1176h-213z" />
    <glyph glyph-name="afii10027" unicode="&#x419;" horiz-adv-x="1671" 
d="M1057 1792q70 0 120 35.5t62 103.5h191q-29 -138 -132 -216.5t-249 -78.5q-159 0 -245 82t-71 213h182q-12 -66 28 -102.5t114 -36.5zM123 0l270 1536h223l-208 -1178l1022 1178h212l-272 -1536h-221l207 1176l-1020 -1176h-213z" />
    <glyph glyph-name="afii10028" unicode="&#x41a;" horiz-adv-x="1478" 
d="M477 698l-125 -698h-229l270 1536h230l-109 -623h221l617 623h282l-729 -739l463 -797h-254l-409 698h-228z" />
    <glyph glyph-name="afii10029" unicode="&#x41b;" horiz-adv-x="1613" 
d="M-4 201q24 -6 47 -6q46 0 81 18t76 75t78.5 160t82.5 276.5t94 420.5l77 391h1053l-270 -1536h-230l234 1325h-602l-58 -283q-54 -262 -108 -449t-106.5 -305.5t-113 -186.5t-120.5 -93.5t-137 -25.5q-84 0 -131 26z" />
    <glyph glyph-name="afii10030" unicode="&#x41c;" horiz-adv-x="1921" 
d="M123 0l270 1536h240l385 -659l610 659h264l-272 -1536h-219l217 1239l-614 -659h-52l-389 661l-221 -1241h-219z" />
    <glyph glyph-name="afii10031" unicode="&#x41d;" horiz-adv-x="1693" 
d="M123 0l270 1536h230l-109 -616h811l109 616h229l-270 -1536h-230l125 707h-811l-125 -707h-229z" />
    <glyph glyph-name="afii10032" unicode="&#x41e;" horiz-adv-x="1732" 
d="M1034 1554q301 0 472 -177.5t171 -469.5q0 -140 -40 -275.5t-117.5 -252t-183 -206t-247 -140.5t-298.5 -51q-199 0 -344.5 82t-220 227.5t-74.5 337.5q0 116 28.5 230.5t80.5 217t131 190t174.5 151.5t216 100t251.5 36zM1012 1346q-176 0 -320.5 -96.5t-224.5 -256
t-80 -344.5q0 -214 112 -336.5t314 -122.5q177 0 322.5 96.5t226 256t80.5 344.5q0 214 -113 336.5t-317 122.5z" />
    <glyph glyph-name="afii10033" unicode="&#x41f;" horiz-adv-x="1665" 
d="M123 0l270 1536h1243l-270 -1536h-229l233 1325h-784l-234 -1325h-229z" />
    <glyph glyph-name="afii10034" unicode="&#x420;" horiz-adv-x="1392" 
d="M123 0l270 1536h568q213 0 335.5 -120.5t122.5 -319.5q0 -102 -38.5 -195t-110.5 -166.5t-187 -117.5t-256 -44h-374l-101 -573h-229zM928 1331h-342l-97 -551h353q157 0 249.5 84t92.5 217q0 117 -67 183.5t-189 66.5z" />
    <glyph glyph-name="afii10035" unicode="&#x421;" horiz-adv-x="1611" 
d="M805 190q179 0 317 102.5t199 270.5l217 -67q-88 -238 -290 -376t-464 -138q-194 0 -338.5 82t-220 228t-75.5 337q0 114 28 227.5t80 216t130 191t172.5 153t214 101t249.5 36.5q257 0 410.5 -139.5t177.5 -376.5l-223 -59q-14 169 -111.5 268t-273.5 99
q-174 0 -317.5 -97.5t-222.5 -257.5t-79 -346q0 -211 112.5 -333t307.5 -122z" />
    <glyph glyph-name="afii10036" unicode="&#x422;" horiz-adv-x="1273" 
d="M434 0l234 1325h-480l39 211h1184l-37 -211h-477l-233 -1325h-230z" />
    <glyph glyph-name="afii10037" unicode="&#x423;" horiz-adv-x="1366" 
d="M313 0l256 401l-381 1135h242l293 -893l569 893h250l-983 -1536h-246z" />
    <glyph glyph-name="afii10038" unicode="&#x424;" horiz-adv-x="1789" 
d="M684 -35l33 182q-175 4 -310 70.5t-212.5 192t-77.5 292.5q0 151 64 283.5t173.5 226t262 147.5t323.5 54l29 158h229l-29 -158q268 -11 435.5 -160t167.5 -397q0 -152 -64 -285t-174.5 -225.5t-263 -145.5t-324.5 -53l-33 -182h-229zM348 719q0 -176 110 -271.5
t296 -95.5l151 858q-244 -3 -400.5 -142t-156.5 -349zM1540 840q0 174 -109 269.5t-296 98.5l-154 -858q162 1 289.5 64.5t198.5 175t71 250.5z" />
    <glyph glyph-name="afii10039" unicode="&#x425;" horiz-adv-x="1396" 
d="M471 1536l311 -588l494 588h264l-659 -776l401 -760h-254l-319 608l-516 -608h-261l672 805l-385 731h252z" />
    <glyph glyph-name="afii10040" unicode="&#x426;" horiz-adv-x="1667" 
d="M123 0l270 1536h230l-234 -1325h746l233 1325h229l-233 -1325h197l-103 -580h-221l66 369h-1180z" />
    <glyph glyph-name="afii10041" unicode="&#x427;" horiz-adv-x="1486" 
d="M682 569q-258 0 -381.5 130.5t-79.5 392.5l78 444h227l-73 -426q-29 -168 44.5 -247t250.5 -79q160 0 358 68l121 684h229l-270 -1536h-230l113 637q-213 -68 -387 -68z" />
    <glyph glyph-name="afii10042" unicode="&#x428;" horiz-adv-x="2240" 
d="M123 0l270 1536h230l-234 -1325h567l234 1325h227l-231 -1325h565l234 1325h227l-270 -1536h-1819z" />
    <glyph glyph-name="afii10043" unicode="&#x429;" horiz-adv-x="2279" 
d="M123 0l270 1536h230l-234 -1325h567l234 1325h227l-233 -1325h567l234 1325h227l-234 -1325h197l-102 -580h-222l66 369h-1794z" />
    <glyph glyph-name="afii10044" unicode="&#x42a;" horiz-adv-x="1548" 
d="M319 0l234 1325h-401l36 211h631l-92 -522h272q219 0 350.5 -133t131.5 -338q0 -114 -41 -212.5t-117 -172.5t-191.5 -116t-257.5 -42h-555zM973 805h-283l-104 -594h311q163 0 257.5 90.5t94.5 235.5q0 123 -73.5 195.5t-202.5 72.5z" />
    <glyph glyph-name="afii10045" unicode="&#x42b;" horiz-adv-x="1931" 
d="M123 0l270 1536h230l-93 -522h279q219 0 351 -133t132 -338q0 -114 -41 -212.5t-116.5 -172.5t-191 -116t-257.5 -42h-563zM1403 0l270 1536h230l-271 -1536h-229zM784 805h-290l-105 -594h320q163 0 257.5 90.5t94.5 235.5q0 123 -74 195.5t-203 72.5z" />
    <glyph glyph-name="afii10046" unicode="&#x42c;" horiz-adv-x="1359" 
d="M123 0l270 1536h230l-93 -522h279q219 0 351 -133t132 -338q0 -114 -41 -212.5t-116.5 -172.5t-191 -116t-257.5 -42h-563zM784 805h-290l-105 -594h320q163 0 257.5 90.5t94.5 235.5q0 123 -74 195.5t-203 72.5z" />
    <glyph glyph-name="afii10047" unicode="&#x42d;" horiz-adv-x="1615" 
d="M719 895h606q-5 206 -116 328.5t-302 122.5q-175 0 -309 -93t-197 -260l-215 62q93 235 291 367t451 132q194 0 337.5 -86.5t217 -237t73.5 -345.5q0 -139 -37.5 -271t-111.5 -246t-177 -200.5t-242 -136t-298 -49.5q-259 0 -418 139.5t-184 374.5l225 61
q14 -168 115 -267.5t279 -99.5q221 0 380.5 137.5t215.5 356.5h-623z" />
    <glyph glyph-name="afii10048" unicode="&#x42e;" horiz-adv-x="2287" 
d="M123 0l270 1536h230l-111 -633h258q39 135 113.5 251.5t179 206.5t244.5 141.5t297 51.5q198 0 341 -82t215 -227.5t72 -337.5q0 -138 -38 -272.5t-114 -252t-179.5 -207t-244 -141.5t-298.5 -52q-198 0 -340.5 82t-214.5 227t-72 338q0 42 2 65h-258l-123 -694h-229z
M1581 1346q-178 0 -319.5 -97t-218 -257.5t-76.5 -350.5q0 -209 108 -330t307 -121q133 0 248.5 57t195.5 152.5t125.5 224.5t45.5 271q0 209 -107.5 330t-308.5 121z" />
    <glyph glyph-name="afii10049" unicode="&#x42f;" horiz-adv-x="1480" 
d="M1180 0h-228l109 614h-328l-506 -614h-260l531 649q-129 42 -204 144.5t-75 250.5q0 101 41 190.5t115 156.5t185 106t243 39h647zM721 821h377l88 510h-414q-144 0 -230.5 -79t-86.5 -201q0 -107 70.5 -168.5t195.5 -61.5z" />
    <glyph glyph-name="afii10065" unicode="&#x430;" horiz-adv-x="1275" 
d="M498 -18q-193 0 -308.5 123t-115.5 323q0 156 72.5 294.5t208.5 226t304 87.5q218 0 318 -170l39 152h194l-178 -1018h-192l14 143q-140 -161 -356 -161zM545 170q159 0 261.5 119t102.5 280q0 129 -65.5 204t-188.5 75q-105 0 -191 -57t-132.5 -149t-46.5 -198
q0 -125 68.5 -199.5t191.5 -74.5z" />
    <glyph glyph-name="afii10066" unicode="&#x431;" horiz-adv-x="1249" 
d="M588 -18q-219 0 -348 139t-129 403q0 149 22.5 279.5t74 249.5t129.5 208t195 150.5t265 81.5l239 33q141 20 172 28l13 -186q-40 -14 -183 -33l-225 -28q-196 -27 -313.5 -143t-159.5 -339q79 102 186.5 151.5t225.5 49.5q191 0 309.5 -121.5t118.5 -320.5
q0 -114 -42.5 -222t-117.5 -192.5t-188 -136t-244 -51.5zM700 844q-106 0 -192.5 -57t-133 -147.5t-46.5 -193.5q0 -125 72 -200.5t194 -75.5q161 0 268 118.5t107 278.5q0 127 -70.5 202t-198.5 75z" />
    <glyph glyph-name="afii10067" unicode="&#x432;" horiz-adv-x="1077" 
d="M68 0l180 1018h477q131 0 210 -69.5t79 -182.5q0 -84 -50.5 -148.5t-138.5 -97.5q66 -26 104 -84.5t38 -136.5q0 -132 -106.5 -215.5t-270.5 -83.5h-522zM678 856h-254l-45 -256h262q75 0 118.5 38t43.5 101q0 55 -32 86t-93 31zM565 162q89 0 139 40.5t50 110.5
q0 59 -36.5 93t-103.5 34h-262l-49 -278h262z" />
    <glyph glyph-name="afii10068" unicode="&#x433;" horiz-adv-x="892" 
d="M68 0l180 1018h698l-31 -184h-489l-145 -834h-213z" />
    <glyph glyph-name="afii10069" unicode="&#x434;" horiz-adv-x="1185" 
d="M-121 -305l88 489h80q70 45 118 149.5t101 348.5l70 336h754l-146 -834h139l-88 -489h-200l55 305h-715l-55 -305h-201zM465 688q-77 -371 -207 -504h483l115 654h-360z" />
    <glyph glyph-name="afii10070" unicode="&#x435;" horiz-adv-x="1165" 
d="M1014 252q-57 -126 -186 -198t-300 -72q-214 0 -334 123t-120 329q0 157 73.5 294t211.5 222.5t309 85.5q201 0 318.5 -114t117.5 -304q0 -82 -29 -165h-792q2 -134 70.5 -211.5t195.5 -77.5q101 0 174 42t108 113zM651 858q-121 0 -212 -69t-132 -181h586q2 12 2 33
q0 98 -67 157.5t-177 59.5z" />
    <glyph glyph-name="afii10072" unicode="&#x436;" horiz-adv-x="1513" 
d="M344 1018l203 -387h131l67 387h205l-67 -387h123l327 387h240l-424 -494l260 -524h-219l-219 440h-123l-78 -440h-205l78 440h-121l-366 -440h-226l449 549l-254 469h219z" />
    <glyph glyph-name="afii10073" unicode="&#x437;" horiz-adv-x="1015" 
d="M430 -18q-368 0 -432 278l211 59q16 -163 227 -163q112 0 181 42t69 117q0 60 -41 91.5t-106 31.5h-164l28 164h160q88 0 139.5 35t51.5 96q0 62 -49.5 96.5t-143.5 34.5q-190 0 -250 -151l-198 51q56 132 181.5 202t291.5 70q176 0 276.5 -75.5t100.5 -196.5
q0 -86 -57.5 -151t-164.5 -95q76 -23 117 -79t41 -136q0 -145 -133 -233t-336 -88z" />
    <glyph glyph-name="afii10074" unicode="&#x438;" 
d="M68 0l180 1018h205l-125 -717l610 717h205l-178 -1018h-207l127 713l-611 -713h-206z" />
    <glyph glyph-name="afii10075" unicode="&#x439;" 
d="M741 1323q66 0 110.5 34.5t59.5 100.5h189q-23 -132 -121.5 -210.5t-243.5 -78.5q-148 0 -229 78.5t-68 210.5h185q-12 -65 21 -100t97 -35zM68 0l180 1018h205l-125 -717l610 717h205l-178 -1018h-207l127 713l-611 -713h-206z" />
    <glyph glyph-name="afii10076" unicode="&#x43a;" horiz-adv-x="1099" 
d="M248 1018h211l-68 -385h146l364 385h258l-467 -488l309 -530h-233l-256 436h-156l-75 -436h-213z" />
    <glyph glyph-name="afii10077" unicode="&#x43b;" horiz-adv-x="1157" 
d="M-23 176q20 -4 35 -4q33 0 61.5 18.5t61 68t65 151.5t64.5 254l74 354h756l-179 -1018h-213l148 834h-350l-47 -222q-39 -183 -84.5 -307t-99.5 -194.5t-112 -99.5t-132 -29q-51 0 -97 16z" />
    <glyph glyph-name="afii10078" unicode="&#x43c;" horiz-adv-x="1417" 
d="M68 0l180 1018h211l254 -465l413 465h228l-180 -1018h-199l131 743l-408 -456h-47l-252 463l-133 -750h-198z" />
    <glyph glyph-name="afii10079" unicode="&#x43d;" 
d="M68 0l180 1018h211l-68 -391h471l68 391h213l-180 -1018h-211l75 436h-471l-75 -436h-213z" />
    <glyph glyph-name="afii10080" unicode="&#x43e;" horiz-adv-x="1204" 
d="M674 1036q215 0 339 -122.5t124 -323.5q0 -116 -44 -226t-120.5 -194.5t-191 -136t-246.5 -51.5q-215 0 -339 122.5t-124 323.5q0 117 44.5 227t121.5 194.5t191.5 135.5t244.5 51zM657 848q-105 0 -191.5 -56.5t-133.5 -148t-47 -194.5q0 -128 69.5 -203.5t196.5 -75.5
q106 0 192.5 56.5t133.5 147.5t47 195q0 129 -69.5 204t-197.5 75z" />
    <glyph glyph-name="afii10081" unicode="&#x43f;" horiz-adv-x="1191" 
d="M68 0l180 1018h878l-178 -1018h-211l146 834h-457l-145 -834h-213z" />
    <glyph glyph-name="afii10082" unicode="&#x440;" horiz-adv-x="1277" 
d="M248 1018h190l-12 -146q142 164 360 164q191 0 306.5 -123.5t115.5 -322.5q0 -116 -43.5 -226t-119 -194.5t-188 -136t-241.5 -51.5q-216 0 -309 168l-106 -601h-213zM735 848q-107 0 -193 -58t-131.5 -149t-45.5 -192q0 -128 67.5 -203.5t188.5 -75.5q108 0 195 57
t133 148.5t46 197.5q0 126 -68 200.5t-192 74.5z" />
    <glyph glyph-name="afii10083" unicode="&#x441;" horiz-adv-x="1122" 
d="M543 170q105 0 181 55.5t114 153.5l198 -53q-59 -159 -194 -251.5t-320 -92.5q-210 0 -330 121.5t-120 324.5q0 117 43.5 227t119 194.5t187.5 135.5t240 51q183 0 293 -99.5t128 -268.5l-206 -43q-8 103 -68.5 163t-163.5 60q-102 0 -186 -57.5t-129 -149t-45 -195.5
q0 -127 67.5 -201.5t190.5 -74.5z" />
    <glyph glyph-name="afii10084" unicode="&#x442;" horiz-adv-x="962" 
d="M287 0l147 834h-338l31 184h891l-33 -184h-340l-147 -834h-211z" />
    <glyph glyph-name="afii10085" unicode="&#x443;" horiz-adv-x="1087" 
d="M102 1018h226l190 -742l416 742h233l-848 -1469h-231l283 486z" />
    <glyph glyph-name="afii10086" unicode="&#x444;" horiz-adv-x="1454" 
d="M457 -451l78 441q-204 9 -333.5 134t-129.5 325q0 157 84.5 288t232.5 208.5t328 82.5l90 508h205l-90 -510q205 -12 333.5 -138t128.5 -323q0 -157 -84.5 -287.5t-232.5 -207t-328 -80.5l-77 -441h-205zM281 465q0 -134 73.5 -212t210.5 -85l121 684
q-182 -7 -293.5 -118t-111.5 -269zM1178 553q0 132 -74.5 210t-212.5 87l-121 -684q182 7 295 118.5t113 268.5z" />
    <glyph glyph-name="afii10087" unicode="&#x445;" horiz-adv-x="1007" 
d="M342 1018l190 -346l293 346h242l-442 -514l276 -504h-231l-203 369l-307 -369h-234l447 541l-262 477h231z" />
    <glyph glyph-name="afii10088" unicode="&#x446;" horiz-adv-x="1212" 
d="M68 0l180 1018h211l-146 -834h447l145 834h213l-147 -834h139l-88 -489h-201l56 305h-809z" />
    <glyph glyph-name="afii10089" unicode="&#x447;" horiz-adv-x="1095" 
d="M469 356q-195 0 -281 98t-55 277l51 287h211l-49 -281q-17 -102 29 -151t162 -49q85 0 204 36l78 445h211l-178 -1018h-213l70 395q-136 -39 -240 -39z" />
    <glyph glyph-name="afii10090" unicode="&#x448;" horiz-adv-x="1652" 
d="M68 0l180 1018h209l-148 -834h359l145 834h209l-145 -834h356l145 834h209l-178 -1018h-1341z" />
    <glyph glyph-name="afii10091" unicode="&#x449;" horiz-adv-x="1683" 
d="M68 0l180 1018h209l-148 -834h359l145 834h209l-145 -834h356l145 834h209l-145 -834h139l-86 -489h-201l56 305h-1282z" />
    <glyph glyph-name="afii10092" unicode="&#x44a;" horiz-adv-x="1155" 
d="M195 0l147 834h-274l32 184h486l-56 -316h220q151 0 244 -91t93 -232q0 -167 -119.5 -273t-310.5 -106h-462zM715 528h-215l-62 -354h213q105 0 164 55t59 140q0 72 -41.5 115.5t-117.5 43.5z" />
    <glyph glyph-name="afii10093" unicode="&#x44b;" horiz-adv-x="1460" 
d="M68 0l180 1018h211l-56 -316h213q149 0 242.5 -91t93.5 -232q0 -167 -120 -273t-312 -106h-452zM1004 0l178 1018h211l-179 -1018h-210zM580 528h-207l-62 -354h205q105 0 164 55t59 140q0 72 -41.5 115.5t-117.5 43.5z" />
    <glyph glyph-name="afii10094" unicode="&#x44c;" horiz-adv-x="1028" 
d="M68 0l180 1018h211l-56 -316h220q151 0 244.5 -91t93.5 -232q0 -166 -120 -272.5t-311 -106.5h-462zM588 528h-215l-62 -354h213q105 0 164.5 55t59.5 140q0 72 -42 115.5t-118 43.5z" />
    <glyph glyph-name="afii10095" unicode="&#x44d;" horiz-adv-x="1138" 
d="M600 854q-105 0 -187.5 -55.5t-119.5 -151.5l-191 53q60 154 198 245t314 91q211 0 333 -123.5t122 -328.5q0 -116 -44 -224.5t-120.5 -192.5t-190.5 -134.5t-245 -50.5q-182 0 -293 89.5t-135 247.5l205 52q14 -96 74.5 -150.5t162.5 -54.5q127 0 223 75t134 193h-373
l31 166h364q-8 118 -76.5 186t-185.5 68z" />
    <glyph glyph-name="afii10096" unicode="&#x44e;" horiz-adv-x="1644" 
d="M70 0l178 1018h211l-70 -395h156q59 180 211.5 296.5t357.5 116.5q215 0 339 -122.5t124 -323.5q0 -116 -44 -226t-120.5 -194.5t-191 -136t-246.5 -51.5q-215 0 -339 122.5t-124 323.5v10h-156l-75 -438h-211zM1098 848q-105 0 -192 -56.5t-134 -148t-47 -194.5
q0 -128 69.5 -203.5t196.5 -75.5q106 0 192.5 56.5t133.5 147.5t47 195q0 129 -69 204t-197 75z" />
    <glyph glyph-name="afii10097" unicode="&#x44f;" horiz-adv-x="1110" 
d="M866 0h-209l66 375h-201l-317 -375h-238l346 406q-86 34 -133 104.5t-47 167.5q0 140 107.5 240t279.5 100h524zM502 545h252l53 305h-260q-92 0 -147.5 -47t-55.5 -123q0 -65 42.5 -100t115.5 -35z" />
    <glyph glyph-name="uni0450" unicode="&#x450;" horiz-adv-x="1167" 
d="M426 1464h254l154 -276h-179zM1014 252q-57 -126 -186 -198t-300 -72q-214 0 -334 123t-120 329q0 157 73.5 294t211.5 222.5t309 85.5q201 0 318.5 -114t117.5 -304q0 -82 -29 -165h-792q2 -134 70.5 -211.5t195.5 -77.5q101 0 174 42t108 113zM651 858q-121 0 -212 -69
t-132 -181h586q2 12 2 33q0 98 -67 157.5t-177 59.5z" />
    <glyph glyph-name="afii10071" unicode="&#x451;" horiz-adv-x="1165" 
d="M543 1227q-53 0 -89 36.5t-36 88.5q0 54 36 89.5t89 35.5t89 -35.5t36 -89.5q0 -52 -36 -88.5t-89 -36.5zM930 1227q-52 0 -88.5 36.5t-36.5 88.5q0 54 36 89.5t89 35.5t88 -35.5t35 -89.5q0 -53 -35.5 -89t-87.5 -36zM1014 252q-57 -126 -186 -198t-300 -72
q-214 0 -334 123t-120 329q0 157 73.5 294t211.5 222.5t309 85.5q201 0 318.5 -114t117.5 -304q0 -82 -29 -165h-792q2 -134 70.5 -211.5t195.5 -77.5q101 0 174 42t108 113zM651 858q-121 0 -212 -69t-132 -181h586q2 12 2 33q0 98 -67 157.5t-177 59.5z" />
    <glyph glyph-name="afii10099" unicode="&#x452;" horiz-adv-x="1204" 
d="M68 0l206 1176h-153l29 170h155l33 190h211l-33 -190h272l-28 -170h-275l-49 -275q132 135 314 135q86 0 156.5 -30.5t118 -87t65.5 -143t0 -191.5l-134 -752q-27 -152 -117 -226.5t-233 -74.5q-87 0 -151 29l51 174q44 -15 86 -15q67 0 107 35t51 99l127 725
q23 126 -33 194t-168 68t-193.5 -72.5t-105.5 -204.5l-98 -563h-211z" />
    <glyph glyph-name="afii10100" unicode="&#x453;" horiz-adv-x="892" 
d="M782 1464h258l-311 -276h-194zM68 0l180 1018h698l-31 -184h-489l-145 -834h-213z" />
    <glyph glyph-name="afii10101" unicode="&#x454;" horiz-adv-x="1128" 
d="M545 168q108 0 185.5 55.5t115.5 153.5l196 -51q-59 -159 -195 -251.5t-321 -92.5q-213 0 -333.5 121t-120.5 325q0 157 73.5 295.5t211.5 225.5t309 87q184 0 295 -99.5t126 -268.5l-204 -39q-5 102 -67 160.5t-167 58.5q-116 0 -207.5 -70t-132.5 -178h361l-31 -168
h-358q5 -122 74 -193.5t190 -70.5z" />
    <glyph glyph-name="afii10102" unicode="&#x455;" horiz-adv-x="946" 
d="M428 -18q-176 0 -287.5 80t-138.5 239l203 43q26 -188 231 -188q94 0 147.5 38t53.5 103q0 23 -10 41.5t-23.5 30.5t-39.5 24t-46 19t-54 18l-4.5 1.5t-4 1t-4.5 1.5l-56 17q-58 18 -99 38t-79.5 51t-58 76.5t-19.5 104.5q0 137 115.5 226t298.5 89q163 0 266 -72
t127 -210l-201 -47q-9 79 -62.5 119t-139.5 40q-88 0 -139.5 -34.5t-51.5 -94.5q0 -36 24.5 -61t49.5 -35.5t83 -29.5q3 -1 4 -1.5t3.5 -1t4 -1t3.5 -1.5l51 -16q46 -14 79.5 -27.5t72.5 -37.5t63.5 -52t41 -70.5t16.5 -95.5q0 -141 -111.5 -233t-308.5 -92z" />
    <glyph glyph-name="afii10103" unicode="&#x456;" horiz-adv-x="522" 
d="M276 1350q0 58 38.5 95.5t97.5 37.5t97 -37.5t38 -95.5q0 -59 -38.5 -97.5t-96.5 -38.5t-97 39t-39 97zM68 0l180 1018h211l-178 -1018h-213z" />
    <glyph glyph-name="afii10104" unicode="&#x457;" horiz-adv-x="522" 
d="M561 1479q41 0 65.5 -28.5t24.5 -74.5q0 -59 -35.5 -105t-89.5 -46q-41 0 -65.5 28t-24.5 74q0 61 35 106.5t90 45.5zM297 1479q41 0 65.5 -28.5t24.5 -74.5q0 -60 -35 -105.5t-88 -45.5q-42 0 -67 28t-25 74q0 61 35 106.5t90 45.5zM68 0l178 1018h211l-178 -1018h-211z
" />
    <glyph glyph-name="afii10105" unicode="&#x458;" horiz-adv-x="522" 
d="M276 1350q0 58 38.5 95.5t97.5 37.5t97 -37.5t38 -95.5q0 -59 -38.5 -97.5t-96.5 -38.5t-97 39t-39 97zM246 1018h211l-207 -1186q-27 -152 -117 -226.5t-233 -74.5q-87 0 -154 29l53 174q54 -15 86 -15q66 0 105.5 35t50.5 99z" />
    <glyph glyph-name="afii10106" unicode="&#x459;" horiz-adv-x="1613" 
d="M-23 176q24 -4 35 -4q33 0 61.5 18.5t61 68t65 151.5t64.5 254l74 354h717l-56 -316h218q148 0 238.5 -89.5t90.5 -229.5q0 -168 -121 -275.5t-315 -107.5h-446l147 834h-311l-47 -222q-39 -183 -84.5 -307t-99.5 -194.5t-112 -99.5t-132 -29q-51 0 -97 16zM1176 526
h-207l-64 -350h205q106 0 164.5 55t58.5 138q0 72 -40.5 114.5t-116.5 42.5z" />
    <glyph glyph-name="afii10107" unicode="&#x45a;" horiz-adv-x="1673" 
d="M68 0l180 1018h211l-66 -375h436l66 375h211l-66 -371h248q139 0 226.5 -82t87.5 -211q0 -156 -113 -255t-293 -99h-481l82 459h-437l-79 -459h-213zM1245 477h-233l-54 -307h230q96 0 150.5 48t54.5 122q0 62 -39 99.5t-109 37.5z" />
    <glyph glyph-name="afii10108" unicode="&#x45b;" 
d="M68 0l206 1176h-153l29 170h155l33 190h213l-33 -190h273l-31 -170h-273l-47 -269q132 129 310 129q180 0 279.5 -122t62.5 -330l-103 -584h-213l103 578q23 126 -32.5 194t-166.5 68q-110 0 -193 -69t-106 -193l-100 -578h-213z" />
    <glyph glyph-name="afii10109" unicode="&#x45c;" horiz-adv-x="1099" 
d="M848 1464h258l-311 -276h-195zM248 1018h211l-68 -385h146l364 385h258l-467 -488l309 -530h-233l-256 436h-156l-75 -436h-213z" />
    <glyph glyph-name="uni045D" unicode="&#x45d;" 
d="M410 1464h254l153 -276h-178zM68 0l180 1018h205l-125 -717l610 717h205l-178 -1018h-207l127 713l-611 -713h-206z" />
    <glyph glyph-name="afii10110" unicode="&#x45e;" horiz-adv-x="1087" 
d="M684 1323q66 0 110.5 34.5t59.5 100.5h188q-23 -132 -121 -210.5t-243 -78.5q-148 0 -229 78.5t-68 210.5h184q-12 -65 21.5 -100t97.5 -35zM102 1018h226l190 -742l416 742h233l-848 -1469h-231l283 486z" />
    <glyph glyph-name="afii10193" unicode="&#x45f;" horiz-adv-x="1179" 
d="M68 0l180 1018h211l-146 -834h443l147 834h211l-178 -1018h-334l-53 -305h-203l53 305h-331z" />
    <glyph glyph-name="afii10146" unicode="&#x462;" horiz-adv-x="1378" 
d="M156 0l200 1135h-186l33 200h190l39 226h230l-39 -226h389l-35 -200h-391l-41 -234h309q205 0 325.5 -119t120.5 -301q0 -210 -153 -345.5t-404 -135.5h-587zM829 705h-319l-90 -508h332q151 0 236 78.5t85 203.5q0 103 -65 164.5t-179 61.5z" />
    <glyph glyph-name="afii10194" unicode="&#x463;" horiz-adv-x="1046" 
d="M72 0l180 1028h-152l33 178h152l57 330h211l-57 -330h309l-33 -178h-309l-57 -326h243q148 0 239 -90t91 -229q0 -168 -121 -275.5t-315 -107.5h-471zM610 526h-235l-62 -350h234q105 0 164 55t59 138q0 72 -41.5 114.5t-118.5 42.5z" />
    <glyph glyph-name="afii10147" unicode="&#x472;" horiz-adv-x="1732" 
d="M1034 1554q301 0 472 -177.5t171 -469.5q0 -140 -40 -275.5t-117.5 -252t-183 -206t-247 -140.5t-298.5 -51q-199 0 -344.5 82t-220 227.5t-74.5 337.5q0 116 28.5 230.5t80.5 217t131 190t174.5 151.5t216 100t251.5 36zM1012 1346q-209 0 -368 -131t-222 -338h1020v10
q0 214 -113 336.5t-317 122.5zM387 649q0 -214 112 -336.5t314 -122.5q213 0 374.5 135t223.5 347h-1024v-23z" />
    <glyph glyph-name="afii10195" unicode="&#x473;" horiz-adv-x="1204" 
d="M674 1036q215 0 339 -122.5t124 -323.5q0 -116 -44 -226t-120.5 -194.5t-191 -136t-246.5 -51.5q-215 0 -339 122.5t-124 323.5q0 117 44.5 227t121.5 194.5t191.5 135.5t244.5 51zM659 860q-125 0 -221 -74.5t-137 -191.5h635q-8 124 -79 195t-198 71zM549 158
q129 0 226.5 77.5t137.5 198.5h-639q5 -128 76 -202t199 -74z" />
    <glyph glyph-name="afii10148" unicode="&#x474;" horiz-adv-x="1515" 
d="M215 1536h229l197 -1282l547 1026q77 149 164.5 211.5t201.5 62.5q80 0 138 -28l-68 -189q-14 4 -49 4q-56 0 -99.5 -28.5t-82.5 -100.5l-652 -1212h-290z" />
    <glyph glyph-name="afii10196" unicode="&#x475;" horiz-adv-x="1095" 
d="M303 0l-201 1018h220l141 -778l315 573q65 120 137 171.5t168 51.5q56 0 99 -14l-58 -184q-16 4 -32 4q-39 0 -70 -21t-64 -80l-417 -741h-238z" />
    <glyph glyph-name="afii10050" unicode="&#x490;" horiz-adv-x="1206" 
d="M123 0l270 1536h746l57 317h215l-94 -528h-731l-234 -1325h-229z" />
    <glyph glyph-name="afii10098" unicode="&#x491;" horiz-adv-x="909" 
d="M68 0l180 1018h506l45 260h200l-77 -444h-496l-145 -834h-213z" />
    <glyph glyph-name="ellipsis" unicode="&#x2026;" horiz-adv-x="1474" 
d="M188 -16q-65 0 -106 39.5t-41 103.5q0 63 41 103t106 40t106.5 -40t41.5 -103q0 -64 -41.5 -103.5t-106.5 -39.5zM672 -16q-65 0 -106.5 39.5t-41.5 103.5q0 63 41.5 103t106.5 40t106 -40t41 -103q0 -64 -41 -103.5t-106 -39.5zM1155 -16q-65 0 -106 39.5t-41 103.5
q0 63 41 103t106 40t106.5 -40t41.5 -103q0 -64 -41.5 -103.5t-106.5 -39.5z" />
    <glyph glyph-name="Euro" unicode="&#x20ac;" horiz-adv-x="1597" 
d="M59 516l29 164h145q3 85 25 178h-137l29 162h159q99 236 294 385t448 149q237 0 379.5 -135t166.5 -364l-225 -62q-12 162 -99.5 257.5t-242.5 95.5q-151 0 -276 -88.5t-199 -237.5h557l-31 -162h-587q-21 -85 -27 -178h584l-29 -164h-543q28 -154 122.5 -240t238.5 -86
q165 0 286.5 97t180.5 260l215 -70q-86 -230 -269 -362.5t-428 -132.5q-250 0 -403 144.5t-184 389.5h-179z" />
    <glyph glyph-name="uni20BD" unicode="&#x20bd;" horiz-adv-x="1421" 
d="M193 0l38 221h-235l33 195h237l35 202h-235l34 199h236l127 719h545q209 0 329.5 -116t120.5 -308q0 -97 -37 -184.5t-106 -157.5t-179.5 -111t-246.5 -41h-359l-34 -202h426l-33 -195h-428l-39 -221h-229zM989 1337h-332l-92 -520h334q153 0 242.5 80t89.5 209
q0 108 -62.5 169.5t-179.5 61.5z" />
    <glyph glyph-name="arrowleft" unicode="&#x2190;" horiz-adv-x="1398" 
d="M109 723l509 571l138 -127l-322 -348h893v-192h-893l322 -351l-138 -124z" />
    <glyph glyph-name="arrowup" unicode="&#x2191;" horiz-adv-x="1296" 
d="M809 109h-191v972l-342 -325l-126 131l565 528l567 -526l-131 -133l-342 327v-974z" />
    <glyph glyph-name="arrowright" unicode="&#x2192;" horiz-adv-x="1396" 
d="M152 627v192h890l-321 348l135 127l514 -571l-514 -571l-135 124l321 351h-890z" />
    <glyph glyph-name="arrowdown" unicode="&#x2193;" horiz-adv-x="1294" 
d="M662 57l-566 531l129 131l340 -328v973h193v-973l342 326l129 -131z" />
    <glyph glyph-name="E.alt" horiz-adv-x="1474" 
d="M707 485q-224 0 -345 179q-36 -65 -36 -154q0 -154 107 -239t286 -85t323 99.5t220 306.5l194 -72q-50 -139 -129 -243.5t-177 -168t-207.5 -95t-231.5 -31.5q-273 0 -436.5 135t-163.5 372q0 218 143 367q-6 44 -6 94q0 120 48 230t132.5 193t208 132t266.5 49
q231 0 374 -116t171 -320l-209 -61q-12 138 -103.5 218.5t-244.5 80.5q-173 0 -291.5 -95.5t-138.5 -252.5q155 114 325 114q145 0 233.5 -81.5t88.5 -213.5q0 -153 -111 -247.5t-290 -94.5zM743 942q-68 0 -137.5 -29.5t-126.5 -85.5q28 -82 90 -123.5t142 -41.5
q88 0 140 42t52 109q0 59 -43 94t-117 35z" />
    <glyph glyph-name="L.alt" horiz-adv-x="1763" 
d="M1741 317q-75 -179 -183 -257t-253 -78q-148 0 -270.5 69.5t-239.5 186.5l-7 8q-100 -143 -200.5 -203.5t-231.5 -60.5q-162 0 -255 93t-93 247q0 162 115.5 276.5t288.5 114.5q99 0 180.5 -38t163.5 -108l383 641q55 91 99.5 150.5t96.5 106.5t108.5 68t125.5 21
q71 0 127 -22l-62 -193q-45 9 -57 9q-66 0 -117 -44.5t-117 -150.5l-440 -723l4 -4q57 -56 98.5 -91.5t95 -72t107.5 -54.5t109 -18q156 0 244 216zM219 334q0 -73 42 -115.5t116 -42.5q73 0 133.5 47t138.5 168q-64 64 -119 96.5t-118 32.5q-84 0 -138.5 -53t-54.5 -133z
" />
    <glyph glyph-name="M.alt" horiz-adv-x="2101" 
d="M553 1001l-352 -1001h-232l373 1063q176 491 623 491q164 0 282 -79q152 79 322 79q233 0 368.5 -147t135.5 -408q0 -210 -95 -453t-288 -546h-252q212 306 311.5 547t99.5 438q0 175 -76 274t-225 99q-72 0 -155 -27q71 -104 106 -237t35 -269q0 -256 -124.5 -415.5
t-319.5 -159.5q-166 0 -259.5 97.5t-93.5 283.5q0 160 87 361t239 347q-52 19 -105 19q-141 0 -239 -81.5t-166 -275.5zM1102 451q101 0 162 110t61 268q0 110 -28.5 213.5t-82.5 178.5q-123 -112 -193.5 -280.5t-70.5 -295.5q0 -97 40.5 -145.5t111.5 -48.5z" />
    <glyph glyph-name="Q.alt" horiz-adv-x="1732" 
d="M1677 907q0 -249 -120 -469.5t-330 -341.5l176 -276l-178 -119l-201 311q-108 -30 -233 -30q-199 0 -344.5 82t-220 227.5t-74.5 337.5q0 140 39 275.5t115.5 252.5t181.5 206t246.5 140t299.5 51q301 0 472 -177.5t171 -469.5zM1186 1034q87 0 160 -30.5t118 -90.5
q-10 113 -47.5 197.5t-97 136.5t-135 77.5t-166.5 25.5q-182 0 -329 -98.5t-226.5 -258t-79.5 -344.5q0 -219 116 -344t320 -125q47 0 94 6l-67 105q-101 150 -101 301q0 123 56.5 224t157.5 159.5t227 58.5zM1032 401l92 -143q129 70 207 182.5t78 216.5q0 88 -54.5 143.5
t-144.5 55.5q-110 0 -176.5 -72.5t-66.5 -179.5q0 -105 65 -203z" />
    <glyph glyph-name="R.alt" horiz-adv-x="1607" 
d="M186 0q-22 223 -22 457q0 258 61 465.5t171 345.5t264 212t339 74q258 0 412 -147.5t154 -380.5q0 -275 -236 -473l119 -553h-227l-95 434q-98 -43 -204 -43q-164 0 -269.5 90t-105.5 236q0 145 99 240.5t251 95.5q131 0 219 -78.5t129 -222.5q103 93 103 229
q0 166 -91.5 267.5t-269.5 101.5q-271 0 -437.5 -230t-166.5 -641q0 -209 29 -479h-226zM750 729q0 -68 50 -107.5t140 -39.5q81 0 145 34q-37 136 -80 190t-112 54q-65 0 -104 -36.5t-39 -94.5z" />
    <glyph glyph-name="S.alt" horiz-adv-x="1390" 
d="M866 1554q224 0 357.5 -98t148.5 -278l-223 -56q-3 114 -77 179t-216 65q-130 0 -208.5 -54t-78.5 -138q0 -31 10.5 -56t26 -42t46 -33.5t56.5 -27t72 -26.5l129 -47q66 -23 113.5 -43.5t98 -48.5t84.5 -59.5t62.5 -72t42 -92.5t13.5 -114q0 -158 -96.5 -279.5
t-263.5 -186t-377 -64.5q-267 0 -415 91.5t-148 262.5q0 159 127 259.5t329 100.5q179 0 294 -88t130 -248l-207 -63q0 103 -57 161t-160 58q-101 0 -165 -48.5t-64 -121.5q0 -88 91.5 -133t246.5 -45q226 0 365 86t139 231q0 102 -69.5 162t-201.5 105l-166 55
q-63 22 -107 41.5t-88.5 49t-71 63t-43.5 82t-17 108.5q0 177 154.5 290t383.5 113z" />
    <glyph glyph-name="W.alt" horiz-adv-x="2117" 
d="M2077 801q0 -168 -46 -316t-131 -260.5t-217 -177.5t-294 -65q-208 0 -355 112q-184 -112 -381 -112q-89 0 -167 20.5t-144 65t-106.5 114t-55 166.5t12.5 223l190 965h229l-192 -975q-37 -190 40 -284.5t220 -94.5q106 0 221 54q-72 106 -108.5 237.5t-36.5 261.5
q0 296 132.5 468.5t342.5 172.5q154 0 242 -102.5t88 -286.5q0 -182 -97 -392.5t-260 -367.5q82 -45 187 -45q143 0 249.5 81t159.5 215.5t53 303.5q0 245 -122 547l-66 162l215 82l70 -184q127 -330 127 -588zM1206 1178q-105 0 -171 -119t-66 -314q0 -234 98 -387
q126 125 202.5 300.5t76.5 326.5q0 95 -36 144t-104 49z" />
    <glyph glyph-name="arrowleft.alt" horiz-adv-x="1902" 
d="M96 725l553 631l142 -121l-377 -422q193 -22 370 -22q133 0 228 14q-39 104 -39 231q0 196 104.5 313t265.5 117q155 0 245.5 -88.5t90.5 -228.5q0 -144 -94.5 -264.5t-277.5 -192.5q125 -112 329 -112q105 0 195 18l18 -178q-107 -23 -225 -23q-171 0 -303 63t-219 175
q-151 -29 -322 -29q-148 0 -360 25l371 -414l-142 -123zM1167 1047q0 -111 37 -201q139 45 208 123.5t69 173.5q0 69 -37.5 108t-100.5 39q-80 0 -128 -65.5t-48 -177.5z" />
    <glyph glyph-name="arrowright.alt" horiz-adv-x="1826" 
d="M80 621q95 -19 194 -19q202 0 328 113q-183 69 -277 185.5t-94 258.5q0 146 92.5 239t249.5 93q161 0 263 -113.5t102 -304.5q0 -133 -43 -246q98 -14 231 -14q181 0 373 25l-379 419l142 123l553 -630l-553 -631l-142 123l371 413q-201 -24 -358 -24q-181 0 -330 28
q-88 -112 -222.5 -174.5t-308.5 -62.5q-101 0 -211 22zM430 1165q0 -95 69 -173.5t208 -123.5q36 88 36 203q0 112 -47 177t-127 65q-64 0 -101.5 -39t-37.5 -109z" />
    <glyph glyph-name="afii10022.alt" horiz-adv-x="1472" 
d="M707 485q-224 0 -345 179q-36 -65 -36 -154q0 -154 107 -239t286 -85t323 99.5t220 306.5l194 -72q-50 -139 -129 -243.5t-177 -168t-207.5 -95t-231.5 -31.5q-273 0 -436.5 135t-163.5 372q0 218 143 367q-6 44 -6 94q0 120 48 230t132.5 193t208 132t266.5 49
q231 0 374 -116t171 -320l-209 -61q-12 138 -103.5 218.5t-244.5 80.5q-173 0 -291.5 -95.5t-138.5 -252.5q155 114 325 114q145 0 233.5 -81.5t88.5 -213.5q0 -153 -111 -247.5t-290 -94.5zM743 942q-68 0 -137.5 -29.5t-126.5 -85.5q28 -82 90 -123.5t142 -41.5
q88 0 140 42t52 109q0 59 -43 94t-117 35z" />
    <glyph glyph-name="afii10023.alt" horiz-adv-x="1472" 
d="M813 1677q-53 0 -89 36.5t-36 88.5q0 54 36 89.5t89 35.5t89 -35.5t36 -89.5q0 -52 -36 -88.5t-89 -36.5zM1200 1677q-52 0 -88.5 36.5t-36.5 88.5q0 54 36 89.5t89 35.5t88 -35.5t35 -89.5q0 -53 -35.5 -89t-87.5 -36zM707 485q-224 0 -345 179q-36 -65 -36 -154
q0 -154 107 -239t286 -85t323 99.5t220 306.5l194 -72q-50 -139 -129 -243.5t-177 -168t-207.5 -95t-231.5 -31.5q-273 0 -436.5 135t-163.5 372q0 218 143 367q-6 44 -6 94q0 120 48 230t132.5 193t208 132t266.5 49q231 0 374 -116t171 -320l-209 -61
q-12 138 -103.5 218.5t-244.5 80.5q-173 0 -291.5 -95.5t-138.5 -252.5q155 114 325 114q145 0 233.5 -81.5t88.5 -213.5q0 -153 -111 -247.5t-290 -94.5zM743 942q-68 0 -137.5 -29.5t-126.5 -85.5q28 -82 90 -123.5t142 -41.5q88 0 140 42t52 109q0 59 -43 94t-117 35z
" />
    <glyph glyph-name="afii10025.alt" horiz-adv-x="1472" 
d="M829 471q-153 0 -238 83t-85 212q0 141 111 237.5t282 96.5q195 0 318 -129q4 36 4 57q0 147 -90 241.5t-250 94.5q-162 0 -280.5 -86.5t-166.5 -230.5l-198 63q73 208 249.5 326t405.5 118q126 0 229 -38.5t170 -105.5t103.5 -156.5t36.5 -192.5q0 -135 -76 -262
q35 -93 35 -197q0 -128 -48.5 -241t-137 -197t-222 -133t-293.5 -49q-258 0 -421 131.5t-189 386.5l213 53q6 -96 40.5 -168.5t91 -115.5t127 -64t155.5 -21q221 0 350 119.5t129 300.5v21q-151 -154 -355 -154zM707 776q0 -55 39.5 -89t115.5 -34q78 0 152 37t125 101
q-38 62 -104 97.5t-142 35.5q-83 0 -134.5 -43t-51.5 -105z" />
    <glyph glyph-name="afii10030.alt" horiz-adv-x="2086" 
d="M1462 1356q-73 0 -143 -31q71 -110 106 -251.5t35 -285.5q0 -273 -122.5 -438.5t-317.5 -165.5q-157 0 -248.5 96t-91.5 267q0 174 94.5 400t251.5 386q-54 23 -113 23q-255 0 -378 -355l-351 -1001h-229l358 1014q100 281 250 410.5t348 129.5q162 0 279 -90
q148 90 309 90q199 0 317 -129t121 -387l19 -1038h-223l-19 1014q-3 180 -70 261t-182 81zM885 573q0 -89 39 -139.5t110 -50.5q104 0 162.5 109.5t58.5 287.5q0 275 -96 430q-121 -123 -197.5 -307.5t-76.5 -329.5z" />
    <glyph glyph-name="afii10038.alt" horiz-adv-x="2179" 
d="M879 -35l55 303q-145 -168 -361 -168q-205 0 -320.5 141t-115.5 382q0 160 50 308t136 258.5t210 176.5t264 66q216 0 311 -170l55 313h230l-56 -313q143 170 363 170q205 0 320.5 -141t115.5 -382q0 -214 -84 -399t-237 -297.5t-340 -112.5q-216 0 -312 172l-55 -307
h-229zM1905 899q0 158 -71.5 247t-199.5 89q-136 0 -236.5 -100t-129.5 -275l-37 -209q-26 -155 40 -253.5t195 -98.5q123 0 224.5 81.5t158 218.5t56.5 300zM369 635q0 -159 71 -247.5t199 -88.5q137 0 237.5 100t129.5 271l36 211q28 157 -39.5 255.5t-197.5 98.5
q-123 0 -223.5 -82t-156.5 -219t-56 -299z" />
    <glyph glyph-name="afii10040.alt" horiz-adv-x="1695" 
d="M1229 -389l-121 -49l-72 170l51 22q67 24 96 54.5t29 80.5q0 25 -11 60.5t-46 126.5l-14 37q-208 -131 -447 -131q-277 0 -408.5 152t-82.5 429l170 973h227l-168 -956q-33 -182 41 -287t242 -105q197 0 358 119q-104 307 -104 600q0 186 48 330t148.5 230.5t239.5 86.5
q149 0 231 -98t82 -270q0 -86 -25 -200t-72 -240.5t-127 -258t-179 -231.5l24 -70q68 -192 78 -243q8 -37 8 -68q0 -182 -196 -264zM1186 922q0 -223 57 -449q122 155 190 353t68 352q0 184 -115 184q-67 0 -113 -63t-66.5 -160t-20.5 -217z" />
    <glyph glyph-name="afii10042.alt" horiz-adv-x="2371" 
d="M2212 195h69l-36 -203h-84q-199 0 -334 158q-212 -168 -449 -168q-240 0 -385 168q-206 -168 -432 -168q-208 0 -309 134t-59 378l182 1042h219l-182 -1040q-28 -163 26.5 -241.5t167.5 -78.5q154 0 291 121q-104 219 -104 551q0 200 47.5 357t148 253t242.5 96
q131 0 206.5 -88.5t75.5 -244.5q0 -181 -102 -452t-272 -474q98 -119 266 -119q175 0 328 127q-99 221 -99 539q0 142 27 268t80 226.5t139 159t195 58.5q130 0 205 -89.5t75 -247.5q0 -114 -41.5 -269.5t-130 -334t-205.5 -314.5q90 -104 234 -104zM1837 827
q0 -212 49 -358q122 170 194 384t72 355q0 77 -26.5 117.5t-77.5 40.5q-68 0 -117.5 -81t-71.5 -200.5t-22 -257.5zM995 836q0 -220 52 -373q119 167 190.5 379t71.5 368q0 76 -26.5 116t-76.5 40q-69 0 -118.5 -79.5t-71 -196.5t-21.5 -254z" />
    <glyph glyph-name="afii10043.alt" horiz-adv-x="2326" 
d="M1896 -389l-122 -49l-72 170l51 22q68 23 97.5 54.5t29.5 80.5q0 6 -0.5 11.5t-1.5 11t-3 13t-3.5 13.5t-5 16.5t-6 17.5t-8 21t-9 23.5t-10.5 28t-12 31.5l-21 53q-201 -147 -422 -147q-240 0 -385 168q-206 -168 -432 -168q-208 0 -309 134t-59 378l182 1042h219
l-182 -1040q-28 -163 26.5 -241.5t167.5 -78.5q154 0 291 121q-104 219 -104 551q0 200 47.5 357t148 253t242.5 96q131 0 206.5 -88.5t75.5 -244.5q0 -181 -102 -452t-272 -474q98 -119 266 -119q178 0 330 129q-101 267 -101 539q0 142 27 268t80 226t139 158t195 58
q130 0 205 -89.5t75 -247.5q0 -186 -107 -460.5t-286 -475.5l37 -95q52 -136 71 -199t19 -114q0 -180 -193 -262zM1837 829q0 -184 53 -354q121 170 191.5 382t70.5 351q0 77 -26.5 117.5t-77.5 40.5q-68 0 -117.5 -80.5t-71.5 -199.5t-22 -257zM995 836q0 -220 52 -373
q119 167 190.5 379t71.5 368q0 76 -26.5 116t-76.5 40q-69 0 -118.5 -79.5t-71 -196.5t-21.5 -254z" />
    <glyph glyph-name="afii10049.alt" horiz-adv-x="1636" 
d="M1358 0h-223l151 850q39 225 -62 362.5t-311 137.5q-208 0 -330 -122t-122 -304q0 -83 24 -138q150 252 379 252q132 0 213.5 -78.5t81.5 -203.5q0 -154 -114.5 -256.5t-296.5 -102.5q-144 0 -263 70l-258 -467h-225l334 600q-88 139 -88 315q0 125 48.5 240.5t135 204
t217 141.5t283.5 53q203 0 346 -86t204 -245.5t25 -368.5zM838 856q-66 0 -127.5 -51.5t-128.5 -165.5q68 -59 163 -59q98 0 154.5 45t56.5 116q0 52 -31 83.5t-87 31.5z" />
    </font>
</defs>
</svg>
