<?xml version="1.0" standalone="no"?>
<!DOCTYPE svg PUBLIC "-//W3C//DTD SVG 1.1//EN" "http://www.w3.org/Graphics/SVG/1.1/DTD/svg11.dtd" >
<svg xmlns="http://www.w3.org/2000/svg" xmlns:xlink="http://www.w3.org/1999/xlink" version="1.1">
<metadata>
Created by FontForge 20170731 at Wed Nov 16 18:21:10 2022
 By Aleksey,,,
Copyright 2020 Ilya Naumoff
</metadata>
<defs>
<font id="FactorA-Regular" horiz-adv-x="1271" >
  <font-face 
    font-family="Factor A TRIAL"
    font-weight="400"
    font-stretch="normal"
    units-per-em="2048"
    panose-1="0 0 0 0 0 0 0 0 0 0"
    ascent="1536"
    descent="-512"
    x-height="1008"
    cap-height="1536"
    bbox="-100 -547 2324 1915"
    underline-thickness="108"
    underline-position="-429"
    unicode-range="U+000D-FB02"
  />
<missing-glyph horiz-adv-x="1343" 
d="M233 0v1536h877v-1536h-877zM408 162h528v1212h-528v-1212z" />
    <glyph glyph-name="ff" unicode="ff" horiz-adv-x="1488" 
d="M416 1210v-202h516v200q0 154 96 249t244 95q90 0 164 -30l-37 -140q-66 25 -117 25q-91 0 -140.5 -49.5t-49.5 -147.5v-202h381v-140h-381v-868h-160v868h-516v-868h-162v868h-244v39l86 101h158v200q0 154 96 249t244 95q90 0 164 -30l-35 -140q-70 25 -119 25
q-90 0 -139 -49.5t-49 -147.5z" />
    <glyph glyph-name="fi" unicode="fi" horiz-adv-x="1267" 
d="M795 868h-379v-868h-162v868h-244v39l86 101h158v200q0 154 96 249t244 95q90 0 164 -30l-35 -140q-70 25 -119 25q-90 0 -139 -49t-49 -148v-202h379v-140zM909 1354q0 49 31.5 79.5t79.5 30.5t80.5 -30.5t32.5 -79.5q0 -47 -33 -79t-80 -32t-79 32t-32 79zM940 0v1008
h160v-1008h-160z" />
    <glyph glyph-name="fl" unicode="fl" horiz-adv-x="1267" 
d="M795 868h-379v-868h-162v868h-244v39l86 101h158v200q0 154 96 249t244 95q90 0 164 -30l-35 -140q-70 25 -119 25q-90 0 -139 -49t-49 -148v-202h379v-140zM940 0v1536h160v-1536h-160z" />
    <glyph glyph-name=".notdef" horiz-adv-x="1343" 
d="M233 0v1536h877v-1536h-877zM408 162h528v1212h-528v-1212z" />
    <glyph glyph-name=".null" horiz-adv-x="0" 
 />
    <glyph glyph-name=".null" horiz-adv-x="0" 
 />
    <glyph glyph-name="nonmarkingreturn" horiz-adv-x="682" 
 />
    <glyph glyph-name="CR" unicode="&#xd;" horiz-adv-x="0" 
 />
    <glyph glyph-name="space" unicode=" " horiz-adv-x="450" 
 />
    <glyph glyph-name="exclam" unicode="!" horiz-adv-x="651" 
d="M231 1536h189l-27 -1075h-135zM326 -18q-53 0 -87 32.5t-34 85.5q0 52 34 84.5t87 32.5q54 0 87 -32t33 -85q0 -54 -33 -86t-87 -32z" />
    <glyph glyph-name="numbersign" unicode="#" horiz-adv-x="1441" 
d="M332 0h-150l94 338h-184v137h221l129 465h-192v139h231l92 334h150l-92 -334h389l90 334h150l-91 -334h181v-139h-217l-125 -465h184v-137h-223l-90 -338h-150l90 338h-393zM463 475h395l125 465h-391z" />
    <glyph glyph-name="dollar" unicode="$" horiz-adv-x="1343" 
d="M1206 1167l-159 -45q-19 108 -93 179.5t-194 91.5v-535q93 -22 160 -45t131.5 -58.5t104 -79.5t63.5 -108.5t24 -146.5q0 -187 -129 -302t-354 -132v-185h-154v187q-225 20 -358.5 142.5t-147.5 297.5l168 45q12 -135 98 -221.5t240 -106.5v584q-83 20 -144 41
t-122.5 54.5t-99.5 75.5t-62 103.5t-24 139.5q0 178 124.5 285t327.5 122v170h154v-172q184 -20 302 -120.5t144 -260.5zM326 1155q0 -100 69 -158.5t211 -99.5v500q-135 -13 -207.5 -76.5t-72.5 -165.5zM1069 412q0 113 -74 174.5t-235 105.5v-551q142 12 225.5 82
t83.5 189z" />
    <glyph glyph-name="percent" unicode="%" horiz-adv-x="1865" 
d="M393 -37l-100 76l1182 1534l102 -76zM471 817q-164 0 -270.5 104.5t-106.5 264.5q0 159 106.5 262.5t270.5 103.5q163 0 269 -104t106 -262q0 -160 -106 -264.5t-269 -104.5zM702 1186q0 102 -65.5 169.5t-165.5 67.5q-101 0 -167 -67.5t-66 -169.5q0 -103 66 -170.5
t167 -67.5q100 0 165.5 67.5t65.5 170.5zM1397 -16q-164 0 -270.5 104t-106.5 264q0 159 106.5 263t270.5 104q163 0 269 -104.5t106 -262.5q0 -160 -106 -264t-269 -104zM1628 352q0 102 -66 170t-165 68q-101 0 -167.5 -68t-66.5 -170q0 -103 66.5 -170t167.5 -67
q100 0 165.5 67t65.5 170z" />
    <glyph glyph-name="ampersand" unicode="&#x26;" horiz-adv-x="1423" 
d="M1014 1206q0 -68 -27 -130t-75 -111.5t-105 -89t-127 -72.5l369 -418q79 140 100 338l156 -29q-34 -252 -154 -426l238 -268h-203l-135 152q-180 -168 -443 -168q-220 0 -357.5 115.5t-137.5 310.5q0 65 15 121t49.5 112t97 107.5t153.5 97.5q-92 111 -131 189t-39 167
q0 155 110 251.5t275 96.5q166 0 268.5 -95t102.5 -251zM426 1206q0 -69 32.5 -129t123.5 -166q131 58 198.5 126.5t67.5 164.5q0 93 -55.5 147t-151.5 54q-97 0 -156 -53t-59 -144zM285 422q0 -127 98.5 -206t241.5 -79q195 0 327 123l-428 475q-75 -33 -124.5 -71.5
t-73 -80t-32.5 -78.5t-9 -83z" />
    <glyph glyph-name="parenleft" unicode="(" horiz-adv-x="786" 
d="M135 633q0 325 145 587t390 382l71 -129q-200 -101 -320 -325.5t-120 -514.5q0 -289 120 -513t320 -327l-71 -129q-245 120 -390 382.5t-145 586.5z" />
    <glyph glyph-name="parenright" unicode=")" horiz-adv-x="786" 
d="M651 633q0 -324 -144.5 -586.5t-389.5 -382.5l-72 129q200 103 320 327t120 513q0 290 -120 514.5t-320 325.5l72 129q245 -120 389.5 -382t144.5 -587z" />
    <glyph glyph-name="comma" unicode="," horiz-adv-x="446" 
d="M193 -307h-132l97 512h194z" />
    <glyph glyph-name="period" unicode="." horiz-adv-x="460" 
d="M229 -18q-53 0 -86.5 32.5t-33.5 85.5q0 52 33.5 84.5t86.5 32.5q54 0 87.5 -32.5t33.5 -84.5q0 -54 -33.5 -86t-87.5 -32z" />
    <glyph glyph-name="slash" unicode="/" horiz-adv-x="909" 
d="M182 0h-168l715 1536h166z" />
    <glyph glyph-name="zero" unicode="0" horiz-adv-x="1396" 
d="M698 -16q-252 0 -402.5 210t-150.5 578q0 365 150.5 572.5t402.5 207.5t402.5 -207.5t150.5 -572.5q0 -368 -150.5 -578t-402.5 -210zM698 1393q-178 0 -277 -165t-99 -456q0 -295 99 -462t277 -167q176 0 275.5 167.5t99.5 461.5q0 291 -99 456t-276 165z" />
    <glyph glyph-name="one" unicode="1" horiz-adv-x="761" 
d="M354 0v1194h-278v100q133 8 217 70t106 172h125v-1536h-170z" />
    <glyph glyph-name="two" unicode="2" horiz-adv-x="1163" 
d="M1090 162v-162h-977v143l462 480q154 155 222.5 259.5t68.5 221.5q0 130 -83 209.5t-216 79.5q-125 0 -216 -72.5t-113 -220.5l-168 35q24 136 98 231.5t178 140.5t229 45q206 0 336.5 -122t130.5 -322q0 -78 -21 -146.5t-69.5 -141t-99 -130.5t-139.5 -149l-365 -379
h742z" />
    <glyph glyph-name="three" unicode="3" horiz-adv-x="1247" 
d="M606 -16q-207 0 -347.5 107t-178.5 323l170 43q28 -160 121.5 -237t234.5 -77q149 0 244.5 77.5t95.5 219.5q0 131 -79.5 204t-231.5 73h-148v157h134q135 0 210.5 69t75.5 192q0 121 -79.5 190.5t-213.5 69.5q-116 0 -205.5 -64t-115.5 -196l-166 39q43 183 178.5 280.5
t315.5 97.5q210 0 336 -111t126 -294q0 -110 -56 -197.5t-163 -142.5q124 -41 192 -138.5t68 -232.5q0 -203 -147.5 -327.5t-370.5 -124.5z" />
    <glyph glyph-name="four" unicode="4" horiz-adv-x="1236" 
d="M801 0v371h-748v149l695 1016h225v-1008h211v-157h-211v-371h-172zM236 528h565v820z" />
    <glyph glyph-name="five" unicode="5" horiz-adv-x="1226" 
d="M1135 498q0 -225 -148.5 -369.5t-390.5 -144.5q-130 0 -234.5 41.5t-180 131t-105.5 220.5l170 49q35 -146 130 -214.5t224 -68.5q157 0 256.5 96.5t99.5 256.5q0 155 -96.5 253.5t-247.5 98.5q-99 0 -175.5 -33t-121.5 -94l-137 43l131 772h764v-156h-627l-79 -452
q119 71 268 71q220 0 360 -140.5t140 -360.5z" />
    <glyph glyph-name="six" unicode="6" horiz-adv-x="1208" 
d="M600 -16q-222 0 -368 133.5t-146 349.5q0 189 119 367l463 702h196l-393 -590q83 27 160 27q217 0 358 -134.5t141 -349.5q0 -149 -69 -264.5t-189.5 -178t-271.5 -62.5zM602 145q153 0 251.5 96t98.5 248q0 150 -98 243t-250 93q-150 0 -246 -96q-96 -101 -96 -252
q0 -147 95.5 -239.5t244.5 -92.5z" />
    <glyph glyph-name="seven" unicode="7" horiz-adv-x="1083" 
d="M154 0l686 1378h-789v158h979v-141l-692 -1395h-184z" />
    <glyph glyph-name="eight" unicode="8" horiz-adv-x="1316" 
d="M657 -16q-148 0 -268 51t-194 154.5t-74 242.5q0 147 83 251t218 142q-101 35 -163 122t-62 208q0 181 131 289t329 108q199 0 331 -108t132 -289q0 -119 -62.5 -206t-164.5 -124q136 -38 218.5 -142t82.5 -251q0 -105 -43 -190.5t-116.5 -141.5t-170.5 -86t-207 -30z
M948 1145q0 113 -82.5 181.5t-208.5 68.5q-124 0 -206 -68.5t-82 -181.5q0 -116 82.5 -185t205.5 -69q126 0 208.5 69t82.5 185zM1018 440q0 139 -103 218t-258 79q-152 0 -255 -79t-103 -218t102 -217t256 -78q155 0 258 78t103 217z" />
    <glyph glyph-name="nine" unicode="9" horiz-adv-x="1208" 
d="M608 1552q222 0 368 -133.5t146 -349.5q0 -190 -118 -367l-463 -702h-197l393 590q-83 -27 -159 -27q-217 0 -358.5 134.5t-141.5 349.5q0 149 69 264.5t189.5 178t271.5 62.5zM606 1391q-153 0 -251.5 -96t-98.5 -248q0 -150 98 -243t250 -93q150 0 246 96
q96 101 96 252q0 147 -95.5 239.5t-244.5 92.5z" />
    <glyph glyph-name="colon" unicode=":" horiz-adv-x="460" 
d="M229 741q-53 0 -86.5 32.5t-33.5 86.5q0 52 33.5 84.5t86.5 32.5q54 0 87.5 -32.5t33.5 -84.5q0 -54 -33.5 -86.5t-87.5 -32.5zM229 -18q-53 0 -86.5 32.5t-33.5 85.5q0 52 33.5 84.5t86.5 32.5q54 0 87.5 -32.5t33.5 -84.5q0 -54 -33.5 -86t-87.5 -32z" />
    <glyph glyph-name="semicolon" unicode=";" horiz-adv-x="458" 
d="M233 741q-53 0 -86.5 32.5t-33.5 86.5q0 52 33.5 84.5t86.5 32.5q54 0 87.5 -32.5t33.5 -84.5q0 -54 -33.5 -86.5t-87.5 -32.5zM186 -307h-131l97 512h194z" />
    <glyph glyph-name="question" unicode="?" horiz-adv-x="1101" 
d="M559 1552q201 0 328 -105t127 -286q0 -80 -24.5 -145.5t-64 -109.5t-87.5 -81.5t-95.5 -69t-87 -63t-64 -72.5t-24.5 -90v-69h-164v76q0 67 24 123t63 94.5t85.5 73t93.5 68t86 69t63 85t24 109.5q0 115 -79 178.5t-210 63.5q-136 0 -222 -70t-114 -201l-158 35
q41 184 173.5 285.5t326.5 101.5zM496 -18q-53 0 -87 32.5t-34 85.5q0 52 34 84.5t87 32.5q54 0 87 -32t33 -85q0 -54 -33 -86t-87 -32z" />
    <glyph glyph-name="at" unicode="@" horiz-adv-x="1912" 
d="M1343 311q0 -52 32.5 -84t80.5 -32q64 0 105.5 47t57 118t15.5 166q0 200 -89.5 356.5t-246 242t-352.5 85.5q-191 0 -342.5 -88t-237 -247.5t-85.5 -362.5q0 -201 85 -359t237.5 -246.5t346.5 -88.5q198 0 369 82l43 -111q-191 -92 -418 -92q-229 0 -410 104t-281.5 290
t-100.5 421q0 238 102 425t283 290.5t409 103.5q174 0 325 -59t259 -163.5t169.5 -255t61.5 -327.5q0 -93 -20 -174.5t-59 -147t-105 -103.5t-152 -38q-80 0 -138.5 42t-82.5 112q-44 -80 -115.5 -124t-164.5 -44q-184 0 -294 126.5t-110 330.5q0 206 110.5 334.5
t295.5 128.5q177 0 270 -156l4 139h143v-641zM1194 506q0 143 -70.5 232t-187.5 89q-119 0 -189.5 -89t-70.5 -232q0 -141 70.5 -228.5t189.5 -87.5q117 0 187.5 87t70.5 229z" />
    <glyph glyph-name="A" unicode="A" horiz-adv-x="1427" 
d="M29 0l587 1536h193l590 -1536h-185l-200 530h-611l-200 -530h-174zM463 688h491l-245 649z" />
    <glyph glyph-name="B" unicode="B" horiz-adv-x="1372" 
d="M233 0v1536h515q198 0 315 -104t117 -283q0 -123 -58.5 -209.5t-163.5 -130.5q142 -40 217.5 -138t75.5 -243q0 -198 -126.5 -313t-342.5 -115h-549zM735 1384h-327v-514h333q121 0 193 72t72 191q0 115 -73 183t-198 68zM772 717h-364v-565h366q138 0 218.5 73.5
t80.5 202.5q0 132 -81.5 210.5t-219.5 78.5z" />
    <glyph glyph-name="C" unicode="C" horiz-adv-x="1613" 
d="M121 768q0 221 94 400t264 281.5t383 102.5q261 0 439.5 -141.5t228.5 -376.5l-174 -45q-39 183 -168.5 292.5t-325.5 109.5q-169 0 -298.5 -84.5t-196 -225t-66.5 -313.5q0 -130 38.5 -243.5t109.5 -198.5t177.5 -134t235.5 -49q206 0 342 113t168 295l176 -43
q-56 -243 -237 -384.5t-449 -141.5q-163 0 -302 60t-235 164.5t-150 249.5t-54 312z" />
    <glyph glyph-name="D" unicode="D" horiz-adv-x="1574" 
d="M233 0v1536h455q169 0 312 -56t242.5 -155.5t155.5 -242.5t56 -312q0 -227 -95.5 -402t-270 -271.5t-400.5 -96.5h-455zM688 1376h-280v-1216h280q263 0 424.5 166t161.5 444q0 276 -161.5 441t-424.5 165z" />
    <glyph glyph-name="E" unicode="E" horiz-adv-x="1263" 
d="M233 0v1536h947v-160h-772v-485h550v-160h-550v-571h792v-160h-967z" />
    <glyph glyph-name="F" unicode="F" horiz-adv-x="1200" 
d="M233 0v1536h934v-160h-759v-506h557v-157h-557v-713h-175z" />
    <glyph glyph-name="G" unicode="G" horiz-adv-x="1662" 
d="M301 766q0 -178 67.5 -319t196.5 -222.5t299 -81.5q145 0 263 58t185.5 162.5t67.5 236.5h-682v158h861v-90q0 -202 -87.5 -358t-245.5 -242t-362 -86q-163 0 -302.5 60t-236 164.5t-150.5 249t-54 310.5t53 310.5t149 249.5t236 165.5t307 60.5q254 0 430.5 -130.5
t233.5 -342.5l-172 -47q-44 163 -173 261t-319 98q-171 0 -300.5 -82t-197 -223.5t-67.5 -319.5z" />
    <glyph glyph-name="H" unicode="H" horiz-adv-x="1701" 
d="M233 0v1536h175v-641h888v641h174v-1536h-174v735h-888v-735h-175z" />
    <glyph glyph-name="I" unicode="I" horiz-adv-x="641" 
d="M233 0v1536h175v-1536h-175z" />
    <glyph glyph-name="J" unicode="J" horiz-adv-x="1226" 
d="M537 -16q-209 0 -338 108t-154 287l172 43q12 -126 98.5 -201.5t221.5 -75.5q145 0 226 83.5t81 226.5v921h-684v160h858v-1079q0 -208 -133 -340.5t-348 -132.5z" />
    <glyph glyph-name="K" unicode="K" horiz-adv-x="1429" 
d="M408 727v-727h-175v1536h175v-647h225l551 647h211l-619 -723l635 -813h-209l-575 727h-219z" />
    <glyph glyph-name="L" unicode="L" horiz-adv-x="1193" 
d="M233 0v1536h175v-1376h747v-160h-922z" />
    <glyph glyph-name="M" unicode="M" horiz-adv-x="1921" 
d="M233 0v1536h187l545 -694l536 694h187v-1536h-168v1298l-541 -692h-39l-539 688v-1294h-168z" />
    <glyph glyph-name="N" unicode="N" horiz-adv-x="1685" 
d="M233 0v1536h187l864 -1280v1280h168v-1536h-186l-867 1284v-1284h-166z" />
    <glyph glyph-name="O" unicode="O" horiz-adv-x="1736" 
d="M121 768q0 225 94 404t264.5 279.5t388.5 100.5q164 0 304 -59t237 -162t152 -248.5t55 -314.5q0 -168 -55 -313.5t-152 -249t-237 -162.5t-304 -59q-218 0 -388.5 101t-264.5 279.5t-94 403.5zM1436 768q0 183 -70 324.5t-199.5 220t-298.5 78.5q-257 0 -412 -172.5
t-155 -450.5t155 -450.5t412 -172.5q169 0 298.5 78.5t199.5 220t70 324.5z" />
    <glyph glyph-name="P" unicode="P" horiz-adv-x="1372" 
d="M233 0v1536h558q227 0 365 -129.5t138 -333.5q0 -202 -138.5 -334.5t-364.5 -132.5h-383v-606h-175zM791 1376h-383v-610h383q153 0 240 84.5t87 222.5t-87 220.5t-240 82.5z" />
    <glyph glyph-name="Q" unicode="Q" horiz-adv-x="1736" 
d="M121 768q0 225 94 404t264.5 279.5t388.5 100.5q164 0 304 -59t237 -162t152 -248.5t55 -314.5q0 -220 -91 -397t-253 -277l203 -241l-123 -105l-230 277q-118 -41 -254 -41q-218 0 -388.5 101t-264.5 279.5t-94 403.5zM301 768q0 -278 155 -450.5t412 -172.5
q59 0 140 15l-346 418l122 102l381 -457q129 77 200 218.5t71 326.5q0 183 -70 324.5t-199.5 220t-298.5 78.5q-257 0 -412 -172.5t-155 -450.5z" />
    <glyph glyph-name="R" unicode="R" horiz-adv-x="1431" 
d="M233 0v1536h560q204 0 332 -119t128 -311q0 -155 -90.5 -263t-236.5 -141l465 -702h-207l-449 676h-327v-676h-175zM791 1376h-383v-540h374q132 0 212.5 75t80.5 195q0 122 -77.5 196t-206.5 74z" />
    <glyph glyph-name="S" unicode="S" horiz-adv-x="1308" 
d="M1219 1151l-175 -43q-25 132 -123 210.5t-243 78.5q-158 0 -255 -69.5t-97 -190.5q0 -52 24 -92.5t50.5 -64.5t92 -48t99.5 -32.5t121 -28.5l12 -3q94 -21 149 -36.5t132 -49.5t119.5 -75t74 -109.5t31.5 -157.5q0 -209 -151 -332.5t-396 -123.5q-253 0 -407.5 124.5
t-196.5 331.5l176 45q31 -161 141.5 -252.5t286.5 -91.5q159 0 264 76.5t105 212.5q0 31 -7.5 58t-18.5 48t-31.5 40t-39.5 33t-50 27.5t-55 22t-62 19t-64 16.5t-68 15q-193 45 -272 79q-177 74 -221 219q-17 54 -17 119q0 127 71.5 225t191.5 149.5t268 51.5
q215 0 358 -107t183 -294z" />
    <glyph glyph-name="T" unicode="T" horiz-adv-x="1241" 
d="M532 0v1376h-491v160h1159v-160h-493v-1376h-175z" />
    <glyph glyph-name="U" unicode="U" horiz-adv-x="1568" 
d="M784 145q182 0 293 111.5t111 304.5v975h174v-973q0 -265 -160.5 -422t-417.5 -157q-258 0 -417.5 156.5t-159.5 422.5v973h174v-975q0 -194 111 -305t292 -111z" />
    <glyph glyph-name="V" unicode="V" horiz-adv-x="1386" 
d="M35 1536h184l477 -1339l475 1339h181l-553 -1536h-215z" />
    <glyph glyph-name="W" unicode="W" horiz-adv-x="1931" 
d="M942 1044h43l414 -819l293 1311h174l-342 -1536h-191l-372 739l-365 -739h-188l-342 1536h174l295 -1315z" />
    <glyph glyph-name="X" unicode="X" horiz-adv-x="1355" 
d="M244 1536l436 -621l424 621h196l-524 -758l547 -778h-205l-454 647l-439 -647h-190l530 786l-526 750h205z" />
    <glyph glyph-name="Y" unicode="Y" horiz-adv-x="1337" 
d="M584 0v680l-568 856h205l455 -690l450 690h197l-565 -856v-680h-174z" />
    <glyph glyph-name="Z" unicode="Z" horiz-adv-x="1261" 
d="M80 1536h1134v-39l-895 -1337h875v-160h-1147v39l893 1337h-860v160z" />
    <glyph glyph-name="bracketleft" unicode="[" horiz-adv-x="790" 
d="M233 -334v1952h486v-148h-326v-1656h326v-148h-486z" />
    <glyph glyph-name="bracketright" unicode="]" horiz-adv-x="790" 
d="M557 -334h-485v148h325v1656h-325v148h485v-1952z" />
    <glyph glyph-name="a" unicode="a" horiz-adv-x="1087" 
d="M793 0l-5 201q-60 -103 -159 -160t-221 -57q-144 0 -231 75t-87 203q0 71 28 125.5t84.5 93.5t125 65.5t166.5 51.5l290 70q-12 108 -80.5 163.5t-179.5 55.5q-229 0 -284 -203l-152 29q35 146 151.5 228.5t286.5 82.5q192 0 303 -103.5t111 -289.5v-631h-147zM258 276
q0 -70 46 -112.5t128 -42.5q144 0 249 106t105 287v23l-290 -72q-122 -31 -180 -74t-58 -115z" />
    <glyph glyph-name="b" unicode="b" 
d="M168 0v1536h160v-696q64 88 158 136t208 48q210 0 350 -147t140 -371q0 -226 -140 -374t-350 -148q-114 0 -209 49.5t-159 138.5l-4 -172h-154zM672 877q-152 0 -248 -103.5t-96 -267.5q0 -166 96 -270.5t248 -104.5q151 0 247.5 105t96.5 270q0 164 -96.5 267.5
t-247.5 103.5z" />
    <glyph glyph-name="c" unicode="c" horiz-adv-x="1128" 
d="M88 510q0 222 144.5 368t363.5 146q182 0 305.5 -96t159.5 -258l-164 -29q-27 109 -105.5 172.5t-195.5 63.5q-149 0 -244.5 -102t-95.5 -265q0 -168 95 -273.5t245 -105.5q124 0 204.5 67.5t104.5 180.5l162 -27q-28 -161 -157 -264.5t-314 -103.5q-220 0 -364 149.5
t-144 376.5z" />
    <glyph glyph-name="d" unicode="d" 
d="M1104 0h-154l-4 164q-64 -86 -157 -133t-205 -47q-214 0 -355 147.5t-141 374.5q0 224 141 371t355 147q110 0 203 -46.5t157 -129.5v688h160v-1536zM600 877q-151 0 -247.5 -103.5t-96.5 -267.5q0 -165 96.5 -270t247.5 -105q153 0 248.5 104.5t95.5 270.5
q0 165 -95.5 268t-248.5 103z" />
    <glyph glyph-name="e" unicode="e" horiz-adv-x="1167" 
d="M604 -16q-233 0 -374.5 147t-141.5 379q0 223 143 368.5t363 145.5q213 0 348 -132.5t135 -342.5q0 -1 -6 -82h-815q13 -159 106.5 -249.5t241.5 -90.5q241 0 307 209l156 -29q-37 -150 -161 -236.5t-302 -86.5zM594 885q-124 0 -216 -75.5t-116 -207.5h643
q-9 126 -96 204.5t-215 78.5z" />
    <glyph glyph-name="f" unicode="f" horiz-adv-x="813" 
d="M795 868h-379v-868h-162v868h-244v39l86 101h158v200q0 154 96 249t244 95q90 0 164 -30l-35 -140q-70 25 -119 25q-90 0 -139 -49t-49 -148v-202h379v-140z" />
    <glyph glyph-name="g" unicode="g" 
d="M88 508q0 225 140 370.5t356 145.5q112 0 205 -47t157 -133l4 164h156v-998q0 -216 -138 -346.5t-364 -130.5q-200 0 -326.5 94.5t-148.5 245.5l164 31q18 -103 98.5 -163t212.5 -60q155 0 247.5 83t92.5 236v172q-64 -85 -156.5 -131.5t-203.5 -46.5q-216 0 -356 146
t-140 368zM256 508q0 -164 95 -265.5t251 -101.5q152 0 247 102t95 265t-95 266t-247 103q-156 0 -251 -102.5t-95 -266.5z" />
    <glyph glyph-name="h" unicode="h" horiz-adv-x="1193" 
d="M168 0v1536h160v-676q53 76 136.5 120t188.5 44q113 0 201 -46t141.5 -142.5t53.5 -231.5v-604h-160v590q0 138 -73 211t-193 73q-126 0 -210.5 -82.5t-84.5 -236.5v-555h-160z" />
    <glyph glyph-name="i" unicode="i" horiz-adv-x="495" 
d="M137 1354q0 49 31.5 79.5t79.5 30.5t80 -30.5t32 -79.5q0 -47 -32.5 -79t-79.5 -32t-79 32t-32 79zM168 0v1008h160v-1008h-160z" />
    <glyph glyph-name="j" unicode="j" horiz-adv-x="495" 
d="M137 1354q0 49 31.5 79.5t79.5 30.5t80 -30.5t32 -79.5q0 -47 -32.5 -79t-79.5 -32t-79 32t-32 79zM168 1008h160v-1182q0 -136 -77.5 -214.5t-209.5 -78.5q-72 0 -141 27l34 135q56 -17 97 -17q65 0 101 39t36 109v1182z" />
    <glyph glyph-name="k" unicode="k" horiz-adv-x="1050" 
d="M817 1008h199l-416 -455l438 -553h-192l-383 475h-135v-475h-160v1536h160v-905h145z" />
    <glyph glyph-name="l" unicode="l" horiz-adv-x="495" 
d="M168 0v1536h160v-1536h-160z" />
    <glyph glyph-name="m" unicode="m" horiz-adv-x="1742" 
d="M168 0v1008h154l4 -131q102 147 284 147q102 0 183.5 -45.5t124.5 -132.5q50 82 131.5 130t189.5 48q157 0 256.5 -100t99.5 -285v-639h-161v631q0 119 -60.5 181t-163.5 62q-109 0 -179 -64t-70 -185v-625h-160v631q0 119 -60.5 181t-162.5 62q-108 0 -179 -68.5
t-71 -195.5v-610h-160z" />
    <glyph glyph-name="n" unicode="n" horiz-adv-x="1193" 
d="M168 0v1008h154l4 -152q54 79 138 123.5t189 44.5q113 0 201 -46t141.5 -142.5t53.5 -231.5v-604h-160v590q0 138 -73 211t-193 73q-126 0 -210.5 -82.5t-84.5 -236.5v-555h-160z" />
    <glyph glyph-name="o" unicode="o" horiz-adv-x="1216" 
d="M608 1024q226 0 373 -147t147 -371q0 -227 -147 -374.5t-373 -147.5t-373 147.5t-147 374.5q0 224 147 371t373 147zM608 877q-155 0 -253.5 -103.5t-98.5 -267.5q0 -166 98.5 -270.5t253.5 -104.5t254 104.5t99 270.5q0 164 -99 267.5t-254 103.5z" />
    <glyph glyph-name="p" unicode="p" 
d="M168 1008h154l4 -174q64 91 158.5 140.5t209.5 49.5q210 0 350 -147t140 -371q0 -226 -140 -374t-350 -148q-114 0 -208 48.5t-158 137.5v-621h-160v1459zM672 877q-152 0 -248 -103.5t-96 -267.5q0 -166 96 -270.5t248 -104.5q151 0 247.5 105t96.5 270
q0 164 -96.5 267.5t-247.5 103.5z" />
    <glyph glyph-name="q" unicode="q" 
d="M584 1024q111 0 204.5 -47t157.5 -133l4 164h154v-1459h-160v611q-64 -83 -157 -129.5t-203 -46.5q-213 0 -354.5 148t-141.5 374q0 224 141.5 371t354.5 147zM600 877q-151 0 -247.5 -103.5t-96.5 -267.5q0 -165 96.5 -270t247.5 -105q153 0 248.5 104.5t95.5 270.5
q0 165 -95.5 268t-248.5 103z" />
    <glyph glyph-name="r" unicode="r" horiz-adv-x="749" 
d="M168 0v1008h158l4 -160q44 82 123 129t182 47q48 0 100 -14l-24 -158q-52 14 -103 14q-120 0 -200 -90t-80 -252v-524h-160z" />
    <glyph glyph-name="s" unicode="s" horiz-adv-x="954" 
d="M500 -16q-173 0 -284.5 77.5t-149.5 227.5l161 37q51 -205 275 -205q103 0 166 42t63 122q0 33 -14 58t-36 40t-56.5 27t-68.5 19t-78 15q-9 1 -13 2q-36 6 -57.5 10t-56 12t-55.5 15.5t-50 20t-47 26.5t-37.5 34.5t-30.5 44t-18 54t-7 66.5q0 127 109.5 211t278.5 84
q152 0 252 -69.5t137 -198.5l-160 -37q-45 168 -229 168q-100 0 -162 -41t-62 -111q0 -30 13 -52t27 -35t50 -24.5t56 -16t70 -13.5q21 -4 32 -6h1h1l1 -1h1h1h1h1h1l1 -1h1h2q156 -28 222 -59q145 -68 145 -232q0 -138 -104 -224.5t-293 -86.5z" />
    <glyph glyph-name="t" unicode="t" horiz-adv-x="761" 
d="M18 907l299 279h37v-178h377v-140h-377v-557q0 -180 172 -180q68 0 154 35l41 -133q-104 -49 -223 -49q-145 0 -225 78.5t-80 222.5v583h-175v39z" />
    <glyph glyph-name="u" unicode="u" horiz-adv-x="1173" 
d="M303 1008v-605q0 -129 71 -200.5t193 -71.5q55 0 104 17.5t89 52.5t63 94.5t23 136.5v576h160v-1008h-148l-4 145q-106 -161 -326 -161q-170 0 -277.5 108t-107.5 297v619h160z" />
    <glyph glyph-name="v" unicode="v" horiz-adv-x="1009" 
d="M412 0l-396 1008h179l313 -822l315 822h170l-401 -1008h-180z" />
    <glyph glyph-name="w" unicode="w" horiz-adv-x="1357" 
d="M45 1008h162l192 -815l267 528h28l269 -533l190 820h160l-240 -1008h-174l-219 436l-221 -436h-174z" />
    <glyph glyph-name="x" unicode="x" horiz-adv-x="960" 
d="M215 1008l266 -371l252 371h180l-342 -494l369 -514h-188l-287 397l-266 -397h-174l350 522l-350 486h190z" />
    <glyph glyph-name="y" unicode="y" horiz-adv-x="1044" 
d="M16 1008h181l348 -795l311 795h170l-588 -1459h-168l185 459z" />
    <glyph glyph-name="z" unicode="z" horiz-adv-x="888" 
d="M852 139v-139h-809v39l561 829h-545v140h789v-39l-567 -830h571z" />
    <glyph glyph-name="braceleft" unicode="{" horiz-adv-x="860" 
d="M797 -348h-185q-92 0 -162.5 31.5t-112.5 100t-36 165.5l29 405q7 99 -49.5 156t-165.5 63v138q106 5 163.5 53t51.5 137l-29 406q-10 149 82 230t242 81h172v-145h-166q-85 0 -129 -49t-37 -140l27 -364q9 -104 -50 -183t-153 -98q94 -21 153 -101.5t50 -187.5l-27 -364
q-7 -92 37 -139.5t129 -47.5h166v-147z" />
    <glyph glyph-name="braceright" unicode="}" horiz-adv-x="860" 
d="M63 -348v147h166q85 0 129 47.5t37 139.5l-26 364q-9 107 49.5 187.5t152.5 101.5q-94 19 -152.5 98t-49.5 183l26 364q7 91 -37 140t-129 49h-166v145h173q150 0 241.5 -81t81.5 -230l-29 -406q-6 -89 51.5 -137t163.5 -53v-138q-109 -6 -165.5 -63t-49.5 -156l29 -405
q6 -97 -36 -165.5t-112.5 -100t-162.5 -31.5h-185z" />
    <glyph glyph-name="exclamdown" unicode="&#xa1;" horiz-adv-x="651" 
d="M326 1024q53 0 86.5 -32.5t33.5 -86.5q0 -52 -33.5 -84.5t-86.5 -32.5q-54 0 -87.5 32.5t-33.5 84.5q0 54 33.5 86.5t87.5 32.5zM420 -530h-189l27 1075h135z" />
    <glyph glyph-name="questiondown" unicode="&#xbf;" horiz-adv-x="1101" 
d="M606 1024q53 0 87 -33t34 -86q0 -52 -34 -84.5t-87 -32.5q-54 0 -87.5 32.5t-33.5 84.5q0 54 33.5 86.5t87.5 32.5zM543 -547q-201 0 -328 105t-127 286q0 80 24.5 145.5t64 109.5t87.5 81.5t95.5 69t87 63t64 72.5t24.5 90v70h163v-76q0 -67 -24 -123t-63 -94.5
t-85.5 -73.5t-93 -68t-85.5 -69t-63 -85.5t-24 -109.5q0 -114 79 -177.5t210 -63.5q136 0 222 69.5t114 200.5l157 -35q-41 -185 -173 -286t-326 -101z" />
    <glyph glyph-name="uni0400" unicode="&#x400;" horiz-adv-x="1263" 
d="M430 1915h207l203 -277h-148zM233 0v1536h947v-160h-772v-485h550v-160h-550v-571h792v-160h-967z" />
    <glyph glyph-name="afii10023" unicode="&#x401;" horiz-adv-x="1263" 
d="M528 1698q-44 0 -75 31t-31 75t31 75.5t75 31.5t74.5 -31.5t30.5 -75.5t-30.5 -75t-74.5 -31zM907 1698q-44 0 -75 31t-31 75t31 75.5t75 31.5t75.5 -31.5t31.5 -75.5t-31.5 -75t-75.5 -31zM233 0v1536h947v-160h-772v-485h550v-160h-550v-571h792v-160h-967z" />
    <glyph glyph-name="afii10051" unicode="&#x402;" horiz-adv-x="1744" 
d="M532 0v1376h-491v160h1159v-160h-493v-506q174 154 411 154q135 0 242 -50t173 -155t66 -252v-209q0 -166 -100 -270t-256 -104q-117 0 -186 26l35 150q56 -19 120 -19q102 0 157.5 63.5t55.5 172.5v178q0 155 -92.5 233t-247.5 78q-117 0 -215 -45.5t-163 -134.5v-686
h-175z" />
    <glyph glyph-name="afii10052" unicode="&#x403;" horiz-adv-x="1171" 
d="M811 1915h207l-262 -277h-150zM233 0v1536h920v-160h-745v-1376h-175z" />
    <glyph glyph-name="afii10053" unicode="&#x404;" horiz-adv-x="1613" 
d="M121 768q0 221 94 400t264 281.5t383 102.5q261 0 439.5 -141.5t228.5 -376.5l-174 -45q-39 183 -168.5 292.5t-325.5 109.5q-230 0 -379 -149t-176 -380h608v-160h-612q13 -159 81.5 -284.5t192.5 -200t285 -74.5q206 0 342 113t168 295l176 -43q-56 -243 -237 -384.5
t-449 -141.5q-163 0 -302 60t-235 164.5t-150 249.5t-54 312z" />
    <glyph glyph-name="afii10054" unicode="&#x405;" horiz-adv-x="1308" 
d="M1219 1151l-175 -43q-25 132 -123 210.5t-243 78.5q-158 0 -255 -69.5t-97 -190.5q0 -52 24 -92.5t50.5 -64.5t92 -48t99.5 -32.5t121 -28.5l12 -3q94 -21 149 -36.5t132 -49.5t119.5 -75t74 -109.5t31.5 -157.5q0 -209 -151 -332.5t-396 -123.5q-253 0 -407.5 124.5
t-196.5 331.5l176 45q31 -161 141.5 -252.5t286.5 -91.5q159 0 264 76.5t105 212.5q0 31 -7.5 58t-18.5 48t-31.5 40t-39.5 33t-50 27.5t-55 22t-62 19t-64 16.5t-68 15q-193 45 -272 79q-177 74 -221 219q-17 54 -17 119q0 127 71.5 225t191.5 149.5t268 51.5
q215 0 358 -107t183 -294z" />
    <glyph glyph-name="afii10055" unicode="&#x406;" horiz-adv-x="641" 
d="M233 0v1536h175v-1536h-175z" />
    <glyph glyph-name="afii10056" unicode="&#x407;" horiz-adv-x="641" 
d="M160 1696q-41 0 -71 31t-30 75q0 45 29.5 76t71.5 31q43 0 71.5 -30.5t28.5 -76.5q0 -44 -28.5 -75t-71.5 -31zM479 1696q-41 0 -70.5 31t-29.5 75q0 45 29 76t71 31q43 0 72 -30.5t29 -76.5q0 -44 -29 -75t-72 -31zM233 0v1536h175v-1536h-175z" />
    <glyph glyph-name="afii10057" unicode="&#x408;" horiz-adv-x="1226" 
d="M537 -16q-209 0 -338 108t-154 287l172 43q12 -126 98.5 -201.5t221.5 -75.5q145 0 226 83.5t81 226.5v921h-684v160h858v-1079q0 -208 -133 -340.5t-348 -132.5z" />
    <glyph glyph-name="afii10058" unicode="&#x409;" horiz-adv-x="2211" 
d="M45 152q41 -9 51 -9q47 0 79.5 20.5t63 82.5t49.5 174t33 295.5t21 447.5l8 373h930v-555h315q136 0 241.5 -38.5t170.5 -106.5t98 -155t33 -189q0 -227 -145.5 -359.5t-397.5 -132.5h-489v1376h-586l-8 -252q-6 -224 -17.5 -386.5t-32 -294t-49.5 -215.5t-72 -140.5
t-97 -80t-127 -23.5q-49 0 -101 20zM1599 821h-319v-661h322q165 0 261.5 89.5t96.5 242.5q0 151 -97.5 240t-263.5 89z" />
    <glyph glyph-name="afii10059" unicode="&#x40a;" horiz-adv-x="2347" 
d="M233 0v1536h175v-623h786v623h174v-623h395q127 0 226 -36.5t160 -101t92.5 -146.5t31.5 -178q0 -208 -136.5 -329.5t-373.5 -121.5h-569v752h-786v-752h-175zM1767 752h-399v-592h401q153 0 239.5 78.5t86.5 212.5q0 138 -87 219.5t-241 81.5z" />
    <glyph glyph-name="afii10060" unicode="&#x40b;" horiz-adv-x="1744" 
d="M532 0v1376h-491v160h1159v-160h-493v-506q174 154 411 154q135 0 242 -50t173 -155t66 -252v-567h-174v555q0 155 -92.5 233t-247.5 78q-117 0 -215 -45.5t-163 -134.5v-686h-175z" />
    <glyph glyph-name="afii10061" unicode="&#x40c;" horiz-adv-x="1429" 
d="M870 1915h207l-262 -277h-149zM408 727v-727h-175v1536h175v-647h225l551 647h211l-619 -723l635 -813h-209l-575 727h-219z" />
    <glyph glyph-name="uni040D" unicode="&#x40d;" horiz-adv-x="1679" 
d="M545 1915h207l202 -277h-147zM233 0v1536h170v-1272l877 1272h166v-1536h-170v1270l-877 -1270h-166z" />
    <glyph glyph-name="afii10062" unicode="&#x40e;" horiz-adv-x="1335" 
d="M676 1751q78 0 128 42.5t50 121.5h152q0 -139 -91 -220t-239 -81q-147 0 -237.5 81t-90.5 220h154q0 -79 48.5 -121.5t125.5 -42.5zM406 0l188 395l-584 1141h193l485 -944l453 944h184l-735 -1536h-184z" />
    <glyph glyph-name="afii10145" unicode="&#x40f;" horiz-adv-x="1648" 
d="M233 0v1536h175v-1376h835v1376h174v-1536h-508v-369h-168v369h-508z" />
    <glyph glyph-name="afii10017" unicode="&#x410;" horiz-adv-x="1427" 
d="M29 0l587 1536h193l590 -1536h-185l-200 530h-611l-200 -530h-174zM463 688h491l-245 649z" />
    <glyph glyph-name="afii10018" unicode="&#x411;" horiz-adv-x="1384" 
d="M233 0v1536h941v-160h-766v-463h391q125 0 222.5 -35.5t157.5 -98.5t90.5 -144.5t30.5 -177.5q0 -213 -133.5 -335t-367.5 -122h-566zM803 760h-395v-606h395q148 0 233.5 80.5t85.5 222.5q0 139 -86.5 221t-232.5 82z" />
    <glyph glyph-name="afii10019" unicode="&#x412;" horiz-adv-x="1433" 
d="M233 0v1536h584q197 0 313.5 -104.5t116.5 -282.5q0 -124 -57 -210t-162 -130q141 -40 216 -138t75 -243q0 -198 -126.5 -313t-342.5 -115h-617zM803 1384h-395v-514h403q121 0 191.5 71.5t70.5 191.5q0 116 -72 183.5t-198 67.5zM842 717h-434v-565h434
q140 0 220.5 73.5t80.5 202.5q0 131 -81.5 210t-219.5 79z" />
    <glyph glyph-name="afii10020" unicode="&#x413;" horiz-adv-x="1171" 
d="M233 0v1536h920v-160h-745v-1376h-175z" />
    <glyph glyph-name="afii10021" unicode="&#x414;" horiz-adv-x="1591" 
d="M10 -369v529h133q63 74 98.5 173.5t58 297t30.5 532.5l8 373h991v-1376h195v-529h-168v369h-1178v-369h-168zM500 1122q-11 -404 -50 -620.5t-128 -341.5h835v1216h-651z" />
    <glyph glyph-name="afii10022" unicode="&#x415;" horiz-adv-x="1263" 
d="M233 0v1536h947v-160h-772v-485h550v-160h-550v-571h792v-160h-967z" />
    <glyph glyph-name="afii10024" unicode="&#x416;" horiz-adv-x="2009" 
d="M1092 1536v-647h211l469 647h200l-528 -723l545 -813h-203l-492 727h-202v-727h-172v727h-207l-496 -727h-197l547 809l-528 727h199l473 -647h209v647h172z" />
    <glyph glyph-name="afii10025" unicode="&#x417;" horiz-adv-x="1345" 
d="M662 -16q-115 0 -212 26t-174.5 78t-129 136t-70.5 194l170 43q28 -162 137 -240t281 -78t277.5 78t105.5 221q0 130 -81 201.5t-241 71.5h-233v159h225q139 0 215 68t76 191q0 121 -94.5 191.5t-256.5 70.5q-93 0 -170 -27.5t-133.5 -89.5t-74.5 -154l-164 37
q43 190 191.5 290.5t350.5 100.5q242 0 384.5 -111.5t142.5 -295.5q0 -113 -55.5 -200t-157.5 -140q121 -41 186.5 -137.5t65.5 -229.5q0 -206 -154.5 -330t-406.5 -124z" />
    <glyph glyph-name="afii10026" unicode="&#x418;" horiz-adv-x="1679" 
d="M233 0v1536h170v-1272l877 1272h166v-1536h-170v1270l-877 -1270h-166z" />
    <glyph glyph-name="afii10027" unicode="&#x419;" horiz-adv-x="1679" 
d="M852 1751q78 0 128 42.5t50 121.5h152q0 -139 -91 -220t-239 -81q-147 0 -237.5 81t-90.5 220h154q0 -79 48.5 -121.5t125.5 -42.5zM233 0v1536h170v-1272l877 1272h166v-1536h-170v1270l-877 -1270h-166z" />
    <glyph glyph-name="afii10028" unicode="&#x41a;" horiz-adv-x="1429" 
d="M408 727v-727h-175v1536h175v-647h225l551 647h211l-619 -723l635 -813h-209l-575 727h-219z" />
    <glyph glyph-name="afii10029" unicode="&#x41b;" horiz-adv-x="1589" 
d="M45 152q41 -9 51 -9q47 0 79.5 20.5t63 82.5t49.5 174t33 295.5t21 447.5l8 373h1006v-1536h-174v1376h-662l-8 -252q-6 -224 -17.5 -386.5t-32 -294t-49.5 -215.5t-72 -140.5t-97 -80t-127 -23.5q-49 0 -101 20z" />
    <glyph glyph-name="afii10030" unicode="&#x41c;" horiz-adv-x="1921" 
d="M233 0v1536h187l545 -694l536 694h187v-1536h-168v1298l-541 -692h-39l-539 688v-1294h-168z" />
    <glyph glyph-name="afii10031" unicode="&#x41d;" horiz-adv-x="1701" 
d="M233 0v1536h175v-641h888v641h174v-1536h-174v735h-888v-735h-175z" />
    <glyph glyph-name="afii10032" unicode="&#x41e;" horiz-adv-x="1736" 
d="M121 768q0 225 94 404t264.5 279.5t388.5 100.5q164 0 304 -59t237 -162t152 -248.5t55 -314.5q0 -168 -55 -313.5t-152 -249t-237 -162.5t-304 -59q-218 0 -388.5 101t-264.5 279.5t-94 403.5zM1436 768q0 183 -70 324.5t-199.5 220t-298.5 78.5q-257 0 -412 -172.5
t-155 -450.5t155 -450.5t412 -172.5q169 0 298.5 78.5t199.5 220t70 324.5z" />
    <glyph glyph-name="afii10033" unicode="&#x41f;" horiz-adv-x="1677" 
d="M233 0v1536h1213v-1536h-174v1376h-864v-1376h-175z" />
    <glyph glyph-name="afii10034" unicode="&#x420;" horiz-adv-x="1372" 
d="M233 0v1536h558q227 0 365 -129.5t138 -333.5q0 -202 -138.5 -334.5t-364.5 -132.5h-383v-606h-175zM791 1376h-383v-610h383q153 0 240 84.5t87 222.5t-87 220.5t-240 82.5z" />
    <glyph glyph-name="afii10035" unicode="&#x421;" horiz-adv-x="1613" 
d="M121 768q0 221 94 400t264 281.5t383 102.5q261 0 439.5 -141.5t228.5 -376.5l-174 -45q-39 183 -168.5 292.5t-325.5 109.5q-169 0 -298.5 -84.5t-196 -225t-66.5 -313.5q0 -130 38.5 -243.5t109.5 -198.5t177.5 -134t235.5 -49q206 0 342 113t168 295l176 -43
q-56 -243 -237 -384.5t-449 -141.5q-163 0 -302 60t-235 164.5t-150 249.5t-54 312z" />
    <glyph glyph-name="afii10036" unicode="&#x422;" horiz-adv-x="1241" 
d="M532 0v1376h-491v160h1159v-160h-493v-1376h-175z" />
    <glyph glyph-name="afii10037" unicode="&#x423;" horiz-adv-x="1335" 
d="M406 0l188 395l-584 1141h193l485 -944l453 944h184l-735 -1536h-184z" />
    <glyph glyph-name="afii10038" unicode="&#x424;" horiz-adv-x="1767" 
d="M797 -27v172h-9q-145 0 -272 43.5t-222.5 122.5t-150.5 199.5t-55 265.5t55.5 264t151 198t223.5 122t273 43h6v160h174v-160h6q145 0 273 -43t223.5 -122t150.5 -198t55 -264q0 -117 -35.5 -218t-100 -176t-152 -129t-193 -81t-221.5 -27h-6v-172h-174zM981 1245h-10
v-942h10q146 0 262.5 52.5t188 161.5t71.5 259t-71.5 258t-188 159.5t-262.5 51.5zM786 303h11v942h-11q-146 0 -262.5 -51.5t-188 -159.5t-71.5 -258t71.5 -259t188 -161.5t262.5 -52.5z" />
    <glyph glyph-name="afii10039" unicode="&#x425;" horiz-adv-x="1355" 
d="M244 1536l436 -621l424 621h196l-524 -758l547 -778h-205l-454 647l-439 -647h-190l530 786l-526 750h205z" />
    <glyph glyph-name="afii10040" unicode="&#x426;" horiz-adv-x="1679" 
d="M233 0v1536h175v-1376h835v1376h174v-1376h193v-529h-166v369h-1211z" />
    <glyph glyph-name="afii10041" unicode="&#x427;" horiz-adv-x="1478" 
d="M670 596q-257 0 -400 119t-143 358v463h174v-424q0 -186 97 -270t296 -84q185 0 377 76v702h174v-1536h-174v674q-221 -78 -401 -78z" />
    <glyph glyph-name="afii10042" unicode="&#x428;" horiz-adv-x="2254" 
d="M233 0v1536h175v-1376h632v1376h174v-1376h633v1376h174v-1536h-1788z" />
    <glyph glyph-name="afii10043" unicode="&#x429;" horiz-adv-x="2285" 
d="M233 0v1536h175v-1376h632v1376h174v-1376h633v1376h174v-1376h195v-529h-168v369h-1815z" />
    <glyph glyph-name="afii10044" unicode="&#x42a;" horiz-adv-x="1523" 
d="M418 0v1376h-412v160h586v-555h336q130 0 231.5 -38.5t163.5 -106.5t93.5 -155t31.5 -189q0 -227 -138.5 -359.5t-381.5 -132.5h-510zM930 821h-338v-661h340q157 0 248.5 89t91.5 243q0 151 -92 240t-250 89z" />
    <glyph glyph-name="afii10045" unicode="&#x42b;" horiz-adv-x="1910" 
d="M233 0v1536h175v-555h315q136 0 241.5 -38.5t170.5 -106.5t98 -155t33 -189q0 -227 -145.5 -359.5t-397.5 -132.5h-490zM1503 0v1536h174v-1536h-174zM727 821h-319v-661h321q165 0 261.5 89.5t96.5 242.5q0 151 -97 240t-263 89z" />
    <glyph glyph-name="afii10046" unicode="&#x42c;" horiz-adv-x="1339" 
d="M233 0v1536h175v-555h315q136 0 241.5 -38.5t170.5 -106.5t98 -155t33 -189q0 -227 -145.5 -359.5t-397.5 -132.5h-490zM727 821h-319v-661h321q165 0 261.5 89.5t96.5 242.5q0 151 -97 240t-263 89z" />
    <glyph glyph-name="afii10047" unicode="&#x42d;" horiz-adv-x="1607" 
d="M662 858h643q-11 117 -51 214t-106.5 169.5t-164.5 113t-219 40.5q-201 0 -336.5 -109t-169.5 -287l-162 41q47 233 228.5 372.5t441.5 139.5q171 0 308.5 -59.5t226.5 -165.5t136.5 -248.5t47.5 -310.5q0 -169 -48.5 -312.5t-138.5 -249t-229 -165t-311 -59.5
q-276 0 -447 137t-219 379l170 43q32 -185 160 -292.5t340 -107.5q245 0 386 153t159 404h-645v160z" />
    <glyph glyph-name="afii10048" unicode="&#x42e;" horiz-adv-x="2304" 
d="M233 0v1536h175v-651h286q37 297 239.5 482t502.5 185q164 0 303.5 -59t237 -162.5t152 -248.5t54.5 -314q0 -225 -93.5 -403.5t-264.5 -279.5t-389 -101q-211 0 -378.5 95.5t-263.5 263.5t-106 382h-280v-725h-175zM2003 768q0 278 -156 450.5t-411 172.5
q-257 0 -412.5 -172.5t-155.5 -450.5t155.5 -450.5t412.5 -172.5q255 0 411 172.5t156 450.5z" />
    <glyph glyph-name="afii10049" unicode="&#x42f;" horiz-adv-x="1464" 
d="M1231 0h-174v647h-357l-440 -647h-199l449 657q-167 24 -272 140t-105 295q0 198 131.5 321t343.5 123h623v-1536zM606 807h451v569h-447q-133 0 -215 -78t-82 -206q0 -127 81 -206t212 -79z" />
    <glyph glyph-name="afii10065" unicode="&#x430;" horiz-adv-x="1087" 
d="M793 0l-5 201q-60 -103 -159 -160t-221 -57q-144 0 -231 75t-87 203q0 71 28 125.5t84.5 93.5t125 65.5t166.5 51.5l290 70q-12 108 -80.5 163.5t-179.5 55.5q-229 0 -284 -203l-152 29q35 146 151.5 228.5t286.5 82.5q192 0 303 -103.5t111 -289.5v-631h-147zM258 276
q0 -70 46 -112.5t128 -42.5q144 0 249 106t105 287v23l-290 -72q-122 -31 -180 -74t-58 -115z" />
    <glyph glyph-name="afii10066" unicode="&#x431;" horiz-adv-x="1243" 
d="M635 -16q-251 0 -391 175t-140 511q0 390 146 596t471 239l162 19q88 7 174 28l18 -139q-60 -19 -192 -35l-168 -18q-213 -24 -324.5 -151.5t-128.5 -405.5q72 117 184.5 168t233.5 51q206 0 340.5 -144.5t134.5 -371.5q0 -230 -143.5 -376t-376.5 -146zM641 881
q-158 0 -258 -105t-100 -270q0 -166 98.5 -270.5t253.5 -104.5t253.5 104.5t98.5 270.5t-94.5 270.5t-251.5 104.5z" />
    <glyph glyph-name="afii10067" unicode="&#x432;" horiz-adv-x="1060" 
d="M168 0v1008h455q137 0 219 -69t82 -189q0 -79 -39 -136.5t-109 -85.5q92 -24 142.5 -86.5t50.5 -158.5q0 -131 -94 -207t-232 -76h-475zM600 874h-274v-290h284q75 0 115.5 38t40.5 109q0 143 -166 143zM606 135q97 0 147 41t50 119q0 77 -46.5 117.5t-135.5 40.5h-295
v-318h280z" />
    <glyph glyph-name="afii10068" unicode="&#x433;" horiz-adv-x="878" 
d="M168 0v1008h670v-140h-510v-868h-160z" />
    <glyph glyph-name="afii10069" unicode="&#x434;" horiz-adv-x="1150" 
d="M18 -317v456h95q56 55 82 162.5t36 357.5l13 349h719v-869h137v-456h-156v317h-772v-317h-154zM387 666q-8 -203 -32.5 -329.5t-73.5 -197.5h522v729h-408z" />
    <glyph glyph-name="afii10070" unicode="&#x435;" horiz-adv-x="1167" 
d="M604 -16q-233 0 -374.5 147t-141.5 379q0 223 143 368.5t363 145.5q213 0 348 -132.5t135 -342.5q0 -1 -6 -82h-815q13 -159 106.5 -249.5t241.5 -90.5q241 0 307 209l156 -29q-37 -150 -161 -236.5t-302 -86.5zM594 885q-124 0 -216 -75.5t-116 -207.5h643
q-9 126 -96 204.5t-215 78.5z" />
    <glyph glyph-name="afii10072" unicode="&#x436;" horiz-adv-x="1433" 
d="M221 1008l285 -408h133v408h154v-408h131l288 408h181l-346 -471l372 -537h-184l-317 457h-125v-457h-154v457h-127l-319 -457h-179l369 526l-344 482h182z" />
    <glyph glyph-name="afii10073" unicode="&#x437;" horiz-adv-x="995" 
d="M483 -16q-167 0 -277.5 68.5t-150.5 197.5l158 47q50 -174 272 -174q114 0 182 44t68 130q0 75 -53 114.5t-135 39.5h-180v137h176q78 0 128 39t50 108q0 73 -58 112.5t-167 39.5q-219 0 -263 -170l-151 35q34 129 143.5 200.5t276.5 71.5q176 0 279.5 -75.5
t103.5 -200.5q0 -77 -44.5 -135t-127.5 -87q90 -24 140 -85t50 -152q0 -148 -119 -226.5t-301 -78.5z" />
    <glyph glyph-name="afii10074" unicode="&#x438;" horiz-adv-x="1179" 
d="M168 0v1008h154v-772l536 772h154v-1008h-154v772l-536 -772h-154z" />
    <glyph glyph-name="afii10075" unicode="&#x439;" horiz-adv-x="1179" 
d="M598 1305q73 0 118 39t46 114h141q0 -129 -84 -204.5t-221 -75.5q-136 0 -220 75.5t-85 204.5h143q0 -75 45 -114t117 -39zM168 0v1008h154v-772l536 772h154v-1008h-154v772l-536 -772h-154z" />
    <glyph glyph-name="afii10076" unicode="&#x43a;" horiz-adv-x="1056" 
d="M168 1008h160v-402h149l344 402h191l-408 -473l443 -535h-197l-381 451h-141v-451h-160v1008z" />
    <glyph glyph-name="afii10077" unicode="&#x43b;" horiz-adv-x="1124" 
d="M27 135q20 -4 36 -4q29 0 50 10t42.5 42t36.5 88t27 151.5t17 228.5l14 357h706v-1008h-161v868h-394l-8 -233q-7 -158 -25 -273.5t-44 -187.5t-64 -115t-79.5 -59t-96.5 -16q-40 0 -78 14z" />
    <glyph glyph-name="afii10078" unicode="&#x43c;" horiz-adv-x="1386" 
d="M168 0v1008h166l358 -471l361 471h166v-1008h-154v795l-358 -469h-37l-348 460v-786h-154z" />
    <glyph glyph-name="afii10079" unicode="&#x43d;" horiz-adv-x="1187" 
d="M168 0v1008h160v-406h530v406h162v-1008h-162v461h-530v-461h-160z" />
    <glyph glyph-name="afii10080" unicode="&#x43e;" horiz-adv-x="1216" 
d="M608 1024q226 0 373 -147t147 -371q0 -227 -147 -374.5t-373 -147.5t-373 147.5t-147 374.5q0 224 147 371t373 147zM608 877q-155 0 -253.5 -103.5t-98.5 -267.5q0 -166 98.5 -270.5t253.5 -104.5t254 104.5t99 270.5q0 164 -99 267.5t-254 103.5z" />
    <glyph glyph-name="afii10081" unicode="&#x43f;" horiz-adv-x="1175" 
d="M168 0v1008h840v-1008h-162v868h-518v-868h-160z" />
    <glyph glyph-name="afii10082" unicode="&#x440;" 
d="M168 1008h154l4 -174q64 91 158.5 140.5t209.5 49.5q210 0 350 -147t140 -371q0 -226 -140 -374t-350 -148q-114 0 -208 48.5t-158 137.5v-621h-160v1459zM672 877q-152 0 -248 -103.5t-96 -267.5q0 -166 96 -270.5t248 -104.5q151 0 247.5 105t96.5 270
q0 164 -96.5 267.5t-247.5 103.5z" />
    <glyph glyph-name="afii10083" unicode="&#x441;" horiz-adv-x="1128" 
d="M88 510q0 222 144.5 368t363.5 146q182 0 305.5 -96t159.5 -258l-164 -29q-27 109 -105.5 172.5t-195.5 63.5q-149 0 -244.5 -102t-95.5 -265q0 -168 95 -273.5t245 -105.5q124 0 204.5 67.5t104.5 180.5l162 -27q-28 -161 -157 -264.5t-314 -103.5q-220 0 -364 149.5
t-144 376.5z" />
    <glyph glyph-name="afii10084" unicode="&#x442;" horiz-adv-x="944" 
d="M391 0v868h-350v140h862v-140h-350v-868h-162z" />
    <glyph glyph-name="afii10085" unicode="&#x443;" horiz-adv-x="1044" 
d="M16 1008h181l348 -795l311 795h170l-588 -1459h-168l185 459z" />
    <glyph glyph-name="afii10086" unicode="&#x444;" horiz-adv-x="1402" 
d="M625 -451v451q-242 5 -389.5 143.5t-147.5 362.5q0 221 148 359.5t389 142.5v528h155v-528q241 -6 387 -144t146 -358q0 -223 -146 -361.5t-387 -144.5v-451h-155zM252 506q0 -166 98.5 -264.5t274.5 -102.5v729q-176 -4 -274.5 -101t-98.5 -261zM1149 506
q0 164 -97.5 261t-271.5 101v-729q173 4 271 103t98 264z" />
    <glyph glyph-name="afii10087" unicode="&#x445;" horiz-adv-x="960" 
d="M215 1008l266 -371l252 371h180l-342 -494l369 -514h-188l-287 397l-266 -397h-174l350 522l-350 486h190z" />
    <glyph glyph-name="afii10088" unicode="&#x446;" horiz-adv-x="1181" 
d="M168 0v1008h160v-869h506v869h161v-869h135v-456h-153v317h-809z" />
    <glyph glyph-name="afii10089" unicode="&#x447;" horiz-adv-x="1067" 
d="M479 375q-193 0 -290 88t-97 256v289h160v-269q0 -223 254 -223q112 0 231 35v457h162v-1008h-162v414q-131 -39 -258 -39z" />
    <glyph glyph-name="afii10090" unicode="&#x448;" horiz-adv-x="1613" 
d="M168 0v1008h160v-869h399v869h160v-869h399v869h162v-1008h-1280z" />
    <glyph glyph-name="afii10091" unicode="&#x449;" horiz-adv-x="1634" 
d="M168 0v1008h160v-869h399v869h160v-869h399v869h162v-869h135v-456h-156v317h-1259z" />
    <glyph glyph-name="afii10092" unicode="&#x44a;" horiz-adv-x="1093" 
d="M264 0v868h-260v140h420v-338h270q160 0 257.5 -92t97.5 -244q0 -151 -97.5 -242.5t-257.5 -91.5h-430zM666 528h-242v-389h242q105 0 160 50.5t55 144.5q0 95 -54.5 144.5t-160.5 49.5z" />
    <glyph glyph-name="afii10093" unicode="&#x44b;" horiz-adv-x="1400" 
d="M168 0v1008h160v-338h264q160 0 257 -92t97 -244q0 -151 -97 -242.5t-257 -91.5h-424zM1073 0v1008h160v-1008h-160zM563 528h-235v-389h235q105 0 160 50.5t55 144.5q0 95 -54.5 144.5t-160.5 49.5z" />
    <glyph glyph-name="afii10094" unicode="&#x44c;" horiz-adv-x="997" 
d="M168 0v1008h160v-338h270q160 0 257 -92t97 -244q0 -151 -97 -242.5t-257 -91.5h-430zM569 528h-241v-389h241q105 0 160 50.5t55 144.5q0 95 -54.5 144.5t-160.5 49.5z" />
    <glyph glyph-name="afii10095" unicode="&#x44d;" horiz-adv-x="1134" 
d="M1044 498q0 -226 -138.5 -370t-368.5 -144q-184 0 -307 93t-162 253l157 37q28 -113 110 -176.5t204 -63.5q150 0 239 87.5t103 231.5h-400v136h396q-22 138 -109.5 218.5t-224.5 80.5q-123 0 -207 -63t-113 -167l-155 33q44 153 170 246.5t305 93.5q228 0 364.5 -147
t136.5 -379z" />
    <glyph glyph-name="afii10096" unicode="&#x44e;" horiz-adv-x="1632" 
d="M168 0v1008h160v-406h182q31 187 171.5 304.5t340.5 117.5q226 0 373 -147t147 -371q0 -227 -147 -374.5t-373 -147.5q-215 0 -359 133t-159 344h-176v-461h-160zM1022 877q-155 0 -253.5 -103.5t-98.5 -267.5q0 -166 98.5 -270.5t253.5 -104.5t253.5 104.5t98.5 270.5
q0 164 -98.5 267.5t-253.5 103.5z" />
    <glyph glyph-name="afii10097" unicode="&#x44f;" horiz-adv-x="1087" 
d="M115 698q0 136 87.5 223t227.5 87h490v-1008h-158v395h-225l-295 -395h-181l304 406q-112 19 -181 96.5t-69 195.5zM473 530h289v344h-287q-90 0 -141 -43t-51 -129t50 -129t140 -43z" />
    <glyph glyph-name="uni0450" unicode="&#x450;" horiz-adv-x="1167" 
d="M279 1464h206l203 -276h-147zM604 -16q-233 0 -374.5 147t-141.5 379q0 223 143 368.5t363 145.5q213 0 348 -132.5t135 -342.5q0 -1 -6 -82h-815q13 -159 106.5 -249.5t241.5 -90.5q241 0 307 209l156 -29q-37 -150 -161 -236.5t-302 -86.5zM594 885q-124 0 -216 -75.5
t-116 -207.5h643q-9 126 -96 204.5t-215 78.5z" />
    <glyph glyph-name="afii10071" unicode="&#x451;" horiz-adv-x="1167" 
d="M393 1247q-44 0 -75 31.5t-31 75.5t31 75t75 31t74.5 -31t30.5 -75t-30.5 -75.5t-74.5 -31.5zM772 1247q-44 0 -75 31.5t-31 75.5t31 75t75 31t75.5 -31t31.5 -75t-31.5 -75.5t-75.5 -31.5zM604 -16q-233 0 -374.5 147t-141.5 379q0 223 143 368.5t363 145.5
q213 0 348 -132.5t135 -342.5q0 -1 -6 -82h-815q13 -159 106.5 -249.5t241.5 -90.5q241 0 307 209l156 -29q-37 -150 -161 -236.5t-302 -86.5zM594 885q-124 0 -216 -75.5t-116 -207.5h643q-9 126 -96 204.5t-215 78.5z" />
    <glyph glyph-name="afii10099" unicode="&#x452;" horiz-adv-x="1193" 
d="M168 0v1190h-133v139h133v207h160v-207h327v-139h-327v-330q53 76 136.5 120t188.5 44q113 0 201 -46t141.5 -142.5t53.5 -231.5v-778q0 -136 -76.5 -214.5t-206.5 -78.5q-73 0 -145 27l32 135q59 -17 101 -17q63 0 99 39t36 109v764q0 138 -73 211t-193 73
q-126 0 -210.5 -82.5t-84.5 -236.5v-555h-160z" />
    <glyph glyph-name="afii10100" unicode="&#x453;" horiz-adv-x="878" 
d="M627 1464h207l-263 -276h-149zM168 0v1008h670v-140h-510v-868h-160z" />
    <glyph glyph-name="afii10101" unicode="&#x454;" horiz-adv-x="1128" 
d="M88 510q0 222 144.5 368t363.5 146q182 0 305.5 -96t159.5 -258l-156 -29q-27 109 -107 172.5t-200 63.5q-132 0 -224 -80.5t-112 -214.5h391v-140h-393q20 -141 112 -226t224 -85q129 0 211 67t106 181l154 -27q-28 -161 -157 -264.5t-314 -103.5q-220 0 -364 149.5
t-144 376.5z" />
    <glyph glyph-name="afii10102" unicode="&#x455;" horiz-adv-x="954" 
d="M500 -16q-173 0 -284.5 77.5t-149.5 227.5l161 37q51 -205 275 -205q103 0 166 42t63 122q0 33 -14 58t-36 40t-56.5 27t-68.5 19t-78 15q-9 1 -13 2q-36 6 -57.5 10t-56 12t-55.5 15.5t-50 20t-47 26.5t-37.5 34.5t-30.5 44t-18 54t-7 66.5q0 127 109.5 211t278.5 84
q152 0 252 -69.5t137 -198.5l-160 -37q-45 168 -229 168q-100 0 -162 -41t-62 -111q0 -30 13 -52t27 -35t50 -24.5t56 -16t70 -13.5q21 -4 32 -6h1h1l1 -1h1h1h1h1h1l1 -1h1h2q156 -28 222 -59q145 -68 145 -232q0 -138 -104 -224.5t-293 -86.5z" />
    <glyph glyph-name="afii10103" unicode="&#x456;" horiz-adv-x="495" 
d="M137 1354q0 49 31.5 79.5t79.5 30.5t80 -30.5t32 -79.5q0 -47 -32.5 -79t-79.5 -32t-79 32t-32 79zM168 0v1008h160v-1008h-160z" />
    <glyph glyph-name="afii10104" unicode="&#x457;" horiz-adv-x="495" 
d="M125 1247q-38 0 -63 28.5t-25 78.5q0 49 25 76.5t63 27.5q40 0 65 -27.5t25 -76.5q0 -50 -25.5 -78.5t-64.5 -28.5zM371 1247q-38 0 -63 28.5t-25 78.5q0 49 25 76.5t63 27.5q39 0 63.5 -27t24.5 -77t-24.5 -78.5t-63.5 -28.5zM168 0v1008h160v-1008h-160z" />
    <glyph glyph-name="afii10105" unicode="&#x458;" horiz-adv-x="495" 
d="M137 1354q0 49 31.5 79.5t79.5 30.5t80 -30.5t32 -79.5q0 -47 -32.5 -79t-79.5 -32t-79 32t-32 79zM168 1008h160v-1182q0 -136 -77.5 -214.5t-209.5 -78.5q-72 0 -141 27l34 135q56 -17 97 -17q65 0 101 39t36 109v1182z" />
    <glyph glyph-name="afii10106" unicode="&#x459;" horiz-adv-x="1576" 
d="M27 135q24 -4 39 -4q28 0 48.5 10t42 42t36.5 88t26.5 151.5t16.5 228.5l14 357h665v-338h263q160 0 257 -92t97 -244q0 -151 -97 -242.5t-257 -91.5h-424v868h-353l-8 -233q-7 -158 -25 -273.5t-44 -187.5t-64 -115t-79.5 -59t-96.5 -16q-40 0 -78 14zM1149 528h-234
v-389h234q105 0 160 50.5t55 144.5q0 95 -54.5 144.5t-160.5 49.5z" />
    <glyph glyph-name="afii10107" unicode="&#x45a;" horiz-adv-x="1654" 
d="M168 0v1008h160v-385h495v385h162v-385h285q153 0 246.5 -86.5t93.5 -227.5q0 -140 -93 -224.5t-247 -84.5h-447v481h-495v-481h-160zM1243 483h-258v-346h258q199 0 199 172q0 174 -199 174z" />
    <glyph glyph-name="afii10108" unicode="&#x45b;" horiz-adv-x="1193" 
d="M168 0v1190h-133v139h133v207h160v-207h327v-139h-327v-330q53 76 136.5 120t188.5 44q113 0 201 -46t141.5 -142.5t53.5 -231.5v-604h-160v590q0 138 -73 211t-193 73q-126 0 -210.5 -82.5t-84.5 -236.5v-555h-160z" />
    <glyph glyph-name="afii10109" unicode="&#x45c;" horiz-adv-x="1056" 
d="M676 1464h207l-262 -276h-150zM168 1008h160v-402h149l344 402h191l-408 -473l443 -535h-197l-381 451h-141v-451h-160v1008z" />
    <glyph glyph-name="uni045D" unicode="&#x45d;" horiz-adv-x="1179" 
d="M272 1464h207l203 -276h-147zM168 0v1008h154v-772l536 772h154v-1008h-154v772l-536 -772h-154z" />
    <glyph glyph-name="afii10110" unicode="&#x45e;" horiz-adv-x="1044" 
d="M528 1305q73 0 118 39t46 114h142q0 -129 -84.5 -204.5t-221.5 -75.5q-136 0 -220 75.5t-85 204.5h144q0 -75 44.5 -114t116.5 -39zM16 1008h181l348 -795l311 795h170l-588 -1459h-168l185 459z" />
    <glyph glyph-name="afii10193" unicode="&#x45f;" horiz-adv-x="1163" 
d="M168 0v1008h160v-869h508v869h159v-1008h-336v-317h-155v317h-336z" />
    <glyph glyph-name="afii10146" unicode="&#x462;" horiz-adv-x="1349" 
d="M233 0v1167h-188v158h188v246h175v-246h426v-158h-426v-264h362q127 0 225 -36t158 -99t90.5 -144t30.5 -175q0 -207 -134.5 -328t-369.5 -121h-537zM774 752h-366v-600h366q150 0 237 80t87 217t-88 220t-236 83z" />
    <glyph glyph-name="afii10194" unicode="&#x463;" horiz-adv-x="1017" 
d="M168 0v911h-133v138h133v487h160v-487h327v-138h-327v-241h290q160 0 257.5 -92t97.5 -244q0 -151 -97.5 -242.5t-257.5 -91.5h-450zM590 528h-262v-389h262q105 0 160 50.5t55 144.5q0 95 -54.5 144.5t-160.5 49.5z" />
    <glyph glyph-name="afii10147" unicode="&#x472;" horiz-adv-x="1736" 
d="M121 768q0 225 94 404t264.5 279.5t388.5 100.5q164 0 304 -59t237 -162t152 -248.5t55 -314.5q0 -168 -55 -313.5t-152 -249t-237 -162.5t-304 -59q-218 0 -388.5 101t-264.5 279.5t-94 403.5zM868 1391q-234 0 -386 -146.5t-177 -388.5h1127q-25 241 -178 388t-386 147
zM868 145q238 0 391 150.5t173 398.5h-1127q20 -248 172 -398.5t391 -150.5z" />
    <glyph glyph-name="afii10195" unicode="&#x473;" horiz-adv-x="1216" 
d="M608 1024q226 0 373 -147t147 -371q0 -227 -147 -374.5t-373 -147.5t-373 147.5t-147 374.5q0 224 147 371t373 147zM608 877q-136 0 -229.5 -80.5t-116.5 -214.5h692q-23 134 -116.5 214.5t-229.5 80.5zM608 131q139 0 234 85.5t114 225.5h-696q19 -140 114 -225.5
t234 -85.5z" />
    <glyph glyph-name="afii10148" unicode="&#x474;" horiz-adv-x="1488" 
d="M35 1536h184l477 -1339l381 1079q53 151 120 213.5t181 62.5q59 0 111 -20l-29 -148q-41 9 -53 9q-52 0 -89 -25.5t-63 -95.5l-456 -1272h-215z" />
    <glyph glyph-name="afii10196" unicode="&#x475;" horiz-adv-x="1073" 
d="M410 0l-394 1008h179l311 -824l244 627q45 119 102.5 166t138.5 47q41 0 82 -12l-20 -140q-30 5 -37 5q-40 0 -66 -22t-55 -93l-305 -762h-180z" />
    <glyph glyph-name="afii10050" unicode="&#x490;" horiz-adv-x="1171" 
d="M233 0v1536h754v330h166v-490h-745v-1376h-175z" />
    <glyph glyph-name="afii10098" unicode="&#x491;" horiz-adv-x="878" 
d="M168 0v1008h516v260h154v-400h-510v-868h-160z" />
    <glyph glyph-name="ellipsis" unicode="&#x2026;" horiz-adv-x="1341" 
d="M229 -18q-53 0 -86.5 32.5t-33.5 85.5q0 52 33.5 84.5t86.5 32.5q54 0 87.5 -32.5t33.5 -84.5q0 -54 -33.5 -86t-87.5 -32zM670 -18q-53 0 -87 32.5t-34 85.5q0 52 34 84.5t87 32.5q54 0 87.5 -32.5t33.5 -84.5q0 -54 -33.5 -86t-87.5 -32zM1112 -18q-53 0 -87 32.5
t-34 85.5q0 52 34 84.5t87 32.5q54 0 87.5 -32.5t33.5 -84.5q0 -54 -33.5 -86t-87.5 -32z" />
    <glyph glyph-name="Euro" unicode="&#x20ac;" horiz-adv-x="1634" 
d="M78 518v146h168q-4 70 -4 104t4 104h-168v146h192q57 245 223 389.5t416 144.5q247 0 401 -132t203 -357l-161 -45q-39 173 -149.5 275t-293.5 102q-175 0 -292 -101t-166 -276h583v-146h-610q-4 -66 -4 -104t4 -104h610v-146h-583q49 -175 165.5 -276t292.5 -101
q192 0 308 105.5t147 277.5l164 -45q-51 -228 -213.5 -362.5t-411.5 -134.5q-248 0 -413 145.5t-222 390.5h-190z" />
    <glyph glyph-name="uni20BD" unicode="&#x20bd;" horiz-adv-x="1433" 
d="M299 0v233h-256v154h256v234h-256v159h256v756h565q225 0 361.5 -127.5t136.5 -327.5q0 -130 -60.5 -234t-175 -165t-262.5 -61h-391v-234h449v-154h-449v-233h-174zM864 1376h-391v-596h391q150 0 235 82.5t85 218.5q0 135 -85 215t-235 80z" />
    <glyph glyph-name="arrowleft" unicode="&#x2190;" horiz-adv-x="1331" 
d="M76 694l485 549l109 -96l-340 -379h909v-150h-907l338 -378l-109 -95z" />
    <glyph glyph-name="arrowup" unicode="&#x2191;" horiz-adv-x="1269" 
d="M711 113h-150v977l-379 -361l-96 102l549 523l549 -523l-99 -104l-374 360v-974z" />
    <glyph glyph-name="arrowright" unicode="&#x2192;" horiz-adv-x="1331" 
d="M92 618v150h909l-339 379l108 96l485 -549l-485 -549l-108 95l337 378h-907z" />
    <glyph glyph-name="arrowdown" unicode="&#x2193;" horiz-adv-x="1269" 
d="M635 100l-549 525l98 104l377 -360v972h150v-972l374 358l97 -102z" />
    <glyph glyph-name="E.alt" horiz-adv-x="1458" 
d="M684 506q-112 0 -210 45t-165 135q-18 -63 -18 -119q0 -193 129 -307.5t332 -114.5q198 0 327.5 107t163.5 326l168 -29q-51 -281 -224 -423t-435 -142q-134 0 -250 39.5t-199.5 111t-131.5 177t-48 231.5q0 168 84 301q-27 89 -27 180q0 235 159 381.5t411 146.5
q219 0 363 -119.5t183 -318.5l-168 -41q-26 144 -127 233t-256 89q-176 0 -286.5 -98.5t-110.5 -266.5q0 -33 2 -47q150 135 344 135q154 0 249 -85t95 -222q0 -135 -98 -220t-256 -85zM676 969q-80 0 -157 -36t-130 -102q43 -86 120 -131t167 -45q89 0 142.5 42.5
t53.5 113.5t-53.5 114.5t-142.5 43.5z" />
    <glyph glyph-name="L.alt" horiz-adv-x="1759" 
d="M1765 319q-46 -178 -138 -256.5t-243 -78.5q-64 0 -127.5 17t-110.5 39t-105.5 64t-93 71.5t-93.5 82.5q-5 5 -15.5 14.5t-15.5 14.5q-83 -158 -177.5 -230.5t-237.5 -72.5q-164 0 -265.5 94.5t-101.5 251.5q0 161 107 263.5t278 102.5q159 0 342 -141l260 608
q35 83 62.5 138.5t63 106.5t72.5 80.5t85.5 46.5t107.5 17q41 0 94 -12l-24 -158q-33 11 -59 11q-70 0 -115 -51t-103 -179l-313 -721q1 -1 47 -41q62 -54 91 -78.5t83.5 -66.5t90.5 -60.5t83 -34.5t90 -16q171 0 230 224zM217 334q0 -89 53.5 -141t145.5 -52q88 0 151.5 56
t132.5 202q-77 69 -140.5 104.5t-131.5 35.5q-96 0 -153.5 -57.5t-57.5 -147.5z" />
    <glyph glyph-name="M.alt" horiz-adv-x="2074" 
d="M477 1061l-229 -1061h-172l229 1071q102 481 500 481q163 0 303 -96q150 96 326 96q236 0 381 -174t145 -479q0 -365 -252 -899h-186q270 543 270 891q0 227 -93.5 366.5t-273.5 139.5q-114 0 -200 -47q112 -128 173.5 -303.5t61.5 -327.5q0 -200 -101.5 -323.5
t-264.5 -123.5q-165 0 -264 112t-99 323q0 156 65.5 334t186.5 307q-84 49 -178 49q-128 0 -209.5 -79.5t-118.5 -256.5zM1098 428q88 0 141 78t53 209q0 140 -51.5 287.5t-142.5 248.5q-97 -101 -147 -251t-50 -289q0 -141 54 -212t143 -71z" />
    <glyph glyph-name="Q.alt" horiz-adv-x="1736" 
d="M868 -16q-218 0 -388.5 101t-264.5 279.5t-94 403.5t94 404t264.5 279.5t388.5 100.5q122 0 233.5 -33.5t205 -99.5t163 -159t108 -219.5t38.5 -272.5q0 -216 -94 -400t-267 -286l230 -297l-127 -98l-256 329q-115 -32 -234 -32zM301 768q0 -278 156 -450.5t411 -172.5
q60 0 123 13l-131 168q-125 161 -125 333t113 285t293 113t295 -127q-32 122 -92 213.5t-137.5 144.5t-162 78t-176.5 25q-257 0 -412 -172.5t-155 -450.5zM1008 403l145 -188q126 68 200 184t74 242t-71.5 197t-194.5 71q-116 0 -186 -72.5t-70 -179.5q0 -122 103 -254z
" />
    <glyph glyph-name="R.alt" horiz-adv-x="1583" 
d="M291 0q-65 265 -97 452.5t-32 364.5q0 328 186 531.5t481 203.5q259 0 425.5 -160t166.5 -409q0 -255 -182 -412l217 -571h-178l-180 479q-99 -45 -221 -45q-170 0 -274.5 86t-104.5 230q0 132 86 214.5t221 82.5q129 0 214 -78t146 -234q86 99 86 242
q0 185 -113.5 300.5t-308.5 115.5q-224 0 -360.5 -154.5t-136.5 -421.5q0 -170 32.5 -354t100.5 -463h-174zM657 758q0 -82 62.5 -128t169.5 -46q88 0 155 37q-62 159 -113 216.5t-126 57.5q-68 0 -108 -38t-40 -99z" />
    <glyph glyph-name="S.alt" horiz-adv-x="1372" 
d="M201 1186q0 109 65.5 193.5t173.5 128.5t238 44q211 0 345 -98t165 -270l-170 -41q-21 120 -108 190t-236 70q-132 0 -214.5 -56.5t-82.5 -150.5q0 -93 95 -144q51 -27 201 -69l19 -6l127 -35q86 -23 151.5 -48.5t128.5 -64.5t103 -87t64 -116.5t24 -152.5
q0 -153 -87 -265.5t-232 -168t-328 -55.5q-262 0 -417.5 97t-155.5 275q0 151 112.5 241.5t294.5 90.5t304 -97.5t147 -262.5l-164 -45q-17 119 -94.5 188.5t-196.5 69.5q-106 0 -170.5 -49.5t-64.5 -131.5q0 -110 111 -168.5t292 -58.5q94 0 177.5 20.5t151 60t107 105
t39.5 148.5q0 69 -25.5 122.5t-77.5 91.5t-115.5 64t-154.5 50l-125 32q-56 15 -91 25.5t-84 28.5t-79.5 35.5t-64.5 45t-53 58.5t-32 73.5t-13 92.5z" />
    <glyph glyph-name="W.alt" horiz-adv-x="2025" 
d="M1937 633q0 -305 -154 -477t-405 -172q-189 0 -338 110q-141 -110 -313 -110q-364 0 -448 422l-224 1130h174l217 -1094q57 -299 295 -299q96 0 185 60q-83 97 -140.5 231t-81.5 257t-24 235q0 223 103 343t272 120q161 0 258.5 -120.5t97.5 -332.5q0 -172 -66.5 -374.5
t-185.5 -350.5q100 -68 227 -68q128 0 216.5 66.5t129 174.5t40.5 249q0 303 -226 686l-98 166l147 84l105 -183q237 -406 237 -753zM1051 1231q-90 0 -145.5 -77.5t-55.5 -221.5q0 -153 49.5 -324t144.5 -289q91 120 144 289.5t53 323.5q0 141 -51.5 220t-138.5 79z" />
    <glyph glyph-name="arrowleft.alt" horiz-adv-x="1812" 
d="M74 696l557 621l108 -96l-413 -457q263 -23 409 -23q123 0 252 21q-49 116 -49 250q0 181 93.5 285t240.5 104q132 0 210.5 -79.5t78.5 -203.5q0 -133 -88.5 -248.5t-255.5 -185.5q125 -131 346 -131q97 0 184 18l14 -139q-90 -18 -215 -18q-159 0 -282.5 58.5
t-202.5 162.5q-145 -37 -338 -37q-164 0 -391 25l407 -449l-108 -96zM1092 1022q0 -125 45 -221q136 50 203 132t67 175q0 73 -38.5 114.5t-104.5 41.5q-77 0 -124.5 -65.5t-47.5 -176.5z" />
    <glyph glyph-name="arrowright.alt" horiz-adv-x="1812" 
d="M66 598q85 -18 184 -18q217 0 344 127q-169 67 -255.5 177.5t-86.5 241.5q0 133 82.5 218.5t222.5 85.5q141 0 229 -98t88 -269q0 -148 -55 -270q125 -23 258 -23q151 0 410 23l-414 454l109 99l557 -621l-557 -621l-109 99l410 448q-221 -24 -393 -24q-197 0 -349 35
q-81 -104 -204.5 -162t-282.5 -58q-113 0 -201 19zM406 1135q0 -93 68 -174.5t204 -131.5q45 96 45 224q0 110 -46.5 174.5t-123.5 64.5q-68 0 -107.5 -42t-39.5 -115z" />
    <glyph glyph-name="afii10022.alt" horiz-adv-x="1458" 
d="M684 506q-112 0 -210 45t-165 135q-18 -63 -18 -119q0 -193 129 -307.5t332 -114.5q198 0 327.5 107t163.5 326l168 -29q-51 -281 -224 -423t-435 -142q-134 0 -250 39.5t-199.5 111t-131.5 177t-48 231.5q0 168 84 301q-27 89 -27 180q0 235 159 381.5t411 146.5
q219 0 363 -119.5t183 -318.5l-168 -41q-26 144 -127 233t-256 89q-176 0 -286.5 -98.5t-110.5 -266.5q0 -33 2 -47q150 135 344 135q154 0 249 -85t95 -222q0 -135 -98 -220t-256 -85zM676 969q-80 0 -157 -36t-130 -102q43 -86 120 -131t167 -45q89 0 142.5 42.5
t53.5 113.5t-53.5 114.5t-142.5 43.5z" />
    <glyph glyph-name="afii10023.alt" horiz-adv-x="1458" 
d="M573 1698q-44 0 -75 31t-31 75t31 75.5t75 31.5t74.5 -31.5t30.5 -75.5t-30.5 -75t-74.5 -31zM952 1698q-44 0 -75 31t-31 75t31 75.5t75 31.5t75.5 -31.5t31.5 -75.5t-31.5 -75t-75.5 -31zM684 506q-112 0 -210 45t-165 135q-18 -63 -18 -119q0 -193 129 -307.5
t332 -114.5q198 0 327.5 107t163.5 326l168 -29q-51 -281 -224 -423t-435 -142q-134 0 -250 39.5t-199.5 111t-131.5 177t-48 231.5q0 168 84 301q-27 89 -27 180q0 235 159 381.5t411 146.5q219 0 363 -119.5t183 -318.5l-168 -41q-26 144 -127 233t-256 89
q-176 0 -286.5 -98.5t-110.5 -266.5q0 -33 2 -47q150 135 344 135q154 0 249 -85t95 -222q0 -135 -98 -220t-256 -85zM676 969q-80 0 -157 -36t-130 -102q43 -86 120 -131t167 -45q89 0 142.5 42.5t53.5 113.5t-53.5 114.5t-142.5 43.5z" />
    <glyph glyph-name="afii10025.alt" horiz-adv-x="1456" 
d="M784 487q-148 0 -240.5 85.5t-92.5 224.5t98.5 225t255.5 86q190 0 328 -135q2 12 2 37q0 184 -106.5 286.5t-291.5 102.5q-173 0 -288 -98t-142 -250l-166 34q39 208 200 337.5t396 129.5q259 0 411 -144.5t152 -379.5q0 -99 -36 -188q84 -128 84 -303
q0 -247 -172.5 -400t-450.5 -153q-259 0 -430.5 135t-212.5 385l170 41q31 -197 159 -299.5t314 -102.5q204 0 328.5 108.5t124.5 293.5q0 63 -17 129q-71 -90 -168 -138.5t-209 -48.5zM616 797q0 -70 49.5 -113t131.5 -43q94 0 173.5 43.5t123.5 130.5q-52 67 -128 105
t-153 38q-89 0 -143 -44t-54 -117z" />
    <glyph glyph-name="afii10030.alt" horiz-adv-x="2068" 
d="M1317 1397q-96 0 -178 -54q115 -147 180 -355t65 -380q0 -191 -99.5 -305.5t-260.5 -114.5q-160 0 -258 111t-98 297q0 176 66 387t186 360q-80 54 -160 54q-122 0 -203 -86t-119 -277l-207 -1034h-170l207 1042q54 266 177.5 388t320.5 122q141 0 266 -98q129 98 281 98
q190 0 308.5 -117.5t168.5 -375.5l203 -1059h-174l-203 1047q-65 350 -299 350zM836 594q0 -116 52.5 -183t139.5 -67q86 0 137.5 68.5t51.5 187.5q0 159 -52 337t-141 298q-91 -120 -139.5 -299t-48.5 -342z" />
    <glyph glyph-name="afii10038.alt" horiz-adv-x="2168" 
d="M997 -27v338q-123 -213 -370 -213q-231 0 -370.5 181t-139.5 479q0 300 149 486.5t391 185.5q226 -3 340 -195v328h174v-334q112 198 340 201q242 1 391.5 -185.5t149.5 -486.5q0 -298 -139.5 -479t-370.5 -181q-249 0 -371 209v-334h-174zM293 756q0 -228 103.5 -365
t279.5 -137q142 0 231.5 111.5t89.5 310.5v176q0 197 -89.5 308.5t-231.5 113.5q-176 -1 -279.5 -143t-103.5 -375zM1876 756q0 233 -103.5 375t-279.5 143q-142 -2 -232 -113.5t-90 -308.5v-176q0 -199 90 -310.5t232 -111.5q176 0 279.5 137t103.5 365z" />
    <glyph glyph-name="afii10040.alt" horiz-adv-x="1689" 
d="M1362 -397l-49 -21l-58 137l35 15q107 43 107 127q0 30 -16 65.5t-71 137.5q-5 8 -7.5 13t-6.5 12.5t-8 14.5l-45 82q-202 -202 -495 -202q-255 0 -395 138.5t-140 412.5v1001h172v-995q0 -199 98.5 -298.5t274.5 -99.5q245 0 409 189q-219 408 -219 815
q0 196 87.5 299.5t234.5 103.5q154 0 234.5 -110t80.5 -307q0 -191 -57 -415t-174 -399l71 -131q88 -162 113 -222t25 -116q0 -92 -51.5 -151t-149.5 -96zM1118 1147q0 -350 150 -666q75 142 111 316t36 336q0 130 -39 199t-108 69q-68 0 -109 -62.5t-41 -191.5z" />
    <glyph glyph-name="afii10042.alt" horiz-adv-x="2377" 
d="M2216 158h108v-158h-120q-192 0 -336 147q-178 -163 -414 -163q-243 0 -412 180q-172 -180 -397 -180q-87 0 -161 26t-135.5 80.5t-97 151t-36.5 225.5l-2 1069h166l4 -1063q0 -77 17 -137.5t44.5 -97t65 -60t74.5 -32.5t78 -9q160 0 288 144q-110 170 -163.5 401
t-53.5 453q0 196 88 306.5t240 110.5q144 0 227.5 -110.5t83.5 -306.5q0 -220 -59 -448t-170 -396q134 -154 315 -154q183 0 320 131q-101 166 -150 399.5t-49 467.5q0 196 87.5 306.5t238.5 110.5q144 0 228.5 -111.5t84.5 -307.5q0 -227 -62 -462t-184 -405
q100 -108 244 -108zM1745 1135q0 -207 32.5 -401.5t102.5 -334.5q86 143 130 337t44 399q0 132 -40.5 201t-112.5 69t-114 -69t-42 -201zM899 1135q0 -187 38.5 -375t113.5 -332q74 141 114.5 327t40.5 380q0 133 -39.5 201.5t-109.5 68.5q-74 0 -116 -69t-42 -201z" />
    <glyph glyph-name="afii10043.alt" horiz-adv-x="2318" 
d="M1950 -397l-49 -21l-60 137l37 15q107 43 107 127q0 30 -15 63.5t-70 135.5q-15 28 -24 44l-18 33q-173 -153 -404 -153q-240 0 -410 178q-175 -178 -399 -178q-87 0 -161 26t-135.5 80.5t-97 151t-36.5 225.5l-2 1069h166l4 -1063q0 -77 17 -137.5t44.5 -97t65 -60
t74.5 -32.5t78 -9q159 0 288 142q-107 168 -160 395.5t-53 445.5q0 212 87 322t241 110q146 0 228.5 -110t82.5 -322q0 -216 -60 -441t-171 -392q130 -150 313 -150q186 0 322 133q-100 181 -153.5 402.5t-53.5 447.5q0 212 86 322t239 110q148 0 232 -110t84 -322
q0 -226 -61.5 -458t-182.5 -400l41 -74q86 -155 110.5 -217.5t24.5 -120.5q0 -92 -49.5 -151t-146.5 -96zM1739 1120q0 -417 145 -714q82 140 123 327.5t41 386.5q0 285 -152 285q-157 0 -157 -285zM903 1120q0 -185 37.5 -370t112.5 -326q76 140 117.5 323t41.5 373
q0 285 -151 285q-158 0 -158 -285z" />
    <glyph glyph-name="afii10049.alt" horiz-adv-x="1581" 
d="M1378 0h-172v922q0 223 -114.5 347t-313.5 124q-200 0 -316 -111.5t-116 -296.5q0 -165 115 -262q68 160 154 237.5t216 77.5q128 0 207.5 -78t79.5 -206q0 -147 -104 -234.5t-273 -87.5q-117 0 -231 49l-227 -481h-179l273 563q-94 76 -148.5 186t-54.5 242
q0 252 170 406.5t434 154.5q279 0 439.5 -166t160.5 -458v-928zM819 885q-76 0 -127.5 -55.5t-116.5 -204.5q73 -43 168 -43q99 0 157 46.5t58 125.5q0 59 -38 95t-101 36z" />
    </font>
</defs>
</svg>
