<?xml version="1.0" standalone="no"?>
<!DOCTYPE svg PUBLIC "-//W3C//DTD SVG 1.1//EN" "http://www.w3.org/Graphics/SVG/1.1/DTD/svg11.dtd" >
<svg xmlns="http://www.w3.org/2000/svg" xmlns:xlink="http://www.w3.org/1999/xlink" version="1.1">
<metadata>
Created by FontForge 20170731 at Wed Nov 16 18:21:10 2022
 By Aleksey,,,
Copyright 2020 Ilya Naumoff
</metadata>
<defs>
<font id="FactorA-Light" horiz-adv-x="1157" >
  <font-face 
    font-family="Factor A TRIAL Light"
    font-weight="300"
    font-stretch="normal"
    units-per-em="2048"
    panose-1="0 0 0 0 0 0 0 0 0 0"
    ascent="1536"
    descent="-512"
    x-height="1001"
    cap-height="1536"
    bbox="-104 -553 2372 1915"
    underline-thickness="102"
    underline-position="-429"
    unicode-range="U+000D-FB02"
  />
<missing-glyph horiz-adv-x="1294" 
d="M246 0v1536h803v-1536h-803zM379 123h536v1290h-536v-1290z" />
    <glyph glyph-name="ff" unicode="ff" horiz-adv-x="1466" 
d="M379 1225v-224h545v224q0 145 91 235t232 90q88 0 160 -30l-29 -109q-75 27 -127 27q-96 0 -150 -53.5t-54 -159.5v-224h399v-106h-399v-895h-123v895h-545v-895h-123v895h-246v27l66 79h180v224q0 145 91.5 235t232.5 90q87 0 159 -30l-28 -109q-75 27 -127 27
q-97 0 -151 -53.5t-54 -159.5z" />
    <glyph glyph-name="fi" unicode="fi" horiz-adv-x="1220" 
d="M778 895h-399v-895h-123v895h-246v27l66 79h180v224q0 145 91.5 235t232.5 90q87 0 159 -30l-28 -109q-75 27 -127 27q-97 0 -151 -53.5t-54 -159.5v-224h399v-106zM891 1358q0 41 27 67.5t67 26.5t67 -26.5t27 -67.5q0 -40 -27 -67t-67 -27t-67 27t-27 67zM924 0v1001
h123v-1001h-123z" />
    <glyph glyph-name="fl" unicode="fl" horiz-adv-x="1220" 
d="M778 895h-399v-895h-123v895h-246v27l66 79h180v224q0 145 91.5 235t232.5 90q87 0 159 -30l-28 -109q-75 27 -127 27q-97 0 -151 -53.5t-54 -159.5v-224h399v-106zM924 0v1536h123v-1536h-123z" />
    <glyph glyph-name=".notdef" horiz-adv-x="1294" 
d="M246 0v1536h803v-1536h-803zM379 123h536v1290h-536v-1290z" />
    <glyph glyph-name=".null" horiz-adv-x="0" 
 />
    <glyph glyph-name=".null" horiz-adv-x="0" 
 />
    <glyph glyph-name="nonmarkingreturn" horiz-adv-x="682" 
 />
    <glyph glyph-name="CR" unicode="&#xd;" horiz-adv-x="0" 
 />
    <glyph glyph-name="space" unicode=" " horiz-adv-x="450" 
 />
    <glyph glyph-name="exclam" unicode="!" horiz-adv-x="610" 
d="M233 1536h144l-21 -1090h-102zM305 -18q-43 0 -71.5 28t-28.5 72q0 43 28.5 70.5t71.5 27.5q44 0 72.5 -27.5t28.5 -70.5q0 -44 -28.5 -72t-72.5 -28z" />
    <glyph glyph-name="numbersign" unicode="#" horiz-adv-x="1402" 
d="M303 0h-117l99 362h-193v109h223l131 475h-190v109h219l98 358h117l-98 -358h414l94 358h117l-95 -358h189v-109h-217l-127 -475h180v-109h-209l-96 -362h-117l96 362h-420zM432 471h418l127 475h-414z" />
    <glyph glyph-name="dollar" unicode="$" horiz-adv-x="1357" 
d="M1212 1159l-127 -33q-19 124 -106.5 203t-228.5 96v-577q126 -28 209.5 -59.5t152 -81t101 -121.5t32.5 -172q0 -190 -131 -302.5t-364 -123.5v-160h-123v160q-231 20 -367 145.5t-147 306.5l129 33q9 -148 109 -245t276 -115v635q-89 22 -153.5 43.5t-126 54.5t-99.5 74
t-61 100t-23 133q0 175 127.5 279t335.5 116v150h123v-150q192 -17 314.5 -120t147.5 -269zM299 1163q0 -112 79.5 -176.5t248.5 -109.5v550q-153 -11 -240.5 -80t-87.5 -184zM1110 408q0 128 -84.5 197.5t-275.5 113.5v-608q165 9 262.5 86t97.5 211z" />
    <glyph glyph-name="percent" unicode="%" horiz-adv-x="1800" 
d="M334 -35l-80 60l1214 1546l80 -60zM442 836q-157 0 -258.5 100.5t-101.5 257.5q0 154 102 255t258 101q157 0 259 -101t102 -255q0 -156 -102 -257t-259 -101zM690 1194q0 109 -70.5 181.5t-177.5 72.5t-177 -72.5t-70 -181.5q0 -110 70 -183t177 -73t177.5 73t70.5 183z
M1358 -14q-157 0 -259 101t-102 257q0 154 102 255t259 101q156 0 258 -101t102 -255q0 -157 -101.5 -257.5t-258.5 -100.5zM1606 344q0 109 -70.5 181.5t-177.5 72.5t-177.5 -72.5t-70.5 -181.5q0 -110 70.5 -183t177.5 -73t177.5 73t70.5 183z" />
    <glyph glyph-name="ampersand" unicode="&#x26;" horiz-adv-x="1415" 
d="M1006 1214q0 -247 -353 -407l406 -455q91 142 112 355l123 -25q-34 -250 -153 -420l233 -262h-162l-151 168q-185 -182 -453 -182q-213 0 -349 112.5t-136 300.5q0 66 14 121.5t49 114t102 112t165 99.5q-100 127 -137 202t-37 162q0 152 106 246t266 94
q162 0 258.5 -91.5t96.5 -244.5zM410 1217q0 -73 32 -138.5t136 -185.5q301 117 301 319q0 101 -62 161.5t-168 60.5q-107 0 -173 -58.5t-66 -158.5zM256 410q0 -133 106.5 -218.5t253.5 -85.5q219 0 367 148l-455 506q-86 -37 -143 -79t-83.5 -88.5t-36 -88t-9.5 -94.5z
" />
    <glyph glyph-name="parenleft" unicode="(" horiz-adv-x="768" 
d="M137 641q0 324 145.5 584t383.5 379l51 -101q-203 -98 -328 -331t-125 -531t125 -531t328 -331l-51 -101q-238 119 -383.5 379t-145.5 584z" />
    <glyph glyph-name="parenright" unicode=")" horiz-adv-x="768" 
d="M631 641q0 -324 -145.5 -584t-383.5 -379l-51 101q203 98 328 331t125 531t-125 531t-328 331l51 101q238 -119 383.5 -379t145.5 -584z" />
    <glyph glyph-name="comma" unicode="," horiz-adv-x="409" 
d="M170 -297h-98l80 467h159z" />
    <glyph glyph-name="period" unicode="." horiz-adv-x="425" 
d="M213 -18q-43 0 -71.5 28t-28.5 72q0 43 28.5 70.5t71.5 27.5q44 0 72 -27.5t28 -70.5q0 -44 -28 -72t-72 -28z" />
    <glyph glyph-name="slash" unicode="/" horiz-adv-x="880" 
d="M137 0h-127l733 1536h127z" />
    <glyph glyph-name="zero" unicode="0" horiz-adv-x="1396" 
d="M698 -14q-249 0 -396.5 209.5t-147.5 576.5q0 363 147.5 570.5t396.5 207.5t397 -207.5t148 -570.5q0 -367 -148 -576.5t-397 -209.5zM698 1427q-187 0 -297 -173.5t-110 -481.5q0 -312 110 -487.5t297 -175.5q185 0 295.5 176t110.5 487q0 308 -110 481.5t-296 173.5z
" />
    <glyph glyph-name="one" unicode="1" horiz-adv-x="729" 
d="M350 0v1227h-262v76q271 17 305 233h90v-1536h-133z" />
    <glyph glyph-name="two" unicode="2" horiz-adv-x="1138" 
d="M1077 123v-123h-962v113l524 551q58 60 93.5 102.5t75.5 102t59.5 121t19.5 126.5q0 139 -91.5 225t-234.5 86q-89 0 -161 -30.5t-126.5 -103t-72.5 -179.5l-127 29q24 132 96 225.5t173 137.5t222 44q200 0 329.5 -118.5t129.5 -315.5q0 -62 -16 -121.5t-38 -105.5
t-63.5 -101.5t-75 -93.5t-88.5 -96l-454 -475h788z" />
    <glyph glyph-name="three" unicode="3" horiz-adv-x="1247" 
d="M610 -14q-210 0 -345 105.5t-175 318.5l131 32q34 -174 136 -253.5t253 -79.5q166 0 269.5 84.5t103.5 242.5q0 144 -86.5 222.5t-263.5 78.5h-146v123h142q154 0 234.5 74.5t80.5 208.5q0 133 -88 208.5t-238 75.5q-59 0 -112.5 -14.5t-102.5 -46t-84.5 -87.5
t-50.5 -132l-127 29q22 95 71 168.5t114.5 117.5t140.5 66t156 22q207 0 331.5 -109.5t124.5 -291.5q0 -115 -58.5 -203t-166.5 -139q128 -41 197 -138.5t69 -236.5q0 -199 -145 -322.5t-365 -123.5z" />
    <glyph glyph-name="four" unicode="4" horiz-adv-x="1228" 
d="M829 0v387h-772v117l723 1032h183v-1026h208v-123h-208v-387h-134zM199 510h630v891z" />
    <glyph glyph-name="five" unicode="5" horiz-adv-x="1222" 
d="M1128 494q0 -223 -147.5 -365.5t-384.5 -142.5q-196 0 -329.5 97t-184.5 290l129 41q45 -158 148 -231.5t241 -73.5q171 0 281 105t110 280q0 167 -106 276t-269 109q-212 0 -323 -134l-100 37l133 754h745v-119h-641l-90 -502q128 82 287 82q217 0 359 -142t142 -361z
" />
    <glyph glyph-name="six" unicode="6" horiz-adv-x="1198" 
d="M596 -14q-220 0 -363 131.5t-143 345.5q0 190 117 362l471 711h151l-405 -606q90 41 194 41q218 0 359 -134.5t141 -349.5q0 -222 -147 -361.5t-375 -139.5zM598 113q167 0 275 104.5t108 269.5q0 164 -107.5 266.5t-273.5 102.5q-167 0 -272 -111q-103 -112 -103 -274
q0 -159 105.5 -258.5t267.5 -99.5z" />
    <glyph glyph-name="seven" unicode="7" horiz-adv-x="1067" 
d="M154 0l712 1413h-815v123h965v-106l-719 -1430h-143z" />
    <glyph glyph-name="eight" unicode="8" horiz-adv-x="1310" 
d="M655 -14q-147 0 -266 50t-192.5 152t-73.5 240q0 152 92 258.5t236 138.5q-109 27 -179.5 117.5t-70.5 220.5q0 176 129.5 281.5t324.5 105.5q197 0 326 -105.5t129 -281.5q0 -129 -70 -218t-180 -120q145 -32 236.5 -138t91.5 -259q0 -138 -73.5 -240t-193 -152
t-266.5 -50zM975 1155q0 123 -91 196.5t-229 73.5t-227.5 -73.5t-89.5 -196.5q0 -127 90.5 -201.5t226.5 -74.5q138 0 229 74.5t91 201.5zM1051 432q0 151 -113.5 237.5t-282.5 86.5q-167 0 -280 -86.5t-113 -237.5q0 -152 112.5 -236.5t280.5 -84.5q110 0 198 35.5
t143 109.5t55 176z" />
    <glyph glyph-name="nine" unicode="9" horiz-adv-x="1198" 
d="M602 1550q220 0 363 -131.5t143 -345.5q0 -190 -117 -362l-471 -711h-151l405 606q-90 -41 -194 -41q-218 0 -359 134.5t-141 349.5q0 222 147 361.5t375 139.5zM600 1423q-167 0 -275 -104.5t-108 -269.5q0 -164 107.5 -266.5t273.5 -102.5q167 0 272 111
q103 112 103 274q0 159 -105.5 258.5t-267.5 99.5z" />
    <glyph glyph-name="colon" unicode=":" horiz-adv-x="425" 
d="M213 750q-43 0 -71.5 28t-28.5 72q0 43 28.5 70.5t71.5 27.5q44 0 72 -27.5t28 -70.5q0 -44 -28 -72t-72 -28zM213 -18q-43 0 -71.5 28t-28.5 72q0 43 28.5 70.5t71.5 27.5q44 0 72 -27.5t28 -70.5q0 -44 -28 -72t-72 -28z" />
    <glyph glyph-name="semicolon" unicode=";" horiz-adv-x="425" 
d="M213 750q-43 0 -71.5 28t-28.5 72q0 43 28.5 70.5t71.5 27.5q44 0 72 -27.5t28 -70.5q0 -44 -28 -72t-72 -28zM160 -297h-99l80 467h160z" />
    <glyph glyph-name="question" unicode="?" horiz-adv-x="1097" 
d="M551 1550q199 0 321.5 -102t122.5 -279q0 -81 -25 -147.5t-65 -111.5t-88 -83t-96 -70t-88 -65t-65 -76t-25 -94v-76h-121v76q0 68 24.5 124t63.5 94.5t86.5 73t95 68.5t86.5 72t63.5 93t24.5 122q0 125 -87.5 195t-231.5 70q-299 0 -369 -293l-121 28q47 187 175.5 284
t318.5 97zM494 -18q-43 0 -72 28t-29 72q0 42 29 70t72 28q44 0 72 -27.5t28 -70.5q0 -44 -28 -72t-72 -28z" />
    <glyph glyph-name="at" unicode="@" horiz-adv-x="1902" 
d="M1327 293q0 -56 33 -88.5t84 -32.5q186 0 186 342q0 206 -90 367t-247.5 248.5t-354.5 87.5q-190 0 -341.5 -89t-238 -251t-86.5 -369q0 -310 191.5 -508.5t490.5 -198.5q205 0 377 84l37 -96q-190 -90 -414 -90q-170 0 -317 60.5t-250.5 166.5t-163 256.5t-59.5 325.5
q0 178 58.5 330t161 257t245.5 164.5t309 59.5q229 0 411 -99.5t286 -284t104 -421.5q0 -92 -18 -171t-54 -143.5t-97.5 -101.5t-142.5 -37q-75 0 -131.5 41.5t-76.5 112.5q-46 -79 -120 -122.5t-167 -43.5q-183 0 -293.5 124.5t-110.5 328.5q0 207 110.5 333t293.5 126
q89 0 160.5 -40t117.5 -114v137h117v-651zM1210 502q0 157 -76 252.5t-202 95.5q-127 0 -205 -95.5t-78 -252.5q0 -155 77.5 -248.5t205.5 -93.5q126 0 202 93.5t76 248.5z" />
    <glyph glyph-name="A" unicode="A" horiz-adv-x="1382" 
d="M27 0l589 1536h148l592 -1536h-142l-210 555h-633l-211 -555h-133zM418 678h538l-270 706z" />
    <glyph glyph-name="B" unicode="B" horiz-adv-x="1370" 
d="M246 0v1536h493q196 0 311 -102.5t115 -280.5q0 -128 -61.5 -217.5t-171.5 -128.5q147 -35 226 -135t79 -250q0 -196 -124.5 -309t-340.5 -113h-526zM729 1419h-350v-565h360q134 0 211.5 78.5t77.5 208.5q0 129 -80 203.5t-219 74.5zM762 737h-383v-620h385
q157 0 246.5 81.5t89.5 223.5q0 143 -91 229t-247 86z" />
    <glyph glyph-name="C" unicode="C" horiz-adv-x="1615" 
d="M127 768q0 223 94 401.5t262 279.5t377 101q262 0 439.5 -143.5t224.5 -378.5l-133 -33q-39 193 -179.5 312.5t-351.5 119.5q-178 0 -315 -88t-209 -237t-72 -334q0 -186 71 -335.5t208 -238t317 -88.5q222 0 369.5 124t179.5 317l133 -29q-48 -242 -228.5 -388
t-453.5 -146q-157 0 -293 59t-232.5 162.5t-152 249.5t-55.5 313z" />
    <glyph glyph-name="D" unicode="D" horiz-adv-x="1576" 
d="M246 0v1536h440q342 0 553 -210t211 -556q0 -172 -55.5 -316t-155.5 -243.5t-242 -155t-311 -55.5h-440zM686 1413h-307v-1290h307q282 0 454.5 175t172.5 472q0 295 -172.5 469t-454.5 174z" />
    <glyph glyph-name="E" unicode="E" horiz-adv-x="1243" 
d="M246 0v1536h919v-123h-786v-536h567v-123h-567v-631h807v-123h-940z" />
    <glyph glyph-name="F" unicode="F" horiz-adv-x="1189" 
d="M246 0v1536h919v-123h-786v-555h575v-123h-575v-735h-133z" />
    <glyph glyph-name="G" unicode="G" horiz-adv-x="1648" 
d="M264 764q0 -185 70.5 -333.5t207 -236.5t316.5 -88q239 0 395 143t156 365h-723v123h860v-73q0 -198 -87 -353t-243.5 -241t-357.5 -86q-217 0 -385 103t-257 279.5t-89 397.5q0 166 51 310t143.5 249.5t231.5 166t307 60.5q254 0 429.5 -131.5t230.5 -345.5l-134 -37
q-44 174 -183 282.5t-343 108.5q-137 0 -250 -51.5t-188.5 -141t-116.5 -210.5t-41 -260z" />
    <glyph glyph-name="H" unicode="H" horiz-adv-x="1703" 
d="M246 0v1536h133v-657h946v657h133v-1536h-133v756h-946v-756h-133z" />
    <glyph glyph-name="I" unicode="I" horiz-adv-x="624" 
d="M246 0v1536h133v-1536h-133z" />
    <glyph glyph-name="J" unicode="J" horiz-adv-x="1208" 
d="M516 -14q-207 0 -334 108t-151 289l133 31q12 -138 107 -221.5t245 -83.5q157 0 247.5 93t90.5 249v962h-711v123h844v-1083q0 -207 -130.5 -337t-340.5 -130z" />
    <glyph glyph-name="K" unicode="K" horiz-adv-x="1411" 
d="M379 745v-745h-133v1536h133v-668h248l585 668h162l-635 -725l652 -811h-162l-606 745h-244z" />
    <glyph glyph-name="L" unicode="L" horiz-adv-x="1179" 
d="M246 0v1536h133v-1413h770v-123h-903z" />
    <glyph glyph-name="M" unicode="M" horiz-adv-x="1925" 
d="M246 0v1536h143l576 -731l571 731h143v-1536h-129v1354l-573 -727h-31l-571 725v-1352h-129z" />
    <glyph glyph-name="N" unicode="N" horiz-adv-x="1677" 
d="M246 0v1536h143l914 -1339v1339h129v-1536h-144l-913 1339v-1339h-129z" />
    <glyph glyph-name="O" unicode="O" horiz-adv-x="1726" 
d="M127 768q0 168 53.5 313t149 248t233 162t299.5 59t300 -59t234 -162t149.5 -248t53.5 -313t-53.5 -312.5t-149.5 -248t-234 -162.5t-300 -59t-299.5 59t-233 162t-149 248t-53.5 313zM1462 768q0 192 -74 341.5t-211 233.5t-315 84t-314.5 -84t-210 -233.5t-73.5 -341.5
t73.5 -341.5t210 -233.5t314.5 -84t315 84t211 233.5t74 341.5z" />
    <glyph glyph-name="P" unicode="P" horiz-adv-x="1353" 
d="M246 0v1536h540q226 0 361 -127t135 -326q0 -198 -136 -328t-360 -130h-407v-625h-133zM786 1413h-407v-665h407q168 0 263.5 92.5t95.5 242.5t-95 240t-264 90z" />
    <glyph glyph-name="Q" unicode="Q" horiz-adv-x="1726" 
d="M127 768q0 168 53.5 313t149 248t233 162t299.5 59t300 -59t234 -162t149.5 -248t53.5 -313q0 -229 -97 -410t-269 -278l213 -258l-96 -80l-236 285q-115 -41 -252 -41q-162 0 -299.5 59t-233 162.5t-149 248.5t-53.5 312zM264 768q0 -192 73.5 -341.5t210 -233.5
t314.5 -84q80 0 168 20l-373 451l95 79l399 -481q147 78 229 233t82 357q0 192 -74 341.5t-211 233.5t-315 84t-314.5 -84t-210 -233.5t-73.5 -341.5z" />
    <glyph glyph-name="R" unicode="R" horiz-adv-x="1415" 
d="M246 0v1536h547q197 0 319.5 -116.5t122.5 -303.5q0 -156 -94.5 -264.5t-245.5 -138.5l479 -713h-162l-471 698h-362v-698h-133zM793 1413h-414v-592h401q142 0 230 82t88 213q0 132 -84.5 214.5t-220.5 82.5z" />
    <glyph glyph-name="S" unicode="S" horiz-adv-x="1286" 
d="M1198 1149l-131 -31q-27 141 -134.5 226.5t-264.5 85.5q-169 0 -276 -77t-107 -212q0 -56 26 -100t54.5 -70t98 -51.5t105.5 -34.5t128 -30q4 -1 6.5 -1.5t5.5 -1.5q48 -11 74.5 -17.5t72 -19t72 -22.5t65 -26t62 -33t52 -39.5t45.5 -48.5t32.5 -58t22.5 -70t7 -82
q0 -207 -148.5 -328.5t-389.5 -121.5q-128 0 -234.5 36t-179.5 99.5t-118.5 146.5t-61.5 181l133 32q29 -169 149.5 -272t311.5 -103q172 0 286.5 85.5t114.5 234.5q0 34 -8 63t-19.5 52t-34 44t-42 35.5t-53.5 29.5t-58 24t-65.5 20.5t-67.5 18t-72 16.5q-197 46 -279 80
q-173 75 -214 215q-14 49 -14 106q0 128 70 224.5t187 146t261 49.5q211 0 352 -107.5t178 -293.5z" />
    <glyph glyph-name="T" unicode="T" horiz-adv-x="1218" 
d="M543 0v1413h-512v123h1157v-123h-512v-1413h-133z" />
    <glyph glyph-name="U" unicode="U" horiz-adv-x="1564" 
d="M782 109q197 0 318 120t121 332v975h133v-973q0 -267 -158.5 -422t-413.5 -155t-413 155t-158 422v973h133v-975q0 -212 121 -332t317 -120z" />
    <glyph glyph-name="V" unicode="V" horiz-adv-x="1347" 
d="M27 1536h141l508 -1382l508 1382h137l-571 -1536h-156z" />
    <glyph glyph-name="W" unicode="W" horiz-adv-x="1957" 
d="M958 1057h37l441 -885l317 1364h133l-358 -1536h-152l-403 813l-395 -813h-150l-356 1536h133l319 -1370z" />
    <glyph glyph-name="X" unicode="X" horiz-adv-x="1325" 
d="M197 1536l467 -653l460 653h150l-537 -756l559 -780h-157l-486 678l-479 -678h-145l549 782l-539 754h158z" />
    <glyph glyph-name="Y" unicode="Y" horiz-adv-x="1298" 
d="M584 0v688l-574 848h160l485 -721l484 721h149l-571 -848v-688h-133z" />
    <glyph glyph-name="Z" unicode="Z" horiz-adv-x="1212" 
d="M68 1536h1103v-35l-925 -1378h917v-123h-1122v35l926 1378h-899v123z" />
    <glyph glyph-name="bracketleft" unicode="[" horiz-adv-x="788" 
d="M246 -317v1935h461v-113h-338v-1710h338v-112h-461z" />
    <glyph glyph-name="bracketright" unicode="]" horiz-adv-x="788" 
d="M543 -317h-461v112h338v1710h-338v113h461v-1935z" />
    <glyph glyph-name="a" unicode="a" horiz-adv-x="1069" 
d="M799 0v225q-59 -114 -164 -176.5t-234 -62.5q-142 0 -225.5 73t-83.5 195q0 69 26.5 121.5t82.5 91t125.5 65.5t171.5 54l301 76q-9 118 -84 181.5t-199 63.5q-121 0 -201 -55t-110 -164l-113 23q32 143 147 224t279 81q184 0 292 -103t108 -278v-635h-119zM221 266
q0 -77 52 -125.5t143 -48.5q74 0 143 30.5t122.5 85.5t85.5 140t32 187v20l-303 -76q-141 -35 -208 -84t-67 -129z" />
    <glyph glyph-name="b" unicode="b" horiz-adv-x="1261" 
d="M174 0v1536h123v-731q64 99 164.5 155t222.5 56q208 0 345.5 -146t137.5 -368q0 -224 -137.5 -370t-345.5 -146q-122 0 -222.5 56t-164.5 155v-197h-123zM668 903q-164 0 -267.5 -112t-103.5 -289t103.5 -290.5t267.5 -113.5q161 0 265.5 113.5t104.5 290.5
q0 176 -104 288.5t-266 112.5z" />
    <glyph glyph-name="c" unicode="c" horiz-adv-x="1124" 
d="M94 510q0 219 142 362.5t356 143.5q180 0 300.5 -95t158.5 -255l-127 -23q-30 120 -116.5 190t-215.5 70q-160 0 -264.5 -110t-104.5 -283q0 -181 104.5 -296.5t264.5 -115.5q137 0 225.5 75t114.5 200l125 -21q-30 -161 -156 -263.5t-309 -102.5q-215 0 -356.5 148.5
t-141.5 375.5z" />
    <glyph glyph-name="d" unicode="d" horiz-adv-x="1261" 
d="M1087 0h-122v184q-64 -94 -162.5 -146t-216.5 -52q-213 0 -352.5 146t-139.5 370q0 223 140 368.5t352 145.5q118 0 216.5 -52.5t162.5 -146.5v719h122v-1536zM594 903q-162 0 -266.5 -112.5t-104.5 -288.5q0 -177 104.5 -290.5t266.5 -113.5q164 0 267.5 113.5
t103.5 290.5t-103.5 289t-267.5 112z" />
    <glyph glyph-name="e" unicode="e" 
d="M600 -14q-228 0 -367 147t-139 379q0 218 140.5 361t355.5 143q207 0 340 -131t133 -336q0 -24 -4 -70h-834q11 -173 112 -277t263 -104q261 0 330 232l121 -23q-34 -147 -156 -234t-295 -87zM590 905q-137 0 -239.5 -85.5t-123.5 -231.5h705q-6 136 -103.5 226.5
t-238.5 90.5z" />
    <glyph glyph-name="f" unicode="f" horiz-adv-x="798" 
d="M778 895h-399v-895h-123v895h-246v27l66 79h180v224q0 145 91.5 235t232.5 90q87 0 159 -30l-28 -109q-75 27 -127 27q-97 0 -151 -53.5t-54 -159.5v-224h399v-106z" />
    <glyph glyph-name="g" unicode="g" horiz-adv-x="1267" 
d="M94 502q0 225 138 369.5t356 144.5q120 0 219.5 -53t163.5 -148v186h123v-993q0 -217 -137 -345t-357 -128q-196 0 -320 92.5t-145 241.5l125 25q15 -112 105 -179t235 -67q165 0 268 92t103 260v193q-64 -94 -164 -147.5t-219 -53.5q-217 0 -355.5 144.5t-138.5 365.5z
M223 502q0 -176 103.5 -287t271.5 -111q165 0 269 111.5t104 286.5q0 177 -104 289t-269 112q-168 0 -271.5 -111.5t-103.5 -289.5z" />
    <glyph glyph-name="h" unicode="h" horiz-adv-x="1179" 
d="M174 0v1536h123v-705q51 86 138.5 135.5t199.5 49.5q84 0 155 -26.5t124.5 -77.5t83.5 -131.5t30 -182.5v-598h-123v594q0 149 -79 228t-210 79q-140 0 -229.5 -94.5t-89.5 -261.5v-545h-123z" />
    <glyph glyph-name="i" unicode="i" horiz-adv-x="471" 
d="M141 1358q0 41 27.5 67.5t67.5 26.5t67 -26.5t27 -67.5q0 -40 -27 -67t-67 -27t-67.5 27t-27.5 67zM174 0v1001h123v-1001h-123z" />
    <glyph glyph-name="j" unicode="j" horiz-adv-x="471" 
d="M141 1358q0 41 27.5 67.5t67.5 26.5t67 -26.5t27 -67.5q0 -40 -27 -67t-67 -27t-67.5 27t-27.5 67zM174 1001h123v-1200q0 -125 -71.5 -195.5t-192.5 -70.5q-68 0 -137 27l28 104q56 -18 109 -18q65 0 103 41.5t38 111.5v1200z" />
    <glyph glyph-name="k" unicode="k" horiz-adv-x="1021" 
d="M823 1001h158l-422 -454l453 -547h-152l-411 487h-152v-487h-123v1536h123v-930h160z" />
    <glyph glyph-name="l" unicode="l" horiz-adv-x="471" 
d="M174 0v1536h123v-1536h-123z" />
    <glyph glyph-name="m" unicode="m" horiz-adv-x="1744" 
d="M174 0v1001h123v-141q49 72 124.5 114t170.5 42q107 0 189 -49t124 -142q48 87 132.5 139t197.5 52q157 0 255.5 -98.5t98.5 -282.5v-635h-123v631q0 132 -67 201t-180 69q-122 0 -199.5 -74t-77.5 -204v-623h-123v631q0 132 -67 201t-179 69q-122 0 -199 -80t-77 -221
v-600h-123z" />
    <glyph glyph-name="n" unicode="n" horiz-adv-x="1179" 
d="M174 0v1001h123v-170q51 86 138.5 135.5t199.5 49.5q84 0 155 -26.5t124.5 -77.5t83.5 -131.5t30 -182.5v-598h-123v594q0 149 -79 228t-210 79q-140 0 -229.5 -94.5t-89.5 -261.5v-545h-123z" />
    <glyph glyph-name="o" unicode="o" horiz-adv-x="1208" 
d="M604 1016q221 0 365.5 -145.5t144.5 -368.5q0 -224 -144.5 -370t-365.5 -146t-365.5 146t-144.5 370q0 223 144.5 368.5t365.5 145.5zM604 903q-167 0 -274 -112t-107 -289t107 -290.5t274 -113.5t274 113.5t107 290.5t-107 289t-274 112z" />
    <glyph glyph-name="p" unicode="p" horiz-adv-x="1261" 
d="M174 1001h123v-198q62 100 163 156.5t224 56.5q206 0 344.5 -146t138.5 -368q0 -223 -138 -369.5t-345 -146.5q-123 0 -224 56.5t-163 156.5v-650h-123v1452zM668 903q-164 0 -267.5 -112t-103.5 -289t103.5 -290.5t267.5 -113.5q161 0 265.5 113.5t104.5 290.5
q0 176 -104 288.5t-266 112.5z" />
    <glyph glyph-name="q" unicode="q" horiz-adv-x="1261" 
d="M586 1016q118 0 216.5 -52.5t162.5 -146.5v184h122v-1452h-122v635q-64 -94 -162.5 -146t-216.5 -52q-211 0 -351.5 146.5t-140.5 369.5q0 222 140.5 368t351.5 146zM594 903q-162 0 -266.5 -112.5t-104.5 -288.5q0 -177 104.5 -290.5t266.5 -113.5q164 0 267.5 113.5
t103.5 290.5t-103.5 289t-267.5 112z" />
    <glyph glyph-name="r" unicode="r" horiz-adv-x="724" 
d="M174 0v1001h125v-174q42 88 124.5 138.5t190.5 50.5q46 0 101 -15l-25 -120q-49 14 -100 14q-124 0 -208.5 -98t-84.5 -277v-520h-123z" />
    <glyph glyph-name="s" unicode="s" horiz-adv-x="940" 
d="M496 -14q-170 0 -278.5 78.5t-145.5 224.5l125 33q58 -228 301 -228q113 0 183.5 47t70.5 138q0 32 -9.5 57.5t-32 43.5t-43.5 30t-60 22.5t-63.5 15.5t-72.5 13q-38 6 -58 10t-56 12t-56 15t-49.5 19t-46.5 25.5t-37 33t-30.5 41.5t-17.5 52t-7 64q0 120 104.5 201.5
t267.5 81.5q145 0 243.5 -68.5t133.5 -195.5l-125 -31q-49 186 -252 186q-108 0 -176.5 -46t-68.5 -124q0 -19 4 -35t9.5 -28t17 -23t21 -18t27.5 -14.5t30.5 -11.5t35 -9t36.5 -8t40.5 -7.5t40.5 -7.5q6 -1 17 -3q155 -29 220 -60q140 -67 140 -227q0 -133 -101.5 -216
t-281.5 -83z" />
    <glyph glyph-name="t" unicode="t" horiz-adv-x="729" 
d="M23 922l266 233h22v-154h387v-106h-387v-604q0 -193 185 -193q77 0 159 35l35 -102q-102 -45 -211 -45q-139 0 -215 75.5t-76 217.5v616h-165v27z" />
    <glyph glyph-name="u" unicode="u" horiz-adv-x="1161" 
d="M272 1001v-602q0 -140 78.5 -220.5t208.5 -80.5q132 0 218.5 84.5t86.5 247.5v571h123v-1001h-115v162q-55 -86 -143.5 -131t-196.5 -45q-172 0 -277 108t-105 297v610h122z" />
    <glyph glyph-name="v" unicode="v" horiz-adv-x="985" 
d="M420 0l-400 1001h136l336 -860l342 860h131l-408 -1001h-137z" />
    <glyph glyph-name="w" unicode="w" horiz-adv-x="1353" 
d="M51 1001h125l215 -851l275 552h22l279 -557l215 856h121l-252 -1001h-140l-235 469l-234 -469h-139z" />
    <glyph glyph-name="x" unicode="x" horiz-adv-x="937" 
d="M180 1001l287 -395l272 395h140l-344 -489l372 -512h-143l-307 424l-291 -424h-135l356 520l-350 481h143z" />
    <glyph glyph-name="y" unicode="y" horiz-adv-x="1017" 
d="M20 1001h140l368 -833l340 833h129l-598 -1452h-131l191 465z" />
    <glyph glyph-name="z" unicode="z" horiz-adv-x="868" 
d="M836 106v-106h-795v27l602 868h-584v106h772v-26l-602 -869h607z" />
    <glyph glyph-name="braceleft" unicode="{" horiz-adv-x="856" 
d="M784 -338h-184q-134 0 -217 71.5t-74 203.5l31 444q6 88 -57 146.5t-164 64.5v106q98 5 162.5 57.5t58.5 133.5l-31 444q-9 136 75.5 210.5t225.5 74.5h174v-111h-176q-90 0 -136.5 -50.5t-39.5 -143.5l31 -410q7 -97 -55.5 -171t-155.5 -89q93 -18 155.5 -93.5
t55.5 -172.5l-31 -410q-7 -94 39.5 -144t136.5 -50h176v-111z" />
    <glyph glyph-name="braceright" unicode="}" horiz-adv-x="856" 
d="M72 -338v111h176q90 0 136.5 50t39.5 144l-31 410q-7 97 55.5 172.5t155.5 93.5q-93 15 -155.5 89t-55.5 171l31 410q7 93 -39.5 143.5t-136.5 50.5h-176v111h174q141 0 225.5 -74.5t75.5 -210.5l-31 -444q-6 -81 58.5 -133.5t162.5 -57.5v-106q-101 -6 -164 -64.5
t-57 -146.5l31 -444q9 -132 -74 -203.5t-217 -71.5h-184z" />
    <glyph glyph-name="exclamdown" unicode="&#xa1;" horiz-adv-x="610" 
d="M305 1016q43 0 72 -28.5t29 -72.5q0 -42 -29 -70t-72 -28q-44 0 -72 27.5t-28 70.5q0 44 28 72.5t72 28.5zM377 -539h-144l21 1090h102z" />
    <glyph glyph-name="questiondown" unicode="&#xbf;" horiz-adv-x="1097" 
d="M604 1016q43 0 72 -28.5t29 -72.5q0 -42 -29 -70t-72 -28q-44 0 -72 27.5t-28 70.5q0 44 28 72.5t72 28.5zM547 -553q-199 0 -322 102t-123 279q0 81 25 147.5t65 111.5t88 83t96.5 70t88.5 65t65 76t25 94v76h121v-76q0 -68 -24.5 -124t-64 -94.5t-86.5 -73t-94.5 -68.5
t-87 -72t-64 -93t-24.5 -122q0 -125 88 -194.5t232 -69.5q299 0 369 293l120 -29q-47 -187 -175 -284t-318 -97z" />
    <glyph glyph-name="uni0400" unicode="&#x400;" horiz-adv-x="1243" 
d="M457 1915h155l209 -277h-112zM246 0v1536h919v-123h-786v-536h567v-123h-567v-631h807v-123h-940z" />
    <glyph glyph-name="afii10023" unicode="&#x401;" horiz-adv-x="1243" 
d="M530 1718q-37 0 -63.5 26.5t-26.5 63.5q0 38 26.5 64t63.5 26q38 0 64.5 -26t26.5 -64q0 -37 -26.5 -63.5t-64.5 -26.5zM899 1718q-37 0 -63.5 26.5t-26.5 63.5q0 38 26.5 64t63.5 26q38 0 64 -26t26 -64q0 -37 -26 -63.5t-64 -26.5zM246 0v1536h919v-123h-786v-536h567
v-123h-567v-631h807v-123h-940z" />
    <glyph glyph-name="afii10051" unicode="&#x402;" horiz-adv-x="1732" 
d="M543 0v1413h-512v123h1157v-123h-512v-567q193 170 430 170q211 0 343 -119t132 -340v-207q0 -164 -94.5 -264t-243.5 -100q-40 0 -59 0.5t-53.5 6.5t-63.5 19l29 113q58 -19 129 -19q106 0 164.5 67t58.5 183v197q0 169 -98 254.5t-265 85.5q-236 0 -409 -186v-707h-133
z" />
    <glyph glyph-name="afii10052" unicode="&#x403;" horiz-adv-x="1155" 
d="M829 1915h156l-252 -277h-112zM246 0v1536h899v-123h-766v-1413h-133z" />
    <glyph glyph-name="afii10053" unicode="&#x404;" horiz-adv-x="1615" 
d="M127 768q0 223 94 401.5t262 279.5t377 101q262 0 439.5 -143.5t224.5 -378.5l-133 -33q-39 193 -179.5 312.5t-351.5 119.5q-248 0 -408 -163t-184 -418h621v-123h-623q8 -175 81 -314t206.5 -221t306.5 -82q222 0 369.5 124t179.5 317l133 -29q-48 -242 -228.5 -388
t-453.5 -146q-157 0 -293 59t-232.5 162.5t-152 249.5t-55.5 313z" />
    <glyph glyph-name="afii10054" unicode="&#x405;" horiz-adv-x="1286" 
d="M1198 1149l-131 -31q-27 141 -134.5 226.5t-264.5 85.5q-169 0 -276 -77t-107 -212q0 -56 26 -100t54.5 -70t98 -51.5t105.5 -34.5t128 -30q4 -1 6.5 -1.5t5.5 -1.5q48 -11 74.5 -17.5t72 -19t72 -22.5t65 -26t62 -33t52 -39.5t45.5 -48.5t32.5 -58t22.5 -70t7 -82
q0 -207 -148.5 -328.5t-389.5 -121.5q-128 0 -234.5 36t-179.5 99.5t-118.5 146.5t-61.5 181l133 32q29 -169 149.5 -272t311.5 -103q172 0 286.5 85.5t114.5 234.5q0 34 -8 63t-19.5 52t-34 44t-42 35.5t-53.5 29.5t-58 24t-65.5 20.5t-67.5 18t-72 16.5q-197 46 -279 80
q-173 75 -214 215q-14 49 -14 106q0 128 70 224.5t187 146t261 49.5q211 0 352 -107.5t178 -293.5z" />
    <glyph glyph-name="afii10055" unicode="&#x406;" horiz-adv-x="624" 
d="M246 0v1536h133v-1536h-133z" />
    <glyph glyph-name="afii10056" unicode="&#x407;" horiz-adv-x="624" 
d="M156 1716q-37 0 -63.5 26.5t-26.5 63.5q0 38 26.5 64t63.5 26q38 0 64 -26t26 -64q0 -37 -26 -63.5t-64 -26.5zM467 1716q-37 0 -63.5 26.5t-26.5 63.5q0 38 26.5 64t63.5 26q38 0 64 -26t26 -64q0 -37 -26 -63.5t-64 -26.5zM246 0v1536h133v-1536h-133z" />
    <glyph glyph-name="afii10057" unicode="&#x408;" horiz-adv-x="1208" 
d="M516 -14q-207 0 -334 108t-151 289l133 31q12 -138 107 -221.5t245 -83.5q157 0 247.5 93t90.5 249v962h-711v123h844v-1083q0 -207 -130.5 -337t-340.5 -130z" />
    <glyph glyph-name="afii10058" unicode="&#x409;" horiz-adv-x="2205" 
d="M41 113q32 -7 47 -7q40 0 68.5 12.5t58 50t49.5 110.5t38 187.5t28.5 288.5t15.5 408l8 373h903v-580h324q143 0 251 -39.5t170.5 -107.5t93 -151t30.5 -179q0 -224 -143.5 -351.5t-401.5 -127.5h-457v1413h-641l-6 -283q-6 -226 -17 -390.5t-30.5 -296t-47 -215.5
t-68.5 -140t-92.5 -79t-121.5 -23q-36 0 -80 14zM1589 834h-332v-711h334q186 0 292 94t106 262q0 163 -108 259t-292 96z" />
    <glyph glyph-name="afii10059" unicode="&#x40a;" horiz-adv-x="2344" 
d="M246 0v1536h133v-641h833v641h134v-641h415q132 0 232 -38t157.5 -103.5t86 -145t28.5 -170.5q0 -205 -133 -321.5t-371 -116.5h-549v772h-833v-772h-133zM1769 772h-423v-649h426q166 0 261 84t95 231q0 152 -97 243t-262 91z" />
    <glyph glyph-name="afii10060" unicode="&#x40b;" horiz-adv-x="1732" 
d="M543 0v1413h-512v123h1157v-123h-512v-567q193 170 430 170q102 0 187.5 -29.5t150 -85.5t101 -144t36.5 -200v-557h-133v553q0 169 -98 254.5t-265 85.5q-236 0 -409 -186v-707h-133z" />
    <glyph glyph-name="afii10061" unicode="&#x40c;" horiz-adv-x="1411" 
d="M889 1915h155l-251 -277h-113zM379 745v-745h-133v1536h133v-668h248l585 668h162l-635 -725l652 -811h-162l-606 745h-244z" />
    <glyph glyph-name="uni040D" unicode="&#x40d;" horiz-adv-x="1675" 
d="M567 1915h156l209 -277h-113zM246 0v1536h133v-1333l917 1333h134v-1536h-134v1333l-917 -1333h-133z" />
    <glyph glyph-name="afii10062" unicode="&#x40e;" horiz-adv-x="1318" 
d="M668 1739q86 0 140 44.5t54 131.5h115q0 -131 -85 -207t-224 -76q-140 0 -225 76t-85 207h117q0 -87 54 -131.5t139 -44.5zM414 0l194 397l-598 1139h150l520 -991l485 991h144l-752 -1536h-143z" />
    <glyph glyph-name="afii10145" unicode="&#x40f;" horiz-adv-x="1660" 
d="M246 0v1536h133v-1413h903v1413h133v-1536h-520v-369h-127v369h-522z" />
    <glyph glyph-name="afii10017" unicode="&#x410;" horiz-adv-x="1382" 
d="M27 0l589 1536h148l592 -1536h-142l-210 555h-633l-211 -555h-133zM418 678h538l-270 706z" />
    <glyph glyph-name="afii10018" unicode="&#x411;" horiz-adv-x="1370" 
d="M246 0v1536h907v-123h-774v-514h403q105 0 190 -24.5t142 -66.5t95 -100t54.5 -122.5t16.5 -136.5q0 -210 -131 -329.5t-367 -119.5h-536zM791 782h-412v-665h414q163 0 256.5 88.5t93.5 243.5q0 152 -95 242.5t-257 90.5z" />
    <glyph glyph-name="afii10019" unicode="&#x412;" horiz-adv-x="1431" 
d="M246 0v1536h565q196 0 311 -102.5t115 -280.5q0 -128 -62.5 -217.5t-173.5 -128.5q149 -35 228.5 -135t79.5 -250q0 -196 -124.5 -309t-340.5 -113h-598zM801 1419h-422v-565h432q134 0 211.5 78.5t77.5 208.5q0 129 -80 203.5t-219 74.5zM834 737h-455v-620h457
q157 0 246 81t89 224t-90.5 229t-246.5 86z" />
    <glyph glyph-name="afii10020" unicode="&#x413;" horiz-adv-x="1155" 
d="M246 0v1536h899v-123h-766v-1413h-133z" />
    <glyph glyph-name="afii10021" unicode="&#x414;" horiz-adv-x="1583" 
d="M10 -369v492h140q45 63 72 125.5t52.5 175.5t40 292t21.5 447l10 373h967v-1413h198v-492h-127v369h-1247v-369h-127zM467 1126q-12 -417 -50.5 -639t-127.5 -364h891v1290h-705z" />
    <glyph glyph-name="afii10022" unicode="&#x415;" horiz-adv-x="1243" 
d="M246 0v1536h919v-123h-786v-536h567v-123h-567v-631h807v-123h-940z" />
    <glyph glyph-name="afii10024" unicode="&#x416;" horiz-adv-x="1992" 
d="M1063 1536v-668h225l512 668h156l-557 -725l573 -811h-160l-528 745h-221v-745h-133v745h-221l-537 -745h-152l576 809l-559 727h156l516 -668h221v668h133z" />
    <glyph glyph-name="afii10025" unicode="&#x417;" horiz-adv-x="1327" 
d="M659 -14q-232 0 -383.5 106t-191.5 318l131 32q17 -89 58 -154.5t100.5 -104t130.5 -56.5t155 -18q178 0 291 84.5t113 242.5q0 144 -86.5 222.5t-263.5 78.5h-238v123h234q154 0 234.5 74.5t80.5 208.5q0 132 -103.5 208t-271.5 76q-92 0 -171.5 -27t-142 -93
t-81.5 -164l-127 28q29 127 110.5 214.5t186 126t225.5 38.5q233 0 371.5 -109.5t138.5 -291.5q0 -115 -58.5 -203t-166.5 -139q128 -41 197 -138.5t69 -236.5q0 -202 -149.5 -324t-391.5 -122z" />
    <glyph glyph-name="afii10026" unicode="&#x418;" horiz-adv-x="1675" 
d="M246 0v1536h133v-1333l917 1333h134v-1536h-134v1333l-917 -1333h-133z" />
    <glyph glyph-name="afii10027" unicode="&#x419;" horiz-adv-x="1675" 
d="M848 1739q86 0 140 44.5t54 131.5h115q0 -131 -85 -207t-224 -76t-224 76t-85 207h116q0 -87 54 -131.5t139 -44.5zM246 0v1536h133v-1333l917 1333h134v-1536h-134v1333l-917 -1333h-133z" />
    <glyph glyph-name="afii10028" unicode="&#x41a;" horiz-adv-x="1411" 
d="M379 745v-745h-133v1536h133v-668h248l585 668h162l-635 -725l652 -811h-162l-606 745h-244z" />
    <glyph glyph-name="afii10029" unicode="&#x41b;" horiz-adv-x="1585" 
d="M41 113q32 -7 47 -7q40 0 68.5 12.5t58 50t49.5 110.5t38 187.5t28.5 288.5t15.5 408l8 373h985v-1536h-133v1413h-723l-6 -283q-6 -226 -17 -390.5t-30.5 -296t-47 -215.5t-68.5 -140t-92.5 -79t-121.5 -23q-36 0 -80 14z" />
    <glyph glyph-name="afii10030" unicode="&#x41c;" horiz-adv-x="1925" 
d="M246 0v1536h143l576 -731l571 731h143v-1536h-129v1354l-573 -727h-31l-571 725v-1352h-129z" />
    <glyph glyph-name="afii10031" unicode="&#x41d;" horiz-adv-x="1703" 
d="M246 0v1536h133v-657h946v657h133v-1536h-133v756h-946v-756h-133z" />
    <glyph glyph-name="afii10032" unicode="&#x41e;" horiz-adv-x="1726" 
d="M127 768q0 168 53.5 313t149 248t233 162t299.5 59t300 -59t234 -162t149.5 -248t53.5 -313t-53.5 -312.5t-149.5 -248t-234 -162.5t-300 -59t-299.5 59t-233 162t-149 248t-53.5 313zM1462 768q0 192 -74 341.5t-211 233.5t-315 84t-314.5 -84t-210 -233.5t-73.5 -341.5
t73.5 -341.5t210 -233.5t314.5 -84t315 84t211 233.5t74 341.5z" />
    <glyph glyph-name="afii10033" unicode="&#x41f;" horiz-adv-x="1681" 
d="M246 0v1536h1190v-1536h-133v1413h-924v-1413h-133z" />
    <glyph glyph-name="afii10034" unicode="&#x420;" horiz-adv-x="1353" 
d="M246 0v1536h540q226 0 361 -127t135 -326q0 -198 -136 -328t-360 -130h-407v-625h-133zM786 1413h-407v-665h407q168 0 263.5 92.5t95.5 242.5t-95 240t-264 90z" />
    <glyph glyph-name="afii10035" unicode="&#x421;" horiz-adv-x="1615" 
d="M127 768q0 223 94 401.5t262 279.5t377 101q262 0 439.5 -143.5t224.5 -378.5l-133 -33q-39 193 -179.5 312.5t-351.5 119.5q-178 0 -315 -88t-209 -237t-72 -334q0 -186 71 -335.5t208 -238t317 -88.5q222 0 369.5 124t179.5 317l133 -29q-48 -242 -228.5 -388
t-453.5 -146q-157 0 -293 59t-232.5 162.5t-152 249.5t-55.5 313z" />
    <glyph glyph-name="afii10036" unicode="&#x422;" horiz-adv-x="1218" 
d="M543 0v1413h-512v123h1157v-123h-512v-1413h-133z" />
    <glyph glyph-name="afii10037" unicode="&#x423;" horiz-adv-x="1318" 
d="M414 0l194 397l-598 1139h150l520 -991l485 991h144l-752 -1536h-143z" />
    <glyph glyph-name="afii10038" unicode="&#x424;" horiz-adv-x="1742" 
d="M805 -20v165h-14q-142 0 -268 42.5t-222 120t-152.5 198t-56.5 266.5q0 147 56.5 266.5t153 196.5t222 118.5t267.5 41.5h14v161h133v-161h14q142 0 267.5 -41.5t222 -118.5t153 -196.5t56.5 -266.5q0 -146 -56.5 -266.5t-152.5 -198t-222 -120t-268 -42.5h-14v-165h-133
zM791 266h14v1008h-14q-91 0 -173.5 -19t-154 -60t-124 -99t-82.5 -141.5t-30 -182.5q0 -124 45.5 -222t124.5 -159t179.5 -93t214.5 -32zM952 1274h-14v-1008h14q114 0 214.5 32t179.5 93t124.5 159t45.5 222q0 99 -30 182.5t-82.5 141.5t-124 99t-154 60t-173.5 19z" />
    <glyph glyph-name="afii10039" unicode="&#x425;" horiz-adv-x="1325" 
d="M197 1536l467 -653l460 653h150l-537 -756l559 -780h-157l-486 678l-479 -678h-145l549 782l-539 754h158z" />
    <glyph glyph-name="afii10040" unicode="&#x426;" horiz-adv-x="1685" 
d="M246 0v1536h133v-1413h903v1413h133v-1413h199v-492h-127v369h-1241z" />
    <glyph glyph-name="afii10041" unicode="&#x427;" horiz-adv-x="1468" 
d="M674 608q-120 0 -215.5 26t-170 80.5t-115 147t-40.5 217.5v457h133v-434q0 -194 104.5 -282.5t319.5 -88.5q194 0 400 80v725h133v-1536h-133v688q-226 -80 -416 -80z" />
    <glyph glyph-name="afii10042" unicode="&#x428;" horiz-adv-x="2283" 
d="M246 0v1536h133v-1413h696v1413h133v-1413h697v1413h133v-1536h-1792z" />
    <glyph glyph-name="afii10043" unicode="&#x429;" horiz-adv-x="2308" 
d="M246 0v1536h133v-1413h696v1413h133v-1413h697v1413h133v-1413h198v-492h-127v369h-1863z" />
    <glyph glyph-name="afii10044" unicode="&#x42a;" horiz-adv-x="1519" 
d="M438 0v1413h-428v123h561v-580h353q136 0 238 -39.5t161.5 -107.5t88 -151t28.5 -179q0 -224 -135.5 -351.5t-380.5 -127.5h-486zM932 834h-361v-711h363q173 0 271 94t98 262q0 163 -100 259t-271 96z" />
    <glyph glyph-name="afii10045" unicode="&#x42b;" horiz-adv-x="1875" 
d="M246 0v1536h133v-580h323q143 0 251 -39.5t170.5 -107.5t93 -151t30.5 -179q0 -224 -143.5 -351.5t-401.5 -127.5h-456zM1497 0v1536h133v-1536h-133zM711 834h-332v-711h334q185 0 291 94t106 262q0 163 -107.5 259t-291.5 96z" />
    <glyph glyph-name="afii10046" unicode="&#x42c;" horiz-adv-x="1327" 
d="M246 0v1536h133v-580h323q143 0 251 -39.5t170.5 -107.5t93 -151t30.5 -179q0 -224 -143.5 -351.5t-401.5 -127.5h-456zM711 834h-332v-711h334q185 0 291 94t106 262q0 163 -107.5 259t-291.5 96z" />
    <glyph glyph-name="afii10047" unicode="&#x42d;" horiz-adv-x="1597" 
d="M662 836h669q-9 128 -50 234.5t-111.5 186.5t-177 125t-238.5 45q-212 0 -353.5 -113.5t-177.5 -305.5l-125 26q44 235 221.5 375.5t434.5 140.5q172 0 309.5 -60t225.5 -165.5t134.5 -247.5t46.5 -309q0 -168 -46.5 -310t-134.5 -248t-225 -166t-308 -60
q-279 0 -448 138t-216 386l133 29q32 -199 170 -315t363 -116q134 0 241 46t177 128.5t109 192t46 240.5h-669v123z" />
    <glyph glyph-name="afii10048" unicode="&#x42e;" horiz-adv-x="2287" 
d="M246 0v1536h133v-664h315q31 301 230.5 489.5t498.5 188.5q162 0 300.5 -59t234 -162t149.5 -248t54 -313q0 -224 -92 -402t-261 -279t-385 -101q-213 0 -379.5 98t-259 272t-96.5 394h-309v-750h-133zM2023 768q0 192 -74 341.5t-211 233.5t-315 84t-314.5 -84
t-210 -233.5t-73.5 -341.5t73.5 -341.5t210 -233.5t314.5 -84t315 84t211 233.5t74 341.5z" />
    <glyph glyph-name="afii10049" unicode="&#x42f;" horiz-adv-x="1445" 
d="M1200 0h-133v666h-385l-457 -666h-153l460 670q-171 15 -283 134.5t-112 295.5q0 194 127.5 315t333.5 121h602v-1536zM594 788h473v625h-469q-146 0 -235 -86.5t-89 -226.5q0 -138 88 -225t232 -87z" />
    <glyph glyph-name="afii10065" unicode="&#x430;" horiz-adv-x="1069" 
d="M799 0v225q-59 -114 -164 -176.5t-234 -62.5q-142 0 -225.5 73t-83.5 195q0 69 26.5 121.5t82.5 91t125.5 65.5t171.5 54l301 76q-9 118 -84 181.5t-199 63.5q-121 0 -201 -55t-110 -164l-113 23q32 143 147 224t279 81q184 0 292 -103t108 -278v-635h-119zM221 266
q0 -77 52 -125.5t143 -48.5q74 0 143 30.5t122.5 85.5t85.5 140t32 187v20l-303 -76q-141 -35 -208 -84t-67 -129z" />
    <glyph glyph-name="afii10066" unicode="&#x431;" horiz-adv-x="1230" 
d="M627 -14q-239 0 -378.5 170t-139.5 508q0 394 149.5 600.5t482.5 242.5l133 15q97 10 168 28l15 -104q-66 -21 -183 -33l-141 -16q-119 -14 -205.5 -50.5t-154.5 -108t-104.5 -188.5t-41.5 -282q40 71 94.5 121.5t114.5 77t116 38t114 11.5q206 0 338.5 -145.5
t132.5 -368.5q0 -227 -140.5 -371.5t-369.5 -144.5zM637 903q-172 0 -281.5 -112t-109.5 -289t107 -290.5t274 -113.5t274 113.5t107 290.5q0 179 -101 290t-270 111z" />
    <glyph glyph-name="afii10067" unicode="&#x432;" horiz-adv-x="1042" 
d="M174 0v1001h432q132 0 211.5 -70t79.5 -186q0 -78 -40 -135t-109 -84q90 -24 141 -87t51 -158q0 -129 -95.5 -205t-230.5 -76h-440zM586 895h-289v-324h301q84 0 129 43t45 121q0 160 -186 160zM584 109q111 0 169 45.5t58 134.5q0 86 -53.5 131t-155.5 45h-305v-356h287
z" />
    <glyph glyph-name="afii10068" unicode="&#x433;" horiz-adv-x="858" 
d="M174 0v1001h643v-106h-520v-895h-123z" />
    <glyph glyph-name="afii10069" unicode="&#x434;" horiz-adv-x="1107" 
d="M10 -328v434h101q37 48 58 100.5t36 157t22 277.5l15 360h682v-895h133v-434h-115v328h-817v-328h-115zM346 649q-14 -392 -106 -543h561v789h-445z" />
    <glyph glyph-name="afii10070" unicode="&#x435;" 
d="M600 -14q-228 0 -367 147t-139 379q0 218 140.5 361t355.5 143q207 0 340 -131t133 -336q0 -24 -4 -70h-834q11 -173 112 -277t263 -104q261 0 330 232l121 -23q-34 -147 -156 -234t-295 -87zM590 905q-137 0 -239.5 -85.5t-123.5 -231.5h705q-6 136 -103.5 226.5
t-238.5 90.5z" />
    <glyph glyph-name="afii10072" unicode="&#x436;" horiz-adv-x="1386" 
d="M186 1001l303 -419h144v419h119v-419h139l309 419h137l-352 -469l381 -532h-143l-336 475h-135v-475h-119v475h-139l-336 -475h-138l373 524l-346 477h139z" />
    <glyph glyph-name="afii10073" unicode="&#x437;" horiz-adv-x="974" 
d="M467 -14q-161 0 -267 66.5t-143 193.5l121 37q18 -66 64 -110t103 -61.5t124 -17.5q123 0 198.5 49.5t75.5 149.5q0 85 -60 129.5t-146 44.5h-185v104h180q82 0 139.5 45t57.5 123q0 81 -61.5 124.5t-182.5 43.5q-234 0 -280 -180l-119 27q34 123 138.5 192.5t264.5 69.5
q168 0 267.5 -72t99.5 -194q0 -77 -46 -137t-130 -87q91 -25 141.5 -86t50.5 -153q0 -98 -55.5 -167.5t-145.5 -101.5t-204 -32z" />
    <glyph glyph-name="afii10074" unicode="&#x438;" horiz-adv-x="1161" 
d="M174 0v1001h117v-815l579 815h117v-1001h-117v815l-579 -815h-117z" />
    <glyph glyph-name="afii10075" unicode="&#x439;" horiz-adv-x="1161" 
d="M588 1284q80 0 131 43.5t51 126.5h109q0 -126 -80 -198t-211 -72t-211 72t-80 198h111q0 -83 50.5 -126.5t129.5 -43.5zM174 0v1001h117v-815l579 815h117v-1001h-117v815l-579 -815h-117z" />
    <glyph glyph-name="afii10076" unicode="&#x43a;" horiz-adv-x="1021" 
d="M174 1001h123v-413h166l364 413h144l-412 -469l453 -532h-152l-411 469h-152v-469h-123v1001z" />
    <glyph glyph-name="afii10077" unicode="&#x43b;" horiz-adv-x="1095" 
d="M20 102q24 -4 39 -4q27 0 48.5 11t45 46t40.5 92.5t30.5 158t18.5 235.5l14 360h666v-1001h-123v895h-428l-11 -254q-7 -162 -26 -281.5t-45 -190t-63 -113t-73 -56.5t-81 -14q-40 0 -68 12z" />
    <glyph glyph-name="afii10078" unicode="&#x43c;" horiz-adv-x="1355" 
d="M174 0v1001h129l371 -481l379 481h129v-1001h-119v838l-379 -484h-29l-362 469v-823h-119z" />
    <glyph glyph-name="afii10079" unicode="&#x43d;" horiz-adv-x="1167" 
d="M174 0v1001h123v-415h573v415h123v-1001h-123v479h-573v-479h-123z" />
    <glyph glyph-name="afii10080" unicode="&#x43e;" horiz-adv-x="1208" 
d="M604 1016q221 0 365.5 -145.5t144.5 -368.5q0 -224 -144.5 -370t-365.5 -146t-365.5 146t-144.5 370q0 223 144.5 368.5t365.5 145.5zM604 903q-167 0 -274 -112t-107 -289t107 -290.5t274 -113.5t274 113.5t107 290.5t-107 289t-274 112z" />
    <glyph glyph-name="afii10081" unicode="&#x43f;" 
d="M174 0v1001h809v-1001h-123v895h-563v-895h-123z" />
    <glyph glyph-name="afii10082" unicode="&#x440;" horiz-adv-x="1261" 
d="M174 1001h123v-198q62 100 163 156.5t224 56.5q206 0 344.5 -146t138.5 -368q0 -223 -138 -369.5t-345 -146.5q-123 0 -224 56.5t-163 156.5v-650h-123v1452zM668 903q-164 0 -267.5 -112t-103.5 -289t103.5 -290.5t267.5 -113.5q161 0 265.5 113.5t104.5 290.5
q0 176 -104 288.5t-266 112.5z" />
    <glyph glyph-name="afii10083" unicode="&#x441;" horiz-adv-x="1124" 
d="M94 510q0 219 142 362.5t356 143.5q180 0 300.5 -95t158.5 -255l-127 -23q-30 120 -116.5 190t-215.5 70q-160 0 -264.5 -110t-104.5 -283q0 -181 104.5 -296.5t264.5 -115.5q137 0 225.5 75t114.5 200l125 -21q-30 -161 -156 -263.5t-309 -102.5q-215 0 -356.5 148.5
t-141.5 375.5z" />
    <glyph glyph-name="afii10084" unicode="&#x442;" horiz-adv-x="925" 
d="M401 0v895h-360v106h844v-106h-361v-895h-123z" />
    <glyph glyph-name="afii10085" unicode="&#x443;" horiz-adv-x="1017" 
d="M20 1001h140l368 -833l340 833h129l-598 -1452h-131l191 465z" />
    <glyph glyph-name="afii10086" unicode="&#x444;" horiz-adv-x="1382" 
d="M633 -451v451q-245 3 -392 140.5t-147 361.5q0 223 148.5 361t390.5 138v535h119v-535q245 -3 390.5 -140t145.5 -359q0 -225 -147.5 -363.5t-388.5 -138.5v-451h-119zM221 502q0 -180 110.5 -286.5t301.5 -106.5v784q-193 -3 -302.5 -108t-109.5 -283zM1161 502
q0 179 -109.5 285t-299.5 106v-784q190 3 299.5 110t109.5 283z" />
    <glyph glyph-name="afii10087" unicode="&#x445;" horiz-adv-x="937" 
d="M180 1001l287 -395l272 395h140l-344 -489l372 -512h-143l-307 424l-291 -424h-135l356 520l-350 481h143z" />
    <glyph glyph-name="afii10088" unicode="&#x446;" 
d="M174 0v1001h123v-895h553v895h123v-895h133v-434h-115v328h-817z" />
    <glyph glyph-name="afii10089" unicode="&#x447;" horiz-adv-x="1038" 
d="M477 393q-190 0 -287.5 87t-97.5 255v266h123v-258q0 -120 69.5 -181.5t204.5 -61.5q124 0 252 35v466h123v-1001h-123v430q-133 -37 -264 -37z" />
    <glyph glyph-name="afii10090" unicode="&#x448;" horiz-adv-x="1576" 
d="M174 0v1001h123v-895h430v895h123v-895h430v895h123v-1001h-1229z" />
    <glyph glyph-name="afii10091" unicode="&#x449;" horiz-adv-x="1587" 
d="M174 0v1001h123v-895h430v895h123v-895h430v895h123v-895h133v-434h-115v328h-1247z" />
    <glyph glyph-name="afii10092" unicode="&#x44a;" horiz-adv-x="1058" 
d="M274 0v895h-274v106h397v-356h281q154 0 247 -88.5t93 -234.5t-93 -234t-247 -88h-404zM651 537h-254v-431h254q116 0 177 55.5t61 160.5t-60.5 160t-177.5 55z" />
    <glyph glyph-name="afii10093" unicode="&#x44b;" horiz-adv-x="1351" 
d="M174 0v1001h123v-356h281q154 0 247 -88.5t93 -234.5t-93 -234t-247 -88h-404zM1055 0v1001h123v-1001h-123zM551 537h-254v-431h254q116 0 176.5 55.5t60.5 160.5t-60.5 160t-176.5 55z" />
    <glyph glyph-name="afii10094" unicode="&#x44c;" horiz-adv-x="958" 
d="M174 0v1001h123v-356h281q154 0 247 -88.5t93 -234.5t-93 -234t-247 -88h-404zM551 537h-254v-431h254q116 0 176.5 55.5t60.5 160.5t-60.5 160t-176.5 55z" />
    <glyph glyph-name="afii10095" unicode="&#x44d;" horiz-adv-x="1126" 
d="M1032 492q0 -222 -137.5 -364t-362.5 -142q-182 0 -303.5 96t-160.5 258l122 22q32 -122 120.5 -193t221.5 -71q163 0 261.5 99t109.5 262h-426v106h422q-21 155 -116.5 246.5t-245.5 91.5q-133 0 -224.5 -67.5t-122.5 -182.5l-120 21q39 152 165.5 247t301.5 95
q223 0 359 -147t136 -377z" />
    <glyph glyph-name="afii10096" unicode="&#x44e;" horiz-adv-x="1597" 
d="M174 0v1001h123v-415h192q28 191 166.5 310.5t337.5 119.5q221 0 365.5 -145.5t144.5 -368.5q0 -224 -144.5 -370t-365.5 -146q-215 0 -358.5 139t-151.5 354h-186v-479h-123zM993 903q-167 0 -274 -112t-107 -289t107 -290.5t274 -113.5t274 113.5t107 290.5t-107 289
t-274 112z" />
    <glyph glyph-name="afii10097" unicode="&#x44f;" horiz-adv-x="1067" 
d="M127 700q0 131 83 216t216 85h467v-1001h-123v412h-248l-317 -412h-144l324 418q-112 9 -185 86t-73 196zM465 518h305v377h-303q-98 0 -154.5 -47t-56.5 -141q0 -93 56 -141t153 -48z" />
    <glyph glyph-name="uni0450" unicode="&#x450;" 
d="M305 1464h156l209 -276h-113zM600 -14q-228 0 -367 147t-139 379q0 218 140.5 361t355.5 143q207 0 340 -131t133 -336q0 -24 -4 -70h-834q11 -173 112 -277t263 -104q261 0 330 232l121 -23q-34 -147 -156 -234t-295 -87zM590 905q-137 0 -239.5 -85.5t-123.5 -231.5
h705q-6 136 -103.5 226.5t-238.5 90.5z" />
    <glyph glyph-name="afii10071" unicode="&#x451;" 
d="M395 1268q-37 0 -63.5 26.5t-26.5 63.5q0 38 26.5 64t63.5 26q38 0 64 -26t26 -64q0 -37 -26 -63.5t-64 -26.5zM764 1268q-37 0 -63.5 26.5t-26.5 63.5q0 38 26.5 64t63.5 26q38 0 64 -26t26 -64q0 -37 -26 -63.5t-64 -26.5zM600 -14q-228 0 -367 147t-139 379
q0 218 140.5 361t355.5 143q207 0 340 -131t133 -336q0 -24 -4 -70h-834q11 -173 112 -277t263 -104q261 0 330 232l121 -23q-34 -147 -156 -234t-295 -87zM590 905q-137 0 -239.5 -85.5t-123.5 -231.5h705q-6 136 -103.5 226.5t-238.5 90.5z" />
    <glyph glyph-name="afii10099" unicode="&#x452;" horiz-adv-x="1179" 
d="M174 0v1198h-123v109h123v229h123v-229h324v-109h-324v-367q51 86 138.5 135.5t199.5 49.5q84 0 155 -26.5t124.5 -77.5t83.5 -131.5t30 -182.5v-797q0 -125 -71.5 -195.5t-192.5 -70.5q-68 0 -137 27l28 104q55 -18 109 -18q65 0 103 41.5t38 111.5v793q0 149 -79 228
t-210 79q-140 0 -229.5 -94.5t-89.5 -261.5v-545h-123z" />
    <glyph glyph-name="afii10100" unicode="&#x453;" horiz-adv-x="858" 
d="M635 1464h156l-252 -276h-113zM174 0v1001h643v-106h-520v-895h-123z" />
    <glyph glyph-name="afii10101" unicode="&#x454;" horiz-adv-x="1124" 
d="M94 510q0 219 142 362.5t356 143.5q180 0 300.5 -95t158.5 -255l-119 -23q-30 120 -119 190t-221 70q-146 0 -247 -93.5t-118 -244.5h420v-106h-422q15 -161 117 -261t250 -100q141 0 231.5 75t116.5 200l117 -21q-30 -161 -156 -263.5t-309 -102.5q-215 0 -356.5 148.5
t-141.5 375.5z" />
    <glyph glyph-name="afii10102" unicode="&#x455;" horiz-adv-x="940" 
d="M496 -14q-170 0 -278.5 78.5t-145.5 224.5l125 33q58 -228 301 -228q113 0 183.5 47t70.5 138q0 32 -9.5 57.5t-32 43.5t-43.5 30t-60 22.5t-63.5 15.5t-72.5 13q-38 6 -58 10t-56 12t-56 15t-49.5 19t-46.5 25.5t-37 33t-30.5 41.5t-17.5 52t-7 64q0 120 104.5 201.5
t267.5 81.5q145 0 243.5 -68.5t133.5 -195.5l-125 -31q-49 186 -252 186q-108 0 -176.5 -46t-68.5 -124q0 -19 4 -35t9.5 -28t17 -23t21 -18t27.5 -14.5t30.5 -11.5t35 -9t36.5 -8t40.5 -7.5t40.5 -7.5q6 -1 17 -3q155 -29 220 -60q140 -67 140 -227q0 -133 -101.5 -216
t-281.5 -83z" />
    <glyph glyph-name="afii10103" unicode="&#x456;" horiz-adv-x="471" 
d="M141 1358q0 41 27.5 67.5t67.5 26.5t67 -26.5t27 -67.5q0 -40 -27 -67t-67 -27t-67.5 27t-27.5 67zM174 0v1001h123v-1001h-123z" />
    <glyph glyph-name="afii10104" unicode="&#x457;" horiz-adv-x="471" 
d="M121 1268q-32 0 -53 23.5t-21 66.5q0 44 21 67t53 23q34 0 54 -23t20 -67q0 -43 -20.5 -66.5t-53.5 -23.5zM350 1268q-32 0 -53 23.5t-21 66.5q0 44 21 67t53 23q34 0 54 -23t20 -67q0 -43 -20.5 -66.5t-53.5 -23.5zM174 0v1001h123v-1001h-123z" />
    <glyph glyph-name="afii10105" unicode="&#x458;" horiz-adv-x="471" 
d="M141 1358q0 41 27.5 67.5t67.5 26.5t67 -26.5t27 -67.5q0 -40 -27 -67t-67 -27t-67.5 27t-27.5 67zM174 1001h123v-1200q0 -125 -71.5 -195.5t-192.5 -70.5q-68 0 -137 27l28 104q56 -18 109 -18q65 0 103 41.5t38 111.5v1200z" />
    <glyph glyph-name="afii10106" unicode="&#x459;" horiz-adv-x="1542" 
d="M20 102q24 -4 39 -4q27 0 48.5 11t45 46t40.5 92.5t30.5 158t18.5 235.5l14 360h625v-356h280q154 0 247 -88.5t93 -234.5t-93 -234t-247 -88h-403v895h-387l-11 -254q-7 -162 -26 -281.5t-45 -190t-63 -113t-73 -56.5t-81 -14q-40 0 -68 12zM1135 537h-254v-431h254
q116 0 176.5 55.5t60.5 160.5t-60.5 160t-176.5 55z" />
    <glyph glyph-name="afii10107" unicode="&#x45a;" horiz-adv-x="1622" 
d="M174 0v1001h123v-395h532v395h123v-395h299q149 0 239.5 -83.5t90.5 -221.5q0 -136 -90.5 -218.5t-239.5 -82.5h-422v500h-532v-500h-123zM1225 498h-273v-392h273q112 0 169.5 49.5t57.5 145.5q0 97 -57.5 147t-169.5 50z" />
    <glyph glyph-name="afii10108" unicode="&#x45b;" horiz-adv-x="1179" 
d="M174 0v1198h-123v109h123v229h123v-229h324v-109h-324v-367q51 86 138.5 135.5t199.5 49.5q84 0 155 -26.5t124.5 -77.5t83.5 -131.5t30 -182.5v-598h-123v594q0 149 -79 228t-210 79q-140 0 -229.5 -94.5t-89.5 -261.5v-545h-123z" />
    <glyph glyph-name="afii10109" unicode="&#x45c;" horiz-adv-x="1021" 
d="M684 1464h156l-252 -276h-113zM174 1001h123v-413h166l364 413h144l-412 -469l453 -532h-152l-411 469h-152v-469h-123v1001z" />
    <glyph glyph-name="uni045D" unicode="&#x45d;" horiz-adv-x="1161" 
d="M291 1464h155l209 -276h-112zM174 0v1001h117v-815l579 815h117v-1001h-117v815l-579 -815h-117z" />
    <glyph glyph-name="afii10110" unicode="&#x45e;" horiz-adv-x="1017" 
d="M510 1284q80 0 131 43.5t51 126.5h109q0 -126 -80 -198t-211 -72t-211 72t-80 198h111q0 -83 50.5 -126.5t129.5 -43.5zM20 1001h140l368 -833l340 833h129l-598 -1452h-131l191 465z" />
    <glyph glyph-name="afii10193" unicode="&#x45f;" horiz-adv-x="1146" 
d="M174 0v1001h123v-895h553v895h123v-1001h-342v-328h-115v328h-342z" />
    <glyph glyph-name="afii10146" unicode="&#x462;" horiz-adv-x="1347" 
d="M246 0v1200h-191v117h191v260h133v-260h450v-117h-450v-285h373q136 0 238 -38t161.5 -104t88 -146t28.5 -174q0 -212 -135.5 -332.5t-380.5 -120.5h-506zM760 799h-381v-682h383q172 0 270 89.5t98 246.5q0 158 -99.5 252t-270.5 94z" />
    <glyph glyph-name="afii10194" unicode="&#x463;" horiz-adv-x="978" 
d="M174 0v893h-123v108h123v535h123v-535h324v-108h-324v-248h301q154 0 247 -88.5t93 -234.5t-93 -234t-247 -88h-424zM571 537h-274v-431h274q116 0 177 55.5t61 160.5t-60.5 160t-177.5 55z" />
    <glyph glyph-name="afii10147" unicode="&#x472;" horiz-adv-x="1726" 
d="M127 768q0 168 53.5 313t149 248t233 162t299.5 59t300 -59t234 -162t149.5 -248t53.5 -313t-53.5 -312.5t-149.5 -248t-234 -162.5t-300 -59t-299.5 59t-233 162t-149 248t-53.5 313zM862 1427q-253 0 -414.5 -163t-181.5 -428h1194q-20 265 -182.5 428t-415.5 163z
M862 109q256 0 419.5 167t178.5 437h-1194q15 -271 177.5 -437.5t418.5 -166.5z" />
    <glyph glyph-name="afii10195" unicode="&#x473;" horiz-adv-x="1208" 
d="M604 1016q221 0 365.5 -145.5t144.5 -368.5q0 -224 -144.5 -370t-365.5 -146t-365.5 146t-144.5 370q0 223 144.5 368.5t365.5 145.5zM604 903q-151 0 -254 -93t-123 -245h754q-20 152 -123 245t-254 93zM604 98q156 0 260.5 100.5t118.5 260.5h-758
q14 -160 118.5 -260.5t260.5 -100.5z" />
    <glyph glyph-name="afii10148" unicode="&#x474;" horiz-adv-x="1460" 
d="M27 1536h141l508 -1382l409 1126q55 150 118 210t171 60q42 0 86 -14l-20 -113q-32 7 -47 7q-56 0 -94.5 -27.5t-67.5 -104.5l-481 -1298h-156z" />
    <glyph glyph-name="afii10196" unicode="&#x475;" horiz-adv-x="1052" 
d="M420 0l-400 1001h136l336 -860l270 674q46 115 99.5 158t121.5 43q35 0 70 -12l-17 -105q-24 4 -35 4q-37 0 -64.5 -22.5t-57.5 -94.5l-322 -786h-137z" />
    <glyph glyph-name="afii10050" unicode="&#x490;" horiz-adv-x="1155" 
d="M246 0v1536h774v317h125v-440h-766v-1413h-133z" />
    <glyph glyph-name="afii10098" unicode="&#x491;" horiz-adv-x="858" 
d="M174 0v1001h528v248h115v-354h-520v-895h-123z" />
    <glyph glyph-name="ellipsis" unicode="&#x2026;" horiz-adv-x="1245" 
d="M213 -18q-43 0 -71.5 28t-28.5 72q0 43 28.5 70.5t71.5 27.5q44 0 72 -27.5t28 -70.5q0 -44 -28 -72t-72 -28zM623 -18q-43 0 -72 28t-29 72q0 42 29 70t72 28q44 0 72 -27.5t28 -70.5q0 -44 -28 -72t-72 -28zM1032 -18q-43 0 -71.5 28t-28.5 72q0 43 28.5 70.5
t71.5 27.5q44 0 72.5 -27.5t28.5 -70.5q0 -44 -28.5 -72t-72.5 -28z" />
    <glyph glyph-name="Euro" unicode="&#x20ac;" horiz-adv-x="1656" 
d="M82 532v119h178q-6 55 -6 117q0 61 6 119h-178v119h197q56 250 220.5 397t418.5 147q244 0 396.5 -131.5t196.5 -353.5l-127 -33q-37 182 -155 288.5t-311 106.5q-192 0 -320.5 -114t-177.5 -307h620v-119h-643q-6 -58 -6 -119q0 -62 6 -117h643v-119h-622
q49 -196 177 -311t323 -115q203 0 325.5 111t151.5 293l129 -33q-44 -224 -204.5 -358.5t-408.5 -134.5q-252 0 -415 148t-217 400h-197z" />
    <glyph glyph-name="uni20BD" unicode="&#x20bd;" horiz-adv-x="1417" 
d="M309 0v254h-278v123h278v268h-278v123h278v768h551q221 0 353.5 -123.5t132.5 -318.5q0 -193 -133 -321t-353 -128h-418v-268h461v-123h-461v-254h-133zM860 1413h-418v-645h418q163 0 255.5 90.5t92.5 235.5t-92 232t-256 87z" />
    <glyph glyph-name="arrowleft" unicode="&#x2190;" horiz-adv-x="1294" 
d="M86 672l471 538l84 -73l-354 -406h905v-119h-905l352 -407l-82 -72z" />
    <glyph glyph-name="arrowup" unicode="&#x2191;" horiz-adv-x="1282" 
d="M700 117h-118v985l-404 -383l-76 76l539 514l539 -514l-78 -80l-402 385v-983z" />
    <glyph glyph-name="arrowright" unicode="&#x2192;" horiz-adv-x="1294" 
d="M102 612v119h906l-355 406l84 73l471 -538l-471 -539l-82 72l353 407h-906z" />
    <glyph glyph-name="arrowdown" unicode="&#x2193;" horiz-adv-x="1280" 
d="M641 117l-539 514l78 80l402 -385v983h118v-983l402 383l76 -78z" />
    <glyph glyph-name="E.alt" horiz-adv-x="1433" 
d="M686 541q-121 0 -223 49.5t-168 146.5q-37 -82 -37 -176q0 -210 135 -331t346 -121q102 0 186.5 27t153 82.5t114.5 147t64 214.5l127 -21q-43 -284 -213.5 -428.5t-431.5 -144.5q-173 0 -311.5 65.5t-219.5 191t-81 289.5q0 189 98 326q-30 95 -30 191
q0 228 150.5 364.5t389.5 136.5q210 0 347.5 -119t170.5 -313l-129 -28q-26 151 -128.5 245.5t-260.5 94.5q-183 0 -298 -101t-115 -278q0 -44 6 -84q72 71 169 109t197 38q153 0 245.5 -79t92.5 -210q0 -128 -95 -206t-251 -78zM684 997q-92 0 -177 -39t-142 -108
q44 -95 130 -144t189 -49q100 0 159.5 45.5t59.5 122.5q0 78 -59.5 125t-159.5 47z" />
    <glyph glyph-name="L.alt" horiz-adv-x="1792" 
d="M1792 332q-44 -183 -131.5 -264.5t-237.5 -81.5q-64 0 -128 18t-109.5 40t-109 69t-96 75t-99.5 88q-15 15 -43 39q-60 -114 -116.5 -182.5t-133.5 -107.5t-176 -39q-160 0 -258.5 92.5t-98.5 247.5q0 158 105 258t272 100q96 0 183.5 -41.5t181.5 -118.5l288 639
q39 86 65 137t61.5 105t68.5 81.5t77.5 45.5t98.5 18q40 0 92 -12l-22 -123q-38 10 -64 10q-73 0 -118.5 -55.5t-114.5 -206.5l-332 -725q9 -8 27.5 -24.5t27.5 -24.5q76 -67 123.5 -105.5t114 -85t125.5 -68t115 -21.5q184 0 243 249zM193 326q0 -101 60 -159t163 -58
q101 0 171 62.5t154 231.5q-88 78 -159.5 118t-149.5 40q-108 0 -173.5 -65.5t-65.5 -169.5z" />
    <glyph glyph-name="M.alt" horiz-adv-x="2027" 
d="M451 1087l-240 -1087h-129l240 1094q53 242 167.5 349t298.5 107q163 0 299 -102q146 102 324 102q226 0 365 -170.5t139 -472.5q0 -186 -61.5 -402.5t-184.5 -504.5h-139q129 287 194.5 504.5t65.5 398.5q0 154 -40.5 272t-127.5 189.5t-211 71.5q-131 0 -237 -66
q118 -125 183.5 -306.5t65.5 -340.5q0 -200 -95.5 -323.5t-246.5 -123.5q-156 0 -249 109.5t-93 327.5q0 159 66.5 342.5t189.5 312.5q-100 68 -211 68q-129 0 -210.5 -79.5t-122.5 -269.5zM1083 391q96 0 155.5 90t59.5 236q0 148 -59 309t-160 270q-107 -109 -161 -272
t-54 -315q0 -157 60.5 -237.5t158.5 -80.5z" />
    <glyph glyph-name="Q.alt" horiz-adv-x="1726" 
d="M862 -14q-162 0 -299.5 59t-233 162.5t-149 248.5t-53.5 312q0 168 53.5 313t149 248t233 162t299.5 59q117 0 224.5 -31.5t201 -96t163 -156t109 -219.5t39.5 -279q0 -229 -99.5 -416t-280.5 -282l247 -336l-98 -72l-270 358q-106 -34 -236 -34zM264 768
q0 -192 73.5 -341.5t210 -233.5t314.5 -84q82 0 156 18l-150 199q-129 171 -129 348q0 169 112.5 282t291.5 113q212 0 332 -162q-27 114 -76 204t-108.5 148.5t-132.5 97t-145.5 54.5t-150.5 16q-178 0 -314.5 -84t-210 -233.5t-73.5 -341.5zM971 403l172 -231
q146 70 229.5 203.5t83.5 279.5q0 143 -83.5 221t-223.5 78q-127 0 -205 -80.5t-78 -197.5q0 -133 105 -273z" />
    <glyph glyph-name="R.alt" horiz-adv-x="1572" 
d="M311 0q-66 253 -101.5 448t-35.5 377q0 214 84.5 379.5t234.5 255.5t341 90q252 0 414.5 -156t162.5 -401q0 -270 -207 -426l232 -567h-138l-204 502q-103 -47 -226 -47q-169 0 -270.5 81.5t-101.5 221.5q0 126 81 204t211 78q58 0 106.5 -17.5t84.5 -46t69 -77t57.5 -98
t53.5 -121.5q119 119 119 307q0 195 -119 317.5t-325 122.5q-239 0 -383 -165.5t-144 -436.5q0 -176 35.5 -369.5t103.5 -455.5h-135zM621 768q0 -93 69 -145t189 -52q97 0 172 35q-75 186 -131.5 251t-135.5 65q-76 0 -119.5 -43t-43.5 -111z" />
    <glyph glyph-name="S.alt" horiz-adv-x="1355" 
d="M213 1198q0 105 65.5 186.5t170.5 123.5t227 42q211 0 340.5 -99t154.5 -271l-127 -29q-19 132 -114 208.5t-258 76.5q-146 0 -237 -63t-91 -167q0 -43 17 -76.5t43 -55.5t69 -41.5t83 -32t98 -28.5q17 -5 26 -7l129 -37q57 -16 98 -30t92.5 -36.5t87 -46t72 -58.5
t59 -76t36.5 -95.5t14 -118.5q0 -149 -84 -260t-222.5 -166t-310.5 -55q-261 0 -417 97t-156 277q0 148 110.5 238t290.5 90q184 0 308.5 -104.5t144.5 -276.5l-125 -33q-15 135 -104.5 216t-225.5 81q-122 0 -196 -56.5t-74 -149.5q0 -85 61 -145.5t160.5 -89t226.5 -28.5
q128 0 235 38.5t177 122.5t70 200q0 63 -21 114t-53 85.5t-83.5 63.5t-100 46.5t-115.5 36.5l-129 37q-171 49 -232 76q-139 63 -175 176q-15 45 -15 100z" />
    <glyph glyph-name="W.alt" horiz-adv-x="1961" 
d="M1876 629q0 -301 -146.5 -472t-383.5 -171q-198 0 -347 123q-146 -123 -315 -123q-159 0 -259.5 96.5t-143.5 312.5l-228 1141h133l228 -1135q32 -157 103.5 -224.5t178.5 -67.5q115 0 217 86q-84 100 -141.5 243t-80.5 270.5t-23 241.5q0 222 96.5 335.5t257.5 113.5
q151 0 242.5 -115.5t91.5 -318.5q0 -177 -70.5 -393t-195.5 -369q122 -94 264 -94q129 0 219 68.5t132 182.5t42 263q0 324 -217 694l-107 182l113 64l104 -183q236 -409 236 -751zM1018 1276q-96 0 -156.5 -80.5t-60.5 -234.5q0 -165 52 -352.5t153 -317.5
q100 131 158.5 319t58.5 351q0 151 -55.5 233t-149.5 82z" />
    <glyph glyph-name="arrowleft.alt" horiz-adv-x="1730" 
d="M61 676l547 616l84 -73l-434 -490q276 -27 428 -27q159 0 291 29q-57 117 -57 260q0 168 82.5 264.5t211.5 96.5q121 0 191 -71.5t70 -184.5q0 -127 -83.5 -238t-240.5 -178q132 -148 360 -148q89 0 179 19l10 -107q-86 -18 -205 -18q-152 0 -269 56t-192 155
q-158 -45 -362 -45q-180 0 -408 24l428 -483l-84 -74zM1038 1004q0 -128 54 -236q132 52 198 135.5t66 179.5q0 75 -39 117.5t-105 42.5q-79 0 -126.5 -64.5t-47.5 -174.5z" />
    <glyph glyph-name="arrowright.alt" horiz-adv-x="1730" 
d="M41 592q90 -19 180 -19q222 0 354 142q-157 66 -238 170.5t-81 226.5q0 124 72.5 202.5t197.5 78.5q126 0 205.5 -90t79.5 -248q0 -152 -63 -281q130 -31 296 -31q153 0 429 27l-435 490l84 73l547 -616l-547 -617l-84 74l428 483q-228 -24 -407 -24q-210 0 -371 45
q-78 -99 -195.5 -155t-267.5 -56q-113 0 -194 18zM375 1124q0 -96 66 -180t198 -137q53 109 53 237q0 110 -46.5 175t-123.5 65q-68 0 -107.5 -42.5t-39.5 -117.5z" />
    <glyph glyph-name="afii10022.alt" horiz-adv-x="1433" 
d="M686 541q-121 0 -223 49.5t-168 146.5q-37 -82 -37 -176q0 -210 135 -331t346 -121q102 0 186.5 27t153 82.5t114.5 147t64 214.5l127 -21q-43 -284 -213.5 -428.5t-431.5 -144.5q-173 0 -311.5 65.5t-219.5 191t-81 289.5q0 189 98 326q-30 95 -30 191
q0 228 150.5 364.5t389.5 136.5q210 0 347.5 -119t170.5 -313l-129 -28q-26 151 -128.5 245.5t-260.5 94.5q-183 0 -298 -101t-115 -278q0 -44 6 -84q72 71 169 109t197 38q153 0 245.5 -79t92.5 -210q0 -128 -95 -206t-251 -78zM684 997q-92 0 -177 -39t-142 -108
q44 -95 130 -144t189 -49q100 0 159.5 45.5t59.5 122.5q0 78 -59.5 125t-159.5 47z" />
    <glyph glyph-name="afii10023.alt" horiz-adv-x="1433" 
d="M565 1718q-37 0 -63.5 26.5t-26.5 63.5q0 38 26.5 64t63.5 26q38 0 64 -26t26 -64q0 -37 -26 -63.5t-64 -26.5zM934 1718q-37 0 -63.5 26.5t-26.5 63.5q0 38 26.5 64t63.5 26q38 0 64 -26t26 -64q0 -37 -26 -63.5t-64 -26.5zM686 541q-121 0 -223 49.5t-168 146.5
q-37 -82 -37 -176q0 -210 135 -331t346 -121q102 0 186.5 27t153 82.5t114.5 147t64 214.5l127 -21q-43 -284 -213.5 -428.5t-431.5 -144.5q-173 0 -311.5 65.5t-219.5 191t-81 289.5q0 189 98 326q-30 95 -30 191q0 228 150.5 364.5t389.5 136.5q210 0 347.5 -119
t170.5 -313l-129 -28q-26 151 -128.5 245.5t-260.5 94.5q-183 0 -298 -101t-115 -278q0 -44 6 -84q72 71 169 109t197 38q153 0 245.5 -79t92.5 -210q0 -128 -95 -206t-251 -78zM684 997q-92 0 -177 -39t-142 -108q44 -95 130 -144t189 -49q100 0 159.5 45.5t59.5 122.5
q0 78 -59.5 125t-159.5 47z" />
    <glyph glyph-name="afii10025.alt" horiz-adv-x="1447" 
d="M786 514q-141 0 -228 80.5t-87 210.5q0 134 93 215.5t247 81.5q91 0 181.5 -40.5t162.5 -113.5q4 50 4 74q0 196 -111.5 304t-306.5 108q-178 0 -300.5 -103t-149.5 -266l-125 25q34 205 189.5 332.5t385.5 127.5q252 0 398.5 -139t146.5 -375q0 -101 -43 -192
q92 -134 92 -314q0 -244 -167 -394t-437 -150q-260 0 -428 136.5t-207 399.5l127 29q31 -220 169.5 -331t338.5 -111q211 0 343 116t132 318q0 89 -32 174q-70 -99 -170.5 -151t-217.5 -52zM600 805q0 -78 51.5 -126t136.5 -48q104 0 192 48.5t136 141.5q-54 75 -136 119.5
t-169 44.5q-95 0 -153 -49t-58 -131z" />
    <glyph glyph-name="afii10030.alt" horiz-adv-x="2017" 
d="M1296 1434q-109 0 -204 -66q123 -145 192.5 -361.5t69.5 -394.5q0 -187 -95 -300t-251 -113t-251 110.5t-95 292.5q0 180 69 399t195 365q-87 68 -183 68q-129 0 -213 -91t-127 -296l-221 -1047h-131l223 1053q57 265 172.5 381t301.5 116q139 0 264 -100
q131 100 280 100q180 0 292 -112.5t163 -364.5l219 -1073h-133l-219 1067q-39 192 -118.5 279.5t-199.5 87.5zM791 598q0 -129 60 -206t159 -77q97 0 156 79.5t59 211.5q0 168 -60 361.5t-161 318.5q-104 -125 -158.5 -320t-54.5 -368z" />
    <glyph glyph-name="afii10038.alt" horiz-adv-x="2177" 
d="M1022 -20v344q-55 -105 -150.5 -166.5t-234.5 -61.5q-230 0 -370 182.5t-140 483.5q0 196 67.5 347.5t192 235.5t287.5 82q235 -3 348 -206v335h133v-346q108 214 348 217q163 2 287.5 -82t192 -235.5t67.5 -347.5q0 -301 -140 -483.5t-370 -182.5q-265 0 -385 221v-337
h-133zM264 760q0 -244 114 -392.5t302 -148.5q152 0 247 115t95 328v200q0 210 -95 325t-247 118q-188 -3 -302 -152.5t-114 -392.5zM1913 760q0 243 -114 392.5t-302 152.5q-152 -3 -247 -118t-95 -325v-200q0 -213 95 -328t247 -115q188 0 302 148.5t114 392.5z" />
    <glyph glyph-name="afii10040.alt" horiz-adv-x="1677" 
d="M1378 -385l-45 -16l-41 108l29 10q63 23 91 54t28 77q0 32 -16 69t-75 148q-20 38 -32 60l-57 108q-210 -247 -517 -247q-247 0 -382.5 136t-135.5 417v997h133v-991q0 -224 101.5 -330t285.5 -106q276 0 457 247q-221 399 -221 811q0 188 81 284.5t216 96.5
q143 0 216 -106t73 -295q0 -172 -56 -396t-168 -405l84 -158q94 -174 117 -230.5t23 -109.5q0 -89 -46.5 -143.5t-142.5 -89.5zM1114 1167q0 -363 164 -688q79 152 117.5 334.5t38.5 333.5q0 133 -43.5 209t-116.5 76q-70 0 -115 -66.5t-45 -198.5z" />
    <glyph glyph-name="afii10042.alt" horiz-adv-x="2402" 
d="M2245 123h127v-123h-127q-199 0 -347 164q-178 -178 -417 -178q-249 0 -418 200q-180 -200 -418 -200q-62 0 -117.5 13.5t-111 48.5t-96 88.5t-65.5 141t-26 199.5l-4 1059h133l4 -1053q1 -91 22 -161t52.5 -109t74 -63.5t79.5 -32.5t76 -8q181 0 325 178
q-108 171 -160.5 403.5t-52.5 456.5q0 189 85.5 296t228.5 107q134 0 213 -106.5t79 -296.5q0 -222 -61.5 -452.5t-175.5 -401.5q140 -184 336 -184q199 0 344 155q-102 168 -150.5 406.5t-48.5 476.5q0 190 84 296.5t225 106.5q135 0 216 -107t81 -296q0 -233 -64.5 -475
t-189.5 -414q109 -135 265 -135zM1761 1147q0 -212 35.5 -419.5t110.5 -356.5q96 151 145 358t49 418q0 136 -46 211.5t-122 75.5q-79 0 -125.5 -75.5t-46.5 -211.5zM911 1147q0 -192 41 -389.5t121 -349.5q84 151 131 347t47 392q0 136 -44.5 211.5t-119.5 75.5
q-81 0 -128.5 -75.5t-47.5 -211.5z" />
    <glyph glyph-name="afii10043.alt" horiz-adv-x="2344" 
d="M1962 -385l-45 -16l-41 108l29 10q63 23 90.5 54t27.5 77q0 37 -19 79t-103 198l-13 25q-179 -164 -407 -164q-247 0 -418 196q-180 -196 -418 -196q-62 0 -117.5 13.5t-111 48.5t-96 88.5t-65.5 141t-26 199.5l-4 1059h133l4 -1053q1 -91 22 -161t52.5 -109t74 -63.5
t79.5 -32.5t76 -8q183 0 323 174q-107 169 -159 397t-52 446q0 210 84 317t230 107q136 0 214 -106.5t78 -317.5q0 -218 -61.5 -444t-175.5 -395q140 -178 336 -178q194 0 344 153q-100 175 -149.5 406t-49.5 458q0 211 82.5 317.5t226.5 106.5q138 0 217.5 -106.5
t79.5 -317.5q0 -232 -65 -470.5t-193 -407.5l33 -60q93 -170 116 -228t23 -112q0 -89 -46 -143.5t-140 -89.5zM1761 1126q0 -202 37 -402.5t111 -354.5q94 146 143 349t49 408q0 157 -44.5 232.5t-123.5 75.5q-81 0 -126.5 -75.5t-45.5 -232.5zM911 1126q0 -188 41 -382
t121 -343q84 149 131 340.5t47 384.5q0 157 -43.5 232.5t-120.5 75.5q-83 0 -129.5 -75.5t-46.5 -232.5z" />
    <glyph glyph-name="afii10049.alt" horiz-adv-x="1558" 
d="M1333 0h-133v948q0 219 -117.5 349t-330.5 130q-218 0 -339.5 -114t-121.5 -305q0 -215 158 -334q40 92 74.5 152.5t80 109.5t102 71.5t128.5 22.5q122 0 196 -72.5t74 -193.5q0 -141 -104 -226t-273 -85q-117 0 -223 47l-234 -500h-137l264 555q-110 74 -174.5 192
t-64.5 259q0 245 166.5 394.5t423.5 149.5q273 0 429 -161.5t156 -440.5v-948zM555 608q83 -39 176 -39q115 0 181.5 52.5t66.5 144.5q0 64 -43.5 104.5t-112.5 40.5q-85 0 -141.5 -63t-128.5 -238z" />
    </font>
</defs>
</svg>
