<?xml version="1.0" standalone="no"?>
<!DOCTYPE svg PUBLIC "-//W3C//DTD SVG 20010904//EN"
 "http://www.w3.org/TR/2001/REC-SVG-20010904/DTD/svg10.dtd">
<svg version="1.0" xmlns="http://www.w3.org/2000/svg"
 width="700.000000pt" height="700.000000pt" viewBox="0 0 700.000000 700.000000"
 preserveAspectRatio="xMidYMid meet">
<metadata>
Created by potrace 1.14, written by Peter Selinger 2001-2017
</metadata>
<g transform="translate(0.000000,700.000000) scale(0.100000,-0.100000)"
fill="#000000" stroke="none">
<path d="M3298 6995 c-1 -1 -46 -5 -99 -9 -53 -4 -104 -8 -115 -10 -10 -2 -41
-7 -69 -10 -27 -4 -72 -11 -100 -16 -27 -5 -65 -12 -84 -15 -19 -3 -37 -7 -40
-9 -3 -2 -24 -7 -46 -10 -113 -18 -458 -126 -582 -182 -28 -13 -54 -24 -58
-24 -15 0 -311 -153 -410 -212 -317 -189 -628 -454 -870 -743 -56 -66 -124
-155 -109 -142 10 9 197 182 224 207 82 77 233 195 335 262 64 41 382 228 389
228 2 0 36 19 77 41 41 23 106 59 144 80 69 37 70 38 71 81 1 23 2 47 3 52 1
8 314 2 329 -7 4 -3 43 -8 87 -12 100 -9 115 -15 89 -41 -88 -89 -253 -279
-357 -411 -39 -51 -75 -92 -78 -93 -3 0 -6 6 -7 13 -2 27 -9 64 -21 115 l-13
52 -97 -51 c-53 -29 -139 -74 -191 -102 -124 -65 -365 -198 -410 -226 -19 -11
-42 -24 -50 -28 -8 -4 -64 -38 -125 -76 -207 -129 -324 -226 -535 -442 -230
-235 -237 -243 -286 -355 -75 -170 -204 -554 -190 -567 4 -4 377 313 396 336
3 4 61 51 130 107 518 415 813 560 2210 1084 223 84 408 154 412 156 6 4 -42
147 -63 186 -6 11 -8 22 -6 25 8 8 419 -151 627 -242 47 -21 99 -43 116 -49
l32 -12 -107 -174 c-58 -96 -151 -251 -205 -343 -55 -92 -102 -164 -106 -160
-4 4 -27 65 -51 136 -24 70 -47 127 -50 127 -14 0 -1249 -452 -1324 -485 -16
-7 -51 -20 -77 -29 -26 -9 -56 -20 -65 -25 -10 -6 -45 -20 -78 -31 -33 -12
-73 -28 -90 -35 -16 -8 -66 -28 -110 -45 -336 -132 -683 -308 -930 -473 -75
-50 -312 -221 -365 -264 -8 -7 -99 -77 -201 -157 -102 -79 -187 -151 -188
-158 -4 -31 -8 -516 -4 -550 l5 -37 522 263 c545 275 758 377 1041 497 413
176 881 338 1595 555 135 41 265 81 290 88 155 47 741 219 1095 321 160 46
331 96 380 110 50 14 160 47 245 71 85 25 156 47 158 49 3 3 -66 171 -94 229
-8 16 -13 31 -11 32 11 11 687 -437 687 -454 0 -9 -108 -308 -154 -427 -19
-49 -50 -130 -69 -179 l-34 -89 -49 149 c-26 82 -48 150 -49 151 0 1 -36 -9
-80 -21 -82 -24 -123 -36 -420 -126 -93 -28 -206 -62 -250 -75 -44 -13 -141
-42 -215 -65 -74 -23 -142 -43 -150 -45 -8 -2 -69 -20 -135 -40 -66 -20 -266
-81 -445 -135 -904 -273 -1352 -414 -1860 -585 -135 -46 -261 -88 -280 -95
-19 -6 -44 -15 -55 -20 -11 -4 -67 -25 -125 -45 -151 -53 -488 -179 -760 -283
-459 -176 -703 -271 -708 -277 -9 -9 37 -187 100 -378 34 -103 64 -183 67
-178 4 5 60 22 126 37 140 31 129 29 180 39 22 4 126 27 230 51 105 23 201 45
215 48 36 7 139 31 350 82 102 25 193 47 203 49 10 2 104 27 210 55 106 29
199 53 207 55 15 3 368 104 520 148 287 84 538 159 770 229 146 44 310 93 365
110 55 16 188 57 295 90 107 33 206 62 219 64 14 3 28 7 32 9 4 3 168 54 366
114 348 106 463 142 463 145 0 0 -22 72 -49 158 l-48 157 31 -16 c17 -8 60
-32 96 -53 36 -21 81 -47 100 -57 58 -33 328 -192 428 -252 50 -31 92 -59 92
-63 0 -23 -390 -811 -397 -804 -3 3 -21 70 -42 149 l-36 145 -595 -179 c-327
-99 -640 -192 -695 -208 -55 -16 -163 -48 -240 -71 -77 -23 -149 -44 -160 -46
-11 -2 -31 -8 -45 -14 -14 -5 -65 -21 -115 -34 -49 -14 -155 -43 -235 -66
-312 -89 -696 -189 -830 -216 -14 -3 -45 -10 -70 -15 -25 -6 -56 -13 -70 -15
-14 -3 -41 -9 -60 -14 -19 -5 -53 -12 -75 -15 -22 -4 -47 -8 -55 -10 -8 -3
-33 -7 -55 -10 -22 -4 -47 -8 -55 -10 -8 -3 -33 -7 -55 -10 -22 -3 -51 -7 -65
-10 -14 -3 -43 -8 -65 -11 -22 -3 -49 -7 -60 -8 -11 -2 -45 -6 -75 -10 -30 -4
-66 -9 -80 -11 -14 -2 -52 -7 -85 -10 -33 -3 -71 -8 -85 -10 -14 -2 -56 -7
-95 -11 -38 -3 -79 -8 -89 -10 -10 -2 -58 -6 -105 -9 -47 -4 -97 -8 -111 -10
-48 -7 -176 -19 -340 -31 l-75 -6 -49 96 c-27 53 -51 94 -53 92 -4 -3 66 -138
119 -231 16 -27 32 -58 35 -67 3 -10 9 -18 14 -18 5 0 9 -5 9 -11 0 -15 130
-207 219 -323 153 -200 331 -384 561 -580 65 -55 278 -207 352 -251 353 -209
600 -317 934 -409 118 -32 271 -66 367 -80 20 -3 52 -8 70 -11 231 -37 692
-41 917 -9 344 50 629 125 907 240 476 196 943 527 1268 898 33 38 67 76 75
85 13 14 67 82 92 116 4 6 18 24 31 40 97 123 235 349 332 543 152 304 254
618 314 967 18 105 23 140 41 314 8 83 6 583 -3 598 -3 5 -8 35 -11 68 -7 72
-14 121 -21 155 -2 14 -7 41 -10 60 -42 272 -162 642 -302 928 -222 456 -526
837 -947 1187 -162 135 -411 294 -632 404 -177 88 -324 149 -459 191 -22 7
-56 18 -75 25 -42 15 -299 80 -355 90 -22 4 -49 9 -60 11 -18 3 -186 27 -280
39 -44 6 -531 15 -537 10z m1432 -4947 c36 -16 102 -48 148 -69 46 -21 85 -39
87 -39 2 0 42 -18 89 -40 47 -22 108 -49 136 -61 27 -12 50 -23 50 -25 0 -18
-447 -684 -459 -684 -3 0 -17 47 -30 105 -13 58 -29 105 -34 105 -6 0 -96 -21
-201 -46 -105 -25 -198 -47 -206 -49 -8 -2 -107 -26 -220 -54 -113 -27 -217
-52 -230 -55 -14 -2 -101 -23 -195 -45 -93 -22 -181 -42 -195 -45 -14 -2 -70
-14 -125 -26 -55 -12 -109 -24 -120 -26 -11 -2 -31 -6 -45 -9 -14 -3 -36 -7
-50 -10 -14 -3 -36 -7 -50 -10 -114 -24 -413 -68 -560 -81 -155 -15 -485 -10
-705 10 -22 2 -74 7 -115 11 -41 3 -86 8 -100 10 -14 2 -43 6 -65 9 -22 3 -65
8 -95 11 -30 4 -66 8 -80 10 -14 2 -54 7 -90 11 -36 4 -68 9 -72 10 -5 1 -25
2 -45 3 -35 1 -49 12 -175 141 -75 78 -151 159 -169 181 l-32 41 119 -7 c65
-4 137 -9 159 -10 343 -23 404 -26 625 -26 118 0 235 2 260 5 25 3 79 8 120
11 41 4 86 8 100 10 14 2 50 6 80 9 30 4 80 11 110 16 30 5 66 11 80 14 31 5
186 33 220 40 227 45 639 141 1075 252 165 41 307 77 315 79 17 4 224 56 421
106 l127 32 -9 31 c-6 17 -21 74 -36 126 -14 52 -28 103 -30 112 -5 18 11 12
217 -84z m230 -1087 c98 -25 164 -40 300 -68 14 -3 32 -6 40 -8 8 -2 25 -4 38
-4 12 -1 22 -4 22 -8 0 -24 -430 -433 -454 -433 -3 0 -6 21 -6 46 0 38 -3 45
-17 40 -143 -41 -980 -236 -1077 -250 -21 -4 -48 -8 -60 -11 -12 -2 -37 -6
-56 -9 -94 -12 -137 -18 -159 -22 -140 -21 -544 -21 -801 1 -25 2 -88 7 -140
10 -52 3 -111 8 -130 10 -19 2 -73 7 -119 10 -70 6 -104 15 -200 56 -161 68
-455 218 -446 227 3 3 109 -9 285 -33 14 -2 48 -6 75 -9 28 -3 86 -11 130 -16
44 -5 109 -12 145 -15 36 -3 79 -7 95 -10 108 -17 446 -23 615 -12 113 8 293
31 410 53 47 9 99 18 115 20 33 4 35 5 150 29 44 9 91 19 105 21 14 3 45 10
70 15 25 6 52 12 60 14 45 9 341 77 375 86 92 23 153 38 176 43 13 2 96 21
185 42 l161 38 -14 55 c-7 31 -15 73 -18 94 -6 34 -4 38 12 33 10 -3 70 -19
133 -35z"/>
<path d="M276 2137 c3 -10 9 -15 12 -12 3 3 0 11 -7 18 -10 9 -11 8 -5 -6z"/>
<path d="M291 2105 c0 -5 8 -26 19 -45 11 -19 19 -30 19 -25 0 6 -8 26 -19 45
-11 19 -19 31 -19 25z"/>
</g>
</svg>
