<svg width="122" height="28" viewBox="0 0 122 28" fill="none" xmlns="http://www.w3.org/2000/svg">
<path d="M95.3347 13.9868C95.3347 13.2726 95.3347 12.6009 95.3116 11.9805C95.2959 11.3953 95.2379 10.8119 95.1382 10.235C95.045 9.70824 94.8803 9.19662 94.6489 8.7143C94.4045 8.21701 94.078 7.76453 93.683 7.37595C93.1228 6.80198 92.4562 6.34261 91.7204 6.02347C90.9245 5.70104 90.072 5.54121 89.2133 5.55338C88.3513 5.54224 87.4957 5.70202 86.6958 6.02347C85.9558 6.33825 85.285 6.79563 84.7217 7.36953C84.3275 7.75788 84.0022 8.21045 83.7597 8.70788C83.5302 9.1903 83.3681 9.70201 83.278 10.2286C83.1806 10.8057 83.1248 11.389 83.1111 11.9741C83.0957 12.5945 83.0879 13.2662 83.0918 13.9804C83.0957 14.6945 83.0918 15.3611 83.1111 15.9853C83.1248 16.5704 83.1806 17.1537 83.278 17.7308C83.3681 18.2574 83.5302 18.7691 83.7597 19.2515C84.0031 19.7484 84.3283 20.2008 84.7217 20.5899C85.2841 21.1643 85.9552 21.621 86.6958 21.9334C87.4952 22.2569 88.351 22.4176 89.2133 22.406C90.0723 22.4187 90.925 22.2579 91.7204 21.9334C92.4563 21.6185 93.1232 21.162 93.683 20.5899C94.0771 20.2006 94.4035 19.7482 94.6489 19.2515C94.8803 18.7692 95.045 18.2576 95.1382 17.7308C95.2368 17.1555 95.2939 16.5739 95.309 15.9904C95.3283 15.3662 95.3373 14.6983 95.3322 13.9855L95.3347 13.9868ZM92.098 13.9868C92.098 14.778 92.0865 15.4369 92.0595 15.9609C92.0443 16.3914 92.0014 16.8204 91.9311 17.2453C91.8829 17.5284 91.7965 17.8037 91.6742 18.0635C91.5749 18.2729 91.445 18.4664 91.2889 18.6376C91.0478 18.9136 90.7486 19.1329 90.4129 19.2798C90.0351 19.4415 89.6281 19.5237 89.2171 19.5213C88.8042 19.5231 88.3951 19.4409 88.0149 19.2798C87.671 19.1356 87.3638 18.9162 87.1158 18.6376C86.9587 18.4671 86.8287 18.2735 86.7305 18.0635C86.6116 17.8034 86.5295 17.528 86.4865 17.2453C86.4179 16.8201 86.375 16.3912 86.358 15.9609C86.3349 15.4369 86.3234 14.7788 86.3234 13.9868C86.3234 13.1956 86.3349 12.5354 86.358 12.0114C86.3751 11.581 86.418 11.1521 86.4865 10.727C86.5295 10.4442 86.6116 10.1689 86.7305 9.90879C86.829 9.69894 86.959 9.50534 87.1158 9.33467C87.3641 9.05647 87.6712 8.83709 88.0149 8.69246C88.3946 8.5295 88.804 8.44727 89.2171 8.451C89.6282 8.44673 90.0357 8.529 90.4129 8.69246C90.7484 8.83981 91.0474 9.05904 91.2889 9.33467C91.4448 9.50612 91.5746 9.69956 91.6742 9.90879C91.7965 10.1686 91.8829 10.4439 91.9311 10.727C92.0014 11.1519 92.0443 11.5809 92.0595 12.0114C92.0878 12.5341 92.098 13.1943 92.098 13.9868Z" fill="#A1A1A1"/>
<path d="M121.126 5.98258C121.124 5.8264 120.998 5.70013 120.842 5.69873H118.172C118.015 5.69943 117.888 5.82611 117.888 5.98258V15.8468L111.376 5.77836C111.332 5.71029 111.294 5.69873 111.197 5.69873H108.721C108.565 5.7008 108.439 5.82668 108.437 5.98258V21.9888C108.439 22.1445 108.565 22.27 108.721 22.2714H111.39C111.546 22.2707 111.672 22.1446 111.672 21.9888V12.0989L118.186 22.1905C118.231 22.2585 118.267 22.2701 118.364 22.2701H120.839C120.995 22.2694 121.122 22.1435 121.123 21.9875L121.126 5.98258Z" fill="#A1A1A1"/>
<path d="M103.226 5.98258C103.225 5.82611 103.099 5.69943 102.942 5.69873H100.275C100.118 5.69943 99.9914 5.82611 99.9907 5.98258V21.9875C99.9914 22.144 100.118 22.2707 100.275 22.2714H102.942C103.099 22.2707 103.225 22.144 103.226 21.9875V5.98258Z" fill="#A1A1A1"/>
<path d="M71.2908 13.9867C71.2908 13.1904 71.2998 12.5276 71.3229 11.9997C71.3386 11.5693 71.3815 11.1403 71.4514 10.7153C71.698 9.28964 72.7897 8.44836 74.1833 8.44836C75.0927 8.45606 75.9172 8.79257 76.4438 9.55808C76.6823 9.91546 76.8562 10.3119 76.9576 10.7295C76.9654 10.7734 77.0056 10.8041 77.0501 10.8001H80.1905C80.2354 10.8001 80.2521 10.7693 80.2444 10.7256C79.9015 8.7823 78.8649 7.0368 77.0334 6.17239C76.1332 5.75562 75.1507 5.54709 74.1589 5.5623C72.3907 5.5623 70.9012 6.16768 69.6905 7.37845C68.9992 8.05215 68.5274 8.91881 68.3367 9.86505C68.1517 10.7967 68.0584 12.1701 68.0567 13.9854C68.055 15.8007 68.1483 17.1737 68.3367 18.1045C68.5258 19.052 68.9962 19.9204 69.6866 20.5962C70.8965 21.8062 72.386 22.4111 74.155 22.4111C75.1467 22.4261 76.1291 22.218 77.0295 21.8023C78.8611 20.9379 79.8976 19.1924 80.2405 17.2491C80.2482 17.2041 80.2316 17.1746 80.1866 17.1746H77.0449C77.0003 17.1699 76.9597 17.2009 76.9525 17.2452C76.8508 17.6623 76.677 18.0583 76.4387 18.4153C75.9121 19.186 75.0875 19.5186 74.1782 19.5251C72.7846 19.5251 71.6928 18.6851 71.4462 17.2594C71.3765 16.8344 71.3336 16.4054 71.3178 15.975C71.2998 15.4445 71.2908 14.7805 71.2908 13.9867Z" fill="#A1A1A1"/>
<path d="M38.1226 5.98258C38.1219 5.82611 37.9952 5.69943 37.8388 5.69873H35.1711C35.0146 5.69943 34.8879 5.82611 34.8872 5.98258V21.9888C34.8886 22.1448 35.0151 22.2707 35.1711 22.2715H37.8388C37.9947 22.2707 38.1212 22.1448 38.1226 21.9888V17.2905L40.2637 14.7307L44.6615 22.1866C44.6954 22.2416 44.7563 22.274 44.8208 22.2715H48.0626C48.2116 22.2715 48.2386 22.1789 48.1641 22.0518L42.4061 12.2903L47.6889 5.95304C47.7955 5.8246 47.7505 5.70258 47.5835 5.70258H44.0399C43.9968 5.70005 43.9552 5.71935 43.9294 5.75396L38.1226 12.718V5.98258Z" fill="#A1A1A1"/>
<path d="M57.5578 19.5253C56.0564 19.5253 54.6949 18.1356 54.6949 16.4762V5.98258C54.6942 5.82611 54.5675 5.69943 54.411 5.69873H51.7433C51.5868 5.69943 51.4602 5.82611 51.4595 5.98258V16.4351C51.4595 20.0892 54.1927 22.4114 57.5578 22.4114C60.923 22.4114 63.6562 20.0892 63.6562 16.4351V5.98258C63.6548 5.8264 63.5285 5.70013 63.3723 5.69873H60.7033C60.5474 5.70013 60.4215 5.82661 60.4208 5.98258V16.4762C60.4208 18.1343 59.058 19.5253 57.5578 19.5253Z" fill="#A1A1A1"/>
<path fill-rule="evenodd" clip-rule="evenodd" d="M8.07119 13.9869L16.353 22.27L21.5806 17.0425C22.5153 16.2009 23.9454 16.2383 24.8348 17.1277C25.7242 18.0172 25.7617 19.4472 24.92 20.382L18.0215 27.2818C17.0948 28.1931 15.6087 28.1931 14.682 27.2818L4.72917 17.3264V23.2436C4.72917 24.5496 3.67051 25.6082 2.36459 25.6082C1.05866 25.6082 0 24.5496 0 23.2436V4.72252C0 3.4166 1.05866 2.35794 2.36459 2.35794C3.67051 2.35794 4.72917 3.4166 4.72917 4.72252V10.6398L14.6807 0.686929C15.6071 -0.22507 17.0938 -0.22507 18.0202 0.686929L24.9239 7.58546C25.7655 8.52021 25.7281 9.95028 24.8386 10.8397C23.9492 11.7291 22.5192 11.7666 21.5844 10.9249L16.3569 5.69739L8.07119 13.9869ZM16.3569 11.6198C15.3993 11.6193 14.5358 12.1957 14.169 13.0802C13.8022 13.9647 14.0044 14.983 14.6813 15.6603C15.3582 16.3376 16.3765 16.5403 17.2612 16.174C18.1459 15.8077 18.7228 14.9445 18.7228 13.9869C18.7231 13.3591 18.474 12.7569 18.0303 12.3127C17.5866 11.8686 16.9847 11.6188 16.3569 11.6185V11.6198Z" fill="#A1A1A1"/>
</svg>
