<svg width="162" height="31" viewBox="0 0 162 31" fill="none" xmlns="http://www.w3.org/2000/svg">
<path d="M0 0H21.9678C23.3986 0.104926 24.8262 0.317958 26.1998 0.84577C27.3635 1.37676 28.5304 2.22253 29.2681 3.38626C29.7991 4.23203 30.063 5.29084 30.063 6.35282V12.5435C30.063 12.9155 30.063 13.3384 29.904 13.7072C29.4811 14.9218 28.7403 16.0887 27.6815 16.8804C26.4097 17.9392 24.769 18.4702 23.1315 18.6801C22.6005 18.785 22.2317 18.6801 21.7547 18.6801H13.1285V12.7025H24.8803V6.356H6.61672V30.4923H0V0Z" fill="#A1A1A1"/>
<path d="M67.8398 4.23193V19.0552C67.9225 20.0726 68.18 21.0869 68.6856 21.9327C69.277 22.7785 70.1672 23.4144 71.1434 23.7101C72.1195 24.0503 73.1751 24.133 74.1926 24.133C75.2514 24.0058 76.3961 23.8373 77.2832 23.2014C78.0463 22.7785 78.555 21.9295 78.8507 21.1696C79.1909 20.3238 79.2736 19.3064 79.2736 18.3747V14.9917C79.2736 13.9742 79.0606 13.0012 78.6377 12.1141C78.1289 11.138 77.2387 10.4194 76.2244 9.99653C75.0384 9.65631 73.6839 9.57364 72.5392 9.86934C71.6076 10.0824 70.8445 10.5466 70.1259 11.1412V4.32096H67.8366V4.23193H67.8398ZM73.6839 11.6913C74.2753 11.6913 74.9557 11.8184 75.5026 12.1141C76.1385 12.4098 76.5614 12.9599 76.7744 13.6372C76.9875 14.3144 77.0256 14.9917 77.0256 15.6689L76.943 18.8421C76.943 19.6879 76.7299 20.7054 76.0972 21.3826C75.4199 22.0186 74.4025 22.2284 73.5567 22.2284C72.6251 22.2284 71.6521 22.0154 71.0162 21.3826C70.3389 20.7054 70.1704 19.7769 70.0846 18.8421V16.0886C70.0846 15.4114 70.0846 14.6896 70.2118 13.971C70.3389 13.3351 70.7205 12.6992 71.3151 12.2763C71.738 11.9361 72.3325 11.7676 72.9208 11.6849H73.5567L73.6839 11.6913ZM37.6909 6.05702V23.8405H39.9802V16.0918H42.3522L47.4364 23.8405H50.3139L44.81 15.8788C45.6558 15.6276 46.6287 15.3319 47.4364 14.7755C48.2821 14.184 48.8354 13.2938 49.0039 12.3176C49.2169 11.2588 49.2169 10.2 48.8767 9.1444C48.581 8.16826 47.8592 7.36701 47.0135 6.89961C45.8275 6.26369 44.473 6.05384 43.2011 6.05384L37.6909 6.05702ZM42.473 8.00611C43.4492 8.00611 44.4189 8.00611 45.3092 8.42899C45.9451 8.64202 46.4952 9.15076 46.7082 9.7835C46.9213 10.5053 46.9213 11.2652 46.7082 11.987C46.6256 12.7501 46.0723 13.386 45.4364 13.6817C44.3776 14.1046 43.2329 14.1046 42.136 14.1046H40.0184V8.04426H42.4762L42.473 8.00611Z" fill="#A1A1A1"/>
<path d="M97.9282 6.08545H107.457V7.93915H100.259V13.761H107.457V15.6656H100.259V23.818H97.9282V6.08545ZM129.794 9.8469C130.325 9.74198 130.958 9.74198 131.543 9.74198V11.6466C130.643 11.6466 129.743 11.7515 128.894 12.1775C128.63 12.3365 128.363 12.5496 128.207 12.8643C127.676 13.5511 127.676 14.4541 127.572 15.2999V23.7671H125.295V15.4557C125.295 14.0789 125.559 12.6481 126.354 11.5384C127.2 10.4796 128.468 9.95183 129.794 9.8469Z" fill="#A1A1A1"/>
<path d="M57.8462 9.73915C56.7429 9.82182 55.6014 10.0794 54.673 10.798C53.8272 11.4752 53.2326 12.5753 52.9783 13.6755C52.7652 14.6516 52.8511 15.6214 52.8511 16.553V18.7565C52.8511 20.0283 53.1468 21.2143 53.8686 22.1427C54.5045 23.0744 55.4361 23.6244 56.409 23.8375C57.6809 24.1777 58.8669 24.2603 60.0942 24.006C61.153 23.8375 62.2118 23.4146 63.0607 22.6069C63.7825 21.7612 64.1196 20.7024 64.2467 19.6404C64.3294 19.0045 64.2467 18.4544 64.2467 17.863V14.9918C64.2467 13.6373 63.8238 12.197 62.8922 11.1795C61.9606 10.3337 60.6474 9.90767 59.4201 9.825H57.9798L57.8462 9.73915ZM58.6093 11.6469C59.2007 11.6469 59.7953 11.7741 60.304 12.0698C61.1498 12.41 61.5759 13.1731 61.7857 13.9744C61.8684 14.5213 61.8684 15.119 61.9129 15.6691V18.4639C61.9129 19.3956 61.6999 20.4099 61.0671 21.173C60.4312 21.8947 59.3724 22.1491 58.5266 22.1046C57.595 22.1046 56.5807 21.9361 55.9862 21.2588C55.2644 20.5816 55.0545 19.5641 55.01 18.7183V15.9235C55.01 14.9473 55.01 13.8058 55.6014 12.9569C56.0243 12.2796 56.7429 11.8536 57.506 11.6851H58.5235L58.6093 11.6469ZM88.294 9.73915H87.658C86.5166 9.86634 85.2447 10.286 84.399 11.1382C83.7217 11.8154 83.3402 12.6612 83.1271 13.5515C82.8759 14.4831 82.9586 15.4147 82.9141 16.3463V18.8868C82.9968 19.9043 83.1653 20.8327 83.6359 21.6817C83.9316 22.2286 84.399 22.7405 84.9077 23.122C85.6295 23.6308 86.4307 23.8851 87.2797 23.9678C88.3385 24.1363 89.3973 24.1363 90.3702 23.9678C91.5117 23.7548 92.6595 23.2047 93.3368 22.2731C94.1826 21.1698 94.3543 19.8153 94.3956 18.4608V15.367C94.3956 14.5213 94.3129 13.6723 93.9727 12.9537C93.8042 12.1906 93.3813 11.5134 92.8312 10.9633C91.8138 9.98716 90.2907 9.69146 89.0189 9.69146H88.383L88.294 9.73915ZM88.3766 11.6914C88.8854 11.6914 89.3941 11.6914 89.8997 11.8186C90.5769 11.9458 91.1715 12.3655 91.5054 12.9633C91.9282 13.685 92.0967 14.569 92.0967 15.4211V18.3876C92.0967 19.3638 91.9282 20.3335 91.251 21.0966C90.8281 21.688 89.9791 21.9424 89.1334 22.0283C88.3703 22.0283 87.4386 22.0283 86.7614 21.6054C86.0841 21.3097 85.6581 20.6738 85.4896 19.9107C85.1493 19.0649 85.2384 18.0061 85.1939 17.0331L85.2765 14.9155C85.2765 14.1524 85.4896 13.3098 86.0396 12.6262C86.4625 12.0348 87.2256 11.7804 87.9442 11.6501H88.4529L88.3766 11.6914ZM115.483 9.73915C114.211 9.73915 112.942 10.162 111.925 10.9251C110.949 11.7709 110.443 13.0427 110.23 14.3114V19.3956C110.398 20.7501 110.952 22.1491 112.007 22.9535C113.279 23.971 114.885 24.1395 116.452 24.0982C116.704 24.0155 116.999 24.0155 117.298 23.971C118.443 23.8025 119.629 23.3796 120.43 22.448C121.066 21.7707 121.406 20.8423 121.533 19.9075C121.661 19.2302 121.616 18.5085 121.616 17.7899V14.906C121.616 13.4656 121.193 11.9394 120.049 10.9665C118.945 9.94901 117.422 9.69464 116.023 9.69464H115.476L115.483 9.73915ZM116.074 11.6469C116.497 11.6469 116.92 11.7296 117.26 11.8154C117.896 11.9426 118.446 12.3242 118.783 12.8742C119.206 13.5101 119.374 14.2732 119.419 14.9918V17.9584C119.419 18.8042 119.336 19.6531 118.996 20.4162C118.745 20.9631 118.274 21.475 117.724 21.6881C117.002 22.1109 116.157 22.1109 115.311 22.1109C114.634 21.9838 113.912 21.6881 113.406 21.2652C112.898 20.6738 112.643 19.9933 112.561 19.1476C112.433 18.3018 112.478 17.3702 112.478 16.4767C112.478 15.6309 112.478 14.658 112.691 13.8058C112.904 13.259 113.2 12.7025 113.623 12.3242C114.045 11.9839 114.468 11.8154 114.977 11.7328L116.122 11.6056L116.074 11.6469ZM138.646 9.73915C137.206 9.73915 135.679 10.286 134.665 11.4339C133.819 12.2796 133.393 13.6787 133.393 14.9505V18.3368C133.393 19.2684 133.476 20.2 133.816 21.0458C134.239 22.0632 135.171 22.8232 136.188 23.2492C137.711 23.8406 139.406 23.7961 141.059 23.7961V21.8502C140.042 21.8502 138.942 21.8502 137.841 21.6372C137.25 21.51 136.57 21.2143 136.236 20.7056C135.813 20.1587 135.727 19.4337 135.689 18.8423V16.553H144.837C144.837 15.7072 144.837 14.7756 144.709 13.8822C144.582 13.0364 144.287 12.1874 143.778 11.5102C143.056 10.4927 141.832 9.90449 140.605 9.73279C139.969 9.60561 139.333 9.65013 138.659 9.65013V9.73915H138.646ZM138.814 11.6914C139.406 11.6914 140 11.6914 140.592 11.8599C141.269 12.073 141.864 12.5372 142.198 13.1318C142.449 13.6405 142.538 14.1492 142.538 14.6548H135.635C135.718 13.9775 135.886 13.2558 136.312 12.7089C136.735 12.1175 137.457 11.8631 138.175 11.7328H138.767L138.814 11.6914Z" fill="#A1A1A1"/>
<path d="M146.996 10.0571C147.95 9.95215 148.954 9.95215 149.908 10.0571L151.708 12.1747L154.039 14.9823L158.007 10.0571L158.325 9.95215H160.865L155.094 16.518L161.603 23.8215H158.744L153.822 17.9997L149.215 23.8215H146.303L150.166 19.4814L152.706 16.5689V16.4099L147.04 10.0571H146.996ZM13.0747 23.8215H24.1905L27.5259 30.5432H13.0747V23.8215Z" fill="#A1A1A1"/>
</svg>
