<svg width="153" height="33" viewBox="0 0 153 33" fill="none" xmlns="http://www.w3.org/2000/svg">
<path d="M52.4712 17.8611H58.7187V22.0005C57.3772 22.8054 55.5566 23.3037 53.7936 23.3037C49.3475 23.3037 46.3579 20.4291 46.3579 16.1363C46.3579 11.8053 49.3092 8.89238 53.6786 8.89238C56.0357 8.89238 57.933 9.60145 59.6577 11.0962L59.9068 11.3262L61.7083 8.45161L61.5166 8.2983C59.2361 6.3819 56.649 5.44287 53.6402 5.44287C50.5932 5.44287 47.8336 6.4394 45.8597 8.25997C43.7516 10.1955 42.6401 12.9168 42.6401 16.1172C42.6401 22.3646 47.1628 26.734 53.6402 26.734C56.6106 26.734 60.2518 25.5842 62.2832 24.0127L62.3982 23.9169V14.5841H52.4904V17.8611H52.4712Z" fill="#A1A1A1"/>
<path d="M82.9607 26.4467V23.1505H70.2742V17.4013H80.7952V14.1051H70.2742V9.02667H82.9607V5.73047H66.748V26.4467H82.9607Z" fill="#A1A1A1"/>
<path d="M106.379 5.73047L98.311 15.4274L90.2621 5.73047H87.0234V26.4467H90.6838V11.7096L97.8702 20.3717H98.7326L105.919 11.7096V26.4467H109.579V5.73047H106.379Z" fill="#A1A1A1"/>
<path d="M118.625 5.73047H114.965V26.4467H118.625V5.73047Z" fill="#A1A1A1"/>
<path d="M127.229 5.82629L127.134 5.73047H123.991V26.4467H127.651V11.7288L139.954 26.3509L140.05 26.4467H143.174V5.73047H139.514V20.5059L127.229 5.82629Z" fill="#A1A1A1"/>
<path d="M152.2 5.73047H148.54V26.4467H152.2V5.73047Z" fill="#A1A1A1"/>
<path d="M21.2911 0C15.5611 0 10.6935 4.40771 10.0802 10.0802C4.40771 10.6935 0 15.5611 0 21.2911C0 27.5194 5.05928 32.5787 11.2876 32.5787C17.0176 32.5787 21.9044 28.171 22.4985 22.4985C28.171 21.8852 32.5787 17.0176 32.5787 11.2876C32.5787 5.05928 27.5194 0 21.2911 0ZM29.9341 12.5524C29.3783 16.3277 26.3504 19.3556 22.5751 19.9113V12.5524H29.9341ZM2.64462 20.0263C3.20037 16.2319 6.22828 13.2039 10.0036 12.6482V20.0072H2.64462V20.0263ZM19.9305 22.5751C19.2981 26.8487 15.6378 30.0299 11.2876 30.0299C6.93734 30.0299 3.27703 26.8487 2.64462 22.5751H19.9305ZM20.0263 12.5524V20.0072H12.5524V12.5524H20.0263ZM29.9341 10.0036H12.6482C13.2806 5.73002 16.9409 2.5488 21.2911 2.5488C25.6413 2.5488 29.3017 5.73002 29.9341 10.0036Z" fill="#A1A1A1"/>
</svg>
