<svg width="179" height="42" viewBox="0 0 179 42" fill="none" xmlns="http://www.w3.org/2000/svg">
<path d="M59.4946 25.71C59.3408 25.9834 59.3921 26.2227 59.6826 26.4277C60.1782 26.8208 60.9302 27.231 61.9727 27.624C63.0151 28.0342 64.0576 28.2222 65.1001 28.2051C66.8433 28.188 68.2617 27.7437 69.3384 26.9062C70.415 26.0688 70.9448 25.0435 70.9448 23.813C70.9448 22.5996 70.4834 21.6084 69.5776 20.8394C68.6719 20.0703 67.4756 19.5234 65.9888 19.1646C64.6045 18.8398 64.1602 18.6689 64.1602 18.1904C64.1602 17.6948 64.519 17.4727 65.2197 17.5068C65.8521 17.541 66.7407 17.8486 67.8857 18.4126C68.2104 18.5493 68.4668 18.481 68.6548 18.2075L70.2954 15.8662C70.5176 15.5586 70.3979 15.2852 69.9707 15.0459C68.4155 14.123 66.8091 13.6787 65.1685 13.6958C63.4424 13.7129 62.1094 14.1401 61.1694 14.9775C60.2295 15.8149 59.7681 16.8062 59.7852 17.9683C59.8022 19.0107 60.1953 19.9507 60.9302 20.7881C61.665 21.6426 62.6733 22.2236 63.938 22.5483C64.895 22.8047 65.5103 22.9927 65.8008 23.1465C66.0913 23.3003 66.228 23.4883 66.228 23.7275C66.228 24.2061 65.8691 24.4282 65.1685 24.4111C64.314 24.377 63.2202 23.9668 61.8701 23.1978C61.5112 23.0439 61.2207 23.1294 60.9814 23.4883L59.4946 25.71ZM80.8398 28.1709C82.8223 28.1709 84.5312 27.4531 85.9497 26.0347C87.3682 24.6162 88.0859 22.9072 88.0859 20.9077C88.0859 18.9082 87.3682 17.2163 85.9497 15.7979C84.5312 14.3965 82.8223 13.6958 80.8398 13.6958C78.8232 13.6958 77.0972 14.3965 75.6787 15.7979C74.2603 17.2163 73.5425 18.9082 73.5425 20.9077C73.5425 22.9072 74.2603 24.6162 75.6958 26.0347C77.1313 27.4531 78.8403 28.1709 80.8398 28.1709ZM80.8398 23.6934C80.0537 23.6934 79.4043 23.4199 78.8745 22.873C78.3447 22.3262 78.0884 21.6597 78.0884 20.8735C78.0884 20.1387 78.3447 19.5063 78.8745 18.9766C79.4043 18.4468 80.0537 18.1904 80.8398 18.1904C81.6089 18.1904 82.2754 18.4468 82.8223 18.9595C83.3521 19.4893 83.6255 20.1216 83.6255 20.8735C83.6255 21.6768 83.3521 22.3433 82.8223 22.873C82.2754 23.4199 81.6089 23.6934 80.8398 23.6934ZM92.1533 4.2793C91.7944 4.2793 91.5552 4.53564 91.5552 4.86035V26.3936C91.5552 27.3506 92.1362 28 93.0933 28H96.1182C96.4941 28 96.6821 27.7949 96.6821 27.3848V4.86035C96.6821 4.53564 96.4258 4.2793 96.1011 4.2793H92.1533ZM113.481 27.2651C113.14 24.6846 113.054 21.8306 113.225 18.7373C113.311 17.1821 112.798 15.9517 111.687 15.063C110.576 14.1914 109.124 13.73 107.346 13.6958C105.244 13.6445 103.313 14.0718 101.536 14.9775C101.228 15.1313 101.125 15.3877 101.228 15.7466L101.98 18.2417C102.065 18.6177 102.339 18.7202 102.8 18.5322C104.458 17.8315 105.945 17.6265 107.261 17.917C107.996 18.0366 108.354 18.3101 108.354 18.7373C105.193 19.3184 102.971 20.1045 101.707 21.0957C100.425 22.104 99.9976 23.4883 100.408 25.2656C100.732 26.6157 101.792 27.5557 102.92 27.8804C104.048 28.2051 105.381 28.3589 106.287 28.2051C106.748 28.1709 107.192 28.0854 107.603 27.9316C107.996 27.7778 108.269 27.6582 108.423 27.5728C108.56 27.4873 108.799 27.3164 109.158 27.0771C109.346 27.6924 109.705 28 110.217 28H112.986C113.328 28 113.55 27.6582 113.481 27.2651ZM105.5 24.582C105.039 24.4966 104.783 24.2573 104.697 23.8643C104.612 23.4712 104.731 23.1807 105.073 22.9927C105.398 22.8047 106.475 22.4971 108.303 22.104V23.6763C107.397 24.4624 106.475 24.77 105.5 24.582ZM132.161 27.2822C132.024 26.667 131.938 26.0518 131.921 25.4194V19.5234C131.904 17.7803 131.306 16.3618 130.093 15.2681C128.879 14.1914 127.427 13.6616 125.735 13.6958C124.351 13.7129 123 14.1914 121.719 15.0972C121.479 14.8408 121.257 14.4478 121.069 13.8838H117.771C117.48 13.8838 117.207 14.1572 117.207 14.4819V27.3848C117.207 27.7949 117.412 28 117.805 28H121.719C122.043 28 122.317 27.7095 122.317 27.3848V19.6602C123.171 18.8569 124.128 18.5493 125.171 18.7715C126.111 18.9253 126.829 19.7456 126.829 20.8564V26.479C126.829 27.3848 127.375 28.0513 128.333 28.0513H131.802C132.092 28.0513 132.229 27.6753 132.161 27.2822ZM148.55 27.2651C148.208 24.6846 148.123 21.8306 148.293 18.7373C148.379 17.1821 147.866 15.9517 146.755 15.063C145.645 14.1914 144.192 13.73 142.415 13.6958C140.312 13.6445 138.381 14.0718 136.604 14.9775C136.296 15.1313 136.194 15.3877 136.296 15.7466L137.048 18.2417C137.134 18.6177 137.407 18.7202 137.869 18.5322C139.526 17.8315 141.013 17.6265 142.329 17.917C143.064 18.0366 143.423 18.3101 143.423 18.7373C140.261 19.3184 138.04 20.1045 136.775 21.0957C135.493 22.104 135.066 23.4883 135.476 25.2656C135.801 26.6157 136.86 27.5557 137.988 27.8804C139.116 28.2051 140.449 28.3589 141.355 28.2051C141.816 28.1709 142.261 28.0854 142.671 27.9316C143.064 27.7778 143.337 27.6582 143.491 27.5728C143.628 27.4873 143.867 27.3164 144.226 27.0771C144.414 27.6924 144.773 28 145.286 28H148.054C148.396 28 148.618 27.6582 148.55 27.2651ZM140.569 24.582C140.107 24.4966 139.851 24.2573 139.766 23.8643C139.68 23.4712 139.8 23.1807 140.142 22.9927C140.466 22.8047 141.543 22.4971 143.372 22.104V23.6763C142.466 24.4624 141.543 24.77 140.569 24.582ZM163.896 14.5332C162.922 13.9692 161.829 13.6787 160.581 13.6958C159.265 13.6958 158.069 14.0718 156.992 14.8237C156.702 14.5674 156.497 14.2598 156.36 13.918H153.096C152.771 13.918 152.532 14.1572 152.532 14.4819V26.4619C152.532 27.4019 153.096 28 154.053 28H157.078C157.351 28 157.642 27.7095 157.642 27.3848V19.6089C158.137 18.9253 158.855 18.5664 159.829 18.5322C160.53 18.481 161.111 18.5664 161.606 18.8057C161.982 18.9424 162.256 18.874 162.444 18.6006L164.136 15.3877C164.358 15.063 164.272 14.7725 163.896 14.5332ZM176.184 23.6079C176.03 23.2148 175.757 23.0781 175.398 23.1978C175.039 23.3516 174.731 23.4028 174.458 23.3687C173.706 23.3516 173.33 22.856 173.33 21.8818V18.686C173.45 18.7202 173.621 18.7373 173.86 18.7373H175.911C176.235 18.7373 176.526 18.481 176.526 18.1562V14.5332C176.526 14.1743 176.27 13.918 175.911 13.918H173.33V8.92773C173.33 8.56885 173.176 8.39795 172.852 8.39795H172.202C172.048 8.39795 171.877 8.55176 171.689 8.87646C170.356 11.2007 168.545 13.7983 166.272 16.6694C166.118 16.8916 166.033 17.1479 166.033 17.4727V18.1562C166.033 18.481 166.306 18.7373 166.631 18.7373H168.22V22.4458C168.22 26.291 170.237 28.1709 173.74 28.1709C175.107 28.1709 176.201 27.8462 177.004 27.1968C177.244 26.9575 177.329 26.7354 177.244 26.5474L176.184 23.6079Z" fill="#A1A1A1"/>
<path d="M34.2914 21.7785C31.757 26.4029 27.5478 29.8812 22.5287 31.4985C17.3101 33.197 14.0022 32.0351 9.40039 29.8745C14.4641 30.3309 17.9699 30.2907 22.2934 26.911C24.6877 25.0452 26.6402 22.6735 28.0112 19.9653C30.1872 20.2339 32.307 20.8459 34.2914 21.7785Z" fill="#A1A1A1"/>
<path d="M28.0257 19.9653C26.6536 22.6727 24.7002 25.0435 22.3051 26.9082C17.9816 30.2878 14.4758 30.3281 9.41211 29.8719C14.3266 28.5692 17.6087 27.3298 20.5121 22.6765C21.0245 21.8582 21.4789 21.005 21.8719 20.1231C23.9038 19.7631 25.9782 19.7099 28.0257 19.9653Z" fill="#8E8E8E"/>
<path d="M28.0254 19.9655C25.9787 19.7112 23.9053 19.7654 21.8745 20.1261C22.717 18.2431 23.2712 16.244 23.5184 14.196C25.6505 13.707 27.8468 13.5589 30.0253 13.7571C29.6917 15.9194 29.0168 18.015 28.0254 19.9655Z" fill="#656565"/>
<path d="M21.8749 20.1259C20.9256 20.2958 19.989 20.5307 19.0719 20.8288C13.8533 22.5272 11.8623 25.4191 9.41504 29.8745C10.1897 24.8453 11.0733 21.4514 15.3968 18.0718C17.7859 16.1979 20.5592 14.8744 23.5188 14.1958C23.2715 16.2438 22.7174 18.2429 21.8749 20.1259Z" fill="#8E8E8E"/>
<path d="M23.5189 14.196C20.5594 14.8747 17.7861 16.1981 15.3969 18.072C11.0734 21.4516 10.1898 24.8456 9.41518 29.8747C8.42252 24.8829 8.09548 21.3914 10.9989 16.7379C13.7839 12.2642 18.1736 9.02402 23.2693 7.68066C23.6953 9.82575 23.7795 12.0247 23.5189 14.196Z" fill="#A1A1A1"/>
<path d="M20.8018 40.002C31.2958 40.002 39.8028 31.495 39.8028 21.001C39.8028 10.5071 31.2958 2 20.8018 2C10.3078 2 1.80078 10.5071 1.80078 21.001C1.80078 31.495 10.3078 40.002 20.8018 40.002Z" stroke="#A1A1A1" stroke-width="3" stroke-miterlimit="10"/>
</svg>
