<svg width="26" height="26" viewBox="0 0 26 26" fill="none" xmlns="http://www.w3.org/2000/svg">
<circle cx="13" cy="13" r="12" fill="#F12A23" stroke="white" stroke-width="2"/>
<path d="M17 11C16.886 11.5306 16.7656 12.0952 16.639 12.6939C16.5249 13.2925 16.4173 13.8776 16.3159 14.449C16.2146 15.0068 16.1322 15.5238 16.0689 16H13.4656L13.3325 15.7755C13.4466 15.2857 13.5922 14.7687 13.7696 14.2245C13.947 13.6803 14.137 13.1293 14.3397 12.5714C14.555 12.0136 14.7641 11.4898 14.9667 11H17ZM12.6675 11C12.5534 11.5306 12.4331 12.0952 12.3064 12.6939C12.1924 13.2925 12.0847 13.8776 11.9834 14.449C11.882 15.0068 11.7997 15.5238 11.7363 16H9.13302L9 15.7755C9.11401 15.2857 9.2597 14.7687 9.43705 14.2245C9.61441 13.6803 9.80443 13.1293 10.0071 12.5714C10.2225 12.0136 10.4315 11.4898 10.6342 11H12.6675Z" fill="white"/>
</svg>
