<svg width="131" height="27" viewBox="0 0 131 27" fill="none" xmlns="http://www.w3.org/2000/svg">
<path d="M64.5632 0V5.3777L69.9409 21.5108V26.8885H130.417V21.5108L125.039 5.3777V0H64.5632ZM91.5439 6.94492C95.1085 6.97565 97.9357 9.89498 97.8742 13.4596C97.8435 16.9628 95.0164 19.7592 91.5132 19.79C91.0522 19.79 90.622 19.7285 90.1611 19.6363L89.2084 16.4711H89.3928C90.0074 16.9014 90.7449 17.1472 91.5132 17.1472C93.6028 17.1472 95.2929 15.4571 95.2929 13.3982C95.2929 11.3085 93.6028 9.61841 91.5439 9.61841C90.0074 9.61841 88.5938 10.5403 88.0407 11.9846H87.8563L86.9037 8.91162C88.1329 7.6517 89.7923 6.94492 91.5439 6.94492ZM104.327 6.94492C107.892 6.97565 110.719 9.89498 110.658 13.4596C110.627 16.9628 107.8 19.7592 104.297 19.79C103.836 19.79 103.406 19.7285 102.945 19.6363L101.992 16.4711H102.176C102.791 16.9014 103.559 17.1472 104.297 17.1472C106.386 17.1472 108.076 15.4571 108.076 13.3982C108.076 11.3085 106.386 9.61841 104.327 9.61841C102.791 9.61841 101.377 10.5403 100.824 11.9846H100.64L99.6873 8.91162C100.916 7.6517 102.607 6.94492 104.327 6.94492ZM4.82457 7.19076C3.62611 7.1293 2.48911 7.49806 1.53649 8.23557C0.737514 8.8809 0.307295 9.86424 0.338024 10.9091C0.276565 11.8309 0.645324 12.7221 1.29065 13.3674C2.08962 14.0128 3.07297 14.4122 4.11778 14.4737L5.34697 14.6274C5.77719 14.6274 6.17668 14.8117 6.48397 15.0883C6.69908 15.3341 6.822 15.6414 6.79127 15.9795C6.822 16.4097 6.60689 16.8092 6.2996 17.0857C5.86938 17.393 5.3777 17.516 4.8553 17.4852C3.65684 17.4852 2.51984 16.9628 1.75159 16.0409L0 17.8232C1.19846 19.1446 2.91932 19.8821 4.73238 19.79C5.62354 19.8207 6.5147 19.6363 7.34441 19.2675C8.02046 18.991 8.5736 18.4993 8.97308 17.8847C9.37257 17.2394 9.55695 16.5326 9.52622 15.7951C9.55695 14.8732 9.21892 13.982 8.5736 13.3367C7.77462 12.6607 6.79127 12.2304 5.74646 12.1382L4.48654 11.9539C4.08706 11.9231 3.7183 11.8002 3.34954 11.5851C3.1037 11.37 3.01151 11.0627 3.04224 10.7554C3.04224 9.98716 3.62611 9.61841 4.82457 9.61841H8.60433V7.22149H4.82457V7.19076ZM12.9372 7.19076V19.6056H20.3738V17.2087H15.6414V7.19076H12.9372ZM21.3572 7.19076V9.34184H22.9551V14.5352C22.9551 18.192 24.2765 19.8514 27.8411 19.8514C31.4058 19.8514 32.6964 18.2227 32.6964 14.5352V7.19076H30.0537V14.8117C30.0537 16.5633 29.4084 17.4238 27.8104 17.4238C26.2125 17.4238 25.5671 16.5326 25.5671 14.8117V7.19076H21.3572ZM40.7476 7.19076C39.5492 7.1293 38.4122 7.49806 37.4596 8.23557C36.6606 8.8809 36.2304 9.86424 36.2611 10.9091C36.1996 11.8309 36.5684 12.7221 37.2137 13.3674C38.0127 14.0128 38.996 14.4122 40.0409 14.4737L41.27 14.6274C41.7003 14.6274 42.1305 14.8117 42.4378 15.0883C42.6529 15.3341 42.7758 15.6414 42.7451 15.9795C42.7758 16.4097 42.5607 16.8092 42.2534 17.0857C41.8232 17.393 41.3008 17.516 40.7784 17.4852C39.5799 17.4852 38.4122 16.9628 37.6439 16.0409L35.8923 17.8232C37.0601 19.1446 38.7809 19.8514 40.5325 19.79C41.4237 19.8207 42.3148 19.6363 43.1446 19.2675C43.8206 18.991 44.4352 18.4993 44.8347 17.8847C45.2342 17.2701 45.4186 16.5326 45.4186 15.7951C45.4493 14.8732 45.1113 13.982 44.4659 13.3367C43.667 12.6607 42.6836 12.2304 41.6388 12.1382L40.3789 11.9539C39.9794 11.9231 39.6106 11.8002 39.2419 11.5851C38.996 11.37 38.8731 11.0627 38.9346 10.7554C38.9346 9.98716 39.5184 9.61841 40.7169 9.61841H44.4967V7.22149H40.7476V7.19076ZM48.7066 7.19076V19.6056H51.4109V14.5044H56.1432V19.6056H58.8475V7.19076H56.1432V12.1382H51.4109V7.19076H48.7066ZM74.9806 7.19076H80.8499C82.8781 7.1293 84.5682 8.69652 84.6297 10.694C84.6297 10.8476 84.6297 11.0012 84.6297 11.1549C84.8141 13.1523 83.3083 14.9347 81.3109 15.119C81.1572 15.119 81.0036 15.1498 80.8499 15.119H77.6848V19.6056H74.9806V7.19076ZM113.577 7.19076H116.281V17.2087H121.598V19.5748H113.577V7.19076ZM80.6041 9.55695C80.5734 9.55695 80.5426 9.55695 80.5119 9.55695H77.6848V12.7836H80.5119C81.1572 12.8758 81.7104 12.4148 81.8026 11.8002C81.8026 11.708 81.8026 11.6466 81.8026 11.5544V10.7861C81.864 10.1408 81.3724 9.58768 80.727 9.55695C80.727 9.55695 80.6656 9.55695 80.6041 9.55695Z" fill="#A1A1A1"/>
</svg>
