<svg width="95" height="23" viewBox="0 0 95 23" fill="none" xmlns="http://www.w3.org/2000/svg">
<path d="M9.99542 21.6319H15.0957L10.8748 13.2193C13.4249 12.3106 14.9784 10.1709 14.9784 7.3569C14.9784 3.66357 12.3404 0.849609 8.23669 0.849609H0V21.6319H4.63131V13.8935H6.27278L9.99542 21.6319ZM4.63131 9.90705V4.86537H7.35733C9.26262 4.86537 10.2885 5.83267 10.2885 7.38621C10.2885 8.85181 9.26262 9.90705 7.35733 9.90705H4.63131Z" fill="#A1A1A1"/>
<path d="M16.9473 17.6166C16.9473 19.9322 18.7939 22.0427 21.9889 22.0427C23.9235 22.0427 25.3305 21.2219 26.0926 19.9908C26.0926 20.9874 26.2099 21.5151 26.2392 21.6323H30.255C30.2256 21.4857 30.0791 20.5185 30.0791 19.3753V12.2524C30.0791 9.2626 28.3497 6.62451 23.6304 6.62451C19.3509 6.62451 17.4163 9.37985 17.2404 11.461L21.1096 12.2524C21.1975 11.1679 22.0476 10.1126 23.6011 10.1126C25.0081 10.1126 25.7409 10.8455 25.7409 11.6955C25.7409 12.1938 25.4771 12.5749 24.6857 12.6921L21.2561 13.2197C18.8526 13.5715 16.9473 15.0371 16.9473 17.6166ZM23.0735 18.8184C21.8424 18.8184 21.3441 18.0855 21.3441 17.3234C21.3441 16.2975 22.0476 15.8578 22.9856 15.7113L25.7409 15.2716V15.9165C25.7409 18.1735 24.3925 18.8184 23.0735 18.8184Z" fill="#A1A1A1"/>
<path d="M43.0903 7.06453C42.7971 6.97659 42.3574 6.91797 41.9178 6.91797C40.7453 6.91797 38.8986 7.38696 38.1365 9.02844V7.06453H33.8276V21.6326H38.2831V15.2719C38.2831 12.37 39.8952 11.3148 41.6833 11.3148C42.123 11.3148 42.592 11.3441 43.0903 11.4613V7.06453Z" fill="#A1A1A1"/>
<path d="M50.2491 21.6323V7.06422H45.7937V21.6323H50.2491ZM45.4126 2.60878C45.4126 4.04507 46.5851 5.21756 47.9921 5.21756C49.4577 5.21756 50.6301 4.04507 50.6301 2.60878C50.6301 1.17249 49.4577 0 47.9921 0C46.5851 0 45.4126 1.17249 45.4126 2.60878Z" fill="#A1A1A1"/>
<path d="M58.4602 21.6321V19.9906C59.1344 21.1045 60.6293 21.9546 62.5639 21.9546C66.6383 21.9546 69.5109 18.7595 69.5109 14.3041C69.5109 9.93659 66.9607 6.71226 62.7398 6.71226C60.7466 6.71226 59.1345 7.533 58.5189 8.44167V0.410156H54.1514V21.6321H58.4602ZM65.0555 14.3334C65.0555 16.7663 63.5019 17.9681 61.7725 17.9681C60.0431 17.9681 58.4602 16.737 58.4602 14.3334C58.4602 11.8712 60.0431 10.728 61.7725 10.728C63.5019 10.728 65.0555 11.8712 65.0555 14.3334Z" fill="#A1A1A1"/>
<path d="M76.8412 21.6321V0.410156H72.3857V21.6321H76.8412Z" fill="#A1A1A1"/>
<path d="M84.1439 12.6042C84.2318 11.5196 85.1698 10.142 87.0458 10.142C89.1563 10.142 89.9184 11.4903 89.977 12.6042H84.1439ZM90.2994 16.3854C89.8891 17.5286 88.9804 18.2907 87.3682 18.2907C85.6388 18.2907 84.1439 17.1182 84.056 15.4768H94.1979C94.2272 15.3888 94.2859 14.7147 94.2859 14.0991C94.2859 9.40916 91.5012 6.62451 86.9872 6.62451C83.2059 6.62451 79.7178 9.61434 79.7178 14.3043C79.7178 19.1994 83.2938 22.072 87.3096 22.072C91.0029 22.072 93.3186 19.9615 94.0221 17.4407L90.2994 16.3854Z" fill="#A1A1A1"/>
</svg>
