<svg width="224" height="25" viewBox="0 0 224 25" fill="none" xmlns="http://www.w3.org/2000/svg">
<path d="M2.12953 9.04492L0.99401 10.1804C0.679719 10.4824 0.429669 10.8447 0.258857 11.2456C0.0880453 11.6466 0 12.0779 0 12.5137C0 12.9495 0.0880453 13.3809 0.258857 13.7818C0.429669 14.1828 0.679719 14.5451 0.99401 14.847L10.142 24.0852C10.3588 24.3071 10.6112 24.491 10.8886 24.6297V13.4315L2.12953 9.04492Z" fill="#A1A1A1"/>
<path d="M22.7586 9.04492L23.8941 10.1804C24.2084 10.4824 24.4584 10.8447 24.6293 11.2456C24.8001 11.6466 24.8881 12.0779 24.8881 12.5137C24.8881 12.9495 24.8001 13.3809 24.6293 13.7818C24.4584 14.1828 24.2084 14.5451 23.8941 14.847L14.7462 24.0852C14.5293 24.3071 14.277 24.491 13.9995 24.6297V13.4315L22.7586 9.04492Z" fill="#A1A1A1"/>
<path d="M20.5623 6.72703L14.838 0.987187C14.535 0.674845 14.1723 0.426519 13.7715 0.256946C13.3707 0.0873738 12.94 0 12.5048 0C12.0696 0 11.6388 0.0873738 11.238 0.256946C10.8372 0.426519 10.4745 0.674845 10.1715 0.987187L4.43164 6.72703L12.4737 10.7403L20.5623 6.72703Z" fill="#A1A1A1"/>
<path fill-rule="evenodd" clip-rule="evenodd" d="M145.098 4.02273C145.073 3.60299 145.175 3.18543 145.39 2.82413C145.605 2.46283 145.924 2.17441 146.304 1.99622C146.685 1.81804 147.111 1.75829 147.526 1.82471C147.941 1.89113 148.327 2.08067 148.633 2.36877C148.939 2.65688 149.152 3.0303 149.244 3.44067C149.336 3.85104 149.302 4.27947 149.147 4.67049C148.993 5.0615 148.724 5.39711 148.377 5.63381C148.029 5.87055 147.619 5.99748 147.198 5.99821C146.931 6.00651 146.664 5.96202 146.414 5.86718C146.163 5.7724 145.934 5.62914 145.739 5.44569C145.544 5.26219 145.387 5.04211 145.277 4.79795C145.167 4.55379 145.106 4.29036 145.098 4.02273ZM145.254 7.80261H149.127V21.8022H145.254V7.80261ZM41.6877 3.13608H34.2212V21.8022H42.2165C46.4009 21.8022 48.6408 19.609 48.6408 16.6379C48.6958 15.4933 48.2942 14.3737 47.5242 13.5249C46.7542 12.6762 45.6789 12.1678 44.5343 12.1114V11.9247C45.4875 11.778 46.355 11.2903 46.9758 10.5522C47.5967 9.8141 47.9285 8.87581 47.9097 7.91149C47.9097 5.12714 45.8098 3.13608 41.6877 3.13608ZM43.9121 8.54926C43.9121 10.027 42.6521 10.9136 41.0966 10.9136L38.11 10.9603V6.29376H41.1588C42.9165 6.29376 43.9121 7.07152 43.9121 8.54926ZM44.4876 16.2179C44.4876 17.6179 43.5854 18.5357 41.3766 18.5357H38.11V13.5891H41.3766C41.7575 13.5341 42.1458 13.5603 42.5158 13.6663C42.8858 13.7724 43.2292 13.9556 43.5232 14.204C43.8172 14.4524 44.0552 14.7604 44.2214 15.1076C44.3876 15.4547 44.4784 15.8332 44.4876 16.2179ZM50.5541 21.8022H54.4896L54.4273 3.13608H50.5541V21.8022ZM56.5273 14.8491C56.5273 10.5093 59.1717 7.61595 63.4182 7.61595C67.6648 7.61595 70.3091 10.5093 70.3091 14.8491C70.3091 19.189 67.6648 22.0667 63.4182 22.0667C59.1717 22.0667 56.5273 19.1735 56.5273 14.8491ZM66.3581 14.8414C66.3561 12.4032 65.345 10.6025 63.4338 10.6025C61.5205 10.6025 60.4627 12.407 60.4627 14.8491C60.4627 17.2913 61.4738 19.0801 63.4338 19.0801C65.3916 19.0801 66.3561 17.2796 66.3581 14.8414ZM78.6467 7.61595C74.4001 7.61595 71.7713 10.5559 71.7713 14.8491C71.7713 19.1113 74.3535 22.0667 78.6467 22.0667C82.3333 22.0667 84.6821 19.889 84.8688 16.6691H81.1978C81.1578 17.31 80.8716 17.9106 80.3993 18.3454C79.9264 18.7802 79.3042 19.0156 78.6623 19.0024C76.8423 19.0024 75.6757 17.4002 75.6757 14.8025C75.6757 12.2048 76.8579 10.6493 78.6623 10.6493C79.3042 10.6359 79.9264 10.8713 80.3993 11.3061C80.8716 11.741 81.1578 12.3416 81.1978 12.9825H84.8688C84.7443 9.74705 82.3022 7.61595 78.6467 7.61595ZM86.9065 3.13608H90.7953V13.1069H90.9975L95.4929 7.80261H99.9417L94.7463 13.8691L100.206 21.8022H95.664L91.8375 16.1557L90.7953 17.3535V21.8022H86.9065V3.13608ZM107.066 7.61595C102.819 7.61595 100.191 10.5559 100.191 14.8491C100.191 19.1113 102.773 22.0667 107.097 22.0667C110.799 22.0667 113.132 19.889 113.319 16.6691H109.664C109.62 17.3113 109.33 17.912 108.855 18.3465C108.38 18.781 107.756 19.0159 107.113 19.0024C105.293 19.0024 104.126 17.4002 104.126 14.8025C104.126 12.2048 105.308 10.6493 107.113 10.6493C107.756 10.6357 108.38 10.8706 108.855 11.3051C109.33 11.7396 109.62 12.3403 109.664 12.9825H113.288C113.179 9.74705 110.721 7.61595 107.066 7.61595ZM119.215 21.8022H115.341V3.13608H119.106V10.2759H119.277C119.594 9.4401 120.172 8.72923 120.927 8.24977C121.681 7.77031 122.57 7.54792 123.461 7.61595C126.37 7.61595 128.299 9.60701 128.299 12.8891V21.8022H124.41V13.5736C124.461 13.2243 124.434 12.8678 124.331 12.5302C124.227 12.1926 124.05 11.8823 123.812 11.6217C123.574 11.3611 123.28 11.1568 122.953 11.0236C122.626 10.8903 122.274 10.8315 121.921 10.8514C121.548 10.8364 121.177 10.9014 120.831 11.0421C120.485 11.1827 120.173 11.3958 119.917 11.667C119.66 11.9382 119.465 12.2612 119.344 12.6142C119.223 12.9672 119.179 13.3421 119.215 13.7136V21.8022ZM135.454 13.5736C132.685 13.838 130.196 14.7869 130.196 17.8979C130.196 20.6667 132.172 22.0667 134.847 22.0667C135.669 22.1302 136.492 21.9557 137.218 21.564C137.943 21.1723 138.541 20.58 138.938 19.8578H139.047V21.8022H142.734V12.3447C142.734 9.00036 139.903 7.60039 136.792 7.60039C133.432 7.60039 131.239 9.20257 130.694 11.7536L134.287 12.0492C134.462 11.5442 134.804 11.1142 135.257 10.8311C135.71 10.548 136.246 10.4289 136.776 10.4936C138.098 10.4936 138.845 11.1625 138.845 12.3136C138.845 13.2314 137.896 13.3402 135.454 13.5736ZM138.876 15.238V16.7935C138.854 17.1514 138.762 17.5013 138.603 17.8228C138.444 18.1443 138.223 18.4308 137.952 18.6655C137.681 18.9003 137.366 19.0785 137.025 19.1898C136.685 19.3011 136.325 19.3431 135.967 19.3134C134.77 19.3134 133.914 18.769 133.914 17.6801C133.914 16.5913 134.816 16.0468 136.185 15.8602C137.108 15.7845 138.014 15.5749 138.876 15.238ZM151.663 21.8022H155.614L155.551 13.7136C155.508 13.3459 155.546 12.9733 155.66 12.6214C155.775 12.2694 155.964 11.9464 156.216 11.6745C156.467 11.4027 156.773 11.1883 157.116 11.0463C157.457 10.9042 157.826 10.8377 158.196 10.8514C158.547 10.8344 158.899 10.8951 159.224 11.0293C159.55 11.1635 159.842 11.3677 160.08 11.6277C160.317 11.8877 160.495 12.1968 160.6 12.5331C160.704 12.8695 160.733 13.2247 160.685 13.5736V21.8022H164.573V12.8891C164.573 9.62256 162.66 7.61595 159.736 7.61595C158.843 7.56083 157.955 7.78804 157.199 8.26548C156.442 8.74287 155.855 9.44622 155.52 10.2759H155.365V7.80261H151.663V21.8022Z" fill="#A1A1A1"/>
<path fill-rule="evenodd" clip-rule="evenodd" d="M207.35 7.80296H203.648L203.632 21.8026H207.521V13.4028C207.489 13.0818 207.523 12.7575 207.622 12.4503C207.721 12.1432 207.882 11.8596 208.095 11.6173C208.308 11.375 208.569 11.1793 208.861 11.0422C209.152 10.9051 209.47 10.8297 209.792 10.8207C210.086 10.808 210.38 10.8588 210.652 10.9694C210.925 11.0801 211.17 11.248 211.373 11.4619C211.575 11.6758 211.728 11.9306 211.824 12.2092C211.919 12.4876 211.952 12.7833 211.923 13.0762V21.8026H215.688V13.2473C215.654 12.9349 215.688 12.619 215.787 12.3209C215.886 12.0229 216.048 11.7495 216.262 11.5194C216.476 11.2893 216.737 11.1079 217.026 10.9873C217.317 10.8668 217.629 10.8099 217.943 10.8207C218.245 10.8071 218.547 10.8597 218.827 10.9746C219.108 11.0896 219.359 11.2641 219.565 11.4862C219.771 11.7082 219.926 11.9725 220.019 12.2605C220.113 12.5485 220.142 12.8534 220.105 13.1539V21.8026H223.994V12.4695C224.025 11.4422 223.704 10.4351 223.086 9.61399C222.468 8.79283 221.589 8.20646 220.594 7.95125C219.598 7.69599 218.545 7.78714 217.609 8.20972C216.672 8.63225 215.906 9.36101 215.439 10.2762H215.221C214.985 9.4643 214.479 8.75763 213.785 8.27371C213.092 7.78979 212.254 7.55781 211.41 7.61629C210.561 7.57818 209.723 7.81706 209.021 8.29678C208.32 8.77655 207.793 9.47125 207.521 10.2762H207.35V7.80296ZM180.129 7.61629C175.882 7.61629 173.269 10.5562 173.269 14.8494C173.269 19.1116 175.835 22.067 180.206 22.067C183.908 22.067 186.257 19.8893 186.428 16.6694H182.773C182.729 17.3116 182.44 17.9124 181.965 18.3468C181.49 18.7813 180.865 19.0161 180.222 19.0027C178.418 19.0027 177.235 17.4005 177.235 14.8028C177.235 12.2051 178.418 10.6495 180.222 10.6495C180.865 10.6361 181.49 10.8709 181.965 11.3054C182.44 11.7399 182.729 12.3405 182.773 12.9828H186.351C186.242 9.74735 183.784 7.61629 180.129 7.61629ZM167.861 18.3128C167.453 18.7178 167.222 19.2678 167.218 19.8426C167.216 20.1299 167.271 20.4148 167.379 20.6808C167.487 20.9468 167.648 21.1887 167.85 21.3926C168.053 21.5964 168.293 21.7583 168.559 21.8686C168.824 21.9791 169.108 22.0359 169.396 22.0359C169.973 22.0359 170.527 21.8065 170.936 21.3981C171.344 20.9897 171.573 20.4358 171.573 19.8582C171.573 19.2806 171.344 18.7267 170.936 18.3183C170.527 17.9099 169.973 17.6805 169.396 17.6805C168.821 17.6804 168.269 17.9077 167.861 18.3128ZM187.844 14.8494C187.844 10.5096 190.488 7.61629 194.735 7.61629C198.981 7.61629 201.61 10.5096 201.61 14.8494C201.61 19.1893 198.981 22.067 194.735 22.067C190.488 22.067 187.844 19.1738 187.844 14.8494ZM197.675 14.8418C197.673 12.4035 196.662 10.6029 194.75 10.6029C192.837 10.6029 191.779 12.4073 191.779 14.8494C191.779 17.2916 192.79 19.0804 194.75 19.0804C196.708 19.0804 197.673 17.2799 197.675 14.8418Z" fill="#A1A1A1"/>
</svg>
