<svg width="40" height="23" viewBox="0 0 40 23" fill="none" xmlns="http://www.w3.org/2000/svg">
<path d="M11.1328 3.52783L13.668 4.79543H16.2032" stroke="#222222" stroke-width="1.5"/>
<path d="M28.2454 4.1613L27.4188 4.5746C27.1352 4.71639 26.8086 4.74672 26.5037 4.65955L22.8826 3.62498C22.6561 3.56025 22.4217 3.52736 22.1861 3.52734H18.1938C17.7764 3.52734 17.3655 3.63044 16.9975 3.82738C16.6296 4.02432 16.3159 4.30903 16.0844 4.6563L13.0342 9.23171H16.1586C16.3673 9.23171 16.5727 9.18024 16.7567 9.08177C16.9407 8.9833 17.0975 8.84087 17.2133 8.66723L17.7283 7.89479C17.844 7.72115 18.0009 7.57871 18.1849 7.48025C18.3689 7.38178 18.5743 7.33031 18.783 7.33031H19.6222C19.8724 7.33029 20.1171 7.40443 20.3253 7.54322L30.0208 14.0067C30.2001 14.1263 30.3531 14.2811 30.4705 14.4618C30.5879 14.6425 30.6672 14.8453 30.7036 15.0577C30.74 15.2701 30.7327 15.4876 30.6821 15.6971C30.6315 15.9065 30.5387 16.1036 30.4094 16.2759L30.3704 16.3279C30.1352 16.6415 29.7921 16.8568 29.4074 16.9322C29.0227 17.0075 28.6238 16.9377 28.2876 16.736L23.175 13.6683" stroke="#222222" stroke-width="1.5" stroke-linecap="round" stroke-linejoin="round"/>
<path d="M30.1465 13.6685L32.6817 10.4995" stroke="#222222" stroke-width="1.5"/>
<path d="M9.23101 13.6685L6.6958 11.1333" stroke="#222222" stroke-width="1.5"/>
<path d="M13.0295 1L5.43193 13.0346L1 10.5011" stroke="#F12A23" stroke-width="1.5" stroke-linecap="round" stroke-linejoin="round"/>
<path d="M14.3093 13.2338L14.3766 13.2782C14.9539 13.6558 15.1128 14.4242 14.7327 15.001L12.22 18.8143C11.84 19.3911 11.0693 19.5514 10.4919 19.1738L10.4246 19.1294C9.84724 18.7516 9.68841 17.9833 10.0684 17.4065L12.5812 13.5932C12.9612 13.0165 13.7319 12.856 14.3093 13.2338H14.3093Z" stroke="#222222" stroke-width="1.5" stroke-linecap="round" stroke-linejoin="round"/>
<path d="M15.7621 15.711C16.3497 16.0955 16.5132 16.8781 16.1286 17.4657L14.3934 20.1175C14.0088 20.705 13.2262 20.8685 12.6386 20.484C12.051 20.0994 11.8875 19.3168 12.272 18.7292L14.0073 16.0776C14.3918 15.4899 15.1745 15.3264 15.7621 15.711Z" stroke="#222222" stroke-width="1.5" stroke-linecap="round" stroke-linejoin="round"/>
<path d="M17.4527 17.6694C18.0422 18.0511 18.2103 18.8335 17.8297 19.4237L16.7003 21.175C16.3197 21.7652 15.5387 21.9331 14.9493 21.5513C14.3598 21.1696 14.1917 20.3872 14.5723 19.797L15.7017 18.0457C16.0823 17.4555 16.8633 17.2876 17.4527 17.6694V17.6694Z" stroke="#222222" stroke-width="1.5" stroke-linecap="round" stroke-linejoin="round"/>
<path d="M11.318 13.2158C11.9074 13.5975 12.0756 14.3799 11.6949 14.9701L10.5655 16.7214C10.1849 17.3116 9.40396 17.4794 8.81451 17.0976C8.22506 16.7159 8.05694 15.9335 8.43755 15.3433L9.56697 13.592C9.94758 13.0018 10.7285 12.834 11.318 13.2158Z" stroke="#222222" stroke-width="1.5" stroke-linecap="round" stroke-linejoin="round"/>
<path d="M26.9824 1L34.58 13.0346L39.0119 10.5011" stroke="#F12A23" stroke-width="1.5" stroke-linecap="round" stroke-linejoin="round"/>
<path d="M28.5639 17.1878L28.0198 17.9374C27.7369 18.327 27.3168 18.5948 26.8442 18.6868C26.3715 18.7787 25.8816 18.6879 25.4733 18.4327L21.9072 16.2039" stroke="#222222" stroke-width="1.5" stroke-linecap="round" stroke-linejoin="round"/>
<path d="M26.68 19.0647L26.1188 19.838C25.8323 20.2326 25.4102 20.5075 24.9334 20.6101C24.4566 20.7126 23.9587 20.6356 23.5353 20.3936L20.6396 18.739" stroke="#222222" stroke-width="1.5" stroke-linecap="round" stroke-linejoin="round"/>
<path d="M23.6914 20.6692L23.1357 21.5185C22.9407 21.8166 22.6495 22.0389 22.3106 22.1486C21.9718 22.2584 21.6055 22.249 21.2728 22.1219L17.4707 20.6692" stroke="#222222" stroke-width="1.5" stroke-linejoin="round"/>
<path d="M4.79446 9.23195C4.79446 9.40004 4.72768 9.5612 4.60882 9.68006C4.48996 9.79892 4.32875 9.86575 4.16066 9.86575C3.99256 9.86575 3.83135 9.79892 3.71249 9.68006C3.59363 9.5612 3.52686 9.40004 3.52686 9.23195C3.52686 9.06385 3.59363 8.90269 3.71249 8.78383C3.83135 8.66497 3.99256 8.59814 4.16066 8.59814C4.32875 8.59814 4.48996 8.66497 4.60882 8.78383C4.72768 8.90269 4.79446 9.06385 4.79446 9.23195Z" fill="#F12A23"/>
<path d="M36.4849 9.23195C36.4849 9.40004 36.4181 9.5612 36.2993 9.68006C36.1804 9.79892 36.0192 9.86575 35.8511 9.86575C35.683 9.86575 35.5218 9.79892 35.4029 9.68006C35.2841 9.5612 35.2173 9.40004 35.2173 9.23195C35.2173 9.06385 35.2841 8.90269 35.4029 8.78383C35.5218 8.66497 35.683 8.59814 35.8511 8.59814C36.0192 8.59814 36.1804 8.66497 36.2993 8.78383C36.4181 8.90269 36.4849 9.06385 36.4849 9.23195Z" fill="#F12A23"/>
</svg>
