<svg width="138" height="16" viewBox="0 0 138 16" fill="none" xmlns="http://www.w3.org/2000/svg">
<path d="M122.52 13.7336C123.261 14.5227 127.336 18.3037 133.732 13.9153C138.358 10.299 138.242 2.459 137.797 0.0900723C137.643 0.434927 132.276 12.247 122.52 13.7336ZM137.797 0.0885189C137.74 0.0652179 131.79 -0.748763 125.908 3.05551C122.255 5.41667 121.771 8.87454 121.938 11.1844C130.489 10.2182 137.603 0.360364 137.797 0.0885189Z" fill="#A2A2A2"/>
<path d="M137.798 0.0885189C137.74 0.0652179 131.79 -0.748763 125.908 3.05551C122.255 5.41667 121.771 8.87454 121.938 11.1844C130.489 10.2182 137.603 0.360364 137.798 0.0885189Z" fill="#A2A2A2"/>
<path d="M9.53933 13.2721H2.87758V9.71014H9.53933C11.204 9.71014 12.0549 10.5101 12.0549 11.5463C12.0549 12.5451 11.2226 13.2721 9.53933 13.2721ZM9.32273 7.80257H2.87758V4.80296H9.32273C11.0771 4.80296 11.7656 5.42431 11.7656 6.27558C11.7656 7.05228 10.9688 7.80257 9.32273 7.80257ZM11.0245 8.71131C13.8309 8.61965 14.8443 7.22004 14.8443 5.69461C14.8427 4.0216 13.5215 2.64062 10.2989 2.64062H0V15.3987H10.6068C13.2492 15.3987 15.2233 14.2911 15.2233 11.9098C15.2233 10.2197 14.1187 8.78431 11.023 8.71131H11.0245ZM18.6223 2.64062V15.3987H21.5045V2.64062H18.6223ZM33.1649 5.05771H39.5079V2.64062H23.9582V5.05771H30.2935V15.3987H33.1711L33.1649 5.05771ZM41.9647 2.64062V15.3987H44.8423V10.4278H51.5937V8.32917H44.8423V4.84024H55.8126V2.64062H41.9647ZM58.1441 2.64062V15.3987H61.0217V2.64062H58.1441ZM67.7623 5.74742L77.3078 15.3987H80.566V2.64062H77.724V11.8367L68.5653 2.64062H64.9095V15.3987H67.7623V5.74742ZM84.4554 2.64062V15.3987H98.5339V13.255H87.333V9.74742H94.0473V7.76684H87.333V4.84024H98.5369V2.64062H84.4554ZM117.811 2.64062H114.009L109.159 7.12995L104.343 2.64062H100.488L107.258 8.92878L100.236 15.3987H104.037L109.122 10.6919L114.19 15.3987H118.058L111.023 8.91169L117.811 2.64062Z" fill="#A2A2A2"/>
</svg>
