<svg width="168" height="35" viewBox="0 0 168 35" fill="none" xmlns="http://www.w3.org/2000/svg">
<path d="M50.9206 11.5346L53.537 3.04785H56.9669L59.5613 11.5346L62.4855 3.04785H66.0473L60.9024 17.8008H58.4619L55.2299 7.53309L52.0199 17.8008H49.5794L44.4346 3.04785H47.9964L50.9206 11.5346Z" fill="#A1A1A1"/>
<path d="M67.8286 3.04785H71.1266V17.8008H67.8286V3.04785Z" fill="#A1A1A1"/>
<path d="M74.7539 3.04785H78.0519V9.11612L83.6145 3.04785H87.682L81.8116 9.57784C82.3173 10.2814 83.2627 11.6006 84.6258 13.5134C85.989 15.4262 87.0004 16.8554 87.682 17.8008H83.8343L79.525 11.9744L78.0519 13.6233V17.8008H74.7539V3.04785Z" fill="#A1A1A1"/>
<path d="M89.7271 3.04785H93.025V17.8008H89.7271V3.04785Z" fill="#A1A1A1"/>
<path d="M109.866 8.52248L105.887 16.5915H103.908L99.9503 8.52248V17.8008H96.6523V3.04785H101.116L104.919 11.1609L108.745 3.04785H113.186V17.8008H109.888V8.52248H109.866Z" fill="#A1A1A1"/>
<path d="M127.433 3.04787V5.97207H120.09V9.0062H126.686V11.8205H120.09V14.8766H127.653V17.7788H116.792V3.02588H127.433V3.04787Z" fill="#A1A1A1"/>
<path d="M141.857 4.98266C143.264 6.27987 143.967 8.06077 143.967 10.3474C143.967 12.634 143.286 14.4588 141.901 15.8C140.538 17.1412 138.427 17.8008 135.613 17.8008H130.578V3.04785H135.788C138.449 3.04785 140.45 3.70745 141.857 4.98266ZM139.438 13.7553C140.252 12.9857 140.647 11.8864 140.647 10.4353C140.647 8.9842 140.252 7.86289 139.438 7.09336C138.625 6.30185 137.393 5.92808 135.722 5.92808H133.876V14.8986H135.964C137.481 14.8986 138.647 14.5248 139.438 13.7553Z" fill="#A1A1A1"/>
<path d="M146.826 3.04785H150.124V17.8008H146.826V3.04785Z" fill="#A1A1A1"/>
<path d="M164.261 17.8008L162.898 14.6127H156.719L155.356 17.8008H151.86L158.236 3.04785H161.424L167.801 17.8008H164.261ZM159.797 7.44515L157.951 11.7325H161.644L159.797 7.44515Z" fill="#A1A1A1"/>
<path d="M58.902 26.7057V28.3986H61.6283V29.366H58.902V31.8945H57.8687V25.7383H61.9581V26.7057H58.902Z" fill="#A1A1A1"/>
<path d="M72.2696 31.0366C71.654 31.6522 70.8844 31.9381 69.961 31.9381C69.0376 31.9381 68.2681 31.6303 67.6524 31.0366C67.0368 30.421 66.729 29.6735 66.729 28.772C66.729 27.8706 67.0368 27.101 67.6524 26.5074C68.2681 25.8918 69.0376 25.606 69.961 25.606C70.8844 25.606 71.654 25.9138 72.2696 26.5074C72.8852 27.123 73.193 27.8706 73.193 28.772C73.193 29.6735 72.9072 30.421 72.2696 31.0366ZM71.5221 27.189C71.1043 26.7493 70.5986 26.5294 69.983 26.5294C69.3674 26.5294 68.8617 26.7493 68.4439 27.189C68.0262 27.6287 67.8063 28.1564 67.8063 28.772C67.8063 29.3876 68.0262 29.9153 68.4439 30.355C68.8617 30.7948 69.3674 31.0146 69.983 31.0146C70.5986 31.0146 71.1043 30.7948 71.5221 30.355C71.9398 29.9153 72.1597 29.3876 72.1597 28.772C72.1597 28.1564 71.9398 27.6067 71.5221 27.189Z" fill="#A1A1A1"/>
<path d="M79.8549 30.4649C80.1407 30.7947 80.5145 30.9486 80.9982 30.9486C81.4819 30.9486 81.8557 30.7947 82.1415 30.4649C82.4273 30.1351 82.5592 29.6954 82.5592 29.1237V25.7158H83.5926V29.1677C83.5926 30.0472 83.3508 30.7287 82.8671 31.2124C82.3834 31.6961 81.7458 31.938 80.9982 31.938C80.2287 31.938 79.6131 31.6961 79.1294 31.2124C78.6457 30.7287 78.4038 30.0472 78.4038 29.1677V25.7158H79.4372V29.1237C79.4372 29.6954 79.5691 30.1351 79.8549 30.4649Z" fill="#A1A1A1"/>
<path d="M93.7944 25.7383H94.8278V31.8945H93.7064L90.2326 27.4093V31.8945H89.1992V25.7383H90.2326L93.7944 30.3335V25.7383Z" fill="#A1A1A1"/>
<path d="M105.139 26.5293C105.733 27.057 106.019 27.8045 106.019 28.7719C106.019 29.7174 105.733 30.4869 105.161 31.0365C104.59 31.5862 103.71 31.872 102.523 31.872H100.478V25.7158H102.589C103.71 25.7378 104.568 26.0016 105.139 26.5293ZM104.985 28.7939C104.985 27.3868 104.172 26.6832 102.567 26.6832H101.533V30.9046H102.677C103.424 30.9046 103.996 30.7287 104.392 30.377C104.787 30.0252 104.985 29.4975 104.985 28.7939Z" fill="#A1A1A1"/>
<path d="M112.197 30.4874L111.581 31.8945H110.482L113.186 25.7383H114.286L116.99 31.8945H115.891L115.275 30.4874H112.197ZM114.857 29.5199L113.736 26.9915L112.615 29.5199H114.857Z" fill="#A1A1A1"/>
<path d="M123.652 26.6837V31.8725H122.618V26.6837H120.75V25.7383H125.521V26.6837H123.652Z" fill="#A1A1A1"/>
<path d="M130.6 25.7383H131.633V31.8945H130.6V25.7383Z" fill="#A1A1A1"/>
<path d="M142.45 31.0366C141.835 31.6522 141.065 31.9381 140.142 31.9381C139.218 31.9381 138.449 31.6303 137.833 31.0366C137.217 30.421 136.91 29.6735 136.91 28.772C136.91 27.8706 137.217 27.101 137.833 26.5074C138.449 25.9138 139.218 25.606 140.142 25.606C141.065 25.606 141.835 25.9138 142.45 26.5074C143.066 27.123 143.374 27.8706 143.374 28.772C143.374 29.6735 143.066 30.421 142.45 31.0366ZM141.681 27.189C141.263 26.7493 140.757 26.5294 140.142 26.5294C139.526 26.5294 139.02 26.7493 138.603 27.189C138.185 27.6287 137.965 28.1564 137.965 28.772C137.965 29.3876 138.185 29.9153 138.603 30.355C139.02 30.7948 139.526 31.0146 140.142 31.0146C140.757 31.0146 141.263 30.7948 141.681 30.355C142.098 29.9153 142.318 29.3876 142.318 28.772C142.318 28.1564 142.098 27.6067 141.681 27.189Z" fill="#A1A1A1"/>
<path d="M153.246 25.7383H154.279V31.8945H153.158L149.684 27.4093V31.8945H148.65V25.7383H149.684L153.246 30.3335V25.7383Z" fill="#A1A1A1"/>
<path d="M18.7042 28.2788C23.838 27.5495 27.7848 23.1451 27.7848 17.7968C27.7848 14.5507 26.3262 11.6478 24.0239 9.71729L18.6899 15.0512V28.2788H18.7042Z" fill="#A1A1A1"/>
<path d="M15.7155 28.2788V15.0512L10.3815 9.71729C8.07922 11.6621 6.62061 14.565 6.62061 17.7968C6.63491 23.1308 10.5817 27.5495 15.7155 28.2788Z" fill="#A1A1A1"/>
<path d="M26.4123 8.60139C28.8719 11.061 30.2161 14.3214 30.2161 17.7964C30.2161 21.2713 28.8576 24.5317 26.4123 26.9913C23.9527 29.4509 20.6922 30.7952 17.2173 30.7952C13.7424 30.7952 10.482 29.4366 8.02236 26.9913C5.56274 24.546 4.21853 21.2713 4.21853 17.7964C4.21853 14.3214 5.57704 11.061 8.02236 8.60139C8.23686 8.38689 8.45136 8.18669 8.66586 8.00079L5.69144 5.02637C5.47694 5.22657 5.26244 5.42677 5.04794 5.64127C3.47493 7.21428 2.23082 9.059 1.35851 11.1039C0.457603 13.2203 0 15.4797 0 17.7964C0 20.113 0.457603 22.3724 1.35851 24.4888C2.23082 26.5337 3.46063 28.3784 5.04794 29.9514C6.62095 31.5245 8.46566 32.7686 10.5106 33.6409C12.627 34.5418 14.8864 34.9994 17.203 34.9994C19.5196 34.9994 21.7791 34.5418 23.8955 33.6409C25.9404 32.7686 27.7851 31.5388 29.3581 29.9514C30.9311 28.3784 32.1752 26.5337 33.0475 24.4888C33.9484 22.3724 34.406 20.113 34.406 17.7964C34.406 15.4797 33.9484 13.2203 33.0475 11.1039C32.1752 9.059 30.9454 7.21428 29.3581 5.64127C29.1436 5.42677 28.9291 5.22657 28.7146 5.02637L25.7402 8.00079C25.9833 8.18669 26.1978 8.38689 26.4123 8.60139Z" fill="#A1A1A1"/>
<path d="M17.2175 11.2329C20.1792 11.2329 22.5801 8.832 22.5801 5.87035C22.5801 2.9087 20.1792 0.507812 17.2175 0.507812C14.2559 0.507812 11.855 2.9087 11.855 5.87035C11.855 8.832 14.2559 11.2329 17.2175 11.2329Z" fill="#A1A1A1"/>
</svg>
