<svg width="32" height="35" viewBox="0 0 32 35" fill="none" xmlns="http://www.w3.org/2000/svg">
<mask id="path-1-outside-1_3433_590" maskUnits="userSpaceOnUse" x="0" y="0" width="32" height="35" fill="black">
<rect fill="white" width="32" height="35"/>
<path d="M17.2162 30.9416H11.8992C11.7672 30.9416 11.6406 30.8892 11.5472 30.7959C11.4539 30.7025 11.4015 30.5759 11.4015 30.4439C11.4015 30.3119 11.4539 30.1853 11.5472 30.092C11.6406 29.9986 11.7672 29.9462 11.8992 29.9462H17.2162C17.3482 29.9462 17.4748 29.9986 17.5681 30.092C17.6615 30.1853 17.7139 30.3119 17.7139 30.4439C17.7139 30.5759 17.6615 30.7025 17.5681 30.7959C17.4748 30.8892 17.3482 30.9416 17.2162 30.9416ZM30.7323 18.871C29.5272 17.5737 28.6047 16.0402 28.0231 14.3677C27.2139 -3.49086 1.75242 -3.44318 1.01626 14.4347C0.737595 18.9798 4.10693 22.9184 6.01141 26.5992C6.68117 28.7829 7.02317 31.0538 7.02623 33.3379C7.03426 33.4654 7.09085 33.5849 7.18437 33.672C7.27788 33.759 7.4012 33.8069 7.52894 33.8057C7.65668 33.8046 7.77912 33.7545 7.87105 33.6658C7.96299 33.5771 8.01743 33.4566 8.02317 33.3289C8.02625 30.9049 7.65375 28.495 6.91894 26.1849C5.13219 22.598 1.75242 18.8412 2.0132 14.4347C2.6987 -2.15267 26.3407 -2.15415 27.0262 14.4347C27.5719 16.3471 28.5837 18.0942 29.9708 19.5193C30.2286 19.8665 30.7725 20.5624 29.9544 20.9916C29.0895 21.4761 28.1934 21.9028 27.2721 22.2687C27.1678 22.3089 27.0801 22.3832 27.0233 22.4795C26.9665 22.5758 26.9439 22.6885 26.9591 22.7992C27.1686 24.3724 27.1861 25.9651 27.0113 27.5425C26.8623 28.2876 25.1813 28.7913 22.8119 28.7913C22.5231 28.7662 22.2323 28.8033 21.9591 28.9002C21.6858 28.997 21.4366 29.1514 21.2281 29.3528C21.0196 29.5542 20.8568 29.798 20.7505 30.0677C20.6443 30.3375 20.5972 30.6268 20.6124 30.9163V33.3379C20.6124 33.4703 20.665 33.5973 20.7586 33.6909C20.8522 33.7845 20.9792 33.8371 21.1116 33.8371C21.244 33.8371 21.371 33.7845 21.4646 33.6909C21.5582 33.5973 21.6108 33.4703 21.6108 33.3379V30.9163C21.5999 30.759 21.6242 30.6012 21.6818 30.4544C21.7394 30.3076 21.8289 30.1754 21.9439 30.0675C22.0588 29.9595 22.1963 29.8784 22.3464 29.8302C22.4966 29.7819 22.6556 29.7675 22.8119 29.7882C28.8472 29.7584 28.3256 27.6379 27.9918 23.054C29.6877 22.2896 32.7575 21.3373 30.7323 18.883V18.871ZM20.6124 20.2942C19.9036 20.9818 19.4958 21.9221 19.4783 22.9095V26.784C19.4783 27.1792 19.3213 27.5583 19.0419 27.8377C18.7624 28.1172 18.3834 28.2742 17.9881 28.2742H11.1138C10.7186 28.2742 10.3396 28.1172 10.0601 27.8377C9.78065 27.5583 9.62365 27.1792 9.62365 26.784V22.8558C9.60649 21.8769 9.20694 20.9436 8.51047 20.2554C6.96629 18.6779 6.10314 16.5573 6.10678 14.3498C6.50317 3.13158 22.6599 3.13754 23.0563 14.3498C23.0607 16.5784 22.1819 18.718 20.6124 20.3001V20.2942ZM18.4814 25.2864H10.6146C10.6847 26.097 10.3464 27.2713 11.1138 27.2802H17.9881C18.1203 27.2802 18.247 27.2278 18.3406 27.1345C18.4342 27.0412 18.4869 26.9146 18.4873 26.7825L18.4814 25.2864ZM18.5306 22.2955H10.5759C10.6444 22.686 10.6072 23.8766 10.6146 24.2894H18.4814C18.4613 23.6264 18.4777 22.9627 18.5306 22.3015V22.2955ZM19.903 19.5938C20.9365 18.5457 21.6377 17.2159 21.9186 15.7711C22.1995 14.3262 22.0476 12.8306 21.482 11.4716C20.9165 10.1127 19.9624 8.95097 18.7393 8.13203C17.5162 7.31309 16.0787 6.87339 14.6067 6.86805C13.1348 6.86272 11.6941 7.29198 10.4651 8.10203C9.23617 8.91208 8.27366 10.0669 7.69825 11.4217C7.12285 12.7764 6.96015 14.2709 7.23056 15.7178C7.50096 17.1647 8.19244 18.4995 9.21831 19.555C9.70563 20.0518 10.0833 20.6453 10.327 21.2971H18.7913C19.0418 20.6612 19.4202 20.0835 19.903 19.5998V19.5938ZM11.7561 14.3498C11.7563 14.2843 11.7436 14.2194 11.7187 14.1589C11.6937 14.0983 11.6571 14.0433 11.6109 13.9969C11.5646 13.9505 11.5097 13.9137 11.4492 13.8886C11.3887 13.8635 11.3239 13.8506 11.2584 13.8506H9.26451C9.19675 13.8469 9.12896 13.857 9.06526 13.8804C9.00156 13.9038 8.94329 13.9399 8.89402 13.9865C8.84475 14.0332 8.8055 14.0894 8.77868 14.1517C8.75186 14.214 8.73803 14.2812 8.73803 14.349C8.73803 14.4169 8.75186 14.484 8.77868 14.5464C8.8055 14.6087 8.84475 14.6649 8.89402 14.7116C8.94329 14.7582 9.00156 14.7943 9.06526 14.8177C9.12896 14.8411 9.19675 14.8512 9.26451 14.8475H11.2584C11.3904 14.8475 11.517 14.7951 11.6103 14.7017C11.7037 14.6084 11.7561 14.4818 11.7561 14.3498ZM19.8986 13.8506H17.9032C17.7757 13.8575 17.6557 13.9131 17.5679 14.0058C17.4802 14.0985 17.4312 14.2214 17.4312 14.349C17.4312 14.4767 17.4802 14.5995 17.5679 14.6923C17.6557 14.785 17.7757 14.8405 17.9032 14.8475H19.8986C20.0261 14.8405 20.146 14.785 20.2338 14.6923C20.3216 14.5995 20.3705 14.4767 20.3705 14.349C20.3705 14.2214 20.3216 14.0985 20.2338 14.0058C20.146 13.9131 20.0261 13.8575 19.8986 13.8506ZM13.1688 16.7967C13.1121 16.7639 13.0495 16.7426 12.9845 16.7341C12.9195 16.7255 12.8535 16.7299 12.7902 16.7469C12.727 16.7639 12.6677 16.7933 12.6158 16.8333C12.5639 16.8733 12.5204 16.9231 12.4878 16.98L11.4909 18.7056C11.4582 18.7623 11.437 18.8248 11.4285 18.8897C11.42 18.9545 11.4243 19.0204 11.4412 19.0836C11.4582 19.1467 11.4874 19.206 11.5273 19.2578C11.5671 19.3097 11.6168 19.3532 11.6734 19.3859C11.7301 19.4186 11.7926 19.4398 11.8575 19.4483C11.9223 19.4568 11.9882 19.4525 12.0514 19.4355C12.1145 19.4186 12.1737 19.3893 12.2256 19.3495C12.2775 19.3097 12.321 19.26 12.3537 19.2034L13.3521 17.4762C13.4171 17.3616 13.4343 17.226 13.4 17.0988C13.3657 16.9716 13.2826 16.8631 13.1688 16.7967ZM16.0002 11.9044C16.1148 11.97 16.2506 11.9877 16.3781 11.9536C16.5057 11.9196 16.6146 11.8365 16.6812 11.7226L17.6782 9.99543C17.7405 9.88105 17.7557 9.74684 17.7204 9.62144C17.6852 9.49604 17.6023 9.38938 17.4895 9.32423C17.3767 9.25908 17.2429 9.2406 17.1167 9.27273C16.9904 9.30486 16.8818 9.38506 16.8139 9.49621L15.8109 11.2219C15.7451 11.3365 15.7274 11.4726 15.7618 11.6003C15.7961 11.728 15.8797 11.8368 15.9942 11.9029L16.0002 11.9044ZM16.6812 16.98C16.6121 16.8717 16.5039 16.7943 16.3791 16.7638C16.2544 16.7332 16.1227 16.752 16.0114 16.8161C15.9001 16.8802 15.8177 16.9847 15.7815 17.1079C15.7453 17.2311 15.758 17.3636 15.8169 17.4777C16.328 18.2467 16.7989 19.5431 17.2475 19.4552C17.3341 19.4537 17.4188 19.4298 17.4935 19.3858C17.5681 19.3419 17.6301 19.2794 17.6735 19.2044C17.7168 19.1294 17.74 19.0445 17.7408 18.9579C17.7417 18.8713 17.7201 18.7859 17.6782 18.7101L16.6812 16.98ZM12.3537 9.49472C12.2837 9.38813 12.1756 9.31237 12.0515 9.28298C11.9274 9.25359 11.7968 9.27279 11.6864 9.33665C11.576 9.40051 11.4943 9.50418 11.4579 9.62641C11.4216 9.74863 11.4333 9.88013 11.4909 9.99394C12.005 10.7688 12.4729 12.0579 12.92 11.9699C13.0067 11.9687 13.0916 11.945 13.1665 11.9011C13.2413 11.8573 13.3035 11.7948 13.347 11.7198C13.3905 11.6447 13.4139 11.5597 13.4148 11.473C13.4157 11.3862 13.3941 11.3008 13.3521 11.2248L12.3537 9.49472Z"/>
</mask>
<path d="M17.2162 30.9416H11.8992C11.7672 30.9416 11.6406 30.8892 11.5472 30.7959C11.4539 30.7025 11.4015 30.5759 11.4015 30.4439C11.4015 30.3119 11.4539 30.1853 11.5472 30.092C11.6406 29.9986 11.7672 29.9462 11.8992 29.9462H17.2162C17.3482 29.9462 17.4748 29.9986 17.5681 30.092C17.6615 30.1853 17.7139 30.3119 17.7139 30.4439C17.7139 30.5759 17.6615 30.7025 17.5681 30.7959C17.4748 30.8892 17.3482 30.9416 17.2162 30.9416ZM30.7323 18.871C29.5272 17.5737 28.6047 16.0402 28.0231 14.3677C27.2139 -3.49086 1.75242 -3.44318 1.01626 14.4347C0.737595 18.9798 4.10693 22.9184 6.01141 26.5992C6.68117 28.7829 7.02317 31.0538 7.02623 33.3379C7.03426 33.4654 7.09085 33.5849 7.18437 33.672C7.27788 33.759 7.4012 33.8069 7.52894 33.8057C7.65668 33.8046 7.77912 33.7545 7.87105 33.6658C7.96299 33.5771 8.01743 33.4566 8.02317 33.3289C8.02625 30.9049 7.65375 28.495 6.91894 26.1849C5.13219 22.598 1.75242 18.8412 2.0132 14.4347C2.6987 -2.15267 26.3407 -2.15415 27.0262 14.4347C27.5719 16.3471 28.5837 18.0942 29.9708 19.5193C30.2286 19.8665 30.7725 20.5624 29.9544 20.9916C29.0895 21.4761 28.1934 21.9028 27.2721 22.2687C27.1678 22.3089 27.0801 22.3832 27.0233 22.4795C26.9665 22.5758 26.9439 22.6885 26.9591 22.7992C27.1686 24.3724 27.1861 25.9651 27.0113 27.5425C26.8623 28.2876 25.1813 28.7913 22.8119 28.7913C22.5231 28.7662 22.2323 28.8033 21.9591 28.9002C21.6858 28.997 21.4366 29.1514 21.2281 29.3528C21.0196 29.5542 20.8568 29.798 20.7505 30.0677C20.6443 30.3375 20.5972 30.6268 20.6124 30.9163V33.3379C20.6124 33.4703 20.665 33.5973 20.7586 33.6909C20.8522 33.7845 20.9792 33.8371 21.1116 33.8371C21.244 33.8371 21.371 33.7845 21.4646 33.6909C21.5582 33.5973 21.6108 33.4703 21.6108 33.3379V30.9163C21.5999 30.759 21.6242 30.6012 21.6818 30.4544C21.7394 30.3076 21.8289 30.1754 21.9439 30.0675C22.0588 29.9595 22.1963 29.8784 22.3464 29.8302C22.4966 29.7819 22.6556 29.7675 22.8119 29.7882C28.8472 29.7584 28.3256 27.6379 27.9918 23.054C29.6877 22.2896 32.7575 21.3373 30.7323 18.883V18.871ZM20.6124 20.2942C19.9036 20.9818 19.4958 21.9221 19.4783 22.9095V26.784C19.4783 27.1792 19.3213 27.5583 19.0419 27.8377C18.7624 28.1172 18.3834 28.2742 17.9881 28.2742H11.1138C10.7186 28.2742 10.3396 28.1172 10.0601 27.8377C9.78065 27.5583 9.62365 27.1792 9.62365 26.784V22.8558C9.60649 21.8769 9.20694 20.9436 8.51047 20.2554C6.96629 18.6779 6.10314 16.5573 6.10678 14.3498C6.50317 3.13158 22.6599 3.13754 23.0563 14.3498C23.0607 16.5784 22.1819 18.718 20.6124 20.3001V20.2942ZM18.4814 25.2864H10.6146C10.6847 26.097 10.3464 27.2713 11.1138 27.2802H17.9881C18.1203 27.2802 18.247 27.2278 18.3406 27.1345C18.4342 27.0412 18.4869 26.9146 18.4873 26.7825L18.4814 25.2864ZM18.5306 22.2955H10.5759C10.6444 22.686 10.6072 23.8766 10.6146 24.2894H18.4814C18.4613 23.6264 18.4777 22.9627 18.5306 22.3015V22.2955ZM19.903 19.5938C20.9365 18.5457 21.6377 17.2159 21.9186 15.7711C22.1995 14.3262 22.0476 12.8306 21.482 11.4716C20.9165 10.1127 19.9624 8.95097 18.7393 8.13203C17.5162 7.31309 16.0787 6.87339 14.6067 6.86805C13.1348 6.86272 11.6941 7.29198 10.4651 8.10203C9.23617 8.91208 8.27366 10.0669 7.69825 11.4217C7.12285 12.7764 6.96015 14.2709 7.23056 15.7178C7.50096 17.1647 8.19244 18.4995 9.21831 19.555C9.70563 20.0518 10.0833 20.6453 10.327 21.2971H18.7913C19.0418 20.6612 19.4202 20.0835 19.903 19.5998V19.5938ZM11.7561 14.3498C11.7563 14.2843 11.7436 14.2194 11.7187 14.1589C11.6937 14.0983 11.6571 14.0433 11.6109 13.9969C11.5646 13.9505 11.5097 13.9137 11.4492 13.8886C11.3887 13.8635 11.3239 13.8506 11.2584 13.8506H9.26451C9.19675 13.8469 9.12896 13.857 9.06526 13.8804C9.00156 13.9038 8.94329 13.9399 8.89402 13.9865C8.84475 14.0332 8.8055 14.0894 8.77868 14.1517C8.75186 14.214 8.73803 14.2812 8.73803 14.349C8.73803 14.4169 8.75186 14.484 8.77868 14.5464C8.8055 14.6087 8.84475 14.6649 8.89402 14.7116C8.94329 14.7582 9.00156 14.7943 9.06526 14.8177C9.12896 14.8411 9.19675 14.8512 9.26451 14.8475H11.2584C11.3904 14.8475 11.517 14.7951 11.6103 14.7017C11.7037 14.6084 11.7561 14.4818 11.7561 14.3498ZM19.8986 13.8506H17.9032C17.7757 13.8575 17.6557 13.9131 17.5679 14.0058C17.4802 14.0985 17.4312 14.2214 17.4312 14.349C17.4312 14.4767 17.4802 14.5995 17.5679 14.6923C17.6557 14.785 17.7757 14.8405 17.9032 14.8475H19.8986C20.0261 14.8405 20.146 14.785 20.2338 14.6923C20.3216 14.5995 20.3705 14.4767 20.3705 14.349C20.3705 14.2214 20.3216 14.0985 20.2338 14.0058C20.146 13.9131 20.0261 13.8575 19.8986 13.8506ZM13.1688 16.7967C13.1121 16.7639 13.0495 16.7426 12.9845 16.7341C12.9195 16.7255 12.8535 16.7299 12.7902 16.7469C12.727 16.7639 12.6677 16.7933 12.6158 16.8333C12.5639 16.8733 12.5204 16.9231 12.4878 16.98L11.4909 18.7056C11.4582 18.7623 11.437 18.8248 11.4285 18.8897C11.42 18.9545 11.4243 19.0204 11.4412 19.0836C11.4582 19.1467 11.4874 19.206 11.5273 19.2578C11.5671 19.3097 11.6168 19.3532 11.6734 19.3859C11.7301 19.4186 11.7926 19.4398 11.8575 19.4483C11.9223 19.4568 11.9882 19.4525 12.0514 19.4355C12.1145 19.4186 12.1737 19.3893 12.2256 19.3495C12.2775 19.3097 12.321 19.26 12.3537 19.2034L13.3521 17.4762C13.4171 17.3616 13.4343 17.226 13.4 17.0988C13.3657 16.9716 13.2826 16.8631 13.1688 16.7967ZM16.0002 11.9044C16.1148 11.97 16.2506 11.9877 16.3781 11.9536C16.5057 11.9196 16.6146 11.8365 16.6812 11.7226L17.6782 9.99543C17.7405 9.88105 17.7557 9.74684 17.7204 9.62144C17.6852 9.49604 17.6023 9.38938 17.4895 9.32423C17.3767 9.25908 17.2429 9.2406 17.1167 9.27273C16.9904 9.30486 16.8818 9.38506 16.8139 9.49621L15.8109 11.2219C15.7451 11.3365 15.7274 11.4726 15.7618 11.6003C15.7961 11.728 15.8797 11.8368 15.9942 11.9029L16.0002 11.9044ZM16.6812 16.98C16.6121 16.8717 16.5039 16.7943 16.3791 16.7638C16.2544 16.7332 16.1227 16.752 16.0114 16.8161C15.9001 16.8802 15.8177 16.9847 15.7815 17.1079C15.7453 17.2311 15.758 17.3636 15.8169 17.4777C16.328 18.2467 16.7989 19.5431 17.2475 19.4552C17.3341 19.4537 17.4188 19.4298 17.4935 19.3858C17.5681 19.3419 17.6301 19.2794 17.6735 19.2044C17.7168 19.1294 17.74 19.0445 17.7408 18.9579C17.7417 18.8713 17.7201 18.7859 17.6782 18.7101L16.6812 16.98ZM12.3537 9.49472C12.2837 9.38813 12.1756 9.31237 12.0515 9.28298C11.9274 9.25359 11.7968 9.27279 11.6864 9.33665C11.576 9.40051 11.4943 9.50418 11.4579 9.62641C11.4216 9.74863 11.4333 9.88013 11.4909 9.99394C12.005 10.7688 12.4729 12.0579 12.92 11.9699C13.0067 11.9687 13.0916 11.945 13.1665 11.9011C13.2413 11.8573 13.3035 11.7948 13.347 11.7198C13.3905 11.6447 13.4139 11.5597 13.4148 11.473C13.4157 11.3862 13.3941 11.3008 13.3521 11.2248L12.3537 9.49472Z" fill="#222222"/>
<path d="M17.2162 30.9416H11.8992C11.7672 30.9416 11.6406 30.8892 11.5472 30.7959C11.4539 30.7025 11.4015 30.5759 11.4015 30.4439C11.4015 30.3119 11.4539 30.1853 11.5472 30.092C11.6406 29.9986 11.7672 29.9462 11.8992 29.9462H17.2162C17.3482 29.9462 17.4748 29.9986 17.5681 30.092C17.6615 30.1853 17.7139 30.3119 17.7139 30.4439C17.7139 30.5759 17.6615 30.7025 17.5681 30.7959C17.4748 30.8892 17.3482 30.9416 17.2162 30.9416ZM30.7323 18.871C29.5272 17.5737 28.6047 16.0402 28.0231 14.3677C27.2139 -3.49086 1.75242 -3.44318 1.01626 14.4347C0.737595 18.9798 4.10693 22.9184 6.01141 26.5992C6.68117 28.7829 7.02317 31.0538 7.02623 33.3379C7.03426 33.4654 7.09085 33.5849 7.18437 33.672C7.27788 33.759 7.4012 33.8069 7.52894 33.8057C7.65668 33.8046 7.77912 33.7545 7.87105 33.6658C7.96299 33.5771 8.01743 33.4566 8.02317 33.3289C8.02625 30.9049 7.65375 28.495 6.91894 26.1849C5.13219 22.598 1.75242 18.8412 2.0132 14.4347C2.6987 -2.15267 26.3407 -2.15415 27.0262 14.4347C27.5719 16.3471 28.5837 18.0942 29.9708 19.5193C30.2286 19.8665 30.7725 20.5624 29.9544 20.9916C29.0895 21.4761 28.1934 21.9028 27.2721 22.2687C27.1678 22.3089 27.0801 22.3832 27.0233 22.4795C26.9665 22.5758 26.9439 22.6885 26.9591 22.7992C27.1686 24.3724 27.1861 25.9651 27.0113 27.5425C26.8623 28.2876 25.1813 28.7913 22.8119 28.7913C22.5231 28.7662 22.2323 28.8033 21.9591 28.9002C21.6858 28.997 21.4366 29.1514 21.2281 29.3528C21.0196 29.5542 20.8568 29.798 20.7505 30.0677C20.6443 30.3375 20.5972 30.6268 20.6124 30.9163V33.3379C20.6124 33.4703 20.665 33.5973 20.7586 33.6909C20.8522 33.7845 20.9792 33.8371 21.1116 33.8371C21.244 33.8371 21.371 33.7845 21.4646 33.6909C21.5582 33.5973 21.6108 33.4703 21.6108 33.3379V30.9163C21.5999 30.759 21.6242 30.6012 21.6818 30.4544C21.7394 30.3076 21.8289 30.1754 21.9439 30.0675C22.0588 29.9595 22.1963 29.8784 22.3464 29.8302C22.4966 29.7819 22.6556 29.7675 22.8119 29.7882C28.8472 29.7584 28.3256 27.6379 27.9918 23.054C29.6877 22.2896 32.7575 21.3373 30.7323 18.883V18.871ZM20.6124 20.2942C19.9036 20.9818 19.4958 21.9221 19.4783 22.9095V26.784C19.4783 27.1792 19.3213 27.5583 19.0419 27.8377C18.7624 28.1172 18.3834 28.2742 17.9881 28.2742H11.1138C10.7186 28.2742 10.3396 28.1172 10.0601 27.8377C9.78065 27.5583 9.62365 27.1792 9.62365 26.784V22.8558C9.60649 21.8769 9.20694 20.9436 8.51047 20.2554C6.96629 18.6779 6.10314 16.5573 6.10678 14.3498C6.50317 3.13158 22.6599 3.13754 23.0563 14.3498C23.0607 16.5784 22.1819 18.718 20.6124 20.3001V20.2942ZM18.4814 25.2864H10.6146C10.6847 26.097 10.3464 27.2713 11.1138 27.2802H17.9881C18.1203 27.2802 18.247 27.2278 18.3406 27.1345C18.4342 27.0412 18.4869 26.9146 18.4873 26.7825L18.4814 25.2864ZM18.5306 22.2955H10.5759C10.6444 22.686 10.6072 23.8766 10.6146 24.2894H18.4814C18.4613 23.6264 18.4777 22.9627 18.5306 22.3015V22.2955ZM19.903 19.5938C20.9365 18.5457 21.6377 17.2159 21.9186 15.7711C22.1995 14.3262 22.0476 12.8306 21.482 11.4716C20.9165 10.1127 19.9624 8.95097 18.7393 8.13203C17.5162 7.31309 16.0787 6.87339 14.6067 6.86805C13.1348 6.86272 11.6941 7.29198 10.4651 8.10203C9.23617 8.91208 8.27366 10.0669 7.69825 11.4217C7.12285 12.7764 6.96015 14.2709 7.23056 15.7178C7.50096 17.1647 8.19244 18.4995 9.21831 19.555C9.70563 20.0518 10.0833 20.6453 10.327 21.2971H18.7913C19.0418 20.6612 19.4202 20.0835 19.903 19.5998V19.5938ZM11.7561 14.3498C11.7563 14.2843 11.7436 14.2194 11.7187 14.1589C11.6937 14.0983 11.6571 14.0433 11.6109 13.9969C11.5646 13.9505 11.5097 13.9137 11.4492 13.8886C11.3887 13.8635 11.3239 13.8506 11.2584 13.8506H9.26451C9.19675 13.8469 9.12896 13.857 9.06526 13.8804C9.00156 13.9038 8.94329 13.9399 8.89402 13.9865C8.84475 14.0332 8.8055 14.0894 8.77868 14.1517C8.75186 14.214 8.73803 14.2812 8.73803 14.349C8.73803 14.4169 8.75186 14.484 8.77868 14.5464C8.8055 14.6087 8.84475 14.6649 8.89402 14.7116C8.94329 14.7582 9.00156 14.7943 9.06526 14.8177C9.12896 14.8411 9.19675 14.8512 9.26451 14.8475H11.2584C11.3904 14.8475 11.517 14.7951 11.6103 14.7017C11.7037 14.6084 11.7561 14.4818 11.7561 14.3498ZM19.8986 13.8506H17.9032C17.7757 13.8575 17.6557 13.9131 17.5679 14.0058C17.4802 14.0985 17.4312 14.2214 17.4312 14.349C17.4312 14.4767 17.4802 14.5995 17.5679 14.6923C17.6557 14.785 17.7757 14.8405 17.9032 14.8475H19.8986C20.0261 14.8405 20.146 14.785 20.2338 14.6923C20.3216 14.5995 20.3705 14.4767 20.3705 14.349C20.3705 14.2214 20.3216 14.0985 20.2338 14.0058C20.146 13.9131 20.0261 13.8575 19.8986 13.8506ZM13.1688 16.7967C13.1121 16.7639 13.0495 16.7426 12.9845 16.7341C12.9195 16.7255 12.8535 16.7299 12.7902 16.7469C12.727 16.7639 12.6677 16.7933 12.6158 16.8333C12.5639 16.8733 12.5204 16.9231 12.4878 16.98L11.4909 18.7056C11.4582 18.7623 11.437 18.8248 11.4285 18.8897C11.42 18.9545 11.4243 19.0204 11.4412 19.0836C11.4582 19.1467 11.4874 19.206 11.5273 19.2578C11.5671 19.3097 11.6168 19.3532 11.6734 19.3859C11.7301 19.4186 11.7926 19.4398 11.8575 19.4483C11.9223 19.4568 11.9882 19.4525 12.0514 19.4355C12.1145 19.4186 12.1737 19.3893 12.2256 19.3495C12.2775 19.3097 12.321 19.26 12.3537 19.2034L13.3521 17.4762C13.4171 17.3616 13.4343 17.226 13.4 17.0988C13.3657 16.9716 13.2826 16.8631 13.1688 16.7967ZM16.0002 11.9044C16.1148 11.97 16.2506 11.9877 16.3781 11.9536C16.5057 11.9196 16.6146 11.8365 16.6812 11.7226L17.6782 9.99543C17.7405 9.88105 17.7557 9.74684 17.7204 9.62144C17.6852 9.49604 17.6023 9.38938 17.4895 9.32423C17.3767 9.25908 17.2429 9.2406 17.1167 9.27273C16.9904 9.30486 16.8818 9.38506 16.8139 9.49621L15.8109 11.2219C15.7451 11.3365 15.7274 11.4726 15.7618 11.6003C15.7961 11.728 15.8797 11.8368 15.9942 11.9029L16.0002 11.9044ZM16.6812 16.98C16.6121 16.8717 16.5039 16.7943 16.3791 16.7638C16.2544 16.7332 16.1227 16.752 16.0114 16.8161C15.9001 16.8802 15.8177 16.9847 15.7815 17.1079C15.7453 17.2311 15.758 17.3636 15.8169 17.4777C16.328 18.2467 16.7989 19.5431 17.2475 19.4552C17.3341 19.4537 17.4188 19.4298 17.4935 19.3858C17.5681 19.3419 17.6301 19.2794 17.6735 19.2044C17.7168 19.1294 17.74 19.0445 17.7408 18.9579C17.7417 18.8713 17.7201 18.7859 17.6782 18.7101L16.6812 16.98ZM12.3537 9.49472C12.2837 9.38813 12.1756 9.31237 12.0515 9.28298C11.9274 9.25359 11.7968 9.27279 11.6864 9.33665C11.576 9.40051 11.4943 9.50418 11.4579 9.62641C11.4216 9.74863 11.4333 9.88013 11.4909 9.99394C12.005 10.7688 12.4729 12.0579 12.92 11.9699C13.0067 11.9687 13.0916 11.945 13.1665 11.9011C13.2413 11.8573 13.3035 11.7948 13.347 11.7198C13.3905 11.6447 13.4139 11.5597 13.4148 11.473C13.4157 11.3862 13.3941 11.3008 13.3521 11.2248L12.3537 9.49472Z" stroke="#222222" stroke-width="0.8" mask="url(#path-1-outside-1_3433_590)"/>
<mask id="path-2-outside-2_3433_590" maskUnits="userSpaceOnUse" x="7.73828" y="8.25732" width="14" height="12" fill="black">
<rect fill="white" x="7.73828" y="8.25732" width="14" height="12"/>
<path fill-rule="evenodd" clip-rule="evenodd" d="M11.7189 14.1589C11.7438 14.2194 11.7566 14.2843 11.7564 14.3498C11.7564 14.4818 11.7039 14.6084 11.6106 14.7018C11.5173 14.7951 11.3907 14.8475 11.2586 14.8475H9.26476C9.19701 14.8512 9.12921 14.8411 9.06551 14.8177C9.00181 14.7943 8.94355 14.7582 8.89427 14.7116C8.845 14.6649 8.80576 14.6087 8.77893 14.5464C8.75211 14.4841 8.73828 14.4169 8.73828 14.3491C8.73828 14.2812 8.75211 14.2141 8.77893 14.1517C8.80576 14.0894 8.845 14.0332 8.89427 13.9866C8.94355 13.9399 9.00181 13.9038 9.06551 13.8804C9.12921 13.857 9.19701 13.8469 9.26476 13.8506H11.2586C11.3241 13.8506 11.389 13.8635 11.4495 13.8886C11.5099 13.9137 11.5649 13.9505 11.6111 13.9969C11.6574 14.0433 11.694 14.0983 11.7189 14.1589ZM17.9034 13.8506H19.8988C20.0263 13.8576 20.1463 13.9131 20.2341 14.0058C20.3218 14.0986 20.3708 14.2214 20.3708 14.3491C20.3708 14.4767 20.3218 14.5996 20.2341 14.6923C20.1463 14.785 20.0263 14.8406 19.8988 14.8475H17.9034C17.776 14.8406 17.656 14.785 17.5682 14.6923C17.4804 14.5996 17.4315 14.4767 17.4315 14.3491C17.4315 14.2214 17.4804 14.0986 17.5682 14.0058C17.656 13.9131 17.776 13.8576 17.9034 13.8506ZM12.9848 16.7341C13.0497 16.7426 13.1124 16.7639 13.1691 16.7967C13.2829 16.8631 13.366 16.9716 13.4003 17.0988C13.4346 17.226 13.4174 17.3616 13.3524 17.4762L12.3539 19.2034C12.3213 19.26 12.2777 19.3097 12.2259 19.3495C12.174 19.3894 12.1148 19.4186 12.0516 19.4355C11.9884 19.4525 11.9226 19.4568 11.8577 19.4483C11.7929 19.4398 11.7303 19.4186 11.6737 19.3859C11.617 19.3533 11.5674 19.3097 11.5275 19.2579C11.4877 19.206 11.4585 19.1468 11.4415 19.0836C11.4246 19.0204 11.4202 18.9545 11.4287 18.8897C11.4372 18.8248 11.4584 18.7623 11.4911 18.7057L12.4881 16.98C12.5206 16.9232 12.5641 16.8733 12.616 16.8333C12.6679 16.7933 12.7272 16.764 12.7905 16.7469C12.8538 16.7299 12.9198 16.7255 12.9848 16.7341ZM16.3784 11.9536C16.2508 11.9877 16.115 11.97 16.0005 11.9044L15.9945 11.9029C15.88 11.8368 15.7964 11.728 15.762 11.6003C15.7277 11.4726 15.7453 11.3365 15.8112 11.2219L16.8141 9.49623C16.882 9.38508 16.9907 9.30488 17.1169 9.27275C17.2432 9.24062 17.377 9.2591 17.4898 9.32425C17.6026 9.3894 17.6854 9.49606 17.7207 9.62146C17.7559 9.74686 17.7408 9.88108 17.6784 9.99545L16.6815 11.7226C16.6148 11.8365 16.5059 11.9196 16.3784 11.9536ZM16.3794 16.7638C16.5042 16.7943 16.6123 16.8718 16.6815 16.98L17.6784 18.7101C17.7203 18.7859 17.7419 18.8713 17.7411 18.9579C17.7403 19.0445 17.7171 19.1294 17.6737 19.2044C17.6304 19.2794 17.5684 19.3419 17.4937 19.3859C17.4191 19.4298 17.3344 19.4537 17.2478 19.4552C16.9382 19.5159 16.618 18.9172 16.2812 18.2876C16.13 18.0049 15.9755 17.716 15.8172 17.4777C15.7582 17.3636 15.7456 17.2312 15.7818 17.1079C15.818 16.9847 15.9003 16.8802 16.0116 16.8161C16.1229 16.752 16.2546 16.7333 16.3794 16.7638ZM12.0517 9.283C12.1758 9.3124 12.2839 9.38816 12.3539 9.49474L13.3524 11.2249C13.3943 11.3008 13.4159 11.3863 13.415 11.473C13.4141 11.5597 13.3908 11.6448 13.3473 11.7198C13.3038 11.7948 13.2415 11.8573 13.1667 11.9011C13.0919 11.945 13.0069 11.9687 12.9202 11.97C12.6116 12.0306 12.2931 11.4353 11.9563 10.8059C11.8052 10.5234 11.6504 10.234 11.4911 9.99396C11.4336 9.88015 11.4218 9.74865 11.4582 9.62643C11.4945 9.50421 11.5763 9.40053 11.6867 9.33667C11.797 9.27281 11.9277 9.25361 12.0517 9.283Z"/>
</mask>
<path fill-rule="evenodd" clip-rule="evenodd" d="M11.7189 14.1589C11.7438 14.2194 11.7566 14.2843 11.7564 14.3498C11.7564 14.4818 11.7039 14.6084 11.6106 14.7018C11.5173 14.7951 11.3907 14.8475 11.2586 14.8475H9.26476C9.19701 14.8512 9.12921 14.8411 9.06551 14.8177C9.00181 14.7943 8.94355 14.7582 8.89427 14.7116C8.845 14.6649 8.80576 14.6087 8.77893 14.5464C8.75211 14.4841 8.73828 14.4169 8.73828 14.3491C8.73828 14.2812 8.75211 14.2141 8.77893 14.1517C8.80576 14.0894 8.845 14.0332 8.89427 13.9866C8.94355 13.9399 9.00181 13.9038 9.06551 13.8804C9.12921 13.857 9.19701 13.8469 9.26476 13.8506H11.2586C11.3241 13.8506 11.389 13.8635 11.4495 13.8886C11.5099 13.9137 11.5649 13.9505 11.6111 13.9969C11.6574 14.0433 11.694 14.0983 11.7189 14.1589ZM17.9034 13.8506H19.8988C20.0263 13.8576 20.1463 13.9131 20.2341 14.0058C20.3218 14.0986 20.3708 14.2214 20.3708 14.3491C20.3708 14.4767 20.3218 14.5996 20.2341 14.6923C20.1463 14.785 20.0263 14.8406 19.8988 14.8475H17.9034C17.776 14.8406 17.656 14.785 17.5682 14.6923C17.4804 14.5996 17.4315 14.4767 17.4315 14.3491C17.4315 14.2214 17.4804 14.0986 17.5682 14.0058C17.656 13.9131 17.776 13.8576 17.9034 13.8506ZM12.9848 16.7341C13.0497 16.7426 13.1124 16.7639 13.1691 16.7967C13.2829 16.8631 13.366 16.9716 13.4003 17.0988C13.4346 17.226 13.4174 17.3616 13.3524 17.4762L12.3539 19.2034C12.3213 19.26 12.2777 19.3097 12.2259 19.3495C12.174 19.3894 12.1148 19.4186 12.0516 19.4355C11.9884 19.4525 11.9226 19.4568 11.8577 19.4483C11.7929 19.4398 11.7303 19.4186 11.6737 19.3859C11.617 19.3533 11.5674 19.3097 11.5275 19.2579C11.4877 19.206 11.4585 19.1468 11.4415 19.0836C11.4246 19.0204 11.4202 18.9545 11.4287 18.8897C11.4372 18.8248 11.4584 18.7623 11.4911 18.7057L12.4881 16.98C12.5206 16.9232 12.5641 16.8733 12.616 16.8333C12.6679 16.7933 12.7272 16.764 12.7905 16.7469C12.8538 16.7299 12.9198 16.7255 12.9848 16.7341ZM16.3784 11.9536C16.2508 11.9877 16.115 11.97 16.0005 11.9044L15.9945 11.9029C15.88 11.8368 15.7964 11.728 15.762 11.6003C15.7277 11.4726 15.7453 11.3365 15.8112 11.2219L16.8141 9.49623C16.882 9.38508 16.9907 9.30488 17.1169 9.27275C17.2432 9.24062 17.377 9.2591 17.4898 9.32425C17.6026 9.3894 17.6854 9.49606 17.7207 9.62146C17.7559 9.74686 17.7408 9.88108 17.6784 9.99545L16.6815 11.7226C16.6148 11.8365 16.5059 11.9196 16.3784 11.9536ZM16.3794 16.7638C16.5042 16.7943 16.6123 16.8718 16.6815 16.98L17.6784 18.7101C17.7203 18.7859 17.7419 18.8713 17.7411 18.9579C17.7403 19.0445 17.7171 19.1294 17.6737 19.2044C17.6304 19.2794 17.5684 19.3419 17.4937 19.3859C17.4191 19.4298 17.3344 19.4537 17.2478 19.4552C16.9382 19.5159 16.618 18.9172 16.2812 18.2876C16.13 18.0049 15.9755 17.716 15.8172 17.4777C15.7582 17.3636 15.7456 17.2312 15.7818 17.1079C15.818 16.9847 15.9003 16.8802 16.0116 16.8161C16.1229 16.752 16.2546 16.7333 16.3794 16.7638ZM12.0517 9.283C12.1758 9.3124 12.2839 9.38816 12.3539 9.49474L13.3524 11.2249C13.3943 11.3008 13.4159 11.3863 13.415 11.473C13.4141 11.5597 13.3908 11.6448 13.3473 11.7198C13.3038 11.7948 13.2415 11.8573 13.1667 11.9011C13.0919 11.945 13.0069 11.9687 12.9202 11.97C12.6116 12.0306 12.2931 11.4353 11.9563 10.8059C11.8052 10.5234 11.6504 10.234 11.4911 9.99396C11.4336 9.88015 11.4218 9.74865 11.4582 9.62643C11.4945 9.50421 11.5763 9.40053 11.6867 9.33667C11.797 9.27281 11.9277 9.25361 12.0517 9.283Z" fill="#F12A23"/>
<path d="M11.7564 14.3498L11.3564 14.3486V14.3498H11.7564ZM9.26476 14.8475V14.4475H9.25383L9.24292 14.4481L9.26476 14.8475ZM9.26476 13.8506L9.24292 14.25L9.25383 14.2506H9.26476V13.8506ZM19.8988 13.8506L19.9207 13.4512L19.9097 13.4506H19.8988V13.8506ZM17.9034 13.8506V13.4506H17.8925L17.8816 13.4512L17.9034 13.8506ZM19.8988 14.8475V15.2475H19.9097L19.9207 15.2469L19.8988 14.8475ZM17.9034 14.8475L17.8816 15.2469L17.8925 15.2475H17.9034V14.8475ZM13.1691 16.7967L13.3706 16.4512L13.3694 16.4505L13.1691 16.7967ZM13.4003 17.0988L13.0141 17.203L13.0141 17.203L13.4003 17.0988ZM13.3524 17.4762L13.6987 17.6764L13.7003 17.6736L13.3524 17.4762ZM12.3539 19.2034L12.0076 19.0032L12.0075 19.0035L12.3539 19.2034ZM11.4911 18.7057L11.1448 18.5056L11.1446 18.5058L11.4911 18.7057ZM12.4881 16.98L12.8344 17.1801L12.8351 17.1789L12.4881 16.98ZM16.0005 11.9044L16.1992 11.5573L16.1512 11.5298L16.0974 11.5163L16.0005 11.9044ZM15.9945 11.9029L15.7945 12.2493L15.8431 12.2774L15.8975 12.291L15.9945 11.9029ZM15.8112 11.2219L15.4654 11.0209L15.4644 11.0226L15.8112 11.2219ZM16.8141 9.49623L16.4727 9.28761L16.4683 9.29524L16.8141 9.49623ZM17.1169 9.27275L17.0183 8.88511L17.0183 8.88511L17.1169 9.27275ZM17.6784 9.99545L18.025 10.1955L18.0296 10.1869L17.6784 9.99545ZM16.6815 11.7226L17.0268 11.9245L17.0279 11.9226L16.6815 11.7226ZM16.6815 16.98L17.0281 16.7803L17.0235 16.7724L17.0186 16.7647L16.6815 16.98ZM17.6784 18.7101L18.0285 18.5166L18.025 18.5104L17.6784 18.7101ZM17.2478 19.4552L17.2407 19.0553L17.2054 19.0559L17.1708 19.0627L17.2478 19.4552ZM16.2812 18.2876L15.9285 18.4762V18.4762L16.2812 18.2876ZM15.8172 17.4777L15.4617 17.6612L15.4718 17.6808L15.484 17.6992L15.8172 17.4777ZM15.7818 17.1079L15.398 16.9952V16.9952L15.7818 17.1079ZM12.3539 9.49474L12.7004 9.29481L12.6946 9.28482L12.6883 9.27518L12.3539 9.49474ZM13.3524 11.2249L13.7025 11.0313L13.6988 11.0249L13.3524 11.2249ZM12.9202 11.97L12.9144 11.57L12.8784 11.5705L12.843 11.5775L12.9202 11.97ZM11.9563 10.8059L12.309 10.6172L11.9563 10.8059ZM11.4911 9.99396L11.1341 10.1744L11.1448 10.1954L11.1578 10.2151L11.4911 9.99396ZM12.1564 14.351C12.1567 14.2329 12.1338 14.1159 12.0888 14.0066L11.349 14.3111C11.3539 14.323 11.3564 14.3357 11.3564 14.3486L12.1564 14.351ZM11.8934 14.9846C12.0618 14.8162 12.1564 14.5879 12.1564 14.3498H11.3564C11.3564 14.3757 11.3461 14.4006 11.3277 14.4189L11.8934 14.9846ZM11.2586 15.2475C11.4967 15.2475 11.7251 15.153 11.8934 14.9846L11.3277 14.4189C11.3094 14.4372 11.2846 14.4475 11.2586 14.4475V15.2475ZM9.26476 15.2475H11.2586V14.4475H9.26476V15.2475ZM8.92771 15.1932C9.04245 15.2353 9.16457 15.2536 9.28661 15.2469L9.24292 14.4481C9.22945 14.4489 9.21598 14.4469 9.20332 14.4422L8.92771 15.1932ZM8.61926 15.002C8.70802 15.0861 8.81297 15.1511 8.92771 15.1932L9.20332 14.4422C9.19065 14.4376 9.17907 14.4304 9.16928 14.4211L8.61926 15.002ZM8.41151 14.7045C8.45982 14.8168 8.53051 14.918 8.61926 15.002L9.16928 14.4211C9.15949 14.4118 9.15169 14.4007 9.14636 14.3883L8.41151 14.7045ZM8.33828 14.3491C8.33828 14.4713 8.3632 14.5922 8.41151 14.7045L9.14636 14.3883C9.14103 14.3759 9.13828 14.3626 9.13828 14.3491H8.33828ZM8.41151 13.9936C8.3632 14.1059 8.33828 14.2268 8.33828 14.3491H9.13828C9.13828 14.3356 9.14103 14.3222 9.14636 14.3098L8.41151 13.9936ZM8.61926 13.6961C8.53051 13.7801 8.45982 13.8814 8.41151 13.9936L9.14636 14.3098C9.15169 14.2975 9.15949 14.2863 9.16928 14.277L8.61926 13.6961ZM8.92771 13.5049C8.81297 13.547 8.70802 13.6121 8.61926 13.6961L9.16928 14.277C9.17907 14.2677 9.19065 14.2606 9.20332 14.2559L8.92771 13.5049ZM9.28661 13.4512C9.16457 13.4445 9.04245 13.4628 8.92771 13.5049L9.20332 14.2559C9.21598 14.2513 9.22945 14.2493 9.24292 14.25L9.28661 13.4512ZM11.2586 13.4506H9.26476V14.2506H11.2586V13.4506ZM11.6028 13.5192C11.4937 13.4739 11.3768 13.4506 11.2586 13.4506V14.2506C11.2715 14.2506 11.2842 14.2531 11.2961 14.2581L11.6028 13.5192ZM11.8944 13.7145C11.811 13.6308 11.7119 13.5645 11.6028 13.5192L11.2961 14.2581C11.308 14.263 11.3188 14.2702 11.3279 14.2793L11.8944 13.7145ZM12.0888 14.0066C12.0439 13.8974 11.9778 13.7981 11.8944 13.7145L11.3279 14.2793C11.3369 14.2884 11.3441 14.2992 11.349 14.3111L12.0888 14.0066ZM19.8988 13.4506H17.9034V14.2506H19.8988V13.4506ZM20.5245 13.7308C20.3664 13.5638 20.1503 13.4638 19.9207 13.4512L19.877 14.25C19.9023 14.2514 19.9262 14.2624 19.9436 14.2809L20.5245 13.7308ZM20.7708 14.3491C20.7708 14.1191 20.6826 13.8978 20.5245 13.7308L19.9436 14.2809C19.961 14.2993 19.9708 14.3237 19.9708 14.3491H20.7708ZM20.5245 14.9673C20.6826 14.8003 20.7708 14.579 20.7708 14.3491H19.9708C19.9708 14.3744 19.961 14.3989 19.9436 14.4173L20.5245 14.9673ZM19.9207 15.2469C20.1503 15.2344 20.3664 15.1343 20.5245 14.9673L19.9436 14.4173C19.9262 14.4357 19.9023 14.4467 19.877 14.4481L19.9207 15.2469ZM17.9034 15.2475H19.8988V14.4475H17.9034V15.2475ZM17.2777 14.9673C17.4359 15.1343 17.652 15.2344 17.8816 15.2469L17.9253 14.4481C17.9 14.4467 17.8761 14.4357 17.8587 14.4173L17.2777 14.9673ZM17.0315 14.3491C17.0315 14.579 17.1196 14.8003 17.2777 14.9673L17.8587 14.4173C17.8412 14.3989 17.8315 14.3744 17.8315 14.3491H17.0315ZM17.2777 13.7308C17.1196 13.8978 17.0315 14.1191 17.0315 14.3491H17.8315C17.8315 14.3237 17.8412 14.2993 17.8587 14.2809L17.2777 13.7308ZM17.8816 13.4512C17.652 13.4638 17.4359 13.5638 17.2777 13.7308L17.8587 14.2809C17.8761 14.2624 17.9 14.2514 17.9253 14.25L17.8816 13.4512ZM13.3694 16.4505C13.2671 16.3913 13.1541 16.3529 13.0369 16.3375L12.9326 17.1307C12.9454 17.1323 12.9577 17.1365 12.9688 17.143L13.3694 16.4505ZM13.7865 16.9947C13.7247 16.7659 13.5753 16.5706 13.3706 16.4512L12.9676 17.1422C12.9905 17.1556 13.0072 17.1774 13.0141 17.203L13.7865 16.9947ZM13.7003 17.6736C13.8172 17.4674 13.8482 17.2235 13.7865 16.9947L13.0141 17.203C13.021 17.2286 13.0175 17.2559 13.0044 17.2789L13.7003 17.6736ZM12.7002 19.4036L13.6987 17.6764L13.0061 17.2761L12.0076 19.0032L12.7002 19.4036ZM12.4695 19.6668C12.563 19.595 12.6415 19.5054 12.7004 19.4033L12.0075 19.0035C12.001 19.0147 11.9925 19.0244 11.9822 19.0323L12.4695 19.6668ZM12.1553 19.8219C12.2692 19.7913 12.376 19.7386 12.4695 19.6668L11.9822 19.0323C11.972 19.0401 11.9604 19.0459 11.9479 19.0492L12.1553 19.8219ZM11.8056 19.8449C11.9226 19.8603 12.0414 19.8524 12.1553 19.8219L11.9479 19.0492C11.9355 19.0526 11.9225 19.0534 11.9098 19.0517L11.8056 19.8449ZM11.4738 19.7324C11.5759 19.7913 11.6887 19.8296 11.8056 19.8449L11.9098 19.0517C11.897 19.0501 11.8847 19.0459 11.8735 19.0394L11.4738 19.7324ZM11.2103 19.5015C11.2821 19.595 11.3716 19.6735 11.4738 19.7324L11.8735 19.0394C11.8624 19.033 11.8526 19.0244 11.8448 19.0142L11.2103 19.5015ZM11.0552 19.1873C11.0857 19.3012 11.1384 19.4079 11.2103 19.5015L11.8448 19.0142C11.8369 19.004 11.8312 18.9924 11.8278 18.9799L11.0552 19.1873ZM11.0321 18.8376C11.0168 18.9546 11.0246 19.0734 11.0552 19.1873L11.8278 18.9799C11.8245 18.9675 11.8236 18.9545 11.8253 18.9418L11.0321 18.8376ZM11.1446 18.5058C11.0857 18.6079 11.0475 18.7207 11.0321 18.8376L11.8253 18.9418C11.827 18.929 11.8312 18.9167 11.8376 18.9055L11.1446 18.5058ZM12.1417 16.7799L11.1448 18.5056L11.8375 18.9058L12.8344 17.1801L12.1417 16.7799ZM12.3719 16.5165C12.2783 16.5886 12.1998 16.6785 12.141 16.7811L12.8351 17.1789C12.8415 17.1678 12.85 17.158 12.8602 17.1501L12.3719 16.5165ZM12.6865 16.3607C12.5724 16.3914 12.4655 16.4443 12.3719 16.5165L12.8602 17.1501C12.8704 17.1423 12.882 17.1365 12.8945 17.1332L12.6865 16.3607ZM13.0369 16.3375C12.9197 16.3221 12.8007 16.33 12.6865 16.3607L12.8945 17.1332C12.9069 17.1298 12.9198 17.129 12.9326 17.1307L13.0369 16.3375ZM15.8017 12.2515C16.0078 12.3695 16.2521 12.4013 16.4815 12.3401L16.2752 11.5672C16.2496 11.574 16.2222 11.5704 16.1992 11.5573L15.8017 12.2515ZM15.8975 12.291L15.9035 12.2925L16.0974 11.5163L16.0915 11.5148L15.8975 12.291ZM15.3758 11.7043C15.4377 11.9342 15.5883 12.1303 15.7945 12.2493L16.1945 11.5565C16.1717 11.5433 16.1551 11.5217 16.1483 11.4963L15.3758 11.7043ZM15.4644 11.0226C15.3457 11.2291 15.3139 11.4743 15.3758 11.7043L16.1483 11.4963C16.1414 11.471 16.145 11.4439 16.158 11.4211L15.4644 11.0226ZM16.4683 9.29524L15.4654 11.0209L16.157 11.4229L17.1599 9.69723L16.4683 9.29524ZM17.0183 8.88511C16.7909 8.94299 16.5951 9.08745 16.4728 9.28766L17.1554 9.70481C17.1689 9.68272 17.1905 9.66678 17.2156 9.66039L17.0183 8.88511ZM17.6898 8.97788C17.4867 8.86053 17.2457 8.82723 17.0183 8.88511L17.2156 9.66039C17.2407 9.65401 17.2673 9.65768 17.2897 9.67063L17.6898 8.97788ZM18.1058 9.51323C18.0423 9.28735 17.893 9.09523 17.6898 8.97788L17.2897 9.67063C17.3121 9.68358 17.3286 9.70478 17.3356 9.72969L18.1058 9.51323ZM18.0296 10.1869C18.1419 9.98086 18.1692 9.73911 18.1058 9.51323L17.3356 9.72969C17.3426 9.75462 17.3396 9.78129 17.3272 9.80402L18.0296 10.1869ZM17.0279 11.9226L18.0248 10.1954L17.332 9.79548L16.335 11.5226L17.0279 11.9226ZM16.4815 12.3401C16.711 12.2788 16.9069 12.1295 17.0268 11.9245L16.3362 11.5207C16.3228 11.5436 16.3009 11.5603 16.2752 11.5672L16.4815 12.3401ZM17.0186 16.7647C16.8941 16.5697 16.6992 16.4302 16.4745 16.3753L16.2843 17.1523C16.3091 17.1584 16.3306 17.1738 16.3444 17.1953L17.0186 16.7647ZM18.025 18.5104L17.0281 16.7803L16.3349 17.1797L17.3318 18.9098L18.025 18.5104ZM18.1411 18.9617C18.1426 18.8061 18.1038 18.6528 18.0285 18.5166L17.3284 18.9037C17.3369 18.9191 17.3413 18.9365 17.3411 18.9541L18.1411 18.9617ZM18.02 19.4046C18.0979 19.2699 18.1396 19.1173 18.1411 18.9617L17.3411 18.9541C17.3409 18.9717 17.3362 18.989 17.3274 19.0042L18.02 19.4046ZM17.6967 19.7305C17.8308 19.6516 17.9422 19.5393 18.02 19.4046L17.3274 19.0042C17.3186 19.0195 17.306 19.0322 17.2908 19.0412L17.6967 19.7305ZM17.2548 19.8552C17.4104 19.8524 17.5626 19.8095 17.6967 19.7305L17.2908 19.0412C17.2756 19.0501 17.2583 19.055 17.2407 19.0553L17.2548 19.8552ZM15.9285 18.4762C16.0923 18.7824 16.2706 19.1176 16.4514 19.3658C16.5417 19.4897 16.65 19.617 16.7779 19.7102C16.9083 19.8052 17.0988 19.892 17.3247 19.8478L17.1708 19.0627C17.2419 19.0488 17.2763 19.0835 17.2491 19.0636C17.2193 19.042 17.1685 18.9916 17.098 18.8947C16.9571 18.7013 16.8069 18.4223 16.634 18.0989L15.9285 18.4762ZM15.484 17.6992C15.6298 17.9184 15.775 18.1891 15.9285 18.4762L16.634 18.0989C16.4851 17.8207 16.3213 17.5136 16.1503 17.2563L15.484 17.6992ZM15.398 16.9952C15.3328 17.2171 15.3556 17.4557 15.4617 17.6612L16.1726 17.2942C16.1609 17.2715 16.1584 17.2452 16.1656 17.2207L15.398 16.9952ZM15.812 16.4695C15.6115 16.5849 15.4633 16.7732 15.398 16.9952L16.1656 17.2207C16.1728 17.1962 16.1891 17.1755 16.2112 17.1627L15.812 16.4695ZM16.4745 16.3753C16.2498 16.3203 16.0125 16.354 15.812 16.4695L16.2112 17.1627C16.2334 17.15 16.2595 17.1463 16.2843 17.1523L16.4745 16.3753ZM12.6883 9.27518C12.5622 9.08318 12.3674 8.94672 12.1439 8.89377L11.9595 9.67223C11.9842 9.67807 12.0057 9.69313 12.0196 9.71431L12.6883 9.27518ZM13.6988 11.0249L12.7004 9.29481L12.0075 9.69468L13.0059 11.4248L13.6988 11.0249ZM13.815 11.4771C13.8166 11.3213 13.7778 11.1677 13.7024 11.0313L13.0023 11.4184C13.0108 11.4338 13.0152 11.4512 13.0151 11.4689L13.815 11.4771ZM13.6933 11.9205C13.7715 11.7857 13.8134 11.6329 13.815 11.4771L13.0151 11.4689C13.0149 11.4865 13.0101 11.5038 13.0013 11.5191L13.6933 11.9205ZM13.3689 12.2463C13.5034 12.1675 13.6151 12.0553 13.6933 11.9205L13.0013 11.5191C12.9924 11.5344 12.9797 11.5471 12.9645 11.556L13.3689 12.2463ZM12.9261 12.3699C13.0819 12.3676 13.2344 12.325 13.3689 12.2463L12.9645 11.556C12.9493 11.5649 12.932 11.5697 12.9144 11.57L12.9261 12.3699ZM11.6037 10.9946C11.7674 11.3007 11.9454 11.635 12.1256 11.8823C12.2157 12.0059 12.3238 12.1328 12.4515 12.2257C12.5818 12.3205 12.772 12.4068 12.9974 12.3624L12.843 11.5775C12.9141 11.5635 12.9488 11.5981 12.9221 11.5787C12.8928 11.5574 12.8424 11.5075 12.7721 11.4111C12.6318 11.2186 12.482 10.9405 12.309 10.6172L11.6037 10.9946ZM11.1578 10.2151C11.3046 10.4363 11.4502 10.7078 11.6037 10.9946L12.309 10.6172C12.1602 10.339 11.9962 10.0317 11.8244 9.77282L11.1578 10.2151ZM11.0748 9.51237C11.0093 9.73253 11.0305 9.9694 11.1341 10.1744L11.8481 9.81353C11.8367 9.79091 11.8343 9.76478 11.8416 9.74049L11.0748 9.51237ZM11.4863 8.99045C11.2875 9.10547 11.1403 9.29222 11.0748 9.51237L11.8416 9.74049C11.8488 9.71619 11.865 9.69559 11.887 9.6829L11.4863 8.99045ZM12.1439 8.89377C11.9204 8.84083 11.6851 8.87542 11.4863 8.99045L11.887 9.6829C11.9089 9.6702 11.9349 9.66639 11.9595 9.67223L12.1439 8.89377Z" fill="#F12A23" mask="url(#path-2-outside-2_3433_590)"/>
</svg>
