<svg width="91" height="24" viewBox="0 0 91 24" fill="none" xmlns="http://www.w3.org/2000/svg">
<path d="M50.9053 5.31465L48.4654 0.0146484H40.1104L45.2453 10.6146L50.9053 5.31465Z" fill="#A1A1A1"/>
<path d="M70.73 0H55.8L35.375 24H43.5L48.85 17.62L51.79 24H65.815L67.695 13.32L69.4 19.2L74.5 13.08L70.73 0ZM59.285 22.075L54.31 11.5L62.905 1.545L59.285 22.075Z" fill="#A1A1A1"/>
<path d="M83.48 0.0146484L69.835 20.7196H76.68L81.875 12.6196L79.87 23.9846H86.77L91 0.0146484H83.48Z" fill="#A1A1A1"/>
<path d="M10.765 0.894902C10.6071 2.00747 10.5552 3.13252 10.61 4.2549C10.77 5.8399 11.755 6.6499 13.05 7.1549C13.5042 7.38318 14.0147 7.47521 14.52 7.4199C14.7207 7.35097 14.9071 7.24591 15.07 7.1099C15.5595 6.788 16.1147 6.57958 16.695 6.4999C17.5798 6.44047 18.4677 6.55252 19.31 6.8299C20.0699 7.01092 20.8052 7.28288 21.5 7.6399C21.8037 7.83017 22.0534 8.09532 22.225 8.4099C22.525 8.9099 22.645 9.7699 23.325 9.9099C23.4125 9.1733 23.4343 8.43036 23.39 7.6899C23.4328 7.00362 23.5281 6.32162 23.675 5.6499C23.8703 4.71503 24.1122 3.79054 24.4 2.8799C24.445 2.7399 24.57 2.0349 24.84 2.1349C24.96 2.1749 24.935 2.4649 24.93 2.6349C24.93 3.2249 24.865 3.6349 24.82 4.2399C24.6681 5.65852 24.7051 7.09102 24.93 8.4999C25.114 9.17214 25.1949 9.86839 25.17 10.5649C25.17 10.7549 25.055 10.9849 25.02 11.1999C24.985 11.4149 25.02 11.5249 24.975 11.6599C24.872 11.9098 24.7394 12.1465 24.58 12.3649C24.5075 12.4781 24.4408 12.5949 24.38 12.7149C24.305 12.8549 24.175 12.9199 24.185 13.0649C24.185 13.2899 24.635 13.7249 24.865 13.7899C25.865 14.0699 26.935 14.2149 27.52 14.7899C27.9115 15.1594 28.155 15.6589 28.205 16.1949C28.2192 16.692 28.1056 17.1843 27.875 17.6249C27.735 17.9399 27.6 18.7249 27.375 18.8749C27.15 19.0249 26.92 18.9199 26.715 19.0299C26.6181 19.3045 26.5462 19.5874 26.5 19.8749C26.335 20.1099 26.085 20.2599 25.905 20.4849C25.965 20.9849 25.635 21.1399 25.205 21.1699C23.92 22.2149 21.37 21.5249 20.285 20.8149C19.745 21.1999 19.145 21.5249 19.21 22.5099C19.6423 22.8064 20.1049 23.0562 20.59 23.2549C21.325 23.4999 22.225 23.3699 22.7 23.8049C22.7392 23.8407 22.776 23.8792 22.81 23.9199H26.5L36.92 11.7899L31.215 0.0249023H10.835C10.81 0.324902 10.79 0.609902 10.765 0.894902Z" fill="#A1A1A1"/>
<path d="M1.19 23.8049C1.92688 23.1169 2.79153 22.5801 3.735 22.2249C4.45826 21.9605 5.14534 21.606 5.78 21.1699C5.98144 20.9501 6.23901 20.7893 6.525 20.7049C7.06323 20.6987 7.59826 20.7884 8.105 20.9699C8.60138 21.0618 9.11325 21.0204 9.58844 20.85C10.0636 20.6796 10.4851 20.3863 10.81 19.9999C11.1595 19.7058 11.4497 19.3478 11.665 18.9449C11.8175 18.3204 11.8615 17.6743 11.795 17.0349C11.795 15.6649 12.295 14.6999 12.325 13.4349C12.2642 12.7918 12.2425 12.1456 12.26 11.4999C11.512 11.1947 10.8258 10.7559 10.235 10.2049C9.705 9.6149 9.09 8.5149 9.27 7.5499C8.78048 6.81434 8.51316 5.95336 8.5 5.0699C8.54677 4.1539 8.73221 3.25029 9.05 2.3899C9.28 1.6099 9.505 0.819902 9.745 0.0249023H5.165L0 23.9199H1.09C1.12 23.8849 1.155 23.8399 1.19 23.8049Z" fill="#A1A1A1"/>
</svg>
