<svg width="195" height="38" viewBox="0 0 195 38" fill="none" xmlns="http://www.w3.org/2000/svg">
<path d="M16.2175 0L0 9.26318V27.7895L16.2175 37.0527L32.435 27.7895V9.26318L16.2175 0ZM16.2175 0L0 9.26318V27.7895L16.2175 37.0527L32.435 27.7895V9.26318L16.2175 0Z" fill="white"/>
<path d="M22.62 29.8159H20.3125L17.55 27.3071V26.0205L20.41 23.3188V19.041L24.1475 16.6287L28.405 19.8129L22.62 29.8159ZM13.065 23.0615L13.4875 19.041L12.09 15.4386H20.345L18.98 19.041L19.37 23.0615H16.185H13.065ZM14.95 27.3071L12.1875 29.848H9.8475L4.03 19.8129L8.32 16.6609L12.09 19.041V23.3188L14.95 26.0205V27.3071ZM9.815 8.00879H22.5875L24.115 14.4416H8.32L9.815 8.00879ZM16.2175 0L0 9.26318V27.7895L16.2175 37.0527L32.435 27.7895V9.26318L16.2175 0Z" fill="#A1A1A1"/>
<path d="M50.6349 27.114C46.3449 27.114 43.1924 23.8011 43.1924 19.7163C43.1924 15.6315 46.3774 12.2222 50.6674 12.2222C53.3974 12.2222 55.0874 13.2192 56.4199 14.6666L54.3724 16.8538C53.3649 15.7924 52.2924 15.0848 50.6349 15.0848C48.2299 15.0848 46.4749 17.1432 46.4749 19.652C46.4749 22.2251 48.2624 24.2836 50.7974 24.2836C52.3574 24.2836 53.4949 23.5438 54.5349 22.5146L56.5174 24.4766C55.0874 25.9883 53.4299 27.114 50.6349 27.114Z" fill="#A1A1A1"/>
<path d="M62.7901 27.114H59.4751V12.2544H62.7901V15.7281C63.7001 13.6053 65.3576 12.1257 67.8926 12.2544V15.7281H67.6976C64.8051 15.7281 62.7901 17.5936 62.7901 21.3889V27.114Z" fill="#A1A1A1"/>
<path d="M85.215 12.1899L77.9025 31.1023H74.555L76.1475 27.1139L69.875 12.1899H73.4175L77.675 23.2221L81.77 12.1899H85.215Z" fill="#A1A1A1"/>
<path d="M94.965 15.0525C92.7225 15.0525 90.7725 16.8537 90.7725 19.6519C90.7725 22.4502 92.755 24.2514 94.965 24.2514C97.24 24.2514 99.0925 22.4824 99.0925 19.6519C99.0925 16.8215 97.2075 15.0525 94.965 15.0525ZM95.7125 27.0818C93.34 27.0818 91.845 25.8917 90.8375 24.573V31.1023H87.5225V12.1899H90.8375V14.8595C91.91 13.38 93.405 12.1899 95.7125 12.1899C99.125 12.1899 102.44 14.8595 102.44 19.6198C102.44 24.38 99.1575 27.0818 95.7125 27.0818Z" fill="#A1A1A1"/>
<path d="M109.688 15.3101V22.3218C109.688 23.5762 110.338 24.0908 111.475 24.0908H112.775V27.0177H110.5C108.095 27.0177 106.373 25.9563 106.373 22.8365V15.3101H104.553V12.5119H106.373V8.58789H109.688V12.5119H112.775V15.3101H109.688Z" fill="#A1A1A1"/>
<path d="M123.207 15.0526C120.542 15.0526 118.852 17.1111 118.852 19.6198C118.852 22.1608 120.672 24.2514 123.24 24.2514C125.905 24.2514 127.595 22.193 127.595 19.6842C127.66 17.1432 125.807 15.0526 123.207 15.0526ZM123.207 27.114C118.82 27.114 115.57 23.8011 115.57 19.7163C115.57 15.5994 118.852 12.2222 123.272 12.2222C127.692 12.2222 130.942 15.535 130.942 19.652C130.942 23.7046 127.692 27.114 123.207 27.114Z" fill="#A1A1A1"/>
<path d="M162.565 15.0526C159.9 15.0526 158.21 17.1111 158.21 19.6198C158.21 22.1608 160.03 24.2514 162.598 24.2514C165.263 24.2514 166.953 22.193 166.953 19.6842C166.985 17.1432 165.165 15.0526 162.565 15.0526ZM162.565 27.114C158.178 27.114 154.928 23.8011 154.928 19.7163C154.928 15.5994 158.21 12.2222 162.63 12.2222C167.05 12.2222 170.3 15.535 170.3 19.652C170.3 23.7046 167.018 27.114 162.565 27.114Z" fill="#A1A1A1"/>
<path d="M189.93 12.1899C193.082 12.1899 195 14.1519 195 17.6578V27.0818H191.685V18.6549C191.685 16.3712 190.612 15.1812 188.76 15.1812C186.972 15.1812 185.672 16.4356 185.672 18.7192V27.1139H182.357V18.6549C182.357 16.4356 181.252 15.1812 179.432 15.1812C177.612 15.1812 176.345 16.5321 176.345 18.7514V27.1139H173.03V12.2221H176.345V14.6665C177.287 13.4122 178.522 12.2221 180.732 12.2221C182.812 12.2221 184.242 13.2192 185.022 14.7309C186.225 13.187 187.752 12.1899 189.93 12.1899Z" fill="#A1A1A1"/>
<path d="M133.835 23.9301L135.265 23.126H135.46L136.922 23.9301L137.02 24.0909V25.7634L136.922 25.9242L135.46 26.7283H135.265L133.835 25.9242L133.737 25.7634V24.0909L133.835 23.9301Z" fill="#A1A1A1"/>
<path d="M147.063 27.0819C142.773 26.9854 139.685 23.6082 139.75 19.5234C139.815 15.4386 143.065 12.0935 147.388 12.19C150.118 12.2544 151.808 13.2836 153.108 14.7631L151.028 16.9181C150.053 15.8567 148.98 15.0848 147.323 15.0526C144.918 15.0204 143.13 17.0146 143.098 19.5555C143.033 22.1286 144.788 24.2193 147.323 24.2515C148.883 24.2836 150.053 23.576 151.093 22.5468L153.043 24.5409C151.58 26.0526 149.89 27.1462 147.063 27.0819Z" fill="#A1A1A1"/>
</svg>
