<svg width="144" height="23" viewBox="0 0 144 23" fill="none" xmlns="http://www.w3.org/2000/svg">
<path d="M5.55447 0.179199L0 22.4508H5.5664L9.03869 8.52582H14.6111L16.6932 0.179199H11.1209H5.55447Z" fill="#A1A1A1"/>
<path d="M27.8259 0.179199H22.2595L20.1774 8.52582L18.7873 14.0982H13.2209L11.1387 22.4508H16.7051H22.2715L25.7438 8.52582L27.8259 0.179199Z" fill="#A1A1A1"/>
<path d="M57.8718 1.52758C57.8761 1.73416 57.8357 1.93924 57.7534 2.12874C57.671 2.31823 57.5485 2.48765 57.3945 2.62535C57.1144 2.90081 56.7373 3.05518 56.3444 3.05518C55.9516 3.05518 55.5745 2.90081 55.2944 2.62535C55.0083 2.3509 54.8417 1.9749 54.8305 1.5786C54.8193 1.1823 54.9645 0.797508 55.2347 0.507375L55.3063 0.429828C55.5864 0.154369 55.9635 0 56.3563 0C56.7492 0 57.1263 0.154369 57.4064 0.429828C57.5605 0.566834 57.6822 0.736418 57.7627 0.926289C57.8432 1.11616 57.8805 1.32156 57.8717 1.5276L57.8718 1.52758ZM33.4106 0.173265H42.6224C45.1699 0.173265 47.1685 0.907101 48.4572 2.14806C48.924 2.61807 49.2913 3.17725 49.5373 3.79225C49.7833 4.40726 49.9029 5.0655 49.8891 5.72774V5.79339C49.8891 8.69293 48.0993 10.1904 46.3571 10.9481C49.0001 11.7476 51.1301 13.2749 51.1301 16.3176V16.3833C51.1301 20.2016 47.9203 22.4628 43.0459 22.4628H33.4106V0.173265ZM42.1928 10.1069C45.2117 10.1069 47.3177 8.73466 47.3177 6.10956V6.04986C47.3177 3.84836 45.5637 2.41648 42.3598 2.41648H35.8985V10.1009L42.1928 10.1069ZM43.0817 20.1956C46.4586 20.1956 48.5587 18.7041 48.5587 16.2043V16.1446C48.5587 13.7223 46.5182 12.3203 42.6343 12.3203H35.8985V20.1956L43.0817 20.1956ZM55.1154 5.99621H57.5735V22.4568H55.1154V5.99621ZM64.0646 17.2364V8.16191H60.3418V6.01411H64.0646V0.173265H66.5227V6.01411H73.2823V8.16191H66.5465V16.9202C66.5465 19.1336 67.5906 20.5416 69.5833 20.4999C70.7817 20.5234 71.9738 20.321 73.0973 19.9033V22.0451C71.8034 22.5768 70.4076 22.8152 69.0105 22.7431C66.0394 22.6775 64.0885 20.5834 64.0885 17.2125L64.0646 17.2364ZM76.8441 0.173265H82.1301L87.9888 9.59378L93.8416 0.173265H99.1276V22.4568H94.2652V7.91134L87.9948 17.4571H87.8635L81.6587 8.03663V22.4747H76.8441V0.173265ZM103.489 0.173265H120.301V4.53451H108.369V9.05683H118.303V13.4181H108.363V18.0955H120.456V22.4568H103.489V0.173265ZM129.626 11.1211L122.175 0.173265H127.908L132.586 7.39825L137.299 0.173265H142.871L135.431 11.0615L143.187 22.4568H137.46L132.448 14.8261L127.419 22.4687H121.847L129.626 11.1211Z" fill="#A1A1A1"/>
</svg>
