<svg width="25" height="41" viewBox="0 0 25 41" fill="none" xmlns="http://www.w3.org/2000/svg">
<path d="M12.3498 19.4613C9.11792 19.4613 6.48242 16.5469 6.48242 12.9592C6.48599 12.5201 6.52945 12.0822 6.61227 11.651C6.65225 11.5487 6.72608 11.4631 6.82146 11.4086C6.91683 11.354 7.02802 11.3338 7.13651 11.3512C7.245 11.3686 7.34425 11.4227 7.41774 11.5043C7.49124 11.586 7.53455 11.6904 7.54047 11.8001C7.46719 12.1757 7.42856 12.5573 7.42505 12.9399C7.43466 16.0323 9.64694 18.5332 12.3498 18.5332C15.0526 18.5332 17.3082 16.0323 17.3082 12.9592C17.3091 12.5865 17.2753 12.2146 17.2072 11.8482C17.1755 11.7818 17.1594 11.709 17.1603 11.6353C17.1612 11.5617 17.179 11.4893 17.2122 11.4236C17.2455 11.358 17.2934 11.3008 17.3523 11.2566C17.4111 11.2124 17.4794 11.1823 17.5517 11.1686C17.624 11.1549 17.6985 11.1579 17.7695 11.1776C17.8404 11.1972 17.9059 11.2329 17.9609 11.2818C18.0159 11.3307 18.0589 11.3916 18.0867 11.4598C18.1144 11.528 18.1261 11.6017 18.1209 11.6751C18.2002 12.0985 18.2404 12.5284 18.2412 12.9592C18.2412 16.5469 15.6057 19.4613 12.3498 19.4613Z" fill="#222222"/>
<path fill-rule="evenodd" clip-rule="evenodd" d="M6.18262 12.9569L6.18263 12.9569C6.18634 12.4997 6.2316 12.0437 6.31785 11.5946L6.32304 11.5677L6.33303 11.5421C6.39795 11.3759 6.51783 11.2369 6.6727 11.1483C6.82758 11.0598 7.00812 11.0269 7.18428 11.0552C7.36044 11.0835 7.5216 11.1712 7.64095 11.3039C7.76029 11.4365 7.83062 11.606 7.84023 11.7842L7.84223 11.8213L7.83511 11.8578C7.76547 12.2147 7.72869 12.5773 7.72525 12.941C7.73534 15.9047 9.8481 18.2333 12.35 18.2333C14.8562 18.2333 17.0084 15.8995 17.0084 12.9594V12.9586C17.0092 12.616 16.9791 12.274 16.9186 11.9368C16.8791 11.8402 16.8593 11.7366 16.8605 11.632C16.862 11.5124 16.8908 11.3948 16.9449 11.2882C16.9989 11.1816 17.0767 11.0888 17.1723 11.017C17.2678 10.9452 17.3786 10.8963 17.496 10.874C17.6135 10.8517 17.7345 10.8568 17.8497 10.8886C17.9649 10.9205 18.0712 10.9784 18.1605 11.0579C18.2498 11.1373 18.3197 11.2362 18.3647 11.3469C18.4044 11.4444 18.4239 11.5488 18.4222 11.6538C18.5007 12.0844 18.5406 12.5211 18.5414 12.9588L18.5414 12.9594C18.5414 16.6841 15.7989 19.7615 12.35 19.7615C8.92436 19.7615 6.18262 16.6832 6.18262 12.9594V12.9569ZM18.1211 11.6753C18.1263 11.6018 18.1146 11.5282 18.0869 11.46C18.0591 11.3918 18.0161 11.3309 17.9611 11.282C17.9061 11.2331 17.8406 11.1974 17.7697 11.1778C17.6987 11.1581 17.6242 11.1551 17.5519 11.1688C17.4795 11.1825 17.4113 11.2126 17.3525 11.2568C17.2936 11.301 17.2457 11.3582 17.2124 11.4238C17.1792 11.4895 17.1614 11.5619 17.1605 11.6355C17.1596 11.7091 17.1757 11.782 17.2074 11.8484C17.2754 12.2148 17.3093 12.5867 17.3084 12.9594C17.3084 16.0325 15.0528 18.5333 12.35 18.5333C9.64714 18.5333 7.43486 16.0325 7.42524 12.9401C7.42875 12.5575 7.46739 12.1759 7.54066 11.8003C7.53475 11.6906 7.49143 11.5862 7.41794 11.5045C7.34444 11.4229 7.24519 11.3688 7.1367 11.3514C7.02821 11.334 6.91703 11.3542 6.82165 11.4088C6.72627 11.4633 6.65245 11.5489 6.61247 11.6512C6.52965 12.0824 6.48619 12.5203 6.48262 12.9594C6.48262 16.5471 9.11812 19.4615 12.35 19.4615C15.6059 19.4615 18.2414 16.5471 18.2414 12.9594C18.2406 12.5286 18.2004 12.0987 18.1211 11.6753Z" fill="#222222"/>
<path d="M17.6633 12.2284H17.6392C17.5202 12.2164 17.4099 12.1605 17.3298 12.0716C17.2498 11.9827 17.2058 11.8671 17.2064 11.7475C17.2593 11.0213 17.2064 8.98212 16.3599 8.30882C16.1743 8.17999 15.9586 8.10123 15.7337 8.08017C15.5087 8.0591 15.2822 8.09645 15.0759 8.18859C14.4939 8.33767 9.96838 9.46786 7.50601 8.506L7.53968 11.7282C7.55745 11.7992 7.55882 11.8732 7.54369 11.9447C7.52855 12.0162 7.49731 12.0834 7.45234 12.141C7.40736 12.1986 7.34984 12.2453 7.28413 12.2773C7.21843 12.3094 7.14629 12.3261 7.07318 12.3261C7.00007 12.3261 6.92792 12.3094 6.86222 12.2773C6.79652 12.2453 6.73899 12.1986 6.69402 12.141C6.64904 12.0834 6.6178 12.0162 6.60266 11.9447C6.58753 11.8732 6.5889 11.7992 6.60667 11.7282L6.53453 7.68361C6.53523 7.59611 6.55978 7.51047 6.60554 7.43589C6.6513 7.36131 6.71655 7.30064 6.79424 7.26039C6.87151 7.22525 6.95671 7.21118 7.04118 7.21963C7.12565 7.22808 7.20638 7.25873 7.27517 7.30848C8.76605 8.48195 13.1954 7.66918 14.7777 7.25558C15.1264 7.11848 15.5044 7.07302 15.8757 7.12354C16.247 7.17405 16.5992 7.31886 16.8986 7.54414C18.2885 8.64547 18.125 11.4637 18.1009 11.7811C18.0933 11.8956 18.045 12.0037 17.9648 12.0857C17.8845 12.1677 17.7776 12.2183 17.6633 12.2284ZM23.218 31.9995H1.47995C1.3524 31.9995 1.23008 31.9488 1.13989 31.8586C1.04969 31.7684 0.999024 31.6461 0.999024 31.5185V26.0792C0.998534 25.1562 1.25057 24.2506 1.72783 23.4605C2.2051 22.6704 2.88941 22.026 3.70666 21.5969C4.15874 21.3565 8.61215 19.9762 9.47783 19.7021C9.5862 19.694 9.69411 19.7228 9.78399 19.7839C9.87386 19.845 9.94039 19.9347 9.97274 20.0385C10.0051 20.1422 10.0014 20.2539 9.96213 20.3552C9.92291 20.4566 9.85053 20.5417 9.75677 20.5966C7.74648 21.2122 4.46653 22.2558 4.12026 22.4241C3.45362 22.7737 2.89545 23.2992 2.5063 23.9435C2.11715 24.5879 1.91189 25.3265 1.91279 26.0792V31.0665H22.7515V26.0792C22.7506 25.3245 22.5424 24.5845 22.1498 23.94C21.7571 23.2955 21.195 22.7711 20.5248 22.4241C20.2026 22.2606 16.8986 21.2122 14.8883 20.5966C14.7945 20.5417 14.7222 20.4566 14.6829 20.3552C14.6437 20.2539 14.64 20.1422 14.6723 20.0385C14.7047 19.9347 14.7712 19.845 14.8611 19.7839C14.951 19.7228 15.0589 19.694 15.1672 19.7021C16.0714 19.9762 20.5248 21.3565 21.0057 21.5969C21.8217 22.027 22.5048 22.6719 22.9811 23.4618C23.4575 24.2517 23.709 25.1568 23.7086 26.0792V31.5185C23.7086 31.5825 23.6958 31.6458 23.6711 31.7048C23.6463 31.7638 23.61 31.8173 23.5643 31.862C23.5186 31.9068 23.4645 31.9421 23.405 31.9656C23.3455 31.9892 23.282 32.0007 23.218 31.9995Z" fill="#222222"/>
<path fill-rule="evenodd" clip-rule="evenodd" d="M17.6767 12.5286H17.6244L17.6094 12.5271C17.4161 12.5077 17.237 12.4169 17.107 12.2725C16.9771 12.1281 16.9056 11.9404 16.9066 11.7462L16.9066 11.736L16.9074 11.7259C16.9324 11.3822 16.9326 10.7149 16.8246 10.0571C16.7707 9.72874 16.6913 9.41214 16.5798 9.14308C16.4691 8.87601 16.3348 8.67523 16.1809 8.54985C16.0396 8.45378 15.8762 8.395 15.7059 8.37906C15.5324 8.36281 15.3576 8.39162 15.1984 8.4627L15.1752 8.47308L15.1505 8.47939C14.8546 8.55521 13.563 8.87872 12.0319 9.06197C10.6698 9.22499 9.06884 9.28381 7.81059 8.92434L7.83953 11.6942C7.8599 11.7974 7.85922 11.9038 7.83739 12.007C7.81281 12.1232 7.76208 12.2322 7.68905 12.3258C7.61602 12.4194 7.52261 12.4951 7.41592 12.5471C7.30924 12.5992 7.19209 12.6263 7.07337 12.6263C6.95466 12.6263 6.83751 12.5992 6.73082 12.5471C6.62413 12.4951 6.53073 12.4194 6.4577 12.3258C6.38467 12.2322 6.33393 12.1232 6.30936 12.007C6.28785 11.9054 6.28687 11.8006 6.30629 11.6989L6.23464 7.68142C6.23577 7.53935 6.27573 7.40028 6.35004 7.27918C6.42435 7.15808 6.53029 7.05956 6.65644 6.9942L6.66326 6.99067L6.67024 6.9875C6.79572 6.93043 6.93407 6.9076 7.07123 6.92132C7.20839 6.93503 7.33948 6.98481 7.45117 7.06559L7.46106 7.07275C7.77022 7.31608 8.26183 7.47614 8.89182 7.55601C9.51452 7.63496 10.2358 7.63148 10.9706 7.57816C12.4298 7.4723 13.9036 7.173 14.6854 6.96986C15.077 6.81925 15.5004 6.76988 15.9164 6.82647C16.3384 6.8839 16.7388 7.04851 17.0791 7.30461L17.0852 7.30913C17.8748 7.93482 18.1948 9.01573 18.327 9.9131C18.4611 10.8239 18.4133 11.6308 18.4003 11.8027C18.3877 11.9881 18.3094 12.1629 18.1794 12.2957C18.0491 12.4289 17.8754 12.5111 17.6898 12.5274L17.6767 12.5286ZM18.1011 11.7813C18.1252 11.4639 18.2887 8.64566 16.8988 7.54433C16.5994 7.31905 16.2472 7.17425 15.8759 7.12373C15.5046 7.07322 15.1266 7.11868 14.7779 7.25578C13.1956 7.66938 8.76625 8.48215 7.27536 7.30868C7.20658 7.25893 7.12585 7.22827 7.04138 7.21983C6.95691 7.21138 6.87171 7.22544 6.79443 7.26058C6.71674 7.30083 6.6515 7.36151 6.60574 7.43609C6.55997 7.51066 6.53542 7.59631 6.53473 7.6838L6.60687 11.7284C6.5891 11.7993 6.58772 11.8734 6.60286 11.9449C6.61799 12.0164 6.64924 12.0836 6.69421 12.1412C6.73919 12.1988 6.79671 12.2455 6.86241 12.2775C6.92811 12.3096 7.00026 12.3263 7.07337 12.3263C7.14648 12.3263 7.21863 12.3096 7.28433 12.2775C7.35003 12.2455 7.40755 12.1988 7.45253 12.1412C7.49751 12.0836 7.52875 12.0164 7.54388 11.9449C7.55902 11.8734 7.55765 11.7993 7.53987 11.7284L7.50621 8.50619C7.60348 8.54419 7.70397 8.57892 7.80732 8.61058C10.32 9.38029 14.5171 8.33198 15.0761 8.18878C15.2823 8.09664 15.5089 8.0593 15.7339 8.08036C15.9588 8.10143 16.1745 8.18018 16.3601 8.30901C17.2066 8.98232 17.2595 11.0215 17.2066 11.7477C17.206 11.8673 17.25 11.9829 17.33 12.0718C17.4101 12.1607 17.5204 12.2166 17.6394 12.2286H17.6635C17.7778 12.2185 17.8847 12.1679 17.965 12.0859C18.0452 12.0039 18.0935 11.8958 18.1011 11.7813ZM24 26.5L9.4557 19.4031C9.63167 19.39 9.8069 19.4368 9.95284 19.536C10.0988 19.6352 10.2068 19.7809 10.2593 19.9494C10.3119 20.1178 10.3058 20.2991 10.2421 20.4637C10.1784 20.6283 10.0609 20.7664 9.90864 20.8556L9.87836 20.8734L9.8448 20.8836C8.84101 21.191 7.51982 21.6054 6.40666 21.9638C5.84998 22.1431 5.34628 22.3081 4.96069 22.4385C4.57045 22.5705 4.3252 22.6594 4.25513 22.6925C3.63907 23.0166 3.12321 23.5029 2.7633 24.0988C2.40247 24.6962 2.21215 25.3811 2.21299 26.079L2.21299 30.7666H22.4517V26.0798C22.4508 25.38 22.2578 24.6939 21.8938 24.0963C21.53 23.4991 21.0093 23.0132 20.3884 22.6914C20.3306 22.6624 20.0909 22.5746 19.6948 22.4405C19.3105 22.3103 18.8061 22.1452 18.2479 21.9657C17.1318 21.6066 15.8045 21.1911 14.8007 20.8836L14.7671 20.8734L14.7368 20.8556C14.5846 20.7664 14.467 20.6283 14.4033 20.4637C14.3397 20.2991 14.3336 20.1178 14.3861 19.9494C14.4387 19.7809 14.5467 19.6352 14.6926 19.536C14.8386 19.4368 15.0138 19.39 15.1898 19.4031L15.2228 19.4056L15.2545 19.4152C15.708 19.5527 17.0487 19.9667 18.3364 20.3764C18.9801 20.5813 19.6119 20.7855 20.1133 20.9537C20.6021 21.1177 20.9962 21.2568 21.1401 21.3288L21.1458 21.3317C22.0102 21.7873 22.7337 22.4704 23.2382 23.3071C23.7428 24.1438 24.0092 25.1024 24.0088 26.0794M20.525 22.4243C21.1952 22.7713 21.7573 23.2956 22.15 23.9402C22.5426 24.5847 22.7508 25.3247 22.7517 26.0794V31.0666H1.91299V26.0794C1.91209 25.3267 2.11735 24.5881 2.5065 23.9437C2.89564 23.2994 3.45382 22.7739 4.12046 22.4243C4.46673 22.256 7.74668 21.2124 9.75696 20.5968C9.85072 20.5418 9.92311 20.4568 9.96233 20.3554C10.0015 20.2541 10.0053 20.1424 9.97293 20.0387C9.94058 19.9349 9.87405 19.8452 9.78418 19.7841C9.69431 19.723 9.58639 19.6942 9.47802 19.7023C9.35573 19.741 9.16182 19.8018 8.91771 19.8783C7.4339 20.3436 4.09507 21.3906 3.70686 21.5971C2.8896 22.0262 2.20529 22.6706 1.72803 23.4607C1.25076 24.2508 0.998729 25.1564 0.999219 26.0794V31.5187C0.999219 31.6463 1.04989 31.7686 1.14008 31.8588C1.23027 31.949 1.3526 31.9997 1.48015 31.9997H23.2182C23.2822 32.0009 23.3457 31.9894 23.4052 31.9658C23.4647 31.9422 23.5188 31.907 23.5645 31.8622C23.6102 31.8174 23.6465 31.764 23.6712 31.705C23.696 31.646 23.7088 31.5827 23.7088 31.5187V26.0794C23.7092 25.157 23.4576 24.2519 22.9813 23.462C22.505 22.6721 21.8219 22.0272 21.0059 21.5971C20.525 21.3567 16.0716 19.9764 15.1674 19.7023C15.0591 19.6942 14.9511 19.723 14.8613 19.7841C14.7714 19.8452 14.7049 19.9349 14.6725 20.0387C14.6402 20.1424 14.6439 20.2541 14.6831 20.3554C14.7223 20.4568 14.7947 20.5418 14.8885 20.5968C16.8988 21.2124 20.2028 22.2608 20.525 22.4243ZM24.0088 31.5187C24.0088 31.6226 23.9881 31.7254 23.9479 31.8212C23.9076 31.9169 23.8487 32.0037 23.7745 32.0765C23.7004 32.1492 23.6124 32.2064 23.5159 32.2447C23.4203 32.2826 23.3183 32.3013 23.2155 32.2997H1.48015C1.27304 32.2997 1.0744 32.2174 0.927949 32.0709C0.781495 31.9245 0.699219 31.7258 0.699219 31.5187L0.699219 26.0796C0.69873 25.1018 0.965705 24.1425 1.47124 23.3056C1.97681 22.4687 2.70169 21.786 3.56741 21.3315C3.64551 21.2902 3.78375 21.2358 3.94562 21.1763C4.11584 21.1138 4.33303 21.0381 4.58136 20.954C5.07833 20.7857 5.7063 20.5815 6.34583 20.3766C7.26368 20.0826 8.21002 19.7859 8.82987 19.5915C9.07321 19.5152 9.33447 19.4415 9.4557 19.4031L24 26.5M24.0088 31.5187V26.0794Z" fill="#222222"/>
<path d="M12.3496 21.3321C11.3231 21.3217 10.3153 21.0573 9.41588 20.5626C9.3414 20.5219 9.27903 20.4621 9.23511 20.3895C9.19118 20.3169 9.16727 20.2339 9.16579 20.149V18.1772C9.19186 18.0732 9.25192 17.9809 9.33644 17.9149C9.42096 17.849 9.52509 17.8132 9.6323 17.8132C9.7395 17.8132 9.84364 17.849 9.92816 17.9149C10.0127 17.9809 10.0727 18.0732 10.0988 18.1772V19.8604C10.7958 20.216 11.5671 20.4013 12.3496 20.4013C13.132 20.4013 13.9033 20.216 14.6003 19.8604V18.1772C14.5825 18.1063 14.5812 18.0322 14.5963 17.9607C14.6114 17.8892 14.6427 17.8221 14.6877 17.7644C14.7326 17.7068 14.7902 17.6602 14.8559 17.6281C14.9216 17.596 14.9937 17.5793 15.0668 17.5793C15.1399 17.5793 15.2121 17.596 15.2778 17.6281C15.3435 17.6602 15.401 17.7068 15.446 17.7644C15.4909 17.8221 15.5222 17.8892 15.5373 17.9607C15.5525 18.0322 15.5511 18.1063 15.5333 18.1772V20.149C15.5323 20.2334 15.5091 20.3161 15.4661 20.3887C15.423 20.4613 15.3616 20.5213 15.288 20.5626C14.3867 21.0568 13.3774 21.3211 12.3496 21.3321ZM19.6741 25.2661H17.2695C17.1986 25.2839 17.1245 25.2853 17.053 25.2701C16.9815 25.255 16.9143 25.2237 16.8567 25.1788C16.7991 25.1338 16.7524 25.0763 16.7204 25.0106C16.6883 24.9449 16.6716 24.8727 16.6716 24.7996C16.6716 24.7265 16.6883 24.6543 16.7204 24.5886C16.7524 24.5229 16.7991 24.4654 16.8567 24.4204C16.9143 24.3755 16.9815 24.3442 17.053 24.3291C17.1245 24.314 17.1986 24.3153 17.2695 24.3331H19.6741C19.7781 24.3592 19.8704 24.4192 19.9364 24.5037C20.0023 24.5883 20.0381 24.6924 20.0381 24.7996C20.0381 24.9068 20.0023 25.0109 19.9364 25.0955C19.8704 25.18 19.7781 25.24 19.6741 25.2661ZM19.4769 14.272C19.3764 14.2735 19.2782 14.2413 19.198 14.1807C19.1378 14.1344 19.0895 14.0745 19.0569 14.006C19.0243 13.9375 19.0084 13.8622 19.0104 13.7863V8.86638C18.8822 7.17356 18.1192 5.59167 16.8743 4.43747C15.6293 3.28327 13.9943 2.64196 12.2967 2.64196C10.599 2.64196 8.96398 3.28327 7.71903 4.43747C6.47409 5.59167 5.7111 7.17356 5.58286 8.86638V13.7767C5.58286 13.9042 5.53219 14.0266 5.442 14.1167C5.35181 14.2069 5.22948 14.2576 5.10193 14.2576C4.33277 14.2493 3.59498 13.9515 3.03555 13.4236C2.47613 12.8957 2.13616 12.1763 2.08338 11.4089C2.03061 10.6415 2.2689 9.88244 2.75078 9.28289C3.23266 8.68333 3.92274 8.28735 4.68352 8.17384C4.85591 6.27316 5.73281 4.50564 7.14195 3.21854C8.55108 1.93143 10.3906 1.21777 12.2991 1.21777C14.2075 1.21777 16.047 1.93143 17.4562 3.21854C18.8653 4.50564 19.7422 6.27316 19.9146 8.17384C20.6747 8.28706 21.3643 8.68226 21.8463 9.28083C22.3283 9.8794 22.5673 10.6375 22.5158 11.4042C22.4643 12.171 22.126 12.8903 21.5683 13.419C21.0105 13.9477 20.2742 14.2471 19.5058 14.2576L19.4769 14.272ZM19.9579 9.14051V13.2861C20.4278 13.1793 20.8474 12.916 21.148 12.5394C21.4486 12.1628 21.6123 11.6952 21.6123 11.2133C21.6123 10.7315 21.4486 10.2639 21.148 9.88726C20.8474 9.51065 20.4278 9.24734 19.9579 9.14051ZM4.66429 9.14051C4.19441 9.24734 3.77477 9.51065 3.47418 9.88726C3.17358 10.2639 3.00986 10.7315 3.00986 11.2133C3.00986 11.6952 3.17358 12.1628 3.47418 12.5394C3.77477 12.916 4.19441 13.1793 4.66429 13.2861V9.14051Z" fill="#222222"/>
<path fill-rule="evenodd" clip-rule="evenodd" d="M12.3497 21.3323C11.3233 21.3219 10.3155 21.0575 9.41607 20.5628C9.3416 20.5221 9.27923 20.4623 9.2353 20.3897C9.19138 20.3171 9.16746 20.2341 9.16599 20.1492V18.1774C9.19205 18.0734 9.25211 17.9811 9.33663 17.9151C9.42115 17.8492 9.52529 17.8134 9.63249 17.8134C9.7397 17.8134 9.84383 17.8492 9.92835 17.9151C10.0129 17.9811 10.0729 18.0734 10.099 18.1774V19.8606C10.796 20.2162 11.5673 20.4015 12.3497 20.4015C13.1322 20.4015 13.9035 20.2162 14.6005 19.8606V18.7112C14.5827 18.6403 14.5814 18.5663 14.5965 18.4947C14.6116 18.4232 14.6429 18.3561 14.6878 18.2984C14.7328 18.2408 14.7903 18.1942 14.856 18.1621C14.9217 18.13 14.9939 18.1134 15.067 18.1134C15.1401 18.1134 15.2123 18.13 15.278 18.1621C15.3437 18.1942 15.4012 18.2408 15.4462 18.2984C15.4911 18.3561 15.5224 18.4232 15.5375 18.4947C15.5527 18.5663 15.5513 18.6403 15.5335 18.7112V20.1492C15.5325 20.2336 15.5093 20.3163 15.4663 20.3889C15.4232 20.4615 15.3618 20.5215 15.2882 20.5628C14.3869 21.057 13.3776 21.3213 12.3497 21.3323ZM15.8335 18.7437V20.1527C15.8319 20.2898 15.7942 20.424 15.7243 20.5419C15.6544 20.6598 15.5547 20.7572 15.4352 20.8243L15.4325 20.8259C14.4879 21.3437 13.4301 21.6207 12.353 21.6323L12.3497 21.3323L12.3467 21.6323C11.2708 21.6213 10.2143 21.3442 9.27149 20.8257C9.15083 20.7595 9.04978 20.6627 8.97858 20.5449C8.90726 20.427 8.86843 20.2922 8.86604 20.1544L8.86594 20.1492L8.86599 18.1404L8.87499 18.1045C8.91731 17.9356 9.01484 17.7857 9.15208 17.6786C9.28932 17.5715 9.45841 17.5134 9.63249 17.5134C9.80657 17.5134 9.97566 17.5715 10.1129 17.6786C10.2501 17.7857 10.3477 17.9356 10.39 18.1045L10.399 18.1404V19.6729C11.0099 19.955 11.6754 20.1015 12.3497 20.1015C13.0241 20.1015 13.6896 19.955 14.3005 19.6729V18.7437C14.2805 18.6411 14.2813 18.5353 14.303 18.4326C14.3276 18.3165 14.3783 18.2075 14.4513 18.1139C14.5244 18.0203 14.6178 17.9446 14.7245 17.8925C14.8311 17.8404 14.9483 17.8134 15.067 17.8134C15.1857 17.8134 15.3029 17.8404 15.4096 17.8925C15.5162 17.9446 15.6096 18.0203 15.6827 18.1139C15.7557 18.2075 15.8064 18.3165 15.831 18.4326C15.8527 18.5353 15.8535 18.6411 15.8335 18.7437ZM19.7113 25.5663H17.3022C17.1995 25.5863 17.0937 25.5855 16.9911 25.5638C16.8749 25.5392 16.7659 25.4885 16.6723 25.4155C16.5787 25.3424 16.503 25.249 16.451 25.1424C16.3989 25.0357 16.3718 24.9185 16.3718 24.7998C16.3718 24.6811 16.3989 24.5639 16.451 24.4572C16.503 24.3506 16.5787 24.2572 16.6723 24.1841C16.7659 24.1111 16.8749 24.0604 16.9911 24.0358C17.0937 24.0141 17.1995 24.0133 17.3022 24.0333H19.7113L19.7473 24.0423C19.9161 24.0846 20.066 24.1821 20.1731 24.3194C20.2802 24.4566 20.3383 24.6257 20.3383 24.7998C20.3383 24.9739 20.2802 25.143 20.1731 25.2802C20.066 25.4175 19.9161 25.515 19.7473 25.5573L19.7113 25.5663ZM17.2697 24.3333C17.1988 24.3155 17.1247 24.3142 17.0532 24.3293C16.9817 24.3444 16.9145 24.3757 16.8569 24.4206C16.7993 24.4656 16.7526 24.5231 16.7206 24.5888C16.6885 24.6545 16.6718 24.7267 16.6718 24.7998C16.6718 24.8729 16.6885 24.9451 16.7206 25.0108C16.7526 25.0765 16.7993 25.134 16.8569 25.179C16.9145 25.2239 16.9817 25.2552 17.0532 25.2703C17.1247 25.2854 17.1988 25.2841 17.2697 25.2663H19.6743C19.7783 25.2402 19.8706 25.1802 19.9366 25.0957C20.0025 25.0111 20.0383 24.907 20.0383 24.7998C20.0383 24.6926 20.0025 24.5885 19.9366 24.5039C19.8706 24.4194 19.7783 24.3594 19.6743 24.3333H17.2697ZM19.5499 14.5712L19.4814 14.5722C19.3141 14.5746 19.1508 14.5211 19.0173 14.4202L19.0153 14.4187C18.9176 14.3435 18.8391 14.2463 18.7862 14.135C18.7339 14.0251 18.708 13.9046 18.7106 13.7829V8.87806C18.5856 7.26488 17.8572 5.7579 16.6705 4.65766C15.481 3.55489 13.9189 2.94215 12.2968 2.94215C10.6748 2.94215 9.11267 3.55489 7.92319 4.65766C6.73646 5.75789 6.00809 7.26488 5.88306 8.87805V13.7769C5.88306 13.984 5.80078 14.1826 5.65433 14.3291C5.50788 14.4755 5.30925 14.5578 5.10213 14.5578H5.0989C4.2543 14.5487 3.44414 14.2217 2.82985 13.642C2.21556 13.0623 1.84224 12.2724 1.78429 11.4297C1.72633 10.5871 1.988 9.7535 2.51714 9.09514C2.99714 8.49793 3.66527 8.08466 4.40881 7.92C4.63491 6.03135 5.53164 4.28346 6.93982 2.99723C8.40423 1.65962 10.3159 0.917969 12.2993 0.917969C14.2826 0.917969 16.1943 1.65962 17.6587 2.99723C19.0669 4.28345 19.9636 6.03131 20.1897 7.91995C20.9325 8.08427 21.6001 8.49672 22.0802 9.09288C22.6094 9.75015 22.8719 10.5826 22.8153 11.4245C22.7587 12.2665 22.3873 13.0564 21.7749 13.6369C21.1794 14.2014 20.3986 14.5278 19.5803 14.5561L19.5499 14.5712ZM19.9148 8.17403C19.7424 6.27336 18.8655 4.50584 17.4564 3.21873C16.0472 1.93162 14.2077 1.21797 12.2993 1.21797C10.3908 1.21797 8.55127 1.93162 7.14214 3.21873C5.73301 4.50584 4.85611 6.27336 4.68372 8.17403C3.92294 8.28754 3.23285 8.68353 2.75097 9.28308C2.2691 9.88264 2.0308 10.6417 2.08358 11.4091C2.13636 12.1765 2.47633 12.8959 3.03575 13.4238C3.59517 13.9517 4.33297 14.2495 5.10213 14.2578C5.22968 14.2578 5.35201 14.2071 5.4422 14.1169C5.53239 14.0268 5.58306 13.9044 5.58306 13.7769V8.86657C5.7113 7.17376 6.47428 5.59187 7.71923 4.43766C8.96417 3.28346 10.5992 2.64215 12.2968 2.64215C13.9945 2.64215 15.6295 3.28346 16.8745 4.43766C18.1194 5.59187 18.8824 7.17376 19.0106 8.86657V13.7865C19.0086 13.8624 19.0245 13.9376 19.0571 14.0062C19.0897 14.0747 19.138 14.1346 19.1982 14.1809C19.2784 14.2415 19.3766 14.2736 19.4771 14.2722L19.506 14.2578C20.2744 14.2473 21.0107 13.9479 21.5685 13.4192C22.1262 12.8905 22.4645 12.1712 22.516 11.4044C22.5675 10.6377 22.3285 9.8796 21.8465 9.28103C21.3645 8.68246 20.6749 8.28726 19.9148 8.17403ZM19.9581 9.1407C20.0607 9.16404 20.1609 9.19484 20.2581 9.23266C20.6056 9.36797 20.9132 9.59311 21.1482 9.88746C21.4488 10.2641 21.6125 10.7316 21.6125 11.2135C21.6125 11.6954 21.4488 12.163 21.1482 12.5396C20.9132 12.8339 20.6056 13.0591 20.2581 13.1944C20.1609 13.2322 20.0607 13.263 19.9581 13.2863V9.1407ZM20.2581 9.55872V12.8683C20.5119 12.75 20.7368 12.574 20.9137 12.3524C21.1719 12.029 21.3125 11.6274 21.3125 11.2135C21.3125 10.7997 21.1719 10.3981 20.9137 10.0746C20.7368 9.85299 20.5119 9.67705 20.2581 9.55872ZM4.36448 9.55872C4.11061 9.67705 3.88573 9.85299 3.70884 10.0746C3.45067 10.3981 3.31006 10.7997 3.31006 11.2135C3.31006 11.6274 3.45067 12.029 3.70884 12.3524C3.88573 12.574 4.11061 12.75 4.36448 12.8683V9.55872ZM4.36448 9.23266C4.01696 9.36797 3.70931 9.59311 3.47437 9.88746C3.17378 10.2641 3.01006 10.7316 3.01006 11.2135C3.01006 11.6954 3.17378 12.163 3.47437 12.5396C3.70931 12.8339 4.01696 13.0591 4.36448 13.1944C4.46161 13.2322 4.56185 13.263 4.66448 13.2863V9.1407C4.56185 9.16404 4.46161 9.19484 4.36448 9.23266Z" fill="#222222"/>
<path d="M14.225 16.2778C14.0182 16.2778 13.8066 16.2778 13.5854 16.2778C13.5132 16.2926 13.4386 16.2906 13.3674 16.2721C13.2961 16.2535 13.23 16.2187 13.1743 16.1706C13.1185 16.1224 13.0746 16.0621 13.0459 15.9942C13.0172 15.9264 13.0044 15.8529 13.0086 15.7793C13.0128 15.7058 13.0338 15.6342 13.0701 15.57C13.1063 15.5059 13.1568 15.451 13.2177 15.4094C13.2785 15.3679 13.3481 15.3409 13.421 15.3306C13.494 15.3202 13.5683 15.3267 13.6383 15.3496C17.5964 15.542 19.0824 13.5509 19.0824 13.5317C19.1098 13.4639 19.1522 13.4032 19.2064 13.3543C19.2607 13.3053 19.3254 13.2694 19.3957 13.2492C19.4659 13.229 19.5398 13.2251 19.6118 13.2377C19.6838 13.2504 19.752 13.2793 19.8111 13.3222C19.8703 13.3652 19.9188 13.421 19.9532 13.4856C19.9875 13.5501 20.0066 13.6216 20.0092 13.6947C20.0117 13.7677 19.9976 13.8404 19.9678 13.9071C19.9381 13.9739 19.8935 14.033 19.8375 14.08C19.7846 14.1761 18.2072 16.2778 14.225 16.2778Z" fill="#F12A23"/>
<path d="M12.6191 17.1147C12.3278 17.1147 12.0431 17.0282 11.801 16.8663C11.5589 16.7044 11.3703 16.4743 11.259 16.2051C11.1478 15.9359 11.1189 15.6398 11.1761 15.3542C11.2333 15.0686 11.3739 14.8063 11.5802 14.6007C11.7865 14.3951 12.0492 14.2553 12.335 14.1991C12.6207 14.1428 12.9168 14.1727 13.1856 14.2848C13.4544 14.3969 13.6839 14.5863 13.8451 14.8289C14.0062 15.0716 14.0917 15.3566 14.0907 15.6478C14.0895 16.0373 13.9339 16.4104 13.658 16.6853C13.3822 16.9603 13.0086 17.1147 12.6191 17.1147V17.1147ZM12.6191 15.1092C12.5126 15.1092 12.4084 15.1408 12.3198 15.2C12.2313 15.2592 12.1622 15.3433 12.1215 15.4417C12.0807 15.5401 12.07 15.6484 12.0908 15.7529C12.1116 15.8574 12.1629 15.9534 12.2382 16.0287C12.3136 16.1041 12.4095 16.1554 12.514 16.1761C12.6185 16.1969 12.7268 16.1863 12.8252 16.1455C12.9237 16.1047 13.0078 16.0357 13.067 15.9471C13.1262 15.8585 13.1577 15.7544 13.1577 15.6478C13.1584 15.5769 13.1449 15.5066 13.118 15.441C13.0912 15.3753 13.0516 15.3157 13.0014 15.2655C12.9513 15.2154 12.8916 15.1757 12.826 15.1489C12.7603 15.1221 12.69 15.1086 12.6191 15.1092V15.1092Z" fill="#F12A23"/>
<path fill-rule="evenodd" clip-rule="evenodd" d="M4.49948 35.1247L4.42149 35.3122C4.08366 36.1244 3.31981 36.6794 2.44294 36.7497L2.24049 36.7659L2.39473 36.8981C3.06282 37.4703 3.35458 38.3683 3.15047 39.224L3.10335 39.4215L3.27667 39.3157C4.0274 38.8571 4.97157 38.8571 5.72229 39.3157L5.89562 39.4215L5.8485 39.224C5.64438 38.3683 5.93615 37.4703 6.60423 36.8981L6.75848 36.7659L6.55603 36.7497C5.67915 36.6794 4.91531 36.1244 4.57748 35.3122L4.49948 35.1247ZM5.55751 34.5437C5.16608 33.6026 3.83289 33.6026 3.44145 34.5437L3.3135 34.8514C3.14848 35.2481 2.77537 35.5192 2.34704 35.5535L2.01493 35.5802C0.998916 35.6616 0.586937 36.9296 1.36103 37.5927L1.61407 37.8094C1.94041 38.0889 2.08292 38.5276 1.98322 38.9455L1.90591 39.2696C1.66942 40.2611 2.748 41.0447 3.61785 40.5134L3.90218 40.3397C4.26889 40.1158 4.73008 40.1158 5.09679 40.3397L5.38112 40.5134C6.25097 41.0447 7.32955 40.2611 7.09305 39.2696L7.01575 38.9455C6.91604 38.5276 7.05856 38.0889 7.3849 37.8094L7.63794 37.5927C8.41203 36.9296 8.00005 35.6616 6.98404 35.5802L6.65192 35.5535C6.2236 35.5192 5.85048 35.2481 5.68546 34.8514L5.55751 34.5437Z" fill="#F12A23"/>
<path fill-rule="evenodd" clip-rule="evenodd" d="M12.4995 35.1247L12.4215 35.3122C12.0837 36.1244 11.3198 36.6794 10.4429 36.7497L10.2405 36.7659L10.3947 36.8981C11.0628 37.4703 11.3546 38.3683 11.1505 39.224L11.1033 39.4215L11.2767 39.3157C12.0274 38.8571 12.9716 38.8571 13.7223 39.3157L13.8956 39.4215L13.8485 39.224C13.6444 38.3683 13.9361 37.4703 14.6042 36.8981L14.7585 36.7659L14.556 36.7497C13.6792 36.6794 12.9153 36.1244 12.5775 35.3122L12.4995 35.1247ZM13.5575 34.5437C13.1661 33.6026 11.8329 33.6026 11.4415 34.5437L11.3135 34.8514C11.1485 35.2481 10.7754 35.5192 10.347 35.5535L10.0149 35.5802C8.99892 35.6616 8.58694 36.9296 9.36103 37.5927L9.61407 37.8094C9.94041 38.0889 10.0829 38.5276 9.98322 38.9455L9.90591 39.2696C9.66942 40.2611 10.748 41.0447 11.6178 40.5134L11.9022 40.3397C12.2689 40.1158 12.7301 40.1158 13.0968 40.3397L13.3811 40.5134C14.251 41.0447 15.3296 40.2611 15.0931 39.2696L15.0157 38.9455C14.916 38.5276 15.0586 38.0889 15.3849 37.8094L15.6379 37.5927C16.412 36.9296 16.0001 35.6616 14.984 35.5802L14.6519 35.5535C14.2236 35.5192 13.8505 35.2481 13.6855 34.8514L13.5575 34.5437Z" fill="#F12A23"/>
<path fill-rule="evenodd" clip-rule="evenodd" d="M20.4995 35.1247L20.4215 35.3122C20.0837 36.1244 19.3198 36.6794 18.4429 36.7497L18.2405 36.7659L18.3947 36.8981C19.0628 37.4703 19.3546 38.3683 19.1505 39.224L19.1033 39.4215L19.2767 39.3157C20.0274 38.8571 20.9716 38.8571 21.7223 39.3157L21.8956 39.4215L21.8485 39.224C21.6444 38.3683 21.9361 37.4703 22.6042 36.8981L22.7585 36.7659L22.556 36.7497C21.6792 36.6794 20.9153 36.1244 20.5775 35.3122L20.4995 35.1247ZM21.5575 34.5437C21.1661 33.6026 19.8329 33.6026 19.4415 34.5437L19.3135 34.8514C19.1485 35.2481 18.7754 35.5192 18.347 35.5535L18.0149 35.5802C16.9989 35.6616 16.5869 36.9296 17.361 37.5927L17.6141 37.8094C17.9404 38.0889 18.0829 38.5276 17.9832 38.9455L17.9059 39.2696C17.6694 40.2611 18.748 41.0447 19.6178 40.5134L19.9022 40.3397C20.2689 40.1158 20.7301 40.1158 21.0968 40.3397L21.3811 40.5134C22.251 41.0447 23.3296 40.2611 23.0931 39.2696L23.0157 38.9455C22.916 38.5276 23.0586 38.0889 23.3849 37.8094L23.6379 37.5927C24.412 36.9296 24.0001 35.6616 22.984 35.5802L22.6519 35.5535C22.2236 35.5192 21.8505 35.2481 21.6855 34.8514L21.5575 34.5437Z" fill="#F12A23"/>
</svg>
