<svg width="91" height="28" viewBox="0 0 91 28" fill="none" xmlns="http://www.w3.org/2000/svg">
<path d="M26.5908 0H0.604258C0.443997 0 0.290291 0.06362 0.177015 0.177017C0.0636181 0.290293 0 0.443997 0 0.604381V26.5909C0 26.7512 0.0636181 26.9049 0.177015 27.0182C0.290291 27.1316 0.443997 27.1952 0.604258 27.1952H26.5908C26.7512 27.1952 26.9049 27.1316 27.0182 27.0182C27.1316 26.9049 27.1952 26.7512 27.1952 26.5909V0.604381C27.1952 0.443997 27.1316 0.290293 27.0182 0.177017C26.9049 0.06362 26.7512 0 26.5908 0ZM18.1301 17.5258C18.1301 17.6861 18.0665 17.8398 17.9531 17.9532C17.8398 18.0665 17.6861 18.1302 17.5258 18.1302H9.66937C9.5091 18.1302 9.3554 18.0665 9.242 17.9532C9.12873 17.8398 9.06511 17.6861 9.06511 17.5258V9.66937C9.06511 9.5091 9.12873 9.3554 9.242 9.24212C9.3554 9.12873 9.5091 9.06511 9.66937 9.06511H17.5258C17.6861 9.06511 17.8398 9.12873 17.9531 9.24212C18.0665 9.3554 18.1301 9.5091 18.1301 9.66937V17.5258Z" fill="#A1A1A1"/>
<path d="M80.9964 9.06592H73.14C72.8063 9.06592 72.5356 9.33642 72.5356 9.67018V17.5266C72.5356 17.8604 72.8063 18.131 73.14 18.131H80.9964C81.3301 18.131 81.6007 17.8604 81.6007 17.5266V9.67018C81.6007 9.33642 81.3301 9.06592 80.9964 9.06592Z" fill="#A1A1A1"/>
<path d="M71.928 0.000488281H64.0717C63.7379 0.000488281 63.4673 0.27099 63.4673 0.604869V8.46121C63.4673 8.79497 63.7379 9.06559 64.0717 9.06559H71.928C72.2619 9.06559 72.5324 8.79497 72.5324 8.46121V0.604869C72.5324 0.27099 72.2619 0.000488281 71.928 0.000488281Z" fill="#A1A1A1"/>
<path d="M90.0575 0.000488281H82.2011C81.8673 0.000488281 81.5967 0.27099 81.5967 0.604869V8.46121C81.5967 8.79497 81.8673 9.06559 82.2011 9.06559H90.0575C90.3913 9.06559 90.6618 8.79497 90.6618 8.46121V0.604869C90.6618 0.27099 90.3913 0.000488281 90.0575 0.000488281Z" fill="#A1A1A1"/>
<path d="M71.928 18.1309H64.0717C63.7379 18.1309 63.4673 18.4014 63.4673 18.7351V26.5916C63.4673 26.9253 63.7379 27.196 64.0717 27.196H71.928C72.2619 27.196 72.5324 26.9253 72.5324 26.5916V18.7351C72.5324 18.4014 72.2619 18.1309 71.928 18.1309Z" fill="#A1A1A1"/>
<path d="M90.0575 18.1309H82.2011C81.8673 18.1309 81.5967 18.4014 81.5967 18.7351V26.5916C81.5967 26.9253 81.8673 27.196 82.2011 27.196H90.0575C90.3913 27.196 90.6618 26.9253 90.6618 26.5916V18.7351C90.6618 18.4014 90.3913 18.1309 90.0575 18.1309Z" fill="#A1A1A1"/>
<path d="M58.3186 0.000488281H50.4623C50.1285 0.000488281 49.8579 0.27099 49.8579 0.604869V8.46121C49.8579 8.79497 50.1285 9.06559 50.4623 9.06559H58.3186C58.6524 9.06559 58.923 8.79497 58.923 8.46121V0.604869C58.923 0.27099 58.6524 0.000488281 58.3186 0.000488281Z" fill="#A1A1A1"/>
<path d="M58.3186 18.1309H50.4623C50.1285 18.1309 49.8579 18.4014 49.8579 18.7351V26.5916C49.8579 26.9253 50.1285 27.196 50.4623 27.196H58.3186C58.6524 27.196 58.923 26.9253 58.923 26.5916V18.7351C58.923 18.4014 58.6524 18.1309 58.3186 18.1309Z" fill="#A1A1A1"/>
<path d="M49.8578 9.66257C49.8578 9.50231 49.794 9.3486 49.6807 9.23532C49.5673 9.12193 49.4136 9.05831 49.2534 9.05831H40.7926V0.604381C40.7926 0.443997 40.7289 0.290293 40.6156 0.177017C40.5022 0.06362 40.3485 0 40.1883 0H32.3319C32.1715 0 32.0178 0.06362 31.9046 0.177017C31.7912 0.290293 31.7275 0.443997 31.7275 0.604381V26.5773C31.7275 26.7376 31.7912 26.8913 31.9046 27.0046C32.0178 27.118 32.1715 27.1816 32.3319 27.1816H40.1883C40.3485 27.1816 40.5022 27.118 40.6156 27.0046C40.7289 26.8913 40.7926 26.7376 40.7926 26.5773V18.1234H49.2534C49.4136 18.1234 49.5673 18.0597 49.6807 17.9464C49.794 17.833 49.8578 17.6793 49.8578 17.519V9.66257Z" fill="#A1A1A1"/>
</svg>
