<svg width="127" height="31" viewBox="0 0 127 31" fill="none" xmlns="http://www.w3.org/2000/svg">
<path d="M59.6527 3.47681H55.7261V9.16614H59.6527V12.643H65.7067V9.16614H69.6333V3.47681H65.7067V0H59.6527V3.47681Z" fill="#A1A1A1"/>
<path d="M0 24.6052V10.2846H14.588C14.8552 10.2665 15.1232 10.2665 15.3904 10.2846C15.6606 10.3272 15.9284 10.384 16.1927 10.4548C16.4515 10.5507 16.7034 10.6644 16.9464 10.7952C17.1896 10.9333 17.4177 11.0962 17.6272 11.2815C17.7746 11.4521 17.9125 11.6307 18.0405 11.8163C18.1668 12.0221 18.2765 12.2376 18.3687 12.4607C18.4647 12.7162 18.5339 12.981 18.5754 13.2508C18.6253 13.5562 18.6497 13.8653 18.6484 14.1747V19.0374C18.6492 19.3307 18.6248 19.6236 18.5754 19.9127C18.5372 20.1674 18.4678 20.4165 18.3687 20.6543C18.2998 20.8753 18.1973 21.0844 18.0648 21.2742C17.9467 21.4595 17.8081 21.6307 17.6515 21.7848C17.4962 21.9534 17.3158 22.0969 17.1166 22.2103C16.9203 22.3348 16.7127 22.4406 16.4966 22.5264C16.2242 22.6425 15.9383 22.7242 15.6457 22.7695C15.3513 22.8075 15.055 22.8278 14.7582 22.8303H6.905V30.0149H0V24.6052ZM6.85637 13.5304V19.6817H10.941C11.0555 19.6809 11.1666 19.6424 11.2571 19.5723C11.3606 19.494 11.4509 19.3996 11.5245 19.2927C11.5943 19.1836 11.6476 19.0648 11.6826 18.9402C11.6982 18.8191 11.6982 18.6965 11.6826 18.5755V14.503C11.6842 14.3658 11.6594 14.2296 11.6096 14.1018C11.5694 13.9931 11.5073 13.8939 11.4273 13.81C11.3603 13.7214 11.2727 13.6504 11.172 13.6034C11.0996 13.5664 11.0215 13.5417 10.941 13.5304H6.85637Z" fill="#A1A1A1"/>
<path d="M36.4701 15.4268V26.3678C36.4729 26.4653 36.4978 26.5609 36.543 26.6474C36.5954 26.745 36.6608 26.835 36.7375 26.9148C36.8291 26.9842 36.9268 27.0452 37.0293 27.0972C37.1194 27.1442 37.2194 27.1692 37.321 27.1701H40.3237C40.4237 27.1662 40.5223 27.1457 40.6155 27.1093C40.714 27.0759 40.802 27.0172 40.8708 26.9391C40.945 26.8705 41.0103 26.7929 41.0653 26.7082C41.1205 26.6345 41.1504 26.5449 41.1504 26.4529V15.5119H47.8487V30.0148H33.7591C33.4647 30.0138 33.1713 29.9812 32.8838 29.9175C32.6162 29.86 32.3555 29.7745 32.1058 29.6622C31.8746 29.5266 31.6551 29.3721 31.4494 29.2003C31.249 29.0324 31.0657 28.8451 30.9023 28.6411C30.7317 28.4259 30.5773 28.1983 30.4403 27.9603C30.3046 27.7197 30.1907 27.4675 30.1 27.2066C30.027 26.9513 29.9662 26.6838 29.9176 26.4164C29.8737 26.1595 29.8533 25.899 29.8568 25.6384V15.4268H36.4701Z" fill="#A1A1A1"/>
<path d="M65.707 15.5239V18.1862H56.8327C56.764 18.1776 56.6946 18.1776 56.626 18.1862L56.395 18.2835C56.3274 18.318 56.2659 18.3631 56.2127 18.4172C56.1663 18.4715 56.1404 18.5403 56.1397 18.6117V19.4141C56.1408 19.4486 56.1489 19.4826 56.1636 19.514C56.1782 19.5453 56.199 19.5734 56.2248 19.5964L56.4193 19.718C56.4917 19.755 56.5698 19.7797 56.6503 19.7909H56.8813H63.4216C63.6279 19.7738 63.8353 19.7738 64.0416 19.7909C64.2431 19.8266 64.4421 19.8753 64.6372 19.9368C65.0314 20.0727 65.3891 20.2973 65.6827 20.5933C65.8094 20.7284 65.9233 20.8749 66.0231 21.0309C66.1291 21.2088 66.2186 21.396 66.2906 21.5901C66.3675 21.794 66.4205 22.0061 66.4486 22.2223C66.4884 22.4756 66.5087 22.7317 66.5094 22.9881V26.3798C66.5104 26.6289 66.486 26.8774 66.4364 27.1214C66.3934 27.3593 66.3241 27.5917 66.2298 27.8143C66.1579 28.019 66.0554 28.2117 65.9259 28.3857C65.7921 28.5559 65.6706 28.7139 65.5368 28.8598C65.213 29.1445 64.8534 29.3856 64.4671 29.5771C64.2137 29.6878 63.9486 29.7694 63.6769 29.8202C63.4192 29.8581 63.1593 29.8784 62.8988 29.881H50.11V27.401H59.5679C59.6482 27.3965 59.7268 27.3759 59.7989 27.3402C59.8738 27.3057 59.9434 27.2607 60.0056 27.2065C60.0763 27.1658 60.1351 27.1071 60.1757 27.0363C60.1928 26.9644 60.1928 26.8894 60.1757 26.8175V26.0151C60.1927 25.9473 60.1927 25.8763 60.1757 25.8085C60.1308 25.7476 60.0726 25.6977 60.0056 25.6626C59.9411 25.6084 59.8668 25.5671 59.7867 25.541C59.7148 25.524 59.6399 25.524 59.5679 25.541H53.0519C52.7915 25.5385 52.5316 25.5181 52.2739 25.4803C52.0021 25.4294 51.737 25.3478 51.4837 25.2371C51.3142 25.1621 51.1515 25.0726 50.9975 24.9697C50.8502 24.8588 50.7193 24.7279 50.6084 24.5807C50.4975 24.4487 50.3997 24.3062 50.3167 24.1552C50.2303 24.0011 50.161 23.838 50.11 23.6689C50.0689 23.5176 50.0404 23.363 50.0249 23.207C50.0125 23.0289 50.0125 22.8501 50.0249 22.6721V18.7698C50.0211 18.532 50.0497 18.2947 50.11 18.0647C50.1611 17.8509 50.2345 17.6431 50.3288 17.4447C50.4382 17.2623 50.5598 17.0921 50.6814 16.9219C50.8148 16.7642 50.9612 16.6178 51.119 16.4843C51.2882 16.3371 51.4715 16.2068 51.6661 16.0953C51.8523 15.9892 52.0476 15.8997 52.2496 15.8278C52.5109 15.7309 52.7791 15.6537 53.0519 15.5969C53.3168 15.5495 53.5852 15.5251 53.8543 15.5239H65.707Z" fill="#A1A1A1"/>
<path d="M85.7896 11.9136V14.892H75.2984L75.116 18.4539H82.5195C82.9613 18.4524 83.4006 18.5222 83.8202 18.6605C84.0641 18.7403 84.297 18.8505 84.5132 18.9888C84.7245 19.1197 84.9168 19.2793 85.0845 19.4629C85.2415 19.6134 85.3765 19.7853 85.4857 19.9735C85.6053 20.1498 85.6995 20.3421 85.7653 20.5448C85.8521 20.7649 85.9172 20.9929 85.9598 21.2256C85.9997 21.4626 86.02 21.7025 86.0206 21.9428V26.6839C86.0205 26.9283 86.0002 27.1723 85.9598 27.4133C85.9191 27.6308 85.8539 27.8428 85.7653 28.0455C85.6899 28.2881 85.5704 28.5148 85.4128 28.7141C85.2708 28.9023 85.1121 29.0772 84.9386 29.2369L84.4037 29.5651C84.2194 29.6627 84.0233 29.7363 83.8202 29.7839C83.6187 29.8551 83.4112 29.908 83.2002 29.9419C82.9818 29.9591 82.7623 29.9591 82.5438 29.9419H69.3902V27.0608H79.1156C79.1654 27.0625 79.2149 27.0536 79.261 27.0348C79.3071 27.0159 79.3487 26.9875 79.383 26.9514C79.463 26.8651 79.5286 26.7666 79.5775 26.6596C79.6212 26.5413 79.6538 26.4193 79.6748 26.2949C79.6748 26.1612 79.6748 26.0518 79.6748 25.9545V22.3926C79.697 22.2598 79.697 22.1243 79.6748 21.9915C79.6385 21.8872 79.5805 21.7919 79.5046 21.7119C79.4457 21.6311 79.3658 21.5681 79.2736 21.5295C79.1903 21.508 79.1042 21.4998 79.0183 21.5052H69.062L69.1836 11.9379L85.7896 11.9136Z" fill="#A1A1A1"/>
<path d="M92.1232 11.8896H102.408C102.69 11.8905 102.971 11.9232 103.247 11.9869C103.49 12.0396 103.73 12.1087 103.964 12.1936C104.209 12.3036 104.438 12.4468 104.645 12.619C104.843 12.7755 105.023 12.955 105.179 13.1539C105.378 13.3931 105.542 13.6591 105.666 13.9441C105.924 14.5017 106.092 15.0966 106.164 15.7068C106.182 16.0024 106.182 16.2987 106.164 16.5943V25.3228C106.183 25.6305 106.183 25.939 106.164 26.2467C106.129 26.5313 106.068 26.8121 105.982 27.0855C105.903 27.4014 105.789 27.7073 105.641 27.9973C105.513 28.2633 105.358 28.5158 105.179 28.751C105.015 28.9543 104.827 29.1378 104.62 29.298C104.427 29.4546 104.215 29.5854 103.988 29.687C103.762 29.8061 103.521 29.892 103.271 29.9423C103.027 29.9912 102.778 30.0157 102.529 30.0153H92.0745C91.7887 30.017 91.5034 29.9885 91.2236 29.9302C90.9398 29.8715 90.6656 29.7733 90.4091 29.6384C90.1564 29.4988 89.9199 29.3316 89.704 29.14C89.468 28.9406 89.2631 28.707 89.0962 28.4471C88.9559 28.2118 88.8301 27.9682 88.7193 27.7177C88.5972 27.4359 88.5035 27.1427 88.4397 26.8424C88.4397 26.5871 88.3546 26.3196 88.3181 26.04C88.2986 25.7405 88.2986 25.44 88.3181 25.1404V16.8374C88.2943 16.5137 88.2943 16.1886 88.3181 15.8649C88.3595 15.5364 88.4245 15.2114 88.5126 14.8923C88.5729 14.5778 88.6709 14.2717 88.8044 13.9806C88.9393 13.6976 89.1022 13.4288 89.2907 13.1783C89.463 12.9592 89.6587 12.7594 89.8742 12.5826C90.1026 12.4068 90.3569 12.2674 90.6279 12.1693C91.1024 11.9911 91.6042 11.8965 92.111 11.8896H92.1232ZM98.8944 14.9288H95.5392C95.4109 14.9262 95.2845 14.9599 95.1745 15.0261C95.0493 15.0831 94.9405 15.1709 94.8584 15.2814C94.7566 15.3737 94.674 15.4853 94.6153 15.6096C94.5557 15.7261 94.5264 15.8557 94.5302 15.9865V25.9792C94.5306 26.1165 94.5684 26.251 94.6396 26.3683C94.7121 26.4866 94.8023 26.5932 94.907 26.6843C95.0119 26.7857 95.1306 26.8716 95.2596 26.9396C95.3848 27.0004 95.5216 27.0335 95.6608 27.0369H98.8944C99.0037 27.0347 99.1113 27.0098 99.2105 26.9639C99.3255 26.9109 99.432 26.8413 99.5266 26.7573C99.614 26.689 99.6847 26.6017 99.7333 26.502C99.7923 26.4157 99.826 26.3147 99.8305 26.2102V15.7555C99.8168 15.6337 99.7659 15.519 99.6846 15.4272C99.6295 15.3319 99.5597 15.2458 99.478 15.172C99.38 15.0958 99.274 15.0306 99.1619 14.9774C99.0762 14.9459 98.9857 14.9295 98.8944 14.9288Z" fill="#A1A1A1"/>
<path d="M112.34 11.8892H122.612C122.899 11.8881 123.184 11.9207 123.463 11.9864C123.707 12.0392 123.946 12.1082 124.18 12.1931C124.426 12.3032 124.655 12.4463 124.861 12.6186C125.06 12.775 125.24 12.9546 125.396 13.1535C125.599 13.3895 125.763 13.6562 125.882 13.9437C126.141 14.5012 126.309 15.0962 126.381 15.7064C126.399 16.0019 126.399 16.2983 126.381 16.5938V25.3223C126.399 25.63 126.399 25.9385 126.381 26.2462C126.346 26.5308 126.285 26.8116 126.198 27.085C126.12 27.4009 126.006 27.7068 125.858 27.9968C125.734 28.2653 125.579 28.5183 125.396 28.7505C125.231 28.9538 125.044 29.1374 124.837 29.2976C124.642 29.4515 124.43 29.5821 124.205 29.6866C123.979 29.8056 123.738 29.8916 123.488 29.9419C123.255 29.9884 123.019 30.0128 122.782 30.0148H112.328C112.042 30.0166 111.757 29.988 111.477 29.9297C111.193 29.871 110.919 29.7728 110.662 29.6379C110.41 29.4983 110.173 29.3312 109.957 29.1395C109.724 28.9369 109.52 28.7038 109.349 28.4466C109.209 28.2113 109.083 27.9677 108.972 27.7172C108.856 27.4334 108.762 27.1407 108.693 26.8419C108.693 26.5866 108.608 26.3192 108.571 26.0396C108.552 25.74 108.552 25.4395 108.571 25.14V16.837C108.574 16.5119 108.594 16.1872 108.632 15.8644C108.673 15.536 108.738 15.211 108.827 14.8919C108.885 14.5754 108.988 14.2686 109.13 13.9801C109.252 13.6927 109.411 13.4228 109.605 13.1778C109.777 12.9587 109.973 12.759 110.188 12.5821C110.417 12.4063 110.671 12.2669 110.942 12.1688C111.416 11.9906 111.918 11.896 112.425 11.8892H112.34ZM119.135 14.9284H115.756C115.628 14.9258 115.501 14.9595 115.391 15.0256C115.266 15.0826 115.157 15.1705 115.075 15.2809C114.973 15.3733 114.891 15.4848 114.832 15.6091C114.772 15.7256 114.743 15.8552 114.747 15.986V25.9788C114.747 26.116 114.785 26.2505 114.856 26.3678C114.925 26.4889 115.016 26.5961 115.124 26.6839C115.229 26.7852 115.347 26.8711 115.476 26.9392C115.601 26.9999 115.738 27.0331 115.877 27.0364H119.135C119.245 27.0342 119.352 27.0094 119.451 26.9635C119.565 26.9077 119.671 26.8383 119.768 26.7568C119.855 26.6885 119.926 26.6012 119.974 26.5015C120.033 26.4153 120.067 26.3142 120.071 26.2098V15.755C120.067 15.6467 120.034 15.5417 119.974 15.4511C119.919 15.3558 119.849 15.2696 119.768 15.1958C119.668 15.1223 119.562 15.0572 119.451 15.0013C119.352 14.9554 119.245 14.9306 119.135 14.9284Z" fill="#A1A1A1"/>
<path d="M27.6075 29.9174C27.6075 29.9174 24.3252 29.9174 24.0577 29.9174C23.778 29.8577 23.5134 29.7419 23.2797 29.577C23.038 29.4006 22.8177 29.1966 22.6232 28.9692C22.4169 28.7406 22.2336 28.4922 22.0762 28.2276C21.8981 27.945 21.7436 27.6482 21.6142 27.3402C21.4805 27.0234 21.3668 26.6986 21.2738 26.3676C21.2009 26.0272 21.1401 25.6747 21.0915 25.3343C21.0435 24.9879 21.0191 24.6386 21.0186 24.2888V10.7949H27.6439L27.6075 29.9174Z" fill="#A1A1A1"/>
</svg>
