<svg width="86" height="86" viewBox="0 0 86 86" fill="none" xmlns="http://www.w3.org/2000/svg">
<path opacity="0.1" fill-rule="evenodd" clip-rule="evenodd" d="M43 8.6C24.0014 8.6 8.6 24.0014 8.6 43C8.6 61.9986 24.0014 77.4 43 77.4C61.9986 77.4 77.4 61.9986 77.4 43C77.4 24.0014 61.9986 8.6 43 8.6ZM0 43C0 19.2518 19.2518 0 43 0C66.7482 0 86 19.2518 86 43C86 66.7482 66.7482 86 43 86C19.2518 86 0 66.7482 0 43ZM38.4858 25.8C38.4858 23.4252 40.411 21.5 42.7858 21.5H43.2142C45.589 21.5 47.5142 23.4252 47.5142 25.8V26.23C47.5142 27.3706 47.061 28.4645 46.2544 29.2709C45.4477 30.0774 44.3537 30.5303 43.2131 30.53L42.7848 30.5299C40.4104 30.5293 38.4858 28.6043 38.4858 26.2299V25.8ZM43 34.4C45.3748 34.4 47.3 36.3252 47.3 38.7V60.2C47.3 62.5748 45.3748 64.5 43 64.5C40.6252 64.5 38.7 62.5748 38.7 60.2V38.7C38.7 36.3252 40.6252 34.4 43 34.4Z" fill="black"/>
</svg>
