<svg width="28" height="28" viewBox="0 0 28 28" fill="none" xmlns="http://www.w3.org/2000/svg">
<path d="M5.38672 22.6133C4.30859 21.5352 5.02344 19.2734 4.47266 17.9492C3.92188 16.625 1.8125 15.4648 1.8125 14C1.8125 12.5352 3.89844 11.4219 4.47266 10.0508C5.04688 8.67969 4.30859 6.46484 5.38672 5.38672C6.46484 4.30859 8.72656 5.02344 10.0508 4.47266C11.375 3.92188 12.5352 1.8125 14 1.8125C15.4648 1.8125 16.5781 3.89844 17.9492 4.47266C19.3203 5.04688 21.5352 4.30859 22.6133 5.38672C23.6914 6.46484 22.9766 8.72656 23.5273 10.0508C24.0781 11.375 26.1875 12.5352 26.1875 14C26.1875 15.4648 24.1016 16.5781 23.5273 17.9492C22.9531 19.3203 23.6914 21.5352 22.6133 22.6133C21.5352 23.6914 19.2734 22.9766 17.9492 23.5273C16.625 24.0781 15.4648 26.1875 14 26.1875C12.5352 26.1875 11.4219 24.1016 10.0508 23.5273C8.67969 22.9531 6.46484 23.6914 5.38672 22.6133Z" stroke="#222222" stroke-width="1.8" stroke-linecap="round" stroke-linejoin="round"/>
<path d="M19.1562 11.1875L12.2773 17.75L8.84375 14.4688" stroke="#F12A23" stroke-width="1.8" stroke-linecap="round" stroke-linejoin="round"/>
</svg>
