<svg width="119" height="37" viewBox="0 0 119 37" fill="none" xmlns="http://www.w3.org/2000/svg">
<path d="M14.1229 17.7392L13.8099 17.425C13.5738 17.1891 13.1675 17.3562 13.1675 17.6909V22.1787C13.1675 22.3862 13.3373 22.5546 13.5454 22.5546H18.034C18.3684 22.5546 18.5374 22.1491 18.2992 21.9129C18.2289 21.8424 18.1894 21.7469 18.1894 21.6473C18.1894 21.5478 18.2289 21.4523 18.2992 21.3817L23.0738 16.5942C23.2203 16.4479 23.2203 16.2102 23.0738 16.0628L22.6388 15.6294C22.4025 15.3935 22.571 14.988 22.9047 14.988H27.3909C27.5983 14.988 27.7679 15.1565 27.7679 15.3639V19.852C27.7679 20.1863 27.3606 20.3541 27.1243 20.1178L26.8213 19.8155C26.6728 19.6647 26.4365 19.6647 26.2908 19.8155L18.2418 27.861C18.0955 28.0068 17.8579 28.0068 17.7096 27.861L7.8619 18.0128C7.82671 17.9779 7.79878 17.9364 7.77973 17.8907C7.76067 17.8449 7.75086 17.7958 7.75086 17.7463C7.75086 17.6967 7.76067 17.6476 7.77973 17.6019C7.79878 17.5562 7.82671 17.5146 7.8619 17.4797L21.4947 3.84726C21.6406 3.70056 21.6406 3.46116 21.4947 3.31496L18.2891 0.109541C18.2183 0.0393694 18.1226 0 18.0229 0C17.9232 0 17.8276 0.0393694 17.7568 0.109541L0.109701 17.7586C-0.036567 17.9053 -0.036567 18.1447 0.109701 18.2909L17.7568 35.938C17.9031 36.0838 18.1432 36.0838 18.2891 35.938L35.9355 18.2909C36.0813 18.1442 36.0813 17.906 35.9355 17.7597L25.5535 7.37759C25.4083 7.23154 25.1695 7.23154 25.0224 7.37759L14.656 17.7394C14.6211 17.7746 14.5796 17.8025 14.5338 17.8216C14.4881 17.8406 14.439 17.8505 14.3895 17.8505C14.3399 17.8505 14.2909 17.8406 14.2451 17.8216C14.1994 17.8025 14.1579 17.7746 14.123 17.7394L14.1229 17.7392ZM95.5823 22.2045C95.1274 22.2045 94.7348 22.3676 94.4058 22.6953C94.081 23.0234 93.9151 23.4107 93.9151 23.8592C93.9151 24.5429 94.2619 25.0747 94.9507 25.4547C95.7061 25.6609 96.3133 25.5267 96.7703 25.0591C97.1006 24.729 97.2633 24.3333 97.2633 23.8721C97.2633 23.4053 97.1006 23.0151 96.7703 22.6955C96.4427 22.3697 96.049 22.2069 95.5813 22.2069L95.5823 22.2049V22.2045ZM68.7659 9.51941H67.5217C66.9842 9.51941 66.5472 9.95324 66.5472 10.4907V11.1847C65.2237 9.8082 63.725 9.11961 62.0514 9.11961C60.1184 9.11961 58.5056 9.83891 57.2196 11.2735C55.93 12.7082 55.2877 14.5015 55.2877 16.6545C55.2877 18.8444 55.93 20.6727 57.2159 22.138C58.5161 23.5733 60.1555 24.2908 62.1413 24.2908C63.7118 24.2908 65.1814 23.6496 66.5473 22.3704V23.7426C66.5473 24.4091 67.0891 24.9509 67.7547 24.9509H69.879V10.6315C69.879 10.0188 69.3797 9.51941 68.7659 9.51941ZM65.6215 20.058C64.8644 20.9034 63.8732 21.3255 62.6437 21.3255C61.4921 21.3255 60.5381 20.8885 59.7837 20.0145C59.0448 19.1511 58.6765 18.0276 58.6765 16.6524C58.6765 15.3659 59.0556 14.2824 59.8119 13.4087C60.5779 12.5431 61.5315 12.1127 62.672 12.1127C63.8812 12.1127 64.8626 12.5391 65.6197 13.3981C66.377 14.2719 66.7556 15.3807 66.7556 16.7276C66.7556 18.0745 66.377 19.1831 65.6197 20.0591L65.6218 20.0581L65.6215 20.058ZM55.2866 11.9423V10.5225C55.2866 9.96831 54.838 9.52187 54.2835 9.52187H52.9723C52.4199 9.52187 51.9704 9.96622 51.9704 10.5225V11.1427C50.7711 9.79494 49.2675 9.11983 47.4592 9.11983C45.3955 9.11983 43.7326 9.89846 42.4755 11.4494C41.3056 12.9115 40.7211 14.6921 40.7211 16.7858C40.7211 18.9378 41.3514 20.7332 42.61 22.1667C43.8583 23.5855 45.4597 24.289 47.4158 24.289C49.1337 24.289 50.6532 23.6184 51.9703 22.2714V24.2764C51.9703 27.2556 50.757 28.7452 48.3302 28.7452C47.0127 28.7452 46.0119 28.2967 45.3241 27.4017C45.1487 27.1752 45.003 26.8918 44.8872 26.5532C44.7246 26.0792 44.2739 25.7639 43.7745 25.7639H42.5176C41.8837 25.7639 41.4126 26.367 41.5729 26.9806C41.9167 28.286 42.5805 29.3483 43.5688 30.1703C44.807 31.2031 46.3854 31.7206 48.3005 31.7206C50.5704 31.7206 52.3546 30.9715 53.6528 29.4797C54.3406 28.7031 54.8008 27.7742 55.0373 26.693C55.1161 26.3016 55.1778 25.8458 55.2213 25.3283C55.2646 24.8141 55.2861 24.2173 55.2861 23.5382V21.4519C54.358 20.1135 53.8909 18.5149 53.8909 16.6529C53.8909 14.8236 54.3571 13.2568 55.2861 11.9438V11.9427L55.2866 11.9423ZM51.0853 19.9448C50.3486 20.8652 49.3476 21.3254 48.0781 21.3254C46.8102 21.3254 45.8178 20.8681 45.0989 19.9532C44.4418 19.1196 44.1127 18.0466 44.1127 16.7412C44.1127 15.4134 44.4417 14.3322 45.0989 13.4976C45.828 12.5654 46.8192 12.099 48.0781 12.099C49.2568 12.099 50.2253 12.5262 50.9811 13.3801C51.7284 14.2149 52.1034 15.3303 52.1034 16.7278C52.1034 18.0343 51.7633 19.105 51.0852 19.9429V19.9451L51.0853 19.9448ZM82.8601 9.53001V9.51949H75.9811V5.30764C75.9811 4.76603 75.5432 4.32694 75.0004 4.32694H73.6576C73.1096 4.32694 72.6651 4.7713 72.6651 5.31939V9.51956H71.2489V12.6131H72.6633V24.9491H74.5548C74.7419 24.9495 74.9273 24.9129 75.1003 24.8415C75.2732 24.7701 75.4304 24.6652 75.5628 24.5329C75.6951 24.4005 75.8 24.2434 75.8714 24.0704C75.9429 23.8975 75.9795 23.7121 75.9791 23.5249V12.6151H79.3805C79.6472 12.103 79.9767 11.626 80.3612 11.1952C81.0659 10.4272 81.8994 9.87063 82.858 9.53001H82.8602H82.8601ZM99.7854 4.32687C99.1972 4.32687 98.6914 4.53852 98.2683 4.96168C97.8472 5.38369 97.6334 5.88629 97.6334 6.46502C97.6334 7.07568 97.8453 7.58758 98.2683 8.01406C98.6914 8.43607 99.2035 8.64671 99.8023 8.64671C100.402 8.64671 100.907 8.43614 101.318 8.01284C101.74 7.58758 101.955 7.07986 101.955 6.47994C101.955 5.88204 101.743 5.37439 101.319 4.96392C100.895 4.53867 100.384 4.32687 99.7854 4.32687ZM100.457 11.1444H99.2543C98.6376 11.1444 98.135 11.6439 98.135 12.2638V22.7948C98.3888 23.0922 98.5095 23.4424 98.5095 23.8496C98.5095 24.2569 98.3888 24.6112 98.135 24.9108V25.5034H100.27C100.924 25.5034 101.453 24.9733 101.453 24.3183V12.1369C101.453 11.5887 101.007 11.1444 100.456 11.1444H100.457ZM116.046 13.1781C114.553 11.7147 112.734 10.9826 110.592 10.9826C108.459 10.9826 106.649 11.7085 105.166 13.1653C103.683 14.6189 102.94 16.3837 102.94 18.4573C102.94 20.6579 103.666 22.4861 105.122 23.9418C106.578 25.4146 108.382 26.1519 110.532 26.1519C112.703 26.1519 114.537 25.4303 116.032 23.9851C117.513 22.5282 118.258 20.7275 118.258 18.5747C118.258 16.4407 117.52 14.6421 116.046 13.1758V13.1781ZM113.7 21.9359C112.925 22.7727 111.889 23.1864 110.592 23.1864C109.302 23.1864 108.266 22.7664 107.479 21.9189C106.713 21.0853 106.329 19.947 106.329 18.5144C106.329 17.1793 106.725 16.0874 107.511 15.2431C108.296 14.3988 109.322 13.9745 110.592 13.9745C111.877 13.9745 112.915 14.3988 113.7 15.2431C114.477 16.0767 114.866 17.1941 114.866 18.5864C114.866 19.985 114.476 21.0979 113.7 21.9337V21.9359Z" fill="#A1A1A1"/>
<path d="M84.0961 21.356C83.4125 20.6639 83.0307 19.7203 82.9427 18.5417H92.4497C92.8835 18.5417 93.2412 18.1947 93.2474 17.762C93.2474 15.389 92.6379 13.5395 91.4203 12.2021C90.19 10.8566 88.5181 10.1836 86.4064 10.1836C84.3159 10.1836 82.6339 10.8776 81.3666 12.2615C80.1075 13.6686 79.479 15.5051 79.479 17.7756C79.479 20.0652 80.1287 21.9038 81.4236 23.2879C82.3291 24.2505 83.4391 24.8746 84.7562 25.1656C85.3085 25.2956 85.882 25.3633 86.4606 25.3548C88.823 25.4036 90.8764 25.4522 93.2379 25.5009L93.2413 25.1549C92.9522 24.8408 92.8073 24.462 92.8073 24.0196C92.8073 23.5902 92.9587 23.221 93.2535 22.9015L93.2557 22.4815C91.3916 22.4349 86.8784 22.3904 86.6986 22.3904C85.6406 22.3904 84.7708 22.0487 84.0961 21.358V21.356H84.0961ZM83.6346 14.7246C83.8433 14.4008 84.0898 14.1236 84.3807 13.893C84.6716 13.6592 84.9913 13.4845 85.3467 13.3619C85.7 13.2391 86.0787 13.1777 86.4827 13.1777C88.2497 13.1777 89.3648 14.0612 89.8302 15.8291H83.1641C83.2728 15.4174 83.4295 15.0493 83.6346 14.7245V14.7246Z" fill="#A1A1A1"/>
</svg>
