<svg width="27" height="30" viewBox="0 0 27 30" fill="none" xmlns="http://www.w3.org/2000/svg">
<g filter="url(#filter0_d_3424_591)">
<path d="M3.6499 3.98485V21.8939C3.6499 23.5424 4.98627 24.8788 6.63475 24.8788H22.4544C22.949 24.8788 23.3499 24.4779 23.3499 23.9833C23.3499 23.4888 22.949 23.0879 22.4544 23.0879H6.63475C5.97536 23.0879 5.44081 22.5534 5.44081 21.8939H22.4544C22.949 21.8939 23.3499 21.493 23.3499 20.9985V3.98485C23.3499 2.33636 22.0135 1 20.3651 1H6.63475C4.98627 1 3.6499 2.33636 3.6499 3.98485ZM12.6044 12.6409V6.67121C12.6044 6.17667 13.0054 5.77576 13.4999 5.77576C13.9944 5.77576 14.3954 6.17667 14.3954 6.67121V12.6409C14.3954 13.1354 13.9944 13.5364 13.4999 13.5364C13.0054 13.5364 12.6044 13.1354 12.6044 12.6409ZM14.6938 15.9242C14.6938 16.5837 14.1593 17.1182 13.4999 17.1182C12.8405 17.1182 12.306 16.5837 12.306 15.9242C12.306 15.2648 12.8405 14.7303 13.4999 14.7303C14.1593 14.7303 14.6938 15.2648 14.6938 15.9242Z" fill="url(#paint0_linear_3424_591)"/>
</g>
<defs>
<filter id="filter0_d_3424_591" x="0.649902" y="0" width="25.7002" height="29.8788" filterUnits="userSpaceOnUse" color-interpolation-filters="sRGB">
<feFlood flood-opacity="0" result="BackgroundImageFix"/>
<feColorMatrix in="SourceAlpha" type="matrix" values="0 0 0 0 0 0 0 0 0 0 0 0 0 0 0 0 0 0 127 0" result="hardAlpha"/>
<feOffset dy="2"/>
<feGaussianBlur stdDeviation="1.5"/>
<feComposite in2="hardAlpha" operator="out"/>
<feColorMatrix type="matrix" values="0 0 0 0 0.945098 0 0 0 0 0.164706 0 0 0 0 0.137255 0 0 0 0.25 0"/>
<feBlend mode="normal" in2="BackgroundImageFix" result="effect1_dropShadow_3424_591"/>
<feBlend mode="normal" in="SourceGraphic" in2="effect1_dropShadow_3424_591" result="shape"/>
</filter>
<linearGradient id="paint0_linear_3424_591" x1="13.4999" y1="1" x2="13.4999" y2="24.8788" gradientUnits="userSpaceOnUse">
<stop stop-color="#F12A23"/>
<stop offset="1" stop-color="#B61610"/>
</linearGradient>
</defs>
</svg>
