<svg width="120" height="19" viewBox="0 0 120 19" fill="none" xmlns="http://www.w3.org/2000/svg">
<path d="M11.1558 0.0234272C13.2191 -0.104471 15.3174 0.292687 17.1709 1.18124C19.9056 2.47369 22.0808 4.80952 23.109 7.5627C23.5636 8.7811 23.8084 10.0668 23.8084 11.3593V16.1588C23.8084 16.354 23.8154 16.556 23.7664 16.7444C23.6545 17.2291 23.2978 17.6532 22.8222 17.8619C22.4935 18.01 22.1158 18.0302 21.7661 17.9763C21.0037 17.8417 20.4162 17.1551 20.4092 16.4146C20.4022 14.9269 20.4092 13.4393 20.4092 11.9449C20.4232 11.5208 20.4232 11.0698 20.1854 10.6996C19.8007 10.013 18.8635 9.68312 18.1151 9.9793C17.4786 10.1947 17.017 10.814 17.01 11.467C17.003 12.9815 17.01 14.4894 17.01 15.9973C17.01 16.28 17.024 16.5694 16.94 16.8387C16.7792 17.3705 16.3176 17.8013 15.765 17.9494C15.0376 18.1446 14.2053 17.835 13.8346 17.1887C13.5828 16.7983 13.6038 16.3271 13.6108 15.8963C13.6038 14.3952 13.6178 12.894 13.6038 11.3929C13.5898 10.6323 12.9393 9.94564 12.149 9.84467C11.6384 9.77063 11.0999 9.93218 10.7292 10.2822C10.3934 10.5851 10.2046 11.0227 10.2046 11.467V15.8424C10.1976 16.2127 10.2466 16.5896 10.0997 16.9329C9.87587 17.559 9.21841 18.0167 8.52598 17.9965C7.81956 18.0369 7.12713 17.5657 6.90331 16.9262C6.77742 16.6098 6.8054 16.2732 6.8054 15.9367C6.8054 14.4288 6.81239 12.921 6.8054 11.4064C6.7984 10.6592 6.1969 9.9793 5.43452 9.84467C4.74909 9.70331 3.98672 10.0399 3.637 10.639C3.49013 10.8881 3.41319 11.1775 3.41319 11.4602V16.3608C3.42018 16.8387 3.18937 17.3099 2.81168 17.6128C2.23816 18.0975 1.30792 18.1244 0.699424 17.6801C0.258787 17.3907 0 16.8993 0 16.3877V11.4266C0.00699424 9.54849 0.496591 7.67713 1.42682 6.02792C2.1892 4.68162 3.23134 3.47668 4.48331 2.52081C6.37175 1.04661 8.73581 0.164788 11.1558 0.0234272Z" fill="#A2A2A2"/>
<path d="M57.5139 5.77889C56.6466 5.77889 55.8143 5.77889 54.933 5.77889C55.0239 4.03543 55.4016 2.46699 57.0592 1.47746C58.7029 0.494667 60.5144 0.272528 62.3958 0.420621C63.417 0.501399 64.4102 0.710075 65.3474 1.12743C66.9911 1.85443 67.8024 3.09975 67.8024 4.82975C67.8094 7.8993 67.8024 10.9756 67.8024 14.0452C67.8024 15.176 68.0402 15.3847 69.2152 15.2703C69.3411 15.2568 69.467 15.2366 69.5999 15.2164C69.6139 15.277 69.6279 15.3241 69.6279 15.3713C69.6279 15.9838 69.6279 16.5964 69.6279 17.2359C68.6906 17.5388 67.7534 17.633 66.8092 17.3907C66.1238 17.209 65.6831 16.731 65.4453 16.0983C65.3264 15.7751 65.2565 15.4386 65.1446 15.0616C65.0467 15.1693 64.9627 15.2703 64.8648 15.3578C62.8295 17.3436 60.4025 18.1783 57.5488 17.4849C55.5275 16.9935 54.1287 15.2097 54.0797 13.197C54.0657 12.5508 54.1217 11.8911 54.2825 11.265C54.6532 9.81105 55.7233 8.93595 57.0872 8.35031C58.0454 7.93296 59.0666 7.8118 60.0947 7.69063C61.2977 7.54254 62.5008 7.40117 63.7038 7.23962C64.5221 7.13192 64.9347 6.71456 65.0606 5.92025C65.3194 4.34508 64.592 3.2815 62.9903 2.90454C62.0391 2.6824 61.0669 2.64201 60.1017 2.81703C58.6749 3.0661 57.8776 3.84022 57.5978 5.20671C57.5838 5.38173 57.5558 5.56348 57.5139 5.77889ZM65.1166 8.82825C63.9276 9.44755 62.7735 9.59564 61.6125 9.76393C60.6333 9.91202 59.6401 10.0466 58.7029 10.3428C57.4439 10.74 56.8844 11.7363 56.9893 13.0691C57.0802 14.1798 57.8706 15.0751 59.1086 15.2703C61.032 15.5799 62.7386 15.0683 64.0815 13.6951C64.4731 13.298 64.7879 12.7191 64.8718 12.1805C65.0467 11.1102 65.0397 10.013 65.1166 8.82825Z" fill="#A2A2A2"/>
<path d="M101.857 12.0324C101.794 12.3016 101.759 12.5305 101.689 12.7459C100.57 16.0039 98.3251 17.4108 95.5903 17.7003C90.8482 18.2051 88.1414 15.2164 87.442 12.0458C86.8895 9.52825 86.9664 7.02414 88.1135 4.65465C89.1976 2.4198 90.9461 0.945602 93.548 0.508055C96.6534 -0.0170011 101.067 1.45719 101.808 6.14231C101.997 7.34725 102.039 8.57911 102.158 9.85136C98.0803 9.85136 94.1145 9.85136 90.1068 9.85136C90.2117 11.5679 90.4915 13.17 91.7924 14.422C92.331 14.9404 93.0234 15.1894 93.7718 15.3106C96.2198 15.7212 98.2271 14.5971 99.0245 12.342C99.1084 12.0997 99.2203 12.0256 99.4791 12.0324C100.255 12.0458 101.032 12.0324 101.857 12.0324ZM90.2047 7.64343C93.2193 7.64343 96.2128 7.64343 99.2273 7.64343C99.1294 6.64044 98.9406 5.69803 98.4579 4.82294C97.9893 3.97477 97.2899 3.36894 96.3387 3.05929C93.2193 2.02937 89.9949 4.42578 90.2047 7.64343Z" fill="#A2A2A2"/>
<path d="M108.348 17.1551C107.41 17.1551 106.522 17.1551 105.606 17.1551C105.606 11.6959 105.606 6.25011 105.606 0.784146C106.466 0.784146 107.32 0.784146 108.208 0.784146C108.208 1.52461 108.208 2.23815 108.208 3.07958C108.404 2.86418 108.53 2.72955 108.648 2.60165C110.509 0.555275 112.859 0.0167564 115.517 0.649516C117.37 1.08706 118.398 2.34585 118.748 4.1095C118.895 4.82977 118.979 5.57023 118.986 6.30397C119.014 9.8178 119 13.3316 119 16.8455C119 16.9397 118.986 17.0407 118.979 17.1551C118.056 17.1551 117.139 17.1551 116.174 17.1551C116.174 16.9936 116.174 16.8522 116.174 16.7108C116.174 13.4326 116.195 10.1476 116.16 6.86941C116.153 6.14241 116.048 5.39522 115.832 4.70187C115.475 3.55079 114.524 2.93822 113.272 2.89783C110.999 2.82379 109.187 3.9816 108.634 5.94047C108.439 6.64054 108.376 7.39447 108.369 8.1282C108.341 10.9756 108.355 13.8298 108.348 16.6772C108.348 16.8186 108.348 16.9666 108.348 17.1551Z" fill="#A2A2A2"/>
<path d="M72.2789 0.78425C73.1811 0.78425 74.0344 0.78425 74.9227 0.78425C74.9227 3.06623 74.9227 5.34147 74.9227 7.71768C75.0905 7.56286 75.1885 7.48208 75.2864 7.39457C77.4476 5.27415 79.6158 3.147 81.77 1.01985C81.9519 0.838102 82.1337 0.757324 82.3995 0.757324C83.4137 0.770787 84.4348 0.764056 85.5539 0.764056C85.4001 0.91888 85.3161 1.01312 85.2252 1.10736C83.3228 2.94506 81.4273 4.78275 79.5109 6.61372C79.2941 6.81566 79.2871 6.95029 79.441 7.19263C81.5183 10.3766 83.5815 13.5606 85.6518 16.7513C85.7288 16.8658 85.7987 16.9802 85.8966 17.1485C85.7568 17.162 85.6518 17.1754 85.5469 17.1754C84.6027 17.1754 83.6585 17.1687 82.7143 17.1822C82.4555 17.1889 82.3296 17.0946 82.2037 16.8927C80.623 14.328 79.0283 11.77 77.4406 9.20534C77.3707 9.09091 77.2937 8.9832 77.2028 8.84857C76.4684 9.54865 75.755 10.2285 75.0486 10.9286C74.9576 11.0161 74.9367 11.1911 74.9367 11.3325C74.9297 13.1298 74.9297 14.9204 74.9297 16.7177C74.9297 16.8523 74.9297 16.9869 74.9297 17.1822C74.4051 17.1822 73.9015 17.1889 73.3979 17.1822C73.0342 17.1754 72.5516 17.2697 72.3418 17.0879C72.1599 16.9264 72.2719 16.4417 72.2719 16.0984C72.2719 11.1575 72.2719 6.21656 72.2719 1.27565C72.2789 1.11409 72.2789 0.959269 72.2789 0.78425Z" fill="#A2A2A2"/>
<path d="M41.8187 0.7638C39.6715 2.81017 37.5872 4.80942 35.4889 6.80868C37.7411 10.2821 39.9443 13.6815 42.1964 17.155C42.0146 17.1617 41.9027 17.1752 41.7838 17.1752C40.8675 17.1752 39.9443 17.1684 39.028 17.1819C38.7622 17.1886 38.6154 17.0944 38.4825 16.879C36.9018 14.3143 35.3071 11.7563 33.7194 9.19162C33.6564 9.08392 33.5865 8.98295 33.4816 8.82139C33.0759 9.22528 32.7262 9.6561 32.2856 9.97248C31.3973 10.6187 31.1315 11.4265 31.2015 12.4833C31.2924 13.8767 31.2224 15.2836 31.2224 16.6838C31.2224 16.8319 31.2224 16.9732 31.2224 17.1415C30.3342 17.1415 29.4809 17.1415 28.5996 17.1415C28.5996 11.6957 28.5996 6.24996 28.5996 0.777263C29.4599 0.777263 30.3062 0.777263 31.2085 0.777263C31.2085 3.05924 31.2085 5.33448 31.2085 7.60972C31.2644 7.64338 31.3204 7.68377 31.3763 7.71743C31.4463 7.60299 31.4882 7.46163 31.5792 7.37412C33.7264 5.2537 35.8876 3.14675 38.0348 1.02633C38.2237 0.837846 38.4125 0.743605 38.6993 0.750337C39.5946 0.770531 40.4898 0.757068 41.3781 0.757068C41.504 0.7638 41.6299 0.7638 41.8187 0.7638Z" fill="#A2A2A2"/>
<path d="M47.0574 3.47645C48.3863 1.60509 49.7992 0.0433864 52.422 0.494396C52.422 1.45027 52.422 2.39941 52.422 3.2947C51.7226 3.34182 51.0372 3.32162 50.3867 3.44952C48.771 3.77263 47.5261 5.19298 47.2813 6.90277C47.2323 7.23935 47.2113 7.58939 47.2113 7.93269C47.2043 10.8542 47.2113 13.7824 47.2113 16.7038C47.2113 16.8452 47.2113 16.9933 47.2113 17.1548C46.2811 17.1548 45.3998 17.1548 44.4766 17.1548C44.4766 11.7023 44.4766 6.26328 44.4766 0.790582C45.3229 0.790582 46.1692 0.790582 47.0644 0.790582C47.0574 1.66568 47.0574 2.52731 47.0574 3.47645Z" fill="#A2A2A2"/>
</svg>
