<svg width="129" height="29" viewBox="0 0 129 29" fill="none" xmlns="http://www.w3.org/2000/svg">
<path d="M8.34202 28.5561C4.1264 28.5561 0 25.5203 0 18.6675C0 11.7924 4.1264 8.80127 8.34202 8.80127C10.4164 8.80127 12.0446 9.33699 13.2045 10.0959L11.9331 12.8862C11.1524 12.3281 9.99258 11.971 8.83273 11.971C6.28997 11.971 3.97027 13.9799 3.97027 18.6229C3.97027 23.2658 6.35689 25.3194 8.83273 25.3194C9.99258 25.3194 11.1524 24.9622 11.9331 24.4042L13.2045 27.2614C12 28.065 10.4164 28.5561 8.34202 28.5561Z" fill="#A1A1A1"/>
<path d="M22.8625 28.5561C17.4871 28.5561 14.5205 24.2926 14.5205 18.6675C14.5205 13.0424 17.4648 8.80127 22.8625 8.80127C28.238 8.80127 31.2046 13.0201 31.2046 18.6675C31.2046 24.2926 28.238 28.5561 22.8625 28.5561ZM22.8625 11.8594C19.8737 11.8594 18.4016 14.538 18.4016 18.6229C18.4016 22.7077 19.8737 25.4087 22.8625 25.4087C25.8514 25.4087 27.3235 22.7077 27.3235 18.6229C27.3235 14.538 25.8514 11.8594 22.8625 11.8594Z" fill="#A1A1A1"/>
<path d="M36.3794 5.74324C35.1081 5.74324 34.082 4.76108 34.082 3.5557C34.082 2.35032 35.1081 1.36816 36.3794 1.36816C37.6508 1.36816 38.6768 2.35032 38.6768 3.5557C38.6768 4.76108 37.6285 5.74324 36.3794 5.74324ZM34.4389 9.18079H38.32V28.1543H34.4389V9.18079Z" fill="#A1A1A1"/>
<path d="M53.5319 28.1543V15.4978C53.5319 13.2879 52.1936 11.904 49.5616 11.904C48.1564 11.904 46.8627 12.1495 46.082 12.462V28.1766H42.2456V10.1406C44.1415 9.35931 46.5728 8.80127 49.5393 8.80127C54.8479 8.80127 57.4129 11.1227 57.4129 15.1407V28.1766H53.5319" fill="#A1A1A1"/>
<path d="M67.6058 28.5562C65.1522 28.5562 62.721 27.9535 61.2266 27.2169V0.52002H65.063V9.67195C65.9775 9.24784 67.4496 8.89069 68.7656 8.89069C73.6504 8.89069 76.9738 12.4175 76.9738 18.2212C76.9738 25.3865 73.2712 28.5562 67.6058 28.5562ZM68.0965 11.9041C67.0481 11.9041 65.7991 12.1497 65.063 12.5291V24.9847C65.6206 25.2302 66.7136 25.4758 67.8065 25.4758C70.8623 25.4758 73.1151 23.3552 73.1151 18.5114C73.1374 14.3595 71.1745 11.9041 68.0965 11.9041Z" fill="#A1A1A1"/>
<path d="M87.4128 28.5561C81.9704 28.5561 79.2046 26.3462 79.2046 22.5961C79.2046 17.3059 84.8254 16.3684 90.5578 16.0559V14.8505C90.5578 12.462 88.9741 11.6138 86.5429 11.6138C84.7585 11.6138 82.5726 12.1719 81.3012 12.7745L80.3198 10.1406C81.8366 9.47092 84.4016 8.80127 86.9444 8.80127C91.4723 8.80127 94.2381 10.5647 94.2381 15.2523V27.2167C92.8775 27.9534 90.0894 28.5561 87.4128 28.5561ZM90.5801 18.6229C86.699 18.8238 82.8403 19.1586 82.8403 22.5292C82.8403 24.5381 84.3793 25.7658 87.3013 25.7658C88.528 25.7658 89.9778 25.5649 90.5801 25.2748V18.6229Z" fill="#A1A1A1"/>
<path d="M102.892 28.5561C100.684 28.5561 98.3643 27.9534 96.9814 27.2167L98.2751 24.2703C99.2565 24.873 101.331 25.498 102.781 25.498C104.855 25.498 106.238 24.4712 106.238 22.8863C106.238 21.1675 104.788 20.4979 102.87 19.7836C100.327 18.8238 97.4945 17.663 97.4945 14.1139C97.4945 10.9888 99.9257 8.80127 104.141 8.80127C106.439 8.80127 108.335 9.35931 109.673 10.1406L108.468 12.8192C107.621 12.2835 105.926 11.7031 104.565 11.7031C102.558 11.7031 101.442 12.7522 101.442 14.1362C101.442 15.855 102.848 16.4576 104.721 17.1719C107.353 18.1541 110.275 19.2479 110.275 22.9533C110.253 26.3239 107.643 28.5561 102.892 28.5561Z" fill="#A1A1A1"/>
<path d="M128.967 18.5781L116.365 20.3415C116.744 23.7567 118.974 25.4755 122.164 25.4755C124.06 25.4755 126.112 25.0068 127.405 24.3148L128.521 27.1943C127.049 27.9756 124.506 28.5336 121.896 28.5336C115.918 28.5336 112.573 24.6942 112.573 18.645C112.573 12.8414 115.807 8.77881 121.116 8.77881C126.045 8.77881 128.967 12.0155 128.967 17.1272C129.011 17.5959 129.011 18.087 128.967 18.5781ZM121.093 11.6137C118.149 11.6137 116.208 13.8682 116.142 17.8191L125.331 16.5468C125.287 13.2432 123.614 11.6137 121.093 11.6137Z" fill="#A1A1A1"/>
</svg>
