<svg width="149" height="30" viewBox="0 0 149 30" fill="none" xmlns="http://www.w3.org/2000/svg">
<path d="M9.06667 12.6063L14.8245 6.78045L20.5854 12.6093L23.9357 9.21934L14.8245 0L5.71637 9.21626L9.06667 12.6063ZM3.3503 11.6097L6.7006 14.9994L3.3503 18.3896L0 14.9996L3.3503 11.6097ZM9.06667 17.3937L14.8245 23.2195L20.5851 17.3909L23.9373 20.779L23.9357 20.7809L14.8245 30L5.71614 20.784L5.71146 20.7792L9.06667 17.3937ZM29.6492 15.0011L26.2992 18.3911L22.9486 15.0013L26.2989 11.6111L29.6492 15.0011Z" fill="#A1A1A1"/>
<path d="M18.223 14.9983H18.2244L14.8247 11.5583L12.3123 14.1005H12.312L12.0235 14.3926L11.428 14.9952L11.4233 14.9999L11.428 15.0049L14.8247 18.4418L18.2244 15.0018L18.226 14.9999L18.223 14.9983ZM34.8724 7.26931H42.1591C43.9676 7.26931 45.3352 7.73893 46.2621 8.67819C46.9793 9.40561 47.3378 10.3072 47.3378 11.3827V11.4282C47.3378 11.8827 47.2823 12.2843 47.1706 12.6326C47.0661 12.9665 46.9158 13.284 46.7241 13.5756C46.543 13.8508 46.3253 14.0993 46.0771 14.3142C45.8337 14.5251 45.568 14.708 45.2849 14.8596C46.1939 15.2084 46.9095 15.6816 47.4313 16.2801C47.9528 16.8789 48.2139 17.7084 48.2139 18.7688V18.814C48.2139 19.5415 48.0757 20.1777 47.7992 20.7234C47.5226 21.2686 47.1264 21.7233 46.6105 22.087C46.0946 22.4507 45.4743 22.7232 44.7493 22.9052C44.0243 23.0869 43.2209 23.1776 42.3392 23.1776H34.8724V7.26931ZM41.4306 13.7007C42.1945 13.7007 42.801 13.5685 43.2499 13.3031C43.6991 13.038 43.9236 12.6098 43.9236 12.0191V11.9736C43.9236 11.4436 43.7288 11.0384 43.3396 10.7579C42.9502 10.4776 42.3886 10.3373 41.6552 10.3373H38.2412V13.7007H41.4306ZM42.3516 20.1099C43.1153 20.1099 43.7138 19.9701 44.1484 19.6896C44.5826 19.4092 44.7999 18.9735 44.7999 18.3826V18.3373C44.7999 17.807 44.5976 17.3867 44.1934 17.0758C43.789 16.7656 43.1377 16.6102 42.2392 16.6102H38.2412V20.1101H42.3516V20.1099ZM52.5536 7.26931H56.0128V23.1781H52.5536V7.26931ZM61.2519 7.26931H64.4408L71.8081 17.0647V7.26931H75.2221V23.1781H72.28L64.6656 13.0648V23.1781H61.2519V7.26931ZM85.6943 7.15581H88.8835L95.622 23.1781H92.0057L90.5681 19.6102H83.9197L82.4824 23.1781H78.9555L85.6943 7.15581ZM89.3329 16.519L87.2438 11.3602L85.1555 16.519H89.3329ZM99.3559 7.26931H102.546L109.912 17.0647V7.26931H113.326V23.1781H110.384L102.77 13.0648V23.1781H99.3559V7.26931ZM125.775 23.4506C124.621 23.4506 123.551 23.2383 122.563 22.8144C121.574 22.3905 120.721 21.8107 120.002 21.0757C119.283 20.3409 118.722 19.4735 118.318 18.4735C117.914 17.4734 117.711 16.4052 117.711 15.2688V15.2236C117.711 14.0872 117.914 13.0231 118.318 12.0305C118.722 11.0382 119.283 10.1669 120.002 9.41699C120.721 8.66705 121.582 8.07587 122.585 7.64416C123.588 7.21244 124.697 6.99658 125.91 6.99658C126.643 6.99658 127.313 7.05748 127.919 7.17832C128.526 7.29987 129.076 7.46621 129.57 7.67828C130.054 7.88451 130.513 8.14361 130.941 8.45096C131.356 8.75146 131.747 9.08597 132.108 9.45111L129.908 12.0191C129.293 11.4588 128.668 11.019 128.032 10.701C127.395 10.383 126.681 10.2238 125.887 10.2238C125.228 10.2238 124.618 10.3527 124.057 10.6102C123.505 10.8602 123.012 11.2239 122.608 11.6782C122.204 12.1326 121.889 12.6594 121.664 13.2576C121.44 13.8564 121.328 14.4964 121.328 15.1781V15.2234C121.328 15.9051 121.44 16.5493 121.664 17.1549C121.889 17.7613 122.199 18.2913 122.597 18.7458C122.993 19.2003 123.472 19.5604 124.034 19.8256C124.596 20.0909 125.213 20.2232 125.887 20.2232C126.786 20.2232 127.545 20.0566 128.166 19.7232C128.788 19.3903 129.406 18.9356 130.02 18.3596L132.221 20.6096C131.831 21.0348 131.411 21.4298 130.963 21.7913C130.522 22.1439 130.044 22.4451 129.536 22.6893C129.02 22.939 128.454 23.1288 127.841 23.2573C127.227 23.3859 126.538 23.4506 125.775 23.4506ZM136.292 7.26931H148.128V10.383H139.706V13.6102H147.118V16.7237H139.706V20.0646H148.241V23.1781H136.292V7.26931Z" fill="#A1A1A1"/>
</svg>
