<svg width="29" height="31" viewBox="0 0 29 31" fill="none" xmlns="http://www.w3.org/2000/svg">
<mask id="path-1-outside-1_3433_515" maskUnits="userSpaceOnUse" x="0" y="0" width="29" height="31" fill="black">
<rect fill="white" width="29" height="31"/>
<path d="M26.814 15.0999C27.6112 14.263 28.536 12.5404 27.6843 10.7379C27.0487 9.39314 25.717 9.06546 24.8925 8.99609C24.9843 8.85733 25.0633 8.71055 25.1285 8.55754C25.4841 7.72008 25.3596 6.83369 24.7767 6.06251C23.7683 4.72704 22.107 5.0095 21.1079 5.35018C21.6908 3.57616 20.5324 1.99231 19.4355 1.39209C18.7981 1.04211 17.296 0.741077 15.7753 1.34749C14.8369 1.71914 13.5832 2.58633 12.9402 4.59325C12.7464 5.19557 12.6136 5.81583 12.5438 6.4447H9.45907C9.37954 6.02386 9.14583 5.64786 8.80367 5.39027C8.46151 5.13268 8.03553 5.01205 7.60912 5.05199C7.1827 5.09193 6.78654 5.28956 6.49816 5.60621C6.20979 5.92286 6.04996 6.33573 6.04996 6.76401C6.04996 7.19229 6.20979 7.60516 6.49816 7.9218C6.78654 8.23845 7.1827 8.43608 7.60912 8.47602C8.03553 8.51596 8.46151 8.39533 8.80367 8.13774C9.14583 7.88016 9.37954 7.50415 9.45907 7.08332H12.4942C12.3964 9.43711 13.2152 11.1783 13.4624 11.6466C13.3632 12.0393 13.2934 12.4389 13.2536 12.8421H10.2761L7.29668 11.4694C7.46538 11.0747 7.48081 10.6313 7.33996 10.2258C7.19911 9.82034 6.91209 9.48197 6.53503 9.27685C6.15796 9.07173 5.71796 9.01462 5.30102 9.11666C4.88408 9.21871 4.52019 9.47258 4.28047 9.82865C4.04076 10.1847 3.94246 10.6174 4.00479 11.0421C4.06712 11.4668 4.2856 11.853 4.61752 12.1252C4.94944 12.3973 5.37094 12.5359 5.79962 12.5139C6.22829 12.4918 6.63333 12.3107 6.93556 12.0058L10.0729 13.451C10.1147 13.4702 10.1601 13.4802 10.2061 13.4801H13.2208C13.2208 13.5327 13.2208 13.5854 13.2208 13.6386C13.2113 14.3209 13.3207 14.9996 13.5441 15.6443H4.41947C4.36153 15.2205 4.14754 14.8336 3.81937 14.5592C3.4912 14.2848 3.07246 14.1428 2.64509 14.1609C2.21772 14.1789 1.81247 14.3558 1.50863 14.6569C1.20479 14.958 1.02423 15.3616 1.00227 15.7888C0.980307 16.216 1.11853 16.636 1.3899 16.9667C1.66126 17.2973 2.04624 17.5148 2.4695 17.5766C2.89276 17.6384 3.32386 17.5401 3.67843 17.3008C4.03301 17.0615 4.28555 16.6986 4.38664 16.2829H13.8303C13.9241 16.4526 14.0303 16.6151 14.1481 16.7692C13.9344 17.0696 13.6005 17.6822 13.3961 18.7662H8.37261C8.32056 18.7666 8.26938 18.7796 8.22351 18.8042C8.17764 18.8288 8.13845 18.8643 8.10936 18.9074L6.83955 20.7539C6.44009 20.595 5.99569 20.5908 5.59335 20.7423C5.19101 20.8938 4.8597 21.1901 4.66431 21.573C4.46891 21.956 4.4235 22.3981 4.53695 22.8127C4.65041 23.2274 4.91457 23.5848 5.2777 23.815C5.64084 24.0451 6.0768 24.1314 6.50023 24.057C6.92366 23.9826 7.30406 23.7528 7.56695 23.4126C7.82984 23.0724 7.95629 22.6463 7.92154 22.2178C7.88679 21.7893 7.69333 21.3892 7.37906 21.0958L8.54047 19.403H13.2995C13.2437 19.8917 13.2166 20.3834 13.2183 20.8753C13.2183 22.0522 13.4116 22.8655 13.6687 23.4298H11.9343C11.8754 23.4298 11.8176 23.4462 11.7675 23.477C11.7173 23.5078 11.6766 23.552 11.65 23.6045L10.1466 26.5579H7.68196C7.60243 26.1369 7.36864 25.7607 7.02636 25.503C6.68408 25.2453 6.25795 25.1246 5.83137 25.1646C5.40479 25.2045 5.00847 25.4022 4.71998 25.719C4.43149 26.0357 4.2716 26.4487 4.2716 26.8772C4.2716 27.3056 4.43149 27.7187 4.71998 28.0354C5.00847 28.3522 5.40479 28.5499 5.83137 28.5898C6.25795 28.6298 6.68408 28.5091 7.02636 28.2514C7.36864 27.9937 7.60243 27.6175 7.68196 27.1965H10.3455C10.4044 27.1965 10.4621 27.1801 10.5123 27.1493C10.5625 27.1185 10.6031 27.0744 10.6298 27.0218L12.1331 24.0684H14.0583C14.2021 24.2494 14.376 24.4042 14.5724 24.5262C14.0806 24.9796 13.7126 25.6083 13.5857 26.4668C13.3596 28.0011 14.267 29.3162 15.893 29.8204C16.2814 29.9393 16.6853 29.9999 17.0916 30C18.1762 30 19.2701 29.5664 19.879 28.5685C20.8397 28.838 24.1449 29.4977 25.5776 26.3925C26.1295 25.197 26.093 23.9476 25.4996 22.8451C26.4083 22.593 28.3031 21.7301 28.4796 18.895C28.6184 16.6088 27.4693 15.526 26.814 15.0999ZM7.77239 7.8452C7.55833 7.84533 7.34905 7.78192 7.17105 7.66302C6.99305 7.54412 6.85434 7.37507 6.77248 7.17728C6.69062 6.97949 6.66929 6.76186 6.7112 6.55194C6.75312 6.34203 6.85638 6.14927 7.00792 5.99808C7.15945 5.84689 7.35245 5.74407 7.56246 5.70264C7.77247 5.66121 7.99006 5.68303 8.18766 5.76535C8.38526 5.84766 8.55399 5.98676 8.67248 6.16504C8.79097 6.34331 8.85389 6.55274 8.85328 6.76679C8.85214 7.05288 8.73781 7.32689 8.53528 7.52896C8.33275 7.73102 8.05848 7.84472 7.77239 7.8452ZM5.71406 11.8782C5.50016 11.8782 5.29106 11.8148 5.11321 11.696C4.93535 11.5771 4.79674 11.4082 4.71488 11.2106C4.63302 11.013 4.6116 10.7955 4.65333 10.5857C4.69507 10.376 4.79807 10.1833 4.94932 10.032C5.10057 9.88075 5.29328 9.77775 5.50307 9.73601C5.71286 9.69428 5.93032 9.7157 6.12794 9.79756C6.32556 9.87942 6.49446 10.018 6.6133 10.1959C6.73214 10.3737 6.79557 10.5828 6.79557 10.7967C6.79524 11.0835 6.68119 11.3584 6.47844 11.5611C6.27569 11.7639 6.00079 11.8779 5.71406 11.8782ZM2.71607 16.9575C2.50217 16.9575 2.29307 16.8941 2.11522 16.7752C1.93736 16.6564 1.79874 16.4875 1.71689 16.2899C1.63503 16.0922 1.61361 15.8748 1.65534 15.665C1.69707 15.4552 1.80008 15.2625 1.95133 15.1112C2.10258 14.96 2.29528 14.857 2.50508 14.8153C2.71487 14.7735 2.93232 14.7949 3.12994 14.8768C3.32756 14.9587 3.49647 15.0973 3.61531 15.2751C3.73415 15.453 3.79758 15.6621 3.79758 15.876C3.79708 16.1626 3.68296 16.4373 3.48023 16.64C3.2775 16.8426 3.00269 16.9565 2.71607 16.9569V16.9575ZM6.20836 23.4292C5.9944 23.4293 5.78522 23.366 5.60727 23.2472C5.42932 23.1284 5.29061 22.9595 5.20867 22.7618C5.12674 22.5642 5.10527 22.3467 5.14698 22.1368C5.18869 21.927 5.29171 21.7342 5.443 21.5829C5.59429 21.4317 5.78705 21.3286 5.9969 21.2869C6.20675 21.2452 6.42425 21.2667 6.6219 21.3486C6.81954 21.4306 6.98845 21.5693 7.10724 21.7472C7.22603 21.9252 7.28937 22.1343 7.28925 22.3483C7.28892 22.6349 7.17493 22.9096 6.9723 23.1122C6.76966 23.3149 6.49493 23.4289 6.20836 23.4292ZM5.9897 27.9578C5.77577 27.9578 5.56665 27.8943 5.38879 27.7755C5.21092 27.6566 5.0723 27.4877 4.99046 27.29C4.90862 27.0923 4.88724 26.8749 4.92902 26.665C4.9708 26.4552 5.07387 26.2625 5.22518 26.1113C5.37649 25.9601 5.56926 25.8571 5.77909 25.8155C5.98892 25.7738 6.2064 25.7953 6.40401 25.8773C6.60162 25.9592 6.77048 26.0979 6.88924 26.2759C7.00801 26.4538 7.07133 26.663 7.07121 26.8769C7.07121 27.1638 6.95731 27.439 6.75452 27.6421C6.55173 27.8451 6.27665 27.9593 5.9897 27.9596V27.9578ZM27.841 18.8523C27.6706 21.5777 25.735 22.1625 25.1347 22.2783C25.0583 22.1776 24.977 22.078 24.8907 21.9797C24.4196 21.4493 23.8388 21.0277 23.1885 20.744C23.55 20.1709 23.7268 19.5006 23.6952 18.8238C23.6438 17.6141 22.7785 17.0783 22.3275 16.9655C22.2454 16.9444 22.1582 16.9567 22.0851 16.9998C22.0121 17.0429 21.9591 17.1132 21.9379 17.1953C21.9167 17.2775 21.929 17.3647 21.9721 17.4378C22.0152 17.5108 22.0856 17.5638 22.1677 17.585C22.2024 17.5943 23.0145 17.8265 23.0578 18.8535C23.0889 19.4515 22.9159 20.0423 22.5672 20.5291C21.8506 20.3333 21.1153 20.3247 20.4612 20.5371C20.3807 20.5632 20.3139 20.6203 20.2754 20.6957C20.237 20.771 20.2301 20.8586 20.2562 20.9391C20.2823 21.0196 20.3393 21.0864 20.4147 21.1249C20.4901 21.1633 20.5777 21.1703 20.6582 21.1442C21.2423 20.9546 21.9076 20.98 22.5518 21.185C22.5744 21.1956 22.5984 21.2033 22.623 21.208C23.3139 21.4471 23.9316 21.8603 24.4162 22.4078C24.5308 22.5367 24.6369 22.6728 24.734 22.8153C24.7355 22.8177 24.7371 22.82 24.7389 22.8222C25.4172 23.8256 25.5163 25.005 24.9985 26.1268C23.5682 29.2239 19.9855 27.9441 19.8344 27.889C19.7601 27.8616 19.6784 27.8627 19.6049 27.8921C19.5315 27.9215 19.4715 27.9772 19.4367 28.0482C18.8259 29.3044 17.2873 29.5844 16.0832 29.2115C15.0884 28.9018 14.0031 28.0253 14.2193 26.5616C14.6405 23.7123 18.1873 24.1211 18.3378 24.1397C18.4218 24.1503 18.5065 24.1271 18.5734 24.0752C18.6402 24.0233 18.6837 23.947 18.6943 23.8631C18.7049 23.7792 18.6817 23.6944 18.6299 23.6276C18.578 23.5607 18.5017 23.5172 18.4177 23.5066C17.5574 23.3976 16.2176 23.4756 15.1596 24.0963C15.1281 24.0771 15.0935 24.0635 15.0574 24.056C15.045 24.056 13.8588 23.7364 13.8588 20.8766C13.8561 20.338 13.8909 19.7998 13.9629 19.2661C13.991 19.2262 14.0096 19.1803 14.0172 19.1321C14.0248 19.0839 14.0213 19.0346 14.0069 18.988C14.1667 18.0694 14.4219 17.5292 14.5947 17.2536C14.9647 17.5927 15.4076 17.8423 15.8893 17.9833C15.9178 17.9917 15.9475 17.9958 15.9772 17.9956C16.0541 17.9955 16.1283 17.9676 16.1862 17.9171C16.2441 17.8666 16.2818 17.7969 16.2925 17.7207C16.3031 17.6446 16.2859 17.5673 16.244 17.5028C16.2022 17.4384 16.1384 17.3912 16.0646 17.37C15.5872 17.226 15.1577 16.9557 14.8214 16.5877C14.8156 16.5779 14.8089 16.5686 14.8016 16.5598C14.7919 16.5497 14.7815 16.5402 14.7706 16.5313C14.5964 16.3322 14.4479 16.112 14.3283 15.876C14.3176 15.84 14.3009 15.806 14.2788 15.7756C14.031 15.2485 13.8588 14.5535 13.8588 13.6393C13.8588 11.138 15.1218 9.52631 15.1348 9.51021C15.1812 9.44396 15.2007 9.36258 15.1893 9.28252C15.178 9.20246 15.1367 9.12969 15.0737 9.07894C15.0108 9.02819 14.9309 9.00323 14.8502 9.00912C14.7696 9.01502 14.6942 9.05132 14.6393 9.11068C14.6065 9.15156 14.1475 9.73382 13.7609 10.736C13.3274 9.64338 12.7178 7.39984 13.5553 4.78961C14.0106 3.3699 14.8394 2.41165 16.0194 1.94027C17.2582 1.44474 18.5856 1.64977 19.1363 1.95142C20.0865 2.47545 21.1042 3.91189 20.3801 5.46601C20.3292 5.57628 20.2656 5.68022 20.1905 5.77572C20.1825 5.78501 20.175 5.79492 20.1676 5.80484C19.734 6.33506 19.0112 6.49797 18.4146 6.40815C17.9024 6.32825 17.283 6.02349 17.1956 5.41026C17.1901 5.36855 17.1763 5.32836 17.1552 5.29198C17.134 5.25561 17.1059 5.22378 17.0724 5.19833C17.0389 5.17288 17.0006 5.15431 16.9599 5.14369C16.9192 5.13307 16.8768 5.13061 16.8351 5.13645C16.7935 5.14229 16.7534 5.15632 16.7171 5.17773C16.6809 5.19913 16.6493 5.2275 16.6241 5.26118C16.5988 5.29487 16.5805 5.33321 16.5702 5.37399C16.5599 5.41478 16.5577 5.45721 16.5638 5.49884C16.6741 6.28922 17.3623 6.89254 18.3174 7.03562C19.0979 7.15455 20.0419 6.9359 20.6346 6.23657C21.0113 6.05075 23.2114 5.0479 24.2675 6.44717C24.8306 7.19048 24.7272 7.87184 24.5413 8.30543C24.4191 8.58735 24.2437 8.84309 24.0247 9.05865C24.0099 9.07036 23.9962 9.08343 23.9839 9.09767C23.6351 9.4303 23.2201 9.64214 22.8831 9.68302C22.8016 9.6918 22.7266 9.73164 22.6736 9.79428C22.6207 9.85692 22.5939 9.93755 22.5988 10.0194C22.6038 10.1013 22.6401 10.1781 22.7002 10.2339C22.7603 10.2897 22.8395 10.3203 22.9215 10.3192C22.9343 10.3201 22.9472 10.3201 22.96 10.3192C23.4375 10.2616 23.9393 9.99893 24.3561 9.62232C24.7897 9.60188 26.4491 9.62232 27.107 11.0117C28.0045 12.9096 26.5204 14.5727 26.0744 14.914C26.0298 14.9486 25.9951 14.9943 25.9738 15.0466C25.9525 15.0989 25.9455 15.1559 25.9533 15.2118C25.9612 15.2677 25.9837 15.3206 26.0186 15.365C26.0534 15.4094 26.0994 15.4438 26.1518 15.4647C26.228 15.4938 28.0051 16.2309 27.841 18.8566V18.8523Z"/>
</mask>
<path d="M26.814 15.0999C27.6112 14.263 28.536 12.5404 27.6843 10.7379C27.0487 9.39314 25.717 9.06546 24.8925 8.99609C24.9843 8.85733 25.0633 8.71055 25.1285 8.55754C25.4841 7.72008 25.3596 6.83369 24.7767 6.06251C23.7683 4.72704 22.107 5.0095 21.1079 5.35018C21.6908 3.57616 20.5324 1.99231 19.4355 1.39209C18.7981 1.04211 17.296 0.741077 15.7753 1.34749C14.8369 1.71914 13.5832 2.58633 12.9402 4.59325C12.7464 5.19557 12.6136 5.81583 12.5438 6.4447H9.45907C9.37954 6.02386 9.14583 5.64786 8.80367 5.39027C8.46151 5.13268 8.03553 5.01205 7.60912 5.05199C7.1827 5.09193 6.78654 5.28956 6.49816 5.60621C6.20979 5.92286 6.04996 6.33573 6.04996 6.76401C6.04996 7.19229 6.20979 7.60516 6.49816 7.9218C6.78654 8.23845 7.1827 8.43608 7.60912 8.47602C8.03553 8.51596 8.46151 8.39533 8.80367 8.13774C9.14583 7.88016 9.37954 7.50415 9.45907 7.08332H12.4942C12.3964 9.43711 13.2152 11.1783 13.4624 11.6466C13.3632 12.0393 13.2934 12.4389 13.2536 12.8421H10.2761L7.29668 11.4694C7.46538 11.0747 7.48081 10.6313 7.33996 10.2258C7.19911 9.82034 6.91209 9.48197 6.53503 9.27685C6.15796 9.07173 5.71796 9.01462 5.30102 9.11666C4.88408 9.21871 4.52019 9.47258 4.28047 9.82865C4.04076 10.1847 3.94246 10.6174 4.00479 11.0421C4.06712 11.4668 4.2856 11.853 4.61752 12.1252C4.94944 12.3973 5.37094 12.5359 5.79962 12.5139C6.22829 12.4918 6.63333 12.3107 6.93556 12.0058L10.0729 13.451C10.1147 13.4702 10.1601 13.4802 10.2061 13.4801H13.2208C13.2208 13.5327 13.2208 13.5854 13.2208 13.6386C13.2113 14.3209 13.3207 14.9996 13.5441 15.6443H4.41947C4.36153 15.2205 4.14754 14.8336 3.81937 14.5592C3.4912 14.2848 3.07246 14.1428 2.64509 14.1609C2.21772 14.1789 1.81247 14.3558 1.50863 14.6569C1.20479 14.958 1.02423 15.3616 1.00227 15.7888C0.980307 16.216 1.11853 16.636 1.3899 16.9667C1.66126 17.2973 2.04624 17.5148 2.4695 17.5766C2.89276 17.6384 3.32386 17.5401 3.67843 17.3008C4.03301 17.0615 4.28555 16.6986 4.38664 16.2829H13.8303C13.9241 16.4526 14.0303 16.6151 14.1481 16.7692C13.9344 17.0696 13.6005 17.6822 13.3961 18.7662H8.37261C8.32056 18.7666 8.26938 18.7796 8.22351 18.8042C8.17764 18.8288 8.13845 18.8643 8.10936 18.9074L6.83955 20.7539C6.44009 20.595 5.99569 20.5908 5.59335 20.7423C5.19101 20.8938 4.8597 21.1901 4.66431 21.573C4.46891 21.956 4.4235 22.3981 4.53695 22.8127C4.65041 23.2274 4.91457 23.5848 5.2777 23.815C5.64084 24.0451 6.0768 24.1314 6.50023 24.057C6.92366 23.9826 7.30406 23.7528 7.56695 23.4126C7.82984 23.0724 7.95629 22.6463 7.92154 22.2178C7.88679 21.7893 7.69333 21.3892 7.37906 21.0958L8.54047 19.403H13.2995C13.2437 19.8917 13.2166 20.3834 13.2183 20.8753C13.2183 22.0522 13.4116 22.8655 13.6687 23.4298H11.9343C11.8754 23.4298 11.8176 23.4462 11.7675 23.477C11.7173 23.5078 11.6766 23.552 11.65 23.6045L10.1466 26.5579H7.68196C7.60243 26.1369 7.36864 25.7607 7.02636 25.503C6.68408 25.2453 6.25795 25.1246 5.83137 25.1646C5.40479 25.2045 5.00847 25.4022 4.71998 25.719C4.43149 26.0357 4.2716 26.4487 4.2716 26.8772C4.2716 27.3056 4.43149 27.7187 4.71998 28.0354C5.00847 28.3522 5.40479 28.5499 5.83137 28.5898C6.25795 28.6298 6.68408 28.5091 7.02636 28.2514C7.36864 27.9937 7.60243 27.6175 7.68196 27.1965H10.3455C10.4044 27.1965 10.4621 27.1801 10.5123 27.1493C10.5625 27.1185 10.6031 27.0744 10.6298 27.0218L12.1331 24.0684H14.0583C14.2021 24.2494 14.376 24.4042 14.5724 24.5262C14.0806 24.9796 13.7126 25.6083 13.5857 26.4668C13.3596 28.0011 14.267 29.3162 15.893 29.8204C16.2814 29.9393 16.6853 29.9999 17.0916 30C18.1762 30 19.2701 29.5664 19.879 28.5685C20.8397 28.838 24.1449 29.4977 25.5776 26.3925C26.1295 25.197 26.093 23.9476 25.4996 22.8451C26.4083 22.593 28.3031 21.7301 28.4796 18.895C28.6184 16.6088 27.4693 15.526 26.814 15.0999ZM7.77239 7.8452C7.55833 7.84533 7.34905 7.78192 7.17105 7.66302C6.99305 7.54412 6.85434 7.37507 6.77248 7.17728C6.69062 6.97949 6.66929 6.76186 6.7112 6.55194C6.75312 6.34203 6.85638 6.14927 7.00792 5.99808C7.15945 5.84689 7.35245 5.74407 7.56246 5.70264C7.77247 5.66121 7.99006 5.68303 8.18766 5.76535C8.38526 5.84766 8.55399 5.98676 8.67248 6.16504C8.79097 6.34331 8.85389 6.55274 8.85328 6.76679C8.85214 7.05288 8.73781 7.32689 8.53528 7.52896C8.33275 7.73102 8.05848 7.84472 7.77239 7.8452ZM5.71406 11.8782C5.50016 11.8782 5.29106 11.8148 5.11321 11.696C4.93535 11.5771 4.79674 11.4082 4.71488 11.2106C4.63302 11.013 4.6116 10.7955 4.65333 10.5857C4.69507 10.376 4.79807 10.1833 4.94932 10.032C5.10057 9.88075 5.29328 9.77775 5.50307 9.73601C5.71286 9.69428 5.93032 9.7157 6.12794 9.79756C6.32556 9.87942 6.49446 10.018 6.6133 10.1959C6.73214 10.3737 6.79557 10.5828 6.79557 10.7967C6.79524 11.0835 6.68119 11.3584 6.47844 11.5611C6.27569 11.7639 6.00079 11.8779 5.71406 11.8782ZM2.71607 16.9575C2.50217 16.9575 2.29307 16.8941 2.11522 16.7752C1.93736 16.6564 1.79874 16.4875 1.71689 16.2899C1.63503 16.0922 1.61361 15.8748 1.65534 15.665C1.69707 15.4552 1.80008 15.2625 1.95133 15.1112C2.10258 14.96 2.29528 14.857 2.50508 14.8153C2.71487 14.7735 2.93232 14.7949 3.12994 14.8768C3.32756 14.9587 3.49647 15.0973 3.61531 15.2751C3.73415 15.453 3.79758 15.6621 3.79758 15.876C3.79708 16.1626 3.68296 16.4373 3.48023 16.64C3.2775 16.8426 3.00269 16.9565 2.71607 16.9569V16.9575ZM6.20836 23.4292C5.9944 23.4293 5.78522 23.366 5.60727 23.2472C5.42932 23.1284 5.29061 22.9595 5.20867 22.7618C5.12674 22.5642 5.10527 22.3467 5.14698 22.1368C5.18869 21.927 5.29171 21.7342 5.443 21.5829C5.59429 21.4317 5.78705 21.3286 5.9969 21.2869C6.20675 21.2452 6.42425 21.2667 6.6219 21.3486C6.81954 21.4306 6.98845 21.5693 7.10724 21.7472C7.22603 21.9252 7.28937 22.1343 7.28925 22.3483C7.28892 22.6349 7.17493 22.9096 6.9723 23.1122C6.76966 23.3149 6.49493 23.4289 6.20836 23.4292ZM5.9897 27.9578C5.77577 27.9578 5.56665 27.8943 5.38879 27.7755C5.21092 27.6566 5.0723 27.4877 4.99046 27.29C4.90862 27.0923 4.88724 26.8749 4.92902 26.665C4.9708 26.4552 5.07387 26.2625 5.22518 26.1113C5.37649 25.9601 5.56926 25.8571 5.77909 25.8155C5.98892 25.7738 6.2064 25.7953 6.40401 25.8773C6.60162 25.9592 6.77048 26.0979 6.88924 26.2759C7.00801 26.4538 7.07133 26.663 7.07121 26.8769C7.07121 27.1638 6.95731 27.439 6.75452 27.6421C6.55173 27.8451 6.27665 27.9593 5.9897 27.9596V27.9578ZM27.841 18.8523C27.6706 21.5777 25.735 22.1625 25.1347 22.2783C25.0583 22.1776 24.977 22.078 24.8907 21.9797C24.4196 21.4493 23.8388 21.0277 23.1885 20.744C23.55 20.1709 23.7268 19.5006 23.6952 18.8238C23.6438 17.6141 22.7785 17.0783 22.3275 16.9655C22.2454 16.9444 22.1582 16.9567 22.0851 16.9998C22.0121 17.0429 21.9591 17.1132 21.9379 17.1953C21.9167 17.2775 21.929 17.3647 21.9721 17.4378C22.0152 17.5108 22.0856 17.5638 22.1677 17.585C22.2024 17.5943 23.0145 17.8265 23.0578 18.8535C23.0889 19.4515 22.9159 20.0423 22.5672 20.5291C21.8506 20.3333 21.1153 20.3247 20.4612 20.5371C20.3807 20.5632 20.3139 20.6203 20.2754 20.6957C20.237 20.771 20.2301 20.8586 20.2562 20.9391C20.2823 21.0196 20.3393 21.0864 20.4147 21.1249C20.4901 21.1633 20.5777 21.1703 20.6582 21.1442C21.2423 20.9546 21.9076 20.98 22.5518 21.185C22.5744 21.1956 22.5984 21.2033 22.623 21.208C23.3139 21.4471 23.9316 21.8603 24.4162 22.4078C24.5308 22.5367 24.6369 22.6728 24.734 22.8153C24.7355 22.8177 24.7371 22.82 24.7389 22.8222C25.4172 23.8256 25.5163 25.005 24.9985 26.1268C23.5682 29.2239 19.9855 27.9441 19.8344 27.889C19.7601 27.8616 19.6784 27.8627 19.6049 27.8921C19.5315 27.9215 19.4715 27.9772 19.4367 28.0482C18.8259 29.3044 17.2873 29.5844 16.0832 29.2115C15.0884 28.9018 14.0031 28.0253 14.2193 26.5616C14.6405 23.7123 18.1873 24.1211 18.3378 24.1397C18.4218 24.1503 18.5065 24.1271 18.5734 24.0752C18.6402 24.0233 18.6837 23.947 18.6943 23.8631C18.7049 23.7792 18.6817 23.6944 18.6299 23.6276C18.578 23.5607 18.5017 23.5172 18.4177 23.5066C17.5574 23.3976 16.2176 23.4756 15.1596 24.0963C15.1281 24.0771 15.0935 24.0635 15.0574 24.056C15.045 24.056 13.8588 23.7364 13.8588 20.8766C13.8561 20.338 13.8909 19.7998 13.9629 19.2661C13.991 19.2262 14.0096 19.1803 14.0172 19.1321C14.0248 19.0839 14.0213 19.0346 14.0069 18.988C14.1667 18.0694 14.4219 17.5292 14.5947 17.2536C14.9647 17.5927 15.4076 17.8423 15.8893 17.9833C15.9178 17.9917 15.9475 17.9958 15.9772 17.9956C16.0541 17.9955 16.1283 17.9676 16.1862 17.9171C16.2441 17.8666 16.2818 17.7969 16.2925 17.7207C16.3031 17.6446 16.2859 17.5673 16.244 17.5028C16.2022 17.4384 16.1384 17.3912 16.0646 17.37C15.5872 17.226 15.1577 16.9557 14.8214 16.5877C14.8156 16.5779 14.8089 16.5686 14.8016 16.5598C14.7919 16.5497 14.7815 16.5402 14.7706 16.5313C14.5964 16.3322 14.4479 16.112 14.3283 15.876C14.3176 15.84 14.3009 15.806 14.2788 15.7756C14.031 15.2485 13.8588 14.5535 13.8588 13.6393C13.8588 11.138 15.1218 9.52631 15.1348 9.51021C15.1812 9.44396 15.2007 9.36258 15.1893 9.28252C15.178 9.20246 15.1367 9.12969 15.0737 9.07894C15.0108 9.02819 14.9309 9.00323 14.8502 9.00912C14.7696 9.01502 14.6942 9.05132 14.6393 9.11068C14.6065 9.15156 14.1475 9.73382 13.7609 10.736C13.3274 9.64338 12.7178 7.39984 13.5553 4.78961C14.0106 3.3699 14.8394 2.41165 16.0194 1.94027C17.2582 1.44474 18.5856 1.64977 19.1363 1.95142C20.0865 2.47545 21.1042 3.91189 20.3801 5.46601C20.3292 5.57628 20.2656 5.68022 20.1905 5.77572C20.1825 5.78501 20.175 5.79492 20.1676 5.80484C19.734 6.33506 19.0112 6.49797 18.4146 6.40815C17.9024 6.32825 17.283 6.02349 17.1956 5.41026C17.1901 5.36855 17.1763 5.32836 17.1552 5.29198C17.134 5.25561 17.1059 5.22378 17.0724 5.19833C17.0389 5.17288 17.0006 5.15431 16.9599 5.14369C16.9192 5.13307 16.8768 5.13061 16.8351 5.13645C16.7935 5.14229 16.7534 5.15632 16.7171 5.17773C16.6809 5.19913 16.6493 5.2275 16.6241 5.26118C16.5988 5.29487 16.5805 5.33321 16.5702 5.37399C16.5599 5.41478 16.5577 5.45721 16.5638 5.49884C16.6741 6.28922 17.3623 6.89254 18.3174 7.03562C19.0979 7.15455 20.0419 6.9359 20.6346 6.23657C21.0113 6.05075 23.2114 5.0479 24.2675 6.44717C24.8306 7.19048 24.7272 7.87184 24.5413 8.30543C24.4191 8.58735 24.2437 8.84309 24.0247 9.05865C24.0099 9.07036 23.9962 9.08343 23.9839 9.09767C23.6351 9.4303 23.2201 9.64214 22.8831 9.68302C22.8016 9.6918 22.7266 9.73164 22.6736 9.79428C22.6207 9.85692 22.5939 9.93755 22.5988 10.0194C22.6038 10.1013 22.6401 10.1781 22.7002 10.2339C22.7603 10.2897 22.8395 10.3203 22.9215 10.3192C22.9343 10.3201 22.9472 10.3201 22.96 10.3192C23.4375 10.2616 23.9393 9.99893 24.3561 9.62232C24.7897 9.60188 26.4491 9.62232 27.107 11.0117C28.0045 12.9096 26.5204 14.5727 26.0744 14.914C26.0298 14.9486 25.9951 14.9943 25.9738 15.0466C25.9525 15.0989 25.9455 15.1559 25.9533 15.2118C25.9612 15.2677 25.9837 15.3206 26.0186 15.365C26.0534 15.4094 26.0994 15.4438 26.1518 15.4647C26.228 15.4938 28.0051 16.2309 27.841 18.8566V18.8523Z" fill="#222222"/>
<path d="M26.814 15.0999C27.6112 14.263 28.536 12.5404 27.6843 10.7379C27.0487 9.39314 25.717 9.06546 24.8925 8.99609C24.9843 8.85733 25.0633 8.71055 25.1285 8.55754C25.4841 7.72008 25.3596 6.83369 24.7767 6.06251C23.7683 4.72704 22.107 5.0095 21.1079 5.35018C21.6908 3.57616 20.5324 1.99231 19.4355 1.39209C18.7981 1.04211 17.296 0.741077 15.7753 1.34749C14.8369 1.71914 13.5832 2.58633 12.9402 4.59325C12.7464 5.19557 12.6136 5.81583 12.5438 6.4447H9.45907C9.37954 6.02386 9.14583 5.64786 8.80367 5.39027C8.46151 5.13268 8.03553 5.01205 7.60912 5.05199C7.1827 5.09193 6.78654 5.28956 6.49816 5.60621C6.20979 5.92286 6.04996 6.33573 6.04996 6.76401C6.04996 7.19229 6.20979 7.60516 6.49816 7.9218C6.78654 8.23845 7.1827 8.43608 7.60912 8.47602C8.03553 8.51596 8.46151 8.39533 8.80367 8.13774C9.14583 7.88016 9.37954 7.50415 9.45907 7.08332H12.4942C12.3964 9.43711 13.2152 11.1783 13.4624 11.6466C13.3632 12.0393 13.2934 12.4389 13.2536 12.8421H10.2761L7.29668 11.4694C7.46538 11.0747 7.48081 10.6313 7.33996 10.2258C7.19911 9.82034 6.91209 9.48197 6.53503 9.27685C6.15796 9.07173 5.71796 9.01462 5.30102 9.11666C4.88408 9.21871 4.52019 9.47258 4.28047 9.82865C4.04076 10.1847 3.94246 10.6174 4.00479 11.0421C4.06712 11.4668 4.2856 11.853 4.61752 12.1252C4.94944 12.3973 5.37094 12.5359 5.79962 12.5139C6.22829 12.4918 6.63333 12.3107 6.93556 12.0058L10.0729 13.451C10.1147 13.4702 10.1601 13.4802 10.2061 13.4801H13.2208C13.2208 13.5327 13.2208 13.5854 13.2208 13.6386C13.2113 14.3209 13.3207 14.9996 13.5441 15.6443H4.41947C4.36153 15.2205 4.14754 14.8336 3.81937 14.5592C3.4912 14.2848 3.07246 14.1428 2.64509 14.1609C2.21772 14.1789 1.81247 14.3558 1.50863 14.6569C1.20479 14.958 1.02423 15.3616 1.00227 15.7888C0.980307 16.216 1.11853 16.636 1.3899 16.9667C1.66126 17.2973 2.04624 17.5148 2.4695 17.5766C2.89276 17.6384 3.32386 17.5401 3.67843 17.3008C4.03301 17.0615 4.28555 16.6986 4.38664 16.2829H13.8303C13.9241 16.4526 14.0303 16.6151 14.1481 16.7692C13.9344 17.0696 13.6005 17.6822 13.3961 18.7662H8.37261C8.32056 18.7666 8.26938 18.7796 8.22351 18.8042C8.17764 18.8288 8.13845 18.8643 8.10936 18.9074L6.83955 20.7539C6.44009 20.595 5.99569 20.5908 5.59335 20.7423C5.19101 20.8938 4.8597 21.1901 4.66431 21.573C4.46891 21.956 4.4235 22.3981 4.53695 22.8127C4.65041 23.2274 4.91457 23.5848 5.2777 23.815C5.64084 24.0451 6.0768 24.1314 6.50023 24.057C6.92366 23.9826 7.30406 23.7528 7.56695 23.4126C7.82984 23.0724 7.95629 22.6463 7.92154 22.2178C7.88679 21.7893 7.69333 21.3892 7.37906 21.0958L8.54047 19.403H13.2995C13.2437 19.8917 13.2166 20.3834 13.2183 20.8753C13.2183 22.0522 13.4116 22.8655 13.6687 23.4298H11.9343C11.8754 23.4298 11.8176 23.4462 11.7675 23.477C11.7173 23.5078 11.6766 23.552 11.65 23.6045L10.1466 26.5579H7.68196C7.60243 26.1369 7.36864 25.7607 7.02636 25.503C6.68408 25.2453 6.25795 25.1246 5.83137 25.1646C5.40479 25.2045 5.00847 25.4022 4.71998 25.719C4.43149 26.0357 4.2716 26.4487 4.2716 26.8772C4.2716 27.3056 4.43149 27.7187 4.71998 28.0354C5.00847 28.3522 5.40479 28.5499 5.83137 28.5898C6.25795 28.6298 6.68408 28.5091 7.02636 28.2514C7.36864 27.9937 7.60243 27.6175 7.68196 27.1965H10.3455C10.4044 27.1965 10.4621 27.1801 10.5123 27.1493C10.5625 27.1185 10.6031 27.0744 10.6298 27.0218L12.1331 24.0684H14.0583C14.2021 24.2494 14.376 24.4042 14.5724 24.5262C14.0806 24.9796 13.7126 25.6083 13.5857 26.4668C13.3596 28.0011 14.267 29.3162 15.893 29.8204C16.2814 29.9393 16.6853 29.9999 17.0916 30C18.1762 30 19.2701 29.5664 19.879 28.5685C20.8397 28.838 24.1449 29.4977 25.5776 26.3925C26.1295 25.197 26.093 23.9476 25.4996 22.8451C26.4083 22.593 28.3031 21.7301 28.4796 18.895C28.6184 16.6088 27.4693 15.526 26.814 15.0999ZM7.77239 7.8452C7.55833 7.84533 7.34905 7.78192 7.17105 7.66302C6.99305 7.54412 6.85434 7.37507 6.77248 7.17728C6.69062 6.97949 6.66929 6.76186 6.7112 6.55194C6.75312 6.34203 6.85638 6.14927 7.00792 5.99808C7.15945 5.84689 7.35245 5.74407 7.56246 5.70264C7.77247 5.66121 7.99006 5.68303 8.18766 5.76535C8.38526 5.84766 8.55399 5.98676 8.67248 6.16504C8.79097 6.34331 8.85389 6.55274 8.85328 6.76679C8.85214 7.05288 8.73781 7.32689 8.53528 7.52896C8.33275 7.73102 8.05848 7.84472 7.77239 7.8452ZM5.71406 11.8782C5.50016 11.8782 5.29106 11.8148 5.11321 11.696C4.93535 11.5771 4.79674 11.4082 4.71488 11.2106C4.63302 11.013 4.6116 10.7955 4.65333 10.5857C4.69507 10.376 4.79807 10.1833 4.94932 10.032C5.10057 9.88075 5.29328 9.77775 5.50307 9.73601C5.71286 9.69428 5.93032 9.7157 6.12794 9.79756C6.32556 9.87942 6.49446 10.018 6.6133 10.1959C6.73214 10.3737 6.79557 10.5828 6.79557 10.7967C6.79524 11.0835 6.68119 11.3584 6.47844 11.5611C6.27569 11.7639 6.00079 11.8779 5.71406 11.8782ZM2.71607 16.9575C2.50217 16.9575 2.29307 16.8941 2.11522 16.7752C1.93736 16.6564 1.79874 16.4875 1.71689 16.2899C1.63503 16.0922 1.61361 15.8748 1.65534 15.665C1.69707 15.4552 1.80008 15.2625 1.95133 15.1112C2.10258 14.96 2.29528 14.857 2.50508 14.8153C2.71487 14.7735 2.93232 14.7949 3.12994 14.8768C3.32756 14.9587 3.49647 15.0973 3.61531 15.2751C3.73415 15.453 3.79758 15.6621 3.79758 15.876C3.79708 16.1626 3.68296 16.4373 3.48023 16.64C3.2775 16.8426 3.00269 16.9565 2.71607 16.9569V16.9575ZM6.20836 23.4292C5.9944 23.4293 5.78522 23.366 5.60727 23.2472C5.42932 23.1284 5.29061 22.9595 5.20867 22.7618C5.12674 22.5642 5.10527 22.3467 5.14698 22.1368C5.18869 21.927 5.29171 21.7342 5.443 21.5829C5.59429 21.4317 5.78705 21.3286 5.9969 21.2869C6.20675 21.2452 6.42425 21.2667 6.6219 21.3486C6.81954 21.4306 6.98845 21.5693 7.10724 21.7472C7.22603 21.9252 7.28937 22.1343 7.28925 22.3483C7.28892 22.6349 7.17493 22.9096 6.9723 23.1122C6.76966 23.3149 6.49493 23.4289 6.20836 23.4292ZM5.9897 27.9578C5.77577 27.9578 5.56665 27.8943 5.38879 27.7755C5.21092 27.6566 5.0723 27.4877 4.99046 27.29C4.90862 27.0923 4.88724 26.8749 4.92902 26.665C4.9708 26.4552 5.07387 26.2625 5.22518 26.1113C5.37649 25.9601 5.56926 25.8571 5.77909 25.8155C5.98892 25.7738 6.2064 25.7953 6.40401 25.8773C6.60162 25.9592 6.77048 26.0979 6.88924 26.2759C7.00801 26.4538 7.07133 26.663 7.07121 26.8769C7.07121 27.1638 6.95731 27.439 6.75452 27.6421C6.55173 27.8451 6.27665 27.9593 5.9897 27.9596V27.9578ZM27.841 18.8523C27.6706 21.5777 25.735 22.1625 25.1347 22.2783C25.0583 22.1776 24.977 22.078 24.8907 21.9797C24.4196 21.4493 23.8388 21.0277 23.1885 20.744C23.55 20.1709 23.7268 19.5006 23.6952 18.8238C23.6438 17.6141 22.7785 17.0783 22.3275 16.9655C22.2454 16.9444 22.1582 16.9567 22.0851 16.9998C22.0121 17.0429 21.9591 17.1132 21.9379 17.1953C21.9167 17.2775 21.929 17.3647 21.9721 17.4378C22.0152 17.5108 22.0856 17.5638 22.1677 17.585C22.2024 17.5943 23.0145 17.8265 23.0578 18.8535C23.0889 19.4515 22.9159 20.0423 22.5672 20.5291C21.8506 20.3333 21.1153 20.3247 20.4612 20.5371C20.3807 20.5632 20.3139 20.6203 20.2754 20.6957C20.237 20.771 20.2301 20.8586 20.2562 20.9391C20.2823 21.0196 20.3393 21.0864 20.4147 21.1249C20.4901 21.1633 20.5777 21.1703 20.6582 21.1442C21.2423 20.9546 21.9076 20.98 22.5518 21.185C22.5744 21.1956 22.5984 21.2033 22.623 21.208C23.3139 21.4471 23.9316 21.8603 24.4162 22.4078C24.5308 22.5367 24.6369 22.6728 24.734 22.8153C24.7355 22.8177 24.7371 22.82 24.7389 22.8222C25.4172 23.8256 25.5163 25.005 24.9985 26.1268C23.5682 29.2239 19.9855 27.9441 19.8344 27.889C19.7601 27.8616 19.6784 27.8627 19.6049 27.8921C19.5315 27.9215 19.4715 27.9772 19.4367 28.0482C18.8259 29.3044 17.2873 29.5844 16.0832 29.2115C15.0884 28.9018 14.0031 28.0253 14.2193 26.5616C14.6405 23.7123 18.1873 24.1211 18.3378 24.1397C18.4218 24.1503 18.5065 24.1271 18.5734 24.0752C18.6402 24.0233 18.6837 23.947 18.6943 23.8631C18.7049 23.7792 18.6817 23.6944 18.6299 23.6276C18.578 23.5607 18.5017 23.5172 18.4177 23.5066C17.5574 23.3976 16.2176 23.4756 15.1596 24.0963C15.1281 24.0771 15.0935 24.0635 15.0574 24.056C15.045 24.056 13.8588 23.7364 13.8588 20.8766C13.8561 20.338 13.8909 19.7998 13.9629 19.2661C13.991 19.2262 14.0096 19.1803 14.0172 19.1321C14.0248 19.0839 14.0213 19.0346 14.0069 18.988C14.1667 18.0694 14.4219 17.5292 14.5947 17.2536C14.9647 17.5927 15.4076 17.8423 15.8893 17.9833C15.9178 17.9917 15.9475 17.9958 15.9772 17.9956C16.0541 17.9955 16.1283 17.9676 16.1862 17.9171C16.2441 17.8666 16.2818 17.7969 16.2925 17.7207C16.3031 17.6446 16.2859 17.5673 16.244 17.5028C16.2022 17.4384 16.1384 17.3912 16.0646 17.37C15.5872 17.226 15.1577 16.9557 14.8214 16.5877C14.8156 16.5779 14.8089 16.5686 14.8016 16.5598C14.7919 16.5497 14.7815 16.5402 14.7706 16.5313C14.5964 16.3322 14.4479 16.112 14.3283 15.876C14.3176 15.84 14.3009 15.806 14.2788 15.7756C14.031 15.2485 13.8588 14.5535 13.8588 13.6393C13.8588 11.138 15.1218 9.52631 15.1348 9.51021C15.1812 9.44396 15.2007 9.36258 15.1893 9.28252C15.178 9.20246 15.1367 9.12969 15.0737 9.07894C15.0108 9.02819 14.9309 9.00323 14.8502 9.00912C14.7696 9.01502 14.6942 9.05132 14.6393 9.11068C14.6065 9.15156 14.1475 9.73382 13.7609 10.736C13.3274 9.64338 12.7178 7.39984 13.5553 4.78961C14.0106 3.3699 14.8394 2.41165 16.0194 1.94027C17.2582 1.44474 18.5856 1.64977 19.1363 1.95142C20.0865 2.47545 21.1042 3.91189 20.3801 5.46601C20.3292 5.57628 20.2656 5.68022 20.1905 5.77572C20.1825 5.78501 20.175 5.79492 20.1676 5.80484C19.734 6.33506 19.0112 6.49797 18.4146 6.40815C17.9024 6.32825 17.283 6.02349 17.1956 5.41026C17.1901 5.36855 17.1763 5.32836 17.1552 5.29198C17.134 5.25561 17.1059 5.22378 17.0724 5.19833C17.0389 5.17288 17.0006 5.15431 16.9599 5.14369C16.9192 5.13307 16.8768 5.13061 16.8351 5.13645C16.7935 5.14229 16.7534 5.15632 16.7171 5.17773C16.6809 5.19913 16.6493 5.2275 16.6241 5.26118C16.5988 5.29487 16.5805 5.33321 16.5702 5.37399C16.5599 5.41478 16.5577 5.45721 16.5638 5.49884C16.6741 6.28922 17.3623 6.89254 18.3174 7.03562C19.0979 7.15455 20.0419 6.9359 20.6346 6.23657C21.0113 6.05075 23.2114 5.0479 24.2675 6.44717C24.8306 7.19048 24.7272 7.87184 24.5413 8.30543C24.4191 8.58735 24.2437 8.84309 24.0247 9.05865C24.0099 9.07036 23.9962 9.08343 23.9839 9.09767C23.6351 9.4303 23.2201 9.64214 22.8831 9.68302C22.8016 9.6918 22.7266 9.73164 22.6736 9.79428C22.6207 9.85692 22.5939 9.93755 22.5988 10.0194C22.6038 10.1013 22.6401 10.1781 22.7002 10.2339C22.7603 10.2897 22.8395 10.3203 22.9215 10.3192C22.9343 10.3201 22.9472 10.3201 22.96 10.3192C23.4375 10.2616 23.9393 9.99893 24.3561 9.62232C24.7897 9.60188 26.4491 9.62232 27.107 11.0117C28.0045 12.9096 26.5204 14.5727 26.0744 14.914C26.0298 14.9486 25.9951 14.9943 25.9738 15.0466C25.9525 15.0989 25.9455 15.1559 25.9533 15.2118C25.9612 15.2677 25.9837 15.3206 26.0186 15.365C26.0534 15.4094 26.0994 15.4438 26.1518 15.4647C26.228 15.4938 28.0051 16.2309 27.841 18.8566V18.8523Z" stroke="#222222" mask="url(#path-1-outside-1_3433_515)"/>
<path d="M17.1749 15.0805C17.2875 15.0809 17.3975 15.0476 17.491 14.9849L17.4911 14.9851L17.4987 14.9796C18.1417 14.513 18.665 13.9027 19.0276 13.1991C19.4952 13.5184 20.1991 13.8584 21.0789 13.8584C21.8109 13.8584 22.6436 13.6229 23.5409 12.9763C23.6033 12.9354 23.6571 12.8827 23.6992 12.8211C23.7429 12.757 23.7731 12.6847 23.7879 12.6086C23.8026 12.5325 23.8017 12.4541 23.7851 12.3784C23.7685 12.3027 23.7366 12.2311 23.6914 12.1681C23.6461 12.1052 23.5885 12.0521 23.522 12.0122C23.4555 11.9723 23.3815 11.9465 23.3047 11.9362L23.2716 12.184L23.3047 11.9362C23.2278 11.9259 23.1497 11.9314 23.075 11.9525C23.0326 11.9644 22.9918 11.9812 22.9534 12.0025H22.9449L22.8794 12.0498C21.9215 12.7416 21.1236 12.7975 20.5302 12.6577C20.0122 12.5357 19.6265 12.2586 19.4121 12.0699C19.6091 10.6981 18.7422 9.681 18.6949 9.62719L18.5071 9.79217M17.1749 15.0805C17.0531 15.0805 16.9344 15.0414 16.8365 14.9689C16.7383 14.8963 16.6662 14.794 16.6306 14.6772C16.5951 14.5604 16.598 14.4353 16.6391 14.3203C16.68 14.2057 16.7565 14.1072 16.8575 14.0393C16.9491 13.9743 17.82 13.3372 18.2018 12.2496L18.2024 12.2478L18.2024 12.2478C18.2186 12.2028 18.2319 12.1564 18.2454 12.1051L18.2454 12.1049C18.4904 11.1693 17.8681 10.4119 17.8346 10.3722C17.7364 10.2582 17.6874 10.11 17.6982 9.95991C17.7091 9.80938 17.7794 9.66934 17.8935 9.5706C18.0076 9.47185 18.1563 9.42249 18.3068 9.43337C18.4573 9.44424 18.5974 9.51447 18.6961 9.6286L18.5071 9.79217M17.1749 15.0805C17.1747 15.0805 17.1745 15.0805 17.1742 15.0805L17.1753 14.8305L17.1756 15.0805C17.1754 15.0805 17.1751 15.0805 17.1749 15.0805ZM18.5071 9.79217C18.5473 9.83801 19.399 10.8421 19.1432 12.1615L18.4872 12.1683C18.7678 11.0967 18.0561 10.2468 18.0245 10.2097C17.9692 10.1457 17.9415 10.0623 17.9476 9.97792C17.9537 9.89353 17.9931 9.81502 18.0571 9.75966C18.121 9.70429 18.2044 9.67662 18.2888 9.68272C18.3732 9.68881 18.4517 9.72819 18.5071 9.79217Z" fill="#F12A23" stroke="#F12A23" stroke-width="0.5"/>
</svg>
