<svg width="97" height="29" viewBox="0 0 97 29" fill="none" xmlns="http://www.w3.org/2000/svg">
<path d="M35.643 7.22919V15.4119H27.5671V8.28582C27.5671 7.70017 27.0951 7.2251 26.5133 7.2251H23.7793V26.8137C23.7793 27.3994 24.2512 27.8745 24.833 27.8745H27.5671V18.7375H35.6471V26.8096C35.6389 27.3953 36.1027 27.8785 36.6845 27.8867H36.7008H39.4348V8.28582C39.4348 7.70017 38.9629 7.2251 38.3811 7.2251H35.643V7.22919ZM51.681 12.3485V22.1654C51.6891 23.0582 51.2253 23.8896 50.4604 24.3483C48.3204 25.5933 46.1031 24.0329 46.1031 21.9852V13.4093C46.1031 12.8236 45.6311 12.3485 45.0493 12.3485H42.3153V22.3374C42.3235 25.5564 44.911 28.1611 48.1088 28.1775H49.663C52.8649 28.1693 55.4606 25.5564 55.4687 22.3333V13.4093C55.4687 12.8236 54.9968 12.3485 54.415 12.3485H51.681Z" fill="#A2A2A2"/>
<path d="M93.0455 27.8864H95.7794V13.9782C95.7794 13.3926 95.3075 12.9175 94.7257 12.9175H91.9917V26.8175C91.9877 27.4031 92.4555 27.8823 93.0373 27.8864H93.0455Z" fill="#A2A2A2"/>
<path d="M95.8373 10.1358C96.2836 9.05119 95.7719 7.80777 94.6945 7.35851C93.6171 6.90926 92.3818 7.42429 91.9355 8.50886C91.4892 9.59344 92.0009 10.8368 93.0783 11.2861C94.1557 11.7354 95.391 11.2203 95.8373 10.1358Z" fill="#A2A2A2"/>
<path d="M65.2413 12.3403C61.2745 12.3403 58.0278 15.1949 58.0278 19.188V21.3463C58.0278 25.3393 61.2745 28.1775 65.2413 28.1775C69.2081 28.1775 72.4547 25.3393 72.4547 21.3463V19.188C72.4588 15.1949 69.2121 12.3403 65.2413 12.3403ZM68.6507 21.6043C68.6507 23.4923 67.1169 24.7496 65.2372 24.7496C63.3576 24.7496 61.8278 23.4923 61.8278 21.6043V18.9095C61.8278 17.0215 63.3616 15.7641 65.2372 15.7641C67.1128 15.7641 68.6507 17.0215 68.6507 18.9095V21.6043Z" fill="#A2A2A2"/>
<path d="M82.2273 12.3404C81.0393 12.3322 79.8675 12.6025 78.7975 13.1226V8.30633C78.7975 7.72068 78.3256 7.24561 77.7438 7.24561H75.0098V21.3463C75.0098 25.3394 78.2564 28.1775 82.2232 28.1775C86.19 28.1775 89.4366 25.3394 89.4366 21.3463V19.188C89.4407 15.1949 86.2022 12.3404 82.2273 12.3404ZM85.6407 21.6043C85.6407 23.4923 84.1069 24.7496 82.2273 24.7496C80.3517 24.7496 78.8179 23.4923 78.8179 21.6043V18.9095C78.8179 17.0215 80.3517 15.7642 82.2273 15.7642C84.1029 15.7642 85.6407 17.0215 85.6407 18.9095V21.6043Z" fill="#A2A2A2"/>
<path d="M12.3315 8.92023C12.3315 4.75924 10.3176 1.1757 8.78376 0.0125915C8.78376 0.0125915 8.66578 -0.052936 8.67798 0.114978C8.55186 8.15438 4.47117 10.3332 2.22943 13.2655C-2.94568 20.0394 1.86327 27.4645 6.76986 28.8365C9.50389 29.6064 6.13518 27.4768 5.69985 22.9841C5.16688 17.5617 12.3315 13.4171 12.3315 8.92023Z" fill="#A2A2A2"/>
<path d="M14.6824 11.6601C14.6498 11.6396 14.6051 11.6232 14.5766 11.6765C14.4911 12.688 13.4659 14.8504 12.164 16.8408C7.74965 23.582 10.264 26.8338 11.6798 28.5825C12.5016 29.5941 11.6798 28.5825 13.7303 27.5464C16.265 25.9983 17.9087 23.3199 18.1528 20.3466C18.5556 15.5549 15.6995 12.5365 14.6824 11.6601Z" fill="#A2A2A2"/>
</svg>
