<svg width="180" height="42" viewBox="0 0 180 42" fill="none" xmlns="http://www.w3.org/2000/svg">
<path d="M60.35 28.2761C58.4925 28.2761 56.7588 27.8633 55.1901 27.0377C53.6628 26.2121 52.4244 25.0563 51.475 23.529C50.5669 22.0016 50.1128 20.3092 50.1128 18.4516C50.1128 16.5941 50.5669 14.9016 51.475 13.4156C52.3832 11.9295 53.6215 10.7737 55.1901 9.90683C56.7588 9.08125 58.4512 8.66846 60.35 8.66846C62.2076 8.66846 63.9413 9.08125 65.4687 9.90683C67.0373 10.7324 68.2757 11.8882 69.1425 13.4156C70.0507 14.9016 70.5047 16.5941 70.5047 18.4516C70.5047 20.3092 70.0507 22.0016 69.1425 23.529C68.2344 25.015 66.996 26.1709 65.4687 27.0377C63.9413 27.8633 62.2076 28.2761 60.35 28.2761ZM60.35 24.0243C61.9187 24.0243 63.1983 23.529 64.1477 22.497C65.0972 21.465 65.5925 20.1441 65.5925 18.4516C65.5925 16.7592 65.0972 15.397 64.1477 14.4063C63.1983 13.3743 61.9599 12.8789 60.35 12.8789C58.7402 12.8789 57.4605 13.3743 56.5111 14.365C55.5617 15.3557 55.1076 16.7179 55.1076 18.4104C55.1076 20.1028 55.5617 21.465 56.5111 22.4557C57.4605 23.529 58.7402 24.0243 60.35 24.0243Z" fill="#A1A1A1"/>
<path d="M78.0177 15.0255C78.4717 14.3238 79.1322 13.7459 79.9578 13.2918C80.7834 12.8377 81.7741 12.6313 82.8886 12.6313C84.2095 12.6313 85.3654 12.9616 86.4386 13.5808C87.5119 14.2 88.3375 15.1081 88.9154 16.3052C89.5346 17.5023 89.8648 18.8645 89.8648 20.4331C89.8648 22.0017 89.5346 23.364 88.9154 24.5611C88.2962 25.7581 87.4706 26.6663 86.4386 27.3268C85.3654 27.9459 84.2095 28.2762 82.8886 28.2762C81.8153 28.2762 80.8247 28.0698 79.9578 27.6157C79.1322 27.1616 78.4717 26.625 78.0177 25.9233V32.5692H73.188V12.8377H78.0177V15.0255ZM84.9113 20.4331C84.9113 19.2773 84.5811 18.3692 83.8793 17.7087C83.2189 17.0482 82.3933 16.718 81.4026 16.718C80.4531 16.718 79.6276 17.0482 78.9258 17.7087C78.2653 18.3692 77.9351 19.3186 77.9351 20.4744C77.9351 21.6302 78.2653 22.5384 78.9258 23.2401C79.5863 23.9006 80.4119 24.2308 81.4026 24.2308C82.352 24.2308 83.1776 23.9006 83.8793 23.2401C84.5811 22.5384 84.9113 21.6302 84.9113 20.4331Z" fill="#A1A1A1"/>
<path d="M107.243 20.2267C107.243 20.6808 107.202 21.1348 107.161 21.5889H96.2217C96.3043 22.5383 96.5932 23.2814 97.1711 23.7767C97.749 24.2721 98.4095 24.5197 99.2351 24.5197C100.432 24.5197 101.299 24.0244 101.753 23.0337H106.913C106.665 24.0244 106.17 24.9325 105.468 25.7168C104.808 26.5011 103.941 27.1616 102.909 27.6157C101.877 28.0697 100.721 28.3174 99.4415 28.3174C97.9142 28.3174 96.5107 27.9872 95.3136 27.368C94.1165 26.7488 93.1671 25.8407 92.5066 24.6436C91.8461 23.4465 91.4746 22.0843 91.4746 20.5156C91.4746 18.947 91.8048 17.5435 92.4653 16.3877C93.1258 15.1906 94.0752 14.2825 95.2723 13.6633C96.4694 13.0441 97.8729 12.7139 99.4415 12.7139C100.969 12.7139 102.331 13.0028 103.528 13.622C104.725 14.2412 105.633 15.1081 106.294 16.2639C106.913 17.3784 107.243 18.6994 107.243 20.2267ZM102.29 18.9883C102.29 18.204 102.001 17.5435 101.423 17.0895C100.845 16.6354 100.143 16.3877 99.3177 16.3877C98.4921 16.3877 97.8316 16.6354 97.2537 17.0895C96.7171 17.5435 96.3868 18.204 96.2217 19.0296H102.29V18.9883Z" fill="#A1A1A1"/>
<path d="M119.421 12.7139C121.278 12.7139 122.723 13.2918 123.838 14.4476C124.952 15.6034 125.489 17.172 125.489 19.1947V28.0697H120.7V19.8139C120.7 18.7819 120.411 17.9976 119.875 17.461C119.338 16.8831 118.595 16.6354 117.687 16.6354C116.779 16.6354 116.036 16.9243 115.499 17.461C114.963 18.0389 114.674 18.8232 114.674 19.8139V28.0697H109.803V12.8377H114.632V14.8604C115.128 14.1999 115.788 13.6633 116.614 13.2918C117.439 12.9203 118.389 12.7139 119.421 12.7139Z" fill="#A1A1A1"/>
<path d="M136.015 28.2761C134.571 28.2761 133.25 28.0284 132.094 27.5743C130.938 27.1203 130.03 26.4598 129.328 25.5517C128.668 24.6435 128.296 23.5703 128.255 22.3319H133.415C133.497 23.0336 133.745 23.5703 134.199 23.983C134.612 24.3546 135.19 24.5197 135.892 24.5197C136.593 24.5197 137.171 24.3546 137.584 24.0656C137.997 23.7354 138.203 23.2813 138.203 22.7447C138.203 22.2906 138.038 21.8778 137.708 21.5889C137.378 21.2999 136.965 21.0109 136.511 20.8458C136.057 20.6394 135.355 20.433 134.488 20.1441C133.208 19.7726 132.176 19.4011 131.351 18.9883C130.525 18.6168 129.823 18.0388 129.246 17.2958C128.668 16.5528 128.379 15.5621 128.379 14.365C128.379 12.59 129.039 11.1865 130.401 10.1958C131.722 9.16381 133.497 8.66846 135.644 8.66846C137.832 8.66846 139.607 9.16381 140.928 10.1958C142.249 11.1865 142.992 12.59 143.074 14.4063H137.832C137.79 13.7871 137.543 13.2917 137.13 12.9615C136.717 12.59 136.139 12.4249 135.479 12.4249C134.901 12.4249 134.405 12.59 134.075 12.8789C133.704 13.1679 133.539 13.5807 133.539 14.1586C133.539 14.7778 133.828 15.2731 134.447 15.6034C135.066 15.9336 135.974 16.3051 137.254 16.7179C138.533 17.1307 139.565 17.5435 140.35 17.915C141.175 18.2865 141.877 18.8644 142.455 19.5662C143.033 20.3092 143.322 21.2173 143.322 22.3732C143.322 23.4464 143.033 24.4371 142.455 25.3453C141.877 26.2534 141.051 26.9552 139.978 27.4918C138.822 28.0284 137.543 28.2761 136.015 28.2761Z" fill="#A1A1A1"/>
<path d="M161.113 20.2267C161.113 20.6808 161.072 21.1348 161.03 21.5889H150.091C150.174 22.5383 150.463 23.2814 151.041 23.7767C151.619 24.2721 152.279 24.5197 153.105 24.5197C154.302 24.5197 155.169 24.0244 155.623 23.0337H160.783C160.535 24.0244 160.04 24.9325 159.338 25.7168C158.677 26.5011 157.811 27.1616 156.779 27.6157C155.747 28.0697 154.591 28.3174 153.311 28.3174C151.784 28.3174 150.38 27.9872 149.183 27.368C147.986 26.7488 147.037 25.8407 146.376 24.6436C145.716 23.4465 145.344 22.0843 145.344 20.5156C145.344 18.947 145.674 17.5435 146.335 16.3877C146.995 15.1906 147.945 14.2825 149.142 13.6633C150.339 13.0441 151.743 12.7139 153.311 12.7139C154.838 12.7139 156.201 13.0028 157.398 13.622C158.595 14.2412 159.503 15.1081 160.163 16.2639C160.783 17.3784 161.113 18.6994 161.113 20.2267ZM156.159 18.9883C156.159 18.204 155.87 17.5435 155.293 17.0895C154.715 16.6354 154.013 16.3877 153.187 16.3877C152.362 16.3877 151.701 16.6354 151.123 17.0895C150.587 17.5435 150.256 18.204 150.091 19.0296H156.159V18.9883Z" fill="#A1A1A1"/>
<path d="M162.723 20.4331C162.723 18.8645 163.012 17.5023 163.631 16.3052C164.25 15.1081 165.076 14.2 166.149 13.5808C167.222 12.9616 168.378 12.6313 169.699 12.6313C170.813 12.6313 171.763 12.8377 172.63 13.2918C173.497 13.7459 174.116 14.2825 174.57 15.0255V12.879H179.399V28.1111H174.57V25.9645C174.116 26.6663 173.455 27.2442 172.588 27.6983C171.763 28.1523 170.772 28.3587 169.658 28.3587C168.378 28.3587 167.222 28.0285 166.149 27.4093C165.076 26.7488 164.25 25.8407 163.631 24.6436C163.012 23.4052 162.723 22.0017 162.723 20.4331ZM174.529 20.4744C174.529 19.3186 174.198 18.4104 173.497 17.7087C172.836 17.0482 172.01 16.718 171.061 16.718C170.112 16.718 169.286 17.0482 168.584 17.7087C167.924 18.3692 167.594 19.2773 167.594 20.4331C167.594 21.5889 167.924 22.5384 168.584 23.1988C169.245 23.8593 170.07 24.1895 171.061 24.1895C172.01 24.1895 172.836 23.8593 173.497 23.1988C174.198 22.5796 174.529 21.6302 174.529 20.4744Z" fill="#A1A1A1"/>
<path d="M41.2792 20.6396C41.2792 32.0327 32.0327 41.2792 20.6396 41.2792C9.24655 41.2792 0 32.0327 0 20.6396C0 9.24655 9.24655 0 20.6396 0C32.0327 0 41.2792 9.24655 41.2792 20.6396Z" fill="#A1A1A1"/>
<path d="M10.1958 21.3413L10.2784 21.2175L15.6447 12.8378C15.7272 12.7139 15.8924 12.7139 15.9749 12.8791C16.8831 14.9017 17.6261 17.3785 17.2959 18.9471C17.1307 19.6076 16.718 20.4744 16.2226 21.2588C16.1813 21.3826 16.0988 21.5064 16.0162 21.589C15.9749 21.6303 15.9336 21.6715 15.8511 21.6715H10.3197C10.1958 21.6303 10.1133 21.4651 10.1958 21.3413Z" fill="white"/>
<path d="M34.0967 22.91V24.2309C34.0967 24.3135 34.0555 24.3548 33.9729 24.396C33.5601 24.5612 32.1153 25.2216 31.5374 26.0472C30.0101 28.1524 28.8543 31.1658 26.295 31.1658H15.5211C11.7234 31.1658 8.62744 28.0699 8.62744 24.2309V24.1071C8.62744 24.0245 8.71 23.942 8.79256 23.942H14.8606C14.9844 23.942 15.067 24.0658 15.067 24.1484C15.0257 24.5199 15.1083 24.9327 15.2734 25.3042C15.6449 26.0472 16.3879 26.46 17.1722 26.46H20.1443V24.1484H17.2135C17.0484 24.1484 16.9658 23.9832 17.0484 23.8594C17.0897 23.8181 17.131 23.7769 17.1722 23.6943C17.4612 23.2815 17.8327 22.7036 18.2455 22.0018C18.5345 21.5478 18.7821 21.0111 18.9885 20.5158C19.0298 20.4332 19.0711 20.3507 19.1124 20.2268C19.1536 20.0617 19.2362 19.8966 19.2775 19.7728C19.3188 19.6489 19.36 19.5251 19.4013 19.4013C19.4839 18.9885 19.5252 18.5344 19.5252 18.039C19.5252 17.8739 19.5252 17.6675 19.4839 17.4611C19.4839 17.2547 19.4426 17.0483 19.4426 16.8419C19.4426 16.6768 19.4013 16.4704 19.36 16.3053C19.3188 16.0164 19.2775 15.7687 19.1949 15.4797L19.1536 15.3972C19.1124 15.232 19.0711 15.0257 18.9885 14.8605C18.8234 14.2826 18.617 13.7047 18.4106 13.2094C18.3281 13.003 18.2455 12.7966 18.1629 12.5902C18.0391 12.3012 17.9153 12.0123 17.7914 11.7646C17.7502 11.6408 17.6676 11.5582 17.6263 11.4344C17.585 11.3105 17.5025 11.1867 17.4612 11.0628C17.4199 10.9803 17.3786 10.8977 17.3374 10.8152L16.9658 10.1547C16.9246 10.0721 17.0071 9.94831 17.0897 9.98959L19.36 10.6088L19.649 10.6913L19.9792 10.7739L20.1031 10.8152V9.45295C20.1031 8.79249 20.6397 8.25586 21.2589 8.25586C21.5891 8.25586 21.8781 8.37969 22.0845 8.58609C22.2909 8.79248 22.4147 9.08144 22.4147 9.41167V11.3931L22.6624 11.4756C22.6624 11.4756 22.7037 11.4756 22.7037 11.5169C22.7449 11.5582 22.8275 11.6408 22.9513 11.7233C23.0339 11.8059 23.1165 11.8884 23.2403 11.971C23.4467 12.1361 23.7356 12.3838 24.0246 12.6315C24.1072 12.714 24.1897 12.7553 24.231 12.8379C24.6025 13.1681 25.0153 13.5809 25.4281 14.035C25.5519 14.1588 25.6345 14.2826 25.7583 14.4065C25.8822 14.5303 25.9647 14.6954 26.0886 14.8193C26.2124 14.9844 26.3775 15.1908 26.5013 15.3559C26.5426 15.4384 26.6252 15.521 26.6665 15.6448C26.8316 15.8925 26.9554 16.1402 27.1205 16.3879C27.1618 16.5117 27.2444 16.6355 27.2857 16.7594C27.4508 17.0896 27.5746 17.4198 27.6159 17.7914C27.6572 17.8739 27.6572 17.9565 27.6572 17.9978C27.6984 18.0803 27.6985 18.2042 27.6985 18.328C27.7397 18.6995 27.6984 19.0297 27.6572 19.4013C27.6159 19.5664 27.5746 19.6902 27.5333 19.8553C27.4921 19.9792 27.4508 20.1443 27.3682 20.3094C27.2444 20.5984 27.0793 20.8873 26.9141 21.1763C26.8729 21.2588 26.7903 21.3827 26.7077 21.5065C26.6252 21.6303 26.5426 21.7129 26.5013 21.8367C26.4188 21.9606 26.295 22.0844 26.2124 22.2082C26.1298 22.3321 26.0473 22.4559 25.9234 22.5798C25.7996 22.7449 25.6345 22.91 25.5106 23.0751C25.4281 23.1577 25.3455 23.2815 25.2217 23.3641C25.1391 23.4466 25.0566 23.5705 24.9327 23.653C24.8089 23.7768 24.6851 23.9007 24.5612 23.9832L24.3135 24.1896C24.2723 24.2309 24.231 24.2309 24.1897 24.2309H22.3734V26.5426H24.6438C25.1391 26.5426 25.6345 26.3774 26.006 26.0472C26.1298 25.9234 26.7077 25.428 27.4095 24.685C27.4508 24.6437 27.4508 24.6437 27.4921 24.6437L33.7665 22.8274C34.0142 22.7036 34.0967 22.7862 34.0967 22.91Z" fill="white"/>
</svg>
