<svg width="32" height="30" viewBox="0 0 32 30" fill="none" xmlns="http://www.w3.org/2000/svg">
<path d="M16.7768 26.6144L16.7768 26.6145L16.7984 26.6247C17.3461 26.885 17.9036 27.15 18.4492 27.15H27.9492C29.1351 27.15 30.0992 26.1858 30.0992 25C30.0992 24.5344 29.9499 24.1024 29.6971 23.75C30.2426 23.3597 30.5992 22.7218 30.5992 22C30.5992 21.5344 30.4499 21.1024 30.1971 20.75C30.7426 20.3597 31.0992 19.7218 31.0992 19C31.0992 18.2782 30.7426 17.6403 30.1971 17.25C30.4499 16.8976 30.5992 16.4656 30.5992 16C30.5992 14.8142 29.6351 13.85 28.4492 13.85H19.7451C19.897 13.0227 20.0962 11.6374 20.0962 10.065C20.0962 8.00216 19.4726 6.92969 18.6746 6.38428C17.8928 5.84995 16.9794 5.84998 16.4583 5.85L16.4492 5.85C16.0904 5.85 15.7992 6.14116 15.7992 6.5V10.3466L13.7911 14.3589L13.7909 14.3591C13.6311 14.6802 13.7611 15.07 14.0819 15.2311L14.0821 15.2312C14.4051 15.3926 14.7935 15.2593 14.9542 14.9405L14.9544 14.9401L17.0294 10.7911L17.0294 10.7911C17.0748 10.7002 17.0982 10.6003 17.0982 10.5V7.17418C17.5047 7.21832 17.892 7.3424 18.1934 7.68474C18.5377 8.07585 18.7952 8.78065 18.7952 10.066C18.7952 12.2987 18.3533 14.1788 18.3156 14.3388C18.3153 14.3404 18.3149 14.3418 18.3146 14.3431L18.3146 14.3431C18.2667 14.5371 18.3092 14.7427 18.4332 14.9006C18.5565 15.0576 18.7449 15.15 18.9452 15.15H28.4492C28.9175 15.15 29.2992 15.5309 29.2992 16C29.2992 16.4691 28.9175 16.85 28.4492 16.85C28.0904 16.85 27.7992 17.1412 27.7992 17.5C27.7992 17.8588 28.0904 18.15 28.4492 18.15H28.9492C29.4175 18.15 29.7992 18.5309 29.7992 19C29.7992 19.4691 29.4175 19.85 28.9492 19.85H28.4492C28.0904 19.85 27.7992 20.1412 27.7992 20.5C27.7992 20.8588 28.0904 21.15 28.4492 21.15C28.9175 21.15 29.2992 21.5309 29.2992 22C29.2992 22.4691 28.9175 22.85 28.4492 22.85H27.9492C27.5904 22.85 27.2992 23.1412 27.2992 23.5C27.2992 23.8588 27.5904 24.15 27.9492 24.15C28.4175 24.15 28.7992 24.5309 28.7992 25C28.7992 25.4691 28.4175 25.85 27.9492 25.85H18.4492C18.336 25.85 18.1736 25.8056 17.9715 25.7264C17.7763 25.6498 17.562 25.5483 17.3447 25.4453L17.3346 25.4405L17.3344 25.4404L17.3144 25.4309C16.732 25.1543 16.0911 24.85 15.4492 24.85H13.4492C13.0904 24.85 12.7992 25.1412 12.7992 25.5C12.7992 25.8588 13.0904 26.15 13.4492 26.15H15.4492C15.6135 26.15 15.8169 26.2029 16.05 26.2913C16.2813 26.3789 16.5276 26.4959 16.7768 26.6144Z" fill="#222222" stroke="#222222" stroke-width="0.3"/>
<path d="M9.79922 27V27.15H9.94922H13.5002C13.8866 27.15 14.0992 26.8135 14.0992 26.482V16.482C14.0992 16.3137 14.0464 16.1554 13.94 16.0375C13.8322 15.9178 13.6785 15.85 13.5002 15.85H9.94922H9.79922V16V17V17.15H9.94922H12.7992V25.85H9.94922H9.79922V26V27Z" fill="#222222" stroke="#222222" stroke-width="0.3"/>
<path d="M0.85 28.5C0.85 28.8588 1.14116 29.15 1.5 29.15H10.5C10.8864 29.15 11.099 28.8135 11.099 28.482V16.482C11.099 16.3137 11.0461 16.1554 10.9398 16.0375C10.832 15.9178 10.6783 15.85 10.5 15.85H1.5C1.14116 15.85 0.85 16.1412 0.85 16.5C0.85 16.8588 1.14116 17.15 1.5 17.15H9.799V27.85H1.5C1.14116 27.85 0.85 28.1412 0.85 28.5Z" fill="#222222" stroke="#222222" stroke-width="0.3"/>
<path d="M23.9487 21.15H28.9487C30.1346 21.15 31.0987 20.1858 31.0987 19C31.0987 17.8142 30.1346 16.85 28.9487 16.85H23.9487C22.7629 16.85 21.7987 17.8142 21.7987 19C21.7987 20.1858 22.7629 21.15 23.9487 21.15ZM23.0987 19C23.0987 18.5309 23.4805 18.15 23.9487 18.15H28.9487C29.417 18.15 29.7987 18.5309 29.7987 19C29.7987 19.4691 29.417 19.85 28.9487 19.85H23.9487C23.4805 19.85 23.0987 19.4691 23.0987 19Z" fill="#222222" stroke="#222222" stroke-width="0.3"/>
<path d="M24.9487 27.15H27.9487C29.1346 27.15 30.0987 26.1858 30.0987 25C30.0987 23.8142 29.1346 22.85 27.9487 22.85H24.9487C23.7629 22.85 22.7987 23.8142 22.7987 25C22.7987 26.1858 23.7629 27.15 24.9487 27.15ZM24.0987 25C24.0987 24.5309 24.4805 24.15 24.9487 24.15H27.9487C28.417 24.15 28.7987 24.5309 28.7987 25C28.7987 25.4691 28.417 25.85 27.9487 25.85H24.9487C24.4805 25.85 24.0987 25.4691 24.0987 25Z" fill="#222222" stroke="#222222" stroke-width="0.3"/>
<path d="M24.4487 24.15H28.4487C29.6346 24.15 30.5987 23.1858 30.5987 22C30.5987 20.8142 29.6346 19.85 28.4487 19.85H24.4487C23.2629 19.85 22.2987 20.8142 22.2987 22C22.2987 23.1858 23.2629 24.15 24.4487 24.15ZM23.5987 22C23.5987 21.5309 23.9805 21.15 24.4487 21.15H28.4487C28.917 21.15 29.2987 21.5309 29.2987 22C29.2987 22.4691 28.917 22.85 28.4487 22.85H24.4487C23.9805 22.85 23.5987 22.4691 23.5987 22Z" fill="#222222" stroke="#222222" stroke-width="0.3"/>
<path d="M24.4487 18.15H28.4487C29.6346 18.15 30.5987 17.1858 30.5987 16C30.5987 14.8142 29.6346 13.85 28.4487 13.85H24.4487C23.2629 13.85 22.2987 14.8142 22.2987 16C22.2987 17.1858 23.2629 18.15 24.4487 18.15ZM23.5987 16C23.5987 15.5309 23.9805 15.15 24.4487 15.15H28.4487C28.917 15.15 29.2987 15.5309 29.2987 16C29.2987 16.4691 28.917 16.85 28.4487 16.85H24.4487C23.9805 16.85 23.5987 16.4691 23.5987 16Z" fill="#222222" stroke="#222222" stroke-width="0.3"/>
<path d="M18.5169 14.28L18.3922 14.1967C18.1931 14.4947 18.2738 14.8988 18.5726 15.0978C18.9657 15.3603 19.2745 15.8305 19.4533 16.4181C19.6315 17.0039 19.6762 17.6939 19.5523 18.3783C19.3074 19.7285 18.4988 20.6656 17.4098 20.92L17.4092 20.9201C17.0606 21.003 16.843 21.3508 16.9248 21.7008C16.994 22.003 17.2623 22.204 17.5569 22.204C17.6052 22.204 17.6554 22.199 17.7075 22.1858C19.3347 21.8044 20.4969 20.4575 20.8315 18.6098L20.8315 18.6097C21.1725 16.7253 20.574 14.8705 19.2931 14.0162L19.2927 14.016C18.9934 13.8177 18.59 13.8974 18.3918 14.1973L18.5169 14.28ZM18.5169 14.28C18.6689 14.05 18.9789 13.988 19.2099 14.141M18.5169 14.28C18.3639 14.509 18.4259 14.82 18.6559 14.973C19.5169 15.548 19.9559 16.991 19.6999 18.405C19.4469 19.8 18.6039 20.795 17.4439 21.066L19.2099 14.141M19.2099 14.141C20.4259 14.952 21.0179 16.737 20.6839 18.583L19.2099 14.141Z" fill="#222222" stroke="#222222" stroke-width="0.3"/>
<path d="M21.653 2.21544L21.6533 2.21563C21.9433 2.42627 22.0082 2.83207 21.7965 3.12318C21.7965 3.1232 21.7964 3.12322 21.7964 3.12325L20.6205 4.74111L20.6205 4.74118L20.4991 4.65299C20.4011 4.78799 20.2491 4.85899 20.0941 4.85899C19.9911 4.85899 19.8891 4.82799 19.8011 4.76299L21.653 2.21544ZM21.653 2.21544C21.3632 2.00583 20.956 2.06668 20.7456 2.35909M21.653 2.21544L20.7456 2.35909M20.7456 2.35909L19.5699 3.97673L19.5698 3.9768L19.6911 4.06499L20.7456 2.35909Z" fill="#F12A23" stroke="#F12A23" stroke-width="0.3"/>
<path d="M24.2486 5.79147C24.137 5.44899 23.7695 5.26246 23.4293 5.37437C23.4292 5.3744 23.4291 5.37444 23.429 5.37447L21.5281 5.9921C21.528 5.99213 21.528 5.99216 21.5279 5.99219C21.1865 6.10181 20.9999 6.46874 21.1102 6.81006L21.1103 6.81036L23.8311 6.61066C23.8311 6.61065 23.8312 6.61063 23.8312 6.61061C24.173 6.50006 24.3603 6.13342 24.2486 5.79147ZM24.2486 5.79147L24.1059 5.83793L24.2485 5.79131C24.2485 5.79137 24.2485 5.79142 24.2486 5.79147Z" fill="#F12A23" stroke="#F12A23" stroke-width="0.3"/>
<path d="M13.645 9.23613L13.7878 9.19016C13.6772 8.84682 13.3092 8.66083 12.9684 8.77253C12.9684 8.77256 12.9683 8.77258 12.9682 8.77261L11.0669 9.3904L11.113 9.53313L11.0666 9.39047L11.0668 9.39043C10.7249 9.50097 10.5376 9.86774 10.6494 10.2097L10.792 10.1631L10.6494 10.2096C10.739 10.4851 10.994 10.6591 11.268 10.6591C11.3346 10.6591 11.4018 10.6487 11.4669 10.6282L11.4669 10.6283L11.4683 10.6278L13.3703 10.0098L13.3708 10.0096C13.7111 9.89794 13.8982 9.53172 13.7877 9.19L13.645 9.23613ZM13.645 9.23613C13.73 9.49913 13.586 9.78113 13.324 9.86713L13.015 8.91513C13.277 8.82913 13.56 8.97213 13.645 9.23613Z" fill="#F12A23" stroke="#F12A23" stroke-width="0.3"/>
<path d="M21.1104 9.18941L21.1104 9.18941C21.2219 8.84842 21.587 8.66054 21.9294 8.77241L21.9293 8.77238L21.8829 8.91503L21.9296 8.77246L23.8311 9.3903C23.8311 9.39031 23.8311 9.39032 23.8311 9.39033L23.8313 9.39038L23.7849 9.53303C24.0479 9.61803 24.1919 9.90003 24.1059 10.162L21.1104 9.18941ZM21.1104 9.18941L21.1102 9.1899C20.9998 9.53145 21.1867 9.89806 21.5276 10.0087C21.5276 10.0087 21.5276 10.0087 21.5277 10.0087L23.4291 10.6265C23.4973 10.6492 23.5654 10.658 23.6299 10.658C23.9039 10.658 24.1588 10.4841 24.2485 10.2086L21.1104 9.18941Z" fill="#F12A23" stroke="#F12A23" stroke-width="0.3"/>
<path d="M13.7877 6.80913L13.7876 6.80942C13.6979 7.08501 13.443 7.259 13.169 7.259C13.1045 7.259 13.0364 7.25016 12.9681 7.22749L11.0669 6.60973C11.0668 6.60971 11.0668 6.60969 11.0667 6.60968L13.7877 6.80913ZM13.7877 6.80913C13.8981 6.46756 13.7112 6.10092 13.3703 5.99032M13.7877 6.80913L13.3703 5.99032M13.3703 5.99032L13.3703 5.99034L13.324 6.133C13.586 6.218 13.73 6.5 13.645 6.763L13.3703 5.99032Z" fill="#F12A23" stroke="#F12A23" stroke-width="0.3"/>
<path d="M14.1536 2.35939C14.1535 2.35929 14.1534 2.35919 14.1534 2.35909C13.9419 2.06572 13.5346 2.00578 13.2457 2.21567C12.9559 2.42621 12.8906 2.83307 13.1026 3.12337C13.1027 3.12343 13.1027 3.12349 13.1028 3.12355L14.2785 4.74115C14.2785 4.74117 14.2785 4.7412 14.2785 4.74122C14.406 4.91684 14.6041 5.00903 14.8049 5.00903C14.9371 5.00903 15.0715 4.96882 15.1865 4.88404C15.4759 4.67341 15.541 4.26685 15.3291 3.97671C15.329 3.97664 15.329 3.97658 15.329 3.97652L14.1536 2.35939Z" fill="#F12A23" stroke="#F12A23" stroke-width="0.3"/>
<path d="M17.4492 0.85C17.0904 0.85 16.7992 1.14116 16.7992 1.5V3.5C16.7992 3.85884 17.0904 4.15 17.4492 4.15C17.8081 4.15 18.0992 3.85884 18.0992 3.5V1.5C18.0992 1.14116 17.8081 0.85 17.4492 0.85Z" fill="#F12A23" stroke="#F12A23" stroke-width="0.3"/>
</svg>
