<svg width="156" height="27" viewBox="0 0 156 27" fill="none" xmlns="http://www.w3.org/2000/svg">
<path d="M0 1.08105V20.6013H4.93156V12.776H15.7706V8.76637H4.93156V5.0847H16.7985V1.08105H0ZM48.0298 13.31C48.0298 8.55039 51.3575 5.53866 56.859 5.53866C62.5265 5.53866 65.6902 8.52439 65.6902 13.8759V14.4919H53.1513C53.1513 16.6157 54.6892 17.9956 56.859 17.9956C58.5948 17.9956 59.8967 17.2096 60.4367 15.8657H65.4502C64.2323 19.1755 61.1986 21.1113 56.859 21.1113C51.4155 21.1113 48.0298 18.0975 48.0298 13.31ZM56.969 8.55039C54.8512 8.55039 53.4433 9.68229 53.2853 11.4841H60.6546C60.4907 9.68229 59.0788 8.55039 56.969 8.55039ZM41.8843 7.96045V6.05461H37.3347V20.6033H41.8843V14.0979C41.8843 11.1642 43.5122 9.41632 46.1659 9.41632C46.6799 9.41632 47.3598 9.44431 47.6018 9.47031V5.65065C47.2498 5.59665 46.6559 5.54266 46.3299 5.54266C44.678 5.53866 43.2422 6.34859 41.8843 7.96045ZM17.3105 13.308C17.3105 8.55039 20.7762 5.53866 26.6057 5.53866C32.4351 5.53866 35.8708 8.54839 35.8708 13.308C35.8708 18.0975 32.3771 21.1113 26.6057 21.1113C20.8342 21.1113 17.3105 18.0975 17.3105 13.308ZM22.242 13.34C22.242 15.8977 23.9499 17.6456 26.6057 17.6456C29.2074 17.6456 30.9393 15.8657 30.9393 13.308C30.9393 10.7622 29.2074 9.00835 26.6057 9.00835C23.9499 9.00835 22.242 10.7862 22.242 13.34ZM77.3172 6.04861H83.1926L76.9332 13.308L83.6266 20.6013H77.5831L74.2234 16.5417L70.9977 20.6013H65.0363L71.5157 13.178L65.7442 6.04861H71.4337L74.3034 9.92227L77.3172 6.04861Z" fill="#A1A1A1"/>
<path d="M122.807 13.3321C122.807 16.1539 124.585 17.9037 127.465 17.9037C130.286 17.9037 132.094 16.1259 132.094 13.3601C132.094 10.5084 130.316 8.73052 127.465 8.73052C124.613 8.73052 122.807 10.5104 122.807 13.3321ZM136.934 13.3041C136.934 18.0097 133.164 21.1354 127.495 21.1354C121.679 21.1354 117.967 18.0377 117.967 13.1861C117.967 8.59853 121.825 5.4708 127.465 5.4708C133.162 5.4728 136.934 8.59853 136.934 13.3041ZM107.268 20.4655L99.993 6.03275L105.195 6.02875L109.556 15.6719L114.062 6.02476L118.783 6.01676L109.224 26.213H104.545C104.547 26.213 106.91 21.2614 107.268 20.4655ZM150.421 13.6801V6.03676H155.164V13.1881C155.164 17.4797 151.108 20.9694 146.879 20.9694C142.651 20.9694 138.596 17.4777 138.596 13.1881V6.03676H143.339V13.6801C143.339 15.4419 144.989 17.0638 146.881 17.0638C148.771 17.0638 150.421 15.6599 150.421 13.6801ZM89.7499 12.0922H98.5831V26.193H93.9235V16.1679H83.6284V12.1882L96.0453 0.155273L98.9711 3.06302L89.7499 12.0922Z" fill="#A1A1A1"/>
</svg>
