<svg width="34" height="34" viewBox="0 0 34 34" fill="none" xmlns="http://www.w3.org/2000/svg">
<path d="M33.9078 17.0003C33.9078 26.3397 26.3369 33.9109 16.9976 33.9109C7.65817 33.9109 0.0871582 26.3397 0.0871582 17.0003C0.0871582 7.66101 7.65817 0.0899963 16.9976 0.0899963C26.3368 0.0899963 33.9078 7.66101 33.9078 17.0003" fill="#3CC8C8"/>
<path fill-rule="evenodd" clip-rule="evenodd" d="M18.1355 8.62898C18.3626 8.19754 17.8408 7.67516 17.4133 7.90034C17.0655 8.04032 16.9772 8.54883 17.2479 8.80611C17.5034 9.07419 18.0036 8.98067 18.1355 8.62898ZM13.3769 8.81929C13.4034 8.53338 13.0746 8.29304 12.8149 8.40103C12.4534 8.49831 12.4133 9.0734 12.764 9.21061C13.0287 9.35812 13.4044 9.12967 13.3769 8.81929ZM22.2329 9.21932C21.827 9.16979 21.7628 8.52526 22.1535 8.39548C22.4566 8.24618 22.7346 8.52615 22.779 8.81632C22.7154 9.06409 22.51 9.29095 22.2329 9.21932ZM14.8481 11.023C14.9149 10.5136 14.2954 10.1005 13.8612 10.3779C13.4546 10.5879 13.3987 11.2145 13.7676 11.4877C14.1492 11.8354 14.8256 11.5374 14.8481 11.023ZM20.4893 10.6723C20.683 10.168 21.468 10.1527 21.6884 10.6436C21.9064 11.0256 21.6383 11.4987 21.25 11.6286C20.7357 11.7255 20.2472 11.1639 20.4893 10.6723ZM17.6539 10.814C17.2461 10.8435 16.8553 11.1665 16.8595 11.5999C16.8363 11.9541 17.0868 12.2434 17.3842 12.3909C17.4142 12.3927 17.4445 12.3951 17.475 12.3976C17.643 12.411 17.8176 12.425 17.9688 12.3395C18.3595 12.1649 18.5515 11.6412 18.3353 11.2609C18.2193 10.9852 17.9244 10.8688 17.6539 10.814ZM10.0211 12.2315C10.4177 11.9852 10.9528 12.4347 10.8027 12.8699C10.72 13.2463 10.219 13.3995 9.93261 13.1591C9.6269 12.934 9.67535 12.3926 10.0211 12.2315ZM25.5574 12.6987C25.5975 12.2695 25.0422 11.9668 24.7057 12.2307C24.3604 12.4449 24.3979 13.0166 24.7658 13.1836C25.0999 13.3851 25.5799 13.09 25.5574 12.6987ZM18.7826 13.0099C19.3379 12.8083 19.9975 13.0495 20.314 13.5496C20.7315 14.1609 20.5094 15.092 19.8615 15.4428C19.1901 15.8577 18.2098 15.506 17.9619 14.7487C17.6804 14.0708 18.0905 13.2224 18.7826 13.0099ZM17.2654 13.6652C16.9682 13.0293 16.1399 12.7831 15.5245 13.0765C14.8685 13.3724 14.5668 14.2453 14.9066 14.888C15.2097 15.5525 16.0931 15.8249 16.7194 15.4656C17.3448 15.146 17.6153 14.2842 17.2654 13.6652ZM12.2621 14.2031C12.3089 13.8026 12.683 13.5419 13.0604 13.515C13.467 13.5645 13.7918 13.8835 13.8361 14.2992C13.8094 14.7107 13.4946 15.113 13.0628 15.1105C12.5879 15.1518 12.1714 14.6745 12.2621 14.2031ZM23.0411 14.2986C23.0628 13.7327 22.3857 13.3154 21.898 13.6021C21.3745 13.8514 21.3352 14.6762 21.8396 14.969C22.3252 15.3207 23.0746 14.8982 23.0411 14.2986ZM14.1986 15.7152C14.7689 15.5567 15.421 15.8282 15.7007 16.3577C16.0071 16.8907 15.8819 17.6312 15.406 18.0221C14.7957 18.5955 13.67 18.3653 13.3452 17.5827C12.9719 16.8654 13.4253 15.904 14.1986 15.7152ZM21.8821 16.2781C21.5841 15.7679 20.9328 15.552 20.3783 15.7122C19.5993 15.9277 19.1868 16.9261 19.5967 17.6325C19.9349 18.3155 20.8869 18.5449 21.5014 18.1081C22.0881 17.7319 22.2762 16.8616 21.8821 16.2781ZM10.5304 16.378C11.023 16.1897 11.5691 16.7389 11.3695 17.2322C11.2476 17.6817 10.6205 17.8478 10.2966 17.5164C9.9175 17.2053 10.0579 16.5129 10.5304 16.378ZM24.5866 16.2936C24.168 16.3164 23.8694 16.6816 23.8836 17.0939C23.9654 17.2862 24.0647 17.4869 24.2585 17.5864C24.6717 17.8166 25.2563 17.4835 25.2254 16.9936C25.2521 16.6226 24.924 16.3476 24.5866 16.2936ZM8.10808 16.62C8.40447 16.4893 8.77108 16.7488 8.70341 17.0812C8.68752 17.4577 8.1373 17.6024 7.93517 17.2879C7.75657 17.0694 7.86347 16.7326 8.10808 16.62ZM27.4222 16.8165C27.3395 16.5702 27.0047 16.4624 26.796 16.6124C26.4487 16.7996 26.5848 17.4473 27.0056 17.4086C27.3053 17.454 27.5625 17.0855 27.4222 16.8165ZM15.8084 18.4195C16.5883 18.2147 17.4267 18.8716 17.4316 19.6828C17.4825 20.5024 16.6568 21.2293 15.8584 21.04C15.2413 20.9396 14.7571 20.3392 14.7771 19.7093C14.7755 19.1069 15.2255 18.5469 15.8084 18.4195ZM20.5395 19.693C20.552 18.8631 19.6886 18.1944 18.8971 18.4179C18.4278 18.5356 18.0304 18.9264 17.9267 19.4068C17.7213 20.1279 18.2641 20.9442 18.9997 21.0403C19.7813 21.1999 20.5812 20.4975 20.5395 19.693ZM12.9419 18.9172C13.4897 18.8227 14.0032 19.44 13.7811 19.9654C13.619 20.5252 12.8124 20.6771 12.4558 20.2198C12.0375 19.7806 12.3498 18.9778 12.9419 18.9172ZM23.0502 19.6974C23.0878 19.162 22.4883 18.7352 21.9998 18.9418C21.4095 19.1313 21.311 20.0404 21.852 20.3493C22.3297 20.6933 23.0699 20.2869 23.0502 19.6974ZM24.5316 21.5069C24.3403 21.1468 24.6877 20.6695 25.0836 20.7361C25.2697 20.733 25.403 20.8727 25.5235 20.9991L25.5445 21.0212L25.549 21.0577C25.5746 21.263 25.604 21.4984 25.4385 21.6536C25.2004 21.958 24.661 21.8712 24.5316 21.5069ZM10.8385 21.3955C10.9217 20.9586 10.3894 20.5876 10.0194 20.8364C9.66701 21.0178 9.65446 21.5845 9.99508 21.7835C10.3125 22.0027 10.7943 21.7819 10.8385 21.3955ZM17.3281 21.6452C17.8124 21.4293 18.4294 21.8552 18.3835 22.394C18.4194 22.9894 17.6563 23.4018 17.1828 23.0442C16.6568 22.7372 16.7445 21.834 17.3281 21.6452ZM14.8715 23.0686C14.909 22.6023 14.3555 22.2236 13.943 22.4429C13.6524 22.5525 13.5339 22.8764 13.5288 23.1672C13.6282 23.434 13.8302 23.7145 14.14 23.7212C14.5141 23.7778 14.884 23.4515 14.8715 23.0686ZM20.8 22.4496C21.2241 22.1848 21.827 22.5651 21.7869 23.0638C21.7978 23.585 21.1165 23.9189 20.7215 23.5765C20.3391 23.3081 20.3858 22.663 20.8 22.4496ZM22.3322 24.7257C22.0258 24.7915 21.8037 25.1389 21.9924 25.4273C22.1861 25.7621 22.7514 25.6424 22.7873 25.2519C22.8391 24.9635 22.5786 24.7763 22.3322 24.7257ZM12.5268 25.1769C12.602 24.9483 12.784 24.7211 13.0504 24.7806C13.4387 24.8084 13.5539 25.3996 13.2141 25.5817C12.9085 25.7899 12.5539 25.5049 12.5268 25.1769ZM17.8867 25.1161C17.6011 24.9365 17.1678 25.101 17.0934 25.4391C16.9576 25.7807 17.2838 26.1936 17.6454 26.1508C17.84 26.1558 17.9902 26.0158 18.1071 25.8759C18.1299 25.7815 18.153 25.6869 18.1789 25.5925L18.1773 25.5865C18.1293 25.4066 18.0733 25.197 17.8867 25.1161Z" fill="white"/>
</svg>
