<svg width="33" height="33" viewBox="0 0 33 33" fill="none" xmlns="http://www.w3.org/2000/svg">
<circle cx="16.5" cy="16.5" r="16.5" fill="#315A98"/>
<path d="M12.1297 24.0632L14.225 20.4474L16.3204 16.8444L18.403 13.2287L18.7479 12.6558L18.9013 13.2287L19.5401 15.6095L18.8246 16.8444L16.7292 20.4474L14.6467 24.0632H17.1509L19.2462 20.4474L20.3322 18.5759L20.8433 20.4474L21.8143 24.0632H24.063L23.092 20.4474L22.121 16.8444L21.8654 15.915L23.4242 13.2287H21.1499L21.0733 12.9613L20.2811 10.0076L20.1789 9.62567H17.9941L17.943 9.70206L15.8988 13.2287L13.8034 16.8444L11.7208 20.4474L9.62549 24.0632H12.1297Z" fill="white"/>
</svg>
