<svg id="Capa_1" enable-background="new 0 0 510 510" height="512" viewBox="0 0 510 510" width="512" xmlns="http://www.w3.org/2000/svg"><g id="XMLID_812_"><path id="XMLID_816_" d="m255 0c-140.95 0-255 114.069-255 255 0 140.951 114.071 255 255 255 140.949 0 255-114.07 255-255 0-140.951-114.071-255-255-255zm-45 330h-30v-45h-30v45h-30v-105c0-24.812 20.188-45 45-45 24.814 0 45 20.188 45 45zm105 0h-75v-150h30v120h45zm105 0h-75v-150h30v120h45z"/><path id="XMLID_813_" d="m165 210c-8.27 0-15 6.73-15 15v30h30v-30c0-8.27-6.729-15-15-15z"/></g></svg>