<svg width="23" height="28" viewBox="0 0 23 28" fill="none" xmlns="http://www.w3.org/2000/svg">
<path d="M19.2704 14.8209C19.2584 12.5595 20.2618 10.8526 22.2928 9.59551C21.1564 7.93792 19.4397 7.02593 17.173 6.84723C15.0271 6.6747 12.6818 8.12278 11.8235 8.12278C10.9168 8.12278 8.83744 6.90885 7.2054 6.90885C3.8325 6.96431 0.248047 9.65097 0.248047 15.1167C0.248047 16.7312 0.538188 18.399 1.11847 20.1203C1.89218 22.3818 4.68479 27.9276 7.5983 27.8352C9.12154 27.7982 10.1975 26.7322 12.1801 26.7322C14.1023 26.7322 15.0997 27.8352 16.7982 27.8352C19.7359 27.792 22.2625 22.7515 23 20.4839C19.0589 18.5921 19.2704 14.938 19.2704 14.8209ZM15.8492 4.70284C17.4994 2.70633 17.3483 0.888529 17.2999 0.235352C15.8432 0.32162 14.1567 1.24593 13.1956 2.38591C12.1378 3.60599 11.5152 5.1157 11.6482 6.81642C13.2258 6.93966 14.6645 6.11395 15.8492 4.70284Z" fill="black"/>
</svg>
