<svg width="6" height="4" viewBox="0 0 6 4" fill="none" xmlns="http://www.w3.org/2000/svg">
<path d="M2.71506 3.42C2.82618 3.52013 2.97047 3.57555 3.12006 3.57555C3.26965 3.57555 3.41393 3.52013 3.52506 3.42L5.72506 1.325C5.81818 1.23132 5.87045 1.10459 5.87045 0.972496C5.87045 0.840404 5.81818 0.713678 5.72506 0.619996C5.67858 0.573132 5.62328 0.535935 5.56235 0.510551C5.50142 0.485167 5.43606 0.472097 5.37006 0.472097C5.30405 0.472097 5.2387 0.485167 5.17777 0.510551C5.11684 0.535935 5.06154 0.573132 5.01506 0.619996L3.18006 2.35C3.15725 2.37004 3.12792 2.38109 3.09756 2.38109C3.06719 2.38109 3.03787 2.37004 3.01506 2.35L0.950058 0.554996C0.849938 0.467475 0.719152 0.423311 0.58647 0.432218C0.453788 0.441126 0.330079 0.502377 0.242558 0.602497C0.155036 0.702616 0.110872 0.833402 0.11978 0.966084C0.128687 1.09877 0.189938 1.22248 0.290058 1.31L2.71506 3.42Z" fill="#F12A23"/>
</svg>
