<svg width="33" height="33" viewBox="0 0 33 33" fill="none" xmlns="http://www.w3.org/2000/svg">
<path d="M16.5 33C25.6127 33 33 25.6127 33 16.5C33 7.3873 25.6127 0 16.5 0C7.3873 0 0 7.3873 0 16.5C0 25.6127 7.3873 33 16.5 33Z" fill="#2E3148"/>
<path d="M16.5336 2.10413C14.7526 2.10413 13.3083 8.56421 13.3083 16.5332C13.3083 24.5021 14.7526 30.9622 16.5336 30.9622C18.3147 30.9622 19.7589 24.5021 19.7589 16.5332C19.7589 8.56421 18.3147 2.10413 16.5336 2.10413ZM16.7563 30.1479C16.5526 30.4196 16.349 30.2158 16.349 30.2158C15.5287 29.2654 15.1186 27.4997 15.1186 27.4997C13.6839 22.8825 14.0254 12.9689 14.0254 12.9689C14.6996 5.09855 15.9262 3.23933 16.3436 2.82656C16.3862 2.78443 16.4423 2.75869 16.502 2.75386C16.5618 2.74903 16.6213 2.76543 16.6701 2.80016C17.2757 3.22929 17.7837 5.02397 17.7837 5.02397C19.2836 10.5919 19.1478 15.8202 19.1478 15.8202C19.2836 20.3696 18.3962 25.4622 18.3962 25.4622C17.7131 29.3324 16.7563 30.1479 16.7563 30.1479Z" fill="#6F7390"/>
<path d="M29.0494 9.35279C28.1627 7.80733 21.841 9.76964 14.9254 13.7352C8.00982 17.7007 3.13162 22.1685 4.01774 23.7133C4.90386 25.2581 11.2261 23.2965 18.1417 19.3309C25.0574 15.3654 29.9355 10.8976 29.0494 9.35279ZM4.83588 23.5013C4.49637 23.4586 4.57306 23.1795 4.57306 23.1795C4.98952 21.9953 6.3148 20.7609 6.3148 20.7609C9.60728 17.2185 18.3768 12.5815 18.3768 12.5815C25.5384 9.24956 27.7628 9.39014 28.3271 9.54551C28.385 9.56167 28.4354 9.59782 28.4692 9.64754C28.503 9.69726 28.5182 9.75735 28.5119 9.81716C28.4441 10.5564 27.1369 11.8896 27.1369 11.8896C23.0565 15.963 18.4535 18.4475 18.4535 18.4475C14.575 20.8301 9.71605 22.5934 9.71605 22.5934C6.01886 23.9257 4.83601 23.5013 4.83601 23.5013H4.83588Z" fill="#6F7390"/>
<path d="M29.0181 23.7659C29.9117 22.2245 25.0458 17.7363 18.1545 13.7409C11.2632 9.74553 4.94234 7.75893 4.04949 9.30293C3.15664 10.8469 8.02177 15.3326 14.9171 19.3279C21.8123 23.3233 28.1252 25.31 29.0181 23.7659ZM4.64164 9.89851C4.50964 9.58554 4.78829 9.51017 4.78829 9.51017C6.02197 9.27719 7.75486 9.80809 7.75486 9.80809C12.4692 10.8817 20.8757 16.1474 20.8757 16.1474C27.348 20.6764 28.3407 22.6714 28.4894 23.2376C28.5046 23.2957 28.4987 23.3573 28.4728 23.4115C28.447 23.4656 28.4028 23.5089 28.3482 23.5337C27.6733 23.8427 25.8657 23.3823 25.8657 23.3823C20.2943 21.8885 15.8387 19.1515 15.8387 19.1515C11.8352 16.9922 7.87657 13.6698 7.87657 13.6698C4.86855 11.1371 4.64257 9.90195 4.64257 9.90195L4.64164 9.89851Z" fill="#6F7390"/>
<path d="M16.5003 18.1972C17.4378 18.1972 18.1978 17.4372 18.1978 16.4997C18.1978 15.5622 17.4378 14.8022 16.5003 14.8022C15.5627 14.8022 14.8027 15.5622 14.8027 16.4997C14.8027 17.4372 15.5627 18.1972 16.5003 18.1972Z" fill="#B7B9C8"/>
<path d="M23.4597 11.0002C24.0035 11.0002 24.4443 10.5442 24.4443 9.98165C24.4443 9.41914 24.0035 8.96313 23.4597 8.96313C22.9159 8.96313 22.4751 9.41914 22.4751 9.98165C22.4751 10.5442 22.9159 11.0002 23.4597 11.0002Z" fill="#B7B9C8"/>
<path d="M7.29904 14.4633C7.84281 14.4633 8.28363 14.0073 8.28363 13.4448C8.28363 12.8823 7.84281 12.4263 7.29904 12.4263C6.75527 12.4263 6.31445 12.8823 6.31445 13.4448C6.31445 14.0073 6.75527 14.4633 7.29904 14.4633Z" fill="#B7B9C8"/>
<path d="M14.497 26.9568C15.0408 26.9568 15.4816 26.5008 15.4816 25.9383C15.4816 25.3757 15.0408 24.9197 14.497 24.9197C13.9533 24.9197 13.5125 25.3757 13.5125 25.9383C13.5125 26.5008 13.9533 26.9568 14.497 26.9568Z" fill="#B7B9C8"/>
</svg>
