<svg width="33" height="33" viewBox="0 0 33 33" fill="none" xmlns="http://www.w3.org/2000/svg">
<path d="M16.5 33C25.6127 33 33 25.6127 33 16.5C33 7.3873 25.6127 0 16.5 0C7.3873 0 0 7.3873 0 16.5C0 25.6127 7.3873 33 16.5 33Z" fill="#8DC351"/>
<path d="M21.8698 10.8622C21.0695 8.82859 19.0627 8.64503 16.7259 9.09878L15.8937 6.19788L14.1282 6.70422L14.9387 9.52984C14.4747 9.66184 14.0023 9.80828 13.5331 9.95266L12.7184 7.10847L10.954 7.61378L11.7841 10.5147C11.4046 10.6323 11.0313 10.7478 10.6652 10.8529L10.6621 10.8426L8.22632 11.5408L8.76772 13.428C8.76772 13.428 10.065 13.0278 10.0496 13.0588C10.7653 12.8536 11.1169 13.2021 11.2871 13.5414L12.2358 16.8455C12.2843 16.8321 12.3493 16.8156 12.4256 16.8043L12.2389 16.8579L13.5661 21.4882C13.5991 21.7223 13.5703 22.1193 13.0711 22.2637C13.099 22.2771 11.7862 22.6308 11.7862 22.6308L12.0409 24.8408L14.3385 24.1808C14.7665 24.0602 15.1893 23.9467 15.6028 23.8302L16.4454 26.7641L18.2088 26.2588L17.3766 23.3558C17.8496 23.2303 18.3213 23.0997 18.7915 22.9639L19.6185 25.8545L21.3851 25.3482L20.5456 22.4194C23.4651 21.3975 25.3286 20.0538 24.7872 17.191C24.352 14.8872 23.0093 14.188 21.2077 14.2664C22.0822 13.4517 22.4586 12.3503 21.8698 10.8633V10.8622ZM21.1994 17.8438C21.8285 20.0373 18.0026 20.8643 16.8063 21.2088L15.6915 17.3209C16.8878 16.9775 20.5425 15.5575 21.1984 17.8448L21.1994 17.8438ZM18.8049 12.5947C19.3762 14.5902 16.1783 15.2553 15.1811 15.541L14.1704 12.0152C15.1666 11.7295 18.2078 10.5147 18.8049 12.5958V12.5947Z" fill="white"/>
</svg>
