<svg width="33" height="33" viewBox="0 0 33 33" fill="none" xmlns="http://www.w3.org/2000/svg">
<path d="M16.5 33C25.6127 33 33 25.6127 33 16.5C33 7.3873 25.6127 0 16.5 0C7.3873 0 0 7.3873 0 16.5C0 25.6127 7.3873 33 16.5 33Z" fill="#F3BA2F"/>
<path fill-rule="evenodd" clip-rule="evenodd" d="M13.0506 15.0818L16.5018 11.6321L19.9544 15.0846L21.9614 13.0763L16.5018 7.61539L11.0422 13.0749L13.0506 15.0818ZM7.61548 16.5003L9.62316 14.4927L11.6308 16.5003L9.62316 18.5079L7.61548 16.5003ZM16.5018 21.3693L13.0506 17.9182L11.0393 19.9237L11.0422 19.9266L16.5018 25.3846L21.9614 19.9237L21.9628 19.9223L19.9544 17.9168L16.5018 21.3693ZM21.3693 16.5008L23.377 14.4932L25.3847 16.5008L23.377 18.5084L21.3693 16.5008ZM16.5018 14.4615L18.5383 16.4993H18.5397L18.5383 16.5007L16.5018 18.5385L14.4653 16.5035L14.4625 16.4993L14.4653 16.4965L14.8218 16.14L14.9958 15.9674L16.5018 14.4615Z" fill="white"/>
</svg>
