<svg width="33" height="33" viewBox="0 0 33 33" fill="none" xmlns="http://www.w3.org/2000/svg">
<path d="M32.5052 20.4918C30.3014 29.3311 21.3481 34.7101 12.5077 32.5063C3.67142 30.3026 -1.70809 21.3492 0.496205 12.5104C2.69895 3.67001 11.6518 -1.71002 20.4896 0.49376C29.3294 2.69754 34.7084 11.6519 32.5047 20.4918H32.5052Z" fill="#F7931A"/>
<path fill-rule="evenodd" clip-rule="evenodd" d="M21.4695 14.5831C21.692 13.0937 20.5579 12.293 19.0073 11.7589L19.5103 9.74125L18.2818 9.43519L17.7921 11.3996C17.4696 11.3192 17.138 11.2433 16.8085 11.1681L17.3017 9.19068L16.0743 8.88461L15.5709 10.9015C15.3037 10.8407 15.0414 10.7805 14.7867 10.7172L14.7881 10.7109L13.0944 10.288L12.7677 11.5997C12.7677 11.5997 13.6789 11.8085 13.6597 11.8215C14.1571 11.9456 14.2473 12.2748 14.2319 12.5357L13.659 14.8342C13.6933 14.843 13.7377 14.8556 13.7866 14.8752L13.6572 14.843L12.8537 18.0628C12.7929 18.2139 12.6386 18.4406 12.2909 18.3545C12.3032 18.3724 11.3983 18.1317 11.3983 18.1317L10.7886 19.5379L12.3871 19.9363C12.5676 19.9815 12.7459 20.028 12.9222 20.074C13.0364 20.1038 13.1497 20.1334 13.2623 20.1623L12.7541 22.2033L13.9808 22.5094L14.4845 20.4904C14.8192 20.5813 15.1445 20.6653 15.4629 20.7443L14.9612 22.7539L16.1894 23.06L16.6976 21.0231C18.7918 21.4194 20.3669 21.2596 21.0291 19.3658C21.5632 17.8407 21.0029 16.961 19.901 16.387C20.7034 16.2012 21.3079 15.6734 21.4691 14.5831H21.4695ZM18.6631 18.5179C18.3145 19.9176 16.123 19.3385 15.1212 19.0737C15.0315 19.05 14.9513 19.0288 14.8829 19.0118L15.5573 16.3083C15.641 16.3291 15.7432 16.3521 15.859 16.3781L15.859 16.3781C16.8954 16.6106 19.0193 17.0872 18.6635 18.5179H18.6631ZM16.0673 15.1235C16.9032 15.3465 18.7252 15.8326 19.0426 14.561C19.3671 13.2602 17.5954 12.8681 16.7301 12.6766C16.6328 12.6551 16.547 12.6361 16.4769 12.6186L15.8655 15.0707C15.9233 15.0851 15.9912 15.1032 16.0673 15.1235Z" fill="white"/>
</svg>
