<svg width="14" height="18" viewBox="0 0 14 18" fill="none" xmlns="http://www.w3.org/2000/svg">
<path d="M13.973 5.33701C13.485 4.19114 12.4417 4.11488 11.5214 4.0475C11.4477 4.04206 11.3744 4.03662 11.3019 4.03092C11.926 3.77771 12.3314 3.35744 12.7062 2.96834C12.8979 2.76953 13.0787 2.58187 13.2844 2.41671C13.4282 2.30118 13.451 2.09097 13.3354 1.94734C13.2198 1.80358 13.0097 1.78078 12.8661 1.89631C12.6276 2.088 12.4231 2.30003 12.2257 2.50504C11.6635 3.0884 11.1734 3.5961 10.0019 3.5961C9.91449 3.43252 9.78277 3.29963 9.62529 3.21025L10.3156 1.69306C10.4673 1.35953 10.3862 0.970869 10.1138 0.725939C9.65586 0.313931 9.21288 0.57725 8.94829 0.734617C8.82007 0.810775 8.72681 0.771142 8.64573 0.657295C8.51945 0.479594 8.34655 0.235837 7.95929 0.201785C7.56127 0.166815 7.32583 0.403316 7.15394 0.576094C7.09682 0.633601 7.034 0.703409 6.94684 0.706778C6.85307 0.710405 6.76564 0.638651 6.70347 0.576223C6.53147 0.403316 6.29601 0.166437 5.89813 0.201782C5.51072 0.235973 5.33784 0.479471 5.21155 0.657292C5.16803 0.718556 5.12684 0.777614 5.04446 0.781242C4.99227 0.783573 4.95238 0.76013 4.90925 0.734484C4.64464 0.577247 4.20168 0.313789 3.74372 0.725806C3.47134 0.970856 3.3904 1.3594 3.54193 1.69293L4.23225 3.21012C3.99769 3.34339 3.81948 3.57289 3.76146 3.85744C3.70382 4.14005 3.77648 4.41929 3.93786 4.63325C2.78722 5.70942 1.88383 6.92611 1.31393 8.17142C0.605959 9.71852 0.413251 11.2672 0.740676 12.7739C1.41041 15.8556 3.37303 17.2925 6.91615 17.2925C6.93454 17.2925 6.95371 17.2925 6.97223 17.2924C8.65222 17.2853 9.94236 16.9681 10.9162 16.3228C11.985 15.6148 12.691 14.5135 13.0746 12.9554C13.4526 11.4197 13.2862 9.83752 12.5801 8.25279C12.012 6.9783 11.096 5.73353 9.91948 4.63338C9.9617 4.57769 9.99758 4.51746 10.0269 4.45387C10.4781 4.64076 10.9815 4.67781 11.4727 4.71381C12.4384 4.7844 13.0463 4.86509 13.3586 5.5988C13.4126 5.72586 13.5362 5.80189 13.6659 5.80189C13.7096 5.80189 13.7539 5.79321 13.7965 5.77495C13.9664 5.70268 14.0453 5.50658 13.9732 5.33691L13.973 5.33701ZM4.64867 4.34386C4.48703 4.31083 4.38238 4.15256 4.41527 3.9909C4.44675 3.836 4.61137 3.72552 4.7677 3.75751C6.1204 4.03597 7.7359 4.03597 9.0887 3.75751C9.25021 3.72461 9.40836 3.82926 9.44153 3.99116C9.47417 4.15267 9.36951 4.31081 9.20748 4.34398C7.75906 4.64201 6.0976 4.64201 4.64841 4.34385L4.64867 4.34386ZM4.18991 1.22207C4.31891 1.10589 4.49881 1.26805 4.6111 1.33423C4.98345 1.55377 5.45594 1.45585 5.71045 1.1068C5.77314 1.02093 5.83751 0.877028 5.95654 0.866796C6.09991 0.854362 6.22011 1.04035 6.31142 1.12778C6.65751 1.45974 7.19939 1.45974 7.54522 1.12778C7.66178 1.016 7.85334 0.735332 8.02274 0.936866C8.06756 0.990229 8.10512 1.05084 8.14631 1.10705C8.40081 1.4561 8.87357 1.55391 9.24566 1.33449C9.34733 1.27414 9.4797 1.1463 9.60869 1.18982C9.7035 1.22194 9.7487 1.32555 9.70739 1.41647L8.93844 3.10658C7.67848 3.36342 6.17903 3.36342 4.91817 3.10658L4.14923 1.41647C4.11737 1.34627 4.13252 1.27374 4.18977 1.22207L4.18991 1.22207ZM12.4261 12.7955C11.7686 15.4658 10.1366 16.6108 6.96912 16.6244C6.95112 16.6244 6.93311 16.6246 6.91511 16.6246C3.69684 16.6246 1.99297 15.3915 1.39316 12.6321C0.839606 10.0854 1.98014 7.31246 4.5248 5.00009C5.28923 5.15681 6.10907 5.23504 6.92894 5.23504C7.74881 5.23504 8.56864 5.15668 9.33268 5.00009C11.9382 7.36756 13.0652 10.2004 12.4263 12.7956L12.4261 12.7955ZM8.70289 12.1015C8.70289 12.8887 8.08508 13.5466 7.26886 13.6917L7.27935 14.1254C7.28375 14.3097 7.13791 14.4626 6.95361 14.4672C6.95089 14.4672 6.94817 14.4673 6.94532 14.4673C6.76464 14.4673 6.61608 14.323 6.61169 14.1416L6.60082 13.6967C6.10565 13.6174 5.79248 13.3595 5.49394 13.0777C5.35976 12.9512 5.35367 12.7398 5.48021 12.6057C5.60675 12.4717 5.81811 12.4655 5.95217 12.592C6.29746 12.9178 6.50937 13.0539 6.92834 13.0539C7.53849 13.0539 8.03508 12.6266 8.03508 12.1013C8.03508 11.5762 7.53862 11.1487 6.92834 11.1487C5.94981 11.1487 5.15391 10.4218 5.15391 9.52842C5.15391 8.74108 5.77222 8.08298 6.58884 7.93792L6.57745 7.45714C6.57304 7.27284 6.71888 7.11987 6.90319 7.11533C7.08814 7.11028 7.24046 7.25676 7.245 7.44107L7.25679 7.93584C7.59936 7.99399 7.91538 8.1432 8.16936 8.36986C8.30691 8.49264 8.31883 8.70362 8.19604 8.84119C8.07326 8.97873 7.86229 8.99065 7.72472 8.86787C7.51386 8.67968 7.23111 8.57606 6.92842 8.5758C6.31827 8.5758 5.82194 9.0031 5.82194 9.5284C5.82194 10.0537 6.3184 10.481 6.92869 10.481C7.90668 10.4814 8.70285 11.2083 8.70285 12.1015L8.70289 12.1015Z" fill="#F12A23"/>
</svg>
