<svg width="23" height="23" viewBox="0 0 23 23" fill="none" xmlns="http://www.w3.org/2000/svg">
<path d="M21.0682 18.8008L15.5178 16.4655V15.0269C16.2122 14.0486 16.6585 12.9163 16.8179 11.7273C17.6496 11.0276 18.1319 9.99789 18.1369 8.91107C18.1399 8.42485 17.947 7.95799 17.6019 7.61552C17.404 7.41612 17.1632 7.26437 16.8978 7.17204V5.84128C16.9067 5.08496 16.675 4.34519 16.236 3.72918C15.4949 2.66789 14.3971 1.9083 13.1427 1.58875V0.586718C13.1427 0.431037 13.081 0.281901 12.9709 0.171892C12.8608 0.061882 12.7117 0 12.556 0H11.3826C9.03572 0 7.22402 1.85395 6.52205 3.5789C6.28664 4.18573 6.16796 4.83141 6.17238 5.48229L6.15355 7.15796H6.15372C5.87853 7.24259 5.62693 7.39042 5.41902 7.58983C5.06034 7.93262 4.85833 8.40788 4.86046 8.90403C4.86243 10.0169 5.36596 11.0695 6.23116 11.7695C6.38766 12.92 6.81658 14.0167 7.48204 14.9683V16.4656L1.93169 18.8008C1.35285 19.0425 0.859423 19.4519 0.515146 19.9764C0.17104 20.5009 -0.00837467 21.1164 0.00030037 21.7438C0.00406559 22.0651 0.265665 22.3234 0.587018 22.3234C0.744992 22.3234 0.89642 22.2598 1.00694 22.1466C1.11728 22.0335 1.17752 21.8806 1.17376 21.7227C1.16819 21.3285 1.28066 20.9416 1.49691 20.6121C1.71317 20.2824 2.02324 20.0252 2.38696 19.8733L7.85517 17.5734C8.72117 18.7115 10.0699 19.3784 11.4999 19.3758C12.9261 19.3756 14.2706 18.71 15.1351 17.5757L20.6059 19.8756L20.606 19.8757C20.9707 20.0262 21.282 20.2827 21.4995 20.6119C21.7171 20.9411 21.8308 21.3281 21.8263 21.7227C21.8245 21.8783 21.8845 22.0283 21.9932 22.1396C22.1019 22.2509 22.2504 22.3146 22.4059 22.3164C22.7273 22.3203 22.992 22.0651 22.9997 21.7438C23.0084 21.1164 22.829 20.5009 22.4849 19.9764C22.1406 19.4519 21.6472 19.0425 21.0683 18.8008L21.0682 18.8008ZM11.5001 18.2023C10.3561 18.2054 9.28725 17.6329 8.65569 16.6792V14.9167C8.65357 14.6951 8.58121 14.4798 8.4491 14.3018C7.8501 13.4332 7.47733 12.4289 7.36489 11.3799C7.34835 11.2153 7.26322 11.0652 7.13013 10.9668C6.45469 10.4968 6.05082 9.72693 6.04822 8.90397C6.04659 8.727 6.11796 8.55725 6.24549 8.43464C6.37138 8.3135 6.53999 8.24687 6.71482 8.24916C6.87328 8.25554 7.02749 8.19743 7.14241 8.08824C7.25733 7.97905 7.32314 7.82795 7.32494 7.66948L7.34835 5.49402H7.34852C7.34688 4.98881 7.44084 4.48788 7.62534 4.01771C8.18159 2.64948 9.59915 1.17334 11.3945 1.17334H11.9694V2.08388C11.9691 2.38461 12.196 2.63703 12.4951 2.6683C13.5418 2.77618 14.5511 3.41691 15.2856 4.41667C15.5796 4.83379 15.7334 5.33342 15.7245 5.8437V7.66475C15.7245 7.82043 15.7862 7.96973 15.8964 8.07974C16.0064 8.18975 16.1556 8.25146 16.3112 8.25146C16.4874 8.25146 16.6563 8.32153 16.7806 8.44627C16.9061 8.5697 16.9751 8.73963 16.9706 8.9156C16.967 9.72121 16.58 10.4767 15.9287 10.9505C15.7969 11.0479 15.7118 11.1959 15.6939 11.3587C15.5769 12.4372 15.1831 13.4671 14.5511 14.3487C14.4121 14.5317 14.3363 14.755 14.3351 14.9847V16.6792C13.7108 17.636 12.6428 18.21 11.5001 18.2023L11.5001 18.2023Z" fill="#606060"/>
<path d="M21.3803 3.40066C21.5359 3.40066 21.6852 3.33878 21.7952 3.22877C21.9052 3.11876 21.9671 2.96946 21.9671 2.81394V1.53951C21.964 1.13057 21.7994 0.739307 21.5093 0.451019C21.2193 0.162735 20.827 0.000670535 20.4181 0H19.1531C18.829 0 18.5664 0.262745 18.5664 0.586718C18.5664 0.910691 18.829 1.17344 19.1531 1.17344H20.4181C20.6219 1.17344 20.7884 1.33583 20.7936 1.53948V2.80461C20.791 2.96177 20.8517 3.11336 20.9621 3.2255C21.0724 3.33764 21.223 3.40066 21.3803 3.40066L21.3803 3.40066Z" fill="#606060"/>
<path d="M1.61902 3.40063C1.7747 3.40063 1.924 3.33875 2.03401 3.22874C2.14402 3.11873 2.20574 2.96943 2.20574 2.81392V1.53948C2.21098 1.33583 2.37747 1.17344 2.58128 1.17344H3.84624C4.17038 1.17344 4.43296 0.910691 4.43296 0.586718C4.43296 0.262745 4.17038 0 3.84624 0H2.58128C2.17234 0.000654861 1.78011 0.162722 1.49002 0.451018C1.19994 0.739302 1.0354 1.13056 1.0323 1.53951V2.80464C1.02984 2.96179 1.09058 3.11339 1.20091 3.22552C1.31109 3.33766 1.46186 3.40069 1.61902 3.40069L1.61902 3.40063Z" fill="#606060"/>
<path d="M1.0332 14.6097C1.03386 15.0202 1.19724 15.4138 1.48766 15.7042C1.77807 15.9944 2.1716 16.158 2.58218 16.1585H3.84714C4.17128 16.1585 4.43386 15.8959 4.43386 15.5718C4.43386 15.2478 4.17128 14.985 3.84714 14.985H2.58218C2.37477 14.985 2.20664 14.8169 2.20664 14.6097V13.3445C2.20664 13.0206 1.94406 12.7578 1.61993 12.7578C1.29595 12.7578 1.03321 13.0206 1.03321 13.3445L1.0332 14.6097Z" fill="#606060"/>
<path d="M19.1531 16.1585H20.4181C20.8287 16.158 21.2222 15.9944 21.5126 15.7042C21.803 15.4138 21.9664 15.0202 21.9671 14.6097V13.3445C21.9671 13.0206 21.7043 12.7578 21.3803 12.7578C21.0562 12.7578 20.7936 13.0206 20.7936 13.3445V14.6097C20.7936 14.7092 20.754 14.8046 20.6836 14.8752C20.6132 14.9456 20.5176 14.985 20.4181 14.985H19.1531C18.829 14.985 18.5664 15.2478 18.5664 15.5718C18.5664 15.8959 18.829 16.1585 19.1531 16.1585H19.1531Z" fill="#606060"/>
<path d="M9.75196 8.5H8.93047C8.60649 8.5 8.34375 8.76274 8.34375 9.08672C8.34375 9.41069 8.60649 9.67344 8.93047 9.67344H9.75196C10.0759 9.67344 10.3387 9.41069 10.3387 9.08672C10.3387 8.76274 10.0759 8.5 9.75196 8.5Z" fill="#606060"/>
<path d="M14.6541 9.08672C14.6541 8.93104 14.5922 8.7819 14.4822 8.67189C14.3722 8.56188 14.2229 8.5 14.0674 8.5H13.2459C12.9219 8.5 12.6592 8.76274 12.6592 9.08672C12.6592 9.41069 12.9219 9.67344 13.2459 9.67344H14.0674C14.2229 9.67344 14.3722 9.61155 14.4822 9.50154C14.5922 9.39154 14.6541 9.2424 14.6541 9.08672Z" fill="#606060"/>
</svg>
