<svg width="18" height="17" viewBox="0 0 18 17" fill="none" xmlns="http://www.w3.org/2000/svg">
<path d="M6.36062 5.04654C6.68097 4.67975 6.90916 4.23877 7.02547 3.76169C7.14179 3.28462 7.14273 2.78577 7.02823 2.30824C6.91372 1.8307 6.68721 1.38883 6.36825 1.02077C6.04929 0.652713 5.64747 0.369535 5.19748 0.195688C4.7475 0.0218404 4.26287 -0.0374507 3.78545 0.0229341C3.30803 0.0833188 2.85216 0.261564 2.45721 0.54228C2.06227 0.822995 1.74011 1.19774 1.51856 1.63416C1.29701 2.07059 1.18273 2.55556 1.18558 3.04722C1.18988 3.78513 1.45758 4.49606 1.93842 5.04654C0.735058 6.07649 0.189692 7.36696 0 9.71161C0 10.7294 0 11.8745 1.28635 12.0987L1.77837 14.7038C2.13404 16.0912 3.05879 16.9819 4.14952 16.9819C5.24025 16.9819 6.165 16.0912 6.52068 14.6796L7.02455 12.0987C8.3109 11.8745 8.3109 10.7234 8.3109 9.67526C8.10935 7.3609 7.56398 6.07649 6.36062 5.04654ZM4.14952 1.22966C4.50125 1.22966 4.84508 1.33626 5.13753 1.53597C5.42998 1.73569 5.65792 2.01955 5.79252 2.35167C5.92712 2.68379 5.96233 3.04924 5.89372 3.40181C5.8251 3.75438 5.65572 4.07824 5.40702 4.33243C5.15831 4.58662 4.84143 4.75973 4.49646 4.82986C4.15149 4.89999 3.79392 4.864 3.46897 4.72643C3.14402 4.58886 2.86627 4.3559 2.67086 4.057C2.47545 3.75811 2.37115 3.4067 2.37115 3.04722C2.37115 2.56517 2.55852 2.10287 2.89203 1.76201C3.22553 1.42115 3.67787 1.22966 4.14952 1.22966ZM6.52068 10.9233C6.38199 10.9205 6.24672 10.9674 6.13841 11.056C6.0301 11.1445 5.9556 11.2691 5.92789 11.408L5.3351 14.4373C5.15133 15.237 4.6771 15.7701 4.14952 15.7701C3.62194 15.7701 3.14771 15.237 2.96394 14.4373L2.37115 11.408C2.34344 11.2691 2.26894 11.1445 2.16063 11.056C2.05232 10.9674 1.91705 10.9205 1.77837 10.9233C1.18558 10.9233 1.18558 10.9233 1.18558 9.76008C1.36934 7.48207 1.89692 6.63387 2.73868 5.9432C2.77992 5.91315 2.81598 5.8763 2.84539 5.83415L2.88688 5.77962C3.00762 5.83596 3.13248 5.88255 3.26034 5.91897L3.75235 6.68234L2.96394 8.69983L4.14952 10.3175L5.3351 8.69983L4.54669 6.68234L5.0387 5.91897C5.16656 5.88255 5.29142 5.83596 5.41216 5.77962L5.45366 5.83415C5.48306 5.8763 5.51912 5.91315 5.56036 5.9432C6.40212 6.63387 6.9297 7.48207 7.11346 9.71161C7.11346 10.9233 7.11346 10.9233 6.52068 10.9233Z" fill="#F12A23"/>
<path d="M13.0411 9.10479C13.0667 9.10822 13.0926 9.10822 13.1182 9.10479C13.2585 9.6786 13.5993 10.1801 14.0764 10.5149C14.5535 10.8497 15.1339 10.9946 15.7082 10.9224C16.2826 10.8501 16.8113 10.5657 17.1947 10.1226C17.5781 9.67961 17.7897 9.10857 17.7897 8.51711C17.7897 7.92566 17.5781 7.35462 17.1947 6.91158C16.8113 6.46855 16.2826 6.18411 15.7082 6.11185C15.1339 6.0396 14.5535 6.18451 14.0764 6.5193C13.5993 6.85409 13.2585 7.35563 13.1182 7.92944C13.0943 7.9136 13.0684 7.90136 13.0411 7.89308H11.8555V3.04625H13.0411C13.0667 3.04968 13.0926 3.04968 13.1182 3.04625C13.2585 3.62006 13.5993 4.1216 14.0764 4.45639C14.5535 4.79118 15.1339 4.9361 15.7082 4.86384C16.2826 4.79158 16.8113 4.50714 17.1947 4.06411C17.5781 3.62108 17.7897 3.05004 17.7897 2.45858C17.7897 1.86712 17.5781 1.29608 17.1947 0.853044C16.8113 0.41001 16.2826 0.12557 15.7082 0.053314C15.1339 -0.0189415 14.5535 0.125976 14.0764 0.460764C13.5993 0.795552 13.2585 1.29709 13.1182 1.8709C13.0943 1.85507 13.0684 1.84282 13.0411 1.83455H11.2628C11.1055 1.83455 10.9548 1.89838 10.8436 2.012C10.7324 2.12562 10.67 2.27972 10.67 2.4404V7.89308H9.48439C9.32717 7.89308 9.17639 7.95692 9.06523 8.07053C8.95406 8.18415 8.8916 8.33826 8.8916 8.49894C8.8916 8.65962 8.95406 8.81372 9.06523 8.92734C9.17639 9.04096 9.32717 9.10479 9.48439 9.10479H10.67V14.5575C10.67 14.7182 10.7324 14.8723 10.8436 14.9859C10.9548 15.0995 11.1055 15.1633 11.2628 15.1633H13.0411C13.0667 15.1668 13.0926 15.1668 13.1182 15.1633C13.2585 15.7371 13.5993 16.2387 14.0764 16.5735C14.5535 16.9083 15.1339 17.0532 15.7082 16.9809C16.2826 16.9087 16.8113 16.6242 17.1947 16.1812C17.5781 15.7381 17.7897 15.1671 17.7897 14.5757C17.7897 13.9842 17.5781 13.4132 17.1947 12.9701C16.8113 12.5271 16.2826 12.2426 15.7082 12.1704C15.1339 12.0981 14.5535 12.243 14.0764 12.5778C13.5993 12.9126 13.2585 13.4142 13.1182 13.988C13.0943 13.9721 13.0684 13.9599 13.0411 13.9516H11.8555V9.10479H13.0411ZM15.4123 7.28723C15.6468 7.28723 15.876 7.3583 16.0709 7.49144C16.2659 7.62458 16.4179 7.81383 16.5076 8.03524C16.5973 8.25665 16.6208 8.50028 16.5751 8.73533C16.5293 8.97038 16.4164 9.18628 16.2506 9.35574C16.0848 9.5252 15.8736 9.64061 15.6436 9.68736C15.4136 9.73412 15.1752 9.71012 14.9586 9.61841C14.7419 9.5267 14.5568 9.37139 14.4265 9.17213C14.2962 8.97286 14.2267 8.73859 14.2267 8.49894C14.2267 8.17757 14.3516 7.86937 14.5739 7.64213C14.7963 7.41489 15.0978 7.28723 15.4123 7.28723ZM15.4123 1.22869C15.6468 1.22869 15.876 1.29976 16.0709 1.4329C16.2659 1.56605 16.4179 1.75529 16.5076 1.9767C16.5973 2.19811 16.6208 2.44175 16.5751 2.67679C16.5293 2.91184 16.4164 3.12775 16.2506 3.29721C16.0848 3.46667 15.8736 3.58207 15.6436 3.62883C15.4136 3.67558 15.1752 3.65158 14.9586 3.55987C14.7419 3.46816 14.5568 3.31285 14.4265 3.11359C14.2962 2.91433 14.2267 2.68005 14.2267 2.4404C14.2267 2.11904 14.3516 1.81083 14.5739 1.58359C14.7963 1.35636 15.0978 1.22869 15.4123 1.22869ZM15.4123 13.3458C15.6468 13.3458 15.876 13.4168 16.0709 13.55C16.2659 13.6831 16.4179 13.8724 16.5076 14.0938C16.5973 14.3152 16.6208 14.5588 16.5751 14.7939C16.5293 15.0289 16.4164 15.2448 16.2506 15.4143C16.0848 15.5837 15.8736 15.6991 15.6436 15.7459C15.4136 15.7927 15.1752 15.7687 14.9586 15.6769C14.7419 15.5852 14.5568 15.4299 14.4265 15.2307C14.2962 15.0314 14.2267 14.7971 14.2267 14.5575C14.2267 14.2361 14.3516 13.9279 14.5739 13.7007C14.7963 13.4734 15.0978 13.3458 15.4123 13.3458Z" fill="#F12A23"/>
</svg>
