<svg width="30" height="25" viewBox="0 0 30 25" fill="none" xmlns="http://www.w3.org/2000/svg">
<path d="M17.243 1.52705C14.1785 -0.19871 10.3586 -0.459044 7.06061 0.732425C4.89436 1.51281 2.93179 2.96275 1.71989 4.93801C0.621286 6.71856 0.208962 8.93991 0.740155 10.9774C1.27166 13.2393 2.83892 15.1344 4.74825 16.4011C4.38916 17.4452 4.03504 18.489 3.70134 19.5406C4.90829 18.9137 6.10099 18.2599 7.3033 17.6219C8.75324 18.0863 10.2769 18.3088 11.7989 18.2599C11.4024 17.0969 11.3083 15.8445 11.4888 14.631C11.7773 12.9477 12.688 11.4067 13.9466 10.2642C16.0658 8.27964 19.0706 7.44106 21.9297 7.64319C21.3954 5.02252 19.5535 2.80581 17.243 1.52705ZM9.02782 6.28116C8.81484 7.30795 7.43826 7.80323 6.63435 7.1151C5.70322 6.45823 5.96355 4.82657 7.05906 4.49907C8.13104 4.08519 9.35068 5.17451 9.02782 6.28116ZM16.4716 5.98337C16.4809 7.16525 14.9072 7.90198 14.0215 7.09931C13.1031 6.44244 13.3634 4.84205 14.4416 4.5099C15.4058 4.1307 16.5469 4.9442 16.4716 5.98337Z" fill="#9DE60B"/>
<path d="M29.4339 13.1563C28.686 11.4618 27.2739 10.1198 25.6357 9.28932C22.7436 7.82204 19.1447 7.83318 16.2621 9.32368C14.2572 10.3536 12.5847 12.1969 12.1083 14.44C11.7164 16.0905 12.0689 17.868 12.9437 19.3086C14.2479 21.4702 16.6023 22.8496 19.0521 23.2932C20.8265 23.6538 22.6606 23.4424 24.3833 22.9406C25.4147 23.3436 26.3393 23.9925 27.341 24.4723C27.0849 23.606 26.8091 22.7458 26.5136 21.8921C27.6342 21.0913 28.6563 20.0974 29.2708 18.8465C30.1849 17.1046 30.2397 14.9476 29.4339 13.1563ZM19.3676 13.8035C19.1137 14.6043 17.9458 14.8458 17.3846 14.2344C16.7639 13.6717 17.0051 12.4913 17.8186 12.2406C18.7234 11.8598 19.7641 12.9006 19.3676 13.8035ZM25.2599 13.9147C24.951 14.6359 23.871 14.8018 23.3382 14.244C23.0797 14.0119 23.0169 13.6593 22.9135 13.3476C23.0516 12.7863 23.4261 12.2016 24.0638 12.1765C24.9463 12.0555 25.7205 13.1262 25.2599 13.9147Z" fill="#2E3233"/>
</svg>
