<svg width="29" height="29" viewBox="0 0 29 29" fill="none" xmlns="http://www.w3.org/2000/svg">
<path fill-rule="evenodd" clip-rule="evenodd" d="M2.46103 13.6466C9.95449 10.3819 14.9513 8.22953 17.4515 7.18962C24.59 4.22048 26.0733 3.70471 27.0401 3.68768C27.2527 3.68394 27.7282 3.73663 28.0361 3.98653C28.2962 4.19754 28.3677 4.48259 28.402 4.68265C28.4362 4.88271 28.4789 5.33845 28.445 5.69456C28.0581 9.75908 26.3843 19.6226 25.5327 24.175C25.1724 26.1012 24.4629 26.7471 23.776 26.8103C22.2833 26.9477 21.1498 25.8238 19.704 24.8761C17.4417 23.3931 16.1636 22.4699 13.9676 21.0228C11.4297 19.3504 13.0749 18.4312 14.5212 16.929C14.8998 16.5358 21.4767 10.5536 21.604 10.0109C21.6199 9.94301 21.6347 9.69001 21.4844 9.55642C21.3341 9.42283 21.1123 9.46852 20.9522 9.50485C20.7253 9.55635 17.1112 11.9452 10.1098 16.6713C9.08394 17.3757 8.15474 17.7189 7.32222 17.7009C6.40442 17.6811 4.63896 17.182 3.32652 16.7554C1.71675 16.2321 0.437347 15.9555 0.548755 15.0668C0.606783 14.6039 1.24421 14.1305 2.46103 13.6466Z" fill="#26A5E5"/>
</svg>
