<svg width="526" height="116" viewBox="0 0 526 116" fill="none" xmlns="http://www.w3.org/2000/svg">
<mask id="mask0_3426_10366" style="mask-type:alpha" maskUnits="userSpaceOnUse" x="0" y="0" width="526" height="116">
<rect width="526" height="116" rx="7" fill="#56CE60"/>
</mask>
<g mask="url(#mask0_3426_10366)">
<g style="mix-blend-mode:color-dodge" opacity="0.85">
<path style="mix-blend-mode:screen" opacity="0.2" d="M104.874 232.612C58.5093 232.392 15.0115 214.282 -17.6814 181.616C-24.245 175.045 -30.2772 167.965 -35.7215 160.441C-54.4565 134.498 -65.681 103.895 -68.1629 71.9908C-70.6447 40.0869 -64.2879 8.11598 -49.7903 -20.4119C-35.2927 -48.9397 -13.2149 -72.9213 14.0191 -89.7239C41.2532 -106.526 72.5904 -115.5 104.59 -115.66L105.191 -115.66C151.872 -115.66 195.691 -97.5446 228.582 -64.6533C252.934 -40.3 269.518 -9.27259 276.237 24.5056C282.955 58.2837 279.507 93.2956 266.327 125.114C253.148 156.932 230.83 184.128 202.194 203.262C173.559 222.397 139.893 232.61 105.453 232.612L104.874 232.612Z" stroke="url(#paint0_linear_3426_10366)" stroke-miterlimit="10"/>
<path style="mix-blend-mode:screen" opacity="0.2" d="M101.633 228.824C56.2807 228.604 13.737 210.891 -18.2432 178.938C-24.6687 172.511 -30.5737 165.585 -35.9028 158.223C-54.2304 132.846 -65.211 102.909 -67.6391 71.6996C-70.0671 40.4902 -63.8488 9.21524 -49.6667 -18.6915C-35.4846 -46.5983 -13.8872 -70.0577 12.7542 -86.4941C39.3957 -102.93 70.0509 -111.708 101.354 -111.864L101.944 -111.864C147.612 -111.864 190.472 -94.1451 222.651 -61.9666C251.271 -33.3414 268.763 4.53919 271.994 44.8885C275.225 85.2378 263.983 125.419 240.283 158.234C234.961 165.594 229.061 172.519 222.64 178.943C206.86 194.807 188.091 207.384 167.419 215.946C146.747 224.508 124.582 228.885 102.206 228.824L101.633 228.824Z" stroke="url(#paint1_linear_3426_10366)" stroke-miterlimit="10"/>
<path style="mix-blend-mode:screen" opacity="0.2" d="M98.3895 225.033C54.0557 224.819 12.4337 207.497 -18.8122 176.262C-25.0902 169.98 -30.8608 163.212 -36.0698 156.019C-53.9943 131.205 -64.7343 101.933 -67.1106 71.4147C-69.4868 40.8968 -63.4074 10.3143 -49.5398 -16.9745C-35.6722 -44.2633 -14.5529 -67.2029 11.499 -83.2742C37.5509 -99.3455 67.5277 -107.927 98.1376 -108.076L98.7164 -108.076C143.361 -108.076 185.272 -90.7489 216.733 -59.3047C244.722 -31.315 261.828 5.72692 264.988 45.1834C268.147 84.6399 257.153 123.932 233.974 156.019C228.77 163.216 223.001 169.986 216.722 176.267C201.292 191.78 182.938 204.079 162.723 212.45C142.508 220.822 120.832 225.101 98.9522 225.039L98.3895 225.033Z" stroke="url(#paint2_linear_3426_10366)" stroke-miterlimit="10"/>
<path style="mix-blend-mode:screen" opacity="0.2" d="M95.152 221.24C73.8664 221.208 52.7958 216.982 33.1438 208.804C13.4919 200.626 -4.35613 188.656 -19.3806 173.578C-25.5185 167.436 -31.1584 160.816 -36.247 153.78C-53.7596 129.532 -64.252 100.927 -66.5721 71.1062C-68.8921 41.2853 -62.9502 11.4018 -49.3987 -15.2632C-35.8472 -41.9282 -15.2101 -64.3435 10.2465 -80.0479C35.7031 -95.7522 64.9949 -104.138 94.9055 -104.285L95.4736 -104.285C139.105 -104.285 180.063 -87.3547 210.805 -56.5858C238.151 -29.2343 254.866 6.96073 257.953 45.5148C261.041 84.0688 250.3 122.463 227.655 153.818C222.567 160.849 216.929 167.465 210.794 173.605C195.713 188.761 177.776 200.775 158.021 208.953C138.266 217.13 117.085 221.308 95.7041 221.246L95.152 221.24Z" stroke="url(#paint3_linear_3426_10366)" stroke-miterlimit="10"/>
<path style="mix-blend-mode:screen" opacity="0.2" d="M91.9091 217.449C71.1201 217.418 50.5411 213.291 31.3479 205.303C12.1547 197.315 -5.27634 185.624 -19.9491 170.897C-25.948 164.896 -31.4624 158.431 -36.4404 151.56C-53.5428 127.876 -63.7891 99.9379 -66.0544 70.8126C-68.3197 41.6873 -62.5164 12.501 -49.2816 -13.5423C-36.0468 -39.5855 -15.8922 -61.4787 8.9696 -76.8184C33.8314 -92.158 62.439 -100.351 91.6518 -100.498L92.1878 -100.498C134.801 -100.498 174.805 -83.9639 204.834 -53.9346C227.064 -31.7029 242.203 -3.37942 248.337 27.4552C254.472 58.2898 251.326 90.2511 239.298 119.298C227.27 148.345 206.9 173.174 180.763 190.645C154.625 208.117 123.895 217.446 92.4558 217.455L91.9091 217.449Z" stroke="url(#paint4_linear_3426_10366)" stroke-miterlimit="10"/>
<path style="mix-blend-mode:screen" opacity="0.2" d="M88.6677 213.661C68.3749 213.629 48.2872 209.6 29.5521 201.802C10.8171 194.005 -6.19815 182.593 -20.5215 168.218C-26.3712 162.361 -31.7475 156.049 -36.6001 149.342C-53.3063 126.265 -63.3175 99.0233 -65.5304 70.6198C-67.7434 42.2163 -62.0723 13.7531 -49.1419 -11.6331C-36.2116 -37.0194 -16.524 -58.3434 7.75144 -73.2552C32.0268 -88.167 59.9477 -96.0879 88.4372 -96.1449L88.9732 -96.1449C130.574 -96.1449 169.623 -80.2861 198.934 -50.975C225.003 -24.9461 240.941 9.52198 243.888 46.2426C246.835 82.9631 236.597 119.532 215.013 149.385C210.162 156.084 204.785 162.387 198.934 168.234C184.558 182.687 167.457 194.144 148.623 201.944C129.789 209.743 109.594 213.729 89.209 213.672L88.6677 213.661Z" stroke="url(#paint5_linear_3426_10366)" stroke-miterlimit="10"/>
<path style="mix-blend-mode:screen" opacity="0.2" d="M85.4299 209.873C65.6332 209.84 46.0369 205.908 27.76 198.301C9.48307 190.694 -7.11635 179.562 -21.0903 165.539C-26.7969 159.824 -32.0424 153.666 -36.7776 147.124C-57.8542 117.963 -67.8517 82.2479 -64.9769 46.3833C-62.102 10.5186 -46.5429 -23.1484 -21.0903 -48.5788C7.31507 -76.9842 45.0567 -92.9287 85.2155 -92.9287L85.7514 -92.9287C105.634 -92.9424 125.325 -89.0398 143.7 -81.4436C162.075 -73.8474 178.773 -62.7065 192.842 -48.6568C221.256 -20.2823 237.234 18.2175 237.262 58.3728C237.276 78.2558 233.373 97.9467 225.777 116.321C218.181 134.696 207.04 151.395 192.99 165.464C164.616 193.877 126.116 209.856 85.9605 209.883L85.4299 209.873Z" stroke="url(#paint6_linear_3426_10366)" stroke-miterlimit="10"/>
<g opacity="0.3">
<path style="mix-blend-mode:screen" opacity="0.5" d="M82.1882 206.077C62.8882 206.046 43.7836 202.212 25.9654 194.795C8.14734 187.379 -8.03511 176.525 -21.6576 162.853C-27.2298 157.282 -32.3517 151.279 -36.975 144.899C-52.8585 122.905 -62.3739 96.9605 -64.476 69.9131C-66.5782 42.8657 -61.1859 15.7621 -48.8914 -8.421C-36.5969 -32.6041 -17.8756 -52.9314 5.21621 -67.1703C28.3081 -81.4092 54.8773 -89.009 82.0059 -89.135L82.5419 -89.135C121.689 -89.162 159.244 -73.6366 186.945 -45.9742C200.661 -32.2771 211.545 -16.0127 218.975 1.89062C226.405 19.7939 230.236 38.9854 230.25 58.3693C230.277 97.5169 214.751 135.072 187.089 162.772C159.427 190.473 121.893 206.05 82.7456 206.077L82.1882 206.077Z" stroke="url(#paint7_linear_3426_10366)" stroke-miterlimit="10"/>
<path style="mix-blend-mode:screen" opacity="0.5" d="M78.9462 202.286C60.143 202.255 41.5302 198.519 24.1709 191.293C6.8117 184.067 -8.95386 173.492 -22.2252 160.171C-27.6481 154.742 -32.632 148.89 -37.13 142.673C-52.6023 121.247 -61.8717 95.9718 -63.9206 69.623C-65.9695 43.2741 -60.7186 16.8702 -48.7445 -6.68996C-36.7703 -30.2501 -18.5359 -50.0553 3.95673 -63.9312C26.4494 -77.8071 52.3305 -85.2171 78.7586 -85.3476L79.2677 -85.3476C105.773 -85.3822 131.772 -78.092 154.395 -64.2818C177.018 -50.4717 195.385 -30.6787 207.468 -7.08798C219.551 16.5027 224.881 42.9735 222.868 69.4021C220.855 95.8307 211.578 121.189 196.062 142.678C191.564 148.894 186.58 154.743 181.157 160.171C167.833 173.566 151.985 184.185 134.53 191.414C117.074 198.643 98.3589 202.338 79.4661 202.286L78.9462 202.286Z" stroke="url(#paint8_linear_3426_10366)" stroke-miterlimit="10"/>
<path style="mix-blend-mode:screen" opacity="0.5" d="M75.7092 198.499C57.4013 198.47 39.2788 194.832 22.3773 187.795C5.47573 180.758 -9.87347 170.46 -22.7932 157.489C-28.0747 152.21 -32.9279 146.52 -37.3067 140.472C-52.3756 119.611 -61.4045 95.0004 -63.4018 69.3435C-65.3991 43.6866 -60.2876 17.9755 -48.6286 -4.96652C-36.9696 -27.9085 -19.214 -47.194 2.68833 -60.7052C24.5907 -74.2165 49.7927 -81.4309 75.5269 -81.5562L76.0307 -81.5562C101.838 -81.5884 127.152 -74.4885 149.179 -61.0406C171.205 -47.5926 189.087 -28.3195 200.85 -5.34912C212.613 17.6213 217.8 43.3955 215.839 69.128C213.877 94.8606 204.842 119.551 189.733 140.472C185.354 146.526 180.501 152.221 175.219 157.505C162.247 170.543 146.818 180.88 129.824 187.917C112.831 194.954 94.6109 198.551 76.2183 198.499L75.7092 198.499Z" stroke="url(#paint9_linear_3426_10366)" stroke-miterlimit="10"/>
<path style="mix-blend-mode:screen" opacity="0.5" d="M72.4653 194.709C54.6548 194.678 37.0249 191.139 20.5825 184.294C4.14009 177.448 -10.7926 167.431 -23.3627 154.813C-28.5019 149.67 -33.2242 144.127 -37.485 138.236C-52.1373 117.939 -60.9143 93.9975 -62.8526 69.0395C-64.7909 44.0815 -59.8156 19.0719 -48.4727 -3.24394C-37.1298 -25.5598 -19.858 -44.3192 1.44698 -57.4629C22.7519 -70.6066 47.2663 -77.6266 72.2991 -77.7521L72.7868 -77.7521C97.8912 -77.7811 122.516 -70.8736 143.942 -57.7919C165.369 -44.7102 182.765 -25.963 194.21 -3.6193C205.655 18.7244 210.705 43.7958 208.801 68.828C206.898 93.8602 198.115 117.88 183.423 138.236C179.162 144.125 174.44 149.667 169.301 154.808C156.68 167.497 141.667 177.558 125.131 184.407C108.596 191.256 90.8667 194.758 72.9691 194.709L72.4653 194.709Z" stroke="url(#paint10_linear_3426_10366)" stroke-miterlimit="10"/>
<path style="mix-blend-mode:screen" opacity="0.5" d="M69.2282 190.919C51.9139 190.888 34.7753 187.446 18.7911 180.791C2.80683 174.136 -11.7101 164.398 -23.9307 152.132C-28.9267 147.132 -33.5181 141.743 -37.6618 136.016C-51.9107 116.284 -60.4471 93.007 -62.3338 68.7409C-64.2205 44.4749 -59.3845 20.1581 -48.3568 -1.53958C-37.3291 -23.2373 -20.5361 -41.4769 0.178551 -54.256C20.8932 -67.0351 44.7284 -73.8594 69.0674 -73.9798L69.5498 -73.9798C86.9433 -73.991 104.169 -70.5763 120.243 -63.9305C136.316 -57.2847 150.924 -47.5379 163.231 -35.2468C175.538 -22.9557 185.303 -8.36093 191.97 7.70427C198.637 23.7695 202.074 40.9904 202.085 58.384C202.096 75.7775 198.682 93.0029 192.036 109.077C185.39 125.151 175.643 139.758 163.352 152.065C138.529 176.92 104.849 190.896 69.7213 190.919L69.2282 190.919Z" stroke="url(#paint11_linear_3426_10366)" stroke-miterlimit="10"/>
<path style="mix-blend-mode:screen" opacity="0.5" d="M65.986 187.131C49.167 187.101 32.5187 183.758 16.9922 177.292C1.46565 170.826 -12.6349 161.365 -24.5039 149.448C-29.3561 144.593 -33.815 139.36 -37.8384 133.799C-51.6794 114.631 -59.9715 92.0199 -61.8042 68.4483C-63.6369 44.8766 -58.9394 21.2558 -48.2274 0.178921C-37.5154 -20.8979 -21.203 -38.6157 -1.08133 -51.0293C19.0404 -63.4429 42.1934 -70.0722 65.8359 -70.1896L66.3075 -70.1896C83.2035 -70.2005 99.9361 -66.8834 115.55 -60.4277C131.164 -53.972 145.354 -44.5041 157.308 -32.5646C169.263 -20.6251 178.75 -6.44778 185.225 9.15784C191.701 24.7635 195.04 41.4918 195.051 58.3877C195.062 75.2836 191.745 92.0162 185.289 107.63C178.833 123.244 169.365 137.434 157.426 149.389C145.486 161.344 131.309 170.83 115.704 177.306C100.098 183.781 83.3696 187.12 66.4737 187.131L65.986 187.131Z" stroke="url(#paint12_linear_3426_10366)" stroke-miterlimit="10"/>
<path style="mix-blend-mode:screen" opacity="0.7" d="M62.749 183.348C46.426 183.319 30.2686 180.074 15.2 173.798C0.131398 167.523 -13.5531 158.34 -25.0718 146.775C-29.7824 142.061 -34.1104 136.98 -38.0151 131.58C-51.45 112.977 -59.499 91.0309 -61.2783 68.1524C-63.0576 45.2739 -58.4984 22.3475 -48.1012 1.8904C-37.7041 -18.5666 -21.8711 -35.7632 -2.34067 -47.8112C17.1898 -59.8592 39.6623 -66.2927 62.6096 -66.4052L63.0706 -66.4052C79.4696 -66.4168 95.7103 -63.1983 110.865 -56.9334C126.021 -50.6685 139.793 -41.4799 151.397 -29.8923C174.833 -6.48999 188.012 25.2635 188.035 58.3828C188.059 91.5021 174.925 123.274 151.523 146.71C128.12 170.145 96.3667 183.324 63.2474 183.348L62.749 183.348Z" stroke="url(#paint13_linear_3426_10366)" stroke-miterlimit="10"/>
<path style="mix-blend-mode:screen" opacity="0.7" d="M59.4959 179.553C27.383 179.57 -3.42147 166.829 -26.1408 144.134C-48.8601 121.439 -61.6333 90.6479 -61.6504 58.535C-61.6674 26.4221 -48.927 -4.38241 -26.2318 -27.1017C-3.53657 -49.8211 27.2543 -62.5942 59.3673 -62.6113L59.8228 -62.6113C75.7235 -62.6208 91.4704 -59.4983 106.164 -53.4222C120.858 -47.346 134.212 -38.4352 145.462 -27.1984C156.712 -15.9616 165.639 -2.61895 171.733 12.0678C177.826 26.7545 180.968 42.4976 180.977 58.3983C180.987 74.299 177.864 90.0459 171.788 104.74C165.712 119.434 156.801 132.787 145.564 144.037C134.327 155.288 120.985 164.214 106.298 170.308C91.6114 176.402 75.8683 179.543 59.9676 179.553L59.4959 179.553Z" stroke="url(#paint14_linear_3426_10366)" stroke-miterlimit="10"/>
</g>
<path style="mix-blend-mode:screen" opacity="0.4" d="M56.2798 175.769C40.9494 175.741 25.7748 172.693 11.6229 166.798C-2.52892 160.903 -15.3806 152.278 -26.1976 141.415C-30.6217 136.986 -34.688 132.213 -38.3584 127.142C-54.7025 104.576 -62.4575 76.9186 -60.2283 49.1449C-57.999 21.3711 -45.9318 -4.69556 -26.1977 -24.3657C-4.22368 -46.3396 25.0499 -58.093 56.1619 -58.629L56.6014 -58.629C88.0241 -58.629 117.523 -46.5219 139.674 -24.3657C159.376 -4.67467 171.42 21.3899 173.647 49.1557C175.875 76.9215 168.14 104.573 151.829 127.153C148.161 132.226 144.095 136.999 139.668 141.425C128.803 152.349 115.878 161.01 101.642 166.905C87.4067 172.8 72.1432 175.813 56.7354 175.769L56.2798 175.769Z" stroke="url(#paint15_linear_3426_10366)" stroke-miterlimit="10"/>
<path style="mix-blend-mode:screen" opacity="0.4" d="M53.0275 171.977C38.195 171.951 23.5129 169.003 9.81997 163.302C-3.87293 157.6 -16.3083 149.257 -26.7756 138.748C-31.0665 134.464 -35.0093 129.846 -38.5665 124.936C-54.329 103.025 -61.7963 76.2277 -59.6367 49.3225C-57.4772 22.4174 -45.8312 -2.84604 -26.7756 -21.9624C-5.48761 -43.2504 22.8159 -54.8644 52.9203 -55.4003L53.3544 -55.4003C83.3732 -55.2119 112.099 -43.1592 133.266 -21.8717C154.432 -0.584255 166.32 28.2102 166.337 58.2297C166.354 88.2491 154.498 117.057 133.356 138.368C112.214 159.68 83.5016 171.765 53.483 171.987L53.0275 171.977Z" stroke="url(#paint16_linear_3426_10366)" stroke-miterlimit="10"/>
<path style="mix-blend-mode:screen" opacity="0.4" d="M49.7899 168.615C20.6288 168.079 -6.76362 156.851 -27.3441 136.27C-31.4877 132.086 -35.2924 127.578 -38.7224 122.791C-53.9543 101.592 -61.1692 75.6762 -59.0827 49.656C-56.9961 23.6359 -45.7435 -0.799449 -27.3281 -19.3C-6.75291 -39.8805 20.6074 -51.6607 49.7041 -51.6607L50.1329 -51.6607C79.5191 -51.6607 107.104 -40.036 127.846 -19.3161C146.278 -0.844115 157.542 23.5796 159.625 49.5914C161.708 75.6032 154.476 101.508 139.219 122.679C135.788 127.497 131.983 132.038 127.84 136.26C107.088 156.979 79.5405 168.615 50.2347 168.615L49.7899 168.615Z" stroke="url(#paint17_linear_3426_10366)" stroke-miterlimit="10"/>
<path style="mix-blend-mode:screen" opacity="0.4" d="M46.5468 164.397C18.4551 164.408 -8.49059 153.259 -28.3625 133.404C-48.2343 113.548 -59.4046 86.6112 -59.416 58.5195C-59.4274 30.4278 -48.2789 3.48211 -28.4231 -16.3898C-8.56732 -36.2616 18.3693 -47.4319 46.461 -47.4433L46.8737 -47.4433C60.8468 -47.5495 74.7029 -44.89 87.6437 -39.6178C100.585 -34.3457 112.354 -26.5652 122.275 -16.7246C132.196 -6.88392 140.072 4.82241 145.448 17.7201C150.825 30.6177 153.597 44.4518 153.604 58.4253C153.611 72.3989 150.853 86.2357 145.49 99.1388C140.126 112.042 132.262 123.756 122.351 133.607C112.44 143.458 100.678 151.25 87.743 156.535C74.8075 161.82 60.9541 164.494 46.9809 164.402L46.5468 164.397Z" stroke="url(#paint18_linear_3426_10366)" stroke-miterlimit="10"/>
<path style="mix-blend-mode:screen" opacity="0.4" d="M43.3096 160.605C16.2229 160.616 -9.75871 149.866 -28.9195 130.72C-48.0803 111.574 -58.8507 85.6013 -58.8613 58.5145C-58.872 31.4278 -48.122 5.44618 -28.9763 -13.7146C-9.83065 -32.8754 16.1425 -43.6458 43.2292 -43.6564L43.6366 -43.6564C62.4545 -43.6732 80.9113 -38.4911 96.9704 -28.682C113.03 -18.8729 126.067 -4.81801 134.643 11.9318C143.22 28.6815 147.003 47.4751 145.574 66.2387C144.146 85.0023 137.562 103.007 126.548 118.265C123.352 122.683 119.809 126.839 115.952 130.694C106.49 140.207 95.2354 147.749 82.8389 152.884C70.4424 158.018 57.1507 160.642 43.733 160.605L43.3096 160.605Z" stroke="url(#paint19_linear_3426_10366)" stroke-miterlimit="10"/>
<path style="mix-blend-mode:screen" opacity="0.4" d="M40.0734 156.824C13.9458 156.824 -10.6007 146.47 -29.0642 128.022C-32.7717 124.306 -36.1769 120.301 -39.2473 116.044C-52.9369 97.1051 -59.431 73.9087 -57.5649 50.6152C-55.6987 27.3216 -45.5944 5.45499 -29.0642 -11.0625C-10.6061 -29.5099 13.9405 -39.8698 40.0037 -39.8698L40.4003 -39.8698C58.5218 -39.8897 76.2964 -34.9026 91.7626 -25.4589C107.229 -16.0153 119.785 -2.48228 128.046 13.6466C136.307 29.7755 139.952 47.8732 138.577 65.9424C137.203 84.0117 130.863 101.35 120.257 116.044C117.186 120.301 113.781 124.306 110.074 128.022C100.957 137.188 90.1119 144.453 78.1667 149.398C66.2215 154.342 53.4139 156.866 40.4861 156.824L40.0734 156.824Z" stroke="url(#paint20_linear_3426_10366)" stroke-miterlimit="10"/>
<path style="mix-blend-mode:screen" opacity="0.4" d="M36.8353 153.029C24.4817 153.005 12.2539 150.548 0.850691 145.796C-10.5525 141.044 -20.9076 134.092 -29.6226 125.336C-33.1925 121.766 -36.4722 117.916 -39.4305 113.824C-49.5993 99.737 -55.6902 83.1203 -57.0348 65.7984C-58.3793 48.4765 -54.9254 31.119 -47.0522 15.6313C-39.1791 0.143574 -27.191 -12.8756 -12.404 -21.9971C2.38294 -31.1185 19.3972 -35.9897 36.771 -36.0758L37.1622 -36.0758C54.5825 -36.09 71.6681 -31.2917 86.5339 -22.2103C101.4 -13.1289 113.468 -0.117347 121.407 15.3887C129.346 30.8947 132.847 48.2925 131.524 65.6625C130.202 83.0324 124.106 99.6993 113.91 113.824C110.95 117.916 107.668 121.765 104.097 125.336C95.3374 134.144 84.9177 141.127 73.4411 145.88C61.9646 150.634 49.6592 153.063 37.2373 153.029L36.8353 153.029Z" stroke="url(#paint21_linear_3426_10366)" stroke-miterlimit="10"/>
<path style="mix-blend-mode:screen" opacity="0.7" d="M33.5936 149.24C21.7379 149.214 10.0034 146.854 -0.939794 142.292C-11.883 137.731 -21.8204 131.059 -30.1846 122.657C-33.6097 119.227 -36.7584 115.531 -39.6012 111.605C-49.3619 98.083 -55.2084 82.133 -56.4992 65.5059C-57.7899 48.8789 -54.475 32.2177 -46.9181 17.351C-39.3613 2.48434 -27.8548 -10.013 -13.6615 -18.7694C0.531796 -27.5258 16.8631 -32.2027 33.54 -32.2867L33.9259 -32.2867C50.6461 -32.2961 67.044 -27.6873 81.3111 -18.9686C95.5782 -10.2499 107.16 2.23989 114.779 17.1233C122.398 32.0066 125.758 48.7052 124.489 65.3772C123.22 82.0492 117.371 98.0467 107.587 111.605C104.745 115.532 101.597 119.228 98.1702 122.657C89.7621 131.112 79.7602 137.815 68.7435 142.378C57.7268 146.941 45.9144 149.273 33.9902 149.24L33.5936 149.24Z" stroke="url(#paint22_linear_3426_10366)" stroke-miterlimit="10"/>
<path style="mix-blend-mode:screen" opacity="0.7" d="M30.3549 145.451C18.9333 145.454 7.62298 143.207 -2.93028 138.839C-13.4835 134.471 -23.0731 128.066 -31.1513 119.992C-47.4662 103.685 -56.6349 81.5654 -56.6406 58.4985C-56.6463 35.4315 -47.4885 13.307 -31.1817 -3.00778C-14.8749 -19.3226 7.24504 -28.4914 30.312 -28.4971L30.6872 -28.4971C46.7095 -28.5054 62.4228 -24.0882 76.0939 -15.7327C89.7651 -7.37725 100.863 4.59183 108.163 18.8543C115.464 33.1169 118.683 49.1186 117.466 65.0946C116.249 81.0707 110.643 96.4002 101.267 109.392C98.5435 113.156 95.5256 116.697 92.2411 119.983C84.1837 128.085 74.5993 134.508 64.0427 138.88C53.4861 143.253 42.1671 145.488 30.7408 145.456L30.3549 145.451Z" stroke="url(#paint23_linear_3426_10366)" stroke-miterlimit="10"/>
<path style="mix-blend-mode:screen" opacity="0.7" d="M28.2016 141.663C6.26832 141.61 -14.7454 132.846 -30.217 117.299C-33.3598 114.156 -36.247 110.767 -38.8512 107.164C-47.8001 94.8002 -53.1615 80.2053 -54.3444 64.9885C-55.5273 49.7716 -52.4858 34.5235 -45.5552 20.925C-38.6246 7.32645 -28.0739 -4.09449 -15.0662 -12.079C-2.05846 -20.0635 12.9013 -24.3015 28.1641 -24.3258L28.5339 -24.3258C50.7865 -24.3258 71.6886 -15.8632 87.3973 -0.149112C99.0216 11.4733 106.936 26.2831 110.14 42.4058C113.344 58.5284 111.692 75.2391 105.395 90.4228C99.0973 105.606 88.4366 118.58 74.7623 127.703C61.0879 136.825 45.0146 141.685 28.5767 141.669L28.2016 141.663Z" stroke="url(#paint24_linear_3426_10366)" stroke-miterlimit="10"/>
<path style="mix-blend-mode:screen" opacity="0.7" d="M26.0465 137.872C15.6777 137.85 5.41509 135.784 -4.1552 131.794C-13.7255 127.804 -22.4159 121.967 -29.7299 114.618C-32.7296 111.616 -35.4859 108.382 -37.9728 104.944C-46.5089 93.1144 -51.6212 79.1623 -52.7488 64.6184C-53.8763 50.0745 -50.9755 35.5012 -44.3646 22.4976C-37.7538 9.4941 -27.6884 -1.43695 -15.2733 -9.09584C-2.8581 -16.7547 11.427 -20.8454 26.0143 -20.919L26.3788 -20.919C47.4358 -20.9233 67.6321 -12.5625 82.5247 2.32411C97.4173 17.2107 105.786 37.4036 105.791 58.4606C105.795 79.5177 97.4341 99.714 82.5475 114.607C67.6609 129.499 47.468 137.868 26.4109 137.872L26.0465 137.872Z" stroke="url(#paint25_linear_3426_10366)" stroke-miterlimit="10"/>
<path style="mix-blend-mode:screen" opacity="0.7" d="M23.8929 134.083C14.0201 134.061 4.24846 132.093 -4.86385 128.294C-13.9761 124.494 -22.2506 118.936 -29.2145 111.938C-32.0721 109.08 -34.6977 105.999 -37.0661 102.725C-47.576 88.135 -52.5567 70.284 -51.1184 52.3605C-49.68 34.4371 -41.9165 17.6087 -29.2145 4.88164C-15.0332 -9.30498 3.82154 -16.8458 23.8446 -17.3817L24.1984 -17.3817C38.1317 -17.3516 51.7869 -13.4805 63.6631 -6.19391C75.5393 1.09266 85.1766 11.5125 91.5157 23.9204C97.8547 36.3282 100.65 50.2436 99.5946 64.1369C98.539 78.0302 93.6734 91.3635 85.5325 102.671C83.1778 105.961 80.5649 109.058 77.7184 111.932C70.7139 118.975 62.3824 124.558 53.2058 128.36C44.0293 132.161 34.19 134.104 24.2573 134.078L23.8929 134.083Z" stroke="url(#paint26_linear_3426_10366)" stroke-miterlimit="10"/>
<path style="mix-blend-mode:screen" opacity="0.7" d="M22.8252 130.294C3.77803 130.294 -14.489 122.727 -27.9574 109.259C-41.4257 95.7908 -48.9922 77.5237 -48.9922 58.4766C-48.9922 39.4294 -41.4257 21.1624 -27.9574 7.694C-14.489 -5.77437 3.77802 -13.3408 22.8252 -13.3408L23.1736 -13.3408C42.2207 -13.3408 60.4877 -5.77437 73.9561 7.694C87.4245 21.1624 94.9909 39.4294 94.991 58.4766C94.991 77.5237 87.4245 95.7908 73.9561 109.259C60.4877 122.727 42.2207 130.294 23.1736 130.294L22.8252 130.294Z" stroke="url(#paint27_linear_3426_10366)" stroke-miterlimit="10"/>
</g>
<g style="mix-blend-mode:color-dodge" opacity="0.1">
<path style="mix-blend-mode:screen" opacity="0.5" d="M278.7 500.142C175.395 499.606 78.4312 453.605 5.64374 370.677C-9.11739 353.821 -22.556 335.851 -34.5525 316.927C-82.5952 241.181 -107.999 151.667 -107.999 58.0682C-108.095 4.73135 -99.5741 -48.2707 -82.7667 -98.8903C-63.1723 -157.647 -33.4271 -210.036 5.64371 -254.52C78.4151 -337.431 175.17 -383.416 278.083 -384L279.423 -384C383.435 -384 481.069 -338.015 554.366 -254.52C593.415 -210.036 623.155 -157.663 642.739 -98.9333C659.553 -48.3 668.078 4.71636 667.987 58.0682C667.987 151.672 642.583 241.186 594.519 316.932C582.53 335.857 569.091 353.825 554.323 370.672C481.059 454.157 383.628 500.136 279.991 500.136L278.7 500.142Z" stroke="url(#paint28_linear_3426_10366)" stroke-width="1.61" stroke-miterlimit="10"/>
<path style="mix-blend-mode:screen" opacity="0.5" d="M271.485 490.522C170.437 489.986 75.5898 444.998 4.38342 363.877C-10.0544 347.384 -23.1991 329.803 -34.9339 311.289C-81.9421 237.194 -106.794 149.63 -106.794 58.0685C-106.887 5.89165 -98.551 -45.9576 -82.1083 -95.476C-62.9427 -152.951 -33.846 -204.177 4.37804 -247.723C75.5737 -328.84 170.212 -373.822 270.885 -374.39L272.203 -374.39C373.948 -374.39 469.433 -329.408 541.143 -247.723C579.357 -204.178 608.448 -152.967 627.608 -95.5135C644.056 -45.9812 652.395 5.88231 652.305 58.0738C652.305 149.641 627.453 237.21 580.439 311.311C568.711 329.824 555.566 347.4 541.122 363.882C469.449 445.555 374.141 490.532 272.755 490.532L271.485 490.522Z" stroke="url(#paint29_linear_3426_10366)" stroke-width="1.61" stroke-miterlimit="10"/>
<path style="mix-blend-mode:screen" opacity="0.5" d="M264.261 480.9C165.474 480.364 72.7388 436.389 3.11886 357.095C-11.0012 340.968 -23.8557 323.775 -35.3302 305.67C-81.2934 233.194 -105.577 147.592 -105.577 58.0667C-105.674 7.051 -97.5302 -43.6455 -81.4595 -92.0638C-62.7013 -148.258 -34.2691 -198.343 3.10275 -240.924C72.7066 -320.245 165.249 -364.193 263.687 -364.766L264.974 -364.766C364.457 -364.766 457.841 -320.781 527.932 -240.919C565.293 -198.338 593.736 -148.269 612.473 -92.096C628.543 -43.6644 636.687 7.04418 636.591 58.072C636.591 147.576 612.291 233.221 566.328 305.681C554.869 323.777 542.027 340.959 527.916 357.073C457.835 436.93 364.65 480.878 265.52 480.878L264.261 480.9Z" stroke="url(#paint30_linear_3426_10366)" stroke-width="1.61" stroke-miterlimit="10"/>
<path style="mix-blend-mode:screen" opacity="0.5" d="M257.042 471.281C160.507 470.745 69.8881 427.783 1.84919 350.268C-11.9495 334.511 -24.5102 317.71 -35.721 300.018C-80.639 229.224 -104.376 145.557 -104.376 58.0683C-104.465 8.21403 -96.5014 -41.3274 -80.7944 -88.6428C-62.4864 -143.578 -34.6812 -192.505 1.84379 -234.121C69.8613 -311.625 160.303 -354.603 256.495 -355.144L257.76 -355.144C354.976 -355.144 446.233 -312.161 514.727 -234.116C551.241 -192.499 579.041 -143.572 597.349 -88.6804C613.058 -41.3506 621.021 8.20523 620.931 58.0736C620.931 145.568 597.189 229.24 552.27 300.039C541.061 317.731 528.498 334.528 514.695 350.279C446.222 428.281 355.159 471.281 258.28 471.281L257.042 471.281Z" stroke="url(#paint31_linear_3426_10366)" stroke-width="1.61" stroke-miterlimit="10"/>
<path style="mix-blend-mode:screen" opacity="0.5" d="M249.822 461.66C155.543 461.151 67.0628 419.175 0.604915 343.466C-12.8808 328.075 -25.1584 311.665 -36.1184 294.384C-79.986 225.236 -103.171 143.519 -103.171 58.0673C-103.256 9.37222 -95.4739 -39.0168 -80.1253 -85.2298C-62.2407 -138.868 -35.1055 -186.669 0.594174 -227.316C67.052 -303.019 155.361 -345 249.313 -345.525L250.556 -345.525C345.505 -345.525 434.634 -303.544 501.536 -227.31C537.204 -186.669 564.355 -138.879 582.235 -85.2834C597.583 -39.0574 605.365 9.3439 605.28 58.0512C605.28 143.514 582.09 225.23 538.217 294.379C527.271 311.66 515.002 328.066 501.52 343.45C434.607 419.705 345.693 461.66 251.044 461.66L249.822 461.66Z" stroke="url(#paint32_linear_3426_10366)" stroke-width="1.61" stroke-miterlimit="10"/>
<path style="mix-blend-mode:screen" opacity="0.5" d="M242.599 452.04C150.576 451.541 64.186 410.563 -0.685497 336.66C-13.8397 321.632 -25.8178 305.613 -36.5138 288.746C-79.3148 221.249 -101.964 141.483 -101.964 58.0679C-102.051 10.5341 -94.4609 -36.7017 -79.4864 -81.8152C-62.0251 -134.167 -35.5384 -180.832 -0.70161 -220.514C64.1484 -294.411 150.378 -335.39 242.084 -335.904L243.327 -335.904C336.015 -335.904 423.016 -294.92 488.321 -220.509C523.158 -180.848 549.645 -134.178 567.106 -81.8421C582.093 -36.7197 589.694 10.5271 589.616 58.0732C589.616 141.494 566.977 221.27 524.15 288.768C513.463 305.637 501.487 321.652 488.327 336.671C423 411.066 336.17 452.04 243.81 452.04L242.599 452.04Z" stroke="url(#paint33_linear_3426_10366)" stroke-width="1.61" stroke-miterlimit="10"/>
<path style="mix-blend-mode:screen" opacity="0.5" d="M235.379 442.422C145.613 441.934 61.3344 401.957 -1.95064 329.872C-14.7866 315.21 -26.4728 299.58 -36.9053 283.121C-78.6773 217.269 -100.753 139.449 -100.753 58.0699C-100.841 11.698 -93.4374 -34.3835 -78.8274 -78.3938C-61.8003 -129.47 -35.9514 -174.999 -1.95603 -213.711C61.2861 -285.801 145.43 -325.778 234.907 -326.26L236.097 -326.26C326.517 -326.26 411.391 -286.278 475.131 -213.684C509.1 -174.977 534.954 -129.459 551.986 -78.3992C566.599 -34.378 574.008 11.7137 573.928 58.0967C573.928 139.481 551.842 217.306 510.064 283.153C499.637 299.611 487.951 315.236 475.11 329.888C411.412 402.477 326.705 442.438 236.612 442.438L235.379 442.422Z" stroke="url(#paint34_linear_3426_10366)" stroke-width="1.61" stroke-miterlimit="10"/>
<path style="mix-blend-mode:screen" opacity="0.5" d="M228.16 432.799C140.65 432.322 58.4837 393.347 -3.21493 323.057C-15.731 308.761 -27.1268 293.522 -37.3014 277.475C-78.0283 213.279 -99.552 137.41 -99.5521 58.0674C-99.6346 12.8576 -92.4153 -32.0689 -78.173 -74.9769C-61.5585 -124.772 -36.3689 -169.159 -3.22567 -206.906C58.4622 -277.196 140.479 -316.155 227.71 -316.691L228.857 -316.691C317.01 -316.691 399.756 -277.711 461.878 -206.933C494.994 -169.192 520.205 -124.815 536.809 -75.0359C551.055 -32.1157 558.278 12.8232 558.199 58.046C558.199 137.367 536.669 213.268 495.937 277.464C485.771 293.507 474.376 308.738 461.856 323.02C399.75 393.765 317.149 432.761 229.313 432.761L228.16 432.799Z" stroke="url(#paint35_linear_3426_10366)" stroke-width="1.61" stroke-miterlimit="10"/>
<path style="mix-blend-mode:screen" opacity="0.5" d="M220.94 423.182C135.681 422.715 55.6317 384.743 -4.48589 316.254C-16.6889 302.327 -27.7982 287.478 -37.7148 271.84C-77.3752 209.3 -98.3469 135.376 -98.3469 58.0707C-98.4301 14.0206 -91.3953 -29.7536 -77.5145 -71.5597C-61.3396 -120.079 -36.7823 -163.325 -4.49127 -200.102C55.6102 -268.586 135.52 -306.563 220.517 -307.04L221.658 -307.04C307.545 -307.04 388.168 -269.058 448.687 -200.097C480.957 -163.325 505.498 -120.09 521.7 -71.5865C535.58 -29.7691 542.617 14.0153 542.538 58.076C542.538 135.387 521.56 209.311 481.879 271.856C471.968 287.495 460.858 302.34 448.65 316.26C388.136 385.215 307.695 423.187 222.071 423.187L220.94 423.182Z" stroke="url(#paint36_linear_3426_10366)" stroke-width="1.61" stroke-miterlimit="10"/>
<path style="mix-blend-mode:screen" opacity="0.5" d="M213.72 413.558C130.712 413.102 52.7796 376.132 -5.7516 309.449C-17.6268 295.887 -28.4386 281.429 -38.0909 266.203C-76.7222 205.325 -97.1419 133.336 -97.1419 58.067C-97.2219 15.1774 -90.3736 -27.4436 -76.8615 -68.1493C-61.0939 -115.383 -37.1905 -157.514 -5.75698 -193.305C52.7581 -259.982 130.562 -296.957 213.313 -297.424L214.433 -297.424C298.041 -297.424 376.547 -260.443 435.475 -193.299C466.893 -157.498 490.812 -115.399 506.564 -68.1761C520.075 -27.4611 526.923 15.1686 526.844 58.067C526.844 133.341 506.424 205.319 467.788 266.209C458.141 281.434 447.33 295.891 435.454 309.449C376.547 376.582 298.202 413.558 214.856 413.558L213.72 413.558Z" stroke="url(#paint37_linear_3426_10366)" stroke-width="1.61" stroke-miterlimit="10"/>
<path style="mix-blend-mode:screen" opacity="0.5" d="M206.503 403.937C125.751 403.498 49.9299 367.525 -7.02017 302.642C-18.5737 289.447 -29.0917 275.379 -38.4805 260.565C-76.0667 201.326 -95.929 131.299 -95.929 58.0668C-96.007 16.3379 -89.347 -25.1298 -76.2061 -64.7356C-60.8779 -110.688 -37.6176 -151.661 -7.02555 -186.504C49.9085 -251.354 125.606 -287.348 206.122 -287.798L207.194 -287.798C288.551 -287.798 364.919 -251.82 422.249 -186.504C452.799 -151.667 476.091 -110.704 491.419 -64.7624C504.565 -25.1482 511.228 16.3285 511.153 58.0668C511.153 131.304 491.285 201.332 453.699 260.576C444.311 275.39 433.791 289.456 422.233 302.648C364.887 367.964 288.691 403.942 207.601 403.942L206.503 403.937Z" stroke="url(#paint38_linear_3426_10366)" stroke-width="1.61" stroke-miterlimit="10"/>
<path style="mix-blend-mode:screen" opacity="0.5" d="M199.282 394.315C120.787 393.891 47.0721 358.942 -8.28626 295.845C-19.5195 283.014 -29.7471 269.338 -38.8783 254.936C-75.4141 197.342 -94.7297 129.266 -94.7297 58.0702C-94.8113 17.5017 -88.3394 -22.8136 -75.5641 -61.3182C-60.6701 -105.99 -38.0476 -145.821 -8.30772 -179.694C47.0452 -242.764 120.637 -277.74 198.912 -278.18L199.984 -278.18C279.069 -278.18 353.309 -243.198 409.048 -179.688C438.771 -145.822 461.394 -106 476.293 -61.3343C489.074 -22.8231 495.553 17.499 495.48 58.0755C495.48 129.277 476.186 197.353 439.624 254.946C430.497 269.35 420.269 283.025 409.032 295.85C353.32 359.349 279.235 394.32 200.381 394.32L199.282 394.315Z" stroke="url(#paint39_linear_3426_10366)" stroke-width="1.61" stroke-miterlimit="10"/>
<path style="mix-blend-mode:screen" opacity="0.5" d="M192.064 384.694C115.82 384.281 44.2272 350.307 -9.55542 289.043C-20.4671 276.569 -30.4026 263.274 -39.2739 249.275C-74.7645 193.354 -93.5228 127.228 -93.5228 58.0694C-93.5957 18.6623 -87.3048 -20.4981 -74.8932 -57.8996C-60.4225 -101.312 -38.4486 -139.986 -9.56081 -172.893C44.2111 -234.152 115.696 -268.132 191.732 -268.56L192.803 -268.56C269.621 -268.56 341.733 -234.586 395.881 -172.893C424.747 -139.997 446.726 -101.317 461.197 -57.9211C473.616 -20.5136 479.91 18.6544 479.837 58.0693C479.837 127.207 461.079 193.359 425.578 249.302C416.708 263.297 406.767 276.584 395.843 289.043C341.712 350.725 269.723 384.699 193.146 384.699L192.064 384.694Z" stroke="url(#paint40_linear_3426_10366)" stroke-width="1.61" stroke-miterlimit="10"/>
<path style="mix-blend-mode:screen" opacity="0.7" d="M184.844 375.074C110.883 374.672 41.3752 341.7 -10.8211 282.236C-21.4146 270.135 -31.0582 257.234 -39.6659 243.648C-74.1115 189.356 -92.3177 125.176 -92.3177 58.0536C-92.3908 19.808 -86.2845 -18.1982 -74.2348 -54.496C-60.1929 -96.611 -38.862 -134.16 -10.8264 -166.102C41.3591 -225.577 110.738 -258.527 184.533 -258.94L185.562 -258.94C260.113 -258.94 330.097 -225.968 382.674 -166.086C410.699 -134.154 432.03 -96.611 446.072 -54.5014C458.121 -18.2034 464.229 19.8025 464.16 58.0482C464.16 125.176 445.938 189.356 411.503 243.648C402.9 257.236 393.258 270.137 382.663 282.236C330.14 342.107 260.257 375.079 185.937 375.079L184.844 375.074Z" stroke="url(#paint41_linear_3426_10366)" stroke-width="1.61" stroke-miterlimit="10"/>
<path style="mix-blend-mode:screen" opacity="0.7" d="M177.624 365.453C105.887 365.062 38.5236 333.092 -12.1023 275.413C-22.3692 263.686 -31.717 251.184 -40.0628 238.02C-73.4579 185.385 -91.1068 123.155 -91.1068 58.0695C-91.1784 20.9846 -85.2603 -15.8683 -73.5812 -51.0662C-59.9627 -91.9056 -39.2804 -128.313 -12.0916 -159.285C38.5075 -216.943 105.785 -248.918 177.34 -249.325L178.342 -249.325C250.626 -249.325 318.483 -217.35 369.441 -159.285C396.608 -128.323 417.296 -91.9217 430.909 -51.0876C442.592 -15.8831 448.514 20.977 448.445 58.0694C448.445 123.161 430.791 185.39 397.391 238.031C389.049 251.204 379.697 263.709 369.42 275.435C318.504 333.484 250.733 365.475 178.664 365.475L177.624 365.453Z" stroke="url(#paint42_linear_3426_10366)" stroke-width="1.61" stroke-miterlimit="10"/>
<path style="mix-blend-mode:screen" opacity="0.7" d="M170.406 355.833C100.925 355.458 35.6729 324.485 -13.3558 268.628C-23.3062 257.264 -32.3656 245.15 -40.4535 232.393C-72.8035 181.397 -89.9057 121.119 -89.9057 58.0693C-89.9737 22.1481 -84.2403 -13.5484 -72.9268 -47.6416C-59.737 -87.2001 -39.6978 -122.466 -13.3612 -152.473C35.6568 -208.325 100.828 -239.298 170.143 -239.689L171.129 -239.689C241.14 -239.689 306.869 -208.716 356.23 -152.474C382.556 -122.46 402.595 -87.2162 415.785 -47.663C427.102 -13.5593 432.837 22.1479 432.769 58.08C432.769 121.129 415.673 181.413 383.317 232.403C375.236 245.165 366.176 257.28 356.22 268.639C306.869 324.844 241.242 355.838 171.435 355.838L170.406 355.833Z" stroke="url(#paint43_linear_3426_10366)" stroke-width="1.61" stroke-miterlimit="10"/>
<path style="mix-blend-mode:screen" opacity="0.7" d="M163.185 346.21C95.9397 345.846 32.8209 315.876 -14.6269 261.825C-24.256 250.829 -33.0233 239.107 -40.8509 226.763C-72.1504 177.424 -88.7006 119.091 -88.7006 58.0781C-88.768 23.3097 -83.2191 -11.2414 -72.2683 -44.2403C-59.5074 -82.5125 -40.1113 -116.647 -14.6269 -145.685C32.8101 -199.73 95.8701 -229.701 162.934 -230.081L163.904 -230.081C231.642 -230.081 295.244 -200.111 343.013 -145.685C368.492 -116.658 387.883 -82.5286 400.644 -44.2564C411.596 -11.2559 417.147 23.2969 417.081 58.0673C417.081 119.08 400.531 177.418 369.226 226.758C361.404 239.104 352.64 250.828 343.013 261.825C295.254 316.267 231.75 346.216 164.193 346.216L163.185 346.21Z" stroke="url(#paint44_linear_3426_10366)" stroke-width="1.61" stroke-miterlimit="10"/>
<path style="mix-blend-mode:screen" opacity="0.7" d="M155.967 336.592C90.9886 336.238 29.9652 307.27 -15.8961 255.02C-25.2125 244.389 -33.6933 233.054 -41.2626 221.116C-71.5224 173.416 -87.5152 117.045 -87.5152 58.0689C-87.5739 24.465 -82.2042 -8.92785 -71.6135 -40.8193C-59.2866 -77.7999 -40.5284 -110.809 -15.8747 -138.898C29.9759 -191.137 90.9296 -220.111 155.769 -220.475L156.712 -220.475C222.184 -220.475 283.657 -191.502 329.824 -138.898C354.478 -110.836 373.199 -77.8482 385.563 -40.8515C396.145 -8.94777 401.504 24.456 401.433 58.0689C401.433 117.023 385.435 173.432 355.18 221.121C347.61 233.06 339.125 244.393 329.803 255.02C283.641 307.624 222.259 336.597 156.959 336.597L155.967 336.592Z" stroke="url(#paint45_linear_3426_10366)" stroke-width="1.61" stroke-miterlimit="10"/>
<path style="mix-blend-mode:screen" opacity="0.7" d="M148.753 326.987C86.0469 326.644 27.0924 298.678 -17.1611 248.234C-26.1493 237.962 -34.3325 227.012 -41.6379 215.482C-70.8472 169.417 -86.2826 115.007 -86.2826 58.068C-86.3475 25.6255 -81.1714 -6.61449 -70.9544 -37.4063C-59.0456 -73.122 -40.9466 -104.99 -17.145 -132.077C27.1245 -182.515 85.9772 -210.486 148.571 -210.861L149.498 -210.861C212.703 -210.861 272.049 -182.89 316.624 -132.077C340.404 -104.984 358.503 -73.122 370.412 -37.417C380.625 -6.62103 385.798 25.6225 385.729 58.068C385.729 115.013 370.288 169.417 341.079 215.509C333.773 227.021 325.588 237.951 316.597 248.202C272.032 299.005 212.778 326.987 149.723 326.987L148.753 326.987Z" stroke="url(#paint46_linear_3426_10366)" stroke-width="1.61" stroke-miterlimit="10"/>
<path style="mix-blend-mode:screen" opacity="0.7" d="M141.539 317.338C81.0672 317.006 24.2671 290.042 -18.4267 241.405C-27.0878 231.503 -34.9718 220.947 -42.0085 209.832C-70.2049 165.455 -85.0775 112.97 -85.0775 58.0668C-85.1412 26.7846 -80.1516 -4.30255 -70.3014 -33.9935C-58.8213 -68.4283 -41.36 -99.1383 -18.4267 -125.277C24.2564 -173.909 81.0029 -200.878 141.356 -201.221L142.262 -201.221C203.2 -201.221 260.418 -174.252 303.401 -125.277C326.329 -99.1544 343.779 -68.4658 355.265 -34.0042C365.116 -4.30957 370.107 26.7809 370.046 58.0667C370.046 112.975 355.158 165.461 326.999 209.848C319.963 220.962 312.079 231.516 303.417 241.415C260.418 290.38 203.269 317.338 142.482 317.338L141.539 317.338Z" stroke="url(#paint47_linear_3426_10366)" stroke-width="1.61" stroke-miterlimit="10"/>
<path style="mix-blend-mode:screen" opacity="0.7" d="M134.32 307.731C76.1107 307.415 21.4438 281.432 -19.6904 234.611C-28.0411 225.079 -35.6421 214.916 -42.4255 204.212C-69.5392 161.47 -83.8705 110.956 -83.8705 58.0689C-83.9318 27.9484 -79.1268 -1.98412 -69.641 -30.572C-58.5897 -63.7313 -41.7716 -93.305 -19.6958 -118.468C21.4062 -165.299 76.0464 -191.277 134.165 -191.593L135.065 -191.593C193.73 -191.593 248.821 -165.621 290.207 -118.468C312.288 -93.3104 329.09 -63.7366 340.152 -30.572C349.637 -1.98028 354.442 27.9557 354.382 58.0796C354.382 110.951 340.05 161.486 312.931 204.228C306.151 214.931 298.552 225.093 290.202 234.622C248.821 281.785 193.795 307.747 135.264 307.747L134.32 307.731Z" stroke="url(#paint48_linear_3426_10366)" stroke-width="1.61" stroke-miterlimit="10"/>
<path style="mix-blend-mode:screen" opacity="0.7" d="M127.106 298.111C71.1417 297.806 18.5649 272.857 -20.9614 227.811C-28.9879 218.642 -36.295 208.868 -42.8175 198.575C-68.8862 157.489 -82.6655 108.899 -82.6655 58.0699C-82.7249 29.1133 -78.1063 0.337235 -68.988 -27.1463C-58.3601 -59.0246 -42.1905 -87.4568 -20.9615 -111.655C18.5542 -156.675 71.0881 -181.65 126.961 -181.961L127.829 -181.961C184.227 -181.961 237.163 -156.991 276.979 -111.65C298.213 -87.4622 314.367 -59.03 325 -27.1517C334.116 0.332435 338.735 29.1081 338.677 58.0645C338.677 108.899 324.898 157.489 298.83 198.575C292.308 208.868 284.999 218.641 276.968 227.805C237.19 273.147 184.286 298.111 128.006 298.111L127.106 298.111Z" stroke="url(#paint49_linear_3426_10366)" stroke-width="1.61" stroke-miterlimit="10"/>
<path style="mix-blend-mode:screen" d="M119.893 288.49C66.1799 288.195 15.7094 264.227 -22.2252 221.003C-29.9334 212.203 -36.9502 202.821 -43.213 192.94C-68.2365 153.5 -81.4585 106.861 -81.4585 58.0685C-81.5153 30.2688 -77.0831 2.64238 -68.333 -23.7444C-58.15 -54.3418 -42.6074 -81.6271 -22.2413 -104.866C15.688 -148.085 66.1209 -172.053 119.753 -172.353L120.606 -172.353C174.737 -172.353 225.561 -148.385 263.758 -104.861C284.124 -81.6378 299.667 -54.3472 309.85 -23.7444C318.604 2.64339 323.038 30.272 322.981 58.0738C322.981 106.872 309.753 153.511 284.73 192.951C278.469 202.832 271.452 212.212 263.742 221.008C225.55 264.527 174.774 288.495 120.745 288.495L119.893 288.49Z" stroke="url(#paint50_linear_3426_10366)" stroke-width="1.61" stroke-miterlimit="10"/>
<path style="mix-blend-mode:screen" d="M112.678 278.87C61.2269 278.586 12.8573 255.621 -23.4962 214.203C-30.8811 205.767 -37.604 196.774 -43.6051 187.303C-67.5835 149.513 -80.2534 104.826 -80.2534 58.0694C-80.3087 31.4367 -76.0611 4.96992 -67.6746 -20.308C-57.8989 -49.6299 -43.0209 -75.7843 -23.4962 -98.0477C12.868 -139.477 61.1786 -162.447 112.555 -162.732L113.396 -162.732C165.25 -162.732 213.946 -139.761 250.551 -98.0584C270.087 -75.8004 284.949 -49.6514 294.73 -20.3456C303.115 4.942 307.362 31.4173 307.309 58.0587C307.309 104.82 294.633 149.508 270.66 187.298C264.664 196.771 257.945 205.766 250.562 214.203C213.962 255.905 165.303 278.87 113.536 278.87L112.678 278.87Z" stroke="url(#paint51_linear_3426_10366)" stroke-width="1.61" stroke-miterlimit="10"/>
<path style="mix-blend-mode:screen" d="M107.876 269.249C58.6645 268.976 12.4227 247.013 -22.3605 207.401C-29.4252 199.332 -35.8578 190.732 -41.6011 181.675C-64.5184 145.525 -76.6362 102.788 -76.6362 58.0686C-76.6899 32.591 -72.6287 7.27188 -64.6095 -16.9109C-55.2571 -44.9464 -41.0277 -69.97 -22.3498 -91.258C12.4173 -130.87 58.6324 -152.839 107.79 -153.112L108.61 -153.112C158.191 -153.112 204.765 -131.138 239.773 -91.2526C258.456 -69.9646 272.675 -44.9518 282.027 -16.9109C290.046 7.2738 294.107 32.5946 294.054 58.074C294.054 102.799 281.936 145.541 259.008 181.675C253.267 190.733 246.834 199.334 239.768 207.401C204.765 247.286 158.217 269.249 108.712 269.249L107.876 269.249Z" stroke="url(#paint52_linear_3426_10366)" stroke-width="1.61" stroke-miterlimit="10"/>
<path style="mix-blend-mode:screen" d="M103.075 259.628C56.1148 259.371 11.9632 238.405 -21.2014 200.593C-27.9468 192.891 -34.0874 184.679 -39.5684 176.031C-61.4513 141.548 -73.0171 100.751 -73.0171 58.0679C-73.0679 33.7503 -69.1913 9.58403 -61.537 -13.4976C-52.6135 -40.2522 -39.0271 -64.1288 -21.2014 -84.4574C11.9793 -122.269 56.0934 -143.23 103.005 -143.492L103.809 -143.492C151.123 -143.492 195.564 -122.526 228.975 -84.4521C246.817 -64.1288 260.387 -40.2576 269.311 -13.4922C276.965 9.58759 280.841 33.752 280.791 58.0679C280.791 100.756 269.225 141.548 247.342 176.031C241.863 184.68 235.722 192.892 228.975 200.593C195.564 238.662 151.144 259.628 103.884 259.628L103.075 259.628Z" stroke="url(#paint53_linear_3426_10366)" stroke-width="1.61" stroke-miterlimit="10"/>
<path style="mix-blend-mode:screen" d="M98.2776 250.007C53.5633 249.761 11.5447 229.796 -20.0603 193.791C-26.4827 186.453 -32.3311 178.632 -37.5537 170.397C-58.3861 137.554 -69.3999 98.7136 -69.3999 58.0671C-69.4504 34.9114 -65.7602 11.8997 -58.4719 -10.0791C-49.9717 -35.5582 -37.0338 -58.3146 -20.0603 -77.6571C11.5608 -113.662 53.5472 -133.626 98.224 -133.873L99.0119 -133.873C144.032 -133.873 186.372 -113.903 218.18 -77.6517C235.17 -58.2932 248.092 -35.5582 256.592 -10.0791C263.88 11.9016 267.57 34.9151 267.52 58.0724C267.52 98.7243 256.506 137.565 235.674 170.402C230.454 178.641 224.604 186.462 218.175 193.797C186.361 230.043 144.059 250.007 99.0601 250.007L98.2776 250.007Z" stroke="url(#paint54_linear_3426_10366)" stroke-width="1.61" stroke-miterlimit="10"/>
<path style="mix-blend-mode:screen" d="M95.8862 240.387C53.4228 240.151 13.5159 221.184 -16.5027 186.985C-22.6054 180.016 -28.1601 172.585 -33.1171 164.759C-52.9044 133.572 -63.3608 96.6934 -63.3608 58.0674C-63.4102 36.0721 -59.9065 14.2132 -52.9848 -6.66474C-44.9456 -30.8629 -32.6187 -52.4563 -16.4973 -70.8555C13.5159 -105.055 53.4228 -124.016 95.854 -124.252L96.6258 -124.252C139.395 -124.252 179.58 -105.285 209.802 -70.8502C225.945 -52.4564 238.208 -30.8629 246.29 -6.65939C253.212 14.2185 256.715 36.0774 256.666 58.0727C256.666 96.688 246.21 133.577 226.422 164.764C221.468 172.592 215.913 180.023 209.808 186.99C179.575 221.404 139.389 240.387 96.6472 240.387L95.8862 240.387Z" stroke="url(#paint55_linear_3426_10366)" stroke-width="1.61" stroke-miterlimit="10"/>
</g>
</g>
<defs>
<linearGradient id="paint0_linear_3426_10366" x1="-68.9505" y1="58.476" x2="279.857" y2="58.476" gradientUnits="userSpaceOnUse">
<stop stop-color="#00BA2E"/>
<stop offset="0.58" stop-color="#02A96D"/>
<stop offset="1" stop-color="#049E95"/>
</linearGradient>
<linearGradient id="paint1_linear_3426_10366" x1="-68.4082" y1="58.4776" x2="272.821" y2="58.4776" gradientUnits="userSpaceOnUse">
<stop stop-color="#00BA2E"/>
<stop offset="0.58" stop-color="#02A96D"/>
<stop offset="1" stop-color="#049E95"/>
</linearGradient>
<linearGradient id="paint2_linear_3426_10366" x1="-67.8677" y1="58.4758" x2="265.783" y2="58.4758" gradientUnits="userSpaceOnUse">
<stop stop-color="#00BA2E"/>
<stop offset="0.58" stop-color="#02A96D"/>
<stop offset="1" stop-color="#049E95"/>
</linearGradient>
<linearGradient id="paint3_linear_3426_10366" x1="-67.3267" y1="58.4774" x2="258.74" y2="58.4774" gradientUnits="userSpaceOnUse">
<stop stop-color="#00BA2E"/>
<stop offset="0.58" stop-color="#02A96D"/>
<stop offset="1" stop-color="#049E95"/>
</linearGradient>
<linearGradient id="paint4_linear_3426_10366" x1="-66.7859" y1="58.4757" x2="251.703" y2="58.4757" gradientUnits="userSpaceOnUse">
<stop stop-color="#00BA2E"/>
<stop offset="0.58" stop-color="#02A96D"/>
<stop offset="1" stop-color="#049E95"/>
</linearGradient>
<linearGradient id="paint5_linear_3426_10366" x1="-66.2435" y1="58.7662" x2="244.667" y2="58.7662" gradientUnits="userSpaceOnUse">
<stop stop-color="#00BA2E"/>
<stop offset="0.58" stop-color="#02A96D"/>
<stop offset="1" stop-color="#049E95"/>
</linearGradient>
<linearGradient id="paint6_linear_3426_10366" x1="-65.7028" y1="58.4774" x2="237.629" y2="58.4773" gradientUnits="userSpaceOnUse">
<stop stop-color="#00BA2E"/>
<stop offset="0.58" stop-color="#02A96D"/>
<stop offset="1" stop-color="#049E95"/>
</linearGradient>
<linearGradient id="paint7_linear_3426_10366" x1="-65.1607" y1="58.4711" x2="230.593" y2="58.4711" gradientUnits="userSpaceOnUse">
<stop stop-color="#00BA2E"/>
<stop offset="0.58" stop-color="#02A96D"/>
<stop offset="1" stop-color="#049E95"/>
</linearGradient>
<linearGradient id="paint8_linear_3426_10366" x1="-64.6189" y1="58.4694" x2="223.556" y2="58.4693" gradientUnits="userSpaceOnUse">
<stop stop-color="#00BA2E"/>
<stop offset="0.58" stop-color="#02A96D"/>
<stop offset="1" stop-color="#049E95"/>
</linearGradient>
<linearGradient id="paint9_linear_3426_10366" x1="-64.0775" y1="58.4716" x2="216.519" y2="58.4716" gradientUnits="userSpaceOnUse">
<stop stop-color="#00BA2E"/>
<stop offset="0.58" stop-color="#02A96D"/>
<stop offset="1" stop-color="#049E95"/>
</linearGradient>
<linearGradient id="paint10_linear_3426_10366" x1="-63.5376" y1="58.4704" x2="209.481" y2="58.4704" gradientUnits="userSpaceOnUse">
<stop stop-color="#00BA2E"/>
<stop offset="0.58" stop-color="#02A96D"/>
<stop offset="1" stop-color="#049E95"/>
</linearGradient>
<linearGradient id="paint11_linear_3426_10366" x1="-62.9962" y1="58.4697" x2="202.439" y2="58.4697" gradientUnits="userSpaceOnUse">
<stop stop-color="#00BA2E"/>
<stop offset="0.58" stop-color="#02A96D"/>
<stop offset="1" stop-color="#049E95"/>
</linearGradient>
<linearGradient id="paint12_linear_3426_10366" x1="-62.4546" y1="58.4708" x2="195.402" y2="58.4708" gradientUnits="userSpaceOnUse">
<stop stop-color="#00BA2E"/>
<stop offset="0.58" stop-color="#02A96D"/>
<stop offset="1" stop-color="#049E95"/>
</linearGradient>
<linearGradient id="paint13_linear_3426_10366" x1="-61.9131" y1="58.4713" x2="188.365" y2="58.4713" gradientUnits="userSpaceOnUse">
<stop stop-color="#00BA2E"/>
<stop offset="0.58" stop-color="#02A96D"/>
<stop offset="1" stop-color="#049E95"/>
</linearGradient>
<linearGradient id="paint14_linear_3426_10366" x1="-61.3717" y1="58.4707" x2="181.328" y2="58.4706" gradientUnits="userSpaceOnUse">
<stop stop-color="#00BA2E"/>
<stop offset="0.58" stop-color="#02A96D"/>
<stop offset="1" stop-color="#049E95"/>
</linearGradient>
<linearGradient id="paint15_linear_3426_10366" x1="-60.8308" y1="58.5727" x2="174.291" y2="58.5727" gradientUnits="userSpaceOnUse">
<stop stop-color="#00BA2E"/>
<stop offset="0.58" stop-color="#02A96D"/>
<stop offset="1" stop-color="#049E95"/>
</linearGradient>
<linearGradient id="paint16_linear_3426_10366" x1="-60.2885" y1="58.2855" x2="167.255" y2="58.2855" gradientUnits="userSpaceOnUse">
<stop stop-color="#00BA2E"/>
<stop offset="0.58" stop-color="#02A96D"/>
<stop offset="1" stop-color="#049E95"/>
</linearGradient>
<linearGradient id="paint17_linear_3426_10366" x1="-59.7477" y1="58.4771" x2="160.217" y2="58.4771" gradientUnits="userSpaceOnUse">
<stop stop-color="#00BA2E"/>
<stop offset="0.58" stop-color="#02A96D"/>
<stop offset="1" stop-color="#049E95"/>
</linearGradient>
<linearGradient id="paint18_linear_3426_10366" x1="-59.207" y1="58.4766" x2="153.174" y2="58.4766" gradientUnits="userSpaceOnUse">
<stop stop-color="#00BA2E"/>
<stop offset="0.58" stop-color="#02A96D"/>
<stop offset="1" stop-color="#049E95"/>
</linearGradient>
<linearGradient id="paint19_linear_3426_10366" x1="-58.6657" y1="58.4743" x2="146.137" y2="58.4743" gradientUnits="userSpaceOnUse">
<stop stop-color="#00BA2E"/>
<stop offset="0.58" stop-color="#02A96D"/>
<stop offset="1" stop-color="#049E95"/>
</linearGradient>
<linearGradient id="paint20_linear_3426_10366" x1="-58.1234" y1="58.4771" x2="139.101" y2="58.4771" gradientUnits="userSpaceOnUse">
<stop stop-color="#00BA2E"/>
<stop offset="0.58" stop-color="#02A96D"/>
<stop offset="1" stop-color="#049E95"/>
</linearGradient>
<linearGradient id="paint21_linear_3426_10366" x1="-57.5831" y1="58.4767" x2="132.063" y2="58.4767" gradientUnits="userSpaceOnUse">
<stop stop-color="#00BA2E"/>
<stop offset="0.58" stop-color="#02A96D"/>
<stop offset="1" stop-color="#049E95"/>
</linearGradient>
<linearGradient id="paint22_linear_3426_10366" x1="-57.041" y1="58.4765" x2="125.027" y2="58.4765" gradientUnits="userSpaceOnUse">
<stop stop-color="#00BA2E"/>
<stop offset="0.58" stop-color="#02A96D"/>
<stop offset="1" stop-color="#049E95"/>
</linearGradient>
<linearGradient id="paint23_linear_3426_10366" x1="-56.5013" y1="58.477" x2="117.988" y2="58.477" gradientUnits="userSpaceOnUse">
<stop stop-color="#00BA2E"/>
<stop offset="0.58" stop-color="#02A96D"/>
<stop offset="1" stop-color="#049E95"/>
</linearGradient>
<linearGradient id="paint24_linear_3426_10366" x1="-54.8761" y1="58.6715" x2="112.035" y2="58.6715" gradientUnits="userSpaceOnUse">
<stop stop-color="#00BA2E"/>
<stop offset="0.58" stop-color="#02A96D"/>
<stop offset="1" stop-color="#049E95"/>
</linearGradient>
<linearGradient id="paint25_linear_3426_10366" x1="-53.2474" y1="58.4767" x2="106.075" y2="58.4767" gradientUnits="userSpaceOnUse">
<stop stop-color="#00BA2E"/>
<stop offset="0.58" stop-color="#02A96D"/>
<stop offset="1" stop-color="#049E95"/>
</linearGradient>
<linearGradient id="paint26_linear_3426_10366" x1="-51.6225" y1="58.3642" x2="100.121" y2="58.3641" gradientUnits="userSpaceOnUse">
<stop stop-color="#00BA2E"/>
<stop offset="0.58" stop-color="#02A96D"/>
<stop offset="1" stop-color="#049E95"/>
</linearGradient>
<linearGradient id="paint27_linear_3426_10366" x1="-48.9172" y1="58.4766" x2="95.2482" y2="58.4766" gradientUnits="userSpaceOnUse">
<stop stop-color="#00BA2E"/>
<stop offset="0.58" stop-color="#02A96D"/>
<stop offset="1" stop-color="#049E95"/>
</linearGradient>
<linearGradient id="paint28_linear_3426_10366" x1="-108.428" y1="58.0682" x2="668.416" y2="58.0682" gradientUnits="userSpaceOnUse">
<stop stop-color="#00BA2E"/>
<stop offset="0.58" stop-color="#02A96D"/>
<stop offset="1" stop-color="#049E95"/>
</linearGradient>
<linearGradient id="paint29_linear_3426_10366" x1="-107.218" y1="58.0685" x2="652.739" y2="58.0685" gradientUnits="userSpaceOnUse">
<stop stop-color="#00BA2E"/>
<stop offset="0.58" stop-color="#02A96D"/>
<stop offset="1" stop-color="#049E95"/>
</linearGradient>
<linearGradient id="paint30_linear_3426_10366" x1="-106.011" y1="58.0667" x2="637.057" y2="58.0667" gradientUnits="userSpaceOnUse">
<stop stop-color="#00BA2E"/>
<stop offset="0.58" stop-color="#02A96D"/>
<stop offset="1" stop-color="#049E95"/>
</linearGradient>
<linearGradient id="paint31_linear_3426_10366" x1="-104.805" y1="58.0683" x2="621.376" y2="58.0683" gradientUnits="userSpaceOnUse">
<stop stop-color="#00BA2E"/>
<stop offset="0.58" stop-color="#02A96D"/>
<stop offset="1" stop-color="#049E95"/>
</linearGradient>
<linearGradient id="paint32_linear_3426_10366" x1="-103.6" y1="58.0673" x2="605.693" y2="58.0673" gradientUnits="userSpaceOnUse">
<stop stop-color="#00BA2E"/>
<stop offset="0.58" stop-color="#02A96D"/>
<stop offset="1" stop-color="#049E95"/>
</linearGradient>
<linearGradient id="paint33_linear_3426_10366" x1="-102.393" y1="58.0679" x2="590.013" y2="58.0679" gradientUnits="userSpaceOnUse">
<stop stop-color="#00BA2E"/>
<stop offset="0.58" stop-color="#02A96D"/>
<stop offset="1" stop-color="#049E95"/>
</linearGradient>
<linearGradient id="paint34_linear_3426_10366" x1="-101.187" y1="58.0699" x2="574.336" y2="58.0699" gradientUnits="userSpaceOnUse">
<stop stop-color="#00BA2E"/>
<stop offset="0.58" stop-color="#02A96D"/>
<stop offset="1" stop-color="#049E95"/>
</linearGradient>
<linearGradient id="paint35_linear_3426_10366" x1="-99.9808" y1="58.0674" x2="558.654" y2="58.0674" gradientUnits="userSpaceOnUse">
<stop stop-color="#00BA2E"/>
<stop offset="0.58" stop-color="#02A96D"/>
<stop offset="1" stop-color="#049E95"/>
</linearGradient>
<linearGradient id="paint36_linear_3426_10366" x1="-98.7757" y1="58.0708" x2="542.972" y2="58.0707" gradientUnits="userSpaceOnUse">
<stop stop-color="#00BA2E"/>
<stop offset="0.58" stop-color="#02A96D"/>
<stop offset="1" stop-color="#049E95"/>
</linearGradient>
<linearGradient id="paint37_linear_3426_10366" x1="-97.5707" y1="58.0671" x2="527.289" y2="58.0671" gradientUnits="userSpaceOnUse">
<stop stop-color="#00BA2E"/>
<stop offset="0.58" stop-color="#02A96D"/>
<stop offset="1" stop-color="#049E95"/>
</linearGradient>
<linearGradient id="paint38_linear_3426_10366" x1="-96.3631" y1="58.0667" x2="511.608" y2="58.0667" gradientUnits="userSpaceOnUse">
<stop stop-color="#00BA2E"/>
<stop offset="0.58" stop-color="#02A96D"/>
<stop offset="1" stop-color="#049E95"/>
</linearGradient>
<linearGradient id="paint39_linear_3426_10366" x1="-95.1585" y1="58.0702" x2="495.925" y2="58.0701" gradientUnits="userSpaceOnUse">
<stop stop-color="#00BA2E"/>
<stop offset="0.58" stop-color="#02A96D"/>
<stop offset="1" stop-color="#049E95"/>
</linearGradient>
<linearGradient id="paint40_linear_3426_10366" x1="-93.9516" y1="58.0693" x2="480.25" y2="58.0693" gradientUnits="userSpaceOnUse">
<stop stop-color="#00BA2E"/>
<stop offset="0.58" stop-color="#02A96D"/>
<stop offset="1" stop-color="#049E95"/>
</linearGradient>
<linearGradient id="paint41_linear_3426_10366" x1="-92.7465" y1="58.0697" x2="464.567" y2="58.0697" gradientUnits="userSpaceOnUse">
<stop stop-color="#00BA2E"/>
<stop offset="0.58" stop-color="#02A96D"/>
<stop offset="1" stop-color="#049E95"/>
</linearGradient>
<linearGradient id="paint42_linear_3426_10366" x1="-91.5409" y1="58.0694" x2="448.885" y2="58.0694" gradientUnits="userSpaceOnUse">
<stop stop-color="#00BA2E"/>
<stop offset="0.58" stop-color="#02A96D"/>
<stop offset="1" stop-color="#049E95"/>
</linearGradient>
<linearGradient id="paint43_linear_3426_10366" x1="-90.3344" y1="58.0693" x2="433.204" y2="58.0693" gradientUnits="userSpaceOnUse">
<stop stop-color="#00BA2E"/>
<stop offset="0.58" stop-color="#02A96D"/>
<stop offset="1" stop-color="#049E95"/>
</linearGradient>
<linearGradient id="paint44_linear_3426_10366" x1="-89.124" y1="58.0674" x2="417.521" y2="58.0673" gradientUnits="userSpaceOnUse">
<stop stop-color="#00BA2E"/>
<stop offset="0.58" stop-color="#02A96D"/>
<stop offset="1" stop-color="#049E95"/>
</linearGradient>
<linearGradient id="paint45_linear_3426_10366" x1="-87.9171" y1="58.0689" x2="401.845" y2="58.0689" gradientUnits="userSpaceOnUse">
<stop stop-color="#00BA2E"/>
<stop offset="0.58" stop-color="#02A96D"/>
<stop offset="1" stop-color="#049E95"/>
</linearGradient>
<linearGradient id="paint46_linear_3426_10366" x1="-86.7114" y1="58.068" x2="386.163" y2="58.068" gradientUnits="userSpaceOnUse">
<stop stop-color="#00BA2E"/>
<stop offset="0.58" stop-color="#02A96D"/>
<stop offset="1" stop-color="#049E95"/>
</linearGradient>
<linearGradient id="paint47_linear_3426_10366" x1="-85.5063" y1="58.0668" x2="370.481" y2="58.0668" gradientUnits="userSpaceOnUse">
<stop stop-color="#00BA2E"/>
<stop offset="0.58" stop-color="#02A96D"/>
<stop offset="1" stop-color="#049E95"/>
</linearGradient>
<linearGradient id="paint48_linear_3426_10366" x1="-84.2993" y1="58.0689" x2="354.8" y2="58.0689" gradientUnits="userSpaceOnUse">
<stop stop-color="#00BA2E"/>
<stop offset="0.58" stop-color="#02A96D"/>
<stop offset="1" stop-color="#049E95"/>
</linearGradient>
<linearGradient id="paint49_linear_3426_10366" x1="-83.0942" y1="58.0699" x2="339.117" y2="58.0699" gradientUnits="userSpaceOnUse">
<stop stop-color="#00BA2E"/>
<stop offset="0.58" stop-color="#02A96D"/>
<stop offset="1" stop-color="#049E95"/>
</linearGradient>
<linearGradient id="paint50_linear_3426_10366" x1="-81.8872" y1="58.0685" x2="323.436" y2="58.0685" gradientUnits="userSpaceOnUse">
<stop stop-color="#00BA2E"/>
<stop offset="0.58" stop-color="#02A96D"/>
<stop offset="1" stop-color="#049E95"/>
</linearGradient>
<linearGradient id="paint51_linear_3426_10366" x1="-80.6821" y1="58.0694" x2="307.759" y2="58.0694" gradientUnits="userSpaceOnUse">
<stop stop-color="#00BA2E"/>
<stop offset="0.58" stop-color="#02A96D"/>
<stop offset="1" stop-color="#049E95"/>
</linearGradient>
<linearGradient id="paint52_linear_3426_10366" x1="-77.065" y1="58.0686" x2="294.488" y2="58.0686" gradientUnits="userSpaceOnUse">
<stop stop-color="#00BA2E"/>
<stop offset="0.58" stop-color="#02A96D"/>
<stop offset="1" stop-color="#049E95"/>
</linearGradient>
<linearGradient id="paint53_linear_3426_10366" x1="-73.4459" y1="58.0679" x2="281.219" y2="58.0678" gradientUnits="userSpaceOnUse">
<stop stop-color="#00BA2E"/>
<stop offset="0.58" stop-color="#02A96D"/>
<stop offset="1" stop-color="#049E95"/>
</linearGradient>
<linearGradient id="paint54_linear_3426_10366" x1="-69.8286" y1="58.0671" x2="267.954" y2="58.0671" gradientUnits="userSpaceOnUse">
<stop stop-color="#00BA2E"/>
<stop offset="0.58" stop-color="#02A96D"/>
<stop offset="1" stop-color="#049E95"/>
</linearGradient>
<linearGradient id="paint55_linear_3426_10366" x1="-63.7949" y1="58.0674" x2="257.095" y2="58.0674" gradientUnits="userSpaceOnUse">
<stop stop-color="#00BA2E"/>
<stop offset="0.58" stop-color="#02A96D"/>
<stop offset="1" stop-color="#049E95"/>
</linearGradient>
</defs>
</svg>
