<svg width="13" height="13" viewBox="0 0 13 13" fill="none" xmlns="http://www.w3.org/2000/svg">
<path d="M0 11.1674C0 11.58 0.163921 11.9757 0.455644 12.2676C0.74754 12.5593 1.14329 12.7232 1.55586 12.7232H10.891C11.3036 12.7232 11.6993 12.5593 11.9912 12.2676C12.2829 11.9757 12.4468 11.5799 12.4468 11.1674V8.57434C12.4468 8.28783 12.2147 8.05566 11.9282 8.05566C11.6418 8.05566 11.4097 8.28783 11.4097 8.57434V11.1674C11.4097 11.3049 11.355 11.4369 11.2577 11.5341C11.1605 11.6314 11.0285 11.6861 10.891 11.6861H1.55586C1.26952 11.6861 1.03718 11.4537 1.03718 11.1674V8.57434C1.03718 8.28783 0.805013 8.05566 0.518678 8.05566C0.232165 8.05566 0 8.28783 0 8.57434V11.1674Z" fill="#F12A23"/>
<path d="M2.92044 6.09029L5.80917 8.97902V8.97885C5.90572 9.0747 6.03613 9.1287 6.17209 9.12922C6.30997 9.13009 6.44246 9.07591 6.54039 8.97885L6.57669 8.93735L9.41875 6.09529C9.51685 5.99804 9.57207 5.86538 9.57207 5.72716C9.57207 5.58894 9.51685 5.45627 9.41875 5.35886C9.21645 5.15778 8.88984 5.15778 8.68754 5.35886L6.74272 7.31408V0.795045C6.74272 0.657516 6.68802 0.525549 6.59078 0.428308C6.49354 0.331067 6.36157 0.276367 6.22404 0.276367C5.9377 0.276367 5.70536 0.508532 5.70536 0.795045V7.40743L3.65688 5.3329C3.45458 5.13182 3.12798 5.13182 2.92567 5.3329C2.82027 5.43031 2.75984 5.56697 2.7588 5.7104C2.75793 5.85383 2.81645 5.99136 2.92046 6.09016L2.92044 6.09029Z" fill="#F12A23"/>
</svg>
