<svg width="171" height="58" viewBox="0 0 171 58" fill="none" xmlns="http://www.w3.org/2000/svg">
<path d="M6.94651 0H164.053C167.886 0 171 3.11435 171 6.94651V50.9411C171 54.7733 167.886 57.8876 164.053 57.8876H6.94651C3.11435 57.8876 0 54.7733 0 50.9411V6.94651C0 3.11435 3.11435 0 6.94651 0Z" fill="black"/>
<path d="M82.8595 26.4096C80.0502 26.4096 77.7668 28.5429 77.7668 31.4874C77.7668 34.4169 80.0502 36.5652 82.8595 36.5652C85.6688 36.5652 87.9524 34.4169 87.9524 31.4874C87.9524 28.5579 85.6688 26.4096 82.8595 26.4096ZM82.8595 34.5671C81.3272 34.5671 79.9902 33.2902 79.9902 31.4874C79.9902 29.6546 81.3122 28.4077 82.8595 28.4077C84.4069 28.4077 85.7289 29.6546 85.7289 31.4874C85.7139 33.2902 84.3919 34.5671 82.8595 34.5671ZM96.5004 27.5514H96.4253C95.9296 26.9504 94.9681 26.4096 93.7512 26.4096C91.2123 26.4096 88.8838 28.648 88.8838 31.5024C88.8838 34.3418 91.2123 36.5652 93.7512 36.5652C94.9681 36.5652 95.9296 36.0243 96.4253 35.4084H96.5004V36.1445C96.5004 38.0825 95.4639 39.1191 93.7963 39.1191C92.4292 39.1191 91.5879 38.1426 91.2424 37.3163L89.3044 38.1276C89.8603 39.4796 91.3475 41.1322 93.8113 41.1322C96.4253 41.1322 98.6337 39.5998 98.6337 35.8441V26.7251H96.5155L96.5004 27.5514ZM93.9465 34.5671C92.4142 34.5671 91.1222 33.2751 91.1222 31.5024C91.1222 29.7147 92.4142 28.4077 93.9465 28.4077C95.4639 28.4077 96.6507 29.7147 96.6507 31.5024C96.6507 33.2902 95.4639 34.5671 93.9465 34.5671ZM71.7425 26.4096C68.9332 26.4096 66.6497 28.5429 66.6497 31.4874C66.6497 34.4169 68.9332 36.5652 71.7425 36.5652C74.5518 36.5652 76.8353 34.4169 76.8353 31.4874C76.8353 28.5579 74.5518 26.4096 71.7425 26.4096ZM71.7425 34.5671C70.2102 34.5671 68.8731 33.2902 68.8731 31.4874C68.8731 29.6546 70.1952 28.4077 71.7425 28.4077C73.2749 28.4077 74.6119 29.6546 74.6119 31.4874C74.5969 33.2902 73.2749 34.5671 71.7425 34.5671ZM58.5073 27.957V30.1053H63.6601C63.5099 31.3221 63.1043 32.2085 62.4884 32.8244C61.7372 33.5756 60.5654 34.4019 58.5073 34.4019C55.3374 34.4019 52.8586 31.8479 52.8586 28.6781C52.8586 25.5082 55.3374 22.9543 58.5073 22.9543C60.2199 22.9543 61.4668 23.6304 62.3982 24.4867L63.9155 22.9694C62.6236 21.7375 60.9109 20.791 58.5073 20.791C54.1656 20.791 50.5 24.3364 50.5 28.6781C50.5 33.0197 54.1506 36.5652 58.5073 36.5652C60.8508 36.5652 62.6236 35.799 64.0057 34.3568C65.4329 32.9296 65.8685 30.9315 65.8685 29.3241C65.8685 28.8283 65.8235 28.3626 65.7484 27.972L58.5073 27.957ZM112.59 29.6546C112.169 28.5128 110.877 26.4246 108.248 26.4246C105.634 26.4246 103.456 28.4828 103.456 31.5024C103.456 34.3418 105.604 36.5802 108.489 36.5802C110.817 36.5802 112.169 35.153 112.725 34.3267L110.998 33.17C110.427 34.0113 109.631 34.5671 108.504 34.5671C107.377 34.5671 106.566 34.0413 106.04 33.0348L112.83 30.2255L112.59 29.6546ZM105.679 31.3372C105.619 29.3692 107.197 28.3776 108.339 28.3776C109.225 28.3776 109.976 28.8133 110.216 29.4593L105.679 31.3372ZM100.151 36.2647H102.374V21.3469H100.151V36.2647ZM123.046 21.3469H117.713V36.2647H119.936V30.6161H123.046C125.51 30.6161 127.944 28.8283 127.944 25.974C127.944 23.1346 125.51 21.3469 123.046 21.3469ZM123.106 28.5128H119.936V23.405H123.106C124.774 23.405 125.72 24.7871 125.72 25.9589C125.72 27.1307 124.774 28.5128 123.106 28.5128ZM129.175 36.2647H131.399V21.3469H129.175V36.2647ZM136.867 26.3796C135.26 26.3796 133.577 27.0857 132.886 28.6631L134.869 29.4893C135.29 28.6631 136.071 28.3927 136.897 28.3927C138.054 28.3927 139.226 29.0837 139.241 30.3156V30.4658C138.835 30.2405 137.979 29.895 136.912 29.895C134.779 29.895 132.616 31.0667 132.616 33.2601C132.616 35.2582 134.358 36.5351 136.326 36.5351C137.829 36.5351 138.655 35.8591 139.166 35.0779H139.241V36.2347H141.389V30.5109C141.404 27.8669 139.421 26.3796 136.867 26.3796ZM136.597 34.5671C135.861 34.5671 134.854 34.2066 134.854 33.3052C134.854 32.1484 136.116 31.7127 137.213 31.7127C138.189 31.7127 138.655 31.9231 139.241 32.2085C139.076 33.5906 137.889 34.5671 136.597 34.5671ZM149.231 26.7101L146.677 33.185H146.602L143.958 26.7101H141.554L145.521 35.7539L143.252 40.8017H145.581L151.71 26.7251H149.231V26.7101Z" fill="white"/>
<path d="M20.0471 16.2386C19.7467 16.5541 19.5664 17.0498 19.5664 17.6808V40.4106C19.5664 41.0416 19.7467 41.5373 20.0471 41.8528L20.1223 41.9279L32.8618 29.1884V28.8879L20.1223 16.1484L20.0471 16.2386Z" fill="url(#paint0_linear_986_4482)"/>
<path d="M37.0998 33.4402L32.8633 29.1887V28.8882L37.1148 24.6367L37.2049 24.6968L42.2376 27.5512C43.6798 28.3624 43.6798 29.6995 42.2376 30.5257L37.2049 33.3801L37.0998 33.4402Z" fill="url(#paint1_linear_986_4482)"/>
<path d="M37.2031 33.3768L32.8615 29.0352L20.0469 41.8498C20.5126 42.3455 21.3088 42.4207 22.1801 41.9099L37.2031 33.3768Z" fill="url(#paint2_linear_986_4482)"/>
<path d="M37.2031 24.7102L22.1801 16.1771C21.2938 15.6814 20.5126 15.7415 20.0469 16.2372L32.8615 29.0518L37.2031 24.7102Z" fill="url(#paint3_linear_986_4482)"/>
<path opacity="0.2" d="M37.098 33.2891L22.1801 41.762C21.3389 42.2428 20.6027 42.2127 20.122 41.7771L20.0469 41.8522L20.122 41.9273C20.6027 42.363 21.3539 42.393 22.1801 41.9123L37.2031 33.3792L37.098 33.2891Z" fill="white"/>
<path opacity="0.12" d="M20.0471 41.6995C19.7467 41.3841 19.5664 40.8883 19.5664 40.2573V40.4076C19.5664 41.0385 19.7467 41.5343 20.0471 41.8498L20.1223 41.7747L20.0471 41.6995ZM42.2211 30.3722L37.0983 33.2867L37.1884 33.3768L42.2211 30.5224C42.9422 30.1168 43.3028 29.576 43.3028 29.0352C43.2427 29.5309 42.8821 29.9966 42.2211 30.3722Z" fill="white"/>
<path opacity="0.25" d="M22.1804 16.312L42.2211 27.6994C42.8671 28.075 43.2427 28.5407 43.3028 29.0365C43.3028 28.4956 42.9422 27.9548 42.2211 27.5492L22.1804 16.1618C20.7382 15.3505 19.5664 16.0265 19.5664 17.6641V17.8143C19.5664 16.1768 20.7382 15.5007 22.1804 16.312Z" fill="white"/>
<defs>
<linearGradient id="paint0_linear_986_4482" x1="31.7194" y1="17.4335" x2="14.4674" y2="34.6855" gradientUnits="userSpaceOnUse">
<stop stop-color="#00A0FF"/>
<stop offset="0.007" stop-color="#00A1FF"/>
<stop offset="0.26" stop-color="#00BEFF"/>
<stop offset="0.512" stop-color="#00D2FF"/>
<stop offset="0.76" stop-color="#00DFFF"/>
<stop offset="1" stop-color="#00E3FF"/>
</linearGradient>
<linearGradient id="paint1_linear_986_4482" x1="44.0972" y1="29.046" x2="19.2234" y2="29.046" gradientUnits="userSpaceOnUse">
<stop stop-color="#FFE000"/>
<stop offset="0.409" stop-color="#FFBD00"/>
<stop offset="0.775" stop-color="#FFA500"/>
<stop offset="1" stop-color="#FF9C00"/>
</linearGradient>
<linearGradient id="paint2_linear_986_4482" x1="34.8399" y1="31.4059" x2="11.445" y2="54.8008" gradientUnits="userSpaceOnUse">
<stop stop-color="#FF3A44"/>
<stop offset="1" stop-color="#C31162"/>
</linearGradient>
<linearGradient id="paint3_linear_986_4482" x1="16.8199" y1="8.66111" x2="27.2668" y2="19.108" gradientUnits="userSpaceOnUse">
<stop stop-color="#32A071"/>
<stop offset="0.069" stop-color="#2DA771"/>
<stop offset="0.476" stop-color="#15CF74"/>
<stop offset="0.801" stop-color="#06E775"/>
<stop offset="1" stop-color="#00F076"/>
</linearGradient>
</defs>
</svg>
