<svg width="29" height="27" viewBox="0 0 29 27" fill="none" xmlns="http://www.w3.org/2000/svg">
<path d="M0 3.13636C0 2.22725 0.31847 1.47725 0.955383 0.886364C1.5923 0.295445 2.42031 0 3.43938 0C4.44027 0 5.25005 0.290891 5.86878 0.872727C6.5057 1.47273 6.82417 2.25453 6.82417 3.21818C6.82417 4.09091 6.51481 4.81816 5.89608 5.4C5.25917 6 4.42206 6.3 3.38479 6.3H3.35749C2.3566 6.3 1.54682 6 0.928087 5.4C0.309353 4.8 0 4.04545 0 3.13636ZM0.354857 27V8.78182H6.41472V27H0.354857ZM9.77221 27H15.8321V16.8273C15.8321 16.1909 15.9049 15.7 16.0504 15.3545C16.3052 14.7364 16.6919 14.2136 17.2105 13.7864C17.7292 13.3591 18.3797 13.1455 19.1623 13.1455C21.2004 13.1455 22.2195 14.5182 22.2195 17.2636V27H28.2793V16.5545C28.2793 13.8636 27.6424 11.8227 26.3686 10.4318C25.0947 9.04091 23.4115 8.34545 21.3187 8.34545C18.9712 8.34545 17.1423 9.35455 15.8321 11.3727V11.4273H15.8048L15.8321 11.3727V8.78182H9.77221C9.80859 9.36363 9.8268 11.1727 9.8268 14.2091C9.8268 17.2454 9.80859 21.5091 9.77221 27Z" fill="black"/>
<path d="M0 3.13636C0 2.22725 0.31847 1.47725 0.955383 0.886364C1.5923 0.295445 2.42031 0 3.43938 0C4.44027 0 5.25005 0.290891 5.86878 0.872727C6.5057 1.47273 6.82417 2.25453 6.82417 3.21818C6.82417 4.09091 6.51481 4.81816 5.89608 5.4C5.25917 6 4.42206 6.3 3.38479 6.3H3.35749C2.3566 6.3 1.54682 6 0.928087 5.4C0.309353 4.8 0 4.04545 0 3.13636ZM0.354857 27V8.78182H6.41472V27H0.354857ZM9.77221 27H15.8321V16.8273C15.8321 16.1909 15.9049 15.7 16.0504 15.3545C16.3052 14.7364 16.6919 14.2136 17.2105 13.7864C17.7292 13.3591 18.3797 13.1455 19.1623 13.1455C21.2004 13.1455 22.2195 14.5182 22.2195 17.2636V27H28.2793V16.5545C28.2793 13.8636 27.6424 11.8227 26.3686 10.4318C25.0947 9.04091 23.4115 8.34545 21.3187 8.34545C18.9712 8.34545 17.1423 9.35455 15.8321 11.3727V11.4273H15.8048L15.8321 11.3727V8.78182H9.77221C9.80859 9.36363 9.8268 11.1727 9.8268 14.2091C9.8268 17.2454 9.80859 21.5091 9.77221 27Z" fill="url(#paint0_linear_3373_2166)"/>
<defs>
<linearGradient id="paint0_linear_3373_2166" x1="4.1414" y1="3.95405" x2="23.2129" y2="23.9291" gradientUnits="userSpaceOnUse">
<stop stop-color="#2489BE"/>
<stop offset="1" stop-color="#0575B3"/>
</linearGradient>
</defs>
</svg>
