<svg width="15" height="19" viewBox="0 0 15 19" fill="none" xmlns="http://www.w3.org/2000/svg">
<path d="M14.4522 6.09812L14.4553 6.09535L14.5093 6.2252C14.6021 6.44806 14.5016 6.70756 14.2799 6.80397M14.4522 6.09812L7.40051 18.5098M14.4522 6.09812C14.1955 5.5651 13.8159 5.26706 13.3879 5.09615C12.9808 4.93353 12.5309 4.88675 12.1123 4.85412M14.4522 6.09812L12.1123 4.85412M14.2799 6.80397C14.2245 6.82823 14.1665 6.8399 14.1091 6.8399C13.9392 6.8399 13.7786 6.73824 13.7088 6.57028M14.2799 6.80397C14.2799 6.80398 14.2799 6.804 14.2798 6.80401L14.24 6.7123M14.2799 6.80397C14.28 6.80395 14.28 6.80392 14.2801 6.8039L14.24 6.7123M13.7088 6.57028L13.8011 6.53187M13.7088 6.57028C13.7088 6.57029 13.7088 6.5703 13.7088 6.57032L13.8011 6.53187M13.7088 6.57028C13.5626 6.21925 13.3519 6.03051 13.0648 5.91688C12.769 5.79981 12.3903 5.76146 11.9035 5.72509L11.9035 5.72508L11.8966 5.72457C11.4396 5.69033 10.9545 5.65398 10.5099 5.48599C10.5017 5.50063 10.4932 5.51507 10.4844 5.52932C11.6425 6.64959 12.547 7.91377 13.1125 9.21042L13.1125 9.21043C13.828 10.8517 13.9981 12.4946 13.6136 14.0908C13.225 15.7042 12.5063 16.8568 11.4094 17.5995C10.4112 18.2754 9.09639 18.6025 7.40094 18.6098M13.8011 6.53187C13.8552 6.66202 13.979 6.7399 14.1091 6.7399C14.1529 6.7399 14.1973 6.73101 14.24 6.7123M13.8011 6.53187L14.24 6.7123M7.40094 18.6098L7.40051 18.5098M7.40094 18.6098L7.40122 18.6098L7.40051 18.5098M7.40094 18.6098L7.3443 18.61C5.55599 18.61 4.15261 18.2394 3.10988 17.4595C2.06587 16.6786 1.39642 15.4972 1.05727 13.9023L1.15508 13.8815C1.82631 17.038 3.7933 18.51 7.3443 18.51L7.40051 18.5098M12.1123 4.85412C12.5767 4.58858 12.9121 4.23278 13.2175 3.90876L13.22 3.90608C13.22 3.90607 13.22 3.90606 13.22 3.90606C13.22 3.90605 13.22 3.90605 13.22 3.90604C13.4129 3.70156 13.5898 3.51414 13.7902 3.34972L13.7902 3.34969C13.9767 3.19654 14.0056 2.91933 13.8565 2.72978L13.8565 2.72978C13.7062 2.53887 13.4316 2.50785 13.244 2.66209C13.244 2.6621 13.244 2.6621 13.244 2.66211L13.3075 2.73936M12.1123 4.85412L10.6168 1.46692C10.9217 1.7472 11.0119 2.19142 10.8427 2.57181L10.8427 2.57183L10.1858 4.04733C10.3097 4.13389 10.4157 4.24685 10.4953 4.38003C11.035 4.37172 11.4169 4.24783 11.7287 4.06009C12.055 3.86363 12.3096 3.59473 12.5929 3.29432C12.5929 3.2943 12.593 3.29429 12.593 3.29428L12.6657 3.36289M13.3075 2.73936C13.0685 2.9357 12.8635 3.15289 12.6657 3.36289M13.3075 2.73936C13.4514 2.62102 13.662 2.64437 13.7779 2.79163L13.3075 2.73936ZM12.6657 3.36289C12.1022 3.96043 11.611 4.48048 10.4369 4.48048L12.6657 3.36289ZM7.20278 1.31738C7.23158 1.34694 7.26262 1.37485 7.29423 1.39461C7.32616 1.41457 7.35153 1.42175 7.37111 1.42098L7.37506 1.52088L7.37111 1.42098C7.38703 1.42035 7.4052 1.4137 7.42967 1.39512C7.45235 1.37789 7.47296 1.35658 7.4986 1.33006C7.50257 1.32595 7.50667 1.32171 7.51091 1.31735L7.51096 1.31729L7.51572 1.3124C7.68645 1.13696 7.95215 0.86393 8.39871 0.90403L8.39871 0.904031C8.83306 0.943065 9.02994 1.22626 9.15698 1.40902L9.15978 1.41304L7.20278 1.31738ZM7.20278 1.31738L7.19765 1.31212C7.02689 1.13662 6.76118 0.863549 6.31503 0.90403L7.20278 1.31738ZM5.46389 1.49728L5.46396 1.49728C5.47815 1.49664 5.48785 1.49231 5.49996 1.48143C5.51571 1.4673 5.53023 1.44704 5.55379 1.41314L5.55637 1.40942C5.68347 1.22649 5.88026 0.943271 6.31497 0.904036L5.46389 1.49728ZM5.46389 1.49728C5.44629 1.49808 5.43133 1.49206 5.38487 1.46382L5.38484 1.46381M5.46389 1.49728L5.38484 1.46381M5.38484 1.46381L5.37984 1.46077C5.24943 1.38155 5.05871 1.2657 4.83858 1.22764C4.60763 1.1877 4.35029 1.23399 4.09712 1.46678C3.79216 1.74719 3.70211 2.19128 3.87119 2.57165L3.87121 2.5717M5.38484 1.46381L3.87121 2.5717M3.87121 2.5717L4.5281 4.04721C4.30693 4.20177 4.14204 4.44033 4.08452 4.7286M3.87121 2.5717L4.08452 4.7286M4.08452 4.7286C4.02727 5.01552 4.08677 5.29944 4.22938 5.52913C3.09713 6.62465 2.20539 7.8598 1.63834 9.12618L1.72961 9.16704L4.08452 4.7286ZM4.67647 2.12529C4.65358 2.14827 4.64854 2.17557 4.66262 2.20727L5.41232 3.89141C6.63535 4.13802 8.07848 4.13802 9.30065 3.89142L10.0504 2.20723L4.67647 2.12529ZM4.67647 2.12529L4.67972 2.1223C4.69879 2.10475 4.72415 2.0974 4.78707 2.12674C4.81752 2.14095 4.84946 2.16083 4.88327 2.18344C4.89215 2.18939 4.9016 2.19583 4.91129 2.20243C4.93522 2.21876 4.9606 2.23607 4.98251 2.24926L4.67647 2.12529ZM6.39138 1.78442L6.39131 1.78443C6.37357 1.78598 6.35017 1.79815 6.31648 1.84072C6.30047 1.86096 6.28512 1.88422 6.26858 1.91024C6.26578 1.91465 6.26289 1.91923 6.25993 1.92392C6.24658 1.94505 6.23186 1.96837 6.21733 1.98872C6.21732 1.98874 6.2173 1.98875 6.21729 1.98877L6.13592 1.93064L6.39138 1.78442ZM6.39138 1.78442C6.41632 1.78221 6.45372 1.79746 6.51065 1.8522C6.53689 1.87743 6.56242 1.90621 6.58891 1.93655C6.59134 1.93933 6.59379 1.94215 6.59626 1.94498C6.61936 1.9715 6.64438 2.00021 6.66822 2.02355M6.39138 1.78442L6.66822 2.02355M6.66822 2.02355C7.05395 2.40169 7.6593 2.40173 8.0448 2.02352M6.66822 2.02355L8.0448 2.02352M8.0448 2.02352C8.06559 2.00315 8.09012 1.97608 8.11387 1.94989C8.12568 1.93686 8.13729 1.92405 8.14815 1.91239C8.18434 1.87352 8.2191 1.83932 8.25266 1.81515C8.28719 1.79028 8.30978 1.78386 8.32272 1.78395L8.0448 2.02352ZM8.49592 1.98918C8.47771 1.96377 8.46223 1.9408 8.44769 1.91922C8.42392 1.88395 8.40266 1.8524 8.37612 1.8201L8.49592 1.98918ZM8.49592 1.98918C8.49588 1.98911 8.49584 1.98905 8.49579 1.98899L8.5772 1.93091L8.49592 1.98918ZM8.49592 1.98918C8.78094 2.38848 9.3124 2.50158 9.73061 2.24952L9.73087 2.24937M8.49592 1.98918L9.73087 2.24937M9.73087 2.24937C9.75602 2.23411 9.78264 2.21529 9.80676 2.19823M9.73087 2.24937L9.80676 2.19823M9.23502 13.0058V13.1927C9.23502 14.0248 8.61806 14.7168 7.79975 14.9028L7.80828 15.2634L7.80828 15.2634C7.81394 15.5054 7.62621 15.7098 7.38436 15.7159L7.38185 15.7159V15.7159L7.38158 15.7159L7.38014 15.7159L7.37354 15.716C7.1363 15.716 6.94483 15.523 6.9392 15.2847M9.23502 13.0058L7.03917 15.2824M9.23502 13.0058L9.22523 13.0124M9.23502 13.0058L9.22523 13.0124M6.9392 15.2847L7.03917 15.2824M6.9392 15.2847L6.9392 15.2848L7.03917 15.2824M6.9392 15.2847L6.93023 14.9101M7.03917 15.2824L7.02827 14.8266M6.93023 14.9101C6.957 14.9157 6.98429 14.9208 7.01212 14.9253L7.02827 14.8266M6.93023 14.9101L6.9283 14.829L7.02827 14.8266M6.93023 14.9101L7.02827 14.8266M9.22523 13.0124C9.12833 12.1215 8.32149 11.4332 7.35691 11.4328H7.35687C6.78802 11.4328 6.34766 11.0282 6.34766 10.557C6.34766 10.0858 6.78787 9.6813 7.35652 9.68126C7.63666 9.6815 7.89556 9.77942 8.08728 9.9543C8.26673 10.118 8.54256 10.1018 8.70236 9.91888L8.62705 9.8531L8.70237 9.91887C8.86103 9.73719 8.84592 9.45903 8.6677 9.29644L8.6677 9.29643C8.41888 9.06948 8.11422 8.91462 7.7838 8.843L7.77386 8.41661L7.77386 8.41653C7.76804 8.17512 7.57196 7.97858 7.32863 7.98531C7.32868 7.98531 7.32874 7.98531 7.32879 7.98531L9.22523 13.0124ZM6.90487 8.43774C6.90487 8.43773 6.90487 8.43773 6.90487 8.43772L6.90487 8.43774ZM6.90487 8.43774L6.91436 8.84663C6.09563 9.03247 5.47814 9.72475 5.47814 10.557C5.47814 11.5338 6.3272 12.3167 7.35652 12.3167C7.92535 12.3167 8.36572 12.7215 8.36572 13.1925C8.36572 13.6637 7.92524 14.0682 7.35652 14.0682C7.159 14.0682 7.0173 14.0357 6.8854 13.9679C6.75041 13.8984 6.61962 13.789 6.44758 13.6231C6.27273 13.4545 5.99644 13.463 5.83171 13.6413C5.66807 13.8185 5.67579 14.0971 5.84949 14.2646C5.8495 14.2646 5.84952 14.2646 5.84953 14.2646L5.91893 14.1926L6.90487 8.43774ZM9.24054 1.48707C9.25494 1.49142 9.28084 1.49321 9.32902 1.46396L9.24054 1.48707ZM9.24054 1.48707C9.22205 1.48149 9.19475 1.4632 9.15984 1.41313L9.24054 1.48707ZM9.80676 2.19823C9.81066 2.19548 9.81449 2.19277 9.81823 2.19013M9.80676 2.19823L9.81823 2.19013M9.81823 2.19013C9.8469 2.16994 9.87345 2.15178 9.89965 2.13705M9.81823 2.19013L9.89965 2.13705M9.89965 2.13705C9.95462 2.10615 9.98725 2.1023 10.0102 2.11022M9.89965 2.13705L10.0102 2.11022M10.0102 2.11022L10.0428 2.0157M10.0102 2.11022L10.0428 2.0157M10.0428 2.0157L10.0101 2.11018C10.0485 2.12349 10.0685 2.16641 10.0504 2.20719L10.0428 2.0157ZM10.6168 1.4669C10.3636 1.23413 10.1063 1.18781 9.87533 1.22773C9.65495 1.26581 9.46408 1.38186 9.33363 1.46116L9.32908 1.46393L10.6168 1.4669ZM9.73584 6.02701C12.2874 8.41416 13.3822 11.2458 12.7807 13.8325L12.7693 13.8801C12.4435 15.2324 11.8798 16.1851 11.017 16.8038C10.1524 17.4238 8.97346 17.7187 7.39695 17.7256L7.36996 17.7257L7.34326 17.7257C5.74225 17.7257 4.53307 17.4121 3.65147 16.7605C2.77147 16.1101 2.20398 15.1126 1.90683 13.7154C1.36432 11.1645 2.47098 8.37284 4.978 6.02701C5.73683 6.18204 6.54725 6.25927 7.35712 6.25927C8.16699 6.25927 8.9774 6.18191 9.73584 6.02701Z" fill="#9A9A9A" stroke="#9A9A9A" stroke-width="0.2"/>
</svg>
