<svg width="15" height="16" viewBox="0 0 15 16" fill="none" xmlns="http://www.w3.org/2000/svg">
<path d="M13.9504 4.34803C13.8086 3.84049 13.4745 3.40838 13.019 3.14354C12.6633 2.9352 12.25 2.84715 11.8404 2.8923L11.2505 0.822779C11.1435 0.442255 10.8447 0.145897 10.4635 0.0417031C10.0879 -0.0640089 9.68458 0.0344127 9.39982 0.301078C7.21997 2.3361 5.29847 3.50036 3.35314 3.96383C3.35089 3.96383 3.34935 3.96607 3.34711 3.96664C3.34486 3.9672 3.34234 3.96664 3.33982 3.96664L1.48439 4.4945L1.48453 4.49464C0.954555 4.65517 0.51 5.01941 0.248241 5.50732C-0.0135171 5.99538 -0.0708579 6.56724 0.0885517 7.09751L0.720426 9.31691C0.870443 9.85331 1.22363 10.3101 1.70494 10.5903C2.17953 10.8702 2.74802 10.943 3.27771 10.7917L3.85998 10.6258L4.80943 13.958C4.90098 14.2791 5.0946 14.5616 5.36098 14.7631C5.62722 14.9644 5.95194 15.0737 6.28576 15.0745C6.42891 15.0743 6.57136 15.0543 6.70918 15.0151C7.10105 14.9031 7.43247 14.6403 7.63074 14.2841C7.82912 13.928 7.87805 13.5078 7.76687 13.1157L6.85332 9.90883C8.64834 9.7382 10.459 9.83985 12.2234 10.2101C12.6076 10.282 13.0017 10.1505 13.2656 9.86214C13.5294 9.57389 13.6257 9.16968 13.5202 8.79339L12.9235 6.69609C13.3439 6.48859 13.6776 6.13905 13.8655 5.7095C14.0534 5.27977 14.0835 4.79763 13.9503 4.34798L13.9504 4.34803ZM3.1057 10.1862C2.73993 10.2899 2.34748 10.239 2.02026 10.0453C1.67985 9.84676 1.43027 9.52331 1.32471 9.14364L0.692552 6.92424C0.579127 6.55423 0.616982 6.15454 0.797564 5.81257C0.978286 5.47047 1.28716 5.21403 1.6566 5.09922L3.20988 4.65703L4.6583 9.74469L3.1057 10.1862ZM7.16254 13.2877V13.2879C7.23194 13.5935 7.13913 13.9135 6.91691 14.1347C6.69483 14.3558 6.37447 14.4472 6.06911 14.3766C5.76361 14.3059 5.51602 14.0831 5.41365 13.7869L4.46392 10.4523L5.13284 10.2619L5.13564 10.2604H5.13844C5.49638 10.1545 5.86005 10.0693 6.22769 10.005L7.16254 13.2877ZM12.8065 9.43583C12.6895 9.56762 12.5113 9.62735 12.3382 9.59286C11.0367 9.33853 9.71477 9.20296 8.38871 9.18767C7.33411 9.17674 6.28287 9.30587 5.26236 9.57182L3.81772 4.4935C5.76485 3.95961 7.68362 2.76438 9.82995 0.760041H9.82981C9.95431 0.642129 10.1319 0.599228 10.2965 0.647319C10.4666 0.693587 10.5999 0.825515 10.648 0.994881L11.3159 3.34059L12.9176 8.96482C12.9667 9.1304 12.9243 9.30958 12.8064 9.4359L12.8065 9.43583ZM12.7468 6.07546L12.017 3.5134C12.2576 3.50611 12.4955 3.56612 12.7039 3.68669C13.0184 3.87036 13.2489 4.1694 13.3464 4.52021C13.4325 4.80944 13.4205 5.11903 13.3119 5.40052C13.2034 5.68205 13.0048 5.9197 12.7469 6.07644L12.7468 6.07546Z" fill="#F12A23"/>
</svg>
