<svg width="17" height="21" viewBox="0 0 17 21" fill="none" xmlns="http://www.w3.org/2000/svg">
<path d="M2.55527 17.1189L5.18508 11.0196C6.09752 11.6667 7.20855 12.0473 8.40906 12.0473C9.60954 12.0473 10.7206 11.6667 11.6331 11.0196L14.2628 17.1188L12.9925 16.5877L12.9925 16.5878C12.8495 16.5273 12.6885 16.526 12.5446 16.5843L12.5445 16.5844C12.4005 16.6428 12.2854 16.7562 12.225 16.8994L12.2247 16.9001L11.6202 18.353L8.93059 13.1505C8.93052 13.1503 8.93045 13.1502 8.93039 13.1501C8.83036 12.9543 8.62898 12.831 8.40904 12.831C8.18918 12.831 7.98785 12.9543 7.88771 13.15C7.88766 13.1501 7.88761 13.1502 7.88755 13.1503L5.19791 18.353L4.67981 17.1078H4.68125L4.59328 16.8994C4.5328 16.7562 4.41778 16.6428 4.27359 16.5844L2.55527 17.1189ZM2.55527 17.1189L3.82472 16.5882C3.82488 16.5881 3.82503 16.5881 3.82518 16.588C3.96822 16.5274 4.12949 16.5259 4.27352 16.5843L2.55527 17.1189ZM5.66363 20.0099L8.40904 14.6967L11.1545 20.0099L11.1964 20.0911H11.2054C11.32 20.2447 11.5044 20.3344 11.6999 20.3259C11.9274 20.3161 12.1288 20.1751 12.2158 19.9645C12.2158 19.9644 12.2159 19.9643 12.2159 19.9642L13.0768 17.8964L15.1502 18.7584L15.3577 18.8447V18.8058C15.5196 18.8126 15.6807 18.7521 15.799 18.6323C15.9691 18.4601 16.0158 18.2009 15.9167 17.9802C15.9165 17.9798 15.9163 17.9794 15.9161 17.979L12.5598 10.204C13.4584 9.2097 14.0035 7.89028 14.0035 6.44861C14.0035 3.36183 11.4938 0.85 8.40918 0.85H8.40906C5.32446 0.85 2.81473 3.36179 2.81473 6.44861C2.81473 7.89028 3.35986 9.20971 4.25845 10.204L0.904965 17.9723L0.901912 17.9791C0.802309 18.1999 0.84854 18.4597 1.01905 18.6323L1.01905 18.6323C1.18909 18.8044 1.44749 18.8542 1.66919 18.7577C1.66965 18.7575 1.6701 18.7573 1.67055 18.7571L3.7413 17.8963L4.59085 19.9368L4.59403 19.9445L4.60222 19.9643C4.68923 20.1749 4.89047 20.3161 5.11836 20.3259C5.34605 20.3358 5.55876 20.2125 5.66357 20.01L5.66363 20.0099ZM8.40906 2.02173C10.857 2.02173 12.8325 3.99846 12.8325 6.44869C12.8325 8.89892 10.8572 10.8756 8.40906 10.8756C5.96113 10.8756 3.9856 8.89892 3.9856 6.44869C3.9856 3.99845 5.96087 2.02173 8.40906 2.02173Z" fill="#9A9A9A" stroke="#9A9A9A" stroke-width="0.3"/>
</svg>
