<svg width="13" height="12" viewBox="0 0 13 12" fill="none" xmlns="http://www.w3.org/2000/svg">
<path d="M10.8333 2.16667H8.66667V1.44449C8.66667 1.06145 8.51444 0.694014 8.24361 0.423057C7.97266 0.152224 7.60534 0 7.22218 0H5.77782C5.39466 0 5.02735 0.152224 4.75639 0.423057C4.48556 0.694011 4.33333 1.06145 4.33333 1.44449V2.16667H2.16667C1.592 2.16667 1.0409 2.39494 0.634648 2.80131C0.228274 3.20769 0 3.7588 0 4.33333V9.3891C0 9.96363 0.228274 10.5147 0.634648 10.9211C1.0409 11.3275 1.592 11.5558 2.16667 11.5558H10.8333C11.408 11.5558 11.9591 11.3275 12.3654 10.9211C12.7717 10.5147 13 9.96363 13 9.3891V4.33333C13 3.7588 12.7717 3.20769 12.3654 2.80131C11.9591 2.39494 11.408 2.16667 10.8333 2.16667ZM5.05545 1.44449C5.05569 1.25297 5.13187 1.06944 5.26728 0.934019C5.4027 0.798602 5.58625 0.722432 5.77775 0.722311H7.22224H7.22212C7.41363 0.722432 7.59717 0.798602 7.73258 0.934019C7.868 1.06944 7.94417 1.25298 7.94441 1.44449V2.16667H5.05544L5.05545 1.44449ZM12.2779 9.38903C12.2774 9.77195 12.1251 10.1391 11.8543 10.4098C11.5835 10.6807 11.2163 10.833 10.8334 10.8334H2.16673C1.78382 10.833 1.41663 10.6807 1.1458 10.4098C0.875083 10.1391 0.722738 9.77195 0.722243 9.38903V4.33327C0.722726 3.95036 0.87507 3.58317 1.1458 3.31246C1.41663 3.04163 1.78382 2.88928 2.16673 2.88891H10.8334C11.2163 2.88927 11.5835 3.04162 11.8543 3.31246C12.125 3.58317 12.2774 3.95036 12.2779 4.33327V9.38903Z" fill="#F12A23"/>
</svg>
