<svg width="171" height="58" viewBox="0 0 171 58" fill="none" xmlns="http://www.w3.org/2000/svg">
<path d="M6.94651 0H164.053C167.886 0 171 3.11435 171 6.94651V50.9411C171 54.7733 167.886 57.8876 164.053 57.8876H6.94651C3.11435 57.8876 0 54.7733 0 50.9411V6.94651C0 3.11435 3.11435 0 6.94651 0Z" fill="black"/>
<path d="M37.4322 27.6299C37.3975 23.4852 40.8245 21.4707 40.975 21.3781C39.0299 18.5531 36.0198 18.1595 34.9662 18.1248C32.4423 17.8585 29.9879 19.6414 28.7028 19.6414C27.3945 19.6414 25.4032 18.1595 23.2729 18.1942C20.5291 18.2405 17.9473 19.8267 16.5464 22.3043C13.6404 27.3405 15.8054 34.7501 18.5956 38.8254C19.9965 40.8167 21.6173 43.0512 23.7592 42.9701C25.8431 42.8891 26.6304 41.6387 29.1427 41.6387C31.6435 41.6387 32.3729 42.9701 34.5494 42.9238C36.7955 42.8891 38.1964 40.9209 39.5509 38.9064C41.1602 36.6256 41.8085 34.368 41.8317 34.2523C41.7738 34.2291 37.4785 32.5851 37.4322 27.6299Z" fill="white"/>
<path d="M33.3241 15.4476C34.4471 14.0467 35.2112 12.1364 35.0028 10.1914C33.382 10.2609 31.3443 11.3144 30.175 12.6922C29.1446 13.9078 28.2184 15.8875 28.4499 17.7515C30.2792 17.8905 32.1547 16.8253 33.3241 15.4476Z" fill="white"/>
<path d="M67.6717 42.6762H64.7542L63.1565 37.6515H57.5992L56.0826 42.6762H53.2461L58.7454 25.5762H62.1492L67.6717 42.6762ZM62.6818 35.5444L61.2346 31.0871C61.0841 30.624 60.7946 29.5588 60.3778 27.8685H60.32C60.1463 28.5979 59.88 29.6746 59.5095 31.0871L58.0855 35.5444H62.6818Z" fill="white"/>
<path d="M81.8082 36.3668C81.8082 38.4623 81.2409 40.1179 80.0948 41.3336C79.0759 42.4219 77.8024 42.9544 76.2973 42.9544C74.6649 42.9544 73.4956 42.3755 72.7778 41.2062V47.6781H70.0339V34.3986C70.0339 33.0788 69.9992 31.7358 69.9297 30.3465H72.3378L72.4883 32.3031H72.5346C73.4493 30.8328 74.8386 30.0918 76.691 30.0918C78.1497 30.0918 79.3538 30.6707 80.3263 31.8168C81.322 32.9746 81.8082 34.4797 81.8082 36.3668ZM79.018 36.4594C79.018 35.2554 78.7518 34.2713 78.2076 33.4956C77.6172 32.6852 76.8183 32.2799 75.8226 32.2799C75.1511 32.2799 74.5375 32.5115 73.9818 32.9514C73.4377 33.403 73.0672 33.9818 72.9051 34.7112C72.8241 35.047 72.7778 35.3248 72.7778 35.5448V37.6056C72.7778 38.4971 73.0556 39.2612 73.5998 39.8748C74.1439 40.4884 74.8617 40.801 75.7416 40.801C76.772 40.801 77.5709 40.3958 78.1497 39.6085C78.7286 38.8097 79.018 37.7677 79.018 36.4594Z" fill="white"/>
<path d="M95.9801 36.3668C95.9801 38.4623 95.4128 40.1179 94.2666 41.3336C93.2478 42.4219 91.9743 42.9544 90.4692 42.9544C88.8368 42.9544 87.6674 42.3755 86.9496 41.2062V47.6781H84.2058V34.3986C84.2058 33.0788 84.171 31.7358 84.1016 30.3465H86.5097L86.6602 32.3031H86.7065C87.6211 30.8328 89.0104 30.0918 90.8628 30.0918C92.3216 30.0918 93.5257 30.6707 94.4982 31.8168C95.4938 32.9746 95.9801 34.4797 95.9801 36.3668ZM93.1899 36.4594C93.1899 35.2554 92.9236 34.2713 92.3795 33.4956C91.789 32.6852 90.9902 32.2799 89.9945 32.2799C89.323 32.2799 88.7094 32.5115 88.1537 32.9514C87.6096 33.403 87.2507 33.9818 87.077 34.7112C86.9959 35.047 86.9496 35.3248 86.9496 35.5448V37.6056C86.9496 38.4971 87.2275 39.2612 87.7716 39.8748C88.3158 40.4884 89.0336 40.801 89.9135 40.801C90.9439 40.801 91.7543 40.3958 92.3216 39.6085C92.9121 38.8097 93.1899 37.7677 93.1899 36.4594Z" fill="white"/>
<path d="M111.84 37.8821C111.84 39.3408 111.33 40.5217 110.323 41.4364C109.211 42.432 107.66 42.9299 105.669 42.9299C103.828 42.9299 102.358 42.571 101.246 41.8647L101.883 39.584C103.087 40.2902 104.407 40.6491 105.842 40.6491C106.873 40.6491 107.683 40.4175 108.25 39.9544C108.829 39.4913 109.119 38.8662 109.119 38.0905C109.119 37.3958 108.876 36.8169 108.413 36.3423C107.938 35.8676 107.151 35.4276 106.051 35.0224C103.029 33.8994 101.536 32.267 101.536 30.1251C101.536 28.7242 102.068 27.5781 103.122 26.675C104.175 25.7836 105.576 25.332 107.324 25.332C108.876 25.332 110.172 25.5983 111.203 26.1425L110.508 28.3653C109.536 27.8444 108.447 27.5781 107.22 27.5781C106.259 27.5781 105.495 27.8212 104.951 28.2843C104.499 28.7127 104.268 29.2221 104.268 29.8357C104.268 30.5072 104.534 31.0745 105.055 31.5029C105.507 31.9081 106.34 32.348 107.544 32.8227C109.015 33.4131 110.091 34.1078 110.786 34.9066C111.492 35.7055 111.84 36.7012 111.84 37.8821Z" fill="white"/>
<path d="M120.916 32.4062H117.895V38.3918C117.895 39.9084 118.427 40.6725 119.492 40.6725C119.979 40.6725 120.384 40.6262 120.708 40.5452L120.789 42.6291C120.245 42.826 119.539 42.9302 118.659 42.9302C117.57 42.9302 116.737 42.5944 116.123 41.9345C115.51 41.2746 115.209 40.1631 115.209 38.6117V32.3946H113.414V30.3454H115.209V28.0878L117.895 27.2773V30.3454H120.916V32.4062Z" fill="white"/>
<path d="M134.509 36.4113C134.509 38.31 133.965 39.8614 132.888 41.0771C131.753 42.3274 130.248 42.9526 128.373 42.9526C126.567 42.9526 125.12 42.3506 124.043 41.1581C122.966 39.9656 122.434 38.449 122.434 36.6197C122.434 34.7094 122.989 33.1465 124.089 31.9308C125.201 30.7152 126.694 30.1016 128.57 30.1016C130.376 30.1016 131.835 30.7036 132.934 31.9077C133.988 33.0654 134.509 34.5705 134.509 36.4113ZM131.672 36.4692C131.672 35.3346 131.429 34.3737 130.943 33.5632C130.364 32.5792 129.542 32.0929 128.477 32.0929C127.377 32.0929 126.532 32.5792 125.965 33.5632C125.467 34.3737 125.235 35.3578 125.235 36.5271C125.235 37.6617 125.478 38.6342 125.965 39.433C126.555 40.4171 127.389 40.9034 128.454 40.9034C129.496 40.9034 130.318 40.4056 130.92 39.4099C131.418 38.5763 131.672 37.6038 131.672 36.4692Z" fill="white"/>
<path d="M143.425 32.7546C143.159 32.7083 142.869 32.6852 142.557 32.6852C141.596 32.6852 140.843 33.0441 140.322 33.7734C139.871 34.4102 139.639 35.2322 139.639 36.2047V42.6766H136.895V34.225C136.895 32.8009 136.872 31.5043 136.814 30.3465H139.199L139.304 32.7083H139.385C139.674 31.8979 140.126 31.238 140.751 30.7517C141.364 30.3118 142.024 30.0918 142.731 30.0918C142.985 30.0918 143.217 30.115 143.414 30.1381L143.425 32.7546Z" fill="white"/>
<path d="M155.673 35.9264C155.673 36.4127 155.638 36.8295 155.569 37.1652H147.349C147.383 38.3809 147.777 39.3187 148.541 39.9554C149.236 40.5227 150.127 40.8122 151.227 40.8122C152.443 40.8122 153.554 40.6153 154.55 40.2333L154.978 42.132C153.809 42.6414 152.431 42.8961 150.845 42.8961C148.935 42.8961 147.43 42.3288 146.341 41.2058C145.253 40.0828 144.709 38.5661 144.709 36.679C144.709 34.8266 145.218 33.2752 146.237 32.0364C147.302 30.7166 148.738 30.0566 150.544 30.0566C152.315 30.0566 153.67 30.7166 154.573 32.0364C155.302 33.1015 155.673 34.3866 155.673 35.9264ZM153.056 35.2202C153.08 34.4098 152.894 33.7036 152.524 33.1131C152.049 32.349 151.32 31.9669 150.347 31.9669C149.456 31.9669 148.726 32.3374 148.171 33.0784C147.719 33.6688 147.441 34.3866 147.36 35.2086L153.056 35.2202Z" fill="white"/>
<path d="M61.3587 19.4619H59.9231L59.1359 16.9959H56.4036L55.651 19.4619H54.2617L56.9593 11.0566H58.6264L61.3587 19.4619ZM58.8927 15.9539L58.1865 13.7542C58.117 13.5342 57.9781 13.0017 57.7581 12.1681H57.735C57.6424 12.527 57.5266 13.048 57.3298 13.7542L56.6351 15.9539H58.8927Z" fill="white"/>
<path d="M68.1204 13.3945L65.828 19.4612H64.5198L62.2969 13.3945H63.7441L64.7745 16.6015C64.9481 17.1341 65.0986 17.6435 65.2144 18.1297H65.2491C65.3533 17.6898 65.5038 17.1804 65.6891 16.6015L66.7079 13.3945H68.1204Z" fill="white"/>
<path d="M73.0068 19.4638L72.9026 18.7691H72.8679C72.4511 19.3249 71.8607 19.6027 71.0965 19.6027C70.0083 19.6027 69.2441 18.8386 69.2441 17.8198C69.2441 16.3263 70.5408 15.5506 72.7869 15.5506V15.4348C72.7869 14.636 72.3585 14.2423 71.5249 14.2423C70.9229 14.2423 70.4019 14.3928 69.9388 14.6938L69.6609 13.814C70.2167 13.4666 70.9229 13.293 71.7449 13.293C73.331 13.293 74.1299 14.1266 74.1299 15.8053V18.0398C74.1299 18.6534 74.153 19.128 74.2225 19.4869L73.0068 19.4638ZM72.8216 16.4421C71.3281 16.4421 70.5756 16.801 70.5756 17.6693C70.5756 18.306 70.9576 18.6186 71.5018 18.6186C72.1848 18.6186 72.8216 18.0976 72.8216 17.3798V16.4421Z" fill="white"/>
<path d="M77.127 12.4003C76.6754 12.4003 76.3281 12.053 76.3281 11.5899C76.3281 11.1268 76.687 10.791 77.1501 10.791C77.6132 10.791 77.9837 11.1268 77.9721 11.5899C77.9721 12.0761 77.6248 12.4003 77.127 12.4003ZM76.4786 13.396H77.8216V19.451H76.4786V13.396Z" fill="white"/>
<path d="M80.2168 10.6172H81.5598V19.4508H80.2168V10.6172Z" fill="white"/>
<path d="M87.2803 19.4636L87.1761 18.769H87.1413C86.7246 19.3247 86.1341 19.6026 85.37 19.6026C84.2817 19.6026 83.5176 18.8385 83.5176 17.8196C83.5176 16.3261 84.8143 15.5504 87.0603 15.5504V15.4347C87.0603 14.6358 86.6319 14.2422 85.7984 14.2422C85.1963 14.2422 84.6753 14.3927 84.2122 14.6937L83.9344 13.8022C84.4901 13.4549 85.1963 13.2812 86.0183 13.2812C87.6044 13.2812 88.4033 14.1148 88.4033 15.7936V18.028C88.4033 18.6416 88.4264 19.1163 88.4843 19.4752H87.2803V19.4636ZM87.095 16.4419C85.6015 16.4419 84.849 16.8008 84.849 17.6691C84.849 18.3059 85.2311 18.6185 85.7752 18.6185C86.4583 18.6185 87.095 18.0975 87.095 17.3797V16.4419Z" fill="white"/>
<path d="M93.8677 19.6013C93.011 19.6013 92.3742 19.2424 91.9574 18.5246H91.9342L91.8532 19.4624H90.707C90.7418 18.9762 90.7533 18.432 90.7533 17.83V10.6172H92.1079V14.2873H92.1311C92.5363 13.6158 93.173 13.28 94.0645 13.28C95.5233 13.28 96.5421 14.5304 96.5421 16.3481C96.5421 18.2236 95.4075 19.6013 93.8677 19.6013ZM93.5898 14.3336C92.8141 14.3336 92.1079 15.0051 92.1079 15.9428V17.008C92.1079 17.8416 92.7447 18.5246 93.5667 18.5246C94.5739 18.5246 95.176 17.7026 95.176 16.3944C95.176 15.1672 94.5508 14.3336 93.5898 14.3336Z" fill="white"/>
<path d="M98.5352 10.6172H99.8781V19.4508H98.5352V10.6172Z" fill="white"/>
<path d="M107.206 16.7542H103.166C103.189 17.9004 103.953 18.5487 105.076 18.5487C105.678 18.5487 106.222 18.4445 106.709 18.2593L106.917 19.1971C106.35 19.4518 105.678 19.5676 104.891 19.5676C102.992 19.5676 101.869 18.3751 101.869 16.5111C101.869 14.6587 103.015 13.2578 104.74 13.2578C106.28 13.2578 107.264 14.404 107.264 16.1406C107.264 16.3837 107.253 16.5921 107.206 16.7542ZM105.979 15.7933C105.979 14.8555 105.504 14.1956 104.648 14.1956C103.872 14.1956 103.27 14.8671 103.177 15.7933H105.979Z" fill="white"/>
<path d="M115.367 19.6026C113.595 19.6026 112.449 18.2827 112.449 16.4882C112.449 14.6127 113.619 13.2812 115.471 13.2812C117.219 13.2812 118.388 14.5432 118.388 16.384C118.388 18.2712 117.184 19.6026 115.367 19.6026ZM115.425 14.2653C114.452 14.2653 113.827 15.18 113.827 16.4419C113.827 17.6923 114.464 18.5953 115.413 18.5953C116.362 18.5953 116.999 17.6228 116.999 16.4072C116.988 15.18 116.374 14.2653 115.425 14.2653Z" fill="white"/>
<path d="M125.627 19.4616H124.284V15.9767C124.284 14.9 123.867 14.3674 123.057 14.3674C122.258 14.3674 121.714 15.0505 121.714 15.8494V19.45H120.371V15.1316C120.371 14.599 120.359 14.0201 120.324 13.3949H121.505L121.563 14.3327H121.598C121.957 13.6844 122.698 13.2676 123.52 13.2676C124.793 13.2676 125.627 14.2401 125.627 15.8262V19.4616Z" fill="white"/>
<path d="M134.438 14.4145H132.956V17.3552C132.956 18.1078 133.222 18.4782 133.743 18.4782C133.975 18.4782 134.183 18.4551 134.345 18.4203L134.38 19.4392C134.113 19.5434 133.766 19.5897 133.338 19.5897C132.273 19.5897 131.647 18.9992 131.647 17.471V14.4145H130.768V13.4073H131.647V12.2958L132.967 11.8906V13.3957H134.449V14.4145" fill="white"/>
<path d="M141.569 19.4624H140.226V16.0007C140.226 14.9124 139.809 14.3683 138.998 14.3683C138.304 14.3683 137.655 14.843 137.655 15.8039V19.4508H136.312V10.6172H137.655V14.2525H137.679C138.107 13.5926 138.709 13.2684 139.496 13.2684C140.781 13.2684 141.569 14.2641 141.569 15.8502V19.4624Z" fill="white"/>
<path d="M148.447 16.7542H144.406C144.429 17.9004 145.193 18.5487 146.316 18.5487C146.918 18.5487 147.463 18.4445 147.949 18.2593L148.157 19.1971C147.59 19.4518 146.918 19.5676 146.131 19.5676C144.232 19.5676 143.109 18.3751 143.109 16.5111C143.109 14.6587 144.256 13.2578 145.981 13.2578C147.52 13.2578 148.505 14.404 148.505 16.1406C148.505 16.3837 148.493 16.5921 148.447 16.7542ZM147.219 15.7933C147.219 14.8555 146.745 14.1956 145.888 14.1956C145.112 14.1956 144.499 14.8671 144.418 15.7933H147.219Z" fill="white"/>
</svg>
