<svg width="23" height="29" viewBox="0 0 23 29" fill="none" xmlns="http://www.w3.org/2000/svg">
<path d="M22.1485 2.34265C21.8645 2.05862 21.4386 1.91673 21.0126 2.05862C17.8893 2.76858 14.7655 2.05862 12.21 0.213024C11.784 -0.0710079 11.0741 -0.0710079 10.6481 0.213024C7.95094 2.05862 4.82757 2.76858 1.7037 2.05862C0.99399 1.91673 0.142138 2.48455 0 3.19451V3.47854V14.1267C0 18.2441 1.98774 22.0775 5.39514 24.4907L10.6481 28.1821C11.0741 28.4662 11.784 28.4662 12.3519 28.1821L17.6049 24.4907C21.0123 22.077 23 18.2436 23 14.1267V3.47854C22.7162 3.05261 22.5741 2.62669 22.1481 2.34265H22.1485ZM15.6179 12.849L10.7908 17.6761C10.223 18.2439 9.3711 18.2439 8.80304 17.6761L6.53151 15.4046C5.96369 14.8368 5.96369 13.9849 6.53151 13.4169C7.09933 12.849 7.95119 12.849 8.51925 13.4169L9.79703 14.6946L13.6304 10.8613C14.1982 10.2935 15.05 10.2935 15.6181 10.8613C16.1857 11.4291 16.1857 12.281 15.6179 12.849H15.6179Z" fill="#3283E7"/>
</svg>
