<svg width="18" height="20" viewBox="0 0 18 20" fill="none" xmlns="http://www.w3.org/2000/svg">
<path d="M8.85707 19.0825L8.8585 19.0829C8.90353 19.0937 8.95094 19.1002 8.99923 19.1002H8.99927C9.04759 19.1002 9.09493 19.0937 9.14019 19.0829L9.14186 19.0825C13.8276 17.876 17.1 13.6503 17.1 8.80602V3.98226C17.1 3.73657 16.9425 3.51882 16.7098 3.44117L16.6781 3.53603L16.7098 3.44117L9.18007 0.92909L9.17985 0.92902C9.06301 0.890327 8.93591 0.890327 8.81907 0.92902L8.81885 0.929092L1.29046 3.44108C1.29041 3.4411 1.29037 3.44111 1.29032 3.44113C1.05683 3.51843 0.9 3.73663 0.9 3.98226V8.80602C0.9 13.6501 4.17207 17.8763 8.85707 19.0825ZM2.0412 8.80594V4.39356L8.99924 2.07158L15.9583 4.39356V8.80594C15.9583 13.0807 13.1042 16.8152 8.99924 17.9396C4.89499 16.8144 2.0412 13.0799 2.0412 8.80594Z" fill="#F12A23" stroke="#F12A23" stroke-width="0.2"/>
<path d="M9.00012 13.3964H9.21436L9.20326 13.3831C9.53605 13.3395 9.84115 13.189 10.0766 12.9489L10.0767 12.9488C10.3673 12.6517 10.5221 12.252 10.5127 11.8344V10.9906C11.0996 10.5282 11.4531 9.81505 11.4531 9.05897C11.4531 7.70604 10.3529 6.60508 9.00007 6.60508C7.64725 6.60508 6.54746 7.70584 6.54746 9.05897C6.54746 9.81554 6.90185 10.5289 7.48975 10.9913V11.8837C7.48975 12.7176 8.16741 13.3964 9.00012 13.3964ZM9.70478 10.2839C10.1409 10.0304 10.4116 9.56061 10.4116 9.05892L9.70478 10.2839ZM9.26074 12.1503L9.26016 12.1509C9.21503 12.1976 9.13336 12.255 8.99993 12.255C8.79676 12.255 8.63079 12.0891 8.63079 11.8836V10.6906C8.63079 10.4876 8.52303 10.2998 8.34721 10.1977C7.94055 9.96124 7.68873 9.52445 7.68873 9.05908C7.68873 8.33918 8.2713 7.75257 8.98878 7.74645H9.00016C9.72326 7.74645 10.3119 8.33547 10.3116 9.05886V9.05892C10.3116 9.52483 10.06 9.96174 9.65452 10.1975L9.65443 10.1976C9.47905 10.2998 9.37137 10.488 9.37137 10.6905V11.8458H9.37135L9.3714 11.848C9.37421 11.971 9.33305 12.0767 9.26074 12.1503Z" fill="#F12A23" stroke="#F12A23" stroke-width="0.2"/>
</svg>
