<svg width="21" height="28" viewBox="0 0 21 28" fill="none" xmlns="http://www.w3.org/2000/svg">
<path d="M17.5 21H10.5C8.56975 21 7 19.4303 7 17.5V15.75H17.5C18.4283 15.75 19.3185 15.3813 19.9749 14.7249C20.6313 14.0685 21 13.1783 21 12.25C21 11.3217 20.6313 10.4315 19.9749 9.77513C19.3185 9.11875 18.4283 8.75 17.5 8.75H7V3.5C7 2.57174 6.63125 1.6815 5.97488 1.02513C5.3185 0.368749 4.42826 0 3.5 0C2.57174 0 1.6815 0.368749 1.02513 1.02513C0.368749 1.6815 0 2.57174 0 3.5V17.5C0 23.2908 4.70925 28 10.5 28H17.5C18.4283 28 19.3185 27.6313 19.9749 26.9749C20.6313 26.3185 21 25.4283 21 24.5C21 23.5717 20.6313 22.6815 19.9749 22.0251C19.3185 21.3687 18.4283 21 17.5 21Z" fill="#1B9FEF"/>
</svg>
