<svg width="114" height="102" viewBox="0 0 114 102" fill="none" xmlns="http://www.w3.org/2000/svg">
<path opacity="0.2" d="M80.976 4.50019C80.976 6.97239 78.9719 8.97651 76.4997 8.97651C74.0275 8.97651 72.0234 6.97239 72.0234 4.50019C72.0234 2.02802 74.0275 0.0239258 76.4997 0.0239258C78.9719 0.0239258 80.976 2.02802 80.976 4.50019Z" fill="#00A478"/>
<path d="M76.0406 4.42168V3.63857H74.9785V2.95215H77.9465V3.64824H76.8844V4.42168H76.0406Z" fill="#00A478"/>
<path fill-rule="evenodd" clip-rule="evenodd" d="M74.5215 4.50889C74.5215 4.24785 75.3752 4.03516 76.4373 4.03516C77.4994 4.03516 78.3531 4.24785 78.3531 4.50889C78.3531 4.76992 77.4994 4.98262 76.4373 4.98262C75.3752 4.98262 74.5215 4.76992 74.5215 4.50889ZM78.1943 4.50889C78.1248 4.41221 77.5491 4.1125 76.4373 4.1125C75.3255 4.1125 74.7498 4.40254 74.6803 4.50889C74.7498 4.60557 75.3255 4.75059 76.4373 4.75059C77.559 4.75059 78.1248 4.60557 78.1943 4.50889Z" fill="#00A478"/>
<path d="M76.8846 4.66328V4.12188C76.7456 4.11221 76.5967 4.10254 76.4478 4.10254C76.3089 4.10254 76.1798 4.10254 76.0508 4.11221V4.65361C76.1699 4.65361 76.3089 4.66328 76.4478 4.66328C76.5967 4.67295 76.7456 4.67295 76.8846 4.66328Z" fill="#00A478"/>
<path d="M76.4381 4.98223C76.2991 4.98223 76.1701 4.98223 76.041 4.97256V6.41309H76.8748V4.96289C76.7359 4.97256 76.587 4.98223 76.4381 4.98223Z" fill="#00A478"/>
<path opacity="0.2" d="M12.8042 36.0725C11.936 39.5547 8.40898 41.6737 4.92641 40.8055C1.44545 39.9374 -0.67375 36.4103 0.194609 32.9283C1.06236 29.4458 4.58922 27.3264 8.07078 28.1945C11.5532 29.0627 13.6722 32.5901 12.804 36.0725H12.8042Z" fill="#F7931A"/>
<path fill-rule="evenodd" clip-rule="evenodd" d="M8.45763 33.7449C8.54527 33.1581 8.09853 32.8427 7.48768 32.6323L7.68583 31.8375L7.20189 31.7169L7.00897 32.4908C6.88192 32.4591 6.75129 32.4292 6.62149 32.3995L6.81578 31.6206L6.33225 31.5L6.13396 32.2945C6.02868 32.2706 5.92534 32.2469 5.82502 32.2219L5.82557 32.2194L5.15836 32.0528L5.02966 32.5696C5.02966 32.5696 5.38862 32.6518 5.38104 32.6569C5.57699 32.7059 5.61254 32.8355 5.60647 32.9383L5.38076 33.8438C5.39427 33.8472 5.41177 33.8522 5.43106 33.8599L5.38007 33.8472L5.06355 35.1157C5.03958 35.1752 4.97881 35.2645 4.84184 35.2306C4.84666 35.2376 4.49018 35.1428 4.49018 35.1428L4.25 35.6967L4.87973 35.8537C4.95082 35.8715 5.02105 35.8898 5.09051 35.908C5.13549 35.9197 5.18014 35.9313 5.2245 35.9427L5.02428 36.7468L5.50754 36.8673L5.70596 36.072C5.83784 36.1078 5.96599 36.1409 6.09138 36.172L5.89378 36.9637L6.37759 37.0842L6.57781 36.2818C7.4028 36.438 8.0233 36.375 8.28415 35.629C8.49456 35.0282 8.27381 34.6816 7.83975 34.4555C8.15586 34.3823 8.39397 34.1744 8.4575 33.7449H8.45763ZM7.35209 35.2949C7.21474 35.8463 6.35145 35.6182 5.9568 35.5139C5.92146 35.5046 5.88988 35.4962 5.86291 35.4895L6.12859 34.4245C6.16155 34.4327 6.20181 34.4417 6.24742 34.452L6.24743 34.452C6.65571 34.5436 7.49241 34.7313 7.35223 35.2949H7.35209ZM6.32949 33.9577C6.65878 34.0456 7.37656 34.2371 7.5016 33.7362C7.62943 33.2237 6.93147 33.0693 6.5906 32.9938C6.55228 32.9853 6.51847 32.9779 6.49086 32.971L6.24999 33.9369C6.27278 33.9426 6.29953 33.9498 6.32949 33.9577Z" fill="#F7931A"/>
<path opacity="0.3" d="M110 71C112.209 71 114 69.2091 114 67C114 64.7909 112.209 63 110 63C107.791 63 106 64.7909 106 67C106 69.2091 107.791 71 110 71Z" fill="#627EEA"/>
<path d="M110.125 65.0664V66.4955L111.333 67.0352L110.125 65.0664Z" fill="white" fill-opacity="0.602"/>
<path d="M110.126 65.0664L108.918 67.0352L110.126 66.4955V65.0664Z" fill="white"/>
<path d="M110.125 67.9614V68.9324L111.334 67.2603L110.125 67.9614Z" fill="white" fill-opacity="0.602"/>
<path d="M110.126 68.9324V67.9612L108.918 67.2603L110.126 68.9324Z" fill="white"/>
<path d="M110.125 67.7363L111.333 67.035L110.125 66.4956V67.7363Z" fill="white" fill-opacity="0.2"/>
<path d="M108.918 67.035L110.126 67.7363V66.4956L108.918 67.035Z" fill="white" fill-opacity="0.602"/>
<rect x="22.5" y="21.5" width="69" height="80" rx="7.5" fill="white" stroke="#EDF0F5"/>
<rect x="29" y="66" width="27" height="5" rx="2.5" fill="#F5F7FB"/>
<rect x="58" y="66" width="27" height="5" rx="2.5" fill="#F5F7FB"/>
<rect x="29" y="73" width="15" height="5" rx="2.5" fill="#F5F7FB"/>
<rect x="58" y="73" width="15" height="5" rx="2.5" fill="#F5F7FB"/>
<rect x="29" y="84" width="56" height="12" rx="3" fill="#7C88A1"/>
<circle cx="33" cy="56" r="5" fill="#F5F7FB"/>
<mask id="mask0_3461_4523" style="mask-type:alpha" maskUnits="userSpaceOnUse" x="24" y="23" width="66" height="33">
<rect x="24.5" y="23.5" width="64.9999" height="31.8816" rx="6.5" fill="white" stroke="#F5F5F5"/>
</mask>
<g mask="url(#mask0_3461_4523)">
<path fill-rule="evenodd" clip-rule="evenodd" d="M22.0098 23C18.1438 23 15.0098 26.134 15.0098 30V46.0429C15.0098 49.9089 18.1438 53.0429 22.0098 53.0429C24.8678 53.0429 27.2043 50.321 29.707 48.9408C30.4343 48.5397 31.2702 48.3115 32.1595 48.3115C36.4583 48.3115 40.5692 53.0429 44.868 53.0429H91.9881C95.8541 53.0429 98.9881 49.9089 98.9881 46.0429V30C98.9881 26.134 95.8541 23 91.9881 23H22.0098Z" fill="#F5F7FB"/>
</g>
<mask id="mask1_3461_4523" style="mask-type:alpha" maskUnits="userSpaceOnUse" x="24" y="23" width="66" height="31">
<mask id="mask2_3461_4523" style="mask-type:alpha" maskUnits="userSpaceOnUse" x="24" y="23" width="66" height="33">
<rect x="24.5" y="23.5" width="64.9999" height="31.8816" rx="6.5" fill="white" stroke="#F5F5F5"/>
</mask>
<g mask="url(#mask2_3461_4523)">
<path fill-rule="evenodd" clip-rule="evenodd" d="M22.0098 22.9995C18.1438 22.9995 15.0098 26.1335 15.0098 29.9995V46.0425C15.0098 49.9084 18.1438 53.0425 22.0098 53.0425C24.8678 53.0425 27.2043 50.3205 29.707 48.9403C30.4343 48.5393 31.2702 48.311 32.1595 48.311C36.4583 48.311 40.5692 53.0425 44.868 53.0425H91.9881C95.8541 53.0425 98.9881 49.9085 98.9881 46.0425V29.9995C98.9881 26.1335 95.8541 22.9995 91.9881 22.9995H22.0098Z" fill="#F5F7FB"/>
</g>
</mask>
<g mask="url(#mask1_3461_4523)">
<g opacity="0.5">
</g>
</g>
<rect x="44" y="45" width="41" height="3" rx="1.5" fill="#E8EDF6"/>
<rect x="29" y="28" width="17" height="4" rx="2" fill="#D4DAE3"/>
<rect x="68" y="28" width="17" height="6" rx="3" fill="#F12A23"/>
<rect x="29" y="33" width="11" height="4" rx="2" fill="#D4DAE3"/>
<rect x="44" y="45" width="20" height="3" rx="1.5" fill="#7D89A1"/>
</svg>
