<svg width="19" height="18" viewBox="0 0 19 18" fill="none" xmlns="http://www.w3.org/2000/svg">
<path d="M4.52954 11.4188C3.46002 11.4661 2.39359 11.2719 1.40944 10.8505C1.29544 10.8 1.19582 10.7218 1.1196 10.6231C1.31283 8.13957 1.80727 7.71901 2.82457 6.88358L3.08031 6.66761C3.53472 6.87782 4.02888 6.98828 4.52954 6.99156C4.71998 6.98856 4.90994 6.97146 5.09786 6.94041V5.76966C4.91305 5.8232 4.72193 5.85187 4.52954 5.85491C4.06419 5.85491 3.60929 5.71692 3.22236 5.45838C2.83543 5.19985 2.53386 4.83238 2.35578 4.40245C2.1777 3.97252 2.1311 3.49944 2.22189 3.04303C2.31267 2.58662 2.53676 2.16738 2.86582 1.83833C3.19487 1.50927 3.61411 1.28519 4.07052 1.1944C4.52693 1.10362 5.00001 1.15021 5.42994 1.32829C5.85987 1.50637 6.22734 1.80795 6.48587 2.19487C6.74441 2.5818 6.8824 3.0367 6.8824 3.50205C6.88285 3.68233 6.85993 3.8619 6.8142 4.03628H7.95085C7.98034 3.85971 7.99554 3.68106 7.99632 3.50205C7.99839 2.92526 7.85745 2.35694 7.58611 1.84795C7.31477 1.33896 6.92149 0.905173 6.44145 0.58539C5.96142 0.265607 5.4096 0.0698046 4.83536 0.0155004C4.26112 -0.0388038 3.68238 0.0500839 3.15091 0.274211C2.61943 0.498338 2.15181 0.850715 1.78986 1.29982C1.42792 1.74892 1.18294 2.28074 1.07685 2.84769C0.970765 3.41465 1.00687 3.99907 1.18194 4.54865C1.35701 5.09824 1.66559 5.59586 2.08007 5.99699C0.897952 6.99724 0.221646 7.70196 0 10.5436C0.0115567 10.8129 0.0979915 11.0736 0.24959 11.2965C0.401189 11.5194 0.611944 11.6956 0.858169 11.8053C2.01072 12.3265 3.26483 12.5847 4.52954 12.5611V11.4188Z" fill="#474747"/>
<path d="M4.52928 2.2861C4.84732 2.2861 5.15233 2.41244 5.37722 2.63732C5.6021 2.86221 5.72844 3.16722 5.72844 3.48526C5.72844 3.56062 5.75838 3.6329 5.81167 3.68619C5.86496 3.73948 5.93724 3.76942 6.0126 3.76942C6.08797 3.76942 6.16025 3.73948 6.21354 3.68619C6.26683 3.6329 6.29677 3.56062 6.29677 3.48526C6.29677 3.01649 6.11055 2.56693 5.77908 2.23546C5.44761 1.90399 4.99805 1.71777 4.52928 1.71777C4.45391 1.71777 4.38164 1.74771 4.32835 1.801C4.27506 1.85429 4.24512 1.92657 4.24512 2.00194C4.24512 2.0773 4.27506 2.14958 4.32835 2.20287C4.38164 2.25616 4.45391 2.2861 4.52928 2.2861Z" fill="#474747"/>
<path d="M11.3496 4.0307C11.3086 3.8575 11.2876 3.68015 11.2871 3.50215C11.2871 3.03608 11.4256 2.58051 11.6849 2.19322C11.9442 1.80593 12.3127 1.50438 12.7436 1.32681C13.1745 1.14924 13.6485 1.10365 14.1053 1.19583C14.5622 1.288 14.9814 1.51379 15.3098 1.84455C15.6381 2.17531 15.8609 2.59615 15.9497 3.05367C16.0386 3.5112 15.9895 3.98481 15.8088 4.41443C15.6281 4.84405 15.3239 5.21033 14.9347 5.4668C14.5456 5.72328 14.089 5.85839 13.6229 5.85501C13.4314 5.85675 13.2404 5.83383 13.0546 5.78682V6.92346C13.2426 6.95354 13.4326 6.96874 13.6229 6.96893C14.1363 6.97024 14.6434 6.85562 15.1063 6.63362L15.3677 6.86095C16.3566 7.69638 16.851 8.11694 17.0443 10.5607C17.0443 10.6176 16.9533 10.7255 16.7544 10.8392C15.7703 11.2606 14.7038 11.4548 13.6343 11.4075V12.5442C14.9017 12.5828 16.1618 12.3381 17.3227 11.8281C17.5703 11.7136 17.7808 11.532 17.9304 11.304C18.0801 11.076 18.1629 10.8107 18.1695 10.538C17.9479 7.69638 17.2716 7.0144 16.0895 5.99141H16.0611C16.4704 5.58796 16.7738 5.08964 16.9442 4.54072C17.1146 3.99181 17.1468 3.4093 17.0379 2.84496C16.929 2.28061 16.6824 1.7519 16.32 1.3058C15.9575 0.859705 15.4905 0.510034 14.9605 0.287858C14.4304 0.0656813 13.8536 -0.022121 13.2815 0.0322523C12.7093 0.0866257 12.1594 0.281491 11.6806 0.599534C11.2019 0.917577 10.8091 1.34895 10.5372 1.85533C10.2653 2.3617 10.1227 2.9274 10.1221 3.50215C10.1228 3.68116 10.138 3.85981 10.1675 4.03638L11.3496 4.0307Z" fill="#474747"/>
<path d="M15.3895 3.49094C15.3903 3.25836 15.3451 3.02791 15.2566 2.81281C15.1681 2.59771 15.0381 2.40219 14.8739 2.23747C14.7097 2.07274 14.5146 1.94204 14.2998 1.85286C14.0849 1.76368 13.8546 1.71777 13.6221 1.71777C13.5467 1.71777 13.4744 1.74771 13.4211 1.801C13.3678 1.85429 13.3379 1.92657 13.3379 2.00194C13.3379 2.0773 13.3678 2.14958 13.4211 2.20287C13.4744 2.25616 13.5467 2.2861 13.6221 2.2861C13.9401 2.2861 14.2451 2.41244 14.47 2.63732C14.6949 2.86221 14.8212 3.16722 14.8212 3.48526C14.8212 3.56062 14.8512 3.6329 14.9044 3.68619C14.9577 3.73948 15.03 3.76942 15.1054 3.76942C15.1798 3.76944 15.2512 3.74028 15.3043 3.68821C15.3575 3.63614 15.3881 3.56532 15.3895 3.49094Z" fill="#474747"/>
<path d="M14.9809 8.24209C15.822 8.66265 15.822 10.0323 15.822 10.4813C15.822 10.5567 15.8519 10.6289 15.9052 10.6822C15.9585 10.7355 16.0308 10.7654 16.1062 10.7654C16.1815 10.7654 16.2538 10.7355 16.3071 10.6822C16.3604 10.6289 16.3903 10.5567 16.3903 10.4813C16.3903 9.94706 16.3903 8.31029 15.2537 7.73628C15.1866 7.70258 15.1089 7.69681 15.0375 7.72024C14.9661 7.74367 14.907 7.79439 14.8729 7.86131C14.8548 7.89336 14.8432 7.92868 14.8389 7.96522C14.8345 8.00177 14.8374 8.03882 14.8475 8.07422C14.8575 8.10963 14.8745 8.1427 14.8974 8.17151C14.9203 8.20033 14.9487 8.22431 14.9809 8.24209Z" fill="#474747"/>
<path d="M9.07615 6.832C9.39419 6.832 9.6992 6.95834 9.92409 7.18322C10.149 7.40811 10.2753 7.71312 10.2753 8.03116C10.2753 8.10652 10.3053 8.1788 10.3585 8.23209C10.4118 8.28538 10.4841 8.31532 10.5595 8.31532C10.6348 8.31532 10.7071 8.28538 10.7604 8.23209C10.8137 8.1788 10.8436 8.10652 10.8436 8.03116C10.8436 7.56239 10.6574 7.11283 10.326 6.78136C9.99449 6.44989 9.54492 6.26367 9.07615 6.26367C9.00079 6.26367 8.92851 6.29361 8.87522 6.3469C8.82193 6.40019 8.79199 6.47247 8.79199 6.54783C8.79199 6.6232 8.82193 6.69548 8.87522 6.74877C8.92851 6.80206 9.00079 6.832 9.07615 6.832Z" fill="#474747"/>
<path d="M10.6894 12.2822C10.6223 12.2485 10.5445 12.2427 10.4732 12.2661C10.4018 12.2896 10.3427 12.3403 10.3086 12.4072C10.2911 12.4403 10.2805 12.4765 10.2774 12.5138C10.2742 12.5511 10.2786 12.5886 10.2903 12.6241C10.3019 12.6597 10.3206 12.6925 10.3453 12.7207C10.3699 12.7488 10.4 12.7717 10.4336 12.788C11.2748 13.2085 11.2748 14.5782 11.2748 15.0272C11.2748 15.1025 11.3047 15.1748 11.358 15.2281C11.4113 15.2814 11.4836 15.3113 11.5589 15.3113C11.6343 15.3113 11.7066 15.2814 11.7598 15.2281C11.8131 15.1748 11.8431 15.1025 11.8431 15.0272C11.8431 14.493 11.8431 12.8619 10.6894 12.2822Z" fill="#474747"/>
<path d="M11.5429 10.5605H11.5145C12.0092 10.0752 12.3482 9.45353 12.4882 8.77484C12.6283 8.09614 12.5631 7.39111 12.301 6.74961C12.0388 6.10811 11.5916 5.55918 11.0163 5.1728C10.441 4.78642 9.76373 4.58008 9.07073 4.58008C8.37774 4.58008 7.70043 4.78642 7.12515 5.1728C6.54986 5.55918 6.10265 6.10811 5.84051 6.74961C5.57837 7.39111 5.51318 8.09614 5.65324 8.77484C5.79329 9.45353 6.13226 10.0752 6.62694 10.5605C5.44483 11.5607 4.76852 12.2654 4.54688 15.1071C4.55843 15.3764 4.64487 15.6371 4.79647 15.86C4.94806 16.0829 5.15882 16.2591 5.40504 16.3687C6.5543 16.8985 7.81171 17.1515 9.07642 17.1076C10.3451 17.162 11.6087 16.9166 12.7648 16.3915C13.0171 16.2773 13.2316 16.0939 13.3836 15.8624C13.5355 15.631 13.6185 15.3611 13.623 15.0843C13.4014 12.2598 12.7251 11.5607 11.5429 10.5605ZM11.4179 8.04849C11.4179 8.51432 11.2796 8.96967 11.0206 9.35684C10.7615 9.74401 10.3934 10.0456 9.96281 10.2233C9.53221 10.4011 9.05855 10.447 8.60183 10.3553C8.14511 10.2636 7.7259 10.0383 7.3973 9.70815C7.06871 9.37796 6.84552 8.95766 6.75602 8.5005C6.66652 8.04334 6.71474 7.56991 6.89457 7.14018C7.0744 6.71046 7.37774 6.34378 7.76615 6.08662C8.15457 5.82945 8.61059 5.69338 9.07642 5.69563C9.69846 5.69863 10.294 5.94785 10.7328 6.38877C11.1716 6.82969 11.4179 7.42643 11.4179 8.04849ZM5.95632 15.4367C5.84103 15.383 5.74129 15.3008 5.66647 15.198C5.8597 12.7144 6.35414 12.2939 7.34303 11.4584L7.59877 11.2425L7.74085 11.305L8.56492 12.4416L7.57036 14.7149L8.59902 15.9709C7.68792 15.9755 6.78653 15.7836 5.95632 15.4083V15.4367ZM12.2079 15.4367C11.3702 15.8143 10.4613 16.0081 9.54244 16.005L10.5711 14.749L9.57654 12.4757L10.4006 11.3391L10.5597 11.2652L10.8212 11.4925C11.8101 12.328 12.3045 12.7485 12.4977 15.1923C12.4864 15.1866 12.3954 15.2946 12.1965 15.4083L12.2079 15.4367Z" fill="#474747"/>
</svg>
