<svg width="15" height="18" viewBox="0 0 15 18" fill="none" xmlns="http://www.w3.org/2000/svg">
<path d="M10.6622 0.6278C10.2612 0.224457 9.7154 -0.0017167 9.14656 9.8125e-06H2.14279C1.57469 0.000583787 1.03 0.226587 0.628231 0.628241C0.226431 1.03004 0.00058775 1.57474 0 2.1428V15.8572C0.000573975 16.4253 0.226435 16.97 0.628231 17.3718C1.03003 17.7734 1.57473 17.9994 2.14279 18H12.4284C12.9965 17.9994 13.5412 17.7734 13.943 17.3718C14.3448 16.97 14.5706 16.4253 14.5712 15.8572V5.42428C14.5726 4.85574 14.3466 4.3102 13.9434 3.90928L10.6622 0.6278ZM9.42824 0.890535C9.66601 0.942911 9.88382 1.06201 10.056 1.23377L13.3373 4.51504C13.5082 4.68794 13.6267 4.90549 13.6795 5.14283H10.714C10.3732 5.1424 10.0463 5.00694 9.80537 4.76586C9.5643 4.52479 9.4287 4.19805 9.42826 3.85712L9.42824 0.890535ZM13.714 15.8572C13.7136 16.198 13.5782 16.5249 13.3371 16.7658C13.096 17.0069 12.7693 17.1425 12.4283 17.1429H2.14272C1.80178 17.1425 1.47503 17.0069 1.23398 16.7658C0.992912 16.5249 0.857454 16.198 0.857013 15.8572V2.14281C0.857443 1.80201 0.992901 1.47513 1.23398 1.23422C1.47505 0.993153 1.80178 0.857548 2.14272 0.857107H8.57123V3.85713C8.57181 4.42523 8.79781 4.96992 9.19946 5.37169C9.60126 5.77349 10.146 5.99933 10.714 5.99992H13.714V15.8572ZM10.714 8.57133C10.9508 8.57133 11.1426 8.76332 11.1426 8.99994C11.1426 9.23656 10.9508 9.42856 10.714 9.42856H3.85718C3.62042 9.42856 3.42857 9.23656 3.42857 8.99994C3.42857 8.76332 3.62042 8.57133 3.85718 8.57133H10.714ZM11.1426 11.5713C11.1426 11.685 11.0976 11.7941 11.0172 11.8744C10.9369 11.9549 10.8278 12 10.714 12H3.85718C3.62042 12 3.42857 11.808 3.42857 11.5713C3.42857 11.3347 3.62042 11.1427 3.85718 11.1427H10.7144H10.7142C10.828 11.1427 10.9371 11.1878 11.0174 11.2683C11.0978 11.3486 11.1429 11.4577 11.1429 11.5713H11.1426ZM11.1426 14.1428C11.1426 14.2564 11.0976 14.3655 11.0172 14.4458C10.9369 14.5263 10.8278 14.5714 10.714 14.5714H3.85718C3.62042 14.5714 3.42857 14.3794 3.42857 14.1428C3.42857 13.9061 3.62042 13.7141 3.85718 13.7141H10.7144H10.7142C10.828 13.7141 10.9371 13.7592 11.0174 13.8397C11.0978 13.9201 11.1429 14.0291 11.1429 14.1428H11.1426Z" fill="#F12A23"/>
</svg>
