<svg width="20" height="21" viewBox="0 0 20 21" fill="none" xmlns="http://www.w3.org/2000/svg">
<path d="M10.3541 4.02298C11.2155 4.02298 11.9156 3.32289 11.9156 2.46149C11.9156 1.60009 11.2155 0.9 10.3541 0.9C9.49267 0.9 8.79258 1.60009 8.79258 2.46149C8.79258 3.32289 9.49267 4.02298 10.3541 4.02298ZM10.3541 1.68454C10.7835 1.68454 11.131 2.03187 11.131 2.46149C11.131 2.89093 10.7837 3.23844 10.3541 3.23844C9.92463 3.23844 9.57712 2.89111 9.57712 2.46149C9.57712 2.03207 9.92464 1.68454 10.3541 1.68454Z" fill="#5AB4F5" stroke="#5AB4F5" stroke-width="0.2"/>
<path d="M13.3758 7.13781V7.13782C13.3758 7.35397 13.1993 7.5302 12.9834 7.5302H7.72207C7.50592 7.5302 7.32969 7.35367 7.32969 7.13782C7.32969 5.47001 8.68482 4.11487 10.3526 4.11484L13.3758 7.13781ZM13.3758 7.13781C13.3756 5.47001 12.0205 4.11487 10.3527 4.11484L13.3758 7.13781ZM12.5576 6.74542H8.14753C8.33305 5.69751 9.25156 4.89939 10.3527 4.89939C11.4535 4.89939 12.37 5.69729 12.5576 6.74542Z" fill="#5AB4F5" stroke="#5AB4F5" stroke-width="0.2"/>
<path d="M3.92243 14.5464C4.78382 14.5464 5.48392 13.8463 5.48392 12.9849C5.48392 12.1235 4.78382 11.4234 3.92243 11.4234C3.06103 11.4234 2.36094 12.1235 2.36094 12.9849C2.36094 13.8463 3.06081 14.5464 3.92243 14.5464ZM3.92243 12.208C4.35187 12.208 4.69937 12.5553 4.69937 12.9849C4.69937 13.4144 4.35205 13.7619 3.92243 13.7619C3.49299 13.7619 3.14548 13.4145 3.14548 12.9849C3.14548 12.5553 3.49279 12.208 3.92243 12.208Z" fill="#5AB4F5" stroke="#5AB4F5" stroke-width="0.2"/>
<path d="M6.94613 17.6612V17.6613C6.94613 17.8774 6.76959 18.0536 6.55374 18.0536H1.29238C1.07623 18.0536 0.9 17.8771 0.9 17.6613C0.9 15.9934 2.25513 14.6383 3.92294 14.6383L6.94613 17.6612ZM6.94613 17.6612C6.94591 15.9937 5.59058 14.6383 3.92298 14.6383L6.94613 17.6612ZM6.12788 17.2691H1.71784C1.90337 16.2212 2.82187 15.423 3.92298 15.423C5.02381 15.423 5.94027 16.2209 6.12788 17.2691Z" fill="#5AB4F5" stroke="#5AB4F5" stroke-width="0.2"/>
<path d="M15.2223 12.9849C15.2223 13.8463 15.9224 14.5464 16.7838 14.5464C17.6452 14.5464 18.3452 13.8463 18.3452 12.9849C18.3452 12.1235 17.6452 11.4234 16.7838 11.4234C15.9224 11.4234 15.2223 12.1233 15.2223 12.9849ZM17.5607 12.9849C17.5607 13.4144 17.2134 13.7619 16.7838 13.7619C16.3543 13.7619 16.0068 13.4145 16.0068 12.9849C16.0068 12.5555 16.3541 12.208 16.7838 12.208C17.2134 12.208 17.5607 12.5553 17.5607 12.9849Z" fill="#5AB4F5" stroke="#5AB4F5" stroke-width="0.2"/>
<path d="M19.8075 17.6612V17.6613C19.8075 17.8774 19.6309 18.0536 19.4151 18.0536H14.1537C13.9376 18.0536 13.7613 17.8771 13.7613 17.6613C13.7613 15.9934 15.1165 14.6383 16.7843 14.6383L19.8075 17.6612ZM19.8075 17.6612C19.8072 15.9937 18.4521 14.6383 16.7843 14.6383L19.8075 17.6612ZM18.9892 17.2691H14.5792C14.7647 16.2212 15.6832 15.423 16.7843 15.423C17.8851 15.423 18.8016 16.2209 18.9892 17.2691Z" fill="#5AB4F5" stroke="#5AB4F5" stroke-width="0.2"/>
<path d="M6.96842 6.44855L6.96962 6.4516L6.9698 6.45205C6.97091 6.45482 6.97288 6.45968 6.97471 6.46489C6.97634 6.46952 6.97828 6.47554 6.97994 6.48255C6.98039 6.48424 6.98079 6.4859 6.98115 6.48752L6.98793 6.49079V6.55356C6.98793 6.57417 6.98299 6.59107 6.97917 6.60146C6.97916 6.60825 6.97887 6.6216 6.976 6.63597L6.97517 6.64009L6.97509 6.64007L6.72672 7.65756C6.72669 7.65771 6.72665 7.65785 6.72662 7.658C6.68397 7.83788 6.52349 7.95868 6.3468 7.95868C6.31706 7.95868 6.28834 7.95534 6.25873 7.94937L6.25422 7.94846L6.25424 7.94835C6.05301 7.89804 5.92329 7.69852 5.96259 7.49476C4.98159 8.32308 4.24869 9.41423 3.8603 10.6486C3.80799 10.8154 3.65417 10.9232 3.48721 10.9232C3.44731 10.9232 3.40779 10.9166 3.36939 10.9039C3.15988 10.8407 3.04665 10.6184 3.1117 10.4131M6.96842 6.44855L3.20706 10.4432M6.96842 6.44855L6.96691 6.44329L6.9664 6.44149C6.96224 6.42689 6.95576 6.40418 6.94336 6.37987L6.93871 6.36594L6.93647 6.3592L6.93329 6.35284C6.92816 6.34259 6.92236 6.33488 6.91797 6.32968C6.9169 6.32842 6.91584 6.32722 6.91485 6.32614C6.91461 6.32579 6.91437 6.32546 6.91413 6.32513C6.91136 6.32127 6.90873 6.31812 6.90672 6.31581C6.90512 6.31398 6.90352 6.31226 6.90216 6.31085L6.89865 6.30663C6.89799 6.30584 6.89693 6.30448 6.89552 6.30268C6.88809 6.29318 6.87101 6.27133 6.85212 6.25481C6.85156 6.25413 6.85091 6.25336 6.85018 6.25252L6.85029 6.25239L6.84976 6.25203C6.84493 6.2465 6.83694 6.23826 6.82633 6.23076C6.81089 6.21957 6.79595 6.21356 6.78871 6.21073L6.78349 6.20874L6.78162 6.20803C6.76429 6.19828 6.7441 6.18799 6.71939 6.18048C6.71898 6.18031 6.71856 6.18015 6.71813 6.17998L6.71057 6.17621L6.69859 6.17021L6.68546 6.16759C6.66922 6.16434 6.65428 6.1644 6.64865 6.16442C6.64825 6.16442 6.6479 6.16442 6.6476 6.16442C6.64723 6.16442 6.6469 6.16442 6.64658 6.16442L6.64553 6.16411L6.6409 6.16271L6.6405 6.16259C6.63439 6.16078 6.61776 6.15586 6.59775 6.15586H5.38727C5.17142 6.15586 4.99489 6.33209 4.99489 6.54824C4.99489 6.76409 5.17112 6.94062 5.38727 6.94062H5.40736M6.96842 6.44855L5.52588 6.84062M3.1117 10.4131C3.11171 10.4131 3.11173 10.413 3.11175 10.4129L3.20706 10.4432M3.1117 10.4131C3.11168 10.4132 3.11167 10.4132 3.11165 10.4132L3.20706 10.4432M3.1117 10.4131C3.53789 9.05568 4.33993 7.85964 5.40736 6.94062M3.20706 10.4432C3.63931 9.06639 4.46362 7.85745 5.562 6.94062H5.40736M5.40736 6.94062C5.44651 6.90691 5.48602 6.87358 5.52588 6.84062M5.52588 6.84062H5.68434H5.52588ZM6.00078 7.33331L5.96705 7.4745L5.96694 7.47497L5.98187 7.47854C5.98215 7.47831 5.98242 7.47808 5.98269 7.47785L6.00078 7.33331ZM6.00078 7.33331C6.04264 7.29932 6.08492 7.26579 6.12761 7.23274L6.00078 7.33331ZM6.96768 6.44669L6.96768 6.44668L6.96768 6.44669Z" fill="#5AB4F5" stroke="#5AB4F5" stroke-width="0.2"/>
<path d="M12.744 18.3851L12.7489 18.3832L12.7489 18.3833C12.9484 18.3125 13.174 18.4114 13.2495 18.611C13.328 18.8143 13.2233 19.0426 13.0207 19.1179C12.1641 19.4413 11.2606 19.6018 10.3575 19.6018C9.8606 19.6018 9.36416 19.5494 8.87537 19.4505L8.88675 19.4649L8.88752 19.4659L8.88751 19.4659C9.01816 19.6356 8.98877 19.88 8.81972 20.014C8.74686 20.0733 8.66103 20.0995 8.57685 20.0995C8.45911 20.0995 8.34508 20.0468 8.26741 19.9499L8.26668 19.949L8.26669 19.949L7.52128 18.9966L7.51508 18.9887L7.51058 18.9797C7.5086 18.9757 7.50704 18.9721 7.50603 18.9697L7.5038 18.9643C7.50322 18.9634 7.50251 18.9623 7.50162 18.961C7.50054 18.9594 7.4992 18.9574 7.49748 18.9548C7.49489 18.951 7.49159 18.946 7.48807 18.9401C7.48638 18.938 7.48474 18.9357 7.48315 18.9333C7.47618 18.9229 7.47161 18.9119 7.46895 18.901C7.46871 18.9001 7.46849 18.8991 7.46829 18.8982L12.744 18.3851ZM12.744 18.3851L12.7435 18.3853C11.5323 18.8403 10.2213 18.9327 8.96471 18.6697C9.14729 18.5745 9.2254 18.3518 9.14096 18.1606L9.14096 18.1606L9.14066 18.1599C9.0519 17.9629 8.81984 17.8758 8.62169 17.9633L8.62168 17.9633L8.62063 17.9638L7.66975 18.397C7.64997 18.4054 7.63614 18.4167 7.62845 18.4234L7.62633 18.4253L7.62565 18.4256C7.6174 18.4292 7.60441 18.4354 7.5906 18.446L7.59007 18.4453L7.5807 18.4546C7.57836 18.457 7.57627 18.4593 7.57446 18.4614C7.56711 18.4664 7.55591 18.4745 7.54644 18.484C7.52973 18.5007 7.52085 18.5182 7.51709 18.5257L7.51501 18.5299L7.51437 18.5308C7.51368 18.5319 7.51297 18.533 7.51224 18.534C7.50329 18.5474 7.49211 18.5642 7.48115 18.5838L7.48106 18.5839C7.47949 18.586 7.47752 18.5887 7.47558 18.5916C7.47137 18.5979 7.46561 18.6077 7.46132 18.6205C7.45727 18.6327 7.45578 18.6439 7.45525 18.6516C7.45318 18.6599 7.45216 18.6673 7.45168 18.6732C7.44716 18.6934 7.44465 18.7109 7.4426 18.7253L7.44251 18.7259L7.44151 18.7329V18.7357C7.44149 18.7358 7.44148 18.7359 7.44146 18.736L7.44141 18.7364C7.44071 18.7409 7.43906 18.7515 7.43906 18.7643C7.43906 18.7839 7.44309 18.7997 7.4455 18.8083L7.4471 18.8138L7.44802 18.817C7.4511 18.8382 7.45602 18.8567 7.46006 18.871M12.744 18.3851L7.46006 18.871M7.46006 18.871C7.46131 18.8785 7.46365 18.8877 7.46799 18.8975L7.46006 18.871Z" fill="#5AB4F5" stroke="#5AB4F5" stroke-width="0.2"/>
<path d="M17.6098 8.98596C17.3999 8.93361 17.1876 9.06176 17.1355 9.2734L17.1355 9.27347L17.1315 9.28989C16.4989 8.03074 15.5312 6.96443 14.3179 6.22577C14.1321 6.11185 13.8943 6.17057 13.7801 6.35396C13.6566 6.53547 13.7199 6.77862 13.9047 6.88878L13.9057 6.88938C15.0094 7.56323 15.8894 8.53969 16.4571 9.69201C16.2673 9.60397 16.0429 9.68079 15.9452 9.86698C15.8437 10.0603 15.9194 10.2958 16.1114 10.3965L17.0395 10.8836L17.0395 10.8836L17.0413 10.8845C17.0519 10.8898 17.0616 10.8933 17.0675 10.8954C17.0693 10.896 17.0707 10.8966 17.0719 10.897C17.0756 10.8983 17.0775 10.8989 17.0799 10.8999L17.0798 10.9001L17.0834 10.9013L17.0868 10.9029C17.092 10.9053 17.1031 10.9104 17.1171 10.914L17.1196 10.9146C17.1207 10.9149 17.1219 10.9153 17.1231 10.9156C17.1253 10.9162 17.1288 10.9171 17.133 10.9179C17.1349 10.9182 17.1375 10.9186 17.1406 10.9189C17.1624 10.9237 17.1925 10.9293 17.2246 10.9293H17.2271C17.2611 10.9293 17.2932 10.9239 17.3222 10.9166C17.3243 10.9164 17.3266 10.9161 17.3291 10.9157C17.3359 10.9146 17.3465 10.9121 17.3583 10.9062C17.3618 10.9045 17.3656 10.9023 17.3695 10.8997L17.3705 10.8992L17.3719 10.8985C17.3719 10.8985 17.3719 10.8985 17.372 10.8985C17.4009 10.8876 17.4249 10.8736 17.4463 10.8587L17.4517 10.8553L17.452 10.8552C17.4544 10.8537 17.4581 10.8515 17.4624 10.8487C17.4785 10.839 17.4883 10.8277 17.492 10.8234L17.4947 10.8202C17.5104 10.8042 17.5226 10.7891 17.5325 10.7764L17.5326 10.7764L17.5338 10.7747L17.5369 10.7708L17.543 10.7633C17.5465 10.7588 17.5517 10.7521 17.5569 10.7434C17.5593 10.7405 17.5625 10.7363 17.5656 10.7313C17.5692 10.7257 17.5725 10.7194 17.5753 10.7124C17.5817 10.698 17.5845 10.6854 17.5858 10.6787L17.5859 10.6784C17.5865 10.6771 17.5873 10.6755 17.5884 10.6734L17.5888 10.6725C17.5916 10.667 17.5964 10.6575 17.6005 10.6473L17.6014 10.6476L17.6047 10.6343L17.8971 9.46037C17.8971 9.46035 17.8971 9.46033 17.8971 9.46031C17.9494 9.25042 17.8214 9.03814 17.6098 8.98596ZM17.6098 8.98596C17.6099 8.98597 17.6099 8.98598 17.61 8.98599L17.5857 9.08301L17.6096 8.98591C17.6097 8.98592 17.6098 8.98594 17.6098 8.98596ZM16.5284 9.84134C16.5087 9.79863 16.4885 9.75615 16.4678 9.7139L16.4283 9.78928M16.5284 9.84134L16.4676 9.71351L16.4283 9.78928M16.5284 9.84134L16.4283 9.78928M16.5284 9.84134L16.4283 9.78928M16.4747 9.70073C16.4747 9.7007 16.4746 9.70066 16.4745 9.70063L14.0424 6.85657C15.1609 7.56216 16.0457 8.57684 16.6047 9.76828L16.4747 9.70073ZM17.0821 10.9007L17.0821 10.9007L17.0821 10.9007ZM17.3123 10.835L17.3123 10.8349V10.8171L17.3123 10.835ZM17.4955 10.8191C17.4956 10.8191 17.4956 10.8191 17.4955 10.8191L17.4955 10.8191ZM17.5527 10.7484L17.5531 10.7479C17.5523 10.7489 17.5518 10.7495 17.552 10.7492L17.5523 10.7489L17.5527 10.7484ZM17.587 10.6723C17.5871 10.6722 17.5871 10.6722 17.587 10.6724L17.587 10.6723Z" fill="#5AB4F5" stroke="#5AB4F5" stroke-width="0.2"/>
</svg>
