<svg width="29" height="29" viewBox="0 0 29 29" fill="none" xmlns="http://www.w3.org/2000/svg">
<path d="M14.6574 25.8562C8.91131 25.8562 2.38226 18.9348 2.90441 13.1887C3.42656 7.70395 10.7398 2.61098 16.159 3.39451C20.9257 4.04705 25.1703 10.0546 24.9083 14.8213C24.6481 19.8481 19.6849 25.8562 14.6574 25.8562Z" fill="white"/>
<path d="M18.7709 28.7943C18.3785 28.6639 17.7908 28.5335 17.4646 28.4025C17.0728 28.2072 16.6155 28.2072 15.1795 28.2721C13.8083 28.337 13.0896 28.2721 12.1108 28.1411C6.88685 27.2278 2.70779 23.4405 1.20622 18.2172C0.944841 17.2378 0.879954 16.7156 0.879954 14.365C0.879954 11.8179 0.814455 11.6226 0.488187 10.5777C-1.40515 5.41924 2.44702 0 7.93177 0C9.04157 0 10.4128 0.326881 11.1963 0.718036C11.7191 0.979418 12.0453 1.0443 14.069 1.0443C15.8975 1.0443 16.6155 1.1098 17.5295 1.37119C21.6436 2.4161 24.973 5.09297 26.736 8.81476C27.8458 11.0999 28.2382 13.4511 27.9762 16.1273C27.8458 17.5646 27.8458 17.695 28.1721 18.5434C29.217 21.6127 28.2376 25.138 25.6911 27.2278C24.9069 27.881 23.3405 28.599 22.361 28.8604C21.381 29.0563 19.8146 29.0563 18.8345 28.7949H18.7709V28.7943ZM17.0073 23.7668C19.1626 23.3102 21.0554 22.0039 21.774 20.4374C22.6879 18.5434 22.4265 16.3232 21.1864 14.952C20.1414 13.7767 18.5744 13.1242 14.8526 12.2103C12.371 11.6226 11.7833 11.3612 11.2612 10.7736C10.8039 10.2508 10.7384 9.85968 11.1308 9.27203C11.5226 8.61888 12.502 8.22711 13.8077 8.16223C15.7016 8.03184 16.55 8.48849 17.6598 10.2514C18.5089 11.5577 19.3573 11.884 20.4683 11.3612C21.9044 10.6432 21.774 8.29261 20.2063 6.92143C18.7048 5.68124 17.0728 5.15847 14.3298 5.15847C11.4571 5.15847 9.49761 5.74612 8.19192 7.05181C7.14701 8.09673 6.95174 8.68438 6.95174 10.3163C6.95174 12.0138 7.14762 12.5359 8.25742 13.516C9.43272 14.6258 10.4121 15.0182 13.9374 15.8666C16.419 16.4542 17.0722 16.7805 17.6592 17.4336C17.9212 17.7605 18.0516 18.0213 18.0516 18.6089C18.0516 19.2621 17.9861 19.3925 17.464 19.9152C16.6804 20.6982 15.5051 21.0244 14.0035 20.9602C12.2406 20.8292 11.4571 20.307 10.5431 18.4786C9.88999 17.2384 9.36784 16.7811 8.51881 16.7811C6.62486 16.7811 5.97232 18.3482 6.95174 20.3719C7.80077 22.1355 9.49822 23.3108 11.6529 23.7674C12.9586 24.0288 15.832 24.0288 17.0728 23.7674H17.0073V23.7668Z" fill="#00AFF0"/>
</svg>
