<svg width="36" height="42" viewBox="0 0 36 42" fill="none" xmlns="http://www.w3.org/2000/svg">
<path d="M19.0407 16.1119H16.1113V14.6472C16.1113 13.8383 16.7672 13.1825 17.576 13.1825C18.3849 13.1825 19.0407 13.8383 19.0407 14.6472V16.1119Z" fill="white"/>
<path fill-rule="evenodd" clip-rule="evenodd" d="M16.7898 0.228776C17.2695 -0.0762587 17.8829 -0.0762587 18.3624 0.228776L21.6211 2.30254C24.5766 4.18314 27.9389 5.33004 31.4271 5.64717L33.82 5.86459C34.5746 5.93325 35.1523 6.56589 35.1523 7.32344V21.2532C35.1523 26.7618 32.338 31.8886 27.6905 34.8465L18.3624 40.7828C17.8828 41.0878 17.2694 41.0878 16.7898 40.7828L7.46178 34.8465C2.81432 31.8889 0 26.7621 0 21.2532V7.32344C0 6.56591 0.577704 5.93331 1.33196 5.86459L3.7252 5.64717C7.21371 5.33004 10.576 4.18314 13.5312 2.30254L16.7898 0.228776ZM21.9703 14.6473V16.3621C23.677 16.9653 24.8997 18.5928 24.8997 20.5061V23.4355C24.8997 25.8624 22.9325 27.8296 20.5056 27.8296H14.6468C12.2199 27.8296 10.2527 25.8624 10.2527 23.4355V20.5061C10.2527 18.5929 11.4754 16.9653 13.1821 16.3621V14.6473C13.1821 12.2204 15.1493 10.2532 17.5762 10.2532C20.0031 10.2532 21.9703 12.2204 21.9703 14.6473Z" fill="white"/>
<path d="M15.5689 23.2H14.2889C15.2789 22.31 15.5639 21.88 15.5639 21.395C15.5639 20.72 15.0739 20.185 14.2739 20.185C13.5939 20.185 13.0439 20.555 12.9089 21.265L13.7689 21.445C13.8089 21.16 13.9839 20.985 14.2539 20.985C14.5089 20.985 14.6739 21.15 14.6739 21.415C14.6739 21.69 14.4639 22.06 13.4939 22.94L13.0639 23.33V24H15.5689V23.2ZM16.0958 24H16.9958V22.62H18.1558V21.82H16.9958V21.05H18.5608V20.25H16.0958V24ZM18.3093 24H19.1993L19.5193 23.095H20.8393L21.1593 24H22.0893L20.6843 20.25H19.7193L18.3093 24ZM19.8143 22.27L20.1843 21.225L20.5493 22.27H19.8143Z" fill="white"/>
</svg>
