<svg width="16" height="15" viewBox="0 0 16 15" fill="none" xmlns="http://www.w3.org/2000/svg">
<path d="M8 14H12.8C13.22 14 13.4304 14 13.5908 13.9182C13.7319 13.8463 13.8461 13.7316 13.918 13.5905C13.9997 13.4301 14 13.22 14 12.8V9.19998C14 8.77994 13.9997 8.56995 13.918 8.40952C13.8461 8.26839 13.7319 8.15365 13.5908 8.08175C13.4304 8 13.2197 8 12.7997 8H9.19971M8 14V9.19998M8 14H3.19971C2.77967 14 2.56986 14 2.40942 13.9182C2.2683 13.8463 2.15365 13.7316 2.08175 13.5905C2 13.4301 2 13.22 2 12.8V9.19998C2 8.77994 2 8.56995 2.08175 8.40952C2.15365 8.26839 2.2683 8.15365 2.40942 8.08175C2.56986 8 2.77967 8 3.19971 8H6.79971M8 9.19998C8 8.77994 8 8.56995 8.08175 8.40952C8.15365 8.26839 8.2683 8.15365 8.40942 8.08175C8.56986 8 8.77967 8 9.19971 8M8 9.19998C8 8.77994 7.99971 8.56995 7.91797 8.40952C7.84606 8.26839 7.73191 8.15365 7.59079 8.08175C7.43035 8 7.21975 8 6.79971 8M9.19971 8H13.5497C13.9697 8 14.1804 7.99999 14.3408 7.91824C14.4819 7.84634 14.5961 7.73163 14.668 7.59051C14.7497 7.43008 14.75 7.22002 14.75 6.79998V6.19998C14.75 5.77994 14.7497 5.56995 14.668 5.40952C14.5961 5.26839 14.4819 5.15365 14.3408 5.08175C14.1804 5 13.9697 5 13.5497 5H9.19971C8.77967 5 8.56986 5 8.40942 5.08175C8.2683 5.15365 8.15365 5.26839 8.08175 5.40952C8 5.56995 8 5.77994 8 6.19998M9.19971 8C8.77967 8 8.56986 7.99999 8.40942 7.91824C8.2683 7.84634 8.15365 7.73163 8.08175 7.59051C8 7.43008 8 7.22002 8 6.79998M6.79971 8H2.44971C2.02967 8 1.81986 7.99999 1.65942 7.91824C1.5183 7.84634 1.40365 7.73163 1.33175 7.59051C1.25 7.43008 1.25 7.22002 1.25 6.79998V6.19998C1.25 5.77994 1.25 5.56995 1.33175 5.40952C1.40365 5.26839 1.5183 5.15365 1.65942 5.08175C1.81986 5 2.02967 5 2.44971 5H6.79971C7.21975 5 7.43035 5 7.59079 5.08175C7.73191 5.15365 7.84606 5.26839 7.91797 5.40952C7.99971 5.56995 8 5.77994 8 6.19998M6.79971 8C7.21975 8 7.43035 7.99999 7.59079 7.91824C7.73191 7.84634 7.84606 7.73163 7.91797 7.59051C7.99971 7.43008 8 7.22002 8 6.79998M8 6.79998V6.19998M8 3.125V5M8 3.125C8 2.08947 8.83947 1.25 9.875 1.25C10.9105 1.25 11.75 2.08947 11.75 3.125C11.75 4.16053 10.9105 5 9.875 5H8M8 3.125C8 2.08947 7.16053 1.25 6.125 1.25C5.08947 1.25 4.25 2.08947 4.25 3.125C4.25 4.16053 5.08947 5 6.125 5H8" stroke="#9A9A9A" stroke-width="1.5" stroke-linecap="round" stroke-linejoin="round"/>
</svg>
