<svg width="19" height="17" viewBox="0 0 19 17" fill="none" xmlns="http://www.w3.org/2000/svg">
<path d="M6.94881 12.3236C7.73535 14.562 9.86784 16.1669 12.3751 16.1669C13.5066 16.1669 14.5617 15.84 15.4512 15.2755L16.6703 15.6819C17.1385 15.838 17.3729 15.916 17.5286 15.8605C17.6641 15.8122 17.7705 15.7056 17.8188 15.5701C17.8743 15.4144 17.7965 15.1803 17.6404 14.7121L17.2341 13.493L17.3702 13.2673C17.8507 12.4271 18.1254 11.454 18.1254 10.4168C18.1254 7.2412 15.5506 4.66683 12.375 4.66683L12.1597 4.6708L12.0512 4.67656M6.62506 12.3336C5.49355 12.3336 4.43837 12.0067 3.54879 11.4423L2.32981 11.8487C1.86162 12.0047 1.62729 12.0827 1.47162 12.0272C1.33615 11.9789 1.2294 11.8722 1.18109 11.7368C1.12558 11.5811 1.20372 11.347 1.35978 10.8788L1.76614 9.65971C1.20173 8.77012 0.875 7.71501 0.875 6.5835C0.875 3.40786 3.44936 0.833496 6.625 0.833496C9.80064 0.833496 12.375 3.40786 12.375 6.5835C12.375 9.75913 9.8007 12.3336 6.62506 12.3336Z" stroke="#F12A23" stroke-width="1.5" stroke-linecap="round" stroke-linejoin="round"/>
</svg>
