<svg width="25" height="17" viewBox="0 0 25 17" fill="none" xmlns="http://www.w3.org/2000/svg">
<path d="M13.0539 16.9777L7.92483 16.8855C6.26416 16.8534 4.59936 16.9175 2.97126 16.5846C0.494535 16.0872 0.319075 13.6485 0.135475 11.6028C-0.117507 8.72687 -0.0195703 5.79873 0.45784 2.9468C0.727354 1.34656 1.788 0.39169 3.42825 0.287782C8.96531 -0.089316 14.5392 -0.0446259 20.064 0.131304C20.6475 0.147432 21.235 0.235581 21.8103 0.335919C24.6504 0.825297 24.7196 3.58896 24.9037 5.91544C25.0873 8.26594 25.0098 10.6285 24.6589 12.963C24.3773 14.8959 23.8387 16.5168 21.5655 16.6733C18.7173 16.8779 15.9345 17.0426 13.0783 16.9902C13.0784 16.9777 13.062 16.9777 13.0539 16.9777ZM10.0385 12.0842C12.1848 10.8728 14.2902 9.6815 16.4243 8.47819C14.2739 7.26674 12.1726 6.07549 10.0385 4.87218V12.0842Z" fill="#FF0000"/>
</svg>
