<svg width="31" height="31" viewBox="0 0 31 31" fill="none" xmlns="http://www.w3.org/2000/svg">
<path d="M0.9 15.7349C0.9 17.0521 1.92746 18.1311 3.19994 18.1311H27.8001C29.0725 18.1311 30.1 17.0521 30.1 15.7349V3.29622C30.1 1.9793 29.0725 0.9 27.8001 0.9H3.19994C1.92746 0.9 0.9 1.9793 0.9 3.29622V15.7349ZM2.26 3.29622C2.26 2.71648 2.69009 2.26 3.19994 2.26H27.8001C28.3099 2.26 28.74 2.71649 28.74 3.29622V15.7349C28.74 16.3146 28.3099 16.7711 27.8001 16.7711H3.19998C3.19997 16.7711 3.19995 16.7711 3.19994 16.7711C2.69007 16.7709 2.26 16.3146 2.26 15.7347V3.29622Z" fill="#56CE60" stroke="#56CE60" stroke-width="0.2"/>
<path d="M15.7649 11.8736H15.7775C16.4635 11.8736 16.9852 11.4215 16.985 10.9072V10.9071C16.985 10.3926 16.4633 9.94114 15.7773 9.94114C14.3717 9.94114 13.2096 8.90711 13.2096 7.61446C13.2096 6.53943 14.0181 5.64847 15.0957 5.37837V4.83C15.0957 4.45419 15.3999 4.15 15.7757 4.15C16.1515 4.15 16.4557 4.45415 16.4557 4.82993L15.7649 11.8736ZM15.7649 11.8736C15.0852 11.868 14.5698 11.4186 14.5698 10.9069C14.5698 10.5311 14.2656 10.2269 13.8898 10.2269C13.514 10.2269 13.2098 10.5311 13.2098 10.9069C13.2098 11.9824 14.0183 12.8734 15.096 13.1435V13.6891C15.096 14.0649 15.4002 14.3691 15.776 14.3691C16.1518 14.3691 16.456 14.0649 16.456 13.6891V13.1444C17.5355 12.8754 18.3455 11.9835 18.3455 10.9069C18.3455 9.61492 17.1833 8.5809 15.7778 8.5809C15.0918 8.5809 14.5701 8.1291 14.5701 7.61423C14.5701 7.10179 15.0879 6.65221 15.7697 6.6485C15.7718 6.64862 15.7739 6.6487 15.7762 6.6487C15.7796 6.6487 15.7827 6.64854 15.7856 6.64827C16.4678 6.65175 16.9857 7.10164 16.9857 7.61423C16.9857 7.99004 17.2899 8.29423 17.6657 8.29423C18.0415 8.29423 18.3457 7.99004 18.3457 7.61423C18.3457 6.53806 17.5356 5.64616 16.4561 5.37714L16.4557 4.83L15.7649 11.8736Z" fill="#56CE60" stroke="#56CE60" stroke-width="0.2"/>
<path d="M23.3671 6.59203H26.1289C26.5047 6.59203 26.8089 6.28784 26.8089 5.91203C26.8089 5.53622 26.5047 5.23203 26.1289 5.23203H23.3671C22.9913 5.23203 22.6871 5.53622 22.6871 5.91203C22.6871 6.28784 22.9913 6.59203 23.3671 6.59203Z" fill="#56CE60" stroke="#56CE60" stroke-width="0.2"/>
<path d="M23.3671 9.93969H26.1289C26.5047 9.93969 26.8089 9.6355 26.8089 9.25969C26.8089 8.88388 26.5047 8.57969 26.1289 8.57969H23.3671C22.9913 8.57969 22.6871 8.88388 22.6871 9.25969C22.6871 9.6355 22.9913 9.93969 23.3671 9.93969Z" fill="#56CE60" stroke="#56CE60" stroke-width="0.2"/>
<path d="M23.3671 13.2893H26.1289C26.5047 13.2893 26.8089 12.9851 26.8089 12.6093C26.8089 12.2335 26.5047 11.9293 26.1289 11.9293H23.3671C22.9913 11.9293 22.6871 12.2335 22.6871 12.6093C22.6871 12.9854 22.9913 13.2893 23.3671 13.2893Z" fill="#56CE60" stroke="#56CE60" stroke-width="0.2"/>
<path d="M4.87102 6.59203H7.6328C8.00861 6.59203 8.3128 6.28784 8.3128 5.91203C8.3128 5.53622 8.00861 5.23203 7.6328 5.23203H4.87102C4.4952 5.23203 4.19102 5.53622 4.19102 5.91203C4.19102 6.28784 4.4952 6.59203 4.87102 6.59203Z" fill="#56CE60" stroke="#56CE60" stroke-width="0.2"/>
<path d="M4.87102 9.93969H7.6328C8.00861 9.93969 8.3128 9.6355 8.3128 9.25969C8.3128 8.88388 8.00861 8.57969 7.6328 8.57969H4.87102C4.4952 8.57969 4.19102 8.88388 4.19102 9.25969C4.19102 9.6355 4.4952 9.93969 4.87102 9.93969Z" fill="#56CE60" stroke="#56CE60" stroke-width="0.2"/>
<path d="M4.87102 13.2893H7.6328C8.00861 13.2893 8.3128 12.9851 8.3128 12.6093C8.3128 12.2335 8.00861 11.9293 7.6328 11.9293H4.87102C4.4952 11.9293 4.19102 12.2335 4.19102 12.6093C4.19102 12.9854 4.49523 13.2893 4.87102 13.2893Z" fill="#56CE60" stroke="#56CE60" stroke-width="0.2"/>
<path d="M1.58 21.1223H29.42C29.7958 21.1223 30.1 20.8181 30.1 20.4423C30.1 20.0665 29.7958 19.7623 29.42 19.7623H1.58C1.20419 19.7623 0.9 20.0665 0.9 20.4423C0.9 20.8181 1.20419 21.1223 1.58 21.1223Z" fill="#56CE60" stroke="#56CE60" stroke-width="0.2"/>
<path d="M1.58 24.1164H29.42C29.7958 24.1164 30.1 23.8123 30.1 23.4364C30.1 23.0606 29.7958 22.7564 29.42 22.7564H1.58C1.20419 22.7564 0.9 23.0606 0.9 23.4364C0.9 23.8123 1.20419 24.1164 1.58 24.1164Z" fill="#56CE60" stroke="#56CE60" stroke-width="0.2"/>
<path d="M1.58 27.1096H29.42C29.7958 27.1096 30.1 26.8054 30.1 26.4296C30.1 26.0538 29.7958 25.7496 29.42 25.7496H1.58C1.20419 25.7496 0.9 26.0538 0.9 26.4296C0.9 26.8057 1.20421 27.1096 1.58 27.1096Z" fill="#56CE60" stroke="#56CE60" stroke-width="0.2"/>
<path d="M1.58 30.0998H29.42C29.7958 30.0998 30.1 29.7957 30.1 29.4198C30.1 29.044 29.7958 28.7398 29.42 28.7398H1.58C1.20419 28.7398 0.9 29.044 0.9 29.4198C0.9 29.7957 1.20419 30.0998 1.58 30.0998Z" fill="#56CE60" stroke="#56CE60" stroke-width="0.2"/>
</svg>
