<svg width="140" height="99" viewBox="0 0 140 99" fill="none" xmlns="http://www.w3.org/2000/svg">
<path d="M126.064 48.6233L108.086 98M126.064 48.6233L90.1075 6.99999M126.064 48.6233L12.0645 24.9552M108.086 98L29.6344 90.6547M108.086 98L90.1075 6.99999M108.086 98L12.0645 24.9552M29.6344 90.6547L12.0645 24.9552M29.6344 90.6547L90.1075 6.99999M12.0645 24.9552L90.1075 6.99999" stroke="#F5F5F5"/>
<path d="M126.064 48.6233L108.086 98L29.6344 90.6547L12.0645 24.9552L90.1075 7L126.064 48.6233Z" fill="white"/>
<path d="M89.3978 81.334C89.3978 75.2589 81.1897 70.334 71.0645 70.334C60.9392 70.334 52.7311 75.2589 52.7311 81.334M104.064 70.3336C104.064 65.8229 99.5394 61.9463 93.0645 60.2489M38.0645 70.3336C38.0645 65.8229 42.5895 61.9463 49.0645 60.2489M93.0645 45.533C95.3149 43.5189 96.7311 40.5918 96.7311 37.334C96.7311 31.2589 91.8063 26.334 85.7311 26.334C82.9138 26.334 80.3439 27.3931 78.3978 29.1349M49.0645 45.533C46.814 43.5189 45.3978 40.5918 45.3978 37.334C45.3978 31.2589 50.3227 26.334 56.3978 26.334C59.2151 26.334 61.785 27.3931 63.7311 29.1349M71.0645 59.334C64.9893 59.334 60.0645 54.4091 60.0645 48.334C60.0645 42.2589 64.9893 37.334 71.0645 37.334C77.1396 37.334 82.0645 42.2589 82.0645 48.334C82.0645 54.4091 77.1396 59.334 71.0645 59.334Z" stroke="#DADADA" stroke-width="2" stroke-linecap="round" stroke-linejoin="round"/>
<circle cx="15.7096" cy="26.7096" r="15.7096" fill="white"/>
<path d="M21.1723 34.3881C19.83 32.8889 17.8796 31.9454 15.7089 31.9454C13.5382 31.9454 11.5877 32.8889 10.2454 34.3881M15.7089 36.1347C10.5032 36.1347 6.2832 31.9146 6.2832 26.7089C6.2832 21.5032 10.5032 17.2832 15.7089 17.2832C20.9146 17.2832 25.1347 21.5032 25.1347 26.7089C25.1347 31.9146 20.9146 36.1347 15.7089 36.1347ZM15.7089 28.8035C13.9737 28.8035 12.567 27.3969 12.567 25.6616C12.567 23.9264 13.9737 22.5197 15.7089 22.5197C17.4442 22.5197 18.8508 23.9264 18.8508 25.6616C18.8508 27.3969 17.4442 28.8035 15.7089 28.8035Z" stroke="#C9C4DF" stroke-linecap="round" stroke-linejoin="round"/>
<circle cx="89.3549" cy="10.5815" r="9.71037" fill="white"/>
<path d="M92.7306 15.3267C91.9009 14.4001 90.6953 13.8169 89.3536 13.8169C88.0118 13.8169 86.8062 14.4001 85.9764 15.3267M89.3536 16.4064C86.1358 16.4064 83.5273 13.7979 83.5273 10.5801C83.5273 7.36239 86.1358 4.75391 89.3536 4.75391C92.5713 4.75391 95.1798 7.36239 95.1798 10.5801C95.1798 13.7979 92.5713 16.4064 89.3536 16.4064ZM89.3536 11.8748C88.281 11.8748 87.4115 11.0053 87.4115 9.93277C87.4115 8.86019 88.281 7.9907 89.3536 7.9907C90.4261 7.9907 91.2956 8.86019 91.2956 9.93277C91.2956 11.0053 90.4261 11.8748 89.3536 11.8748Z" stroke="#DFCCC4" stroke-linecap="round" stroke-linejoin="round"/>
<circle cx="126.805" cy="48.9674" r="12.9674" fill="white"/>
<path d="M131.316 55.3066C130.208 54.0691 128.598 53.2904 126.806 53.2904C125.014 53.2904 123.404 54.0691 122.296 55.3066M126.806 56.7483C122.509 56.7483 119.025 53.2649 119.025 48.9679C119.025 44.6709 122.509 41.1875 126.806 41.1875C131.103 41.1875 134.586 44.6709 134.586 48.9679C134.586 53.2649 131.103 56.7483 126.806 56.7483ZM126.806 50.6969C125.373 50.6969 124.212 49.5358 124.212 48.1034C124.212 46.6711 125.373 45.51 126.806 45.51C128.238 45.51 129.399 46.6711 129.399 48.1034C129.399 49.5358 128.238 50.6969 126.806 50.6969Z" stroke="#C4DFCA" stroke-linecap="round" stroke-linejoin="round"/>
<path d="M71.1736 43.88C69.5536 43.868 68.3536 44.804 68.1016 46.232L69.6016 46.556C69.7096 45.836 70.2496 45.308 71.1256 45.308C71.8336 45.308 72.3736 45.692 72.3736 46.388C72.3736 47.636 69.9016 47.78 69.9016 49.664V50.06H71.4976V49.76C71.4976 48.548 74.0176 48.536 74.0176 46.34C74.0176 44.792 72.7696 43.88 71.1736 43.88ZM70.7536 53.12C71.3536 53.12 71.7736 52.724 71.7736 52.148C71.7736 51.548 71.3536 51.14 70.7536 51.14C70.1656 51.14 69.7336 51.548 69.7336 52.148C69.7336 52.724 70.1656 53.12 70.7536 53.12Z" fill="#F12A23"/>
</svg>
