<svg width="46" height="46" viewBox="0 0 46 46" fill="none" xmlns="http://www.w3.org/2000/svg">
<rect width="46" height="46" rx="7" fill="#5AB4F5"/>
<path fill-rule="evenodd" clip-rule="evenodd" d="M33.109 14.0003C32.0521 14.0003 31.1884 14.864 31.1884 15.9209C31.1884 16.2301 31.2614 16.5232 31.3928 16.7835L29.09 18.7041C28.7492 18.4016 28.3031 18.215 27.8186 18.215C26.7617 18.215 25.8891 19.0877 25.8891 20.1446C25.8891 20.2758 25.9079 20.4024 25.9335 20.5268L23.853 21.7451C23.5059 21.4102 23.0367 21.1937 22.5193 21.1937C21.4624 21.1937 20.5897 22.055 20.5897 23.1053C20.5897 23.2026 20.6022 23.2963 20.6165 23.39L18.607 24.3946C18.2567 24.026 17.7669 23.7901 17.2199 23.7901C16.7342 23.7901 16.2869 23.9713 15.9485 24.2702L13.7878 22.9099C13.8227 22.7656 13.8501 22.6286 13.8501 22.4742C13.8501 21.4174 12.9777 20.5447 11.9206 20.5447C10.8637 20.5447 10 21.4174 10 22.4742C10 23.333 10.5698 24.0602 11.3516 24.3059L11.3337 32.1929L11.3339 32.1923C11.3302 32.3447 11.3879 32.4924 11.4941 32.6019C11.6003 32.7115 11.746 32.7738 11.8984 32.775C12.051 32.7762 12.1977 32.716 12.3054 32.6081C12.4134 32.5003 12.4733 32.3536 12.4719 32.2012L12.4896 24.3056C12.755 24.2223 12.9981 24.0786 13.2009 23.8966L15.3528 25.2569C15.3154 25.4057 15.2994 25.5599 15.2994 25.7193C15.2994 26.5781 15.8694 27.3142 16.651 27.5599V32.2013V32.2011C16.6563 32.5113 16.9096 32.76 17.22 32.76C17.5306 32.76 17.7836 32.5113 17.7892 32.2011V27.5597C18.5707 27.3142 19.1408 26.5779 19.1408 25.7191C19.1408 25.6127 19.131 25.5099 19.114 25.4079L21.1145 24.412C21.3404 24.6545 21.6276 24.844 21.9503 24.9454V32.2008C21.9481 32.3531 22.007 32.4997 22.114 32.6083C22.221 32.7167 22.3669 32.7778 22.5193 32.7778C22.6715 32.7778 22.8176 32.7167 22.9246 32.6083C23.0315 32.4997 23.0905 32.3531 23.0883 32.2008V24.9454C23.8699 24.6999 24.4399 23.9636 24.4399 23.1048C24.4399 22.9764 24.4292 22.844 24.4044 22.7226L26.476 21.5222C26.6923 21.7344 26.9533 21.8926 27.2496 21.9847V32.2006H27.2494C27.255 32.5109 27.508 32.7595 27.8186 32.7595C28.129 32.7595 28.3823 32.5109 28.3876 32.2006V21.9847C29.169 21.739 29.7392 21.002 29.7392 20.144C29.7392 19.9862 29.7222 19.8376 29.6858 19.6905L32.1844 17.61C32.2985 17.6739 32.4134 17.7213 32.54 17.7612V32.2009H32.5398C32.5377 32.3531 32.5968 32.4998 32.7038 32.6083C32.8106 32.7167 32.9566 32.7778 33.1091 32.7778C33.2613 32.7778 33.4074 32.7167 33.5141 32.6083C33.6211 32.4998 33.6803 32.3531 33.6781 32.2009V17.7612C34.4579 17.5169 35.0384 16.784 35.0384 15.9206C35.0384 14.8582 34.1593 14 33.1088 14L33.109 14.0003ZM11.921 21.6825C12.3648 21.6825 12.7123 22.0266 12.7123 22.4738C12.7123 22.9209 12.3648 23.2474 11.921 23.2474C11.4772 23.2474 11.1386 22.9212 11.1386 22.4738C11.1386 22.0266 11.4772 21.6825 11.921 21.6825Z" fill="white"/>
</svg>
