<svg width="96" height="100" viewBox="0 0 96 100" fill="none" xmlns="http://www.w3.org/2000/svg">
<circle opacity="0.2" cx="86" cy="10" r="9" fill="#F98D51" stroke="white" stroke-width="2"/>
<path d="M85.9995 7.84317V10H88.1564M85.9995 13.8824C83.8554 13.8824 82.1172 12.1442 82.1172 10C82.1172 7.85586 83.8554 6.11768 85.9995 6.11768C88.1437 6.11768 89.8819 7.85586 89.8819 10C89.8819 12.1442 88.1437 13.8824 85.9995 13.8824Z" stroke="#F98D51" stroke-linecap="round" stroke-linejoin="round"/>
<circle opacity="0.2" cx="87.2388" cy="91.2388" r="7.23877" fill="#56CE60" stroke="white" stroke-width="2"/>
<path d="M86.1869 93.5155L84.0326 91.3613C83.9032 91.2318 83.9032 91.022 84.0326 90.8926L84.5013 90.4239C84.6307 90.2944 84.8406 90.2944 84.97 90.4239L86.4212 91.875L89.5295 88.7667C89.6589 88.6373 89.8688 88.6373 89.9982 88.7667L90.4669 89.2354C90.5963 89.3649 90.5963 89.5747 90.4669 89.7042L86.6556 93.5155C86.5261 93.6449 86.3163 93.6449 86.1869 93.5155Z" fill="#56CE60"/>
<circle opacity="0.2" cx="49.6484" cy="41.6484" r="6.64839" fill="#7C56CE"/>
<g clip-path="url(#clip0_588_4480)">
<path d="M51.0182 44.3209C51.0182 43.6009 50.1428 43.0173 49.0628 43.0173C47.9829 43.0173 47.1074 43.6009 47.1074 44.3209M52.3218 43.3432V41.3878M51.3441 42.3655H53.2995M49.0628 42.0396C48.3429 42.0396 47.7592 41.4559 47.7592 40.736C47.7592 40.016 48.3429 39.4324 49.0628 39.4324C49.7828 39.4324 50.3664 40.016 50.3664 40.736C50.3664 41.4559 49.7828 42.0396 49.0628 42.0396Z" stroke="#7C56CE" stroke-linecap="round" stroke-linejoin="round"/>
</g>
<circle opacity="0.2" cx="10" cy="66" r="9" fill="#56B1CE" stroke="#FBFBFB" stroke-width="2"/>
<path d="M9.04766 63.7194C9.04766 64.4526 8.45329 65.0469 7.72012 65.0469C6.98694 65.0469 6.39258 64.4526 6.39258 63.7194C6.39258 62.9862 6.98694 62.3918 7.72012 62.3918C8.45329 62.3918 9.04766 62.9862 9.04766 63.7194Z" stroke="#56B1CE" stroke-miterlimit="10" stroke-linecap="round" stroke-linejoin="round"/>
<path d="M13.2957 67.9674C13.2957 68.7006 12.7013 69.295 11.9682 69.295C11.235 69.295 10.6406 68.7006 10.6406 67.9674C10.6406 67.2343 11.235 66.6399 11.9682 66.6399C12.7013 66.6399 13.2957 67.2343 13.2957 67.9674Z" stroke="#56B1CE" stroke-miterlimit="10" stroke-linecap="round" stroke-linejoin="round"/>
<path d="M10.6406 62.3918H13.2957V65.0469" stroke="#56B1CE" stroke-miterlimit="10" stroke-linecap="round" stroke-linejoin="round"/>
<path d="M6.39258 69.2951L13.2958 62.3918" stroke="#56B1CE" stroke-miterlimit="10" stroke-linecap="round" stroke-linejoin="round"/>
<circle opacity="0.2" cx="23.5" cy="16.5" r="6.5" fill="#5694CE" stroke="white" stroke-width="2"/>
<g clip-path="url(#clip1_588_4480)">
<path d="M21.1543 16.0965C21.0783 16.0262 21.1196 15.8991 21.2224 15.887L22.6792 15.7142C22.7211 15.7093 22.7575 15.6829 22.7751 15.6446L23.3896 14.3125C23.4329 14.2184 23.5666 14.2184 23.6099 14.3124L24.2244 15.6446C24.2421 15.6829 24.2782 15.7093 24.3201 15.7142L25.7769 15.887C25.8798 15.8991 25.921 16.0262 25.845 16.0965L24.7681 17.0925C24.7371 17.1212 24.7233 17.1639 24.7315 17.2053L25.0173 18.6441C25.0375 18.7456 24.9294 18.8242 24.8391 18.7736L23.559 18.0571C23.5222 18.0365 23.4774 18.0365 23.4406 18.0571L22.1604 18.7736C22.07 18.8242 21.9619 18.7457 21.982 18.6441L22.2679 17.2052C22.2762 17.1639 22.2624 17.1212 22.2314 17.0925L21.1543 16.0965Z" stroke="#5694CE" stroke-linecap="round" stroke-linejoin="round"/>
</g>
<path d="M71.8052 85.1058C73.8979 85.0287 75.8793 84.1433 77.3324 82.6349C78.785 81.1269 79.5959 79.114 79.5948 77.0197V75.2391C79.5948 74.2554 79.2041 73.312 78.5081 72.6165C77.8126 71.9205 76.8693 71.5298 75.8855 71.5298H70.9151V25.683C70.9079 25.1102 70.6807 24.5617 70.2796 24.1523C69.8791 23.743 69.3358 23.5039 68.7629 23.4853C68.1906 23.4661 67.6328 23.669 67.2058 24.0509L63.9415 26.8695C63.6636 27.107 63.2548 27.107 62.977 26.8695L58.1552 22.5671C57.7469 22.2018 57.2185 22 56.6716 22C56.1241 22 55.5957 22.2018 55.1875 22.5671L50.4396 26.8695C50.1622 27.107 49.7529 27.107 49.4755 26.8695L44.7276 22.5671C44.3194 22.2018 43.791 22 43.2435 22C42.696 22 42.1682 22.2018 41.7599 22.5671L36.9381 26.8695C36.6603 27.107 36.2515 27.107 35.9736 26.8695L32.7093 23.9763C32.2823 23.5944 31.7245 23.392 31.1522 23.4107C30.5793 23.4298 30.036 23.6689 29.6355 24.0782C29.2344 24.4876 29.0067 25.0356 29 25.6084V77.0191C29 79.1636 29.8523 81.2206 31.3685 82.7367C32.8852 84.2534 34.9417 85.1052 37.0861 85.1052L71.8052 85.1058ZM75.811 73.0134C76.4014 73.0134 76.9675 73.2478 77.3852 73.6654C77.8023 74.083 78.0367 74.6486 78.0367 75.2391V77.0197C78.0367 78.7708 77.3412 80.4501 76.1028 81.6883C74.8645 82.9267 73.1853 83.6222 71.4342 83.6222H41.7599C43.9012 82.1055 45.1737 79.6439 45.1727 77.0197V75.2391C45.1727 74.6486 45.4071 74.083 45.8242 73.6654C46.2418 73.2478 46.8079 73.0134 47.3984 73.0134H75.811ZM37.0861 83.6222C35.3354 83.6222 33.6556 82.9267 32.4174 81.6883C31.1796 80.45 30.4835 78.7709 30.4835 77.0197V25.6832C30.4887 25.3924 30.6626 25.1316 30.9291 25.0151H31.2256C31.3953 25.0358 31.5527 25.1145 31.6706 25.2376L35.0089 27.9829C35.4171 28.3477 35.9455 28.5495 36.493 28.5495C37.0399 28.5495 37.5683 28.3477 37.9765 27.9829L42.7244 23.6801C43.0018 23.4426 43.4111 23.4426 43.689 23.6801L48.4369 27.9829C48.8447 28.3477 49.373 28.5495 49.9205 28.5495C50.468 28.5495 50.9958 28.3477 51.404 27.9829L56.1519 23.6801C56.4293 23.4426 56.8386 23.4426 57.1165 23.6801L61.8644 27.9829C62.2722 28.3477 62.8005 28.5495 63.348 28.5495C63.8955 28.5495 64.4238 28.3477 64.8316 27.9829L68.0959 25.0897C68.3173 24.8703 68.6521 24.8123 68.9342 24.9453C69.2162 25.0778 69.3849 25.3727 69.3569 25.6832V71.53H47.398C46.4137 71.53 45.4703 71.9207 44.7749 72.6167C44.0794 73.3122 43.6887 74.2555 43.6887 75.2393V77.0199C43.6887 78.771 42.9927 80.4503 41.7543 81.6885C40.5165 82.9268 38.8368 83.6224 37.0856 83.6224L37.0861 83.6222Z" fill="#DADADA"/>
<path d="M61.5529 57.6571C61.5529 57.4604 61.4747 57.2716 61.3355 57.1324C61.1963 56.9932 61.0074 56.915 60.8108 56.915H39.7421C39.3322 56.915 39 57.2473 39 57.6571C39 58.067 39.3322 58.3987 39.7421 58.3987H60.8108C61.0075 58.3987 61.1963 58.3205 61.3355 58.1818C61.4747 58.0426 61.5529 57.8538 61.5529 57.6571V57.6571Z" fill="#F6F6F6"/>
<path d="M56.0784 64.3337H43.912C43.5021 64.3337 43.1699 64.666 43.1699 65.0758C43.1699 65.4857 43.5021 65.8174 43.912 65.8174H56.0784C56.4878 65.8174 56.82 65.4857 56.82 65.0758C56.82 64.666 56.4878 64.3337 56.0784 64.3337Z" fill="#F6F6F6"/>
<defs>
<clipPath id="clip0_588_4480">
<rect width="7.82163" height="7.82163" fill="white" transform="translate(46.1289 38.1287)"/>
</clipPath>
<clipPath id="clip1_588_4480">
<rect width="5.82353" height="5.82353" fill="white" transform="translate(20.5879 13.5884)"/>
</clipPath>
</defs>
</svg>
