<svg width="19" height="18" viewBox="0 0 19 18" fill="none" xmlns="http://www.w3.org/2000/svg">
<path d="M4.52954 11.4188C3.46002 11.4661 2.39359 11.2719 1.40944 10.8505C1.29544 10.8 1.19582 10.7218 1.1196 10.6231C1.31283 8.13957 1.80727 7.71901 2.82457 6.88358L3.08031 6.66761C3.53472 6.87782 4.02888 6.98828 4.52954 6.99156C4.71998 6.98856 4.90994 6.97146 5.09786 6.94041V5.76966C4.91305 5.8232 4.72193 5.85187 4.52954 5.85491C4.06419 5.85491 3.60929 5.71692 3.22236 5.45838C2.83543 5.19985 2.53386 4.83238 2.35578 4.40245C2.1777 3.97252 2.1311 3.49944 2.22189 3.04303C2.31267 2.58662 2.53676 2.16738 2.86582 1.83833C3.19487 1.50927 3.61411 1.28519 4.07052 1.1944C4.52693 1.10362 5.00001 1.15021 5.42994 1.32829C5.85987 1.50637 6.22734 1.80795 6.48587 2.19487C6.74441 2.5818 6.8824 3.0367 6.8824 3.50205C6.88285 3.68233 6.85993 3.8619 6.8142 4.03628H7.95085C7.98034 3.85971 7.99554 3.68106 7.99632 3.50205C7.99839 2.92526 7.85745 2.35694 7.58611 1.84795C7.31477 1.33896 6.92149 0.905173 6.44145 0.58539C5.96142 0.265607 5.4096 0.0698046 4.83536 0.0155004C4.26112 -0.0388038 3.68238 0.0500839 3.15091 0.274211C2.61943 0.498338 2.15181 0.850715 1.78986 1.29982C1.42792 1.74892 1.18294 2.28074 1.07685 2.84769C0.970765 3.41465 1.00687 3.99907 1.18194 4.54865C1.35701 5.09824 1.66559 5.59586 2.08007 5.99699C0.897952 6.99724 0.221646 7.70196 0 10.5436C0.0115567 10.8129 0.0979915 11.0736 0.24959 11.2965C0.401189 11.5194 0.611944 11.6956 0.858169 11.8053C2.01072 12.3265 3.26483 12.5847 4.52954 12.5611V11.4188Z" fill="#9C51A7"/>
<path d="M4.53026 2.28512C4.84829 2.28512 5.15331 2.41146 5.37819 2.63635C5.60308 2.86123 5.72942 3.16625 5.72942 3.48428C5.72942 3.55965 5.75936 3.63193 5.81265 3.68522C5.86594 3.73851 5.93822 3.76845 6.01358 3.76845C6.08894 3.76845 6.16122 3.73851 6.21451 3.68522C6.2678 3.63193 6.29774 3.55965 6.29774 3.48428C6.29774 3.01552 6.11153 2.56595 5.78006 2.23448C5.44859 1.90301 4.99902 1.7168 4.53026 1.7168C4.45489 1.7168 4.38261 1.74674 4.32932 1.80003C4.27603 1.85332 4.24609 1.92559 4.24609 2.00096C4.24609 2.07632 4.27603 2.1486 4.32932 2.20189C4.38261 2.25518 4.45489 2.28512 4.53026 2.28512Z" fill="#9C51A7"/>
<path d="M11.3487 4.03167C11.3076 3.85847 11.2866 3.68113 11.2862 3.50313C11.2862 3.03706 11.4246 2.58148 11.6839 2.1942C11.9432 1.80691 12.3117 1.50536 12.7426 1.32779C13.1735 1.15022 13.6475 1.10463 14.1043 1.19681C14.5612 1.28898 14.9804 1.51477 15.3088 1.84553C15.6371 2.17629 15.8599 2.59712 15.9487 3.05465C16.0376 3.51218 15.9885 3.98579 15.8078 4.41541C15.6271 4.84503 15.3229 5.2113 14.9338 5.46778C14.5446 5.72425 14.088 5.85937 13.622 5.85599C13.4304 5.85773 13.2394 5.83481 13.0536 5.78779V6.92444C13.2416 6.95451 13.4316 6.96971 13.622 6.96991C14.1353 6.97122 14.6424 6.8566 15.1053 6.63459L15.3667 6.86192C16.3556 7.69736 16.85 8.11792 17.0433 10.5617C17.0433 10.6185 16.9523 10.7265 16.7534 10.8402C15.7693 11.2616 14.7029 11.4558 13.6333 11.4085V12.5452C14.9008 12.5838 16.1608 12.3391 17.3218 11.8291C17.5693 11.7145 17.7798 11.533 17.9294 11.305C18.0791 11.077 18.1619 10.8116 18.1686 10.539C17.9469 7.69736 17.2706 7.01537 16.0885 5.99239H16.0601C16.4694 5.58894 16.7728 5.09061 16.9432 4.5417C17.1136 3.99279 17.1458 3.41028 17.0369 2.84593C16.928 2.28159 16.6814 1.75288 16.319 1.30678C15.9566 0.860682 15.4896 0.511011 14.9595 0.288834C14.4294 0.0666578 13.8527 -0.0211444 13.2805 0.0332289C12.7083 0.0876022 12.1584 0.282467 11.6797 0.600511C11.2009 0.918554 10.8082 1.34993 10.5363 1.8563C10.2644 2.36268 10.1217 2.92837 10.1211 3.50313C10.1219 3.68214 10.1371 3.86079 10.1666 4.03735L11.3487 4.03167Z" fill="#9C51A7"/>
<path d="M15.3895 3.48997C15.3903 3.25738 15.3451 3.02693 15.2566 2.81183C15.1681 2.59674 15.0381 2.40122 14.8739 2.23649C14.7097 2.07176 14.5146 1.94106 14.2998 1.85188C14.0849 1.7627 13.8546 1.7168 13.6221 1.7168C13.5467 1.7168 13.4744 1.74674 13.4211 1.80003C13.3678 1.85332 13.3379 1.92559 13.3379 2.00096C13.3379 2.07632 13.3678 2.1486 13.4211 2.20189C13.4744 2.25518 13.5467 2.28512 13.6221 2.28512C13.9401 2.28512 14.2451 2.41146 14.47 2.63635C14.6949 2.86123 14.8212 3.16625 14.8212 3.48428C14.8212 3.55965 14.8512 3.63193 14.9044 3.68522C14.9577 3.73851 15.03 3.76845 15.1054 3.76845C15.1798 3.76846 15.2512 3.7393 15.3043 3.68724C15.3575 3.63517 15.3881 3.56434 15.3895 3.48997Z" fill="#9C51A7"/>
<path d="M14.9799 8.24111C15.821 8.66167 15.821 10.0313 15.821 10.4803C15.821 10.5557 15.851 10.628 15.9043 10.6812C15.9576 10.7345 16.0298 10.7645 16.1052 10.7645C16.1806 10.7645 16.2528 10.7345 16.3061 10.6812C16.3594 10.628 16.3894 10.5557 16.3894 10.4803C16.3894 9.94608 16.3894 8.30931 15.2527 7.73531C15.1856 7.7016 15.1079 7.69583 15.0365 7.71926C14.9652 7.74269 14.906 7.79341 14.8719 7.86034C14.8538 7.89238 14.8423 7.9277 14.8379 7.96425C14.8335 8.00079 14.8365 8.03784 14.8465 8.07325C14.8565 8.10866 14.8735 8.14172 14.8964 8.17054C14.9193 8.19935 14.9477 8.22334 14.9799 8.24111Z" fill="#9C51A7"/>
<path d="M9.07518 6.832C9.39322 6.832 9.69823 6.95834 9.92311 7.18322C10.148 7.40811 10.2743 7.71312 10.2743 8.03116C10.2743 8.10652 10.3043 8.1788 10.3576 8.23209C10.4109 8.28538 10.4831 8.31532 10.5585 8.31532C10.6339 8.31532 10.7061 8.28538 10.7594 8.23209C10.8127 8.1788 10.8427 8.10652 10.8427 8.03116C10.8427 7.56239 10.6564 7.11283 10.325 6.78136C9.99351 6.44989 9.54394 6.26367 9.07518 6.26367C8.99981 6.26367 8.92754 6.29361 8.87424 6.3469C8.82095 6.40019 8.79102 6.47247 8.79102 6.54783C8.79102 6.6232 8.82095 6.69548 8.87424 6.74877C8.92754 6.80206 8.99981 6.832 9.07518 6.832Z" fill="#9C51A7"/>
<path d="M10.6904 12.2822C10.6232 12.2485 10.5455 12.2427 10.4742 12.2661C10.4028 12.2896 10.3436 12.3403 10.3096 12.4072C10.2921 12.4403 10.2815 12.4765 10.2783 12.5138C10.2752 12.5511 10.2796 12.5886 10.2912 12.6241C10.3029 12.6597 10.3216 12.6925 10.3463 12.7207C10.3709 12.7488 10.4009 12.7717 10.4346 12.788C11.2757 13.2085 11.2757 14.5782 11.2757 15.0272C11.2757 15.1025 11.3057 15.1748 11.359 15.2281C11.4123 15.2814 11.4845 15.3113 11.5599 15.3113C11.6353 15.3113 11.7075 15.2814 11.7608 15.2281C11.8141 15.1748 11.8441 15.1025 11.8441 15.0272C11.8441 14.493 11.8441 12.8619 10.6904 12.2822Z" fill="#9C51A7"/>
<path d="M11.5429 10.5605H11.5145C12.0092 10.0752 12.3482 9.45353 12.4882 8.77484C12.6283 8.09614 12.5631 7.39111 12.301 6.74961C12.0388 6.10811 11.5916 5.55918 11.0163 5.1728C10.441 4.78642 9.76373 4.58008 9.07073 4.58008C8.37774 4.58008 7.70043 4.78642 7.12515 5.1728C6.54986 5.55918 6.10265 6.10811 5.84051 6.74961C5.57837 7.39111 5.51318 8.09614 5.65324 8.77484C5.79329 9.45353 6.13226 10.0752 6.62694 10.5605C5.44483 11.5607 4.76852 12.2654 4.54688 15.1071C4.55843 15.3764 4.64487 15.6371 4.79647 15.86C4.94806 16.0829 5.15882 16.2591 5.40504 16.3687C6.5543 16.8985 7.81171 17.1515 9.07642 17.1076C10.3451 17.162 11.6087 16.9166 12.7648 16.3915C13.0171 16.2773 13.2316 16.0939 13.3836 15.8624C13.5355 15.631 13.6185 15.3611 13.623 15.0843C13.4014 12.2598 12.7251 11.5607 11.5429 10.5605ZM11.4179 8.04849C11.4179 8.51432 11.2796 8.96967 11.0206 9.35684C10.7615 9.74401 10.3934 10.0456 9.96281 10.2233C9.53221 10.4011 9.05855 10.447 8.60183 10.3553C8.14511 10.2636 7.7259 10.0383 7.3973 9.70815C7.06871 9.37796 6.84552 8.95766 6.75602 8.5005C6.66652 8.04334 6.71474 7.56991 6.89457 7.14018C7.0744 6.71046 7.37774 6.34378 7.76615 6.08662C8.15457 5.82945 8.61059 5.69338 9.07642 5.69563C9.69846 5.69863 10.294 5.94785 10.7328 6.38877C11.1716 6.82969 11.4179 7.42643 11.4179 8.04849ZM5.95632 15.4367C5.84103 15.383 5.74129 15.3008 5.66647 15.198C5.8597 12.7144 6.35414 12.2939 7.34303 11.4584L7.59877 11.2425L7.74085 11.305L8.56492 12.4416L7.57036 14.7149L8.59902 15.9709C7.68792 15.9755 6.78653 15.7836 5.95632 15.4083V15.4367ZM12.2079 15.4367C11.3702 15.8143 10.4613 16.0081 9.54244 16.005L10.5711 14.749L9.57654 12.4757L10.4006 11.3391L10.5597 11.2652L10.8212 11.4925C11.8101 12.328 12.3045 12.7485 12.4977 15.1923C12.4864 15.1866 12.3954 15.2946 12.1965 15.4083L12.2079 15.4367Z" fill="#9C51A7"/>
</svg>
