<svg width="23" height="21" viewBox="0 0 23 21" fill="none" xmlns="http://www.w3.org/2000/svg">
<path d="M17.0261 2.70408L17.111 2.58045C15.1517 1.23431 12.7612 0.642102 10.3904 0.915013L10.4076 1.06403L10.3904 0.915013C8.01959 1.18794 5.83144 2.30736 4.2386 4.06276C2.64554 5.81822 1.75804 8.08823 1.74391 10.4451V10.446C1.74391 10.7033 1.95467 10.9084 2.21046 10.9084C2.46592 10.9084 2.67651 10.7035 2.67679 10.4466M2.67679 10.4466C2.67679 10.4467 2.67679 10.4469 2.67679 10.447L2.52679 10.446H2.67679C2.67679 10.4462 2.67679 10.4464 2.67679 10.4466ZM10.1789 8.3957L10.1789 8.39575C9.90554 8.66499 9.75125 9.03041 9.75026 9.41231V9.4127L9.75026 9.50941L9.75026 9.5098C9.75125 9.8917 9.90553 10.2571 10.1789 10.5264L10.1789 10.5264C10.4522 10.7954 10.8221 10.9461 11.2073 10.9461H11.8401C12.1296 10.9461 12.361 11.1771 12.361 11.4581C12.361 11.7389 12.1296 11.9701 11.8401 11.9701H10.1314C9.8756 11.9701 9.66484 12.1752 9.66484 12.4325C9.66484 12.6896 9.87566 12.8946 10.1314 12.8946H11.0668V13.438C11.0668 13.6953 11.2776 13.9002 11.5331 13.9002C11.7888 13.9002 11.9997 13.6954 11.9997 13.438V12.887C12.4593 12.84 12.8734 12.5787 13.1082 12.1771C13.3685 11.7324 13.3685 11.1839 13.1082 10.7391C12.8481 10.2944 12.368 10.0214 11.8497 10.0214H11.8496L11.8181 10.0214H11.818H11.1872C10.9038 10.0126 10.6814 9.78455 10.68 9.50898C10.68 9.50891 10.68 9.50884 10.68 9.50877V9.41344C10.68 9.41337 10.68 9.41331 10.68 9.41325C10.6815 9.13158 10.9139 8.90073 11.204 8.90073H12.8909C13.1465 8.90073 13.3572 8.69553 13.3572 8.43835C13.3572 8.18118 13.1466 7.97598 12.8909 7.97598H11.9902V7.45463C11.9902 7.19725 11.7793 6.99247 11.5236 6.99247C11.2681 6.99247 11.0573 7.19732 11.0573 7.45463V7.98363C10.7271 8.01739 10.4165 8.16189 10.1789 8.3957Z" fill="#56CE60" stroke="#56CE60" stroke-width="0.3"/>
</svg>
