<svg width="10" height="19" viewBox="0 0 10 19" fill="none" xmlns="http://www.w3.org/2000/svg">
<mask id="path-1-outside-1_3371_1987" maskUnits="userSpaceOnUse" x="0" y="5.5625" width="10" height="14" fill="black">
<rect fill="white" y="5.5625" width="10" height="14"/>
<path d="M6.47294 7.68552V15.9323H7.87798V17.6995H2.12252V15.9323H3.61782L3.61802 9.54287H2.12272L2.12252 7.68522H6.47274M6.47274 6.5625H2.12252C1.50253 6.5625 1 7.06522 1 7.68502V9.54267C1 10.1627 1.50273 10.6652 2.12252 10.6652H2.49527V14.8094H2.12252C1.50253 14.8094 1 15.3122 1 15.9319V17.6992C1 18.3192 1.50273 18.8217 2.12252 18.8217H7.87748C8.49747 18.8217 9 18.319 9 17.6992V15.9319C9 15.3119 8.49727 14.8094 7.87748 14.8094H7.59518V7.68527C7.59518 7.06528 7.09265 6.56255 6.47265 6.56255L6.47274 6.5625Z"/>
</mask>
<path d="M6.47294 7.68552V15.9323H7.87798V17.6995H2.12252V15.9323H3.61782L3.61802 9.54287H2.12272L2.12252 7.68522H6.47274M6.47274 6.5625H2.12252C1.50253 6.5625 1 7.06522 1 7.68502V9.54267C1 10.1627 1.50273 10.6652 2.12252 10.6652H2.49527V14.8094H2.12252C1.50253 14.8094 1 15.3122 1 15.9319V17.6992C1 18.3192 1.50273 18.8217 2.12252 18.8217H7.87748C8.49747 18.8217 9 18.319 9 17.6992V15.9319C9 15.3119 8.49727 14.8094 7.87748 14.8094H7.59518V7.68527C7.59518 7.06528 7.09265 6.56255 6.47265 6.56255L6.47274 6.5625Z" fill="#F12A23"/>
<path d="M6.47294 15.9323H6.37294V16.0323H6.47294V15.9323ZM7.87798 15.9323H7.97798V15.8323H7.87798V15.9323ZM7.87798 17.6995V17.7995H7.97798V17.6995H7.87798ZM2.12252 17.6995H2.02252V17.7995H2.12252V17.6995ZM2.12252 15.9323V15.8323H2.02252V15.9323H2.12252ZM3.61782 15.9323V16.0323H3.71782L3.71782 15.9323L3.61782 15.9323ZM3.61802 9.54287L3.71802 9.54287L3.71802 9.44287H3.61802V9.54287ZM2.12272 9.54287L2.02272 9.54288L2.02273 9.64287H2.12272V9.54287ZM2.12252 7.68522V7.58522H2.02251L2.02252 7.68523L2.12252 7.68522ZM6.47274 6.5625L6.52099 6.65009L6.47274 6.4625V6.5625ZM2.49527 10.6652H2.59527V10.5652H2.49527V10.6652ZM2.49527 14.8094V14.9094H2.59527V14.8094H2.49527ZM7.59518 14.8094H7.49517V14.9094H7.59518V14.8094ZM6.47265 6.56255L6.4244 6.47496L6.47265 6.66255V6.56255ZM6.37294 7.68552V15.9323H6.57294V7.68552H6.37294ZM6.47294 16.0323H7.87798V15.8323H6.47294V16.0323ZM7.77798 15.9323V17.6995H7.97798V15.9323H7.77798ZM7.87798 17.5995H2.12252V17.7995H7.87798V17.5995ZM2.22252 17.6995V15.9323H2.02252V17.6995H2.22252ZM2.12252 16.0323H3.61782V15.8323H2.12252V16.0323ZM3.71782 15.9323L3.71802 9.54287L3.51802 9.54286L3.51782 15.9323L3.71782 15.9323ZM3.61802 9.44287H2.12272V9.64287H3.61802V9.44287ZM2.22272 9.54286L2.22252 7.68521L2.02252 7.68523L2.02272 9.54288L2.22272 9.54286ZM2.12252 7.78522H6.47274V7.58522H2.12252V7.78522ZM6.47274 6.4625H2.12252V6.6625H6.47274V6.4625ZM2.12252 6.4625C1.44729 6.4625 0.9 7.01001 0.9 7.68502H1.1C1.1 7.12044 1.55777 6.6625 2.12252 6.6625V6.4625ZM0.9 7.68502V9.54267H1.1V7.68502H0.9ZM0.9 9.54267C0.9 10.2179 1.44751 10.7652 2.12252 10.7652V10.5652C1.55794 10.5652 1.1 10.1074 1.1 9.54267H0.9ZM2.12252 10.7652H2.49527V10.5652H2.12252V10.7652ZM2.39527 10.6652V14.8094H2.59527V10.6652H2.39527ZM2.49527 14.7094H2.12252V14.9094H2.49527V14.7094ZM2.12252 14.7094C1.44729 14.7094 0.9 15.2569 0.9 15.9319H1.1C1.1 15.3674 1.55777 14.9094 2.12252 14.9094V14.7094ZM0.9 15.9319V17.6992H1.1V15.9319H0.9ZM0.9 17.6992C0.9 18.3744 1.44751 18.9217 2.12252 18.9217V18.7217C1.55794 18.7217 1.1 18.2639 1.1 17.6992H0.9ZM2.12252 18.9217H7.87748V18.7217H2.12252V18.9217ZM7.87748 18.9217C8.55271 18.9217 9.1 18.3742 9.1 17.6992H8.9C8.9 18.2638 8.44223 18.7217 7.87748 18.7217V18.9217ZM9.1 17.6992V15.9319H8.9V17.6992H9.1ZM9.1 15.9319C9.1 15.2567 8.55249 14.7094 7.87748 14.7094V14.9094C8.44206 14.9094 8.9 15.3672 8.9 15.9319H9.1ZM7.87748 14.7094H7.59518V14.9094H7.87748V14.7094ZM7.69518 14.8094V7.68527H7.49517V14.8094H7.69518ZM7.69518 7.68527C7.69518 7.01007 7.1479 6.46255 6.47265 6.46255V6.66255C7.0374 6.66255 7.49517 7.12048 7.49517 7.68527H7.69518ZM6.5209 6.65014L6.52099 6.65009L6.42449 6.47491L6.4244 6.47496L6.5209 6.65014Z" fill="#F12A23" mask="url(#path-1-outside-1_3371_1987)"/>
<mask id="path-3-outside-2_3371_1987" maskUnits="userSpaceOnUse" x="1.38281" y="0" width="7" height="7" fill="black">
<rect fill="white" x="1.38281" width="7" height="7"/>
<path d="M5.00083 2.12272C5.82661 2.12272 6.49613 2.79204 6.49613 3.61802C6.49613 4.4434 5.82641 5.11331 5.00083 5.11331C4.17505 5.11331 3.50554 4.4434 3.50554 3.61802C3.50554 2.79209 4.17505 2.12272 5.00083 2.12272ZM5.00083 1C3.55721 1 2.38281 2.17424 2.38281 3.61802C2.38281 5.06144 3.55746 6.23604 5.00083 6.23604C6.44421 6.23604 7.61885 5.06124 7.61885 3.61802C7.61885 2.17439 6.44441 1 5.00083 1Z"/>
</mask>
<path d="M5.00083 2.12272C5.82661 2.12272 6.49613 2.79204 6.49613 3.61802C6.49613 4.4434 5.82641 5.11331 5.00083 5.11331C4.17505 5.11331 3.50554 4.4434 3.50554 3.61802C3.50554 2.79209 4.17505 2.12272 5.00083 2.12272ZM5.00083 1C3.55721 1 2.38281 2.17424 2.38281 3.61802C2.38281 5.06144 3.55746 6.23604 5.00083 6.23604C6.44421 6.23604 7.61885 5.06124 7.61885 3.61802C7.61885 2.17439 6.44441 1 5.00083 1Z" fill="#F12A23"/>
<path d="M5.00083 2.22272C5.77139 2.22272 6.39613 2.84728 6.39613 3.61802H6.59613C6.59613 2.7368 5.88183 2.02272 5.00083 2.02272V2.22272ZM6.39613 3.61802C6.39613 4.38818 5.77117 5.01331 5.00083 5.01331V5.21331C5.88165 5.21331 6.59613 4.49862 6.59613 3.61802H6.39613ZM5.00083 5.01331C4.2303 5.01331 3.60554 4.38819 3.60554 3.61802H3.40554C3.40554 4.49861 4.11981 5.21331 5.00083 5.21331V5.01331ZM3.60554 3.61802C3.60554 2.84732 4.23027 2.22272 5.00083 2.22272V2.02272C4.11983 2.02272 3.40554 2.73685 3.40554 3.61802H3.60554ZM5.00083 0.9C3.50198 0.9 2.28281 2.11901 2.28281 3.61802H2.48281C2.48281 2.22948 3.61243 1.1 5.00083 1.1V0.9ZM2.28281 3.61802C2.28281 5.11667 3.50223 6.33604 5.00083 6.33604V6.13604C3.61269 6.13604 2.48281 5.00621 2.48281 3.61802H2.28281ZM5.00083 6.33604C6.49944 6.33604 7.71885 5.11647 7.71885 3.61802H7.51885C7.51885 5.00602 6.38897 6.13604 5.00083 6.13604V6.33604ZM7.71885 3.61802C7.71885 2.11916 6.49963 0.9 5.00083 0.9V1.1C6.38918 1.1 7.51885 2.22962 7.51885 3.61802H7.71885Z" fill="#F12A23" mask="url(#path-3-outside-2_3371_1987)"/>
</svg>
