<svg width="33" height="33" viewBox="0 0 33 33" fill="none" xmlns="http://www.w3.org/2000/svg">
<g clip-path="url(#clip0_3373_2098)">
<path d="M0 32.2649L2.28042 23.984C0.870565 21.5534 0.13097 18.8007 0.138674 15.9867C0.138674 7.16912 7.34972 0 16.2018 0C20.5006 0 24.5376 1.66385 27.5653 4.68484C30.6007 7.70584 32.2725 11.7236 32.2648 15.9944C32.2648 24.812 25.0538 31.9812 16.194 31.9812H16.1863C13.4976 31.9812 10.8551 31.3064 8.50534 30.0336L0 32.2649ZM8.91366 27.143L9.39902 27.4343C11.4483 28.6458 13.7981 29.2822 16.194 29.2899H16.2018C23.5592 29.2899 29.553 23.3322 29.553 16.0021C29.553 12.452 28.1662 9.11666 25.647 6.60172C23.1277 4.08678 19.7688 2.70663 16.2018 2.70663C8.84432 2.69896 2.85052 8.65661 2.85052 15.9867C2.85052 18.494 3.5516 20.94 4.89211 23.0562L5.20798 23.5622L3.85976 28.4618L8.91366 27.143Z" fill="white"/>
<path d="M0.5625 31.706L2.76588 23.7087C1.40225 21.3702 0.685766 18.7095 0.685766 15.9952C0.69347 7.4843 7.65028 0.560547 16.2018 0.560547C20.3544 0.560547 24.2449 2.17072 27.1725 5.08438C30.1001 7.99803 31.7102 11.8778 31.7102 16.0029C31.7102 24.5138 24.7457 31.4376 16.2018 31.4376H16.1941C13.5979 31.4376 11.0478 30.7859 8.78279 29.5591L0.5625 31.706Z" fill="url(#paint0_linear_3373_2098)"/>
<path d="M0 32.2649L2.28042 23.984C0.870565 21.5534 0.13097 18.8007 0.138674 15.9867C0.138674 7.16912 7.34972 0 16.2018 0C20.5006 0 24.5376 1.66385 27.5653 4.68484C30.6007 7.70584 32.2725 11.7236 32.2648 15.9944C32.2648 24.812 25.0538 31.9812 16.194 31.9812H16.1863C13.4976 31.9812 10.8551 31.3064 8.50534 30.0336L0 32.2649ZM8.91366 27.143L9.39902 27.4343C11.4483 28.6458 13.7981 29.2822 16.194 29.2899H16.2018C23.5592 29.2899 29.553 23.3322 29.553 16.0021C29.553 12.452 28.1662 9.11666 25.647 6.60172C23.1277 4.08678 19.7688 2.70663 16.2018 2.70663C8.84432 2.69896 2.85052 8.65661 2.85052 15.9867C2.85052 18.494 3.5516 20.94 4.89211 23.0562L5.20798 23.5622L3.85976 28.4618L8.91366 27.143Z" fill="url(#paint1_linear_3373_2098)"/>
<path fill-rule="evenodd" clip-rule="evenodd" d="M12.1878 9.30126C11.8873 8.63419 11.5715 8.61885 11.2864 8.61118C11.0553 8.60352 10.7856 8.60352 10.516 8.60352C10.2463 8.60352 9.81491 8.70319 9.44512 9.1019C9.07532 9.50061 8.04297 10.4667 8.04297 12.4373C8.04297 14.4001 9.48364 16.3017 9.68394 16.5701C9.88425 16.8384 12.4651 21.0019 16.5406 22.6044C19.9304 23.9385 20.6238 23.6702 21.3557 23.6012C22.0876 23.5321 23.7285 22.635 24.0675 21.6996C24.3988 20.7642 24.3988 19.9668 24.2986 19.7981C24.1985 19.6294 23.9289 19.5297 23.5282 19.3304C23.1276 19.131 21.1554 18.1649 20.7856 18.0269C20.4158 17.8965 20.1461 17.8275 19.8842 18.2262C19.6145 18.6249 18.8441 19.522 18.613 19.7904C18.3819 20.0588 18.1431 20.0894 17.7424 19.8901C17.3418 19.6907 16.0475 19.269 14.5144 17.9042C13.3203 16.8461 12.5114 15.5349 12.2802 15.1362C12.0491 14.7375 12.2571 14.5228 12.4574 14.3235C12.6346 14.1471 12.858 13.8558 13.0583 13.6257C13.2587 13.3957 13.328 13.227 13.459 12.9587C13.5899 12.6903 13.5283 12.4603 13.4281 12.2609C13.328 12.0692 12.5422 10.091 12.1878 9.30126Z" fill="white"/>
</g>
<defs>
<linearGradient id="paint0_linear_3373_2098" x1="16.1356" y1="31.7044" x2="16.1356" y2="0.559457" gradientUnits="userSpaceOnUse">
<stop stop-color="#20B038"/>
<stop offset="1" stop-color="#60D66A"/>
</linearGradient>
<linearGradient id="paint1_linear_3373_2098" x1="16.1356" y1="32.2618" x2="16.1356" y2="0" gradientUnits="userSpaceOnUse">
<stop stop-color="#F9F9F9"/>
<stop offset="1" stop-color="white"/>
</linearGradient>
<clipPath id="clip0_3373_2098">
<rect width="32.2649" height="32.2649" fill="white"/>
</clipPath>
</defs>
</svg>
