<svg width="22" height="22" viewBox="0 0 22 22" fill="none" xmlns="http://www.w3.org/2000/svg">
<path d="M15.5833 18.334C15.5833 16.8152 13.5313 15.584 11 15.584C8.46869 15.584 6.41667 16.8152 6.41667 18.334M19.25 15.5839C19.25 14.4562 18.1187 13.4871 16.5 13.0627M2.75 15.5839C2.75 14.4562 3.88125 13.4871 5.5 13.0627M16.5 9.38375C17.0626 8.8802 17.4167 8.14844 17.4167 7.33398C17.4167 5.8152 16.1855 4.58398 14.6667 4.58398C13.9623 4.58398 13.3199 4.84877 12.8333 5.28422M5.5 9.38375C4.9374 8.8802 4.58333 8.14844 4.58333 7.33398C4.58333 5.8152 5.81455 4.58398 7.33333 4.58398C8.03766 4.58398 8.68014 4.84877 9.16667 5.28422M11 12.834C9.48122 12.834 8.25 11.6028 8.25 10.084C8.25 8.5652 9.48122 7.33398 11 7.33398C12.5188 7.33398 13.75 8.5652 13.75 10.084C13.75 11.6028 12.5188 12.834 11 12.834Z" stroke="#F12A23" stroke-width="1.3" stroke-linecap="round" stroke-linejoin="round"/>
</svg>
