<svg width="12" height="16" viewBox="0 0 12 16" fill="none" xmlns="http://www.w3.org/2000/svg">
<path d="M5.64515 2.80691C6.04151 2.80691 6.42163 2.96436 6.7019 3.24463C6.98217 3.52489 7.13962 3.90502 7.13962 4.30137C7.13962 4.3953 7.17693 4.48537 7.24334 4.55179C7.30976 4.6182 7.39983 4.65551 7.49376 4.65551C7.58768 4.65551 7.67776 4.6182 7.74417 4.55179C7.81058 4.48537 7.8479 4.3953 7.8479 4.30137C7.8479 3.71717 7.61582 3.15689 7.20273 2.7438C6.78963 2.33071 6.22936 2.09863 5.64515 2.09863C5.55123 2.09863 5.46115 2.13594 5.39474 2.20236C5.32833 2.26877 5.29102 2.35885 5.29102 2.45277C5.29102 2.54669 5.32833 2.63677 5.39474 2.70319C5.46115 2.7696 5.55123 2.80691 5.64515 2.80691Z" fill="#474747"/>
<path d="M7.65535 9.59919C7.57171 9.55719 7.47485 9.55 7.38593 9.5792C7.297 9.6084 7.22326 9.67161 7.1808 9.75501C7.15903 9.79623 7.14579 9.84142 7.14186 9.88787C7.13793 9.93432 7.1434 9.98109 7.15795 10.0254C7.17249 10.0697 7.19581 10.1106 7.2265 10.1457C7.2572 10.1807 7.29465 10.2093 7.33662 10.2296C8.38487 10.7537 8.38487 12.4606 8.38487 13.0202C8.38487 13.1141 8.42218 13.2042 8.4886 13.2706C8.55501 13.337 8.64509 13.3743 8.73901 13.3743C8.83293 13.3743 8.92301 13.337 8.98942 13.2706C9.05584 13.2042 9.09315 13.1141 9.09315 13.0202C9.09315 12.3544 9.09315 10.3216 7.65535 9.59919Z" fill="#474747"/>
<path d="M8.71889 7.45311H8.68347C9.29997 6.84827 9.72241 6.07357 9.89696 5.22774C10.0715 4.38191 9.99026 3.50327 9.66356 2.70379C9.33687 1.90431 8.77953 1.22021 8.06258 0.738683C7.34563 0.257153 6.50153 0 5.63788 0C4.77423 0 3.93014 0.257153 3.21319 0.738683C2.49623 1.22021 1.9389 1.90431 1.6122 2.70379C1.28551 3.50327 1.20426 4.38191 1.37881 5.22774C1.55336 6.07357 1.9758 6.84827 2.59229 7.45311C1.11908 8.69967 0.276228 9.57794 0 13.1193C0.0144026 13.4549 0.122123 13.7799 0.311054 14.0577C0.499985 14.3354 0.762639 14.555 1.0695 14.6917C2.50177 15.3519 4.06882 15.6672 5.64497 15.6125C7.22604 15.6802 8.80083 15.3745 10.2417 14.72C10.556 14.5778 10.8234 14.3491 11.0128 14.0607C11.2021 13.7723 11.3056 13.436 11.3112 13.091C11.035 9.57086 10.1921 8.69967 8.71889 7.45311ZM8.56307 4.32252C8.56306 4.90307 8.39072 5.47056 8.06789 5.95307C7.74506 6.43558 7.28626 6.8114 6.74963 7.03291C6.21301 7.25443 5.6227 7.31166 5.05351 7.19737C4.48433 7.08307 3.96188 6.80239 3.55236 6.39089C3.14285 5.97939 2.8647 5.45558 2.75316 4.88585C2.64162 4.31611 2.70172 3.72609 2.92583 3.19054C3.14994 2.655 3.52798 2.19803 4.01204 1.87753C4.49611 1.55704 5.06442 1.38745 5.64497 1.39026C6.42019 1.394 7.16239 1.70459 7.70924 2.25409C8.25609 2.80359 8.56308 3.54729 8.56307 4.32252ZM1.75653 13.5301C1.61285 13.4632 1.48855 13.3608 1.39531 13.2326C1.63612 10.1375 2.25232 9.61335 3.48472 8.57218L3.80345 8.30304L3.98052 8.38095L5.00752 9.7975L3.76803 12.6306L5.05001 14.1959C3.91454 14.2017 2.79118 13.9625 1.75653 13.4947V13.5301ZM9.54757 13.5301C8.50358 14.0007 7.3709 14.2422 6.22575 14.2384L7.50773 12.6731L6.26825 9.84L7.29525 8.42345L7.49357 8.33137L7.81937 8.61468C9.05178 9.65585 9.66798 10.18 9.90879 13.2256C9.89463 13.2185 9.7813 13.3531 9.5334 13.4947L9.54757 13.5301Z" fill="#474747"/>
</svg>
