<svg width="12" height="13" viewBox="0 0 12 13" fill="none" xmlns="http://www.w3.org/2000/svg">
<path d="M1.33398 4.01675C0.974999 4.01675 0.683984 4.30776 0.683984 4.66675C0.683984 5.02573 0.974999 5.31675 1.33398 5.31675V4.01675ZM10.6673 5.31675C11.0263 5.31675 11.3173 5.02573 11.3173 4.66675C11.3173 4.30776 11.0263 4.01675 10.6673 4.01675V5.31675ZM1.97087 11.5396L2.26596 10.9604H2.26596L1.97087 11.5396ZM1.46114 11.0298L0.881989 11.3249L1.46114 11.0298ZM10.5403 11.0298L9.96113 10.7347L10.5403 11.0298ZM10.0302 11.5396L9.7351 10.9604L10.0302 11.5396ZM10.0302 2.46057L10.3253 1.88142L10.0302 2.46057ZM10.5403 2.97044L9.96113 3.26553L10.5403 2.97044ZM1.97087 2.46057L2.26596 3.03973L1.97087 2.46057ZM1.46114 2.97044L2.0403 3.26553L1.46114 2.97044ZM8.98398 1.16675C8.98398 0.807763 8.69297 0.516748 8.33398 0.516748C7.975 0.516748 7.68398 0.807763 7.68398 1.16675H8.98398ZM7.68398 2.33341C7.68398 2.6924 7.975 2.98341 8.33398 2.98341C8.69297 2.98341 8.98398 2.6924 8.98398 2.33341H7.68398ZM4.31732 1.16675C4.31732 0.807763 4.0263 0.516748 3.66732 0.516748C3.30833 0.516748 3.01732 0.807763 3.01732 1.16675H4.31732ZM3.01732 2.33341C3.01732 2.6924 3.30833 2.98341 3.66732 2.98341C4.0263 2.98341 4.31732 2.6924 4.31732 2.33341H3.01732ZM1.33398 5.31675H10.6673V4.01675H1.33398V5.31675ZM3.20077 2.98341H8.80077V1.68341H3.20077V2.98341ZM10.0173 4.20005V9.80005H11.3173V4.20005H10.0173ZM8.80077 11.0167H3.20077V12.3167H8.80077V11.0167ZM1.98398 9.80005V4.20005H0.683984V9.80005H1.98398ZM3.20077 11.0167C2.86336 11.0167 2.64931 11.0162 2.48731 11.003C2.33285 10.9904 2.28381 10.9695 2.26596 10.9604L1.67577 12.1187C1.90749 12.2368 2.1467 12.2795 2.38145 12.2987C2.60866 12.3172 2.88478 12.3167 3.20077 12.3167V11.0167ZM0.683984 9.80005C0.683984 10.116 0.683479 10.3921 0.702038 10.6193C0.721216 10.854 0.763935 11.0932 0.881989 11.3249L2.0403 10.7347C2.03119 10.7168 2.01033 10.6678 1.99772 10.5134C1.98449 10.3515 1.98398 10.1375 1.98398 9.80005H0.683984ZM2.26596 10.9604C2.16884 10.9109 2.08988 10.832 2.0403 10.7347L0.881989 11.3249C1.05611 11.6666 1.33385 11.9445 1.67577 12.1187L2.26596 10.9604ZM10.0173 9.80005C10.0173 10.1375 10.0168 10.3515 10.0036 10.5135C9.99105 10.6679 9.9702 10.7169 9.96113 10.7347L11.1194 11.3249C11.2375 11.0931 11.2802 10.8539 11.2993 10.6192C11.3179 10.392 11.3173 10.116 11.3173 9.80005H10.0173ZM8.80077 12.3167C9.11674 12.3167 9.39277 12.3172 9.61988 12.2987C9.85462 12.2795 10.0936 12.2368 10.3253 12.1187L9.7351 10.9604C9.71718 10.9695 9.66819 10.9904 9.51396 11.003C9.35209 11.0162 9.13819 11.0167 8.80077 11.0167V12.3167ZM9.96113 10.7347C9.91177 10.8316 9.83265 10.9107 9.7351 10.9604L10.3253 12.1187C10.6668 11.9447 10.9451 11.667 11.1194 11.3249L9.96113 10.7347ZM8.80077 2.98341C9.13819 2.98341 9.3521 2.98392 9.51397 2.99715C9.66821 3.00976 9.71719 3.0306 9.7351 3.03973L10.3253 1.88142C10.0936 1.76339 9.8546 1.72065 9.61986 1.70147C9.39276 1.68291 9.11673 1.68341 8.80077 1.68341V2.98341ZM11.3173 4.20005C11.3173 3.88415 11.3179 3.60808 11.2993 3.38098C11.2802 3.14627 11.2375 2.9071 11.1194 2.67534L9.96113 3.26553C9.9702 3.28334 9.99105 3.33228 10.0036 3.48664C10.0168 3.64861 10.0173 3.86256 10.0173 4.20005H11.3173ZM9.7351 3.03973C9.83258 3.0894 9.91173 3.16858 9.96113 3.26553L11.1194 2.67534C10.9451 2.33325 10.6668 2.05545 10.3253 1.88142L9.7351 3.03973ZM3.20077 1.68341C2.88479 1.68341 2.60867 1.68291 2.38146 1.70147C2.14672 1.72064 1.9075 1.76335 1.67577 1.88142L2.26596 3.03973C2.2838 3.03064 2.33283 3.00977 2.48729 2.99715C2.6493 2.98392 2.86335 2.98341 3.20077 2.98341V1.68341ZM1.98398 4.20005C1.98398 3.86263 1.98449 3.64867 1.99772 3.48674C2.01033 3.33241 2.03119 3.28342 2.0403 3.26553L0.881989 2.67534C0.763943 2.90702 0.721218 3.14614 0.702038 3.38088C0.683479 3.60802 0.683984 3.88408 0.683984 4.20005H1.98398ZM1.67577 1.88142C1.33378 2.05568 1.05607 2.33368 0.881989 2.67534L2.0403 3.26553C2.08992 3.16815 2.16891 3.08918 2.26596 3.03973L1.67577 1.88142ZM5.85482 9.98341C6.29434 9.98341 6.65065 9.62711 6.65065 9.18758H5.35065C5.35065 8.90914 5.57637 8.68341 5.85482 8.68341V9.98341ZM6.65065 9.18758V7.14591H5.35065V9.18758H6.65065ZM6.65065 7.14591C6.65065 6.70639 6.29434 6.35008 5.85482 6.35008V7.65008C5.57637 7.65008 5.35065 7.42436 5.35065 7.14591H6.65065ZM5.85482 6.35008H3.81315V7.65008H5.85482V6.35008ZM3.81315 6.35008C3.37362 6.35008 3.01732 6.70639 3.01732 7.14591H4.31732C4.31732 7.42436 4.09159 7.65008 3.81315 7.65008V6.35008ZM3.01732 7.14591V9.18758H4.31732V7.14591H3.01732ZM3.01732 9.18758C3.01732 9.62711 3.37362 9.98341 3.81315 9.98341V8.68341C4.09159 8.68341 4.31732 8.90914 4.31732 9.18758H3.01732ZM3.81315 9.98341H5.85482V8.68341H3.81315V9.98341ZM7.68398 1.16675V2.33341H8.98398V1.16675H7.68398ZM3.01732 1.16675V2.33341H4.31732V1.16675H3.01732Z" fill="#A5A4AA"/>
</svg>
