<svg width="13" height="18" viewBox="0 0 13 18" fill="none" xmlns="http://www.w3.org/2000/svg">
<path fill-rule="evenodd" clip-rule="evenodd" d="M2.29688 0.875C1.11464 0.875 0.15625 1.83339 0.15625 3.01562V15.8594C0.15625 17.0416 1.11464 18 2.29688 18H10.8594C12.0416 18 13 17.0416 13 15.8594V3.01562C13 1.83339 12.0416 0.875 10.8594 0.875H2.29688ZM3.36719 3.01562C2.77608 3.01562 2.29688 3.49483 2.29688 4.08594C2.29688 4.67705 2.77608 5.15625 3.36719 5.15625H9.78906C10.3802 5.15625 10.8594 4.67705 10.8594 4.08594C10.8594 3.49483 10.3802 3.01562 9.78906 3.01562H3.36719ZM9.78906 10.5078C10.3802 10.5078 10.8594 10.987 10.8594 11.5781V14.7891C10.8594 15.3802 10.3802 15.8594 9.78906 15.8594C9.19793 15.8594 8.71875 15.3802 8.71875 14.7891V11.5781C8.71875 10.987 9.19793 10.5078 9.78906 10.5078ZM6.57812 13.7188C5.98701 13.7188 5.50781 14.1979 5.50781 14.7891C5.50781 15.3802 5.98701 15.8594 6.57812 15.8594H6.58883C7.17996 15.8594 7.65914 15.3802 7.65914 14.7891C7.65914 14.1979 7.17996 13.7188 6.58883 13.7188H6.57812ZM2.29688 14.7891C2.29688 14.1979 2.77608 13.7188 3.36719 13.7188H3.37789C3.969 13.7188 4.4482 14.1979 4.4482 14.7891C4.4482 15.3802 3.969 15.8594 3.37789 15.8594H3.36719C2.77608 15.8594 2.29688 15.3802 2.29688 14.7891ZM3.36719 10.5078C2.77608 10.5078 2.29688 10.987 2.29688 11.5781C2.29688 12.1693 2.77608 12.6484 3.36719 12.6484H3.37789C3.969 12.6484 4.4482 12.1693 4.4482 11.5781C4.4482 10.987 3.969 10.5078 3.37789 10.5078H3.36719ZM5.50781 11.5781C5.50781 10.987 5.98701 10.5078 6.57812 10.5078H6.58883C7.17996 10.5078 7.65914 10.987 7.65914 11.5781C7.65914 12.1693 7.17996 12.6484 6.58883 12.6484H6.57812C5.98701 12.6484 5.50781 12.1693 5.50781 11.5781ZM9.78906 7.29688C9.19793 7.29688 8.71875 7.77608 8.71875 8.36719C8.71875 8.9583 9.19793 9.4375 9.78906 9.4375H9.79977C10.3909 9.4375 10.8701 8.9583 10.8701 8.36719C10.8701 7.77608 10.3909 7.29688 9.79977 7.29688H9.78906ZM5.50781 8.36719C5.50781 7.77608 5.98701 7.29688 6.57812 7.29688H6.58883C7.17996 7.29688 7.65914 7.77608 7.65914 8.36719C7.65914 8.9583 7.17996 9.4375 6.58883 9.4375H6.57812C5.98701 9.4375 5.50781 8.9583 5.50781 8.36719ZM3.36719 7.29688C2.77608 7.29688 2.29688 7.77608 2.29688 8.36719C2.29688 8.9583 2.77608 9.4375 3.36719 9.4375H3.37789C3.969 9.4375 4.4482 8.9583 4.4482 8.36719C4.4482 7.77608 3.969 7.29688 3.37789 7.29688H3.36719Z" fill="#606060"/>
</svg>
