<svg width="12" height="13" viewBox="0 0 12 13" fill="none" xmlns="http://www.w3.org/2000/svg">
<path d="M1.33496 4.16675C1.05882 4.16675 0.834961 4.39061 0.834961 4.66675C0.834961 4.94289 1.05882 5.16675 1.33496 5.16675V4.16675ZM10.6683 5.16675C10.9444 5.16675 11.1683 4.94289 11.1683 4.66675C11.1683 4.39061 10.9444 4.16675 10.6683 4.16675V5.16675ZM1.97184 11.5396L2.19884 11.0941H2.19884L1.97184 11.5396ZM1.46212 11.0298L1.01662 11.2568L1.46212 11.0298ZM10.5413 11.0298L10.0958 10.8028L10.5413 11.0298ZM10.0312 11.5396L9.80417 11.0941L10.0312 11.5396ZM10.0312 2.46057L10.2582 2.01507L10.0312 2.46057ZM10.5413 2.97044L10.0958 3.19743L10.5413 2.97044ZM1.97184 2.46057L2.19884 2.90608L1.97184 2.46057ZM1.46212 2.97044L1.90762 3.19743L1.46212 2.97044ZM8.83496 1.16675C8.83496 0.890606 8.6111 0.666748 8.33496 0.666748C8.05882 0.666748 7.83496 0.890606 7.83496 1.16675H8.83496ZM7.83496 2.33341C7.83496 2.60956 8.05882 2.83341 8.33496 2.83341C8.6111 2.83341 8.83496 2.60956 8.83496 2.33341H7.83496ZM4.16829 1.16675C4.16829 0.890606 3.94444 0.666748 3.66829 0.666748C3.39215 0.666748 3.16829 0.890606 3.16829 1.16675H4.16829ZM3.16829 2.33341C3.16829 2.60956 3.39215 2.83341 3.66829 2.83341C3.94444 2.83341 4.16829 2.60956 4.16829 2.33341H3.16829ZM1.33496 5.16675H10.6683V4.16675H1.33496V5.16675ZM3.20174 2.83341H8.80174V1.83341H3.20174V2.83341ZM10.1683 4.20005V9.80005H11.1683V4.20005H10.1683ZM8.80174 11.1667H3.20174V12.1667H8.80174V11.1667ZM1.83496 9.80005V4.20005H0.834961V9.80005H1.83496ZM3.20174 11.1667C2.86681 11.1667 2.6456 11.1664 2.47607 11.1525C2.31235 11.1391 2.24136 11.1157 2.19884 11.0941L1.74485 11.9851C1.95188 12.0906 2.16915 12.1308 2.39464 12.1492C2.61433 12.1671 2.88328 12.1667 3.20174 12.1667V11.1667ZM0.834961 9.80005C0.834961 10.1185 0.834572 10.3874 0.852516 10.6071C0.870936 10.8325 0.911133 11.0497 1.01662 11.2568L1.90762 10.8028C1.88595 10.7602 1.86257 10.6893 1.8492 10.5256C1.83535 10.3562 1.83496 10.135 1.83496 9.80005H0.834961ZM2.19884 11.0941C2.07347 11.0302 1.97158 10.9283 1.90762 10.8028L1.01662 11.2568C1.17637 11.5703 1.43117 11.8252 1.74485 11.9851L2.19884 11.0941ZM10.1683 9.80005C10.1683 10.135 10.1679 10.3562 10.1541 10.5257C10.1408 10.6894 10.1174 10.7603 10.0958 10.8028L10.9868 11.2568C11.0923 11.0497 11.1324 10.8324 11.1508 10.607C11.1687 10.3874 11.1683 10.1185 11.1683 9.80005H10.1683ZM8.80174 12.1667C9.12019 12.1667 9.38905 12.1671 9.60863 12.1492C9.83408 12.1308 10.0512 12.0905 10.2582 11.9851L9.80417 11.0941C9.76159 11.1158 9.69068 11.1391 9.52715 11.1525C9.35776 11.1664 9.13669 11.1667 8.80174 11.1667V12.1667ZM10.0958 10.8028C10.032 10.928 9.92987 11.03 9.80417 11.0941L10.2582 11.9851C10.5715 11.8254 10.8268 11.5706 10.9868 11.2568L10.0958 10.8028ZM8.80174 2.83341C9.13669 2.83341 9.35777 2.8338 9.52716 2.84765C9.69069 2.86101 9.7616 2.88438 9.80417 2.90608L10.2582 2.01507C10.0512 1.9096 9.83407 1.8694 9.60862 1.85097C9.38904 1.83303 9.12018 1.83341 8.80174 1.83341V2.83341ZM11.1683 4.20005C11.1683 3.88166 11.1687 3.61276 11.1508 3.39317C11.1324 3.16774 11.0923 2.95051 10.9868 2.74344L10.0958 3.19743C10.1174 3.23993 10.1408 3.31081 10.1541 3.47445C10.1679 3.64393 10.1683 3.86505 10.1683 4.20005H11.1683ZM9.80417 2.90608C9.92982 2.9701 10.0319 3.0722 10.0958 3.19743L10.9868 2.74344C10.8269 2.42964 10.5716 2.17475 10.2582 2.01507L9.80417 2.90608ZM3.20174 1.83341C2.88329 1.83341 2.61433 1.83303 2.39465 1.85097C2.16917 1.86939 1.95189 1.90958 1.74485 2.01507L2.19884 2.90608C2.24136 2.88441 2.31233 2.86102 2.47606 2.84765C2.64559 2.8338 2.8668 2.83341 3.20174 2.83341V1.83341ZM1.83496 4.20005C1.83496 3.8651 1.83535 3.64398 1.8492 3.47453C1.86256 3.31092 1.88594 3.23999 1.90762 3.19743L1.01662 2.74344C0.911139 2.95045 0.870938 3.16763 0.852517 3.39309C0.834572 3.61271 0.834961 3.88161 0.834961 4.20005H1.83496ZM1.74485 2.01507C1.43111 2.17493 1.17634 2.42997 1.01662 2.74344L1.90762 3.19743C1.9716 3.07186 2.07353 2.96993 2.19884 2.90608L1.74485 2.01507ZM5.85579 9.83341C6.21248 9.83341 6.50163 9.54426 6.50163 9.18758H5.50163C5.50163 8.99198 5.66019 8.83341 5.85579 8.83341V9.83341ZM6.50163 9.18758V7.14591H5.50163V9.18758H6.50163ZM6.50163 7.14591C6.50163 6.78923 6.21248 6.50008 5.85579 6.50008V7.50008C5.66019 7.50008 5.50163 7.34152 5.50163 7.14591H6.50163ZM5.85579 6.50008H3.81413V7.50008H5.85579V6.50008ZM3.81413 6.50008C3.45744 6.50008 3.16829 6.78923 3.16829 7.14591H4.16829C4.16829 7.34152 4.00973 7.50008 3.81413 7.50008V6.50008ZM3.16829 7.14591V9.18758H4.16829V7.14591H3.16829ZM3.16829 9.18758C3.16829 9.54426 3.45744 9.83341 3.81413 9.83341V8.83341C4.00973 8.83341 4.16829 8.99198 4.16829 9.18758H3.16829ZM3.81413 9.83341H5.85579V8.83341H3.81413V9.83341ZM7.83496 1.16675V2.33341H8.83496V1.16675H7.83496ZM3.16829 1.16675V2.33341H4.16829V1.16675H3.16829Z" fill="white"/>
</svg>
