<svg width="12" height="13" viewBox="0 0 12 13" fill="none" xmlns="http://www.w3.org/2000/svg">
<path d="M1.33301 4.01663C0.974023 4.01663 0.683008 4.30764 0.683008 4.66663C0.683008 5.02561 0.974023 5.31663 1.33301 5.31663V4.01663ZM10.6663 5.31663C11.0253 5.31663 11.3163 5.02561 11.3163 4.66663C11.3163 4.30764 11.0253 4.01663 10.6663 4.01663V5.31663ZM1.96989 11.5394L2.26498 10.9603H2.26498L1.96989 11.5394ZM1.46017 11.0296L0.881013 11.3247L1.46017 11.0296ZM10.5393 11.0296L9.96015 10.7345L10.5393 11.0296ZM10.0292 11.5394L9.73412 10.9603L10.0292 11.5394ZM10.0292 2.46045L10.3243 1.8813L10.0292 2.46045ZM10.5393 2.97032L9.96015 3.26541L10.5393 2.97032ZM1.96989 2.46045L2.26498 3.03961L1.96989 2.46045ZM1.46017 2.97032L2.03932 3.26541L1.46017 2.97032ZM8.98301 1.16663C8.98301 0.807641 8.69199 0.516626 8.33301 0.516626C7.97402 0.516626 7.68301 0.807641 7.68301 1.16663H8.98301ZM7.68301 2.33329C7.68301 2.69228 7.97402 2.98329 8.33301 2.98329C8.69199 2.98329 8.98301 2.69228 8.98301 2.33329H7.68301ZM4.31634 1.16663C4.31634 0.807641 4.02533 0.516626 3.66634 0.516626C3.30736 0.516626 3.01634 0.807641 3.01634 1.16663H4.31634ZM3.01634 2.33329C3.01634 2.69228 3.30736 2.98329 3.66634 2.98329C4.02533 2.98329 4.31634 2.69228 4.31634 2.33329H3.01634ZM1.33301 5.31663H10.6663V4.01663H1.33301V5.31663ZM3.19979 2.98329H8.79979V1.68329H3.19979V2.98329ZM10.0163 4.19993V9.79993H11.3163V4.19993H10.0163ZM8.79979 11.0166H3.19979V12.3166H8.79979V11.0166ZM1.98301 9.79993V4.19993H0.683008V9.79993H1.98301ZM3.19979 11.0166C2.86238 11.0166 2.64833 11.0161 2.48633 11.0029C2.33188 10.9903 2.28283 10.9694 2.26498 10.9603L1.6748 12.1186C1.90651 12.2367 2.14572 12.2794 2.38047 12.2986C2.60768 12.3171 2.8838 12.3166 3.19979 12.3166V11.0166ZM0.683008 9.79993C0.683008 10.1159 0.682502 10.392 0.701061 10.6192C0.720239 10.8539 0.762958 11.093 0.881013 11.3247L2.03932 10.7345C2.03022 10.7167 2.00936 10.6677 1.99674 10.5133C1.98351 10.3513 1.98301 10.1374 1.98301 9.79993H0.683008ZM2.26498 10.9603C2.16786 10.9108 2.08891 10.8319 2.03932 10.7345L0.881013 11.3247C1.05513 11.6665 1.33287 11.9444 1.6748 12.1186L2.26498 10.9603ZM10.0163 9.79993C10.0163 10.1374 10.0159 10.3514 10.0027 10.5134C9.99007 10.6678 9.96922 10.7168 9.96015 10.7345L11.1185 11.3247C11.2366 11.093 11.2792 10.8538 11.2984 10.619C11.3169 10.3919 11.3163 10.1158 11.3163 9.79993H10.0163ZM8.79979 12.3166C9.11576 12.3166 9.39179 12.3171 9.6189 12.2986C9.85364 12.2794 10.0927 12.2366 10.3243 12.1186L9.73412 10.9603C9.7162 10.9694 9.66721 10.9903 9.51298 11.0029C9.35112 11.0161 9.13721 11.0166 8.79979 11.0166V12.3166ZM9.96015 10.7345C9.91079 10.8314 9.83168 10.9106 9.73412 10.9603L10.3243 12.1186C10.6658 11.9446 10.9441 11.6669 11.1185 11.3247L9.96015 10.7345ZM8.79979 2.98329C9.13722 2.98329 9.35112 2.9838 9.51299 2.99703C9.66723 3.00963 9.71621 3.03048 9.73412 3.03961L10.3243 1.8813C10.0927 1.76327 9.85362 1.72053 9.61889 1.70135C9.39178 1.68279 9.11576 1.68329 8.79979 1.68329V2.98329ZM11.3163 4.19993C11.3163 3.88403 11.3169 3.60796 11.2984 3.38086C11.2792 3.14615 11.2365 2.90698 11.1185 2.67522L9.96015 3.26541C9.96923 3.28322 9.99007 3.33215 10.0027 3.48652C10.0159 3.64848 10.0163 3.86244 10.0163 4.19993H11.3163ZM9.73412 3.03961C9.83161 3.08928 9.91075 3.16846 9.96015 3.26541L11.1185 2.67522C10.9442 2.33313 10.6659 2.05533 10.3243 1.8813L9.73412 3.03961ZM3.19979 1.68329C2.88381 1.68329 2.60769 1.68279 2.38049 1.70134C2.14574 1.72052 1.90652 1.76323 1.6748 1.8813L2.26498 3.03961C2.28282 3.03052 2.33186 3.00965 2.48632 2.99703C2.64832 2.9838 2.86237 2.98329 3.19979 2.98329V1.68329ZM1.98301 4.19993C1.98301 3.86251 1.98351 3.64854 1.99674 3.48662C2.00935 3.33229 2.03021 3.28329 2.03932 3.26541L0.881013 2.67522C0.762966 2.9069 0.720242 3.14601 0.701062 3.38075C0.682502 3.6079 0.683008 3.88396 0.683008 4.19993H1.98301ZM1.6748 1.8813C1.3328 2.05555 1.0551 2.33356 0.881013 2.67522L2.03932 3.26541C2.08894 3.16803 2.16793 3.08905 2.26498 3.03961L1.6748 1.8813ZM5.85384 9.98329C6.29337 9.98329 6.64967 9.62699 6.64967 9.18746H5.34967C5.34967 8.90902 5.5754 8.68329 5.85384 8.68329V9.98329ZM6.64967 9.18746V7.14579H5.34967V9.18746H6.64967ZM6.64967 7.14579C6.64967 6.70627 6.29337 6.34996 5.85384 6.34996V7.64996C5.5754 7.64996 5.34967 7.42424 5.34967 7.14579H6.64967ZM5.85384 6.34996H3.81217V7.64996H5.85384V6.34996ZM3.81217 6.34996C3.37265 6.34996 3.01634 6.70627 3.01634 7.14579H4.31634C4.31634 7.42424 4.09062 7.64996 3.81217 7.64996V6.34996ZM3.01634 7.14579V9.18746H4.31634V7.14579H3.01634ZM3.01634 9.18746C3.01634 9.62699 3.37265 9.98329 3.81217 9.98329V8.68329C4.09062 8.68329 4.31634 8.90902 4.31634 9.18746H3.01634ZM3.81217 9.98329H5.85384V8.68329H3.81217V9.98329ZM7.68301 1.16663V2.33329H8.98301V1.16663H7.68301ZM3.01634 1.16663V2.33329H4.31634V1.16663H3.01634Z" fill="#222222"/>
</svg>
