<svg width="39" height="36" viewBox="0 0 39 36" fill="none" xmlns="http://www.w3.org/2000/svg">
<path d="M13.9676 29.9796C14.39 29.9796 14.7498 29.6354 14.7498 29.1973V28.1022C15.5946 27.9458 16.283 27.6172 16.8618 27.101C17.5971 26.4439 18.0039 25.5678 18.0039 24.6448C18.0195 23.7061 17.6284 22.8144 16.9088 22.1573C16.2204 21.4846 15.2192 21.1404 14.2649 20.8119C12.7004 20.2643 11.7304 19.8576 11.5896 18.7937C11.4801 18.0271 12.059 17.2136 12.8725 16.979C13.7799 16.713 14.9845 16.8225 16.1265 17.2762C16.5333 17.4327 16.9714 17.2449 17.1434 16.8382C17.2999 16.4314 17.1122 15.9934 16.7054 15.8213C16.0483 15.5553 15.3913 15.3989 14.7342 15.3206V14.2725C14.7342 13.8501 14.39 13.4902 13.952 13.4902C13.5296 13.4902 13.1697 13.8344 13.1697 14.2725V15.3206C12.9194 15.3519 12.6691 15.3989 12.4344 15.4771C10.8856 15.9308 9.83745 17.4796 10.0408 18.9971C10.3224 21.0778 12.2154 21.7505 13.7486 22.2825C14.5777 22.5797 15.3756 22.8457 15.8293 23.2837C16.2204 23.6592 16.4394 24.1285 16.4394 24.6291C16.4394 25.1141 16.2048 25.5835 15.8137 25.9433C15.36 26.35 14.7342 26.5847 13.9363 26.6473C13.3105 26.6786 12.5909 26.616 11.7148 26.4595C11.4958 26.4126 11.2924 26.3813 11.089 26.3187C10.6823 26.1936 10.2442 26.4283 10.1191 26.835C9.9939 27.2418 10.2286 27.6798 10.6353 27.805C10.8856 27.8832 11.1516 27.9301 11.4332 27.9927C12.0903 28.1179 12.6691 28.1804 13.201 28.2117V29.213C13.201 29.6197 13.5452 29.9796 13.9676 29.9796Z" fill="black"/>
<path d="M23.2294 14.0535H25.2006C23.9647 12.1918 22.2751 10.6586 20.3039 9.61047L20.0848 9.50095L22.1499 1.91336C22.2125 1.67869 22.1656 1.42838 22.0091 1.225C21.8527 1.02162 21.618 0.912109 21.3833 0.912109H6.67748C6.42717 0.912109 6.1925 1.03727 6.0517 1.225C5.9109 1.41273 5.84832 1.67869 5.9109 1.91336L7.97597 9.48531L7.75695 9.59482C3.34519 11.9415 0.623047 16.4941 0.623047 21.469V33.4527C0.623047 33.8908 0.982871 34.2506 1.42092 34.2506H17.8007C17.7851 34.1567 17.7851 34.0629 17.7851 33.9534V32.6549H2.20314V21.469C2.20314 16.9947 4.80013 12.8176 8.82078 10.8464L8.88336 10.8151H14.0148C14.4528 10.8151 14.8126 10.4553 14.8126 10.0172C14.8126 9.57918 14.4528 9.21935 14.0148 9.21935H9.54043L7.71002 2.49221H20.3195L18.5047 9.21935H18.2701C17.8007 9.21935 17.4566 9.57918 17.4566 10.0172C17.4566 10.4553 17.8164 10.8151 18.2544 10.8151H19.1618L19.2244 10.8464C20.7576 11.613 22.1343 12.7081 23.2294 14.0535Z" fill="black"/>
<path d="M37.6062 15.4458H21.1638C20.3972 15.4458 19.7871 16.0716 19.7871 16.8225V20.1704C19.7871 20.937 20.4129 21.5472 21.1638 21.5472C21.5862 21.5472 21.9461 21.203 21.9461 20.7649C21.9461 20.3895 21.6957 20.0922 21.3359 20.014V16.9946H37.4341V20.014C37.09 20.0922 36.8396 20.4051 36.8396 20.7649C36.8396 21.1873 37.1838 21.5472 37.6219 21.5472C38.3884 21.5472 38.9986 20.9214 38.9986 20.1704V16.8225C38.9829 16.0716 38.3728 15.4458 37.6062 15.4458Z" fill="#F12A23"/>
<path d="M37.6062 22.6423H21.1638C20.3972 22.6423 19.7871 23.2681 19.7871 24.0191V27.367C19.7871 28.1336 20.4129 28.7437 21.1638 28.7437H37.6062C38.3728 28.7437 38.9829 28.1179 38.9829 27.367V24.0191C38.9829 23.2681 38.3728 22.6423 37.6062 22.6423ZM37.4341 27.1949H21.3359V24.1911H37.4341V27.1949Z" fill="#F12A23"/>
<path d="M37.6062 29.8389C37.1838 29.8389 36.824 30.183 36.824 30.6211C36.824 30.9966 37.0743 31.2938 37.4185 31.372V34.3914H21.3359V31.372C21.6801 31.2938 21.9461 30.9809 21.9461 30.6211C21.9461 30.1987 21.6019 29.8389 21.1638 29.8389C20.3972 29.8389 19.7871 30.4646 19.7871 31.2156V34.5635C19.7871 35.3301 20.4129 35.9402 21.1638 35.9402H37.6062C38.3728 35.9402 38.9829 35.3145 38.9829 34.5635V31.2156C38.9829 30.449 38.3728 29.8389 37.6062 29.8389Z" fill="#F12A23"/>
</svg>
