<svg width="38" height="32" viewBox="0 0 38 32" fill="none" xmlns="http://www.w3.org/2000/svg">
<path d="M29.505 20.7677C28.8803 20.4976 28.2279 20.2965 27.5595 20.1679C27.1079 20.0623 26.6638 19.9269 26.2301 19.7626C25.9718 19.6724 25.7385 19.5224 25.5492 19.3248C25.4038 19.1534 25.3285 18.9334 25.3385 18.7088C25.3296 18.546 25.3639 18.3838 25.4379 18.2386C25.5119 18.0934 25.623 17.9704 25.76 17.882C26.1121 17.6724 26.518 17.571 26.9273 17.5901C27.3258 17.5754 27.7201 17.6768 28.0621 17.882C28.1978 17.9588 28.3157 18.0636 28.4079 18.1893C28.5001 18.3151 28.5646 18.459 28.5971 18.6115C28.6278 18.688 28.6821 18.7528 28.752 18.7966C28.8219 18.8403 28.904 18.8606 28.9862 18.8547H30.267C30.3059 18.8571 30.3449 18.8511 30.3814 18.8373C30.4179 18.8235 30.451 18.8021 30.4786 18.7745C30.5062 18.7469 30.5276 18.7138 30.5414 18.6773C30.5552 18.6408 30.5612 18.6018 30.5588 18.5629C30.5286 18.1976 30.4059 17.8461 30.2021 17.5415C29.956 17.1661 29.6293 16.8504 29.2456 16.6174C28.7863 16.3378 28.272 16.1608 27.7379 16.0986V15.1421C27.7402 15.0989 27.7334 15.0557 27.718 15.0153C27.7025 14.9749 27.6787 14.9382 27.6481 14.9076C27.6175 14.877 27.5808 14.8532 27.5404 14.8377C27.5 14.8223 27.4568 14.8155 27.4136 14.8178H26.5706C26.4873 14.8147 26.4061 14.8437 26.3436 14.8989C26.3105 14.9298 26.2847 14.9676 26.2678 15.0096C26.251 15.0517 26.2437 15.0969 26.2463 15.1421V16.0824C25.4703 16.1423 24.7355 16.4556 24.155 16.9741C23.9092 17.2007 23.7143 17.4767 23.583 17.7841C23.4516 18.0915 23.3869 18.4232 23.393 18.7574C23.3725 19.0919 23.429 19.4267 23.5583 19.7359C23.6876 20.0451 23.8862 20.3204 24.1388 20.5408C24.832 21.0461 25.6298 21.3896 26.4733 21.5459C27.111 21.7189 27.5974 21.8648 27.9324 21.9837C28.2082 22.0694 28.4625 22.2131 28.6782 22.4052C28.759 22.4856 28.8223 22.5818 28.8642 22.6878C28.906 22.7938 28.9255 22.9073 28.9214 23.0212C28.9256 23.1972 28.8827 23.3712 28.7972 23.5251C28.7117 23.679 28.5867 23.8073 28.435 23.8967C28.0058 24.1381 27.5161 24.2507 27.0245 24.2209C26.5664 24.245 26.1109 24.1382 25.7113 23.9129C25.4143 23.7374 25.19 23.4614 25.0791 23.1347C25.0387 23.0596 24.9835 22.9934 24.9169 22.9402C24.8375 22.9172 24.7532 22.9172 24.6738 22.9402H23.4578C23.4191 22.939 23.3805 22.9456 23.3443 22.9595C23.3081 22.9734 23.2751 22.9944 23.2471 23.0212C23.1953 23.0728 23.1662 23.1428 23.166 23.2158C23.1866 23.6331 23.3212 24.0368 23.5551 24.3831C23.8236 24.7744 24.1859 25.0921 24.6089 25.3072C25.1134 25.5684 25.6642 25.7281 26.2301 25.7773V26.7176C26.2275 26.7628 26.2348 26.808 26.2516 26.8501C26.2685 26.8921 26.2943 26.9299 26.3274 26.9608C26.3898 27.016 26.4711 27.045 26.5544 27.0419H27.3974C27.4406 27.0442 27.4838 27.0374 27.5242 27.022C27.5646 27.0065 27.6013 26.9827 27.6319 26.9521C27.6625 26.9215 27.6863 26.8848 27.7018 26.8444C27.7172 26.804 27.724 26.7608 27.7217 26.7176V25.7773C28.5561 25.7302 29.3551 25.4242 30.0076 24.9019C30.2833 24.6672 30.5024 24.3733 30.6484 24.042C30.7944 23.7107 30.8635 23.3506 30.8506 22.9888C30.8687 22.5271 30.7502 22.0704 30.5102 21.6756C30.2652 21.2862 29.9173 20.972 29.505 20.7677Z" fill="#F12A23"/>
<path d="M27.0258 10.1165H22.8917V5.9499C22.8917 5.73491 22.8063 5.52873 22.6543 5.37671C22.5023 5.22469 22.2961 5.13929 22.0811 5.13929H21.0759V0.810613C21.0759 0.595625 20.9905 0.389443 20.8385 0.237423C20.6865 0.0854037 20.4803 0 20.2653 0L0.810613 0C0.595625 0 0.389443 0.0854037 0.237423 0.237423C0.0854037 0.389443 0 0.595625 0 0.810613L0 5.78778C0 5.89423 0.0209671 5.99964 0.0617042 6.09799C0.102441 6.19633 0.162151 6.2857 0.237423 6.36097C0.312695 6.43624 0.402057 6.49595 0.500405 6.53669C0.598753 6.57742 0.704162 6.59839 0.810613 6.59839H1.88062V10.9271C1.88062 11.1421 1.96603 11.3482 2.11805 11.5003C2.27006 11.6523 2.47625 11.7377 2.69124 11.7377H3.50185V15.1098H1.07001C0.855021 15.1098 0.648839 15.1952 0.496819 15.3473C0.3448 15.4993 0.259396 15.7055 0.259396 15.9204V30.8033C0.259396 31.0183 0.3448 31.2245 0.496819 31.3765C0.648839 31.5285 0.855021 31.6139 1.07001 31.6139H20.5247C20.7397 31.6139 20.9459 31.5285 21.0979 31.3765C21.2499 31.2245 21.3353 31.0183 21.3353 30.8033V29.9765C22.7514 30.8931 24.3625 31.4652 26.0396 31.6469C27.7166 31.8286 29.4129 31.6149 30.9924 31.0228C32.5719 30.4307 33.9908 29.4768 35.1352 28.2375C36.2796 26.9982 37.1177 25.5081 37.5823 23.8865C38.047 22.2649 38.1252 20.557 37.8108 18.8997C37.4963 17.2424 36.798 15.6818 35.7717 14.3431C34.7454 13.0044 33.4197 11.9248 31.9009 11.1908C30.3821 10.4568 28.7125 10.0888 27.0258 10.1165ZM1.62123 1.62123H19.4547V4.97716H1.62123V1.62123ZM3.50185 6.76051H21.3353V10.1165H3.50185V6.76051ZM5.12308 11.7377H21.3353C19.9653 12.5896 18.8023 13.736 17.9308 15.0936H5.12308V11.7377ZM16.4717 25.0642H1.88062V21.7082H16.2123C16.2941 22.8624 16.5624 23.9957 17.0067 25.0642H16.4717ZM1.88062 16.7148H17.0715C16.6217 17.7823 16.3479 18.9157 16.2609 20.0708H1.88062V16.7148ZM19.7141 30.0413H1.88062V26.6854H17.9145C18.4026 27.4527 18.9854 28.1553 19.6493 28.7768L19.7141 30.0413ZM27.0907 30.0413C25.4849 30.0429 23.9069 29.6216 22.5156 28.8197C21.1244 28.0178 19.9688 26.8637 19.1652 25.4734C18.3616 24.0831 17.9383 22.5057 17.9379 20.8999C17.9375 19.2941 18.36 17.7164 19.1629 16.3257C19.195 16.2801 19.2221 16.2312 19.244 16.1798C20.0681 14.8116 21.2363 13.6831 22.6322 12.9067C24.0281 12.1303 25.603 11.7332 27.2001 11.7547C28.7972 11.7763 30.3609 12.2159 31.7353 13.0297C33.1097 13.8435 34.247 15.0032 35.0338 16.3932C35.8207 17.7832 36.2297 19.3551 36.2201 20.9523C36.2106 22.5496 35.7828 24.1165 34.9793 25.497C34.1759 26.8775 33.0248 28.0234 31.6408 28.8207C30.2567 29.618 28.688 30.0389 27.0907 30.0413Z" fill="black"/>
</svg>
