<svg width="125" height="125" viewBox="0 0 125 125" fill="none" xmlns="http://www.w3.org/2000/svg">
<path fill-rule="evenodd" clip-rule="evenodd" d="M87.6844 41.1228C76.6639 31.8822 59.1055 25.1055 45.1044 27.6994C33.2072 29.9035 25.1896 42.5192 29.469 54.6681C33.0578 64.8563 40.3469 71.4692 44.3983 74.1833C44.662 74.3599 44.9104 88.5386 45.1318 88.5825C45.2262 88.6011 59.2902 83.1088 59.6505 83.2969C68.8358 88.092 79.4344 90.7231 87.8903 88.6946C98.6704 86.1087 105.169 73.0166 102.121 60.9773C100.46 54.4165 95.579 47.3391 90.3743 43.1387" fill="#FAFAFA"/>
<path d="M87.6844 41.1228C76.6639 31.8821 59.1055 25.1055 45.1044 27.6994C33.2072 29.9035 25.1896 42.5192 29.469 54.6681C33.0578 64.8563 40.3469 71.4692 44.3983 74.1833C44.662 74.3599 44.9104 88.5386 45.1318 88.5825C45.2262 88.6011 59.2902 83.1088 59.6505 83.2969C68.8358 88.092 79.4344 90.7231 87.8903 88.6946C98.6704 86.1087 105.169 73.0166 102.121 60.9773C100.46 54.4165 95.579 47.3391 90.3743 43.1387" stroke="#D4D4D4" stroke-miterlimit="1.5" stroke-linecap="round" stroke-linejoin="round"/>
<path d="M56.9184 54.8212C57.7941 55.388 58.816 55.1939 59.355 54.3613C59.9125 53.5 59.6897 52.4595 58.814 51.8927C57.9383 51.3258 56.8978 51.5486 56.3403 52.41C55.8013 53.2426 56.0427 54.2544 56.9184 54.8212Z" fill="#D4D4D4"/>
<path d="M64.3766 59.6487C65.2523 60.2156 66.2743 60.0215 66.8132 59.1888C67.3707 58.3275 67.1479 57.287 66.2722 56.7202C65.3965 56.1534 64.356 56.3762 63.7985 57.2375C63.2596 58.0701 63.5009 59.0819 64.3766 59.6487Z" fill="#D4D4D4"/>
<path d="M71.8349 64.4763C72.7106 65.0431 73.7325 64.849 74.2714 64.0163C74.829 63.155 74.6062 62.1145 73.7305 61.5477C72.8548 60.9809 71.8143 61.2037 71.2567 62.065C70.7178 62.8976 70.9592 63.9094 71.8349 64.4763Z" fill="#D4D4D4"/>
</svg>
