<svg width="30" height="29" viewBox="0 0 30 29" fill="none" xmlns="http://www.w3.org/2000/svg">
<path d="M26.9498 28.6059H3.06611C2.26553 28.5987 1.49978 28.2774 0.933658 27.7113C0.367537 27.1452 0.046295 26.3795 0.0390625 25.5789V8.06525C0.0405154 7.84514 0.128597 7.63446 0.28424 7.47882C0.439883 7.32318 0.650562 7.2351 0.870669 7.23364H29.1675C29.3876 7.2351 29.5982 7.32318 29.7539 7.47882C29.9095 7.63446 29.9976 7.84514 29.9991 8.06525V25.5789C29.9918 26.3833 29.6675 27.1523 29.0966 27.7191C28.5257 28.2858 27.7543 28.6045 26.9498 28.6059ZM1.70227 8.89685V25.5789C1.70227 25.9465 1.8483 26.299 2.10823 26.5589C2.36816 26.8189 2.72069 26.9649 3.08829 26.9649H26.9498C27.3136 26.9591 27.6604 26.8105 27.9156 26.5512C28.1707 26.2919 28.3137 25.9427 28.3137 25.5789V8.94675L1.70227 8.89685Z" fill="black"/>
<path d="M29.1675 8.89696H0.848493C0.631803 8.89118 0.425934 8.80102 0.274742 8.64568C0.12355 8.49035 0.0389855 8.28212 0.0390626 8.06535V4.91079C0.0405281 4.10254 0.362255 3.32781 0.933778 2.75629C1.5053 2.18476 2.28003 1.86304 3.08829 1.86157H26.9498C27.7581 1.86304 28.5328 2.18476 29.1043 2.75629C29.6759 3.32781 29.9976 4.10254 29.9991 4.91079V8.06535C29.9991 8.28591 29.9114 8.49743 29.7555 8.65339C29.5995 8.80934 29.388 8.89696 29.1675 8.89696ZM1.70227 7.23375H28.3137V4.91079C28.3137 4.5432 28.1676 4.19067 27.9077 3.93074C27.6478 3.67081 27.2953 3.52478 26.9277 3.52478H3.06611C2.70237 3.53061 2.35551 3.6792 2.10036 3.9385C1.84521 4.19779 1.70223 4.54701 1.70227 4.91079V7.23375Z" fill="black"/>
<path d="M7.05817 5.62035C6.83761 5.62035 6.62609 5.53274 6.47013 5.37678C6.31418 5.22083 6.22656 5.0093 6.22656 4.78875V1.18512C6.22656 0.964566 6.31418 0.753044 6.47013 0.597087C6.62609 0.441131 6.83761 0.353516 7.05817 0.353516C7.27872 0.353516 7.49025 0.441131 7.6462 0.597087C7.80216 0.753044 7.88977 0.964566 7.88977 1.18512V4.78875C7.88977 5.0093 7.80216 5.22083 7.6462 5.37678C7.49025 5.53274 7.27872 5.62035 7.05817 5.62035Z" fill="black"/>
<path d="M22.9586 5.62035C22.738 5.62035 22.5265 5.53274 22.3705 5.37678C22.2146 5.22083 22.127 5.0093 22.127 4.78875V1.18512C22.127 0.964566 22.2146 0.753044 22.3705 0.597087C22.5265 0.441131 22.738 0.353516 22.9586 0.353516C23.1791 0.353516 23.3906 0.441131 23.5466 0.597087C23.7026 0.753044 23.7902 0.964566 23.7902 1.18512V4.78875C23.7902 5.0093 23.7026 5.22083 23.5466 5.37678C23.3906 5.53274 23.1791 5.62035 22.9586 5.62035Z" fill="black"/>
<path d="M7.61278 17.601H5.77216C5.11095 17.5995 4.47723 17.3362 4.00968 16.8687C3.54212 16.4011 3.27881 15.7674 3.27734 15.1062V13.2656C3.27734 12.6039 3.54019 11.9693 4.00806 11.5015C4.47593 11.0336 5.1105 10.7708 5.77216 10.7708H7.61278C8.27445 10.7708 8.90902 11.0336 9.37689 11.5015C9.84476 11.9693 10.1076 12.6039 10.1076 13.2656V15.1062C10.1061 15.7674 9.84282 16.4011 9.37527 16.8687C8.90772 17.3362 8.274 17.5995 7.61278 17.601ZM5.77216 12.434C5.55161 12.434 5.34008 12.5216 5.18413 12.6775C5.02817 12.8335 4.94056 13.045 4.94056 13.2656V15.1062C4.94056 15.3267 5.02817 15.5383 5.18413 15.6942C5.34008 15.8502 5.55161 15.9378 5.77216 15.9378H7.61278C7.83334 15.9378 8.04486 15.8502 8.20082 15.6942C8.35677 15.5383 8.44439 15.3267 8.44439 15.1062V13.2656C8.44439 13.045 8.35677 12.8335 8.20082 12.6775C8.04486 12.5216 7.83334 12.434 7.61278 12.434H5.77216Z" fill="black"/>
<path d="M15.9272 17.601H14.0866C13.4254 17.5995 12.7917 17.3362 12.3241 16.8687C11.8566 16.4011 11.5933 15.7674 11.5918 15.1062V13.2656C11.5918 12.6039 11.8546 11.9693 12.3225 11.5015C12.7904 11.0336 13.4249 10.7708 14.0866 10.7708H15.9272C16.5889 10.7708 17.2235 11.0336 17.6913 11.5015C18.1592 11.9693 18.4221 12.6039 18.4221 13.2656V15.1062C18.4206 15.7674 18.1573 16.4011 17.6897 16.8687C17.2222 17.3362 16.5885 17.5995 15.9272 17.601ZM14.0866 12.434C13.8661 12.434 13.6545 12.5216 13.4986 12.6775C13.3426 12.8335 13.255 13.045 13.255 13.2656V15.1062C13.255 15.3267 13.3426 15.5383 13.4986 15.6942C13.6545 15.8502 13.8661 15.9378 14.0866 15.9378H15.9272C16.1478 15.9378 16.3593 15.8502 16.5153 15.6942C16.6712 15.5383 16.7588 15.3267 16.7588 15.1062V13.2656C16.7588 13.045 16.6712 12.8335 16.5153 12.6775C16.3593 12.5216 16.1478 12.434 15.9272 12.434H14.0866Z" fill="black"/>
<path d="M24.2436 17.601H22.403C21.7418 17.5995 21.1081 17.3362 20.6405 16.8687C20.173 16.4011 19.9097 15.7674 19.9082 15.1062V13.2656C19.9082 12.6039 20.171 11.9693 20.6389 11.5015C21.1068 11.0336 21.7414 10.7708 22.403 10.7708H24.2436C24.9053 10.7708 25.5399 11.0336 26.0077 11.5015C26.4756 11.9693 26.7385 12.6039 26.7385 13.2656V15.1062C26.737 15.7674 26.4737 16.4011 26.0061 16.8687C25.5386 17.3362 24.9049 17.5995 24.2436 17.601ZM22.403 12.434C22.1825 12.434 21.9709 12.5216 21.815 12.6775C21.659 12.8335 21.5714 13.045 21.5714 13.2656V15.1062C21.5714 15.3267 21.659 15.5383 21.815 15.6942C21.9709 15.8502 22.1825 15.9378 22.403 15.9378H24.2436C24.4642 15.9378 24.6757 15.8502 24.8317 15.6942C24.9876 15.5383 25.0752 15.3267 25.0752 15.1062V13.2656C25.0752 13.045 24.9876 12.8335 24.8317 12.6775C24.6757 12.5216 24.4642 12.434 24.2436 12.434H22.403Z" fill="black"/>
<path d="M7.61278 25.9172H5.77216C5.11095 25.9157 4.47723 25.6524 4.00968 25.1848C3.54212 24.7173 3.27881 24.0836 3.27734 23.4224V21.5817C3.27734 20.9201 3.54019 20.2855 4.00806 19.8176C4.47593 19.3498 5.1105 19.0869 5.77216 19.0869H7.61278C8.27445 19.0869 8.90902 19.3498 9.37689 19.8176C9.84476 20.2855 10.1076 20.9201 10.1076 21.5817V23.4224C10.1061 24.0836 9.84282 24.7173 9.37527 25.1848C8.90772 25.6524 8.274 25.9157 7.61278 25.9172ZM5.77216 20.7501C5.55161 20.7501 5.34008 20.8377 5.18413 20.9937C5.02817 21.1497 4.94056 21.3612 4.94056 21.5817V23.4224C4.94056 23.6429 5.02817 23.8544 5.18413 24.0104C5.34008 24.1663 5.55161 24.254 5.77216 24.254H7.61278C7.83334 24.254 8.04486 24.1663 8.20082 24.0104C8.35677 23.8544 8.44439 23.6429 8.44439 23.4224V21.5817C8.44439 21.3612 8.35677 21.1497 8.20082 20.9937C8.04486 20.8377 7.83334 20.7501 7.61278 20.7501H5.77216Z" fill="black"/>
<path d="M15.9272 25.9172H14.0866C13.4254 25.9157 12.7917 25.6524 12.3241 25.1848C11.8566 24.7173 11.5933 24.0836 11.5918 23.4224V21.5817C11.5918 20.9201 11.8546 20.2855 12.3225 19.8176C12.7904 19.3498 13.4249 19.0869 14.0866 19.0869H15.9272C16.5889 19.0869 17.2235 19.3498 17.6913 19.8176C18.1592 20.2855 18.4221 20.9201 18.4221 21.5817V23.4224C18.4206 24.0836 18.1573 24.7173 17.6897 25.1848C17.2222 25.6524 16.5885 25.9157 15.9272 25.9172ZM14.0866 20.7501C13.8661 20.7501 13.6545 20.8377 13.4986 20.9937C13.3426 21.1497 13.255 21.3612 13.255 21.5817V23.4224C13.255 23.6429 13.3426 23.8544 13.4986 24.0104C13.6545 24.1663 13.8661 24.254 14.0866 24.254H15.9272C16.1478 24.254 16.3593 24.1663 16.5153 24.0104C16.6712 23.8544 16.7588 23.6429 16.7588 23.4224V21.5817C16.7588 21.3612 16.6712 21.1497 16.5153 20.9937C16.3593 20.8377 16.1478 20.7501 15.9272 20.7501H14.0866Z" fill="#F12A23"/>
</svg>
