<svg width="31" height="34" viewBox="0 0 31 34" fill="none" xmlns="http://www.w3.org/2000/svg">
<path d="M15.5008 0.421875C13.2579 0.421875 11.4221 2.25761 11.4221 4.50051C11.4221 5.41961 11.7387 6.26369 12.257 6.9477H12.2379C9.99496 6.9477 8.15923 8.78343 8.15923 11.0263V14.2892C8.15923 16.2518 9.5682 17.903 11.4221 18.285V25.7094C11.4221 27.061 12.5178 28.1566 13.8693 28.1566H15.5008H17.1322C18.4838 28.1566 19.5794 27.061 19.5794 25.7094V18.285C21.4334 17.903 22.8423 16.2518 22.8423 14.2892V11.0263C22.8423 8.78343 21.0066 6.9477 18.7637 6.9477H18.7446C19.2629 6.26369 19.5794 5.41961 19.5794 4.50051C19.5794 2.25761 17.7437 0.421875 15.5008 0.421875ZM15.5008 2.05333C16.862 2.05333 17.948 3.13931 17.948 4.50051C17.948 5.0581 17.7487 5.55056 17.4891 5.89936C17.2295 6.24816 17.114 6.59324 17.1131 6.9477C17.1131 7.84873 17.8435 8.57915 18.7446 8.57915H18.7637C20.1249 8.57915 21.2109 9.66513 21.2109 11.0263V14.2892C21.2109 15.3622 20.5319 16.256 19.5794 16.5899V11.8421C19.5794 11.3916 19.2142 11.0263 18.7637 11.0263C18.3132 11.0263 17.948 11.3916 17.948 11.8421V25.7094C17.948 26.16 17.5828 26.5252 17.1322 26.5252H16.3165V19.1836C16.3165 18.7331 15.9513 18.3679 15.5008 18.3679C15.0503 18.3679 14.6851 18.7331 14.6851 19.1836V26.5252H13.8693C13.4188 26.5252 13.0536 26.16 13.0536 25.7094V11.8421C13.0536 11.3916 12.6884 11.0263 12.2379 11.0263C11.7874 11.0263 11.4221 11.3916 11.4221 11.8421V16.5899C10.4697 16.256 9.79069 15.3622 9.79069 14.2892V11.0263C9.79069 9.66513 10.8767 8.57915 12.2379 8.57915H12.257C13.158 8.57915 13.8884 7.84873 13.8884 6.9477C13.8875 6.59324 13.7721 6.24816 13.5124 5.89936C13.2528 5.55056 13.0536 5.0581 13.0536 4.50051C13.0536 3.13931 14.1396 2.05333 15.5008 2.05333ZM9.79069 20.4423C7.92681 20.7413 6.23548 21.1793 4.80391 21.7391C3.40928 22.2845 2.2514 22.9376 1.40399 23.7211C0.556572 24.5046 0.00195312 25.4659 0.00195312 26.5252C0.00195312 27.5845 0.556572 28.5457 1.40399 29.3292C2.2514 30.1127 3.40928 30.7658 4.80391 31.3112C7.59317 32.402 11.351 33.051 15.5008 33.051C19.6506 33.051 23.4084 32.402 26.1977 31.3112C27.5923 30.7658 28.7502 30.1127 29.5976 29.3292C30.445 28.5457 30.9996 27.5845 30.9996 26.5252C30.9996 25.4659 30.445 24.5046 29.5976 23.7211C28.7502 22.9376 27.5923 22.2845 26.1977 21.7391C24.7661 21.1793 23.0748 20.7413 21.2109 20.4423V21.9909C22.8877 22.2743 24.3971 22.673 25.6432 23.1603C26.9152 23.6577 27.9181 24.2473 28.562 24.8427C29.2059 25.4381 29.4733 25.9931 29.4733 26.5252C29.4733 27.0572 29.2059 27.6122 28.562 28.2076C27.9181 28.803 26.9152 29.3926 25.6432 29.89C23.0992 30.885 19.4893 31.5247 15.5008 31.5247C11.5122 31.5247 7.9024 30.885 5.35835 29.89C4.08633 29.3926 3.08351 28.803 2.43958 28.2076C1.79565 27.6122 1.52826 27.0572 1.52826 26.5252C1.52826 25.9931 1.79565 25.4381 2.43958 24.8427C3.08351 24.2473 4.08633 23.6577 5.35835 23.1603C6.6045 22.673 8.11386 22.2743 9.79069 21.9909V20.4423Z" fill="#222222"/>
<path fill-rule="evenodd" clip-rule="evenodd" d="M4.80391 21.739C6.23548 21.1792 7.92681 20.7412 9.79069 20.4421V21.9907C8.11386 22.2742 6.6045 22.6728 5.35835 23.1602C4.08633 23.6576 3.08351 24.2472 2.43958 24.8426C1.79565 25.438 1.52826 25.993 1.52826 26.525C1.52826 27.0571 1.79565 27.6121 2.43958 28.2075C3.08351 28.8029 4.08633 29.3925 5.35835 29.8899C7.9024 30.8848 11.5122 31.5246 15.5008 31.5246C19.4893 31.5246 23.0992 30.8848 25.6432 29.8899C26.9152 29.3925 27.9181 28.8029 28.562 28.2075C29.2059 27.6121 29.4733 27.0571 29.4733 26.525C29.4733 25.993 29.2059 25.438 28.562 24.8426C27.9181 24.2472 26.9152 23.6576 25.6432 23.1602C24.3971 22.6728 22.8877 22.2742 21.2109 21.9907V20.4421C23.0748 20.7412 24.7661 21.1792 26.1977 21.739C27.5923 22.2844 28.7502 22.9375 29.5976 23.721C30.445 24.5045 30.9996 25.4658 30.9996 26.525C30.9996 27.5843 30.445 28.5456 29.5976 29.3291C28.7502 30.1126 27.5923 30.7657 26.1977 31.3111C23.4084 32.4019 19.6506 33.0509 15.5008 33.0509C11.351 33.0509 7.59317 32.4019 4.80391 31.3111C3.40928 30.7657 2.2514 30.1126 1.40399 29.3291C0.556572 28.5456 0.00195312 27.5843 0.00195312 26.525C0.00195312 25.4658 0.556572 24.5045 1.40399 23.721C2.2514 22.9375 3.40928 22.2844 4.80391 21.739Z" fill="#F12A23"/>
</svg>
