<svg width="34" height="35" viewBox="0 0 34 35" fill="none" xmlns="http://www.w3.org/2000/svg">
<path d="M16.2273 29.3749H15.4545V12.3749H26.2727V14.6931C26.2727 14.898 26.3541 15.0946 26.4991 15.2395C26.644 15.3844 26.8405 15.4658 27.0455 15.4658C27.2504 15.4658 27.4469 15.3844 27.5919 15.2395C27.7368 15.0946 27.8182 14.898 27.8182 14.6931V12.3749H28.5909C28.6924 12.3749 28.7929 12.355 28.8867 12.3162C28.9805 12.2774 29.0657 12.2205 29.1374 12.1487C29.2092 12.0769 29.2661 11.9917 29.3049 11.8979C29.3437 11.8042 29.3637 11.7036 29.3636 11.6022V6.96579C29.3637 6.8643 29.3437 6.76379 29.3049 6.67001C29.2661 6.57624 29.2092 6.49103 29.1374 6.41926C29.0657 6.3475 28.9805 6.29058 28.8867 6.25177C28.7929 6.21295 28.6924 6.19301 28.5909 6.19307H19.661C19.9394 5.7254 20.0878 5.19186 20.0909 4.64761C20.09 3.82814 19.764 3.0425 19.1846 2.46304C18.6051 1.88359 17.8195 1.55764 17 1.5567C16.3005 1.5597 15.6231 1.80229 15.0807 2.24406C14.8544 1.75159 14.5268 1.31241 14.1192 0.955201C13.7116 0.597996 13.2332 0.330807 12.7153 0.171091C12.1974 0.0113757 11.6516 -0.0372731 11.1136 0.0283235C10.5756 0.09392 10.0575 0.272286 9.59318 0.551768C9.12883 0.831249 8.72867 1.20556 8.41884 1.65024C8.10901 2.09492 7.89649 2.59997 7.79516 3.13238C7.69382 3.6648 7.70597 4.2126 7.83079 4.74001C7.9556 5.26741 8.19029 5.76255 8.51952 6.19307H0.772727C0.671235 6.19301 0.570726 6.21295 0.476948 6.25177C0.38317 6.29058 0.297961 6.3475 0.226195 6.41926C0.154429 6.49103 0.0975128 6.57624 0.0587005 6.67001C0.0198882 6.76379 -5.87868e-05 6.8643 1.30136e-07 6.96579V11.6022C-5.87868e-05 11.7036 0.0198882 11.8042 0.0587005 11.8979C0.0975128 11.9917 0.154429 12.0769 0.226195 12.1487C0.297961 12.2205 0.38317 12.2774 0.476948 12.3162C0.570726 12.355 0.671235 12.3749 0.772727 12.3749H1.54545V30.1476C1.5454 30.2491 1.56534 30.3496 1.60416 30.4434C1.64297 30.5372 1.69988 30.6224 1.77165 30.6941C1.84342 30.7659 1.92862 30.8228 2.0224 30.8616C2.11618 30.9004 2.21669 30.9204 2.31818 30.9203H16.2273C16.4322 30.9203 16.6288 30.8389 16.7737 30.694C16.9186 30.5491 17 30.3526 17 30.1476C17 29.9427 16.9186 29.7461 16.7737 29.6012C16.6288 29.4563 16.4322 29.3749 16.2273 29.3749ZM27.8182 10.8294H15.4545V7.73852H27.8182V10.8294ZM17 3.10216C17.4099 3.10216 17.803 3.26498 18.0928 3.55481C18.3826 3.84464 18.5455 4.23773 18.5455 4.64761C18.5455 5.05749 18.3826 5.45058 18.0928 5.74041C17.803 6.03024 17.4099 6.19307 17 6.19307H15.4545V4.64761C15.455 4.23786 15.6179 3.845 15.9076 3.55526C16.1974 3.26552 16.5902 3.10257 17 3.10216ZM9.27273 3.87488C9.27273 3.26006 9.51696 2.67043 9.95171 2.23568C10.3864 1.80094 10.9761 1.5567 11.5909 1.5567C12.2057 1.5567 12.7954 1.80094 13.2301 2.23568C13.6649 2.67043 13.9091 3.26006 13.9091 3.87488V6.19307H11.5909C10.9763 6.1924 10.387 5.94794 9.95245 5.51335C9.51785 5.07875 9.2734 4.4895 9.27273 3.87488ZM1.54545 7.73852H13.9091V10.8294H1.54545V7.73852ZM3.09091 12.3749H13.9091V29.3749H3.09091V12.3749Z" fill="black"/>
<path d="M33.2273 20.1022H29.2213C29.3129 19.8547 29.361 19.5933 29.3636 19.3294C29.363 18.7148 29.1185 18.1256 28.6839 17.691C28.2493 17.2564 27.6601 17.0119 27.0455 17.0113C26.6766 17.0138 26.3138 17.1055 25.9879 17.2785C25.6967 16.6356 25.194 16.112 24.5635 15.7949C23.933 15.4778 23.2129 15.3864 22.5232 15.5359C21.8334 15.6854 21.2158 16.0668 20.7732 16.6165C20.3306 17.1662 20.0898 17.851 20.0909 18.5567C20.094 19.101 20.2424 19.6345 20.5209 20.1022H17.7727C17.6712 20.1021 17.5707 20.1221 17.4769 20.1609C17.3832 20.1997 17.298 20.2566 17.2262 20.3284C17.1544 20.4001 17.0975 20.4853 17.0587 20.5791C17.0199 20.6729 16.9999 20.7734 17 20.8749V23.9658C16.9999 24.0673 17.0199 24.1678 17.0587 24.2616C17.0975 24.3554 17.1544 24.4406 17.2262 24.5123C17.298 24.5841 17.3832 24.641 17.4769 24.6798C17.5707 24.7186 17.6712 24.7386 17.7727 24.7385H18.5455V33.2385C18.5454 33.34 18.5653 33.4405 18.6042 33.5343C18.643 33.6281 18.6999 33.7133 18.7716 33.7851C18.8434 33.8568 18.9286 33.9137 19.0224 33.9526C19.1162 33.9914 19.2167 34.0113 19.3182 34.0113H31.6818C31.7833 34.0113 31.8838 33.9914 31.9776 33.9526C32.0714 33.9137 32.1566 33.8568 32.2283 33.7851C32.3001 33.7133 32.357 33.6281 32.3958 33.5343C32.4347 33.4405 32.4546 33.34 32.4545 33.2385V24.7385H33.2273C33.3288 24.7386 33.4293 24.7186 33.5231 24.6798C33.6168 24.641 33.702 24.5841 33.7738 24.5123C33.8456 24.4406 33.9025 24.3554 33.9413 24.2616C33.9801 24.1678 34.0001 24.0673 34 23.9658V20.8749C34.0001 20.7734 33.9801 20.6729 33.9413 20.5791C33.9025 20.4853 33.8456 20.4001 33.7738 20.3284C33.702 20.2566 33.6168 20.1997 33.5231 20.1609C33.4293 20.1221 33.3288 20.1021 33.2273 20.1022ZM27.0455 18.5567C27.2504 18.5567 27.4469 18.6381 27.5919 18.783C27.7368 18.928 27.8182 19.1245 27.8182 19.3294C27.8182 19.5344 27.7368 19.7309 27.5919 19.8758C27.4469 20.0208 27.2504 20.1022 27.0455 20.1022H26.2727V19.3294C26.273 19.1246 26.3545 18.9282 26.4993 18.7833C26.6442 18.6385 26.8406 18.557 27.0455 18.5567ZM21.6364 18.5567C21.6364 18.1468 21.7992 17.7537 22.089 17.4639C22.3788 17.1741 22.7719 17.0113 23.1818 17.0113C23.5917 17.0113 23.9848 17.1741 24.2746 17.4639C24.5644 17.7537 24.7273 18.1468 24.7273 18.5567V20.1022H23.1818C22.7721 20.1018 22.3792 19.9388 22.0895 19.6491C21.7997 19.3593 21.6368 18.9665 21.6364 18.5567ZM18.5455 21.6476H24.7273V23.1931H18.5455V21.6476ZM20.0909 24.7385H24.7273V32.4658H20.0909V24.7385ZM30.9091 32.4658H26.2727V24.7385H30.9091V32.4658ZM32.4545 23.1931H26.2727V21.6476H32.4545V23.1931Z" fill="#F12A23"/>
</svg>
