<svg width="89" height="92" viewBox="0 0 89 92" fill="none" xmlns="http://www.w3.org/2000/svg">
<path fill-rule="evenodd" clip-rule="evenodd" d="M66.4044 50.0381C69.7669 51.8008 74.2555 53.7509 77.6024 55.5359C77.7628 54.6268 77.9584 53.9774 78.1104 52.9505C80.3254 54.9031 81.6364 56.7475 82.9695 58.9418C81.1218 59.6339 77.0595 60.1817 74.6663 60.0136C74.9916 59.6112 75.7171 58.8195 76.4214 58.154C73.1864 56.8898 68.5361 55.5678 65.2076 54.5767C64.9298 54.4939 64.6517 54.4126 64.3732 54.3322C62.266 57.9389 59.2339 61.2386 55.2005 63.9181C41.0758 73.3018 24.9439 69.8198 17.7756 55.0505C12.3169 43.8037 16.4257 28.4279 25.801 20.6838C28.4001 18.0705 34.1887 16.3948 37.4832 15.8274C47.8551 14.0408 60.2031 17.9252 65.5095 28.9992C68.5457 35.3358 69.007 43.0074 66.4044 50.0381Z" fill="#FAFAFA"/>
<path fill-rule="evenodd" clip-rule="evenodd" d="M25.5833 20.4443C20.8411 24.3665 17.4414 30.2062 15.9117 36.4769C14.3806 42.7533 14.7168 49.4883 17.485 55.1919C21.1085 62.6576 27.0099 67.2898 33.8073 68.8572C40.6011 70.4237 48.2553 68.9213 55.3803 64.1878C59.3731 61.5352 62.3984 58.278 64.525 54.7131C64.7222 54.7705 64.9192 54.8284 65.1159 54.8869L65.2083 54.5767L65.1159 54.8869C65.5893 55.0279 66.0888 55.1754 66.6066 55.3283C69.5645 56.2017 73.1198 57.2514 75.8326 58.2745C75.2458 58.8566 74.6933 59.466 74.4152 59.8101C74.3394 59.9039 74.322 60.0321 74.3702 60.1427C74.4183 60.2534 74.524 60.328 74.6443 60.3365C75.8708 60.4227 77.5083 60.3252 79.0651 60.1213C80.6195 59.9177 82.1255 59.6039 83.0837 59.2449C83.174 59.2111 83.2446 59.1388 83.2761 59.0477C83.3076 58.9565 83.2969 58.8561 83.2468 58.7737C81.9042 56.5638 80.5735 54.6897 78.3251 52.7077C78.2361 52.6292 78.1112 52.6057 77.9998 52.6465C77.8883 52.6873 77.8081 52.7858 77.7908 52.9032C77.7164 53.4059 77.6313 53.8167 77.5439 54.2186C77.5303 54.281 77.5166 54.3433 77.5029 54.4058C77.4574 54.6136 77.4114 54.8235 77.3667 55.0448C75.7749 54.211 73.9591 53.3457 72.1488 52.4862L71.9104 52.373C70.1252 51.5256 68.3547 50.6851 66.8064 49.8822C69.3297 42.8424 68.8374 35.194 65.8021 28.8594C60.416 17.6191 47.9004 13.7047 37.4289 15.5084C35.7638 15.7952 33.4733 16.3609 31.2686 17.1852C29.0784 18.004 26.9338 19.0923 25.5833 20.4443ZM31.4953 17.7916C33.6584 16.9829 35.9094 16.4271 37.5388 16.1465L37.5388 16.1465C47.8111 14.377 59.9914 18.2313 65.2182 29.1391C68.2168 35.3971 68.6734 42.9777 66.1014 49.9257C66.0449 50.0784 66.1106 50.2492 66.2547 50.3248C67.873 51.1732 69.7495 52.064 71.6275 52.9555L71.8711 53.0711C73.8332 54.0027 75.7851 54.9332 77.4507 55.8215C77.5422 55.8703 77.6516 55.8724 77.7448 55.827C77.838 55.7816 77.9039 55.6943 77.9219 55.5921C77.9882 55.2158 78.0606 54.8857 78.1348 54.547C78.1487 54.4838 78.1626 54.4203 78.1765 54.3562C78.2295 54.1127 78.2825 53.8619 78.3332 53.5874C80.1464 55.2657 81.3212 56.8855 82.4833 58.7667C81.5898 59.0495 80.3188 59.3041 78.9811 59.4793C77.7195 59.6445 76.4202 59.7363 75.3497 59.7182C75.7066 59.3224 76.1799 58.8282 76.6444 58.3893C76.725 58.3131 76.761 58.201 76.7399 58.0921C76.7187 57.9833 76.6432 57.8929 76.5399 57.8525C73.7491 56.7619 69.914 55.6296 66.7845 54.7057C66.268 54.5532 65.7708 54.4064 65.3007 54.2664C65.0218 54.1834 64.7428 54.1018 64.4637 54.0212C64.3213 53.9801 64.1691 54.0409 64.0944 54.1689C62.0124 57.7323 59.0149 60.9959 55.022 63.6485C48.0224 68.2987 40.5482 69.7471 33.9528 68.2262C27.3609 66.7062 21.6123 62.2128 18.0675 54.9092C15.377 49.3659 15.0382 42.7896 16.5407 36.6304C18.0432 30.4708 21.381 24.7552 26.0078 20.9334C26.0159 20.9267 26.0237 20.9196 26.0311 20.9121C27.2805 19.656 29.324 18.6035 31.4953 17.7916Z" fill="#D5D5D5"/>
<path d="M36.1291 40.2561C35.5014 42.5312 36.3661 44.5727 38.2805 45.4657L39.302 43.4771C38.3295 43.0537 37.7902 42.0948 38.1205 40.8621C38.3874 39.8658 39.1314 39.2507 40.1107 39.5132C41.8669 39.9837 41.1374 43.5165 43.7885 44.2269L44.3458 44.3762L44.9475 42.1304L44.5254 42.0172C42.8199 41.5603 43.7532 38.0097 40.6631 37.1817C38.4848 36.598 36.7309 38.0103 36.1291 40.2561ZM48.9729 44.331C49.1991 43.4867 48.8002 42.7464 47.9897 42.5292C47.1454 42.303 46.4129 42.7402 46.1867 43.5845C45.965 44.4119 46.3763 45.1736 47.2205 45.3998C48.0311 45.617 48.7512 45.1584 48.9729 44.331Z" fill="#D4D4D4"/>
</svg>
