<svg width="52" height="30" viewBox="0 0 52 30" fill="none" xmlns="http://www.w3.org/2000/svg">
<path d="M14.5273 4.27002L17.8071 5.9099H21.0869" stroke="black" stroke-width="1.7"/>
<path d="M36.6649 5.08992L35.5956 5.6246C35.2286 5.80803 34.8062 5.84726 34.4117 5.7345L29.7271 4.39609C29.4341 4.31234 29.1309 4.2698 28.8261 4.26978H23.6613C23.1213 4.26978 22.5897 4.40315 22.1137 4.65793C21.6376 4.9127 21.2318 5.28104 20.9323 5.7303L16.9863 11.6495H21.0283C21.2983 11.6495 21.5641 11.5829 21.8021 11.4555C22.0402 11.3281 22.2431 11.1438 22.3928 10.9192L23.059 9.91989C23.2088 9.69526 23.4117 9.51099 23.6497 9.3836C23.8877 9.25622 24.1535 9.18963 24.4235 9.18963H25.5092C25.8329 9.1896 26.1494 9.28552 26.4188 9.46508L38.9617 17.8268C39.1936 17.9815 39.3916 18.1818 39.5435 18.4156C39.6954 18.6493 39.798 18.9117 39.8451 19.1865C39.8922 19.4612 39.8827 19.7426 39.8172 20.0136C39.7518 20.2846 39.6318 20.5395 39.4645 20.7625L39.4141 20.8298C39.1098 21.2355 38.6659 21.514 38.1682 21.6115C37.6706 21.709 37.1544 21.6186 36.7195 21.3576L30.1054 17.389" stroke="black" stroke-width="1.7" stroke-linecap="round" stroke-linejoin="round"/>
<path d="M39.127 17.3893L42.4067 13.2896" stroke="black" stroke-width="1.7"/>
<path d="M12.0688 17.3891L8.78906 14.1094" stroke="black" stroke-width="1.7"/>
<path d="M16.9804 1L7.15151 16.5691L1.41797 13.2915" stroke="#F12A23" stroke-width="1.7" stroke-linecap="round" stroke-linejoin="round"/>
<path d="M18.6345 16.8268L18.7216 16.8842C19.4685 17.3727 19.674 18.3669 19.1823 19.113L15.9316 24.0463C15.44 24.7924 14.4429 24.9998 13.696 24.5113L13.6089 24.4539C12.862 23.9652 12.6565 22.9712 13.1482 22.225L16.3989 17.2918C16.8905 16.5456 17.8876 16.3381 18.6345 16.8268H18.6345Z" stroke="black" stroke-width="1.7" stroke-linecap="round" stroke-linejoin="round"/>
<path d="M20.5166 20.0314C21.2768 20.5288 21.4883 21.5412 20.9908 22.3015L18.746 25.732C18.2485 26.4921 17.236 26.7036 16.4758 26.2062C15.7156 25.7087 15.5041 24.6962 16.0016 23.936L18.2465 20.5056C18.7439 19.7454 19.7564 19.5339 20.5166 20.0314Z" stroke="black" stroke-width="1.7" stroke-linecap="round" stroke-linejoin="round"/>
<path d="M22.7027 22.5652C23.4653 23.059 23.6828 24.0711 23.1904 24.8346L21.7293 27.1003C21.2369 27.8638 20.2266 28.0811 19.464 27.5871C18.7015 27.0934 18.484 26.0812 18.9764 25.3177L20.4375 23.052C20.9299 22.2885 21.9402 22.0713 22.7027 22.5652V22.5652Z" stroke="black" stroke-width="1.7" stroke-linecap="round" stroke-linejoin="round"/>
<path d="M14.7672 16.8035C15.5298 17.2973 15.7473 18.3094 15.2549 19.073L13.7938 21.3386C13.3014 22.1022 12.2911 22.3192 11.5285 21.8253C10.7659 21.3315 10.5484 20.3193 11.0408 19.5558L12.5019 17.2902C12.9943 16.5266 14.0046 16.3096 14.7672 16.8035Z" stroke="black" stroke-width="1.7" stroke-linecap="round" stroke-linejoin="round"/>
<path d="M35.0312 1L44.8602 16.5691L50.5937 13.2915" stroke="#F12A23" stroke-width="1.7" stroke-linecap="round" stroke-linejoin="round"/>
<path d="M37.0765 21.9419L36.3726 22.9116C36.0067 23.4156 35.4631 23.7621 34.8517 23.8811C34.2403 24 33.6065 23.8825 33.0783 23.5524L28.4648 20.6689" stroke="black" stroke-width="1.7" stroke-linecap="round" stroke-linejoin="round"/>
<path d="M34.6405 24.3701L33.9144 25.3704C33.5438 25.881 32.9977 26.2366 32.3809 26.3693C31.7641 26.502 31.12 26.4023 30.5723 26.0893L26.8262 23.9487" stroke="black" stroke-width="1.7" stroke-linecap="round" stroke-linejoin="round"/>
<path d="M30.7743 26.4458L30.0553 27.5446C29.803 27.9302 29.4264 28.2177 28.9879 28.3597C28.5495 28.5017 28.0757 28.4896 27.6452 28.3251L22.7266 26.4458" stroke="black" stroke-width="1.7" stroke-linejoin="round"/>
<path d="M6.32738 11.6495C6.32738 11.867 6.241 12.0755 6.08723 12.2293C5.93346 12.383 5.7249 12.4695 5.50744 12.4695C5.28998 12.4695 5.08142 12.383 4.92766 12.2293C4.77389 12.0755 4.6875 11.867 4.6875 11.6495C4.6875 11.4321 4.77389 11.2236 4.92766 11.0698C5.08142 10.916 5.28998 10.8296 5.50744 10.8296C5.7249 10.8296 5.93346 10.916 6.08723 11.0698C6.241 11.2236 6.32738 11.4321 6.32738 11.6495Z" fill="#F12A23"/>
<path d="M47.3254 11.6495C47.3254 11.867 47.239 12.0755 47.0853 12.2293C46.9315 12.383 46.723 12.4695 46.5055 12.4695C46.288 12.4695 46.0795 12.383 45.9257 12.2293C45.7719 12.0755 45.6855 11.867 45.6855 11.6495C45.6855 11.4321 45.7719 11.2236 45.9257 11.0698C46.0795 10.916 46.288 10.8296 46.5055 10.8296C46.723 10.8296 46.9315 10.916 47.0853 11.0698C47.239 11.2236 47.3254 11.4321 47.3254 11.6495Z" fill="#F12A23"/>
</svg>
