<svg width="22" height="26" viewBox="0 0 22 26" fill="none" xmlns="http://www.w3.org/2000/svg">
<path d="M8.33301 18.3333H1.66634V25M13.6663 7.66667H20.333V1M1.11035 9.00421C1.85793 7.15389 3.10959 5.55039 4.72308 4.37598C6.33656 3.20156 8.2477 2.50336 10.2382 2.36068C12.2288 2.21799 14.2191 2.63654 15.9836 3.56882C17.7481 4.5011 19.2148 5.90971 20.2187 7.63449M20.8897 16.9958C20.1422 18.8461 18.8905 20.4496 17.277 21.624C15.6635 22.7984 13.7532 23.4967 11.7627 23.6394C9.77216 23.782 7.78109 23.3634 6.0166 22.4312C4.25211 21.4989 2.78477 20.0903 1.78092 18.3656" stroke="white" stroke-width="2" stroke-linecap="round" stroke-linejoin="round"/>
</svg>
