<svg width="18" height="18" viewBox="0 0 18 18" fill="none" xmlns="http://www.w3.org/2000/svg">
<path d="M7.03033 5.96967C6.73744 5.67678 6.26256 5.67678 5.96967 5.96967C5.67678 6.26256 5.67678 6.73744 5.96967 7.03033L7.03033 5.96967ZM10.9696 12.0302C11.2625 12.3231 11.7373 12.3231 12.0302 12.0302C12.3231 11.7373 12.3231 11.2625 12.0302 10.9696L10.9696 12.0302ZM5.96967 10.9697C5.67678 11.2626 5.67678 11.7374 5.96967 12.0303C6.26256 12.3232 6.73744 12.3232 7.03033 12.0303L5.96967 10.9697ZM12.0302 7.03043C12.3231 6.73754 12.3231 6.26266 12.0302 5.96977C11.7373 5.67688 11.2625 5.67688 10.9696 5.96977L12.0302 7.03043ZM9 15.75C5.27208 15.75 2.25 12.7279 2.25 9H0.75C0.75 13.5563 4.44365 17.25 9 17.25V15.75ZM2.25 9C2.25 5.27208 5.27208 2.25 9 2.25V0.75C4.44365 0.75 0.75 4.44365 0.75 9H2.25ZM9 2.25C12.7279 2.25 15.75 5.27208 15.75 9H17.25C17.25 4.44365 13.5563 0.75 9 0.75V2.25ZM15.75 9C15.75 12.7279 12.7279 15.75 9 15.75V17.25C13.5563 17.25 17.25 13.5563 17.25 9H15.75ZM5.96967 7.03033L10.9696 12.0302L12.0302 10.9696L7.03033 5.96967L5.96967 7.03033ZM7.03033 12.0303L12.0302 7.03043L10.9696 5.96977L5.96967 10.9697L7.03033 12.0303Z" fill="#FFFFFF"/>
</svg>
