<svg width="26" height="30" viewBox="0 0 26 30" fill="none" xmlns="http://www.w3.org/2000/svg">
<g filter="url(#filter0_d_3453_4501)">
<path d="M3 3.98485V21.8939C3 23.5424 4.33636 24.8788 5.98485 24.8788H21.8045C22.2991 24.8788 22.7 24.4779 22.7 23.9833C22.7 23.4888 22.2991 23.0879 21.8045 23.0879H5.98485C5.32546 23.0879 4.79091 22.5534 4.79091 21.8939H21.8045C22.2991 21.8939 22.7 21.493 22.7 20.9985V3.98485C22.7 2.33636 21.3636 1 19.7152 1H5.98485C4.33636 1 3 2.33636 3 3.98485ZM11.9545 12.6409V6.67121C11.9545 6.17667 12.3555 5.77576 12.85 5.77576C13.3445 5.77576 13.7455 6.17667 13.7455 6.67121V12.6409C13.7455 13.1354 13.3445 13.5364 12.85 13.5364C12.3555 13.5364 11.9545 13.1354 11.9545 12.6409ZM14.0439 15.9242C14.0439 16.5837 13.5094 17.1182 12.85 17.1182C12.1906 17.1182 11.6561 16.5837 11.6561 15.9242C11.6561 15.2648 12.1906 14.7303 12.85 14.7303C13.5094 14.7303 14.0439 15.2648 14.0439 15.9242Z" fill="url(#paint0_linear_3453_4501)"/>
</g>
<defs>
<filter id="filter0_d_3453_4501" x="0" y="0" width="25.7002" height="29.8788" filterUnits="userSpaceOnUse" color-interpolation-filters="sRGB">
<feFlood flood-opacity="0" result="BackgroundImageFix"/>
<feColorMatrix in="SourceAlpha" type="matrix" values="0 0 0 0 0 0 0 0 0 0 0 0 0 0 0 0 0 0 127 0" result="hardAlpha"/>
<feOffset dy="2"/>
<feGaussianBlur stdDeviation="1.5"/>
<feComposite in2="hardAlpha" operator="out"/>
<feColorMatrix type="matrix" values="0 0 0 0 0.945098 0 0 0 0 0.164706 0 0 0 0 0.137255 0 0 0 0.25 0"/>
<feBlend mode="normal" in2="BackgroundImageFix" result="effect1_dropShadow_3453_4501"/>
<feBlend mode="normal" in="SourceGraphic" in2="effect1_dropShadow_3453_4501" result="shape"/>
</filter>
<linearGradient id="paint0_linear_3453_4501" x1="12.85" y1="1" x2="12.85" y2="24.8788" gradientUnits="userSpaceOnUse">
<stop stop-color="#F12A23"/>
<stop offset="1" stop-color="#B61610"/>
</linearGradient>
</defs>
</svg>
