<svg width="48" height="34" viewBox="0 0 48 34" fill="none" xmlns="http://www.w3.org/2000/svg">
<path d="M47.0113 5.45864C46.4578 3.40263 44.8367 1.78155 42.7807 1.22801C39.0245 0.200012 23.9999 0.200012 23.9999 0.200012C23.9999 0.200012 8.97525 0.200012 5.21909 1.18848C3.20262 1.74202 1.542 3.40263 0.988464 5.45864C0 9.2148 0 17.0039 0 17.0039C0 17.0039 0 24.8325 0.988464 28.5491C1.542 30.6051 3.16308 32.2262 5.21909 32.7798C9.01479 33.8078 23.9999 33.8078 23.9999 33.8078C23.9999 33.8078 39.0245 33.8078 42.7807 32.8193C44.8367 32.2658 46.4578 30.6447 47.0113 28.5887C47.9998 24.8325 47.9998 17.0434 47.9998 17.0434C47.9998 17.0434 48.0393 9.2148 47.0113 5.45864Z" fill="#FF0000"/>
<path d="M19.2158 24.1999L31.71 17.0039L19.2158 9.80786V24.1999Z" fill="white"/>
</svg>
