<svg width="128" height="128" viewBox="0 0 128 128" fill="none" xmlns="http://www.w3.org/2000/svg">
<path d="M32.5718 118.612C41.8222 123.947 52.5551 127 64.0009 127C98.7949 127 127 98.7939 127 64C127 29.2061 98.7939 1 64 1C29.2061 1 1 29.2061 1 64C1 75.4458 4.05231 86.1787 9.38735 95.4291L9.39177 95.4368C9.9159 96.3456 10.1786 96.8011 10.2971 97.2297C10.4077 97.6298 10.4442 97.9869 10.4159 98.401C10.3859 98.8405 10.234 99.296 9.93401 100.196L9.92277 100.23L4.54102 116.375L4.53682 116.387C3.39967 119.799 2.8308 121.506 3.23578 122.641C3.58865 123.631 4.36838 124.41 5.35791 124.763C6.495 125.168 8.20669 124.598 11.6265 123.458L27.7717 118.077L27.7826 118.073C28.6975 117.768 29.1548 117.616 29.5979 117.585C30.0121 117.557 30.3704 117.593 30.7705 117.703C31.2003 117.822 31.6579 118.085 32.5718 118.612Z" stroke="#F7F7F7" stroke-width="2" stroke-linecap="round" stroke-linejoin="round"/>
</svg>
