<svg width="46" height="46" viewBox="0 0 46 46" fill="none" xmlns="http://www.w3.org/2000/svg">
<path d="M45.8709 13.5164C45.7605 11.0673 45.3648 9.39151 44.8035 7.92754C44.2146 6.41753 43.4324 5.1285 42.1534 3.85789C40.8743 2.58727 39.5953 1.78623 38.0862 1.20617C36.6231 0.635308 34.9483 0.248599 32.5006 0.13811C30.0437 0.0276221 29.2616 0 23.0227 0C16.7747 0 15.9925 0.0276221 13.5448 0.13811C11.0972 0.248599 9.42242 0.644516 7.95933 1.20617C6.44103 1.79544 5.15277 2.57806 3.88292 3.85789C2.61306 5.13771 1.8125 6.41753 1.23278 7.92754C0.671473 9.39151 0.275793 11.0673 0.165371 13.5164C0.0549493 15.9748 0.0273438 16.7574 0.0273438 23C0.0273438 29.2518 0.0549493 30.0344 0.165371 32.4836C0.275793 34.9327 0.671473 36.6085 1.23278 38.0725C1.8217 39.5825 2.60386 40.8715 3.88292 42.1421C5.15277 43.4219 6.44103 44.2138 7.95013 44.7938C9.41322 45.3647 11.088 45.7514 13.5356 45.8619C15.9925 45.9724 16.7747 46 23.0135 46C29.2616 46 30.0437 45.9724 32.4914 45.8619C34.9391 45.7514 36.6139 45.3555 38.077 44.7938C39.5861 44.2046 40.8743 43.4219 42.1442 42.1421C43.414 40.8623 44.2146 39.5825 44.7943 38.0725C45.3648 36.6085 45.7513 34.9327 45.8617 32.4836C45.9721 30.0252 45.9997 29.2426 45.9997 23C45.9997 16.7574 45.9813 15.9656 45.8709 13.5164ZM41.7393 32.2994C41.6381 34.546 41.2608 35.7706 40.9479 36.5717C40.5338 37.6397 40.0277 38.4131 39.218 39.2234C38.4082 40.0336 37.6445 40.5216 36.5679 40.9544C35.7581 41.2674 34.5342 41.6449 32.2982 41.7462C29.8781 41.8567 29.1512 41.8843 23.0043 41.8843C16.8575 41.8843 16.1306 41.8567 13.7105 41.7462C11.4652 41.6449 10.2414 41.2674 9.44083 40.9544C8.37341 40.54 7.60046 40.0336 6.7907 39.2234C5.98093 38.4131 5.49324 37.6489 5.06075 36.5717C4.74789 35.7614 4.37061 34.5368 4.26939 32.2994C4.15897 29.8779 4.13136 29.1505 4.13136 23C4.13136 16.8495 4.15897 16.1221 4.26939 13.7006C4.37061 11.454 4.74789 10.2294 5.06075 9.42834C5.47483 8.36029 5.98093 7.58687 6.7907 6.77662C7.60046 5.96637 8.36421 5.47838 9.44083 5.04564C10.2506 4.73259 11.4744 4.35508 13.7105 4.2538C16.1306 4.14331 16.8575 4.11569 23.0043 4.11569C29.1512 4.11569 29.8781 4.14331 32.2982 4.2538C34.5434 4.35508 35.7673 4.73259 36.5679 5.04564C37.6353 5.45997 38.4082 5.96637 39.218 6.77662C40.0277 7.58687 40.5154 8.35108 40.9479 9.42834C41.2608 10.2386 41.6381 11.4632 41.7393 13.7006C41.8497 16.1221 41.8773 16.8495 41.8773 23C41.8773 29.1505 41.8405 29.8779 41.7393 32.2994Z" fill="url(#paint0_linear_3452_3633)"/>
<path d="M23.0046 11.1777C16.4713 11.1777 11.1895 16.472 11.1895 23C11.1895 29.5372 16.4805 34.8223 23.0046 34.8223C29.5287 34.8223 34.8198 29.5188 34.8198 23C34.8198 16.4628 29.5379 11.1777 23.0046 11.1777ZM23.0046 30.6697C18.7718 30.6697 15.3395 27.2354 15.3395 23C15.3395 18.7646 18.7718 15.3303 23.0046 15.3303C27.2375 15.3303 30.6697 18.7646 30.6697 23C30.6697 27.2354 27.2375 30.6697 23.0046 30.6697Z" fill="url(#paint1_linear_3452_3633)"/>
<path d="M35.2801 13.4796C36.8047 13.4796 38.0406 12.2429 38.0406 10.7174C38.0406 9.19185 36.8047 7.95517 35.2801 7.95517C33.7555 7.95517 32.5195 9.19185 32.5195 10.7174C32.5195 12.2429 33.7555 13.4796 35.2801 13.4796Z" fill="#BC30A0"/>
<path d="M0 23C0 29.2518 0.0276055 30.0344 0.138028 32.4836C0.24845 34.9327 0.644129 36.6085 1.20544 38.0725C1.79436 39.5825 2.57652 40.8715 3.85557 42.1421C5.12543 43.4127 6.41368 44.2138 7.92278 44.7938C9.38588 45.3647 11.0606 45.7514 13.5083 45.8619C15.9652 45.9724 16.7474 46 22.9862 46C29.2342 46 30.0164 45.9724 32.4641 45.8619C34.9118 45.7514 36.5865 45.3555 38.0496 44.7938C39.5587 44.2046 40.847 43.4219 42.1168 42.1421C43.3867 40.8715 44.1872 39.5825 44.767 38.0725C45.3375 36.6085 45.7239 34.9327 45.8344 32.4836C45.9448 30.0252 45.9724 29.2426 45.9724 23C45.9724 16.7482 45.9448 15.9656 45.8344 13.5164C45.7239 11.0673 45.3283 9.39151 44.767 7.92754C44.178 6.41753 43.3959 5.1285 42.1168 3.85789C40.8562 2.57806 39.5679 1.78623 38.0588 1.20617C36.5957 0.635308 34.921 0.248599 32.4733 0.13811C30.0164 0.0276221 29.2342 0 22.9954 0C16.7474 0 15.9652 0.0276221 13.5175 0.13811C11.0698 0.248599 9.39508 0.644516 7.93199 1.20617C6.42288 1.79544 5.13463 2.57806 3.86477 3.85789C2.59492 5.13771 1.79436 6.41753 1.21464 7.92754C0.644129 9.39151 0.24845 11.0673 0.138028 13.5164C0.0276055 15.9656 0 16.7482 0 23ZM4.15003 23C4.15003 16.8587 4.17764 16.1221 4.28806 13.7006C4.38928 11.454 4.76655 10.2294 5.07942 9.42834C5.4935 8.36029 5.9996 7.58687 6.80936 6.77662C7.61912 5.96637 8.38288 5.47838 9.45949 5.04564C10.2693 4.73259 11.4931 4.35508 13.7291 4.2538C16.1492 4.14331 16.8762 4.11569 23.023 4.11569C29.1698 4.11569 29.8968 4.14331 32.3169 4.2538C34.5621 4.35508 35.786 4.73259 36.5865 5.04564C37.6539 5.45997 38.4269 5.96637 39.2366 6.77662C40.0464 7.58687 40.5341 8.35108 40.9666 9.42834C41.2795 10.2386 41.6567 11.4632 41.758 13.7006C41.8684 16.1221 41.896 16.8495 41.896 23C41.896 29.1505 41.8684 29.8779 41.758 32.2994C41.6567 34.546 41.2795 35.7706 40.9666 36.5717C40.5525 37.6397 40.0464 38.4131 39.2366 39.2234C38.4269 40.0336 37.6631 40.5216 36.5865 40.9544C35.7768 41.2674 34.5529 41.6449 32.3169 41.7462C29.8968 41.8567 29.1698 41.8843 23.023 41.8843C16.8762 41.8843 16.1492 41.8567 13.7291 41.7462C11.4839 41.6449 10.2601 41.2674 9.45949 40.9544C8.39208 40.54 7.61912 40.0336 6.80936 39.2234C5.9996 38.4131 5.5119 37.6489 5.07942 36.5717C4.76655 35.7614 4.38928 34.5368 4.28806 32.2994C4.16843 29.8779 4.15003 29.1413 4.15003 23Z" fill="url(#paint2_linear_3452_3633)"/>
<defs>
<linearGradient id="paint0_linear_3452_3633" x1="38.8994" y1="3.51747" x2="5.62139" y2="44.2896" gradientUnits="userSpaceOnUse">
<stop stop-color="#AE3DAE"/>
<stop offset="0.0468721" stop-color="#B23BA6"/>
<stop offset="0.1216" stop-color="#BD368E"/>
<stop offset="0.2148" stop-color="#CE2E69"/>
<stop offset="0.3216" stop-color="#E62335"/>
<stop offset="0.418" stop-color="#FF1800"/>
</linearGradient>
<linearGradient id="paint1_linear_3452_3633" x1="28.6393" y1="13.518" x2="16.5502" y2="33.8318" gradientUnits="userSpaceOnUse">
<stop stop-color="#E12F6A"/>
<stop offset="0.1705" stop-color="#EA3751"/>
<stop offset="0.3563" stop-color="#F13D3E"/>
<stop offset="0.5467" stop-color="#F64133"/>
<stop offset="0.7469" stop-color="#F7422F"/>
<stop offset="0.7946" stop-color="#F74C2F"/>
<stop offset="0.8743" stop-color="#F7652F"/>
<stop offset="0.9757" stop-color="#F78F2E"/>
<stop offset="1" stop-color="#F79A2E"/>
</linearGradient>
<linearGradient id="paint2_linear_3452_3633" x1="33.423" y1="-1.89373" x2="13.06" y2="46.6446" gradientUnits="userSpaceOnUse">
<stop offset="0.2341" stop-color="#9E35A5" stop-opacity="0"/>
<stop offset="0.4512" stop-color="#D42F7F" stop-opacity="0.5"/>
<stop offset="0.7524" stop-color="#F7772E"/>
<stop offset="0.9624" stop-color="#FEF780"/>
</linearGradient>
</defs>
</svg>
