<svg width="46" height="46" viewBox="0 0 46 46" fill="none" xmlns="http://www.w3.org/2000/svg">
<path fill-rule="evenodd" clip-rule="evenodd" d="M3.90434 21.6455C15.7905 16.4668 23.7165 13.0528 27.6823 11.4033C39.0054 6.69361 41.3583 5.87549 42.8918 5.84848C43.2291 5.84254 43.9833 5.92613 44.4718 6.32252C44.8843 6.65723 44.9977 7.10937 45.0521 7.4267C45.1064 7.74404 45.174 8.46695 45.1202 9.0318C44.5066 15.479 41.8516 31.1246 40.5008 38.3455C39.9293 41.401 38.8039 42.4255 37.7144 42.5257C35.3466 42.7436 33.5486 40.9609 31.2553 39.4576C27.6668 37.1053 25.6395 35.641 22.1561 33.3455C18.1306 30.6927 20.7402 29.2347 23.0343 26.8519C23.6347 26.2283 34.0672 16.7392 34.2691 15.8784C34.2943 15.7707 34.3178 15.3694 34.0794 15.1575C33.841 14.9456 33.4891 15.0181 33.2352 15.0757C32.8753 15.1574 27.1425 18.9465 16.0369 26.4431C14.4096 27.5605 12.9358 28.1049 11.6152 28.0764C10.1594 28.045 7.35899 27.2533 5.27719 26.5766C2.72377 25.7466 0.694363 25.3077 0.871079 23.8981C0.963123 23.1639 1.97421 22.413 3.90434 21.6455Z" fill="url(#paint0_linear_3452_3632)"/>
<defs>
<linearGradient id="paint0_linear_3452_3632" x1="23.0001" y1="5.84819" x2="23.0001" y2="42.2717" gradientUnits="userSpaceOnUse">
<stop stop-color="#2AABEE"/>
<stop offset="1" stop-color="#229ED9"/>
</linearGradient>
</defs>
</svg>
