<svg width="50" height="50" viewBox="0 0 50 50" fill="none" xmlns="http://www.w3.org/2000/svg">
<g clip-path="url(#clip0_3452_3631)">
<path d="M0 50L3.5339 37.1673C1.34909 33.4007 0.202961 29.135 0.2149 24.7742C0.2149 11.1098 11.3897 0 25.1074 0C31.7693 0 38.0253 2.57842 42.7173 7.25998C47.4212 11.9415 50.0119 18.1678 50 24.7861C50 38.4506 38.8252 49.5604 25.0955 49.5604H25.0836C20.9169 49.5604 16.8219 48.5147 13.1805 46.5423L0 50ZM13.8133 42.0627L14.5654 42.5143C17.7412 44.3916 21.3825 45.3779 25.0955 45.3897H25.1074C36.509 45.3897 45.7975 36.1573 45.7975 24.798C45.7975 19.2966 43.6485 14.1279 39.7445 10.2305C35.8405 6.33318 30.6351 4.19439 25.1074 4.19439C13.7058 4.18251 4.41738 13.4149 4.41738 24.7742C4.41738 28.6597 5.50382 32.4501 7.58118 35.7296L8.07067 36.5138L5.98137 44.1065L13.8133 42.0627Z" fill="white"/>
<path d="M0.871094 49.1326L4.28561 36.7395C2.17243 33.1155 1.06212 28.9924 1.06212 24.7861C1.07405 11.597 11.8548 0.867386 25.107 0.867386C31.542 0.867386 37.5712 3.36263 42.1079 7.87784C46.6447 12.3931 49.1399 18.4054 49.1399 24.798C49.1399 37.9872 38.3472 48.7167 25.107 48.7167H25.095C21.0716 48.7167 17.1199 47.7068 13.6099 45.8056L0.871094 49.1326Z" fill="url(#paint0_linear_3452_3631)"/>
<path d="M0 50L3.5339 37.1673C1.34909 33.4007 0.202961 29.135 0.2149 24.7742C0.2149 11.1098 11.3897 0 25.1074 0C31.7693 0 38.0253 2.57842 42.7173 7.25998C47.4212 11.9415 50.0119 18.1678 50 24.7861C50 38.4506 38.8252 49.5604 25.0955 49.5604H25.0836C20.9169 49.5604 16.8219 48.5147 13.1805 46.5423L0 50ZM13.8133 42.0627L14.5654 42.5143C17.7412 44.3916 21.3825 45.3779 25.0955 45.3897H25.1074C36.509 45.3897 45.7975 36.1573 45.7975 24.798C45.7975 19.2966 43.6485 14.1279 39.7445 10.2305C35.8405 6.33318 30.6351 4.19439 25.1074 4.19439C13.7058 4.18251 4.41738 13.4149 4.41738 24.7742C4.41738 28.6597 5.50382 32.4501 7.58118 35.7296L8.07067 36.5138L5.98137 44.1065L13.8133 42.0627Z" fill="url(#paint1_linear_3452_3631)"/>
<path fill-rule="evenodd" clip-rule="evenodd" d="M18.887 14.413C18.4214 13.3793 17.9319 13.3555 17.4901 13.3436C17.132 13.3318 16.7141 13.3318 16.2962 13.3318C15.8784 13.3318 15.2098 13.4862 14.6367 14.1041C14.0637 14.722 12.4639 16.2191 12.4639 19.2728C12.4639 22.3146 14.6964 25.2614 15.0068 25.6773C15.3173 26.0932 19.3168 32.5452 25.6324 35.0285C30.8855 37.096 31.96 36.6801 33.0942 36.5732C34.2284 36.4663 36.7714 35.0761 37.2967 33.6264C37.8101 32.1768 37.8101 30.9411 37.6549 30.6797C37.4997 30.4183 37.0818 30.2638 36.461 29.9549C35.8402 29.6459 32.7838 28.1488 32.2107 27.9349C31.6377 27.7329 31.2198 27.626 30.8139 28.2438C30.396 28.8617 29.2022 30.2519 28.844 30.6678C28.4858 31.0837 28.1157 31.1312 27.4949 30.8223C26.8741 30.5133 24.8683 29.8598 22.4925 27.7448C20.642 26.105 19.3884 24.0732 19.0302 23.4553C18.6721 22.8375 18.9944 22.5048 19.3048 22.1958C19.5794 21.9225 19.9257 21.471 20.2361 21.1146C20.5465 20.7581 20.6539 20.4967 20.8569 20.0808C21.0598 19.6649 20.9643 19.3085 20.8091 18.9995C20.6539 18.7025 19.4362 15.6369 18.887 14.413Z" fill="white"/>
</g>
<defs>
<linearGradient id="paint0_linear_3452_3631" x1="25.0043" y1="49.1302" x2="25.0043" y2="0.865697" gradientUnits="userSpaceOnUse">
<stop stop-color="#20B038"/>
<stop offset="1" stop-color="#60D66A"/>
</linearGradient>
<linearGradient id="paint1_linear_3452_3631" x1="25.0049" y1="49.9953" x2="25.0049" y2="0" gradientUnits="userSpaceOnUse">
<stop stop-color="#F9F9F9"/>
<stop offset="1" stop-color="white"/>
</linearGradient>
<clipPath id="clip0_3452_3631">
<rect width="50" height="50" rx="6" fill="white"/>
</clipPath>
</defs>
</svg>
