<svg width="109" height="117" viewBox="0 0 109 117" fill="none" xmlns="http://www.w3.org/2000/svg">
<path fill-rule="evenodd" clip-rule="evenodd" d="M22.3881 73.2456C18.0488 77.1895 12.0994 81.8517 7.79215 85.8228C7.19851 84.5264 6.65323 83.6321 6.02631 82.1565C3.47599 85.9372 2.23479 89.2044 1.09661 93.003C4.12778 93.318 10.4126 92.555 13.9239 91.3719C13.2811 90.8971 11.8885 89.9964 10.5767 89.276C14.9196 86.1268 21.3552 82.3404 25.9439 79.563C26.3269 79.3311 26.711 79.1013 27.0959 78.8727C31.6497 83.4428 37.4663 87.1939 44.5379 89.6283C69.3024 98.1533 92.0576 86.6678 97.0205 61.8025C100.8 42.8675 88.672 21.4865 71.6443 13.5628C66.742 10.6689 57.438 10.4183 52.293 10.8531C36.0956 12.2214 19.1527 22.8349 15.5337 41.4524C13.4629 52.1052 15.7607 63.7509 22.3881 73.2456Z" fill="#FAFAFA" stroke="#D5D5D5" stroke-miterlimit="1.5" stroke-linecap="round" stroke-linejoin="round"/>
<path d="M62.836 45.4398C60.4618 42.674 57.1002 42.022 54.3054 43.7053L55.973 46.7287C57.354 45.8477 59.0479 45.9832 60.3428 47.4692C61.3893 48.6702 61.5361 50.1538 60.3555 51.1826C58.2385 53.0274 54.3402 49.0469 51.1443 51.8318L50.4726 52.4172L52.8317 55.1245L53.3406 54.681C55.3966 52.8895 59.1419 57.1465 62.867 53.9004C65.4929 51.6122 65.1952 48.1471 62.836 45.4398ZM46.5412 58.3856C47.4281 59.4034 48.7207 59.5305 49.6978 58.6791C50.7156 57.7922 50.7868 56.4766 49.8999 55.4589C49.0308 54.4614 47.7001 54.3317 46.6823 55.2186C45.7052 56.07 45.6721 57.3882 46.5412 58.3856Z" fill="#D4D4D4"/>
</svg>
