<svg width="104" height="102" viewBox="0 0 104 102" fill="none" xmlns="http://www.w3.org/2000/svg">
<path fill-rule="evenodd" clip-rule="evenodd" d="M37.3379 21.223C25.435 29.5638 14.2273 44.9311 13.0972 59.277C12.1369 71.4671 22.3548 82.5934 35.3334 81.5937C46.2175 80.7552 54.5793 75.3696 58.2883 72.1247C58.5297 71.9134 72.4354 75.3796 72.5361 75.1749C72.579 75.0877 70.8962 59.9223 71.1741 59.6199C78.2575 51.9077 83.598 42.2499 83.8297 33.465C84.125 22.2655 73.0448 12.4975 60.4951 12.3239C53.6563 12.2293 45.4709 15.1426 40.0093 19.1245" fill="#FAFAFA"/>
<path d="M37.3379 21.223C25.435 29.5638 14.2273 44.9311 13.0972 59.277C12.1369 71.4671 22.3548 82.5934 35.3334 81.5937C46.2175 80.7552 54.5793 75.3696 58.2883 72.1247C58.5297 71.9134 72.4354 75.3796 72.5361 75.1749C72.579 75.0877 70.8962 59.9223 71.1741 59.6198C78.2575 51.9077 83.598 42.2499 83.8297 33.465C84.125 22.2655 73.0448 12.4975 60.4951 12.3239C53.6563 12.2293 45.4709 15.1426 40.0093 19.1245" stroke="#D4D4D4" stroke-miterlimit="1.5" stroke-linecap="round" stroke-linejoin="round"/>
<path d="M42.6618 54.8382C43.4441 54.1316 43.522 53.0833 42.8501 52.3394C42.1552 51.5699 41.0812 51.5152 40.2988 52.2218C39.5165 52.9283 39.4618 54.0023 40.1568 54.7718C40.8286 55.5157 41.8794 55.5447 42.6618 54.8382Z" fill="#D4D4D4"/>
<path d="M49.325 48.8204C50.1074 48.1138 50.1852 47.0655 49.5134 46.3216C48.8184 45.5521 47.7444 45.4974 46.9621 46.204C46.1797 46.9106 46.125 47.9845 46.82 48.7541C47.4918 49.498 48.5426 49.527 49.325 48.8204Z" fill="#D4D4D4"/>
<path d="M55.9882 42.8026C56.7706 42.0961 56.8484 41.0478 56.1766 40.3039C55.4816 39.5343 54.4076 39.4797 53.6253 40.1862C52.8429 40.8928 52.7883 41.9668 53.4833 42.7363C54.1551 43.4802 55.2059 43.5092 55.9882 42.8026Z" fill="#D4D4D4"/>
</svg>
