<svg width="46" height="40" viewBox="0 0 46 40" fill="none" xmlns="http://www.w3.org/2000/svg">
<path d="M41.1142 10.3615C41.1328 10.7839 41.1328 11.1871 41.1328 11.6095C41.1513 24.4159 31.7424 39.2 14.5359 39.2C9.46096 39.2 4.47867 37.6832 0.200195 34.8416C0.941056 34.9376 1.68192 34.976 2.42278 34.976C6.62717 34.976 10.7204 33.5168 14.0358 30.8096C10.0351 30.7328 6.51604 28.0256 5.29362 24.0703C6.70125 24.3583 8.14593 24.3007 9.51652 23.8975C5.16396 23.0143 2.03383 19.0399 2.0153 14.4127C2.0153 14.3743 2.0153 14.3359 2.0153 14.2975C3.31181 15.0463 4.77501 15.4687 6.25673 15.5071C2.16348 12.6655 0.885492 7.00149 3.36738 2.56627C8.12741 8.63349 15.1285 12.3007 22.6483 12.7039C21.8889 9.34389 22.9261 5.81108 25.3524 3.43027C29.1123 -0.236939 35.0392 -0.0449379 38.5953 3.85267C40.6883 3.43027 42.7071 2.62387 44.5407 1.49107C43.8369 3.73747 42.3737 5.63828 40.429 6.84788C42.2811 6.61748 44.0962 6.09908 45.8002 5.33108C44.5407 7.28949 42.9479 8.97909 41.1142 10.3615Z" fill="#1B9FEF"/>
</svg>
