<svg width="12" height="12" viewBox="0 0 12 12" fill="none" xmlns="http://www.w3.org/2000/svg">
<path d="M4.05859 5.82557C4.50879 6.75526 5.26056 7.5051 6.19141 7.95291C6.26007 7.98542 6.33602 7.99949 6.41177 7.99374C6.48752 7.98799 6.56047 7.96261 6.62344 7.9201L7.99062 7.00682C8.05103 6.96585 8.12083 6.94085 8.19351 6.93416C8.26619 6.92746 8.33938 6.93929 8.40625 6.96854L10.9656 8.06775C11.0531 8.10416 11.1262 8.16831 11.1736 8.25033C11.221 8.33235 11.2402 8.42769 11.2281 8.52166C11.147 9.1548 10.838 9.73669 10.3588 10.1584C9.87971 10.5802 9.26331 10.8129 8.625 10.8131C6.65245 10.8131 4.7607 10.0295 3.36589 8.63467C1.97109 7.23987 1.1875 5.34811 1.1875 3.37557C1.18764 2.73725 1.42037 2.12086 1.84212 1.64173C2.26388 1.1626 2.84577 0.853561 3.47891 0.772442C3.57288 0.760371 3.66822 0.779526 3.75024 0.826959C3.83225 0.874391 3.89641 0.94747 3.93281 1.03494L5.03203 3.59979C5.06062 3.6656 5.07257 3.73744 5.06685 3.80896C5.06113 3.88049 5.0379 3.94951 4.99922 4.00994L4.08594 5.399C4.04528 5.46183 4.02141 5.53404 4.01663 5.60872C4.01184 5.6834 4.02629 5.75806 4.05859 5.82557V5.82557Z" stroke="#F12A23" stroke-width="1.5" stroke-linecap="round" stroke-linejoin="round"/>
</svg>
