<svg width="33" height="33" viewBox="0 0 33 33" fill="none" xmlns="http://www.w3.org/2000/svg">
<path d="M16.5 0C25.6135 0 33 7.38795 33 16.5C33 25.6135 25.6135 33 16.5 33C7.38795 33 0 25.6128 0 16.5C0 7.38795 7.38795 0 16.5 0Z" fill="#F5AC37"/>
<path d="M17.1085 17.6651H23.3782C23.5119 17.6651 23.575 17.6651 23.5847 17.4899C23.6359 16.8521 23.6359 16.2106 23.5847 15.572C23.5847 15.448 23.523 15.3968 23.3886 15.3968H10.9108C10.7564 15.3968 10.7148 15.448 10.7148 15.5928V17.4283C10.7148 17.6651 10.7148 17.6651 10.962 17.6651H17.1085ZM22.8845 13.2517C22.9023 13.2049 22.9023 13.1537 22.8845 13.1076C22.7798 12.8797 22.6558 12.6621 22.5117 12.4579C22.2949 12.1089 22.0395 11.7874 21.7484 11.4986C21.6111 11.3241 21.4522 11.1674 21.274 11.0345C20.3815 10.275 19.3204 9.73738 18.1799 9.46711C17.6045 9.33791 17.0164 9.27628 16.4269 9.28148H10.8893C10.7348 9.28148 10.714 9.34311 10.714 9.4775V13.1381C10.714 13.2925 10.714 13.3341 10.9101 13.3341H22.8102C22.8102 13.3341 22.9134 13.3133 22.9342 13.2517H22.8837H22.8845ZM22.8845 19.8102C22.7092 19.7909 22.5325 19.7909 22.3573 19.8102H10.9212C10.7668 19.8102 10.7148 19.8102 10.7148 20.0167V23.5955C10.7148 23.7604 10.7148 23.802 10.9212 23.802H16.2012C16.4536 23.8213 16.7061 23.8034 16.9533 23.7507C17.7196 23.6958 18.4732 23.5295 19.192 23.2555C19.4533 23.1649 19.7058 23.0468 19.9441 22.905H20.0162C21.2539 22.2613 22.2593 21.25 22.8934 20.0085C22.8934 20.0085 22.9654 19.8526 22.8845 19.8117V19.8102ZM8.64244 25.6575V25.5959V23.1931V22.3786V19.955C8.64244 19.8206 8.64244 19.8006 8.4776 19.8006H6.23968C6.11569 19.8006 6.06445 19.8006 6.06445 19.6357V17.6763H8.45681C8.59046 17.6763 8.64244 17.6763 8.64244 17.501V15.5623C8.64244 15.4384 8.64244 15.4079 8.4776 15.4079H6.23968C6.11569 15.4079 6.06445 15.4079 6.06445 15.2431V13.4284C6.06445 13.3148 6.06445 13.2843 6.22929 13.2843H8.44642C8.60086 13.2843 8.64244 13.2843 8.64244 13.0883V7.5299C8.64244 7.36507 8.64244 7.32349 8.84886 7.32349H16.5828C17.1441 7.34576 17.7018 7.40739 18.2535 7.50911C19.3902 7.71924 20.4825 8.12539 21.4811 8.70529C22.1434 9.09511 22.753 9.56586 23.2958 10.1079C23.7042 10.5319 24.0725 10.9907 24.3992 11.4793C24.7237 11.9746 24.9932 12.504 25.2048 13.0571C25.2308 13.2012 25.3689 13.2984 25.5129 13.2739H27.3588C27.5957 13.2739 27.5957 13.2739 27.6061 13.5011V15.1926C27.6061 15.3574 27.5445 15.399 27.3789 15.399H25.9555C25.8114 15.399 25.7699 15.399 25.7803 15.5846C25.8367 16.2128 25.8367 16.8432 25.7803 17.4713C25.7803 17.6466 25.7803 17.6674 25.977 17.6674H27.6053C27.6774 17.7602 27.6053 17.853 27.6053 17.9465C27.6157 18.0661 27.6157 18.1871 27.6053 18.3067V19.5548C27.6053 19.73 27.5541 19.782 27.3989 19.782H25.4498C25.314 19.756 25.1818 19.8429 25.1506 19.978C24.6865 21.1846 23.944 22.2664 22.9847 23.1337C22.6342 23.4493 22.266 23.7463 21.8813 24.0203C21.4685 24.2579 21.0668 24.5051 20.6436 24.7011C19.8647 25.0516 19.0479 25.31 18.2096 25.4741C17.4137 25.6166 16.6066 25.6812 15.7965 25.6701H8.63947V25.6597L8.64244 25.6575Z" fill="white"/>
</svg>
