<svg width="9" height="10" viewBox="0 0 9 10" fill="none" xmlns="http://www.w3.org/2000/svg">
<path d="M4.68975 4.951C4.84688 4.77664 4.93383 4.55025 4.93383 4.31554C4.93383 4.08082 4.84688 3.85443 4.68975 3.68007L1.40259 0.228149C1.25559 0.0820306 1.05675 1.49892e-05 0.849494 1.50112e-05C0.642233 1.50333e-05 0.443393 0.0820307 0.296402 0.22815C0.22287 0.301082 0.164506 0.387852 0.124676 0.483454C0.0848469 0.579056 0.0643405 0.681598 0.0643405 0.785165C0.0643405 0.888731 0.0848469 0.991274 0.124676 1.08688C0.164506 1.18248 0.22287 1.26925 0.296402 1.34218L3.01087 4.22139C3.04231 4.25718 3.05965 4.3032 3.05965 4.35084C3.05965 4.39848 3.04231 4.44449 3.01087 4.48029L0.194414 7.72038C0.0570879 7.87748 -0.0122085 8.08269 0.0017686 8.29087C0.0157457 8.49906 0.111852 8.69316 0.268944 8.83049C0.426037 8.96781 0.631247 9.03711 0.839432 9.02313C1.04762 9.00916 1.24172 8.91305 1.37905 8.75596L4.68975 4.951Z" fill="white"/>
<g opacity="0.4">
<path d="M8.66415 4.8538C8.78645 4.71808 8.85413 4.54186 8.85413 4.35916C8.85413 4.17646 8.78645 4.00024 8.66415 3.86452L6.10544 1.17756C5.99102 1.06383 5.83624 0.999986 5.67491 0.999986C5.51358 0.999986 5.35881 1.06383 5.24439 1.17756C5.18715 1.23433 5.14172 1.30188 5.11072 1.37629C5.07972 1.45071 5.06375 1.53053 5.06375 1.61114C5.06375 1.69176 5.07972 1.77158 5.11072 1.84599C5.14172 1.92041 5.18715 1.98795 5.24439 2.04472L7.35731 4.28588C7.38179 4.31374 7.39528 4.34956 7.39528 4.38664C7.39528 4.42372 7.38179 4.45954 7.35731 4.4874L5.165 7.00947C5.05811 7.13175 5.00417 7.29149 5.01505 7.45354C5.02593 7.61559 5.10074 7.76668 5.22302 7.87357C5.3453 7.98047 5.50503 8.03441 5.66708 8.02353C5.82913 8.01265 5.98022 7.93784 6.08712 7.81556L8.66415 4.8538Z" fill="white"/>
</g>
</svg>
