<svg width="34" height="34" viewBox="0 0 34 34" fill="none" xmlns="http://www.w3.org/2000/svg">
<path opacity="0.2" d="M17 34C26.3888 34 34 26.3888 34 17C34 7.61116 26.3888 0 17 0C7.61116 0 0 7.61116 0 17C0 26.3888 7.61116 34 17 34Z" fill="#32A4BE"/>
<path d="M17 34C26.3888 34 34 26.3888 34 17C34 7.61116 26.3888 0 17 0C7.61116 0 0 7.61116 0 17C0 26.3888 7.61116 34 17 34Z" fill="#C2A633"/>
<mask id="mask0_4088_3267" style="mask-type:alpha" maskUnits="userSpaceOnUse" x="0" y="0" width="34" height="34">
<path d="M17 34C26.3888 34 34 26.3888 34 17C34 7.61116 26.3888 0 17 0C7.61116 0 0 7.61116 0 17C0 26.3888 7.61116 34 17 34Z" fill="white"/>
</mask>
<g mask="url(#mask0_4088_3267)">
<path fill-rule="evenodd" clip-rule="evenodd" d="M17.2812 10.1813H12.6395V16.3462H9.80762V18.4011H12.6395V24.566H17.2812C19.7312 24.566 20.2591 24.3094 21.3149 23.7962C21.3969 23.7564 21.482 23.715 21.5715 23.672C22.8136 23.0761 23.7788 22.237 24.4673 21.1547C25.1557 20.0725 25.4999 18.8121 25.4999 17.3736C25.4999 15.9352 25.1557 14.6748 24.4673 13.5925C23.7788 12.5103 22.8136 11.6712 21.5715 11.0752C20.3295 10.4793 18.8994 10.1813 17.2812 10.1813ZM16.0888 18.4011V21.8329H17.1108C18.6013 21.8329 19.7901 21.4322 20.6773 20.6307C21.5644 19.8293 22.008 18.7436 22.008 17.3736C22.008 16.0037 21.5644 14.918 20.6773 14.1166C19.7901 13.3151 18.6013 12.9144 17.1108 12.9144H16.0888V16.3462H19.3891V18.4011H16.0888Z" fill="white"/>
</g>
</svg>
