<svg width="33" height="33" viewBox="0 0 33 33" fill="none" xmlns="http://www.w3.org/2000/svg">
<circle cx="16.5" cy="16.5" r="16.5" fill="#E6007A"/>
<path d="M16.2468 10.8472C18.1615 10.8472 19.7137 9.95795 19.7137 8.86101C19.7137 7.76406 18.1615 6.87482 16.2468 6.87482C14.3322 6.87482 12.78 7.76406 12.78 8.86101C12.78 9.95795 14.3322 10.8472 16.2468 10.8472Z" fill="white"/>
<path d="M16.2471 25.8133C18.1618 25.8133 19.7139 24.9241 19.7139 23.8271C19.7139 22.7302 18.1618 21.8409 16.2471 21.8409C14.3324 21.8409 12.7803 22.7302 12.7803 23.8271C12.7803 24.9241 14.3324 25.8133 16.2471 25.8133Z" fill="white"/>
<path d="M11.4155 13.5959C12.3728 11.9625 12.3666 10.1935 11.4016 9.64467C10.4366 9.09583 8.87824 9.975 7.92091 11.6084C6.96357 13.2417 6.96979 15.0107 7.93479 15.5596C8.89979 16.1084 10.4581 15.2292 11.4155 13.5959Z" fill="white"/>
<path d="M24.5713 21.0792C25.5287 19.4458 25.523 17.6771 24.5586 17.1286C23.5943 16.5801 22.0364 17.4596 21.0791 19.093C20.1218 20.7263 20.1275 22.495 21.0918 23.0435C22.0562 23.592 23.614 22.7125 24.5713 21.0792Z" fill="white"/>
<path d="M11.4021 23.043C12.3671 22.4941 12.3733 20.7251 11.416 19.0917C10.4586 17.4584 8.90027 16.5792 7.93527 17.1281C6.97027 17.6769 6.96406 19.4459 7.9214 21.0793C8.87873 22.7126 10.4371 23.5918 11.4021 23.043Z" fill="white"/>
<path d="M24.5591 15.561C25.5235 15.0125 25.5291 13.2438 24.5718 11.6104C23.6145 9.97706 22.0566 9.09759 21.0923 9.64607C20.1279 10.1945 20.1223 11.9633 21.0796 13.5966C22.0369 15.23 23.5948 16.1094 24.5591 15.561Z" fill="white"/>
</svg>
