<svg width="106" height="104" viewBox="0 0 106 104" fill="none" xmlns="http://www.w3.org/2000/svg">
<path fill-rule="evenodd" clip-rule="evenodd" d="M8.34766 42.0129V22.6822V3.024V3.02388C8.34766 2.45856 8.8062 2 9.37154 2L9.3875 2.00012H31.1791C31.4505 2.00012 31.7108 2.10763 31.9032 2.29998C32.0955 2.49231 32.203 2.75268 32.203 3.024V8.75867H54.0118C54.3563 8.76086 54.6759 8.93565 54.8639 9.22453C55.0511 9.51341 55.0811 9.87689 54.9436 10.1921L50.6513 19.6116L54.9516 29.013C55.0972 29.3296 55.0708 29.699 54.8821 29.9922C54.6935 30.2855 54.3688 30.4632 54.0199 30.4625L54.0118 30.4516H31.1801C30.6148 30.4516 30.1562 29.9931 30.1562 29.4277V23.7061H10.3954V42.0796C11.0646 42.1808 11.728 42.3603 12.3598 42.6198V42.6205C14.1193 43.3255 15.5161 44.7172 16.2278 46.4739C16.336 46.7285 16.336 47.0159 16.2285 47.2704C16.121 47.5256 15.9155 47.726 15.658 47.8262C15.4006 47.9271 15.1132 47.9191 14.8616 47.805C14.61 47.6909 14.4155 47.4795 14.3219 47.2192C13.6564 45.5196 12.1842 44.7619 11.5823 44.514C9.78173 43.7732 7.58621 43.888 6.25525 44.797C5.37473 45.3953 4.72969 46.3065 4.57025 47.1768C4.45909 47.7414 4.58927 48.3272 4.92861 48.7923C6.12654 50.4861 7.94457 50.7604 10.048 51.0778L10.8569 51.2028C12.223 51.4259 15.849 52.0219 16.3163 55.5769V55.5761C16.5298 57.0096 16.1049 58.4642 15.1527 59.5569C14.0909 60.7786 12.3442 61.6115 10.4599 61.8202V77.4598H26.8661L33.1824 71.1435C33.2067 71.1165 33.2324 71.0908 33.2594 71.0666L39.7668 64.5591C39.9591 64.3668 40.2202 64.2585 40.4923 64.2585C40.7643 64.2585 41.0247 64.3668 41.217 64.5591L44.4306 67.7661C44.4767 67.8047 44.5193 67.8473 44.558 67.8933L47.2557 70.5854L52.8435 64.9976C52.866 64.9729 52.8896 64.9492 52.9144 64.9267L69.2618 48.5794C69.4534 48.3863 69.7145 48.278 69.9865 48.278C70.2586 48.278 70.5197 48.3863 70.7113 48.5794L79.5165 57.3846L92.0973 44.8038C92.1577 44.7223 92.2299 44.6501 92.3114 44.5897L100.149 36.7518L95.0383 36.8144H95.0258C94.4605 36.8173 93.9998 36.3617 93.9961 35.7964C93.9925 35.231 94.4481 34.7696 95.0141 34.7666L102.73 34.6723C103.003 34.6694 103.267 34.7754 103.462 34.9678C103.656 35.1601 103.766 35.4226 103.766 35.6962L103.819 43.4775C103.819 43.7488 103.711 44.0092 103.52 44.2015C103.327 44.3938 103.067 44.5014 102.796 44.5014L102.787 44.4971C102.222 44.4971 101.763 44.0393 101.763 43.4732L101.733 38.0345L93.9442 45.8237V100.088H101.986C102.552 100.088 103.01 100.546 103.01 101.112C103.01 101.677 102.552 102.135 101.986 102.135L101.985 102.135H53.6089L53.602 102.135L53.5951 102.135H4.45747C3.89216 102.135 3.43359 101.677 3.43359 101.111V78.4837C3.43359 77.9184 3.89214 77.4598 4.45747 77.4598H8.41211V61.826C7.34876 61.733 6.01216 61.4749 4.82484 60.8243L4.82411 60.825C3.9765 60.3921 3.2649 59.7339 2.76616 58.9229C2.26811 58.1118 2.00338 57.1794 2.00046 56.2278C1.98364 55.6618 2.4283 55.19 2.99362 55.1732C3.55893 55.1557 4.03139 55.6003 4.0482 56.1664C4.15059 59.627 8.33016 59.8376 9.61225 59.8238C11.2051 59.8033 12.7716 59.1707 13.6031 58.2104V58.2097C14.1728 57.5595 14.4229 56.69 14.2869 55.8365C14.0967 54.3804 13.007 53.6205 10.5293 53.2176C10.2738 53.1755 10.0176 53.1376 9.76205 53.0997L9.74314 53.0969C7.49067 52.7569 4.95737 52.3744 3.25758 49.9683V49.9675C2.59865 49.0541 2.34488 47.9103 2.5555 46.8039C2.81366 45.3909 3.76585 44.0043 5.1049 43.0952C6.00827 42.4827 7.14297 42.1182 8.34766 42.0129ZM30.1569 9.74519C30.1565 9.75759 30.1562 9.77004 30.1562 9.78255V21.6584H10.3954V4.04788H30.1569V9.74519ZM28.0078 79.2155L32.9199 74.3033V100.088H25.1396V79.5139H27.283C27.5543 79.5146 27.8154 79.4071 28.0078 79.2155ZM23.0918 79.5139H15.3095V100.088H23.0918V79.5139ZM5.48289 79.5139H13.2617V100.088H5.48289V79.5139ZM34.9677 72.2556V100.088H42.75V68.9757L40.499 66.7242L34.9677 72.2556ZM44.7978 100.088H52.5781V68.155L47.9814 72.7584C47.7898 72.9514 47.5287 73.0597 47.2566 73.0597C46.9846 73.0597 46.7235 72.9514 46.5319 72.7584L44.7978 71.0239V100.088ZM54.6259 66.1043V100.088H62.4082V58.3107L54.6259 66.1043ZM84.1142 55.6537L91.8965 47.8714V100.088H84.1142V55.6537ZM82.0664 57.7015L80.2254 59.5426C80.033 59.7349 79.7727 59.8431 79.5006 59.8431C79.2286 59.8431 78.9675 59.7349 78.7758 59.5426L74.2841 55.0508V100.088H82.0664V57.7015ZM69.9706 50.7373L72.2363 53.003V100.088H64.456V56.2599L69.9706 50.7373ZM52.4205 28.4038H32.2042V10.8057H52.4205L48.597 19.1707C48.4742 19.4406 48.4742 19.7507 48.597 20.0206L52.4205 28.4038Z" stroke="#222222" stroke-width="2.4"/>
<path d="M87.6201 17.9466L87.6201 17.9466C87.2868 17.6134 86.8356 17.4271 86.3657 17.4271H79.8129C78.8334 17.4271 78.0391 18.2215 78.0391 19.201V35.7877C78.0391 36.7673 78.8334 37.5616 79.8129 37.5616H86.3657C86.8356 37.5616 87.2868 37.3753 87.6201 37.0421L87.1267 36.5488L87.6201 37.0421C87.9533 36.7088 88.1396 36.2576 88.1396 35.7877V19.201C88.1396 18.7311 87.9533 18.2799 87.6201 17.9466ZM84.5918 20.9749V34.0138H81.5869V20.9749H84.5918Z" fill="#F12A23" stroke="#F12A23" stroke-width="1.5"/>
<path d="M84.3446 20.4561L84.3446 20.4561C84.6779 20.1228 84.8642 19.6716 84.8642 19.2017V14.9014C84.8642 13.9219 84.0698 13.1276 83.0903 13.1276C82.1107 13.1276 81.3164 13.9219 81.3164 14.9014V19.2017C81.3164 20.1813 82.1108 20.9756 83.0903 20.9756C83.5602 20.9756 84.0114 20.7893 84.3446 20.4561Z" fill="#F12A23" stroke="#F12A23" stroke-width="1.5"/>
<path d="M84.3446 41.3426L84.3446 41.3426C84.6779 41.0093 84.8642 40.5581 84.8642 40.0882V35.7879C84.8642 34.8084 84.0698 34.014 83.0903 34.014C82.1107 34.014 81.3164 34.8084 81.3164 35.7879V40.0882C81.3164 41.0678 82.1108 41.8621 83.0903 41.8621C83.5602 41.8621 84.0114 41.6758 84.3446 41.3426Z" fill="#F12A23" stroke="#F12A23" stroke-width="1.5"/>
<path d="M48.3037 43.9534L48.3037 43.9534C47.9704 43.6201 47.5192 43.4338 47.0493 43.4338H40.4965C39.517 43.4338 38.7227 44.2282 38.7227 45.2077V57.4942C38.7227 58.4737 39.517 59.268 40.4965 59.268H47.0493C47.5192 59.268 47.9704 59.0817 48.3037 58.7485L48.3037 58.7485C48.6369 58.4153 48.8232 57.964 48.8232 57.4942V45.2077C48.8232 44.7378 48.6369 44.2866 48.3037 43.9534ZM45.2754 46.9814V55.7202H42.2705V46.9814H45.2754Z" fill="#F12A23" stroke="#F12A23" stroke-width="1.5"/>
<path d="M45.0282 46.4612L45.0282 46.4612C45.3615 46.128 45.5478 45.6768 45.5478 45.2069V40.9066C45.5478 39.927 44.7534 39.1327 43.7739 39.1327C42.7943 39.1327 42 39.927 42 40.9066V45.2069C42 46.1864 42.7944 46.9808 43.7739 46.9808C44.2438 46.9808 44.695 46.7945 45.0282 46.4612Z" fill="#F12A23" stroke="#F12A23" stroke-width="1.5"/>
<path d="M45.0282 63.0491L45.0282 63.0491C45.3615 62.7159 45.5478 62.2646 45.5478 61.7948V57.4945C45.5478 56.5149 44.7534 55.7206 43.7739 55.7206C42.7943 55.7206 42 56.5149 42 57.4945V61.7948C42 62.7743 42.7944 63.5686 43.7739 63.5686C44.2438 63.5686 44.695 63.3824 45.0282 63.0491Z" fill="#F12A23" stroke="#F12A23" stroke-width="1.5"/>
<path d="M67.9619 31.2566L67.9619 31.2566C67.6286 30.9233 67.1774 30.7371 66.7075 30.7371H60.1547C59.1752 30.7371 58.3809 31.5314 58.3809 32.5109V43.5686C58.3809 44.5482 59.1752 45.3425 60.1547 45.3425H66.7075C67.1774 45.3425 67.6286 45.1562 67.9619 44.823L67.9619 44.823C68.2951 44.4897 68.4814 44.0385 68.4814 43.5686V32.5109C68.4814 32.0411 68.2951 31.5898 67.9619 31.2566ZM64.9336 34.2846V41.7947H61.9287V34.2846H64.9336Z" fill="#F12A23" stroke="#F12A23" stroke-width="1.5"/>
<path d="M64.6864 33.7657L64.6864 33.7657C65.0197 33.4324 65.206 32.9812 65.206 32.5113V28.211C65.206 27.2315 64.4116 26.4371 63.4321 26.4371C62.4525 26.4371 61.6582 27.2315 61.6582 28.211V32.5113C61.6582 33.4909 62.4526 34.2852 63.4321 34.2852C63.902 34.2852 64.3532 34.0989 64.6864 33.7657Z" fill="#F12A23" stroke="#F12A23" stroke-width="1.5"/>
<path d="M64.6864 49.1236L64.6864 49.1236C65.0197 48.7903 65.206 48.3391 65.206 47.8692V43.5689C65.206 42.5894 64.4116 41.795 63.4321 41.795C62.4525 41.795 61.6582 42.5894 61.6582 43.5689V47.8692C61.6582 48.8488 62.4526 49.6431 63.4321 49.6431C63.902 49.6431 64.3532 49.4568 64.6864 49.1236Z" fill="#F12A23" stroke="#F12A23" stroke-width="1.5"/>
<path d="M28.6455 56.2395L28.6455 56.2395C28.3122 55.9062 27.861 55.72 27.3911 55.72H20.8383C19.8588 55.72 19.0645 56.5143 19.0645 57.4939V68.5516C19.0645 69.5311 19.8588 70.3254 20.8383 70.3254H27.3911C27.861 70.3254 28.3122 70.1391 28.6455 69.8059L28.6455 69.8059C28.9787 69.4726 29.165 69.0214 29.165 68.5516V57.4939C29.165 57.024 28.9787 56.5727 28.6455 56.2395ZM25.6172 59.2675V66.7776H22.6122V59.2675H25.6172Z" fill="#F12A23" stroke="#F12A23" stroke-width="1.5"/>
<path d="M25.37 58.7486L25.37 58.7486C25.7033 58.4153 25.8896 57.9641 25.8896 57.4942V53.1939C25.8896 52.2144 25.0952 51.42 24.1157 51.42C23.1361 51.42 22.3418 52.2144 22.3418 53.1939V57.4942C22.3418 58.4738 23.1362 59.2681 24.1157 59.2681C24.5856 59.2681 25.0368 59.0818 25.37 58.7486Z" fill="#F12A23" stroke="#F12A23" stroke-width="1.5"/>
<path d="M25.37 74.1064L25.37 74.1064C25.7033 73.7731 25.8896 73.3219 25.8896 72.852V68.5517C25.8896 67.5722 25.0952 66.7778 24.1157 66.7778C23.1361 66.7778 22.3418 67.5722 22.3418 68.5517V72.852C22.3418 73.8316 23.1362 74.6259 24.1157 74.6259C24.5856 74.6259 25.0368 74.4396 25.37 74.1064Z" fill="#F12A23" stroke="#F12A23" stroke-width="1.5"/>
</svg>
