<svg width="112" height="105" viewBox="0 0 112 105" fill="none" xmlns="http://www.w3.org/2000/svg">
<path d="M103.735 97.0872C102.989 97.8342 101.995 98.2455 100.938 98.2455C99.8812 98.2455 98.8879 97.8342 98.1394 97.0855C96.291 95.2386 94.2095 93.1567 92.3614 91.3079C91.6135 90.5598 91.2017 89.5663 91.2017 88.5099C91.2017 87.4649 91.6032 86.483 92.3329 85.7405C92.3426 85.7309 92.3522 85.7215 92.3618 85.7119C93.1086 84.9649 94.1018 84.5534 95.1587 84.5534C96.2158 84.5534 97.2093 84.9649 97.956 85.7119L97.9576 85.7135C99.8058 87.5603 101.887 89.642 103.736 91.491C104.483 92.2391 104.895 93.2328 104.895 94.289C104.895 95.3452 104.483 96.3387 103.735 97.0872ZM45.8087 74.0125C36.2 64.4034 36.2 48.7683 45.8087 39.1592C50.46 34.5076 56.6489 31.9461 63.2355 31.9461C69.8218 31.9461 76.0109 34.5076 80.6622 39.1592C90.2712 48.7683 90.2712 64.4034 80.6622 74.0125C76.0109 78.6638 69.8218 81.2256 63.2355 81.2256C56.6489 81.2256 50.46 78.6638 45.8087 74.0125ZM41.0801 16.5381C38.3723 16.5381 36.1697 14.3355 36.1697 11.6277C36.1697 8.92018 38.3723 6.71734 41.0801 6.71734C43.7879 6.71734 45.9907 8.92018 45.9907 11.6277C45.9907 14.3355 43.7879 16.5381 41.0801 16.5381ZM11.6282 58.3222C8.92018 58.3222 6.71734 56.1196 6.71734 53.4118C6.71734 50.7043 8.92018 48.5014 11.6282 48.5014C14.3357 48.5014 16.5388 50.7043 16.5388 53.4118C16.5388 56.1196 14.3357 58.3222 11.6282 58.3222ZM99.9844 22.821C102.692 22.821 104.895 25.0239 104.895 27.7314C104.895 30.4403 102.692 32.644 99.9844 32.644C97.2769 32.644 95.0738 30.4403 95.0738 27.7314C95.0738 25.0239 97.2769 22.821 99.9844 22.821ZM102.707 80.9632C100.692 78.9466 98.0109 77.836 95.1587 77.836C93.5474 77.836 91.9913 78.1916 90.5784 78.8638L87.7987 76.0848C96.0449 65.7121 96.7715 51.2862 89.9781 40.199L93.2178 37.1805C95.1256 38.551 97.4616 39.3614 99.9844 39.3614C106.396 39.3614 111.613 34.1442 111.613 27.7314C111.613 21.3199 106.396 16.1037 99.9844 16.1037C93.573 16.1037 88.3565 21.3199 88.3565 27.7314C88.3565 29.1743 88.6225 30.5556 89.105 31.8314L85.853 34.8614C85.7074 34.7098 85.5614 34.5585 85.4121 34.4093C79.4921 28.4891 71.6162 25.2288 63.2355 25.2288C62.0568 25.2288 60.8884 25.2955 59.7337 25.4229L51.6868 16.3838C52.3408 14.9309 52.708 13.3218 52.708 11.6277C52.708 5.21624 47.4918 0 41.0801 0C34.6684 0 29.4524 5.21624 29.4524 11.6277C29.4524 14.0524 30.1991 16.3052 31.4734 18.1704L14.5327 42.1515C13.604 41.9117 12.6306 41.7841 11.6282 41.7841C5.21624 41.7841 0 47.0003 0 53.4118C0 59.8235 5.21624 65.0395 11.6282 65.0395C18.0396 65.0395 23.2561 59.8235 23.2561 53.4118C23.2561 50.434 22.1294 47.7148 20.2817 45.6555L36.7098 22.4001C38.06 22.9498 39.5347 23.2554 41.0801 23.2554C43.3396 23.2554 45.4488 22.6056 47.2354 21.4861L52.303 27.1783C48.1277 28.7265 44.2997 31.1682 41.0588 34.4093H41.0586C28.831 46.6374 28.831 66.5341 41.0588 78.7624C46.9788 84.6826 54.8547 87.9429 63.2355 87.9429C70.5607 87.9429 77.5002 85.4517 83.0852 80.8709L85.7233 83.5084C84.9141 85.0301 84.4844 86.7365 84.4844 88.5099C84.4844 91.3598 85.5946 94.04 87.6104 96.0566C89.4597 97.9068 91.5423 99.9896 93.39 101.836C95.4057 103.852 98.0863 104.963 100.938 104.963C103.79 104.963 106.471 103.852 108.487 101.836C110.502 99.819 111.613 97.139 111.613 94.289C111.613 91.4391 110.502 88.7591 108.487 86.7423C106.638 84.8928 104.556 82.8107 102.707 80.9632Z" fill="#27AD8F"/>
<path d="M76.9759 48.5356C75.121 48.5356 73.6172 50.0394 73.6172 51.8943V60.2126C73.6172 62.0675 75.121 63.5713 76.9759 63.5713C78.8307 63.5713 80.3345 62.0675 80.3345 60.2126V51.8943C80.3345 50.0394 78.8307 48.5356 76.9759 48.5356Z" fill="#222222"/>
<path d="M50.8606 48.4594C49.0057 48.4594 47.502 49.9631 47.502 51.818V60.2886C47.502 62.1435 49.0057 63.6473 50.8606 63.6473C52.7155 63.6473 54.2193 62.1435 54.2193 60.2886V51.818C54.2193 49.9631 52.7155 48.4594 50.8606 48.4594Z" fill="#222222"/>
<path d="M63.9173 42.2841C62.0624 42.2841 60.5586 43.7878 60.5586 45.6427V66.4642C60.5586 68.3191 62.0624 69.8229 63.9173 69.8229C65.7721 69.8229 67.2759 68.3191 67.2759 66.4642V45.6427C67.2759 43.7878 65.7721 42.2841 63.9173 42.2841Z" fill="#222222"/>
</svg>
