<svg width="110" height="110" viewBox="0 0 110 110" fill="none" xmlns="http://www.w3.org/2000/svg">
<path fill-rule="evenodd" clip-rule="evenodd" d="M53.1379 16.6823V11.8521C50.9705 11.085 49.4138 9.01807 49.4138 6.58621C49.4138 3.50262 51.9164 1 55 1C58.0836 1 60.5862 3.50262 60.5862 6.58621C60.5862 9.01807 59.0295 11.085 56.8621 11.8521V16.6823L70.444 24.5254L74.9614 16.7047C73.4643 14.9543 73.1552 12.3847 74.3692 10.2806C75.911 7.61035 79.3298 6.69421 82 8.236C84.6702 9.77779 85.5863 13.1966 84.0446 15.8668C82.8305 17.9709 80.447 18.9839 78.1865 18.5668L73.6691 26.3875L87.251 34.2305L91.4333 31.8135C91.0161 29.553 92.0291 27.1695 94.1332 25.9555C96.8035 24.4137 100.222 25.3298 101.764 28C103.306 30.6702 102.39 34.089 99.7195 35.6308C97.6153 36.8448 95.0457 36.5357 93.2953 35.0386L89.1131 37.4556V53.1379H98.1479C98.915 50.9705 100.982 49.4138 103.414 49.4138C106.497 49.4138 109 51.9164 109 55C109 58.0836 106.497 60.5862 103.414 60.5862C100.982 60.5862 98.915 59.0295 98.1479 56.8621H89.1131V72.5444L93.2953 74.9614C95.0457 73.4643 97.6153 73.1552 99.7195 74.3692C102.39 75.911 103.306 79.3298 101.764 82C100.222 84.6702 96.8035 85.5863 94.1332 84.0446C92.0291 82.8305 91.0161 80.447 91.4333 78.1865L87.251 75.7695L73.6691 83.6126L78.1865 91.4333C80.447 91.0161 82.8305 92.0291 84.0446 94.1332C85.5863 96.8035 84.6702 100.222 82 101.764C79.3298 103.306 75.911 102.39 74.3692 99.7195C73.1552 97.6153 73.4643 95.0457 74.9614 93.2953L70.444 85.4746L56.8621 93.3177V98.1479C59.0295 98.915 60.5862 100.982 60.5862 103.414C60.5862 106.497 58.0836 109 55 109C51.9164 109 49.4138 106.497 49.4138 103.414C49.4138 100.982 50.9705 98.915 53.1379 98.1479V93.3177L39.556 85.4746L35.0386 93.2953C36.5357 95.0457 36.8448 97.6153 35.6308 99.7195C34.089 102.39 30.6702 103.306 28 101.764C25.3298 100.222 24.4137 96.8035 25.9555 94.1332C27.1695 92.0291 29.553 91.0161 31.8135 91.4333L36.3309 83.6126L22.749 75.7695L18.5668 78.1865C18.9839 80.447 17.9709 82.8305 15.8668 84.0446C13.1966 85.5863 9.77779 84.6702 8.236 82C6.69421 79.3298 7.61035 75.911 10.2806 74.3692C12.3847 73.1552 14.9543 73.4643 16.7047 74.9614L20.8869 72.5444V56.8621H11.8521C11.085 59.0295 9.01807 60.5862 6.58621 60.5862C3.50262 60.5862 1 58.0836 1 55C1 51.9164 3.50262 49.4138 6.58621 49.4138C9.01807 49.4138 11.085 50.9705 11.8521 53.1379H20.8869V37.4556L16.7047 35.0386C14.9543 36.5357 12.3847 36.8448 10.2806 35.6308C7.61035 34.089 6.69421 30.6702 8.236 28C9.77779 25.3298 13.1966 24.4137 15.8668 25.9555C17.9709 27.1695 18.9839 29.553 18.5668 31.8135L22.749 34.2305L36.3309 26.3875L31.8135 18.5668C29.553 18.9839 27.1695 17.9709 25.9555 15.8668C24.4137 13.1966 25.3298 9.77779 28 8.236C30.6702 6.69421 34.089 7.61035 35.6308 10.2806C36.8448 12.3847 36.5357 14.9543 35.0386 16.7047L39.556 24.5254L53.1379 16.6823ZM53.1379 103.414C53.1379 104.442 53.9721 105.276 55 105.276C56.0279 105.276 56.8621 104.442 56.8621 103.414C56.8621 102.386 56.0279 101.552 55 101.552C53.9721 101.552 53.1379 102.386 53.1379 103.414ZM80.1379 98.5389C81.028 98.025 81.3334 96.8854 80.8195 95.9953C80.3055 95.1052 79.1659 94.7999 78.2759 95.3138C77.3858 95.8277 77.0804 96.9673 77.5943 97.8574C78.1083 98.7475 79.2479 99.0528 80.1379 98.5389ZM31.7241 95.3138C30.8341 94.7999 29.6945 95.1052 29.1806 95.9953C28.6666 96.8854 28.972 98.025 29.8621 98.5389C30.7521 99.0528 31.8917 98.7475 32.4057 97.8574C32.9196 96.9673 32.6142 95.8277 31.7241 95.3138ZM85.389 37.4556L55 19.9074L24.611 37.4556V72.5444L55 90.0926L85.389 72.5444V37.4556ZM54.069 23.5943C54.6462 23.2629 55.3538 23.2629 55.931 23.5943L81.7319 38.4909C82.3091 38.8223 82.6629 39.4368 82.6629 40.1035V69.8966C82.6629 70.5632 82.3091 71.1777 81.7319 71.5091L55.931 86.4057C55.3538 86.7371 54.6462 86.7371 54.069 86.4057L28.2681 71.5091C27.6909 71.1777 27.3371 70.5632 27.3371 69.8966V40.1035C27.3371 39.4368 27.6909 38.8223 28.2681 38.4909L54.069 23.5943ZM95.9953 80.8195C96.8854 81.3334 98.025 81.028 98.5389 80.1379C99.0528 79.2479 98.7475 78.1083 97.8574 77.5943C96.9673 77.0804 95.8277 77.3858 95.3138 78.2759C94.7999 79.1659 95.1052 80.3055 95.9953 80.8195ZM12.1426 77.5943C11.2526 78.1083 10.9472 79.2479 11.4611 80.1379C11.975 81.028 13.1146 81.3334 14.0047 80.8195C14.8948 80.3055 15.2001 79.1659 14.6862 78.2759C14.1723 77.3858 13.0327 77.0804 12.1426 77.5943ZM38.2414 55.4394V62.4483C38.2414 63.4761 37.4072 64.3103 36.3793 64.3103C35.3514 64.3103 34.5172 63.4761 34.5172 62.4483V47.5517C34.5172 46.6877 35.1094 45.9392 35.951 45.7381C36.7927 45.5407 37.6604 45.9466 38.044 46.7175L41.9655 54.5606V47.5517C41.9655 46.5239 42.7997 45.6897 43.8276 45.6897C44.8554 45.6897 45.6897 46.5239 45.6897 47.5517V62.4483C45.6897 63.3123 45.0975 64.0608 44.2559 64.2619C43.4142 64.4593 42.5465 64.0534 42.1629 63.2825L38.2414 55.4394ZM68.0345 62.4483V49.4138H66.1724C65.1446 49.4138 64.3103 48.5796 64.3103 47.5517C64.3103 46.5239 65.1446 45.6897 66.1724 45.6897H73.6207C74.6486 45.6897 75.4828 46.5239 75.4828 47.5517C75.4828 48.5796 74.6486 49.4138 73.6207 49.4138H71.7586V62.4483C71.7586 63.4761 70.9244 64.3103 69.8966 64.3103C68.8687 64.3103 68.0345 63.4761 68.0345 62.4483ZM55 56.8621H53.1379V62.4483C53.1379 63.4761 52.3037 64.3103 51.2759 64.3103C50.248 64.3103 49.4138 63.4761 49.4138 62.4483V47.5517C49.4138 46.5239 50.248 45.6897 51.2759 45.6897H58.7241C59.752 45.6897 60.5862 46.5239 60.5862 47.5517C60.5862 48.5796 59.752 49.4138 58.7241 49.4138H53.1379V53.1379H55C56.0279 53.1379 56.8621 53.9721 56.8621 55C56.8621 56.0279 56.0279 56.8621 55 56.8621ZM8.44828 55C8.44828 53.9721 7.61407 53.1379 6.58621 53.1379C5.55834 53.1379 4.72414 53.9721 4.72414 55C4.72414 56.0279 5.55834 56.8621 6.58621 56.8621C7.61407 56.8621 8.44828 56.0279 8.44828 55ZM105.276 55C105.276 53.9721 104.442 53.1379 103.414 53.1379C102.386 53.1379 101.552 53.9721 101.552 55C101.552 56.0279 102.386 56.8621 103.414 56.8621C104.442 56.8621 105.276 56.0279 105.276 55ZM14.0047 29.1806C13.1146 28.6666 11.975 28.972 11.4611 29.8621C10.9472 30.7521 11.2526 31.8917 12.1426 32.4057C13.0327 32.9196 14.1723 32.6142 14.6862 31.7241C15.2001 30.8341 14.8948 29.6945 14.0047 29.1806ZM97.8574 32.4057C98.7475 31.8917 99.0528 30.7521 98.5389 29.8621C98.025 28.972 96.8854 28.6666 95.9953 29.1806C95.1052 29.6945 94.7999 30.8341 95.3138 31.7241C95.8277 32.6142 96.9673 32.9196 97.8574 32.4057ZM31.7241 14.6862C32.6142 14.1723 32.9196 13.0327 32.4057 12.1426C31.8917 11.2526 30.7521 10.9472 29.8621 11.4611C28.972 11.975 28.6666 13.1146 29.1806 14.0047C29.6945 14.8948 30.8341 15.2001 31.7241 14.6862ZM80.1379 11.4611C79.2479 10.9472 78.1083 11.2526 77.5943 12.1426C77.0804 13.0327 77.3858 14.1723 78.2759 14.6862C79.1659 15.2001 80.3055 14.8948 80.8195 14.0047C81.3334 13.1146 81.028 11.975 80.1379 11.4611ZM56.8621 6.58621C56.8621 5.55834 56.0279 4.72414 55 4.72414C53.9721 4.72414 53.1379 5.55834 53.1379 6.58621C53.1379 7.61407 53.9721 8.44828 55 8.44828C56.0279 8.44828 56.8621 7.61407 56.8621 6.58621ZM26.5426 38.6089L55.1013 21.7151L83.8611 38.6089V71.5922L55.1013 88.0838L26.5426 71.5922V38.6089Z" fill="#6E73FF"/>
<path d="M53.1379 11.8521H53.7379V11.428L53.3381 11.2865L53.1379 11.8521ZM53.1379 16.6823L53.438 17.2019L53.7379 17.0287V16.6823H53.1379ZM56.8621 11.8521L56.6619 11.2865L56.2621 11.428V11.8521H56.8621ZM56.8621 16.6823H56.2621V17.0287L56.562 17.2019L56.8621 16.6823ZM70.444 24.5254L70.144 25.045L70.6635 25.345L70.9636 24.8255L70.444 24.5254ZM74.9614 16.7047L75.4809 17.0048L75.6932 16.6373L75.4173 16.3147L74.9614 16.7047ZM74.3692 10.2806L73.8496 9.98053L73.8495 9.98069L74.3692 10.2806ZM82 8.236L81.7 8.7556L82 8.236ZM84.0446 15.8668L83.525 15.5667L83.5249 15.5669L84.0446 15.8668ZM78.1865 18.5668L78.2954 17.9767L77.8788 17.8999L77.6669 18.2667L78.1865 18.5668ZM73.6691 26.3875L73.1496 26.0873L72.8494 26.607L73.3691 26.907L73.6691 26.3875ZM87.251 34.2305L86.951 34.7501L87.2512 34.9234L87.5513 34.75L87.251 34.2305ZM91.4333 31.8135L91.7335 32.333L92.1001 32.1211L92.0233 31.7046L91.4333 31.8135ZM94.1332 25.9555L94.4331 26.4751L94.4333 26.4751L94.1332 25.9555ZM101.764 28L102.284 27.7L101.764 28ZM99.7195 35.6308L100.019 36.1505L100.019 36.1504L99.7195 35.6308ZM93.2953 35.0386L93.6853 34.5827L93.3627 34.3067L92.9951 34.5191L93.2953 35.0386ZM89.1131 37.4556L88.8129 36.9361L88.5131 37.1093V37.4556H89.1131ZM89.1131 53.1379H88.5131V53.7379H89.1131V53.1379ZM98.1479 53.1379V53.7379H98.572L98.7135 53.3381L98.1479 53.1379ZM98.1479 56.8621L98.7135 56.6619L98.572 56.2621H98.1479V56.8621ZM89.1131 56.8621V56.2621H88.5131V56.8621H89.1131ZM89.1131 72.5444H88.5131V72.8907L88.8129 73.0639L89.1131 72.5444ZM93.2953 74.9614L92.9951 75.4809L93.3627 75.6933L93.6853 75.4173L93.2953 74.9614ZM99.7195 74.3692L100.019 73.8496L100.019 73.8495L99.7195 74.3692ZM101.764 82L101.244 81.7L101.764 82ZM94.1332 84.0446L94.4333 83.525L94.4331 83.5249L94.1332 84.0446ZM91.4333 78.1865L92.0233 78.2954L92.1001 77.8789L91.7335 77.667L91.4333 78.1865ZM87.251 75.7695L87.5513 75.25L87.2512 75.0766L86.951 75.2499L87.251 75.7695ZM73.6691 83.6126L73.3691 83.093L72.8494 83.393L73.1496 83.9127L73.6691 83.6126ZM78.1865 91.4333L77.6669 91.7334L77.8788 92.1002L78.2954 92.0233L78.1865 91.4333ZM84.0446 94.1332L83.5249 94.4331L83.525 94.4333L84.0446 94.1332ZM82 101.764L81.7 101.244L82 101.764ZM74.3692 99.7195L73.8495 100.019L73.8496 100.019L74.3692 99.7195ZM74.9614 93.2953L75.4173 93.6853L75.6932 93.3628L75.4809 92.9952L74.9614 93.2953ZM70.444 85.4746L70.9636 85.1745L70.6635 84.655L70.144 84.955L70.444 85.4746ZM56.8621 93.3177L56.562 92.7981L56.2621 92.9713V93.3177H56.8621ZM56.8621 98.1479H56.2621V98.572L56.6619 98.7135L56.8621 98.1479ZM53.1379 98.1479L53.3381 98.7135L53.7379 98.572V98.1479H53.1379ZM53.1379 93.3177H53.7379V92.9713L53.438 92.7981L53.1379 93.3177ZM39.556 85.4746L39.856 84.955L39.3365 84.655L39.0364 85.1745L39.556 85.4746ZM35.0386 93.2953L34.5191 92.9952L34.3068 93.3628L34.5827 93.6853L35.0386 93.2953ZM35.6308 99.7195L36.1504 100.019L36.1505 100.019L35.6308 99.7195ZM28 101.764L27.7 102.284L28 101.764ZM25.9555 94.1332L26.4751 94.4333L26.4751 94.4331L25.9555 94.1332ZM31.8135 91.4333L31.7046 92.0233L32.1212 92.1002L32.3331 91.7334L31.8135 91.4333ZM36.3309 83.6126L36.8505 83.9127L37.1506 83.393L36.6309 83.093L36.3309 83.6126ZM22.749 75.7695L23.049 75.2499L22.7488 75.0766L22.4487 75.25L22.749 75.7695ZM18.5668 78.1865L18.2665 77.667L17.8999 77.8789L17.9767 78.2954L18.5668 78.1865ZM15.8668 84.0446L15.5669 83.5249L15.5667 83.525L15.8668 84.0446ZM8.236 82L8.7556 81.7L8.236 82ZM10.2806 74.3692L9.98069 73.8495L9.98053 73.8496L10.2806 74.3692ZM16.7047 74.9614L16.3147 75.4173L16.6373 75.6933L17.0049 75.4809L16.7047 74.9614ZM20.8869 72.5444L21.1871 73.0639L21.4869 72.8907V72.5444H20.8869ZM20.8869 56.8621H21.4869V56.2621H20.8869V56.8621ZM11.8521 56.8621V56.2621H11.428L11.2865 56.6619L11.8521 56.8621ZM11.8521 53.1379L11.2865 53.3381L11.428 53.7379H11.8521V53.1379ZM20.8869 53.1379V53.7379H21.4869V53.1379H20.8869ZM20.8869 37.4556H21.4869V37.1093L21.1871 36.9361L20.8869 37.4556ZM16.7047 35.0386L17.0049 34.5191L16.6373 34.3067L16.3147 34.5827L16.7047 35.0386ZM10.2806 35.6308L9.98053 36.1504L9.98069 36.1505L10.2806 35.6308ZM8.236 28L7.7164 27.7L8.236 28ZM15.8668 25.9555L15.5667 26.4751L15.5669 26.4751L15.8668 25.9555ZM18.5668 31.8135L17.9767 31.7046L17.8999 32.1211L18.2665 32.333L18.5668 31.8135ZM22.749 34.2305L22.4487 34.75L22.7488 34.9234L23.049 34.7501L22.749 34.2305ZM36.3309 26.3875L36.6309 26.907L37.1506 26.607L36.8505 26.0873L36.3309 26.3875ZM31.8135 18.5668L32.3331 18.2667L32.1212 17.8999L31.7046 17.9767L31.8135 18.5668ZM25.9555 15.8668L26.4751 15.5669L26.4751 15.5667L25.9555 15.8668ZM28 8.236L27.7 7.7164L28 8.236ZM35.6308 10.2806L36.1505 9.98069L36.1504 9.98053L35.6308 10.2806ZM35.0386 16.7047L34.5827 16.3147L34.3068 16.6373L34.5191 17.0048L35.0386 16.7047ZM39.556 24.5254L39.0364 24.8255L39.3365 25.345L39.856 25.045L39.556 24.5254ZM77.5943 97.8574L78.1139 97.5574L77.5943 97.8574ZM31.7241 95.3138L31.4241 95.8334L31.7241 95.3138ZM29.8621 98.5389L30.1621 98.0193L29.8621 98.5389ZM32.4057 97.8574L31.8861 97.5574H31.8861L32.4057 97.8574ZM55 19.9074L55.3 19.3879L55 19.2146L54.7 19.3879L55 19.9074ZM85.389 37.4556H85.989V37.1092L85.689 36.936L85.389 37.4556ZM24.611 37.4556L24.311 36.936L24.011 37.1092V37.4556H24.611ZM24.611 72.5444H24.011V72.8908L24.311 73.064L24.611 72.5444ZM55 90.0926L54.7 90.6121L55 90.7854L55.3 90.6121L55 90.0926ZM85.389 72.5444L85.689 73.064L85.989 72.8908V72.5444H85.389ZM55.931 23.5943L56.231 23.0747L56.2298 23.074L55.931 23.5943ZM54.069 23.5943L53.7702 23.074L53.769 23.0747L54.069 23.5943ZM81.7319 38.4909L81.4319 39.0105L81.4331 39.0112L81.7319 38.4909ZM81.7319 71.5091L81.4331 70.9888L81.4319 70.9895L81.7319 71.5091ZM55.931 86.4057L56.2298 86.926L56.231 86.9253L55.931 86.4057ZM54.069 86.4057L53.769 86.9253L53.7702 86.926L54.069 86.4057ZM28.2681 71.5091L28.5681 70.9895L28.5669 70.9888L28.2681 71.5091ZM28.2681 38.4909L28.5669 39.0112L28.5681 39.0105L28.2681 38.4909ZM97.8574 77.5943L97.5574 78.1139L97.8574 77.5943ZM11.4611 80.1379L10.9415 80.438L11.4611 80.1379ZM38.2414 55.4394L38.778 55.1711L37.6414 55.4394H38.2414ZM35.951 45.7381L35.814 45.1539L35.8116 45.1545L35.951 45.7381ZM38.044 46.7175L37.5068 46.9848L37.5073 46.9858L38.044 46.7175ZM41.9655 54.5606L41.4289 54.8289L42.5655 54.5606H41.9655ZM44.2559 64.2619L44.3929 64.8461L44.3953 64.8455L44.2559 64.2619ZM42.1629 63.2825L42.7001 63.0152L42.6996 63.0142L42.1629 63.2825ZM68.0345 49.4138H68.6345V48.8138H68.0345V49.4138ZM71.7586 49.4138V48.8138H71.1586V49.4138H71.7586ZM53.1379 56.8621V56.2621H52.5379V56.8621H53.1379ZM53.1379 49.4138V48.8138H52.5379V49.4138H53.1379ZM53.1379 53.1379H52.5379V53.7379H53.1379V53.1379ZM11.4611 29.8621L11.9807 30.1621L11.4611 29.8621ZM14.6862 31.7241L14.1666 31.4241L14.6862 31.7241ZM98.5389 29.8621L98.0193 30.1621L98.5389 29.8621ZM97.8574 32.4057L97.5574 31.8861V31.8861L97.8574 32.4057ZM95.3138 31.7241L95.8334 31.4241L95.3138 31.7241ZM31.7241 14.6862L31.4241 14.1666L31.7241 14.6862ZM29.8621 11.4611L30.1621 11.9807L29.8621 11.4611ZM80.1379 11.4611L80.438 10.9415L80.1379 11.4611ZM55.1013 21.7151L55.4052 21.1977L55.1002 21.0186L54.7958 21.1987L55.1013 21.7151ZM26.5426 38.6089L26.2371 38.0925L25.9426 38.2668V38.6089H26.5426ZM83.8611 38.6089H84.4611V38.2655L84.1649 38.0916L83.8611 38.6089ZM83.8611 71.5922L84.1595 72.1127L84.4611 71.9398V71.5922H83.8611ZM55.1013 88.0838L54.8012 88.6034L55.1002 88.7761L55.3997 88.6043L55.1013 88.0838ZM26.5426 71.5922H25.9426V71.9386L26.2426 72.1118L26.5426 71.5922ZM52.5379 11.8521V16.6823H53.7379V11.8521H52.5379ZM48.8138 6.58621C48.8138 9.28086 50.5389 11.5687 52.9377 12.4178L53.3381 11.2865C51.4021 10.6013 50.0138 8.75528 50.0138 6.58621H48.8138ZM55 0.4C51.585 0.4 48.8138 3.17125 48.8138 6.58621H50.0138C50.0138 3.83399 52.2478 1.6 55 1.6V0.4ZM61.1862 6.58621C61.1862 3.17125 58.415 0.4 55 0.4V1.6C57.7522 1.6 59.9862 3.83399 59.9862 6.58621H61.1862ZM57.0623 12.4178C59.4611 11.5687 61.1862 9.28086 61.1862 6.58621H59.9862C59.9862 8.75528 58.5979 10.6013 56.6619 11.2865L57.0623 12.4178ZM57.4621 16.6823V11.8521H56.2621V16.6823H57.4621ZM70.744 24.0058L57.1621 16.1628L56.562 17.2019L70.144 25.045L70.744 24.0058ZM74.4418 16.4046L69.9244 24.2253L70.9636 24.8255L75.4809 17.0048L74.4418 16.4046ZM73.8495 9.98069C72.5046 12.3116 72.848 15.1569 74.5054 17.0947L75.4173 16.3147C74.0805 14.7518 73.8057 12.4578 74.8889 10.5804L73.8495 9.98069ZM82.3 7.7164C79.3428 6.00888 75.5571 7.02339 73.8496 9.98053L74.8888 10.5806C76.265 8.1973 79.3168 7.37953 81.7 8.7556L82.3 7.7164ZM84.5642 16.1668C86.2717 13.2096 85.2572 9.42387 82.3 7.7164L81.7 8.7556C84.0833 10.1317 84.901 13.1835 83.525 15.5667L84.5642 16.1668ZM78.0776 19.1568C80.5791 19.6183 83.2187 18.4986 84.5643 16.1666L83.5249 15.5669C82.4422 17.4432 80.315 18.3494 78.2954 17.9767L78.0776 19.1568ZM74.1887 26.6876L78.706 18.8669L77.6669 18.2667L73.1496 26.0873L74.1887 26.6876ZM87.5511 33.7109L73.9691 25.8679L73.3691 26.907L86.951 34.7501L87.5511 33.7109ZM91.133 31.294L86.9508 33.711L87.5513 34.75L91.7335 32.333L91.133 31.294ZM93.8334 25.4358C91.5014 26.7813 90.3817 29.4209 90.8432 31.9224L92.0233 31.7046C91.6506 29.685 92.5568 27.5578 94.4331 26.4751L93.8334 25.4358ZM102.284 27.7C100.576 24.7428 96.7904 23.7283 93.8332 25.4358L94.4333 26.4751C96.8165 25.099 99.8683 25.9167 101.244 28.3L102.284 27.7ZM100.019 36.1504C102.977 34.4429 103.991 30.6572 102.284 27.7L101.244 28.3C102.62 30.6832 101.803 33.735 99.4194 35.1112L100.019 36.1504ZM92.9053 35.4946C94.8431 37.152 97.6884 37.4954 100.019 36.1505L99.4196 35.1111C97.5422 36.1943 95.2482 35.9195 93.6853 34.5827L92.9053 35.4946ZM89.4133 37.9751L93.5955 35.5581L92.9951 34.5191L88.8129 36.9361L89.4133 37.9751ZM89.7131 53.1379V37.4556H88.5131V53.1379H89.7131ZM98.1479 52.5379H89.1131V53.7379H98.1479V52.5379ZM103.414 48.8138C100.719 48.8138 98.4313 50.5389 97.5823 52.9377L98.7135 53.3381C99.3987 51.4021 101.245 50.0138 103.414 50.0138V48.8138ZM109.6 55C109.6 51.585 106.829 48.8138 103.414 48.8138V50.0138C106.166 50.0138 108.4 52.2478 108.4 55H109.6ZM103.414 61.1862C106.829 61.1862 109.6 58.415 109.6 55H108.4C108.4 57.7522 106.166 59.9862 103.414 59.9862V61.1862ZM97.5823 57.0623C98.4313 59.4611 100.719 61.1862 103.414 61.1862V59.9862C101.245 59.9862 99.3987 58.5979 98.7135 56.6619L97.5823 57.0623ZM89.1131 57.4621H98.1479V56.2621H89.1131V57.4621ZM89.7131 72.5444V56.8621H88.5131V72.5444H89.7131ZM93.5955 74.4419L89.4133 72.0249L88.8129 73.0639L92.9951 75.4809L93.5955 74.4419ZM100.019 73.8495C97.6884 72.5046 94.8431 72.848 92.9053 74.5054L93.6853 75.4173C95.2482 74.0805 97.5422 73.8057 99.4196 74.8889L100.019 73.8495ZM102.284 82.3C103.991 79.3428 102.977 75.5571 100.019 73.8496L99.4194 74.8888C101.803 76.265 102.62 79.3168 101.244 81.7L102.284 82.3ZM93.8332 84.5642C96.7904 86.2717 100.576 85.2572 102.284 82.3L101.244 81.7C99.8683 84.0833 96.8165 84.901 94.4333 83.525L93.8332 84.5642ZM90.8432 78.0776C90.3817 80.5791 91.5014 83.2187 93.8334 84.5643L94.4331 83.5249C92.5568 82.4422 91.6506 80.315 92.0233 78.2954L90.8432 78.0776ZM86.9508 76.289L91.133 78.706L91.7335 77.667L87.5513 75.25L86.9508 76.289ZM73.9691 84.1321L87.5511 76.2891L86.951 75.2499L73.3691 83.093L73.9691 84.1321ZM78.706 91.1331L74.1887 83.3125L73.1496 83.9127L77.6669 91.7334L78.706 91.1331ZM84.5643 93.8334C83.2187 91.5014 80.5791 90.3817 78.0776 90.8432L78.2954 92.0233C80.315 91.6506 82.4422 92.5568 83.5249 94.4331L84.5643 93.8334ZM82.3 102.284C85.2572 100.576 86.2717 96.7904 84.5642 93.8332L83.525 94.4333C84.901 96.8165 84.0833 99.8683 81.7 101.244L82.3 102.284ZM73.8496 100.019C75.5571 102.977 79.3428 103.991 82.3 102.284L81.7 101.244C79.3168 102.62 76.265 101.803 74.8888 99.4194L73.8496 100.019ZM74.5054 92.9053C72.848 94.8431 72.5046 97.6884 73.8495 100.019L74.8889 99.4196C73.8057 97.5422 74.0805 95.2482 75.4173 93.6853L74.5054 92.9053ZM69.9244 85.7747L74.4418 93.5954L75.4809 92.9952L70.9636 85.1745L69.9244 85.7747ZM57.1621 93.8372L70.744 85.9942L70.144 84.955L56.562 92.7981L57.1621 93.8372ZM57.4621 98.1479V93.3177H56.2621V98.1479H57.4621ZM61.1862 103.414C61.1862 100.719 59.4611 98.4313 57.0623 97.5823L56.6619 98.7135C58.5979 99.3987 59.9862 101.245 59.9862 103.414H61.1862ZM55 109.6C58.415 109.6 61.1862 106.829 61.1862 103.414H59.9862C59.9862 106.166 57.7522 108.4 55 108.4V109.6ZM48.8138 103.414C48.8138 106.829 51.585 109.6 55 109.6V108.4C52.2478 108.4 50.0138 106.166 50.0138 103.414H48.8138ZM52.9377 97.5823C50.5389 98.4313 48.8138 100.719 48.8138 103.414H50.0138C50.0138 101.245 51.4021 99.3987 53.3381 98.7135L52.9377 97.5823ZM52.5379 93.3177V98.1479H53.7379V93.3177H52.5379ZM39.256 85.9942L52.8379 93.8372L53.438 92.7981L39.856 84.955L39.256 85.9942ZM35.5582 93.5954L40.0756 85.7747L39.0364 85.1745L34.5191 92.9952L35.5582 93.5954ZM36.1505 100.019C37.4954 97.6884 37.152 94.8431 35.4946 92.9053L34.5827 93.6853C35.9195 95.2482 36.1943 97.5422 35.1111 99.4196L36.1505 100.019ZM27.7 102.284C30.6572 103.991 34.4429 102.977 36.1504 100.019L35.1112 99.4194C33.735 101.803 30.6832 102.62 28.3 101.244L27.7 102.284ZM25.4358 93.8332C23.7283 96.7904 24.7428 100.576 27.7 102.284L28.3 101.244C25.9167 99.8683 25.099 96.8165 26.4751 94.4333L25.4358 93.8332ZM31.9224 90.8432C29.4209 90.3817 26.7813 91.5014 25.4358 93.8334L26.4751 94.4331C27.5578 92.5568 29.685 91.6506 31.7046 92.0233L31.9224 90.8432ZM35.8113 83.3125L31.294 91.1331L32.3331 91.7334L36.8505 83.9127L35.8113 83.3125ZM22.4489 76.2891L36.0309 84.1321L36.6309 83.093L23.049 75.2499L22.4489 76.2891ZM18.867 78.706L23.0492 76.289L22.4487 75.25L18.2665 77.667L18.867 78.706ZM16.1666 84.5643C18.4986 83.2187 19.6183 80.5791 19.1568 78.0776L17.9767 78.2954C18.3494 80.315 17.4432 82.4422 15.5669 83.5249L16.1666 84.5643ZM7.7164 82.3C9.42387 85.2572 13.2096 86.2717 16.1668 84.5642L15.5667 83.525C13.1835 84.901 10.1317 84.0833 8.7556 81.7L7.7164 82.3ZM9.98053 73.8496C7.02339 75.5571 6.00888 79.3428 7.7164 82.3L8.7556 81.7C7.37953 79.3168 8.1973 76.265 10.5806 74.8888L9.98053 73.8496ZM17.0947 74.5054C15.1569 72.848 12.3116 72.5046 9.98069 73.8495L10.5804 74.8889C12.4578 73.8057 14.7518 74.0805 16.3147 75.4173L17.0947 74.5054ZM20.5867 72.0249L16.4045 74.4419L17.0049 75.4809L21.1871 73.0639L20.5867 72.0249ZM20.2869 56.8621V72.5444H21.4869V56.8621H20.2869ZM11.8521 57.4621H20.8869V56.2621H11.8521V57.4621ZM6.58621 61.1862C9.28086 61.1862 11.5687 59.4611 12.4178 57.0623L11.2865 56.6619C10.6013 58.5979 8.75528 59.9862 6.58621 59.9862V61.1862ZM0.4 55C0.4 58.415 3.17125 61.1862 6.58621 61.1862V59.9862C3.83399 59.9862 1.6 57.7522 1.6 55H0.4ZM6.58621 48.8138C3.17125 48.8138 0.4 51.585 0.4 55H1.6C1.6 52.2478 3.83399 50.0138 6.58621 50.0138V48.8138ZM12.4178 52.9377C11.5687 50.5389 9.28086 48.8138 6.58621 48.8138V50.0138C8.75528 50.0138 10.6013 51.4021 11.2865 53.3381L12.4178 52.9377ZM20.8869 52.5379H11.8521V53.7379H20.8869V52.5379ZM20.2869 37.4556V53.1379H21.4869V37.4556H20.2869ZM16.4045 35.5581L20.5867 37.9751L21.1871 36.9361L17.0049 34.5191L16.4045 35.5581ZM9.98069 36.1505C12.3116 37.4954 15.1569 37.152 17.0947 35.4946L16.3147 34.5827C14.7518 35.9195 12.4578 36.1943 10.5804 35.1111L9.98069 36.1505ZM7.7164 27.7C6.00888 30.6572 7.02339 34.4429 9.98053 36.1504L10.5806 35.1112C8.1973 33.735 7.37953 30.6832 8.7556 28.3L7.7164 27.7ZM16.1668 25.4358C13.2096 23.7283 9.42387 24.7428 7.7164 27.7L8.7556 28.3C10.1317 25.9167 13.1835 25.099 15.5667 26.4751L16.1668 25.4358ZM19.1568 31.9224C19.6183 29.4209 18.4986 26.7813 16.1666 25.4358L15.5669 26.4751C17.4432 27.5578 18.3494 29.685 17.9767 31.7046L19.1568 31.9224ZM23.0492 33.711L18.867 31.294L18.2665 32.333L22.4487 34.75L23.0492 33.711ZM36.0309 25.8679L22.4489 33.7109L23.049 34.7501L36.6309 26.907L36.0309 25.8679ZM31.294 18.8669L35.8113 26.6876L36.8505 26.0873L32.3331 18.2667L31.294 18.8669ZM25.4358 16.1666C26.7813 18.4986 29.4209 19.6183 31.9224 19.1568L31.7046 17.9767C29.685 18.3494 27.5578 17.4432 26.4751 15.5669L25.4358 16.1666ZM27.7 7.7164C24.7428 9.42387 23.7283 13.2096 25.4358 16.1668L26.4751 15.5667C25.099 13.1835 25.9167 10.1317 28.3 8.7556L27.7 7.7164ZM36.1504 9.98053C34.4429 7.02339 30.6572 6.00888 27.7 7.7164L28.3 8.7556C30.6832 7.37953 33.735 8.1973 35.1112 10.5806L36.1504 9.98053ZM35.4946 17.0947C37.152 15.1569 37.4954 12.3116 36.1505 9.98069L35.1111 10.5804C36.1943 12.4578 35.9195 14.7518 34.5827 16.3147L35.4946 17.0947ZM40.0756 24.2253L35.5582 16.4046L34.5191 17.0048L39.0364 24.8255L40.0756 24.2253ZM52.8379 16.1628L39.256 24.0058L39.856 25.045L53.438 17.2019L52.8379 16.1628ZM55 104.676C54.3035 104.676 53.7379 104.11 53.7379 103.414H52.5379C52.5379 104.773 53.6408 105.876 55 105.876V104.676ZM56.2621 103.414C56.2621 104.11 55.6965 104.676 55 104.676V105.876C56.3592 105.876 57.4621 104.773 57.4621 103.414H56.2621ZM55 102.152C55.6965 102.152 56.2621 102.717 56.2621 103.414H57.4621C57.4621 102.055 56.3592 100.952 55 100.952V102.152ZM53.7379 103.414C53.7379 102.717 54.3035 102.152 55 102.152V100.952C53.6408 100.952 52.5379 102.055 52.5379 103.414H53.7379ZM80.2999 96.2953C80.6481 96.8984 80.441 97.671 79.8379 98.0193L80.438 99.0585C81.615 98.3789 82.0187 96.8724 81.3391 95.6953L80.2999 96.2953ZM78.5759 95.8334C79.1789 95.4852 79.9516 95.6922 80.2999 96.2953L81.3391 95.6953C80.6594 94.5183 79.1529 94.1145 77.9758 94.7942L78.5759 95.8334ZM78.1139 97.5574C77.7657 96.9543 77.9727 96.1817 78.5759 95.8334L77.9758 94.7942C76.7988 95.4738 76.3951 96.9803 77.0747 98.1574L78.1139 97.5574ZM79.8379 98.0193C79.2349 98.3675 78.4622 98.1605 78.1139 97.5574L77.0747 98.1574C77.7543 99.3344 79.2609 99.7382 80.438 99.0585L79.8379 98.0193ZM29.7002 96.2953C30.0484 95.6922 30.8211 95.4852 31.4241 95.8334L32.0242 94.7942C30.8471 94.1145 29.3406 94.5183 28.661 95.6953L29.7002 96.2953ZM30.1621 98.0193C29.559 97.671 29.3519 96.8984 29.7002 96.2953L28.661 95.6953C27.9813 96.8724 28.385 98.3789 29.562 99.0585L30.1621 98.0193ZM31.8861 97.5574C31.5378 98.1605 30.7652 98.3675 30.1621 98.0193L29.562 99.0585C30.7391 99.7382 32.2457 99.3344 32.9253 98.1574L31.8861 97.5574ZM31.4241 95.8334C32.0273 96.1817 32.2343 96.9543 31.8861 97.5574L32.9253 98.1574C33.6049 96.9803 33.2012 95.4738 32.0242 94.7942L31.4241 95.8334ZM54.7 20.427L85.0889 37.9752L85.689 36.936L55.3 19.3879L54.7 20.427ZM24.9111 37.9752L55.3 20.427L54.7 19.3879L24.311 36.936L24.9111 37.9752ZM25.211 72.5444V37.4556H24.011V72.5444H25.211ZM55.3 89.573L24.9111 72.0248L24.311 73.064L54.7 90.6121L55.3 89.573ZM85.0889 72.0248L54.7 89.573L55.3 90.6121L85.689 73.064L85.0889 72.0248ZM84.789 37.4556V72.5444H85.989V37.4556H84.789ZM56.2298 23.074C55.4675 22.6363 54.5325 22.6363 53.7702 23.074L54.3677 24.1147C54.76 23.8895 55.24 23.8895 55.6323 24.1147L56.2298 23.074ZM82.0319 37.9713L56.231 23.0747L55.631 24.114L81.4319 39.0105L82.0319 37.9713ZM83.2629 40.1035C83.2629 39.2234 82.7954 38.4097 82.0306 37.9706L81.4331 39.0112C81.8228 39.235 82.0629 39.6503 82.0629 40.1035H83.2629ZM83.2629 69.8966V40.1035H82.0629V69.8966H83.2629ZM82.0306 72.0294C82.7954 71.5903 83.2629 70.7766 83.2629 69.8966H82.0629C82.0629 70.3497 81.8228 70.765 81.4331 70.9888L82.0306 72.0294ZM56.231 86.9253L82.0319 72.0287L81.4319 70.9895L55.631 85.886L56.231 86.9253ZM53.7702 86.926C54.5325 87.3637 55.4675 87.3637 56.2298 86.926L55.6323 85.8853C55.24 86.1105 54.76 86.1105 54.3677 85.8853L53.7702 86.926ZM27.9681 72.0287L53.769 86.9253L54.369 85.886L28.5681 70.9895L27.9681 72.0287ZM26.7371 69.8966C26.7371 70.7766 27.2046 71.5903 27.9694 72.0294L28.5669 70.9888C28.1772 70.765 27.9371 70.3497 27.9371 69.8966H26.7371ZM26.7371 40.1035V69.8966H27.9371V40.1035H26.7371ZM27.9694 37.9706C27.2046 38.4097 26.7371 39.2234 26.7371 40.1035H27.9371C27.9371 39.6503 28.1772 39.235 28.5669 39.0112L27.9694 37.9706ZM53.769 23.0747L27.9681 37.9713L28.5681 39.0105L54.369 24.114L53.769 23.0747ZM98.0193 79.8379C97.671 80.441 96.8984 80.6481 96.2953 80.2999L95.6953 81.3391C96.8724 82.0187 98.3789 81.615 99.0585 80.438L98.0193 79.8379ZM97.5574 78.1139C98.1605 78.4622 98.3675 79.2349 98.0193 79.8379L99.0585 80.438C99.7382 79.2609 99.3344 77.7543 98.1574 77.0747L97.5574 78.1139ZM95.8334 78.5759C96.1817 77.9727 96.9543 77.7657 97.5574 78.1139L98.1574 77.0747C96.9803 76.3951 95.4738 76.7988 94.7942 77.9758L95.8334 78.5759ZM96.2953 80.2999C95.6922 79.9516 95.4852 79.1789 95.8334 78.5759L94.7942 77.9758C94.1145 79.1529 94.5183 80.6594 95.6953 81.3391L96.2953 80.2999ZM11.9807 79.8379C11.6325 79.2348 11.8395 78.4622 12.4426 78.1139L11.8426 77.0747C10.6656 77.7543 10.2619 79.2609 10.9415 80.438L11.9807 79.8379ZM13.7047 80.2999C13.1016 80.6481 12.329 80.441 11.9807 79.8379L10.9415 80.438C11.6211 81.615 13.1276 82.0187 14.3047 81.3391L13.7047 80.2999ZM14.1666 78.5759C14.5148 79.1789 14.3078 79.9516 13.7047 80.2999L14.3047 81.3391C15.4817 80.6594 15.8855 79.1529 15.2058 77.9758L14.1666 78.5759ZM12.4426 78.1139C13.0457 77.7657 13.8183 77.9727 14.1666 78.5759L15.2058 77.9758C14.5262 76.7988 13.0197 76.3951 11.8426 77.0747L12.4426 78.1139ZM38.8414 62.4483V55.4394H37.6414V62.4483H38.8414ZM36.3793 64.9103C37.7385 64.9103 38.8414 63.8075 38.8414 62.4483H37.6414C37.6414 63.1448 37.0758 63.7103 36.3793 63.7103V64.9103ZM33.9172 62.4483C33.9172 63.8075 35.0201 64.9103 36.3793 64.9103V63.7103C35.6828 63.7103 35.1172 63.1448 35.1172 62.4483H33.9172ZM33.9172 47.5517V62.4483H35.1172V47.5517H33.9172ZM35.8116 45.1545C34.7008 45.4199 33.9172 46.4091 33.9172 47.5517H35.1172C35.1172 46.9663 35.518 46.4584 36.0905 46.3216L35.8116 45.1545ZM38.5812 46.4502C38.0728 45.4286 36.925 44.8934 35.814 45.1539L36.088 46.3222C36.6604 46.188 37.248 46.4647 37.5068 46.9848L38.5812 46.4502ZM42.5022 54.2922L38.5807 46.4492L37.5073 46.9858L41.4289 54.8289L42.5022 54.2922ZM41.3655 47.5517V54.5606H42.5655V47.5517H41.3655ZM43.8276 45.0897C42.4684 45.0897 41.3655 46.1925 41.3655 47.5517H42.5655C42.5655 46.8552 43.1311 46.2897 43.8276 46.2897V45.0897ZM46.2897 47.5517C46.2897 46.1925 45.1868 45.0897 43.8276 45.0897V46.2897C44.5241 46.2897 45.0897 46.8552 45.0897 47.5517H46.2897ZM46.2897 62.4483V47.5517H45.0897V62.4483H46.2897ZM44.3953 64.8455C45.5061 64.5801 46.2897 63.5909 46.2897 62.4483H45.0897C45.0897 63.0337 44.6889 63.5416 44.1164 63.6784L44.3953 64.8455ZM41.6257 63.5498C42.1341 64.5715 43.2819 65.1066 44.3929 64.8461L44.1189 63.6778C43.5465 63.812 42.9589 63.5353 42.7001 63.0152L41.6257 63.5498ZM37.7047 55.7078L41.6262 63.5508L42.6996 63.0142L38.778 55.1711L37.7047 55.7078ZM67.4345 49.4138V62.4483H68.6345V49.4138H67.4345ZM66.1724 50.0138H68.0345V48.8138H66.1724V50.0138ZM63.7103 47.5517C63.7103 48.911 64.8132 50.0138 66.1724 50.0138V48.8138C65.4759 48.8138 64.9103 48.2482 64.9103 47.5517H63.7103ZM66.1724 45.0897C64.8132 45.0897 63.7103 46.1925 63.7103 47.5517H64.9103C64.9103 46.8552 65.4759 46.2897 66.1724 46.2897V45.0897ZM73.6207 45.0897H66.1724V46.2897H73.6207V45.0897ZM76.0828 47.5517C76.0828 46.1925 74.9799 45.0897 73.6207 45.0897V46.2897C74.3172 46.2897 74.8828 46.8552 74.8828 47.5517H76.0828ZM73.6207 50.0138C74.9799 50.0138 76.0828 48.911 76.0828 47.5517H74.8828C74.8828 48.2482 74.3172 48.8138 73.6207 48.8138V50.0138ZM71.7586 50.0138H73.6207V48.8138H71.7586V50.0138ZM72.3586 62.4483V49.4138H71.1586V62.4483H72.3586ZM69.8966 64.9103C71.2558 64.9103 72.3586 63.8075 72.3586 62.4483H71.1586C71.1586 63.1448 70.593 63.7103 69.8966 63.7103V64.9103ZM67.4345 62.4483C67.4345 63.8075 68.5373 64.9103 69.8966 64.9103V63.7103C69.2001 63.7103 68.6345 63.1448 68.6345 62.4483H67.4345ZM53.1379 57.4621H55V56.2621H53.1379V57.4621ZM53.7379 62.4483V56.8621H52.5379V62.4483H53.7379ZM51.2759 64.9103C52.6351 64.9103 53.7379 63.8075 53.7379 62.4483H52.5379C52.5379 63.1448 51.9724 63.7103 51.2759 63.7103V64.9103ZM48.8138 62.4483C48.8138 63.8075 49.9166 64.9103 51.2759 64.9103V63.7103C50.5794 63.7103 50.0138 63.1448 50.0138 62.4483H48.8138ZM48.8138 47.5517V62.4483H50.0138V47.5517H48.8138ZM51.2759 45.0897C49.9166 45.0897 48.8138 46.1925 48.8138 47.5517H50.0138C50.0138 46.8552 50.5794 46.2897 51.2759 46.2897V45.0897ZM58.7241 45.0897H51.2759V46.2897H58.7241V45.0897ZM61.1862 47.5517C61.1862 46.1925 60.0834 45.0897 58.7241 45.0897V46.2897C59.4206 46.2897 59.9862 46.8552 59.9862 47.5517H61.1862ZM58.7241 50.0138C60.0834 50.0138 61.1862 48.911 61.1862 47.5517H59.9862C59.9862 48.2482 59.4206 48.8138 58.7241 48.8138V50.0138ZM53.1379 50.0138H58.7241V48.8138H53.1379V50.0138ZM53.7379 53.1379V49.4138H52.5379V53.1379H53.7379ZM55 52.5379H53.1379V53.7379H55V52.5379ZM57.4621 55C57.4621 53.6408 56.3592 52.5379 55 52.5379V53.7379C55.6965 53.7379 56.2621 54.3035 56.2621 55H57.4621ZM55 57.4621C56.3592 57.4621 57.4621 56.3592 57.4621 55H56.2621C56.2621 55.6965 55.6965 56.2621 55 56.2621V57.4621ZM6.58621 53.7379C7.2827 53.7379 7.84828 54.3035 7.84828 55H9.04828C9.04828 53.6408 7.94544 52.5379 6.58621 52.5379V53.7379ZM5.32414 55C5.32414 54.3035 5.88972 53.7379 6.58621 53.7379V52.5379C5.22697 52.5379 4.12414 53.6408 4.12414 55H5.32414ZM6.58621 56.2621C5.88972 56.2621 5.32414 55.6965 5.32414 55H4.12414C4.12414 56.3592 5.22697 57.4621 6.58621 57.4621V56.2621ZM7.84828 55C7.84828 55.6965 7.2827 56.2621 6.58621 56.2621V57.4621C7.94544 57.4621 9.04828 56.3592 9.04828 55H7.84828ZM103.414 53.7379C104.11 53.7379 104.676 54.3035 104.676 55H105.876C105.876 53.6408 104.773 52.5379 103.414 52.5379V53.7379ZM102.152 55C102.152 54.3035 102.717 53.7379 103.414 53.7379V52.5379C102.055 52.5379 100.952 53.6408 100.952 55H102.152ZM103.414 56.2621C102.717 56.2621 102.152 55.6965 102.152 55H100.952C100.952 56.3592 102.055 57.4621 103.414 57.4621V56.2621ZM104.676 55C104.676 55.6965 104.11 56.2621 103.414 56.2621V57.4621C104.773 57.4621 105.876 56.3592 105.876 55H104.676ZM11.9807 30.1621C12.329 29.559 13.1016 29.3519 13.7047 29.7002L14.3047 28.661C13.1276 27.9813 11.6211 28.385 10.9415 29.562L11.9807 30.1621ZM12.4426 31.8861C11.8395 31.5378 11.6325 30.7652 11.9807 30.1621L10.9415 29.562C10.2619 30.7391 10.6656 32.2457 11.8426 32.9253L12.4426 31.8861ZM14.1666 31.4241C13.8183 32.0273 13.0457 32.2343 12.4426 31.8861L11.8426 32.9253C13.0197 33.6049 14.5262 33.2012 15.2058 32.0242L14.1666 31.4241ZM13.7047 29.7002C14.3078 30.0484 14.5148 30.8211 14.1666 31.4241L15.2058 32.0242C15.8855 30.8471 15.4817 29.3406 14.3047 28.661L13.7047 29.7002ZM98.0193 30.1621C98.3675 30.7652 98.1605 31.5378 97.5574 31.8861L98.1574 32.9253C99.3344 32.2457 99.7382 30.7391 99.0585 29.562L98.0193 30.1621ZM96.2953 29.7002C96.8984 29.3519 97.671 29.559 98.0193 30.1621L99.0585 29.562C98.3789 28.385 96.8724 27.9813 95.6953 28.661L96.2953 29.7002ZM95.8334 31.4241C95.4852 30.8211 95.6922 30.0484 96.2953 29.7002L95.6953 28.661C94.5183 29.3406 94.1145 30.8471 94.7942 32.0242L95.8334 31.4241ZM97.5574 31.8861C96.9543 32.2343 96.1817 32.0273 95.8334 31.4241L94.7942 32.0242C95.4738 33.2012 96.9803 33.6049 98.1574 32.9253L97.5574 31.8861ZM31.8861 12.4426C32.2343 13.0457 32.0273 13.8183 31.4241 14.1666L32.0242 15.2058C33.2012 14.5262 33.6049 13.0197 32.9253 11.8426L31.8861 12.4426ZM30.1621 11.9807C30.7652 11.6325 31.5378 11.8395 31.8861 12.4426L32.9253 11.8426C32.2457 10.6656 30.7391 10.2619 29.562 10.9415L30.1621 11.9807ZM29.7002 13.7047C29.3519 13.1016 29.559 12.329 30.1621 11.9807L29.562 10.9415C28.385 11.6211 27.9813 13.1276 28.661 14.3047L29.7002 13.7047ZM31.4241 14.1666C30.8211 14.5148 30.0484 14.3078 29.7002 13.7047L28.661 14.3047C29.3406 15.4817 30.8471 15.8855 32.0242 15.2058L31.4241 14.1666ZM78.1139 12.4426C78.4622 11.8395 79.2348 11.6325 79.8379 11.9807L80.438 10.9415C79.2609 10.2619 77.7543 10.6656 77.0747 11.8426L78.1139 12.4426ZM78.5759 14.1666C77.9727 13.8183 77.7657 13.0457 78.1139 12.4426L77.0747 11.8426C76.3951 13.0197 76.7988 14.5262 77.9758 15.2058L78.5759 14.1666ZM80.2999 13.7047C79.9516 14.3078 79.1789 14.5148 78.5759 14.1666L77.9758 15.2058C79.1529 15.8855 80.6594 15.4817 81.3391 14.3047L80.2999 13.7047ZM79.8379 11.9807C80.441 12.329 80.6481 13.1016 80.2999 13.7047L81.3391 14.3047C82.0187 13.1276 81.615 11.6211 80.438 10.9415L79.8379 11.9807ZM55 5.32414C55.6965 5.32414 56.2621 5.88972 56.2621 6.58621H57.4621C57.4621 5.22697 56.3592 4.12414 55 4.12414V5.32414ZM53.7379 6.58621C53.7379 5.88972 54.3035 5.32414 55 5.32414V4.12414C53.6408 4.12414 52.5379 5.22697 52.5379 6.58621H53.7379ZM55 7.84828C54.3035 7.84828 53.7379 7.2827 53.7379 6.58621H52.5379C52.5379 7.94544 53.6408 9.04828 55 9.04828V7.84828ZM56.2621 6.58621C56.2621 7.2827 55.6965 7.84828 55 7.84828V9.04828C56.3592 9.04828 57.4621 7.94544 57.4621 6.58621H56.2621ZM54.7958 21.1987L26.2371 38.0925L26.8481 39.1254L55.4068 22.2315L54.7958 21.1987ZM84.1649 38.0916L55.4052 21.1977L54.7974 22.2324L83.5572 39.1263L84.1649 38.0916ZM84.4611 71.5922V38.6089H83.2611V71.5922H84.4611ZM55.3997 88.6043L84.1595 72.1127L83.5626 71.0717L54.8028 87.5633L55.3997 88.6043ZM26.2426 72.1118L54.8012 88.6034L55.4013 87.5642L26.8427 71.0726L26.2426 72.1118ZM25.9426 38.6089V71.5922H27.1426V38.6089H25.9426Z" fill="#6E73FF"/>
<path fill-rule="evenodd" clip-rule="evenodd" d="M38.2417 62.4482V55.4394L42.1632 63.2824C42.5468 64.0533 43.4145 64.4592 44.2562 64.2619C45.0979 64.0608 45.69 63.3122 45.69 62.4482V47.5517C45.69 46.5238 44.8558 45.6896 43.8279 45.6896C42.8001 45.6896 41.9659 46.5238 41.9659 47.5517V54.5605L38.0443 46.7175C37.6607 45.9466 36.793 45.5406 35.9514 45.738C35.1097 45.9391 34.5176 46.6877 34.5176 47.5517V62.4482C34.5176 63.4761 35.3518 64.3103 36.3796 64.3103C37.4075 64.3103 38.2417 63.4761 38.2417 62.4482ZM68.0348 49.4137V62.4482C68.0348 63.4761 68.869 64.3103 69.8969 64.3103C70.9248 64.3103 71.759 63.4761 71.759 62.4482V49.4137H73.621C74.6489 49.4137 75.4831 48.5795 75.4831 47.5517C75.4831 46.5238 74.6489 45.6896 73.621 45.6896H66.1728C65.1449 45.6896 64.3107 46.5238 64.3107 47.5517C64.3107 48.5795 65.1449 49.4137 66.1728 49.4137H68.0348ZM53.1383 56.862H55.0003C56.0282 56.862 56.8624 56.0278 56.8624 54.9999C56.8624 53.9721 56.0282 53.1379 55.0003 53.1379H53.1383V49.4137H58.7245C59.7523 49.4137 60.5865 48.5795 60.5865 47.5517C60.5865 46.5238 59.7523 45.6896 58.7245 45.6896H51.2762C50.2483 45.6896 49.4141 46.5238 49.4141 47.5517V62.4482C49.4141 63.4761 50.2483 64.3103 51.2762 64.3103C52.3041 64.3103 53.1383 63.4761 53.1383 62.4482V56.862Z" fill="#222222"/>
<path d="M38.2417 55.4394L38.9125 55.104L37.4917 55.4394H38.2417ZM42.1632 63.2824L42.8347 62.9483L42.8341 62.947L42.1632 63.2824ZM44.2562 64.2619L44.4274 64.9921L44.4305 64.9913L44.2562 64.2619ZM41.9659 54.5605L41.295 54.8959L42.7159 54.5605H41.9659ZM38.0443 46.7175L37.3729 47.0516L37.3735 47.0529L38.0443 46.7175ZM35.9514 45.738L35.7801 45.0078L35.7771 45.0085L35.9514 45.738ZM68.0348 49.4137H68.7848V48.6637H68.0348V49.4137ZM71.759 49.4137V48.6637H71.009V49.4137H71.759ZM53.1383 56.862V56.112H52.3883V56.862H53.1383ZM53.1383 53.1379H52.3883V53.8879H53.1383V53.1379ZM53.1383 49.4137V48.6637H52.3883V49.4137H53.1383ZM37.4917 55.4394V62.4482H38.9917V55.4394H37.4917ZM42.8341 62.947L38.9125 55.104L37.5709 55.7748L41.4924 63.6178L42.8341 62.947ZM44.085 63.5317C43.58 63.6501 43.0623 63.4057 42.8347 62.9483L41.4918 63.6165C42.0313 64.7009 43.2491 65.2684 44.4274 64.9921L44.085 63.5317ZM44.94 62.4482C44.94 62.964 44.5871 63.4117 44.0819 63.5324L44.4305 64.9913C45.6086 64.7098 46.44 63.6605 46.44 62.4482H44.94ZM44.94 47.5517V62.4482H46.44V47.5517H44.94ZM43.8279 46.4396C44.4416 46.4396 44.94 46.938 44.94 47.5517H46.44C46.44 46.1096 45.27 44.9396 43.8279 44.9396V46.4396ZM42.7159 47.5517C42.7159 46.938 43.2143 46.4396 43.8279 46.4396V44.9396C42.3858 44.9396 41.2159 46.1096 41.2159 47.5517H42.7159ZM42.7159 54.5605V47.5517H41.2159V54.5605H42.7159ZM37.3735 47.0529L41.295 54.8959L42.6367 54.2251L38.7152 46.382L37.3735 47.0529ZM36.1226 46.4682C36.6276 46.3498 37.1453 46.5941 37.3729 47.0516L38.7158 46.3833C38.1762 45.299 36.9584 44.7315 35.7801 45.0078L36.1226 46.4682ZM35.2676 47.5517C35.2676 47.0359 35.6205 46.5882 36.1257 46.4675L35.7771 45.0085C34.599 45.29 33.7676 46.3394 33.7676 47.5517H35.2676ZM35.2676 62.4482V47.5517H33.7676V62.4482H35.2676ZM36.3796 63.5603C35.766 63.5603 35.2676 63.0619 35.2676 62.4482H33.7676C33.7676 63.8903 34.9376 65.0603 36.3796 65.0603V63.5603ZM37.4917 62.4482C37.4917 63.0619 36.9933 63.5603 36.3796 63.5603V65.0603C37.8217 65.0603 38.9917 63.8903 38.9917 62.4482H37.4917ZM68.7848 62.4482V49.4137H67.2848V62.4482H68.7848ZM69.8969 63.5603C69.2832 63.5603 68.7848 63.0619 68.7848 62.4482H67.2848C67.2848 63.8903 68.4548 65.0603 69.8969 65.0603V63.5603ZM71.009 62.4482C71.009 63.0619 70.5105 63.5603 69.8969 63.5603V65.0603C71.339 65.0603 72.509 63.8903 72.509 62.4482H71.009ZM71.009 49.4137V62.4482H72.509V49.4137H71.009ZM73.621 48.6637H71.759V50.1637H73.621V48.6637ZM74.7331 47.5517C74.7331 48.1653 74.2347 48.6637 73.621 48.6637V50.1637C75.0631 50.1637 76.2331 48.9937 76.2331 47.5517H74.7331ZM73.621 46.4396C74.2347 46.4396 74.7331 46.938 74.7331 47.5517H76.2331C76.2331 46.1096 75.0631 44.9396 73.621 44.9396V46.4396ZM66.1728 46.4396H73.621V44.9396H66.1728V46.4396ZM65.0607 47.5517C65.0607 46.938 65.5591 46.4396 66.1728 46.4396V44.9396C64.7307 44.9396 63.5607 46.1096 63.5607 47.5517H65.0607ZM66.1728 48.6637C65.5591 48.6637 65.0607 48.1653 65.0607 47.5517H63.5607C63.5607 48.9937 64.7307 50.1637 66.1728 50.1637V48.6637ZM68.0348 48.6637H66.1728V50.1637H68.0348V48.6637ZM55.0003 56.112H53.1383V57.612H55.0003V56.112ZM56.1124 54.9999C56.1124 55.6136 55.614 56.112 55.0003 56.112V57.612C56.4424 57.612 57.6124 56.442 57.6124 54.9999H56.1124ZM55.0003 53.8879C55.614 53.8879 56.1124 54.3863 56.1124 54.9999H57.6124C57.6124 53.5579 56.4424 52.3879 55.0003 52.3879V53.8879ZM53.1383 53.8879H55.0003V52.3879H53.1383V53.8879ZM52.3883 49.4137V53.1379H53.8883V49.4137H52.3883ZM58.7245 48.6637H53.1383V50.1637H58.7245V48.6637ZM59.8365 47.5517C59.8365 48.1653 59.3381 48.6637 58.7245 48.6637V50.1637C60.1666 50.1637 61.3365 48.9937 61.3365 47.5517H59.8365ZM58.7245 46.4396C59.3381 46.4396 59.8365 46.938 59.8365 47.5517H61.3365C61.3365 46.1096 60.1666 44.9396 58.7245 44.9396V46.4396ZM51.2762 46.4396H58.7245V44.9396H51.2762V46.4396ZM50.1641 47.5517C50.1641 46.938 50.6626 46.4396 51.2762 46.4396V44.9396C49.8341 44.9396 48.6641 46.1096 48.6641 47.5517H50.1641ZM50.1641 62.4482V47.5517H48.6641V62.4482H50.1641ZM51.2762 63.5603C50.6625 63.5603 50.1641 63.0619 50.1641 62.4482H48.6641C48.6641 63.8903 49.8341 65.0603 51.2762 65.0603V63.5603ZM52.3883 62.4482C52.3883 63.0619 51.8898 63.5603 51.2762 63.5603V65.0603C52.7183 65.0603 53.8883 63.8903 53.8883 62.4482H52.3883ZM52.3883 56.862V62.4482H53.8883V56.862H52.3883Z" fill="#222222"/>
</svg>
