<svg width="103" height="103" viewBox="0 0 103 103" fill="none" xmlns="http://www.w3.org/2000/svg">
<path d="M32.5534 33.8358H41.1966C43.8486 33.8358 45.9984 35.8519 45.9984 38.339C45.9984 40.826 43.8486 42.8422 41.1966 42.8422L32.5527 42.8416V25.7295L39.7561 25.73C42.1429 25.73 44.0777 27.5446 44.0777 29.7829C44.0777 32.0213 42.1429 33.8358 39.7561 33.8358" stroke="#222222" stroke-width="4" stroke-linecap="round" stroke-linejoin="round"/>
<path d="M34.9375 23.2849V25.7296" stroke="#222222" stroke-width="4" stroke-linecap="round" stroke-linejoin="round"/>
<path d="M39.8242 23.2849V25.7296" stroke="#222222" stroke-width="4" stroke-linecap="round" stroke-linejoin="round"/>
<path d="M34.9375 42.8422V45.2868" stroke="#222222" stroke-width="4" stroke-linecap="round" stroke-linejoin="round"/>
<path d="M39.8242 42.8422V45.2868" stroke="#222222" stroke-width="4" stroke-linecap="round" stroke-linejoin="round"/>
<path d="M32.4924 25.7295H28.8867" stroke="#222222" stroke-width="4" stroke-linecap="round" stroke-linejoin="round"/>
<path d="M32.4924 42.8422H28.8867" stroke="#222222" stroke-width="4" stroke-linecap="round" stroke-linejoin="round"/>
<mask id="path-8-outside-1_1060_3220" maskUnits="userSpaceOnUse" x="0" y="0" width="103" height="103" fill="black">
<rect fill="white" width="103" height="103"/>
<path d="M96.2097 59.4839H85.0323V9.98387C85.0297 7.8672 84.1878 5.83794 82.691 4.34122C81.1943 2.8445 79.1651 2.00254 77.0484 2H9.98387C7.8672 2.00254 5.83794 2.8445 4.34122 4.34122C2.8445 5.83794 2.00254 7.8672 2 9.98387V78.6452C2.00535 80.5518 2.69364 82.3933 3.9401 83.836C5.18655 85.2788 6.90867 86.2271 8.79427 86.5093L10.0717 90.3272C10.1773 90.6442 10.3797 90.9202 10.6504 91.1161C10.9211 91.312 11.2465 91.4181 11.5806 91.4194H17.9677C18.3027 91.4191 18.6292 91.3135 18.9008 91.1175C19.1725 90.9215 19.3756 90.645 19.4815 90.3272L20.7142 86.629H41.5681C40.7707 87.5019 40.3267 88.6403 40.3226 89.8226V96.2097C40.3226 97.4801 40.8273 98.6986 41.7256 99.5969C42.624 100.495 43.8424 101 45.1129 101H96.2097C97.4801 101 98.6986 100.495 99.5969 99.5969C100.495 98.6986 101 97.4801 101 96.2097V89.8226C100.996 88.6403 100.552 87.5019 99.7545 86.629C100.552 85.7561 100.996 84.6177 101 83.4355V77.0484C100.996 75.8661 100.552 74.7277 99.7545 73.8548C100.552 72.9819 100.996 71.8435 101 70.6613V64.2742C101 63.0037 100.495 61.7853 99.5969 60.8869C98.6986 59.9886 97.4801 59.4839 96.2097 59.4839ZM97.8064 64.2742V70.6613C97.8064 71.0848 97.6382 71.4909 97.3388 71.7904C97.0393 72.0898 96.6332 72.2581 96.2097 72.2581H45.1129C44.6894 72.2581 44.2833 72.0898 43.9838 71.7904C43.6844 71.4909 43.5161 71.0848 43.5161 70.6613V64.2742C43.5161 63.8507 43.6844 63.4446 43.9838 63.1451C44.2833 62.8456 44.6894 62.6774 45.1129 62.6774H96.2097C96.6332 62.6774 97.0393 62.8456 97.3388 63.1451C97.6382 63.4446 97.8064 63.8507 97.8064 64.2742ZM97.8064 77.0484V83.4355C97.8064 83.859 97.6382 84.2651 97.3388 84.5646C97.0393 84.864 96.6332 85.0323 96.2097 85.0323H45.1129C44.6894 85.0323 44.2833 84.864 43.9838 84.5646C43.6844 84.2651 43.5161 83.859 43.5161 83.4355V77.0484C43.5161 76.6249 43.6844 76.2188 43.9838 75.9193C44.2833 75.6198 44.6894 75.4516 45.1129 75.4516H96.2097C96.6332 75.4516 97.0393 75.6198 97.3388 75.9193C97.6382 76.2188 97.8064 76.6249 97.8064 77.0484ZM11.5806 21.1613H17.9677V24.3548H11.5806V21.1613ZM11.5806 64.2742H17.9677V67.4677H11.5806V64.2742ZM11.5806 70.6613H17.9677C18.8147 70.6613 19.627 70.3248 20.2259 69.7259C20.8248 69.127 21.1613 68.3147 21.1613 67.4677V64.2742C21.1613 63.4272 20.8248 62.6149 20.2259 62.016C19.627 61.4171 18.8147 61.0806 17.9677 61.0806H11.5806V27.5484H17.9677C18.8147 27.5484 19.627 27.2119 20.2259 26.613C20.8248 26.0141 21.1613 25.2018 21.1613 24.3548V21.1613C21.1613 20.3143 20.8248 19.502 20.2259 18.9031C19.627 18.3042 18.8147 17.9677 17.9677 17.9677H11.5806V13.1774C11.5806 12.7539 11.7489 12.3478 12.0483 12.0483C12.3478 11.7489 12.7539 11.5806 13.1774 11.5806H73.8548C74.2783 11.5806 74.6845 11.7489 74.9839 12.0483C75.2834 12.3478 75.4516 12.7539 75.4516 13.1774V59.4839H45.1129C43.8424 59.4839 42.624 59.9886 41.7256 60.8869C40.8273 61.7853 40.3226 63.0037 40.3226 64.2742V70.6613C40.3267 71.8435 40.7707 72.9819 41.5681 73.8548C40.7707 74.7277 40.3267 75.8661 40.3226 77.0484H13.1774C12.7539 77.0484 12.3478 76.8802 12.0483 76.5807C11.7489 76.2812 11.5806 75.8751 11.5806 75.4516V70.6613ZM16.8165 88.2258H12.7319L12.1986 86.629H17.3498L16.8165 88.2258ZM9.98387 83.4355C8.7134 83.4355 7.49496 82.9308 6.5966 82.0324C5.69824 81.1341 5.19355 79.9156 5.19355 78.6452V9.98387C5.19355 8.7134 5.69824 7.49496 6.5966 6.5966C7.49496 5.69824 8.7134 5.19355 9.98387 5.19355H77.0484C78.3189 5.19355 79.5373 5.69824 80.4357 6.5966C81.334 7.49496 81.8387 8.7134 81.8387 9.98387V59.4839H78.6452V13.1774C78.6452 11.9069 78.1405 10.6885 77.2421 9.79015C76.3437 8.89179 75.1253 8.3871 73.8548 8.3871H13.1774C11.9069 8.3871 10.6885 8.89179 9.79015 9.79015C8.89179 10.6885 8.3871 11.9069 8.3871 13.1774V75.4516C8.3871 76.7221 8.89179 77.9405 9.79015 78.8389C10.6885 79.7372 11.9069 80.2419 13.1774 80.2419H40.3226V83.4355H9.98387ZM97.8064 96.2097C97.8064 96.6332 97.6382 97.0393 97.3388 97.3388C97.0393 97.6382 96.6332 97.8064 96.2097 97.8064H45.1129C44.6894 97.8064 44.2833 97.6382 43.9838 97.3388C43.6844 97.0393 43.5161 96.6332 43.5161 96.2097V89.8226C43.5161 89.3991 43.6844 88.9929 43.9838 88.6935C44.2833 88.394 44.6894 88.2258 45.1129 88.2258H96.2097C96.6332 88.2258 97.0393 88.394 97.3388 88.6935C97.6382 88.9929 97.8064 89.3991 97.8064 89.8226V96.2097Z"/>
</mask>
<path d="M96.2097 59.4839H85.0323V9.98387C85.0297 7.8672 84.1878 5.83794 82.691 4.34122C81.1943 2.8445 79.1651 2.00254 77.0484 2H9.98387C7.8672 2.00254 5.83794 2.8445 4.34122 4.34122C2.8445 5.83794 2.00254 7.8672 2 9.98387V78.6452C2.00535 80.5518 2.69364 82.3933 3.9401 83.836C5.18655 85.2788 6.90867 86.2271 8.79427 86.5093L10.0717 90.3272C10.1773 90.6442 10.3797 90.9202 10.6504 91.1161C10.9211 91.312 11.2465 91.4181 11.5806 91.4194H17.9677C18.3027 91.4191 18.6292 91.3135 18.9008 91.1175C19.1725 90.9215 19.3756 90.645 19.4815 90.3272L20.7142 86.629H41.5681C40.7707 87.5019 40.3267 88.6403 40.3226 89.8226V96.2097C40.3226 97.4801 40.8273 98.6986 41.7256 99.5969C42.624 100.495 43.8424 101 45.1129 101H96.2097C97.4801 101 98.6986 100.495 99.5969 99.5969C100.495 98.6986 101 97.4801 101 96.2097V89.8226C100.996 88.6403 100.552 87.5019 99.7545 86.629C100.552 85.7561 100.996 84.6177 101 83.4355V77.0484C100.996 75.8661 100.552 74.7277 99.7545 73.8548C100.552 72.9819 100.996 71.8435 101 70.6613V64.2742C101 63.0037 100.495 61.7853 99.5969 60.8869C98.6986 59.9886 97.4801 59.4839 96.2097 59.4839ZM97.8064 64.2742V70.6613C97.8064 71.0848 97.6382 71.4909 97.3388 71.7904C97.0393 72.0898 96.6332 72.2581 96.2097 72.2581H45.1129C44.6894 72.2581 44.2833 72.0898 43.9838 71.7904C43.6844 71.4909 43.5161 71.0848 43.5161 70.6613V64.2742C43.5161 63.8507 43.6844 63.4446 43.9838 63.1451C44.2833 62.8456 44.6894 62.6774 45.1129 62.6774H96.2097C96.6332 62.6774 97.0393 62.8456 97.3388 63.1451C97.6382 63.4446 97.8064 63.8507 97.8064 64.2742ZM97.8064 77.0484V83.4355C97.8064 83.859 97.6382 84.2651 97.3388 84.5646C97.0393 84.864 96.6332 85.0323 96.2097 85.0323H45.1129C44.6894 85.0323 44.2833 84.864 43.9838 84.5646C43.6844 84.2651 43.5161 83.859 43.5161 83.4355V77.0484C43.5161 76.6249 43.6844 76.2188 43.9838 75.9193C44.2833 75.6198 44.6894 75.4516 45.1129 75.4516H96.2097C96.6332 75.4516 97.0393 75.6198 97.3388 75.9193C97.6382 76.2188 97.8064 76.6249 97.8064 77.0484ZM11.5806 21.1613H17.9677V24.3548H11.5806V21.1613ZM11.5806 64.2742H17.9677V67.4677H11.5806V64.2742ZM11.5806 70.6613H17.9677C18.8147 70.6613 19.627 70.3248 20.2259 69.7259C20.8248 69.127 21.1613 68.3147 21.1613 67.4677V64.2742C21.1613 63.4272 20.8248 62.6149 20.2259 62.016C19.627 61.4171 18.8147 61.0806 17.9677 61.0806H11.5806V27.5484H17.9677C18.8147 27.5484 19.627 27.2119 20.2259 26.613C20.8248 26.0141 21.1613 25.2018 21.1613 24.3548V21.1613C21.1613 20.3143 20.8248 19.502 20.2259 18.9031C19.627 18.3042 18.8147 17.9677 17.9677 17.9677H11.5806V13.1774C11.5806 12.7539 11.7489 12.3478 12.0483 12.0483C12.3478 11.7489 12.7539 11.5806 13.1774 11.5806H73.8548C74.2783 11.5806 74.6845 11.7489 74.9839 12.0483C75.2834 12.3478 75.4516 12.7539 75.4516 13.1774V59.4839H45.1129C43.8424 59.4839 42.624 59.9886 41.7256 60.8869C40.8273 61.7853 40.3226 63.0037 40.3226 64.2742V70.6613C40.3267 71.8435 40.7707 72.9819 41.5681 73.8548C40.7707 74.7277 40.3267 75.8661 40.3226 77.0484H13.1774C12.7539 77.0484 12.3478 76.8802 12.0483 76.5807C11.7489 76.2812 11.5806 75.8751 11.5806 75.4516V70.6613ZM16.8165 88.2258H12.7319L12.1986 86.629H17.3498L16.8165 88.2258ZM9.98387 83.4355C8.7134 83.4355 7.49496 82.9308 6.5966 82.0324C5.69824 81.1341 5.19355 79.9156 5.19355 78.6452V9.98387C5.19355 8.7134 5.69824 7.49496 6.5966 6.5966C7.49496 5.69824 8.7134 5.19355 9.98387 5.19355H77.0484C78.3189 5.19355 79.5373 5.69824 80.4357 6.5966C81.334 7.49496 81.8387 8.7134 81.8387 9.98387V59.4839H78.6452V13.1774C78.6452 11.9069 78.1405 10.6885 77.2421 9.79015C76.3437 8.89179 75.1253 8.3871 73.8548 8.3871H13.1774C11.9069 8.3871 10.6885 8.89179 9.79015 9.79015C8.89179 10.6885 8.3871 11.9069 8.3871 13.1774V75.4516C8.3871 76.7221 8.89179 77.9405 9.79015 78.8389C10.6885 79.7372 11.9069 80.2419 13.1774 80.2419H40.3226V83.4355H9.98387ZM97.8064 96.2097C97.8064 96.6332 97.6382 97.0393 97.3388 97.3388C97.0393 97.6382 96.6332 97.8064 96.2097 97.8064H45.1129C44.6894 97.8064 44.2833 97.6382 43.9838 97.3388C43.6844 97.0393 43.5161 96.6332 43.5161 96.2097V89.8226C43.5161 89.3991 43.6844 88.9929 43.9838 88.6935C44.2833 88.394 44.6894 88.2258 45.1129 88.2258H96.2097C96.6332 88.2258 97.0393 88.394 97.3388 88.6935C97.6382 88.9929 97.8064 89.3991 97.8064 89.8226V96.2097Z" fill="#F9983E"/>
<path d="M96.2097 59.4839H85.0323V9.98387C85.0297 7.8672 84.1878 5.83794 82.691 4.34122C81.1943 2.8445 79.1651 2.00254 77.0484 2H9.98387C7.8672 2.00254 5.83794 2.8445 4.34122 4.34122C2.8445 5.83794 2.00254 7.8672 2 9.98387V78.6452C2.00535 80.5518 2.69364 82.3933 3.9401 83.836C5.18655 85.2788 6.90867 86.2271 8.79427 86.5093L10.0717 90.3272C10.1773 90.6442 10.3797 90.9202 10.6504 91.1161C10.9211 91.312 11.2465 91.4181 11.5806 91.4194H17.9677C18.3027 91.4191 18.6292 91.3135 18.9008 91.1175C19.1725 90.9215 19.3756 90.645 19.4815 90.3272L20.7142 86.629H41.5681C40.7707 87.5019 40.3267 88.6403 40.3226 89.8226V96.2097C40.3226 97.4801 40.8273 98.6986 41.7256 99.5969C42.624 100.495 43.8424 101 45.1129 101H96.2097C97.4801 101 98.6986 100.495 99.5969 99.5969C100.495 98.6986 101 97.4801 101 96.2097V89.8226C100.996 88.6403 100.552 87.5019 99.7545 86.629C100.552 85.7561 100.996 84.6177 101 83.4355V77.0484C100.996 75.8661 100.552 74.7277 99.7545 73.8548C100.552 72.9819 100.996 71.8435 101 70.6613V64.2742C101 63.0037 100.495 61.7853 99.5969 60.8869C98.6986 59.9886 97.4801 59.4839 96.2097 59.4839ZM97.8064 64.2742V70.6613C97.8064 71.0848 97.6382 71.4909 97.3388 71.7904C97.0393 72.0898 96.6332 72.2581 96.2097 72.2581H45.1129C44.6894 72.2581 44.2833 72.0898 43.9838 71.7904C43.6844 71.4909 43.5161 71.0848 43.5161 70.6613V64.2742C43.5161 63.8507 43.6844 63.4446 43.9838 63.1451C44.2833 62.8456 44.6894 62.6774 45.1129 62.6774H96.2097C96.6332 62.6774 97.0393 62.8456 97.3388 63.1451C97.6382 63.4446 97.8064 63.8507 97.8064 64.2742ZM97.8064 77.0484V83.4355C97.8064 83.859 97.6382 84.2651 97.3388 84.5646C97.0393 84.864 96.6332 85.0323 96.2097 85.0323H45.1129C44.6894 85.0323 44.2833 84.864 43.9838 84.5646C43.6844 84.2651 43.5161 83.859 43.5161 83.4355V77.0484C43.5161 76.6249 43.6844 76.2188 43.9838 75.9193C44.2833 75.6198 44.6894 75.4516 45.1129 75.4516H96.2097C96.6332 75.4516 97.0393 75.6198 97.3388 75.9193C97.6382 76.2188 97.8064 76.6249 97.8064 77.0484ZM11.5806 21.1613H17.9677V24.3548H11.5806V21.1613ZM11.5806 64.2742H17.9677V67.4677H11.5806V64.2742ZM11.5806 70.6613H17.9677C18.8147 70.6613 19.627 70.3248 20.2259 69.7259C20.8248 69.127 21.1613 68.3147 21.1613 67.4677V64.2742C21.1613 63.4272 20.8248 62.6149 20.2259 62.016C19.627 61.4171 18.8147 61.0806 17.9677 61.0806H11.5806V27.5484H17.9677C18.8147 27.5484 19.627 27.2119 20.2259 26.613C20.8248 26.0141 21.1613 25.2018 21.1613 24.3548V21.1613C21.1613 20.3143 20.8248 19.502 20.2259 18.9031C19.627 18.3042 18.8147 17.9677 17.9677 17.9677H11.5806V13.1774C11.5806 12.7539 11.7489 12.3478 12.0483 12.0483C12.3478 11.7489 12.7539 11.5806 13.1774 11.5806H73.8548C74.2783 11.5806 74.6845 11.7489 74.9839 12.0483C75.2834 12.3478 75.4516 12.7539 75.4516 13.1774V59.4839H45.1129C43.8424 59.4839 42.624 59.9886 41.7256 60.8869C40.8273 61.7853 40.3226 63.0037 40.3226 64.2742V70.6613C40.3267 71.8435 40.7707 72.9819 41.5681 73.8548C40.7707 74.7277 40.3267 75.8661 40.3226 77.0484H13.1774C12.7539 77.0484 12.3478 76.8802 12.0483 76.5807C11.7489 76.2812 11.5806 75.8751 11.5806 75.4516V70.6613ZM16.8165 88.2258H12.7319L12.1986 86.629H17.3498L16.8165 88.2258ZM9.98387 83.4355C8.7134 83.4355 7.49496 82.9308 6.5966 82.0324C5.69824 81.1341 5.19355 79.9156 5.19355 78.6452V9.98387C5.19355 8.7134 5.69824 7.49496 6.5966 6.5966C7.49496 5.69824 8.7134 5.19355 9.98387 5.19355H77.0484C78.3189 5.19355 79.5373 5.69824 80.4357 6.5966C81.334 7.49496 81.8387 8.7134 81.8387 9.98387V59.4839H78.6452V13.1774C78.6452 11.9069 78.1405 10.6885 77.2421 9.79015C76.3437 8.89179 75.1253 8.3871 73.8548 8.3871H13.1774C11.9069 8.3871 10.6885 8.89179 9.79015 9.79015C8.89179 10.6885 8.3871 11.9069 8.3871 13.1774V75.4516C8.3871 76.7221 8.89179 77.9405 9.79015 78.8389C10.6885 79.7372 11.9069 80.2419 13.1774 80.2419H40.3226V83.4355H9.98387ZM97.8064 96.2097C97.8064 96.6332 97.6382 97.0393 97.3388 97.3388C97.0393 97.6382 96.6332 97.8064 96.2097 97.8064H45.1129C44.6894 97.8064 44.2833 97.6382 43.9838 97.3388C43.6844 97.0393 43.5161 96.6332 43.5161 96.2097V89.8226C43.5161 89.3991 43.6844 88.9929 43.9838 88.6935C44.2833 88.394 44.6894 88.2258 45.1129 88.2258H96.2097C96.6332 88.2258 97.0393 88.394 97.3388 88.6935C97.6382 88.9929 97.8064 89.3991 97.8064 89.8226V96.2097Z" stroke="#F9983E" stroke-width="2.4" mask="url(#path-8-outside-1_1060_3220)"/>
<mask id="path-9-outside-2_1060_3220" maskUnits="userSpaceOnUse" x="15.9453" y="31.9159" width="87" height="71" fill="black">
<rect fill="white" x="15.9453" y="31.9159" width="87" height="71"/>
<path d="M30.7393 91.4196V94.6132H27.252C26.8753 93.5478 26.1341 92.6498 25.1595 92.0781C24.1848 91.5063 23.0393 91.2975 21.9256 91.4886C20.8118 91.6797 19.8015 92.2583 19.0731 93.1223C18.3448 93.9863 17.9453 95.0799 17.9453 96.2099C17.9453 97.3399 18.3448 98.4336 19.0731 99.2975C19.8015 100.162 20.8118 100.74 21.9256 100.931C23.0393 101.122 24.1848 100.914 25.1595 100.342C26.1341 99.77 26.8753 98.8721 27.252 97.8067H32.3361C32.7596 97.8067 33.1658 97.6385 33.4652 97.339C33.7647 97.0396 33.9329 96.6334 33.9329 96.2099V93.0164H38.7232V89.8228H32.3361C31.9126 89.8228 31.5065 89.9911 31.207 90.2905C30.9076 90.59 30.7393 90.9961 30.7393 91.4196ZM22.7555 97.8067C22.4397 97.8067 22.1309 97.713 21.8684 97.5376C21.6058 97.3621 21.4011 97.1128 21.2803 96.821C21.1594 96.5292 21.1278 96.2082 21.1894 95.8984C21.251 95.5887 21.4031 95.3041 21.6264 95.0808C21.8497 94.8575 22.1342 94.7054 22.444 94.6438C22.7537 94.5822 23.0748 94.6138 23.3665 94.7347C23.6583 94.8556 23.9077 95.0602 24.0831 95.3228C24.2586 95.5854 24.3523 95.8941 24.3523 96.2099C24.3523 96.6334 24.184 97.0396 23.8846 97.339C23.5851 97.6385 23.179 97.8067 22.7555 97.8067ZM27.5458 68.771V72.2583C27.5458 72.6818 27.714 73.088 28.0135 73.3874C28.3129 73.6869 28.7191 73.8551 29.1426 73.8551H37.1264V70.6615H30.7393V68.771C31.8047 68.3943 32.7027 67.6531 33.2744 66.6784C33.8462 65.7037 34.055 64.5583 33.8639 63.4445C33.6728 62.3308 33.0942 61.3205 32.2302 60.5921C31.3662 59.8638 30.2726 59.4643 29.1426 59.4643C28.0126 59.4643 26.9189 59.8638 26.055 60.5921C25.191 61.3205 24.6123 62.3308 24.4212 63.4445C24.2302 64.5583 24.4389 65.7037 25.0107 66.6784C25.5825 67.6531 26.4804 68.3943 27.5458 68.771ZM29.1426 62.6777C29.4584 62.6777 29.7671 62.7713 30.0297 62.9468C30.2923 63.1222 30.4969 63.3716 30.6178 63.6634C30.7387 63.9552 30.7703 64.2762 30.7087 64.586C30.6471 64.8957 30.495 65.1802 30.2717 65.4035C30.0484 65.6268 29.7638 65.7789 29.4541 65.8405C29.1443 65.9021 28.8233 65.8705 28.5315 65.7497C28.2397 65.6288 27.9904 65.4241 27.8149 65.1616C27.6394 64.899 27.5458 64.5903 27.5458 64.2744C27.5458 63.851 27.714 63.4448 28.0135 63.1454C28.3129 62.8459 28.7191 62.6777 29.1426 62.6777ZM96.2071 33.9357C95.0784 33.9336 93.9855 34.331 93.1217 35.0575C92.258 35.784 91.6793 36.7927 91.488 37.905C91.2967 39.0174 91.5053 40.1615 92.0768 41.1347C92.6483 42.108 93.5458 42.8476 94.6103 43.2226V46.7099H89.82C89.3965 46.7099 88.9903 46.8782 88.6909 47.1776C88.3914 47.4771 88.2232 47.8832 88.2232 48.3067V56.2906H91.4168V49.9035H96.2071C96.6306 49.9035 97.0367 49.7352 97.3362 49.4358C97.6356 49.1363 97.8039 48.7302 97.8039 48.3067V43.2226C98.8684 42.8476 99.7659 42.108 100.337 41.1347C100.909 40.1615 101.117 39.0174 100.926 37.905C100.735 36.7927 100.156 35.784 99.2924 35.0575C98.4287 34.331 97.3357 33.9336 96.2071 33.9357ZM96.2071 40.3228C95.8913 40.3228 95.5826 40.2292 95.32 40.0537C95.0574 39.8783 94.8527 39.6289 94.7319 39.3371C94.611 39.0453 94.5794 38.7243 94.641 38.4145C94.7026 38.1048 94.8547 37.8203 95.078 37.597C95.3013 37.3737 95.5858 37.2216 95.8956 37.16C96.2053 37.0984 96.5264 37.13 96.8181 37.2508C97.1099 37.3717 97.3593 37.5763 97.5348 37.8389C97.7102 38.1015 97.8039 38.4102 97.8039 38.7261C97.8039 39.1495 97.6356 39.5557 97.3362 39.8551C97.0367 40.1546 96.6306 40.3228 96.2071 40.3228ZM62.6748 43.2226V48.3067C62.6748 48.7302 62.8431 49.1363 63.1425 49.4358C63.442 49.7352 63.8481 49.9035 64.2716 49.9035H69.0619V56.2906H72.2555V48.3067C72.2555 47.8832 72.0872 47.4771 71.7878 47.1776C71.4883 46.8782 71.0822 46.7099 70.6587 46.7099H65.8684V43.2226C66.9338 42.8459 67.8317 42.1047 68.4035 41.13C68.9752 40.1553 69.184 39.0099 68.9929 37.8962C68.8018 36.7824 68.2232 35.7721 67.3592 35.0437C66.4953 34.3154 65.4016 33.9159 64.2716 33.9159C63.1416 33.9159 62.048 34.3154 61.184 35.0437C60.32 35.7721 59.7414 36.7824 59.5503 37.8962C59.3592 39.0099 59.568 40.1553 60.1397 41.13C60.7115 42.1047 61.6094 42.8459 62.6748 43.2226ZM64.2716 37.1293C64.5874 37.1293 64.8961 37.2229 65.1587 37.3984C65.4213 37.5738 65.626 37.8232 65.7468 38.115C65.8677 38.4068 65.8993 38.7278 65.8377 39.0376C65.7761 39.3473 65.624 39.6318 65.4007 39.8551C65.1774 40.0785 64.8929 40.2305 64.5831 40.2922C64.2734 40.3538 63.9523 40.3221 63.6605 40.2013C63.3688 40.0804 63.1194 39.8758 62.9439 39.6132C62.7685 39.3506 62.6748 39.0419 62.6748 38.7261C62.6748 38.3026 62.8431 37.8964 63.1425 37.597C63.442 37.2975 63.8481 37.1293 64.2716 37.1293Z"/>
</mask>
<path d="M30.7393 91.4196V94.6132H27.252C26.8753 93.5478 26.1341 92.6498 25.1595 92.0781C24.1848 91.5063 23.0393 91.2975 21.9256 91.4886C20.8118 91.6797 19.8015 92.2583 19.0731 93.1223C18.3448 93.9863 17.9453 95.0799 17.9453 96.2099C17.9453 97.3399 18.3448 98.4336 19.0731 99.2975C19.8015 100.162 20.8118 100.74 21.9256 100.931C23.0393 101.122 24.1848 100.914 25.1595 100.342C26.1341 99.77 26.8753 98.8721 27.252 97.8067H32.3361C32.7596 97.8067 33.1658 97.6385 33.4652 97.339C33.7647 97.0396 33.9329 96.6334 33.9329 96.2099V93.0164H38.7232V89.8228H32.3361C31.9126 89.8228 31.5065 89.9911 31.207 90.2905C30.9076 90.59 30.7393 90.9961 30.7393 91.4196ZM22.7555 97.8067C22.4397 97.8067 22.1309 97.713 21.8684 97.5376C21.6058 97.3621 21.4011 97.1128 21.2803 96.821C21.1594 96.5292 21.1278 96.2082 21.1894 95.8984C21.251 95.5887 21.4031 95.3041 21.6264 95.0808C21.8497 94.8575 22.1342 94.7054 22.444 94.6438C22.7537 94.5822 23.0748 94.6138 23.3665 94.7347C23.6583 94.8556 23.9077 95.0602 24.0831 95.3228C24.2586 95.5854 24.3523 95.8941 24.3523 96.2099C24.3523 96.6334 24.184 97.0396 23.8846 97.339C23.5851 97.6385 23.179 97.8067 22.7555 97.8067ZM27.5458 68.771V72.2583C27.5458 72.6818 27.714 73.088 28.0135 73.3874C28.3129 73.6869 28.7191 73.8551 29.1426 73.8551H37.1264V70.6615H30.7393V68.771C31.8047 68.3943 32.7027 67.6531 33.2744 66.6784C33.8462 65.7037 34.055 64.5583 33.8639 63.4445C33.6728 62.3308 33.0942 61.3205 32.2302 60.5921C31.3662 59.8638 30.2726 59.4643 29.1426 59.4643C28.0126 59.4643 26.9189 59.8638 26.055 60.5921C25.191 61.3205 24.6123 62.3308 24.4212 63.4445C24.2302 64.5583 24.4389 65.7037 25.0107 66.6784C25.5825 67.6531 26.4804 68.3943 27.5458 68.771ZM29.1426 62.6777C29.4584 62.6777 29.7671 62.7713 30.0297 62.9468C30.2923 63.1222 30.4969 63.3716 30.6178 63.6634C30.7387 63.9552 30.7703 64.2762 30.7087 64.586C30.6471 64.8957 30.495 65.1802 30.2717 65.4035C30.0484 65.6268 29.7638 65.7789 29.4541 65.8405C29.1443 65.9021 28.8233 65.8705 28.5315 65.7497C28.2397 65.6288 27.9904 65.4241 27.8149 65.1616C27.6394 64.899 27.5458 64.5903 27.5458 64.2744C27.5458 63.851 27.714 63.4448 28.0135 63.1454C28.3129 62.8459 28.7191 62.6777 29.1426 62.6777ZM96.2071 33.9357C95.0784 33.9336 93.9855 34.331 93.1217 35.0575C92.258 35.784 91.6793 36.7927 91.488 37.905C91.2967 39.0174 91.5053 40.1615 92.0768 41.1347C92.6483 42.108 93.5458 42.8476 94.6103 43.2226V46.7099H89.82C89.3965 46.7099 88.9903 46.8782 88.6909 47.1776C88.3914 47.4771 88.2232 47.8832 88.2232 48.3067V56.2906H91.4168V49.9035H96.2071C96.6306 49.9035 97.0367 49.7352 97.3362 49.4358C97.6356 49.1363 97.8039 48.7302 97.8039 48.3067V43.2226C98.8684 42.8476 99.7659 42.108 100.337 41.1347C100.909 40.1615 101.117 39.0174 100.926 37.905C100.735 36.7927 100.156 35.784 99.2924 35.0575C98.4287 34.331 97.3357 33.9336 96.2071 33.9357ZM96.2071 40.3228C95.8913 40.3228 95.5826 40.2292 95.32 40.0537C95.0574 39.8783 94.8527 39.6289 94.7319 39.3371C94.611 39.0453 94.5794 38.7243 94.641 38.4145C94.7026 38.1048 94.8547 37.8203 95.078 37.597C95.3013 37.3737 95.5858 37.2216 95.8956 37.16C96.2053 37.0984 96.5264 37.13 96.8181 37.2508C97.1099 37.3717 97.3593 37.5763 97.5348 37.8389C97.7102 38.1015 97.8039 38.4102 97.8039 38.7261C97.8039 39.1495 97.6356 39.5557 97.3362 39.8551C97.0367 40.1546 96.6306 40.3228 96.2071 40.3228ZM62.6748 43.2226V48.3067C62.6748 48.7302 62.8431 49.1363 63.1425 49.4358C63.442 49.7352 63.8481 49.9035 64.2716 49.9035H69.0619V56.2906H72.2555V48.3067C72.2555 47.8832 72.0872 47.4771 71.7878 47.1776C71.4883 46.8782 71.0822 46.7099 70.6587 46.7099H65.8684V43.2226C66.9338 42.8459 67.8317 42.1047 68.4035 41.13C68.9752 40.1553 69.184 39.0099 68.9929 37.8962C68.8018 36.7824 68.2232 35.7721 67.3592 35.0437C66.4953 34.3154 65.4016 33.9159 64.2716 33.9159C63.1416 33.9159 62.048 34.3154 61.184 35.0437C60.32 35.7721 59.7414 36.7824 59.5503 37.8962C59.3592 39.0099 59.568 40.1553 60.1397 41.13C60.7115 42.1047 61.6094 42.8459 62.6748 43.2226ZM64.2716 37.1293C64.5874 37.1293 64.8961 37.2229 65.1587 37.3984C65.4213 37.5738 65.626 37.8232 65.7468 38.115C65.8677 38.4068 65.8993 38.7278 65.8377 39.0376C65.7761 39.3473 65.624 39.6318 65.4007 39.8551C65.1774 40.0785 64.8929 40.2305 64.5831 40.2922C64.2734 40.3538 63.9523 40.3221 63.6605 40.2013C63.3688 40.0804 63.1194 39.8758 62.9439 39.6132C62.7685 39.3506 62.6748 39.0419 62.6748 38.7261C62.6748 38.3026 62.8431 37.8964 63.1425 37.597C63.442 37.2975 63.8481 37.1293 64.2716 37.1293Z" fill="#222222"/>
<path d="M30.7393 91.4196V94.6132H27.252C26.8753 93.5478 26.1341 92.6498 25.1595 92.0781C24.1848 91.5063 23.0393 91.2975 21.9256 91.4886C20.8118 91.6797 19.8015 92.2583 19.0731 93.1223C18.3448 93.9863 17.9453 95.0799 17.9453 96.2099C17.9453 97.3399 18.3448 98.4336 19.0731 99.2975C19.8015 100.162 20.8118 100.74 21.9256 100.931C23.0393 101.122 24.1848 100.914 25.1595 100.342C26.1341 99.77 26.8753 98.8721 27.252 97.8067H32.3361C32.7596 97.8067 33.1658 97.6385 33.4652 97.339C33.7647 97.0396 33.9329 96.6334 33.9329 96.2099V93.0164H38.7232V89.8228H32.3361C31.9126 89.8228 31.5065 89.9911 31.207 90.2905C30.9076 90.59 30.7393 90.9961 30.7393 91.4196ZM22.7555 97.8067C22.4397 97.8067 22.1309 97.713 21.8684 97.5376C21.6058 97.3621 21.4011 97.1128 21.2803 96.821C21.1594 96.5292 21.1278 96.2082 21.1894 95.8984C21.251 95.5887 21.4031 95.3041 21.6264 95.0808C21.8497 94.8575 22.1342 94.7054 22.444 94.6438C22.7537 94.5822 23.0748 94.6138 23.3665 94.7347C23.6583 94.8556 23.9077 95.0602 24.0831 95.3228C24.2586 95.5854 24.3523 95.8941 24.3523 96.2099C24.3523 96.6334 24.184 97.0396 23.8846 97.339C23.5851 97.6385 23.179 97.8067 22.7555 97.8067ZM27.5458 68.771V72.2583C27.5458 72.6818 27.714 73.088 28.0135 73.3874C28.3129 73.6869 28.7191 73.8551 29.1426 73.8551H37.1264V70.6615H30.7393V68.771C31.8047 68.3943 32.7027 67.6531 33.2744 66.6784C33.8462 65.7037 34.055 64.5583 33.8639 63.4445C33.6728 62.3308 33.0942 61.3205 32.2302 60.5921C31.3662 59.8638 30.2726 59.4643 29.1426 59.4643C28.0126 59.4643 26.9189 59.8638 26.055 60.5921C25.191 61.3205 24.6123 62.3308 24.4212 63.4445C24.2302 64.5583 24.4389 65.7037 25.0107 66.6784C25.5825 67.6531 26.4804 68.3943 27.5458 68.771ZM29.1426 62.6777C29.4584 62.6777 29.7671 62.7713 30.0297 62.9468C30.2923 63.1222 30.4969 63.3716 30.6178 63.6634C30.7387 63.9552 30.7703 64.2762 30.7087 64.586C30.6471 64.8957 30.495 65.1802 30.2717 65.4035C30.0484 65.6268 29.7638 65.7789 29.4541 65.8405C29.1443 65.9021 28.8233 65.8705 28.5315 65.7497C28.2397 65.6288 27.9904 65.4241 27.8149 65.1616C27.6394 64.899 27.5458 64.5903 27.5458 64.2744C27.5458 63.851 27.714 63.4448 28.0135 63.1454C28.3129 62.8459 28.7191 62.6777 29.1426 62.6777ZM96.2071 33.9357C95.0784 33.9336 93.9855 34.331 93.1217 35.0575C92.258 35.784 91.6793 36.7927 91.488 37.905C91.2967 39.0174 91.5053 40.1615 92.0768 41.1347C92.6483 42.108 93.5458 42.8476 94.6103 43.2226V46.7099H89.82C89.3965 46.7099 88.9903 46.8782 88.6909 47.1776C88.3914 47.4771 88.2232 47.8832 88.2232 48.3067V56.2906H91.4168V49.9035H96.2071C96.6306 49.9035 97.0367 49.7352 97.3362 49.4358C97.6356 49.1363 97.8039 48.7302 97.8039 48.3067V43.2226C98.8684 42.8476 99.7659 42.108 100.337 41.1347C100.909 40.1615 101.117 39.0174 100.926 37.905C100.735 36.7927 100.156 35.784 99.2924 35.0575C98.4287 34.331 97.3357 33.9336 96.2071 33.9357ZM96.2071 40.3228C95.8913 40.3228 95.5826 40.2292 95.32 40.0537C95.0574 39.8783 94.8527 39.6289 94.7319 39.3371C94.611 39.0453 94.5794 38.7243 94.641 38.4145C94.7026 38.1048 94.8547 37.8203 95.078 37.597C95.3013 37.3737 95.5858 37.2216 95.8956 37.16C96.2053 37.0984 96.5264 37.13 96.8181 37.2508C97.1099 37.3717 97.3593 37.5763 97.5348 37.8389C97.7102 38.1015 97.8039 38.4102 97.8039 38.7261C97.8039 39.1495 97.6356 39.5557 97.3362 39.8551C97.0367 40.1546 96.6306 40.3228 96.2071 40.3228ZM62.6748 43.2226V48.3067C62.6748 48.7302 62.8431 49.1363 63.1425 49.4358C63.442 49.7352 63.8481 49.9035 64.2716 49.9035H69.0619V56.2906H72.2555V48.3067C72.2555 47.8832 72.0872 47.4771 71.7878 47.1776C71.4883 46.8782 71.0822 46.7099 70.6587 46.7099H65.8684V43.2226C66.9338 42.8459 67.8317 42.1047 68.4035 41.13C68.9752 40.1553 69.184 39.0099 68.9929 37.8962C68.8018 36.7824 68.2232 35.7721 67.3592 35.0437C66.4953 34.3154 65.4016 33.9159 64.2716 33.9159C63.1416 33.9159 62.048 34.3154 61.184 35.0437C60.32 35.7721 59.7414 36.7824 59.5503 37.8962C59.3592 39.0099 59.568 40.1553 60.1397 41.13C60.7115 42.1047 61.6094 42.8459 62.6748 43.2226ZM64.2716 37.1293C64.5874 37.1293 64.8961 37.2229 65.1587 37.3984C65.4213 37.5738 65.626 37.8232 65.7468 38.115C65.8677 38.4068 65.8993 38.7278 65.8377 39.0376C65.7761 39.3473 65.624 39.6318 65.4007 39.8551C65.1774 40.0785 64.8929 40.2305 64.5831 40.2922C64.2734 40.3538 63.9523 40.3221 63.6605 40.2013C63.3688 40.0804 63.1194 39.8758 62.9439 39.6132C62.7685 39.3506 62.6748 39.0419 62.6748 38.7261C62.6748 38.3026 62.8431 37.8964 63.1425 37.597C63.442 37.2975 63.8481 37.1293 64.2716 37.1293Z" stroke="#222222" stroke-width="2.4" mask="url(#path-9-outside-2_1060_3220)"/>
</svg>
