<svg width="642" height="642" viewBox="0 0 642 642" fill="none" xmlns="http://www.w3.org/2000/svg">
<path opacity="0.5" fill-rule="evenodd" clip-rule="evenodd" d="M378.971 127.137C340.555 115.753 299.627 116.019 261.362 127.9C219.075 141.011 184.163 166.721 159.472 199.632C186.295 174.205 188.515 172.996 232.383 149.099V143.348C238.927 143.376 242.465 143.391 245.991 143.611C250.139 143.869 254.27 144.411 263.261 145.589C249.91 159.874 249.91 159.874 236.448 176.622L236.448 176.62C235.317 171.031 235.316 171.031 234.359 165.847L234.031 166.02C172.754 198.409 171.12 199.273 138.688 233.913C132.581 246.667 127.797 260.067 124.452 273.892C146.59 254.402 160.54 242.182 175.878 232.067C201.397 215.237 230.757 204.232 308.062 175.255L308.061 175.25C305.576 168.777 305.576 168.776 303.152 162.645C325.416 171.006 325.416 171.006 348.462 180.833L348.463 180.833C336.852 199.761 336.852 199.761 324.397 220.855L324.397 220.856L318.654 204.527L318.653 204.527C180.952 254.472 180.3 254.708 119.658 302.641C118.585 314.145 118.495 325.827 119.448 337.572C158.512 317.545 183.366 304.812 208.99 293.887C253.605 274.864 300.556 261.32 428.916 224.292C425.584 216.3 425.584 216.3 422.216 208.493L422.217 208.493C443.162 221.607 443.162 221.607 462.604 235.055L462.603 235.057C455.841 254.315 455.841 254.316 447.5 275.533C446.05 271.08 445.332 268.876 444.601 266.677C443.884 264.521 443.153 262.369 441.707 258.108L441.705 258.109C234.268 320.272 234.185 320.297 123.198 363.223C124.49 369.31 126.072 375.391 127.953 381.45C139.829 419.721 162.786 453.611 193.92 478.833C225.054 504.055 262.968 519.477 302.865 523.148C342.763 526.819 382.853 518.575 418.066 499.458C453.279 480.34 482.033 451.209 500.692 415.747C519.35 380.286 527.076 340.087 522.891 300.234C518.706 260.381 502.799 222.664 477.181 191.853C451.564 161.042 417.386 138.52 378.971 127.137ZM315.835 511.335C298.82 512.446 281.642 511.05 250.42 508.513V508.55C238.536 504.147 227.102 498.634 216.272 492.086C248.765 496.347 267.63 498.821 286.428 498.392C312.448 497.798 338.342 491.641 400.076 476.963L400.076 476.961C399.007 471.717 399.007 471.716 397.702 466.188L397.702 466.188C415.341 470.781 415.341 470.781 430.445 473.577L430.444 473.577C416.858 487.578 416.858 487.579 403.395 499.142C403.342 497.256 403.193 495.373 402.948 493.502C357.218 504.865 336.649 509.975 315.835 511.335ZM163.752 446.891C169.844 454.282 176.453 461.241 183.529 467.715C214.019 471.519 232.896 473.874 251.734 473.593C282.359 473.136 312.879 465.714 393.015 446.226C393.887 449.706 394.309 451.391 394.715 453.081C395.096 454.668 395.462 456.258 396.173 459.341C402.768 449.87 406.148 445.018 409.434 440.105C412.887 434.942 416.239 429.712 423.111 418.986C402.774 409.886 402.774 409.885 380.401 399.506L380.398 399.504C381.606 403.822 382.199 405.942 382.787 408.064C383.355 410.113 383.917 412.162 385.022 416.191C292.52 439.704 259.972 447.978 227.133 449.37C209.305 450.126 191.391 448.854 163.752 446.891ZM133.06 395.096C136.28 403.084 140.017 410.858 144.248 418.37C176.531 415.419 197.87 413.468 218.978 410.073C260.136 403.454 300.411 391.346 419.22 355.627L419.227 355.656C421.47 364.617 421.472 364.626 423.62 373.323C429.792 361.287 432.847 355.331 435.818 349.333C438.729 343.456 441.56 337.539 447.164 325.826C426.157 313.266 426.156 313.265 403.399 300.263L403.395 300.261L409.026 318.954C284.599 356.834 243.996 369.195 202.841 379.317C182.907 384.22 162.843 388.598 133.06 395.096Z" fill="#F2F2F2"/>
<circle opacity="0.1" cx="321" cy="321" r="320.5" stroke="black" stroke-dasharray="10 10"/>
<circle opacity="0.05" cx="321" cy="321" r="212.5" stroke="black"/>
</svg>
