<svg width="111" height="110" viewBox="0 0 111 110" fill="none" xmlns="http://www.w3.org/2000/svg">
<path d="M20.7622 22.9467H27.2721C29.2695 22.9467 30.8887 24.4652 30.8887 26.3384C30.8887 28.2116 29.2695 29.7301 27.2721 29.7301L20.7617 29.7297V16.8412L26.1871 16.8416C27.9848 16.8416 29.4421 18.2083 29.4421 19.8941C29.4421 21.58 27.9848 22.9467 26.1871 22.9467" stroke="#222222" stroke-width="4" stroke-linecap="round" stroke-linejoin="round"/>
<path d="M22.5566 15V16.8413" stroke="#222222" stroke-width="4" stroke-linecap="round" stroke-linejoin="round"/>
<path d="M26.2383 15V16.8413" stroke="#222222" stroke-width="4" stroke-linecap="round" stroke-linejoin="round"/>
<path d="M22.5566 29.7301V31.5714" stroke="#222222" stroke-width="4" stroke-linecap="round" stroke-linejoin="round"/>
<path d="M26.2383 29.7301V31.5714" stroke="#222222" stroke-width="4" stroke-linecap="round" stroke-linejoin="round"/>
<path d="M20.7157 16.8412H18" stroke="#222222" stroke-width="4" stroke-linecap="round" stroke-linejoin="round"/>
<path d="M20.7157 29.7301H18" stroke="#222222" stroke-width="4" stroke-linecap="round" stroke-linejoin="round"/>
<mask id="path-8-outside-1_1059_3219" maskUnits="userSpaceOnUse" x="0" y="0" width="107" height="110" fill="black">
<rect fill="white" width="107" height="110"/>
<path fill-rule="evenodd" clip-rule="evenodd" d="M4.13951 72.8916H22.0193C23.2014 72.8916 24.1605 73.849 24.1595 75.0311V106.132C24.1595 107.314 23.2021 108.271 22.02 108.271H4.13951C2.95935 108.271 2 107.314 2 106.132V75.0311C2 73.849 2.95742 72.8916 4.13951 72.8916ZM6.28001 103.992H19.8798V77.1716H6.28001V103.992ZM60.7013 51.4126H78.5811C79.7622 51.4126 80.7203 52.37 80.7203 53.5521L80.7213 106.132C80.7213 107.314 79.7639 108.271 78.5818 108.271H60.7013C59.5211 108.271 58.5618 107.314 58.5618 106.132V53.5521C58.5618 52.37 59.5192 51.4126 60.7013 51.4126ZM62.8408 103.992H76.4406V55.6926H62.8408V103.992ZM33.7891 50.2952C34.1258 46.4106 37.3903 43.3511 41.3608 43.3511C43.6988 43.3511 45.7939 44.4148 47.1881 46.0819C47.2019 46.0743 47.2147 46.0659 47.2274 46.0574C47.2438 46.0465 47.2602 46.0356 47.2787 46.0269L62.1859 38.8785C62.0866 38.3906 62.0345 37.8864 62.0345 37.3705C62.0345 33.1774 65.4467 29.7653 69.6398 29.7653C71.358 29.7653 72.9382 30.3447 74.2128 31.3079L91.3973 13.4968C90.7146 12.3569 90.3145 11.0284 90.3145 9.60529C90.3145 5.41216 93.7267 2 97.9198 2C102.113 2 105.525 5.41216 105.525 9.60529C105.525 13.7984 102.113 17.2106 97.9198 17.2106C96.704 17.2106 95.5576 16.9155 94.5375 16.4065L76.7881 34.7972C77.0783 35.6013 77.2451 36.4642 77.2451 37.3666C77.2451 41.5598 73.8329 44.9719 69.6398 44.9719C67.5033 44.9719 65.573 44.083 64.1903 42.6598L49.1281 49.8815C49.0756 49.9068 49.0218 49.9233 48.9675 49.94C48.943 49.9475 48.9184 49.9551 48.8938 49.9635C48.9362 50.2894 48.9661 50.6182 48.9661 50.9537C48.9661 55.1468 45.554 58.559 41.3608 58.559C38.4453 58.559 35.9123 56.9083 34.6357 54.494L21.1295 57.8908C20.9444 62.1738 17.4115 65.6042 13.0824 65.6042C8.63653 65.6042 5.01901 61.9867 5.01901 57.5408C5.01901 53.0949 8.63653 49.4774 13.0824 49.4774C16.1456 49.4774 18.8145 51.1946 20.1797 53.717L33.7891 50.2952ZM101.244 9.60695C101.244 7.77496 99.753 6.28241 97.9192 6.28241C96.0862 6.28241 94.5946 7.77405 94.5946 9.60695C94.5946 11.4389 96.0853 12.9315 97.9192 12.9315C99.7531 12.9315 101.244 11.4408 101.244 9.60695ZM72.9645 37.3678C72.9645 35.5358 71.4738 34.0432 69.64 34.0432C67.8061 34.0432 66.3155 35.5358 66.3155 37.3678C66.3155 39.1997 67.8061 40.6923 69.64 40.6923C71.4739 40.6923 72.9645 39.1997 72.9645 37.3678ZM9.29927 57.5408C9.29927 59.6273 10.9952 61.3252 13.0817 61.3252C15.1672 61.3252 16.8651 59.6263 16.866 57.5408C16.866 55.4544 15.1691 53.7564 13.0817 53.7564C10.9962 53.7564 9.29927 55.4544 9.29927 57.5408ZM38.0363 50.9554C38.0363 52.7874 39.527 54.28 41.3608 54.28C43.1947 54.28 44.6854 52.7874 44.6854 50.9554C44.6854 49.1235 43.1947 47.6309 41.3608 47.6309C39.5269 47.6309 38.0363 49.1235 38.0363 50.9554ZM44.7574 23.3792C44.7574 35.168 35.1659 44.7578 23.3789 44.7578C11.5901 44.7578 2.00227 35.1663 2.00227 23.3792C2.00227 11.5924 11.5918 2.00265 23.3789 2.00265C35.1669 2.00265 44.7574 11.5902 44.7574 23.3792ZM40.4767 23.38C40.4767 13.9521 32.8065 6.28216 23.3789 6.28216C13.951 6.28216 6.28302 13.9529 6.28302 23.3807C6.28302 32.8086 13.9512 40.4785 23.3789 40.4785C32.8067 40.4785 40.4767 32.8066 40.4767 23.38Z"/>
</mask>
<path fill-rule="evenodd" clip-rule="evenodd" d="M4.13951 72.8916H22.0193C23.2014 72.8916 24.1605 73.849 24.1595 75.0311V106.132C24.1595 107.314 23.2021 108.271 22.02 108.271H4.13951C2.95935 108.271 2 107.314 2 106.132V75.0311C2 73.849 2.95742 72.8916 4.13951 72.8916ZM6.28001 103.992H19.8798V77.1716H6.28001V103.992ZM60.7013 51.4126H78.5811C79.7622 51.4126 80.7203 52.37 80.7203 53.5521L80.7213 106.132C80.7213 107.314 79.7639 108.271 78.5818 108.271H60.7013C59.5211 108.271 58.5618 107.314 58.5618 106.132V53.5521C58.5618 52.37 59.5192 51.4126 60.7013 51.4126ZM62.8408 103.992H76.4406V55.6926H62.8408V103.992ZM33.7891 50.2952C34.1258 46.4106 37.3903 43.3511 41.3608 43.3511C43.6988 43.3511 45.7939 44.4148 47.1881 46.0819C47.2019 46.0743 47.2147 46.0659 47.2274 46.0574C47.2438 46.0465 47.2602 46.0356 47.2787 46.0269L62.1859 38.8785C62.0866 38.3906 62.0345 37.8864 62.0345 37.3705C62.0345 33.1774 65.4467 29.7653 69.6398 29.7653C71.358 29.7653 72.9382 30.3447 74.2128 31.3079L91.3973 13.4968C90.7146 12.3569 90.3145 11.0284 90.3145 9.60529C90.3145 5.41216 93.7267 2 97.9198 2C102.113 2 105.525 5.41216 105.525 9.60529C105.525 13.7984 102.113 17.2106 97.9198 17.2106C96.704 17.2106 95.5576 16.9155 94.5375 16.4065L76.7881 34.7972C77.0783 35.6013 77.2451 36.4642 77.2451 37.3666C77.2451 41.5598 73.8329 44.9719 69.6398 44.9719C67.5033 44.9719 65.573 44.083 64.1903 42.6598L49.1281 49.8815C49.0756 49.9068 49.0218 49.9233 48.9675 49.94C48.943 49.9475 48.9184 49.9551 48.8938 49.9635C48.9362 50.2894 48.9661 50.6182 48.9661 50.9537C48.9661 55.1468 45.554 58.559 41.3608 58.559C38.4453 58.559 35.9123 56.9083 34.6357 54.494L21.1295 57.8908C20.9444 62.1738 17.4115 65.6042 13.0824 65.6042C8.63653 65.6042 5.01901 61.9867 5.01901 57.5408C5.01901 53.0949 8.63653 49.4774 13.0824 49.4774C16.1456 49.4774 18.8145 51.1946 20.1797 53.717L33.7891 50.2952ZM101.244 9.60695C101.244 7.77496 99.753 6.28241 97.9192 6.28241C96.0862 6.28241 94.5946 7.77405 94.5946 9.60695C94.5946 11.4389 96.0853 12.9315 97.9192 12.9315C99.7531 12.9315 101.244 11.4408 101.244 9.60695ZM72.9645 37.3678C72.9645 35.5358 71.4738 34.0432 69.64 34.0432C67.8061 34.0432 66.3155 35.5358 66.3155 37.3678C66.3155 39.1997 67.8061 40.6923 69.64 40.6923C71.4739 40.6923 72.9645 39.1997 72.9645 37.3678ZM9.29927 57.5408C9.29927 59.6273 10.9952 61.3252 13.0817 61.3252C15.1672 61.3252 16.8651 59.6263 16.866 57.5408C16.866 55.4544 15.1691 53.7564 13.0817 53.7564C10.9962 53.7564 9.29927 55.4544 9.29927 57.5408ZM38.0363 50.9554C38.0363 52.7874 39.527 54.28 41.3608 54.28C43.1947 54.28 44.6854 52.7874 44.6854 50.9554C44.6854 49.1235 43.1947 47.6309 41.3608 47.6309C39.5269 47.6309 38.0363 49.1235 38.0363 50.9554ZM44.7574 23.3792C44.7574 35.168 35.1659 44.7578 23.3789 44.7578C11.5901 44.7578 2.00227 35.1663 2.00227 23.3792C2.00227 11.5924 11.5918 2.00265 23.3789 2.00265C35.1669 2.00265 44.7574 11.5902 44.7574 23.3792ZM40.4767 23.38C40.4767 13.9521 32.8065 6.28216 23.3789 6.28216C13.951 6.28216 6.28302 13.9529 6.28302 23.3807C6.28302 32.8086 13.9512 40.4785 23.3789 40.4785C32.8067 40.4785 40.4767 32.8066 40.4767 23.38Z" fill="#652A97"/>
<path d="M24.1595 75.0311L22.9595 75.0301V75.0311H24.1595ZM19.8798 103.992V105.192H21.0798V103.992H19.8798ZM6.28001 103.992H5.08001V105.192H6.28001V103.992ZM19.8798 77.1716H21.0798V75.9716H19.8798V77.1716ZM6.28001 77.1716V75.9716H5.08001V77.1716H6.28001ZM80.7203 53.5521H79.5203V53.5521L80.7203 53.5521ZM80.7213 106.132H81.9213V106.131L80.7213 106.132ZM76.4406 103.992V105.192H77.6406V103.992H76.4406ZM62.8408 103.992H61.6408V105.192H62.8408V103.992ZM76.4406 55.6926H77.6406V54.4926H76.4406V55.6926ZM62.8408 55.6926V54.4926H61.6408V55.6926H62.8408ZM33.7891 50.2952L34.0817 51.4589L34.9108 51.2505L34.9846 50.3988L33.7891 50.2952ZM47.1881 46.0819L46.2676 46.8517L46.8988 47.6065L47.7627 47.1354L47.1881 46.0819ZM47.2274 46.0574L46.5636 45.0577L46.5635 45.0578L47.2274 46.0574ZM47.2787 46.0269L47.7897 47.1127L47.7976 47.109L47.2787 46.0269ZM62.1859 38.8785L62.7048 39.9605L63.5484 39.556L63.3618 38.6392L62.1859 38.8785ZM74.2128 31.3079L73.4894 32.2653L74.3379 32.9066L75.0764 32.1411L74.2128 31.3079ZM91.3973 13.4968L92.2609 14.33L92.8989 13.6686L92.4268 12.8802L91.3973 13.4968ZM94.5375 16.4065L95.0733 15.3327L94.2855 14.9396L93.6741 15.5731L94.5375 16.4065ZM76.7881 34.7972L75.9246 33.9638L75.4056 34.5016L75.6593 35.2046L76.7881 34.7972ZM64.1903 42.6598L65.051 41.8236L64.4497 41.2047L63.6715 41.5778L64.1903 42.6598ZM49.1281 49.8815L48.6093 48.7995L48.6079 48.8001L49.1281 49.8815ZM48.9675 49.94L48.6151 48.7929L48.615 48.793L48.9675 49.94ZM48.8938 49.9635L48.506 48.8279L47.5771 49.1451L47.7038 50.1184L48.8938 49.9635ZM34.6357 54.494L35.6966 53.933L35.2564 53.1005L34.343 53.3302L34.6357 54.494ZM21.1295 57.8908L20.8368 56.7271L19.9693 56.9453L19.9306 57.839L21.1295 57.8908ZM20.1797 53.717L19.1244 54.2882L19.5682 55.1081L20.4723 54.8807L20.1797 53.717ZM16.866 57.5408L18.066 57.5414V57.5408H16.866ZM22.0193 71.6916H4.13951V74.0916H22.0193V71.6916ZM25.3595 75.0321C25.361 73.185 23.8627 71.6916 22.0193 71.6916V74.0916C22.5401 74.0916 22.96 74.513 22.9595 75.0301L25.3595 75.0321ZM25.3595 106.132V75.0311H22.9595V106.132H25.3595ZM22.02 109.471C23.8649 109.471 25.3595 107.976 25.3595 106.132H22.9595C22.9595 106.651 22.5394 107.071 22.02 107.071V109.471ZM4.13951 109.471H22.02V107.071H4.13951V109.471ZM0.8 106.132C0.8 107.977 2.29731 109.471 4.13951 109.471V107.071C3.62139 107.071 3.2 106.65 3.2 106.132H0.8ZM0.8 75.0311V106.132H3.2V75.0311H0.8ZM4.13951 71.6916C2.29468 71.6916 0.8 73.1863 0.8 75.0311H3.2C3.2 74.5117 3.62016 74.0916 4.13951 74.0916V71.6916ZM19.8798 102.792H6.28001V105.192H19.8798V102.792ZM18.6798 77.1716V103.992H21.0798V77.1716H18.6798ZM6.28001 78.3716H19.8798V75.9716H6.28001V78.3716ZM7.48001 103.992V77.1716H5.08001V103.992H7.48001ZM78.5811 50.2126H60.7013V52.6126H78.5811V50.2126ZM81.9203 53.5521C81.9203 51.7071 80.4247 50.2126 78.5811 50.2126V52.6126C79.0996 52.6126 79.5203 53.0329 79.5203 53.5521H81.9203ZM81.9213 106.131L81.9203 53.5521L79.5203 53.5521L79.5213 106.132L81.9213 106.131ZM78.5818 109.471C80.4266 109.471 81.9213 107.976 81.9213 106.132H79.5213C79.5213 106.651 79.1011 107.071 78.5818 107.071V109.471ZM60.7013 109.471H78.5818V107.071H60.7013V109.471ZM57.3618 106.132C57.3618 107.977 58.8591 109.471 60.7013 109.471V107.071C60.1832 107.071 59.7618 106.65 59.7618 106.132H57.3618ZM57.3618 53.5521V106.132H59.7618V53.5521H57.3618ZM60.7013 50.2126C58.8564 50.2126 57.3618 51.7072 57.3618 53.5521H59.7618C59.7618 53.0327 60.1819 52.6126 60.7013 52.6126V50.2126ZM76.4406 102.792H62.8408V105.192H76.4406V102.792ZM75.2406 55.6926V103.992H77.6406V55.6926H75.2406ZM62.8408 56.8926H76.4406V54.4926H62.8408V56.8926ZM64.0408 103.992V55.6926H61.6408V103.992H64.0408ZM41.3608 42.1511C36.7606 42.1511 32.9834 45.6938 32.5936 50.1916L34.9846 50.3988C35.2682 47.1273 38.02 44.5511 41.3608 44.5511V42.1511ZM48.1086 45.312C46.4973 43.3854 44.0708 42.1511 41.3608 42.1511V44.5511C43.3268 44.5511 45.0905 45.4443 46.2676 46.8517L48.1086 45.312ZM46.5635 45.0578C46.5554 45.0632 46.5601 45.06 46.5667 45.0558C46.5747 45.0508 46.5912 45.0406 46.6135 45.0284L47.7627 47.1354C47.8296 47.0989 47.8848 47.0613 47.8912 47.0571L46.5635 45.0578ZM46.7677 44.9412C46.6572 44.9932 46.5698 45.0536 46.5636 45.0577L47.8911 47.0571C47.9024 47.0496 47.892 47.0568 47.878 47.0653C47.8614 47.0754 47.8308 47.0934 47.7897 47.1127L46.7677 44.9412ZM61.6671 37.7965L46.7598 44.9449L47.7976 47.109L62.7048 39.9605L61.6671 37.7965ZM60.8345 37.3705C60.8345 37.9673 60.8948 38.5518 61.01 39.1179L63.3618 38.6392C63.2784 38.2295 63.2345 37.8054 63.2345 37.3705H60.8345ZM69.6398 28.5653C64.784 28.5653 60.8345 32.5147 60.8345 37.3705H63.2345C63.2345 33.8402 66.1094 30.9653 69.6398 30.9653V28.5653ZM74.9363 30.3505C73.465 29.2387 71.6334 28.5653 69.6398 28.5653V30.9653C71.0826 30.9653 72.4114 31.4507 73.4894 32.2653L74.9363 30.3505ZM90.5337 12.6636L73.3492 30.4747L75.0764 32.1411L92.2609 14.33L90.5337 12.6636ZM89.1145 9.60529C89.1145 11.257 89.5796 12.7973 90.3678 14.1133L92.4268 12.8802C91.8497 11.9166 91.5145 10.7998 91.5145 9.60529H89.1145ZM97.9198 0.8C93.0639 0.8 89.1145 4.74942 89.1145 9.60529H91.5145C91.5145 6.0749 94.3894 3.2 97.9198 3.2V0.8ZM106.725 9.60529C106.725 4.74942 102.776 0.8 97.9198 0.8V3.2C101.45 3.2 104.325 6.0749 104.325 9.60529H106.725ZM97.9198 18.4106C102.776 18.4106 106.725 14.4612 106.725 9.60529H104.325C104.325 13.1357 101.45 16.0106 97.9198 16.0106V18.4106ZM94.0017 17.4802C95.1782 18.0673 96.5072 18.4106 97.9198 18.4106V16.0106C96.9008 16.0106 95.937 15.7637 95.0733 15.3327L94.0017 17.4802ZM77.6515 35.6305L95.401 17.2398L93.6741 15.5731L75.9246 33.9638L77.6515 35.6305ZM78.4451 37.3666C78.4451 36.3148 78.2505 35.3143 77.9168 34.3898L75.6593 35.2046C75.9061 35.8883 76.0451 36.6136 76.0451 37.3666H78.4451ZM69.6398 46.1719C74.4957 46.1719 78.4451 42.2225 78.4451 37.3666H76.0451C76.0451 40.897 73.1702 43.7719 69.6398 43.7719V46.1719ZM63.3296 43.496C64.9268 45.1399 67.1629 46.1719 69.6398 46.1719V43.7719C67.8436 43.7719 66.2191 43.026 65.051 41.8236L63.3296 43.496ZM49.6469 50.9636L64.7091 43.7419L63.6715 41.5778L48.6093 48.7995L49.6469 50.9636ZM49.32 51.0871C49.3617 51.0743 49.5015 51.0336 49.6482 50.963L48.6079 48.8001C48.6335 48.7879 48.6508 48.7818 48.6522 48.7813C48.653 48.781 48.6511 48.7817 48.6446 48.7838C48.6415 48.7848 48.6376 48.786 48.6326 48.7875C48.6275 48.7891 48.6221 48.7908 48.6151 48.7929L49.32 51.0871ZM49.2816 51.0991C49.2858 51.0977 49.2927 51.0955 49.32 51.0871L48.615 48.793C48.5933 48.7996 48.551 48.8125 48.506 48.8279L49.2816 51.0991ZM50.1661 50.9537C50.1661 50.5481 50.13 50.1639 50.0838 49.8086L47.7038 50.1184C47.7424 50.4149 47.7661 50.6882 47.7661 50.9537H50.1661ZM41.3608 59.759C46.2167 59.759 50.1661 55.8096 50.1661 50.9537H47.7661C47.7661 54.4841 44.8912 57.359 41.3608 57.359V59.759ZM33.5749 55.0549C35.0498 57.8442 37.9804 59.759 41.3608 59.759V57.359C38.9102 57.359 36.7749 55.9724 35.6966 53.933L33.5749 55.0549ZM21.4222 59.0546L34.9284 55.6577L34.343 53.3302L20.8368 56.7271L21.4222 59.0546ZM13.0824 66.8042C18.0595 66.8042 22.1158 62.8623 22.3284 57.9426L19.9306 57.839C19.773 61.4853 16.7636 64.4042 13.0824 64.4042V66.8042ZM3.81901 57.5408C3.81901 62.6494 7.97379 66.8042 13.0824 66.8042V64.4042C9.29927 64.4042 6.21901 61.324 6.21901 57.5408H3.81901ZM13.0824 48.2774C7.97379 48.2774 3.81901 52.4322 3.81901 57.5408H6.21901C6.21901 53.7577 9.29927 50.6774 13.0824 50.6774V48.2774ZM21.235 53.1457C19.6693 50.2531 16.6052 48.2774 13.0824 48.2774V50.6774C15.6859 50.6774 17.9596 52.1361 19.1244 54.2882L21.235 53.1457ZM33.4965 49.1314L19.8871 52.5532L20.4723 54.8807L34.0817 51.4589L33.4965 49.1314ZM97.9192 7.48241C99.0898 7.48241 100.044 8.43726 100.044 9.60695H102.444C102.444 7.11266 100.416 5.08241 97.9192 5.08241V7.48241ZM95.7946 9.60695C95.7946 8.43678 96.749 7.48241 97.9192 7.48241V5.08241C95.4235 5.08241 93.3946 7.11131 93.3946 9.60695H95.7946ZM97.9192 11.7315C96.7485 11.7315 95.7946 10.7766 95.7946 9.60695H93.3946C93.3946 12.1012 95.4221 14.1315 97.9192 14.1315V11.7315ZM100.044 9.60695C100.044 10.7781 99.0903 11.7315 97.9192 11.7315V14.1315C100.416 14.1315 102.444 12.1035 102.444 9.60695H100.044ZM69.64 35.2432C70.8107 35.2432 71.7645 36.1981 71.7645 37.3678H74.1645C74.1645 34.8735 72.137 32.8432 69.64 32.8432V35.2432ZM67.5154 37.3678C67.5154 36.1981 68.4693 35.2432 69.64 35.2432V32.8432C67.1429 32.8432 65.1155 34.8735 65.1155 37.3678H67.5154ZM69.64 39.4923C68.4693 39.4923 67.5154 38.5374 67.5154 37.3678H65.1155C65.1155 39.862 67.1429 41.8923 69.64 41.8923V39.4923ZM71.7645 37.3678C71.7645 38.5375 70.8107 39.4923 69.64 39.4923V41.8923C72.1371 41.8923 74.1645 39.862 74.1645 37.3678H71.7645ZM13.0817 60.1252C11.6588 60.1252 10.4993 58.9654 10.4993 57.5408H8.09927C8.09927 60.2892 10.3316 62.5252 13.0817 62.5252V60.1252ZM15.666 57.5403C15.6654 58.964 14.5039 60.1252 13.0817 60.1252V62.5252C15.8304 62.5252 18.0648 60.2887 18.066 57.5414L15.666 57.5403ZM13.0817 54.9564C14.5062 54.9564 15.666 56.1169 15.666 57.5408H18.066C18.066 54.7918 15.832 52.5564 13.0817 52.5564V54.9564ZM10.4993 57.5408C10.4993 56.1165 11.6596 54.9564 13.0817 54.9564V52.5564C10.3329 52.5564 8.09927 54.7922 8.09927 57.5408H10.4993ZM41.3608 53.08C40.1901 53.08 39.2363 52.1251 39.2363 50.9554H36.8363C36.8363 53.4497 38.8638 55.48 41.3608 55.48V53.08ZM43.4854 50.9554C43.4854 52.1251 42.5315 53.08 41.3608 53.08V55.48C43.8579 55.48 45.8854 53.4497 45.8854 50.9554H43.4854ZM41.3608 48.8309C42.5315 48.8309 43.4854 49.7858 43.4854 50.9554H45.8854C45.8854 48.4612 43.8579 46.4309 41.3608 46.4309V48.8309ZM39.2363 50.9554C39.2363 49.7857 40.1901 48.8309 41.3608 48.8309V46.4309C38.8637 46.4309 36.8363 48.4612 36.8363 50.9554H39.2363ZM23.3789 45.9578C35.8286 45.9578 45.9574 35.8308 45.9574 23.3792H43.5574C43.5574 34.5052 34.5032 43.5578 23.3789 43.5578V45.9578ZM0.802271 23.3792C0.802271 35.8288 10.9271 45.9578 23.3789 45.9578V43.5578C12.253 43.5578 3.20227 34.5038 3.20227 23.3792H0.802271ZM23.3789 0.802649C10.9291 0.802649 0.802271 10.9297 0.802271 23.3792H3.20227C3.20227 12.2552 12.2546 3.20265 23.3789 3.20265V0.802649ZM45.9574 23.3792C45.9574 10.9273 35.8295 0.802649 23.3789 0.802649V3.20265C34.5043 3.20265 43.5574 12.2531 43.5574 23.3792H45.9574ZM23.3789 7.48216C32.1438 7.48216 39.2767 14.6149 39.2767 23.38H41.6767C41.6767 13.2894 33.4692 5.08216 23.3789 5.08216V7.48216ZM7.48302 23.3807C7.48302 14.6154 14.614 7.48216 23.3789 7.48216V5.08216C13.288 5.08216 5.08302 13.2904 5.08302 23.3807H7.48302ZM23.3789 39.2785C14.6142 39.2785 7.48302 32.146 7.48302 23.3807H5.08302C5.08302 33.4712 13.2883 41.6785 23.3789 41.6785V39.2785ZM39.2767 23.38C39.2767 32.144 32.1439 39.2785 23.3789 39.2785V41.6785C33.4696 41.6785 41.6767 33.4692 41.6767 23.38H39.2767Z" fill="#652A97" mask="url(#path-8-outside-1_1059_3219)"/>
<mask id="path-10-outside-2_1059_3219" maskUnits="userSpaceOnUse" x="28.2793" y="30" width="82" height="80" fill="black">
<rect fill="white" x="28.2793" y="30" width="82" height="80"/>
<path fill-rule="evenodd" clip-rule="evenodd" d="M50.2986 64.5271H32.4188C31.2367 64.5271 30.2793 65.4845 30.2793 66.6666V106.226C30.2793 107.408 31.2386 108.365 32.4188 108.365H50.2993C51.4814 108.365 52.4388 107.408 52.4388 106.226V66.6666C52.4398 65.4855 51.4807 64.5271 50.2986 64.5271ZM48.1591 104.086H34.5593V68.8071H48.1591V104.086ZM106.859 32H88.9796C87.7975 32 86.8401 32.9574 86.8401 34.1395V106.228C86.8401 107.41 87.7995 108.368 88.9796 108.368H106.86C108.042 108.368 109 107.41 109 106.228V34.1395C109 32.9574 108.041 32 106.859 32ZM104.719 104.086H91.1192V36.28H104.719V104.086Z"/>
</mask>
<path fill-rule="evenodd" clip-rule="evenodd" d="M50.2986 64.5271H32.4188C31.2367 64.5271 30.2793 65.4845 30.2793 66.6666V106.226C30.2793 107.408 31.2386 108.365 32.4188 108.365H50.2993C51.4814 108.365 52.4388 107.408 52.4388 106.226V66.6666C52.4398 65.4855 51.4807 64.5271 50.2986 64.5271ZM48.1591 104.086H34.5593V68.8071H48.1591V104.086ZM106.859 32H88.9796C87.7975 32 86.8401 32.9574 86.8401 34.1395V106.228C86.8401 107.41 87.7995 108.368 88.9796 108.368H106.86C108.042 108.368 109 107.41 109 106.228V34.1395C109 32.9574 108.041 32 106.859 32ZM104.719 104.086H91.1192V36.28H104.719V104.086Z" fill="#222222"/>
<path d="M52.4388 66.6666L51.2388 66.6656V66.6666H52.4388ZM34.5593 104.086H33.3593V105.286H34.5593V104.086ZM48.1591 104.086V105.286H49.3591V104.086H48.1591ZM34.5593 68.8071V67.6071H33.3593V68.8071H34.5593ZM48.1591 68.8071H49.3591V67.6071H48.1591V68.8071ZM91.1192 104.086H89.9191V105.286H91.1192V104.086ZM104.719 104.086V105.286H105.919V104.086H104.719ZM91.1192 36.28V35.08H89.9191V36.28H91.1192ZM104.719 36.28H105.919V35.08H104.719V36.28ZM32.4188 65.7271H50.2986V63.3271H32.4188V65.7271ZM31.4793 66.6666C31.4793 66.1472 31.8995 65.7271 32.4188 65.7271V63.3271C30.574 63.3271 29.0793 64.8218 29.0793 66.6666H31.4793ZM31.4793 106.226V66.6666H29.0793V106.226H31.4793ZM32.4188 107.165C31.9007 107.165 31.4793 106.744 31.4793 106.226H29.0793C29.0793 108.071 30.5766 109.565 32.4188 109.565V107.165ZM50.2993 107.165H32.4188V109.565H50.2993V107.165ZM51.2388 106.226C51.2388 106.745 50.8187 107.165 50.2993 107.165V109.565C52.1441 109.565 53.6388 108.071 53.6388 106.226H51.2388ZM51.2388 66.6666V106.226H53.6388V66.6666H51.2388ZM50.2986 65.7271C50.819 65.7271 51.2393 66.1491 51.2388 66.6656L53.6388 66.6676C53.6403 64.8219 52.1423 63.3271 50.2986 63.3271V65.7271ZM34.5593 105.286H48.1591V102.886H34.5593V105.286ZM33.3593 68.8071V104.086H35.7593V68.8071H33.3593ZM48.1591 67.6071H34.5593V70.0071H48.1591V67.6071ZM49.3591 104.086V68.8071H46.9591V104.086H49.3591ZM88.9796 33.2H106.859V30.8H88.9796V33.2ZM88.0401 34.1395C88.0401 33.6202 88.4603 33.2 88.9796 33.2V30.8C87.1348 30.8 85.6401 32.2947 85.6401 34.1395H88.0401ZM88.0401 106.228V34.1395H85.6401V106.228H88.0401ZM88.9796 107.168C88.4615 107.168 88.0401 106.747 88.0401 106.228H85.6401C85.6401 108.074 87.1374 109.568 88.9796 109.568V107.168ZM106.86 107.168H88.9796V109.568H106.86V107.168ZM107.8 106.228C107.8 106.748 107.379 107.168 106.86 107.168V109.568C108.705 109.568 110.2 108.073 110.2 106.228H107.8ZM107.8 34.1395V106.228H110.2V34.1395H107.8ZM106.859 33.2C107.379 33.2 107.8 33.6207 107.8 34.1395H110.2C110.2 32.2941 108.704 30.8 106.859 30.8V33.2ZM91.1192 105.286H104.719V102.886H91.1192V105.286ZM89.9191 36.28V104.086H92.3192V36.28H89.9191ZM104.719 35.08H91.1192V37.48H104.719V35.08ZM105.919 104.086V36.28H103.519V104.086H105.919Z" fill="#222222" mask="url(#path-10-outside-2_1059_3219)"/>
</svg>
