<svg width="150" height="116" viewBox="0 0 150 116" fill="none" xmlns="http://www.w3.org/2000/svg">
<path d="M78.6099 88.0684L78.61 88.0682C79.4788 86.503 79.8452 84.7315 79.3144 82.9431C79.1556 82.1691 78.7431 81.4076 78.2874 80.8612L105.55 47.6871C106.335 47.9689 107.127 48.1111 107.922 48.1111H107.952C108.429 48.1111 109.141 48.1113 109.7 47.9293C113.255 47.032 115.357 43.3095 114.478 39.6196C113.59 35.8913 109.864 33.7758 106.164 34.657L106.159 34.658C102.62 35.5429 100.317 39.2505 101.366 42.9667C101.527 43.9101 101.963 44.8539 102.561 45.5606L75.6476 78.5462C74.3087 77.9446 72.668 77.6581 71.1527 78.1561C69.6748 78.4906 68.3608 79.4219 67.4739 80.6675L57.4566 74.5632C58.1988 73.0736 58.4733 71.4145 57.9797 69.6043L57.9798 69.6043L57.9769 69.5947C57.4557 67.8564 56.4028 66.257 54.789 65.3601L54.7888 65.3599C53.2189 64.4886 51.4414 64.1225 49.6476 64.6604L49.6475 64.6605C47.8924 65.1871 46.4694 66.2484 45.5802 67.8484L45.5801 67.8486C44.7091 69.4177 44.343 71.1944 44.8798 72.9874C45.1946 74.0865 45.6588 75.0664 46.411 75.9066L27.6377 101.538C26.2738 100.948 24.6488 100.822 23.1799 101.148L23.1798 101.148L23.1697 101.151C19.6265 102.037 17.3225 105.752 18.3797 109.472C19.0938 112.488 21.9251 114.604 24.9326 114.604H24.9625C25.4423 114.604 26.1589 114.604 26.72 114.419C28.4726 113.892 29.8935 112.831 30.7819 111.233L30.782 111.232C31.6533 109.662 32.0194 107.885 31.4815 106.091L31.4763 106.074L31.4697 106.057L31.4591 106.031C31.1696 105.308 30.8612 104.537 30.4235 103.877L49.5942 77.6608C50.1779 77.8049 50.8006 77.9411 51.4296 77.9411H51.4595C51.9368 77.9412 52.6484 77.9413 53.2082 77.7593C53.8394 77.5983 54.3332 77.3041 54.7719 77.016L65.9913 83.9075C65.8905 84.7201 66.0497 85.5178 66.1943 86.2424L66.2027 86.2842L66.2064 86.3028L66.2118 86.3209C66.733 88.0592 67.786 89.6586 69.3997 90.5555L69.4073 90.5598L69.4152 90.5637C70.4485 91.0803 71.5108 91.4394 72.7607 91.4394H72.7906C73.2704 91.4395 73.9869 91.4396 74.548 91.2547C76.3006 90.7275 77.7216 89.6667 78.6099 88.0684ZM144.406 53.1382L144.405 53.1358C141.779 49.6897 138.353 47.1881 134.581 45.9495C136.955 37.6471 135.416 29.6458 130.035 24.4304C124.287 18.6852 115.235 17.3301 106.063 20.413C96.0622 7.75602 85.6721 2.6238 76.7013 1.11451C67.6905 -0.401491 60.1556 1.74487 55.9433 3.51337C40.3341 9.82481 29.2845 25.3342 29.5183 39.8794C21.574 38.2127 13.9679 40.2761 7.99602 45.7504L7.99599 45.7504L7.99142 45.7547C1.72743 51.681 -0.828987 60.4996 1.38336 67.9906L1.38346 67.9909C2.06644 70.2959 3.5578 73.4876 6.70342 76.3993C9.85104 79.3128 14.634 81.9263 21.8679 83.1039L21.8998 83.1091H21.9322H22.2568C24.0207 83.1892 25.8239 83.3081 27.6519 83.4287L27.8429 83.4413C29.738 83.5662 31.6586 83.6915 33.5801 83.7748L33.5887 83.7752H33.5974C35.1273 83.7752 36.4678 82.6305 36.6609 81.092L36.661 81.0917C36.8616 79.4825 35.4719 78.1658 33.9809 77.9786L33.9647 77.9766L33.9484 77.9759C32.0375 77.893 30.1673 77.7684 28.3129 77.6434L28.1318 77.6312C26.3489 77.5109 24.5795 77.3916 22.8096 77.311C14.3933 75.8201 8.75566 71.8812 7.15118 66.2679L7.14933 66.2618C5.5328 60.9287 7.4681 54.4166 12.205 50.0056L12.2059 50.0047C17.4182 45.1184 24.4183 43.8039 31.785 46.5854C32.7611 46.9746 33.7391 46.7724 34.5032 46.1989C35.2699 45.6236 35.6628 44.8378 35.6628 43.8796V43.0461V42.7124V42.6844L35.6589 42.6566C34.7596 36.2799 36.8421 29.3372 40.9686 23.2299C45.0932 17.1255 51.2402 11.8871 58.4132 8.91905C74.0218 2.51152 90.3365 8.54981 102.928 25.7771C103.708 26.9399 105.081 27.3188 106.411 26.7499C114.323 23.4537 121.795 24.1545 126.304 28.6636L126.587 28.3807L126.304 28.6636C130.484 32.8442 131.342 39.8164 128.388 47.0478C127.982 47.8761 128.208 48.8482 128.562 49.5576L128.562 49.5584C128.768 49.9705 129.118 50.3131 129.499 50.5517C129.871 50.784 130.307 50.9392 130.724 50.9461C134.272 51.4368 137.666 53.3764 140.098 56.6197L140.1 56.6221C142.698 60.0317 143.673 64.2515 143.023 68.3121C142.056 73.7845 137.211 78.1724 131.189 79.1491C122.73 80.476 108.099 80.8111 87.4332 80.3113V80.3111H87.4235C85.887 80.3111 84.5243 81.4726 84.5243 83.2104C84.5243 84.0511 84.8063 84.7827 85.3287 85.3052C85.85 85.8265 86.5794 86.1084 87.4176 86.1097C93.087 86.2759 98.2559 86.2759 103.087 86.2759H103.089C116.092 86.2759 125.783 85.7762 132.313 84.7717L132.316 84.7713C140.799 83.4139 147.613 77.1316 148.978 69.1117L148.982 69.0912L148.983 69.0704C149.323 63.8225 147.971 57.8915 144.406 53.1382ZM48.75 25.9539L48.7605 25.9399L48.7697 25.925C51.707 21.1923 58.763 15.7705 67.458 15.1138L67.4625 15.1134C74.9742 14.4607 82.0221 17.7179 87.9571 24.3093C88.9307 25.4697 90.8433 25.6639 92.0153 24.688L92.0155 24.6878C93.1814 23.7158 93.378 21.7985 92.4004 20.6244L92.4004 20.6243L92.3949 20.618C83.4676 10.3431 73.6695 8.80666 67.0596 9.48276C56.2604 10.3285 47.4833 17.0702 43.9218 23.0077L43.9217 23.0076L43.9174 23.0152C43.145 24.3686 43.5395 26.0919 44.8658 27.0392L44.9695 27.1132L45.0969 27.1137C45.2155 27.1141 45.3804 27.1456 45.602 27.1901L45.6221 27.1941C45.8139 27.2326 46.0558 27.2812 46.263 27.2812C47.2472 27.2812 48.1907 26.7004 48.75 25.9539Z" fill="#285ECC" stroke="#285ECC" stroke-width="0.8"/>
<path fill-rule="evenodd" clip-rule="evenodd" d="M78.2601 87.8741C79.0924 86.3745 79.4261 84.7088 78.9262 83.0418L78.9257 83.0401C78.7595 82.2078 78.2596 81.3743 77.7586 80.8745L105.423 47.2112C106.255 47.5448 107.089 47.7111 107.922 47.7111C108.422 47.7111 109.089 47.7111 109.589 47.5448C112.922 46.7116 114.922 43.2126 114.089 39.7123C113.256 36.2132 109.757 34.2126 106.256 35.0461C102.924 35.8794 100.757 39.3784 101.756 42.8787C101.923 43.8783 102.424 44.8792 103.09 45.5453L75.7593 79.0419C74.4261 78.3758 72.759 78.0422 71.2594 78.5421C69.7599 78.8757 68.4266 79.8754 67.5931 81.2087L56.9275 74.7094C57.7599 73.2098 58.0935 71.5428 57.5936 69.7096C57.0938 68.0427 56.0941 66.5432 54.5945 65.7097C53.095 64.8774 51.4293 64.5437 49.7623 65.0436C48.0964 65.5434 46.7631 66.5431 45.9296 68.0427C45.0973 69.5422 44.7637 71.208 45.2635 72.875C45.5972 74.0408 46.097 75.0406 46.9305 75.8741L27.7664 102.039C26.4332 101.373 24.7661 101.205 23.2666 101.539C19.9338 102.372 17.767 105.871 18.7667 109.371C19.433 112.204 22.0996 114.204 24.9325 114.204H24.9325C25.4324 114.204 26.0996 114.204 26.5994 114.037C28.2653 113.538 29.5986 112.538 30.4321 111.038C31.2644 109.539 31.598 107.873 31.0982 106.206L31.0981 106.206C30.7645 105.372 30.4309 104.539 29.9311 103.873L49.43 77.2075C50.0961 77.3749 50.7633 77.5411 51.4294 77.5411C51.9293 77.5411 52.5965 77.5411 53.0964 77.3749C53.7636 77.2075 54.2635 76.875 54.7634 76.5414L66.4285 83.7068C66.2617 84.5362 66.4274 85.3667 66.593 86.1973L66.5948 86.206C67.0946 87.8729 68.0943 89.3724 69.5939 90.2059C70.5937 90.7058 71.5934 91.0394 72.7605 91.0394C73.2604 91.0394 73.9276 91.0394 74.4275 90.8732C76.0933 90.3734 77.4266 89.3737 78.2601 87.8741Z" fill="#222222"/>
<path d="M78.9262 83.0418L77.9656 83.3199L77.9684 83.3291L78.9262 83.0418ZM78.2601 87.8741L79.1342 88.3599L79.1345 88.3594L78.2601 87.8741ZM78.9257 83.0401L77.9451 83.236L77.9534 83.2775L77.9652 83.3182L78.9257 83.0401ZM77.7586 80.8745L76.986 80.2396L76.4095 80.9411L77.0523 81.5824L77.7586 80.8745ZM105.423 47.2112L105.795 46.283L105.115 46.0105L104.65 46.5763L105.423 47.2112ZM109.589 47.5448L109.346 46.5747L109.31 46.5839L109.273 46.5959L109.589 47.5448ZM114.089 39.7123L115.062 39.4807V39.4807L114.089 39.7123ZM106.256 35.0461L106.025 34.0733L106.014 34.076L106.256 35.0461ZM101.756 42.8787L102.743 42.7146L102.734 42.6586L102.718 42.604L101.756 42.8787ZM103.09 45.5453L103.865 46.1775L104.436 45.4773L103.797 44.8382L103.09 45.5453ZM75.7593 79.0419L75.3123 79.9365L76.0282 80.2941L76.5341 79.6741L75.7593 79.0419ZM71.2594 78.5421L71.4766 79.5182L71.5268 79.507L71.5756 79.4907L71.2594 78.5421ZM67.5931 81.2087L67.0728 82.0627L67.917 82.5771L68.4411 81.7388L67.5931 81.2087ZM56.9275 74.7094L56.0532 74.2241L55.5872 75.0636L56.4072 75.5633L56.9275 74.7094ZM57.5936 69.7096L58.5584 69.4465L58.5551 69.4344L58.5515 69.4224L57.5936 69.7096ZM54.5945 65.7097L55.0804 64.8356L55.0798 64.8354L54.5945 65.7097ZM49.7623 65.0436L49.4751 64.0857L49.4749 64.0858L49.7623 65.0436ZM45.9296 68.0427L45.0556 67.5569L45.0553 67.5574L45.9296 68.0427ZM45.2635 72.875L46.225 72.5998L46.2214 72.5877L45.2635 72.875ZM46.9305 75.8741L47.7373 76.4649L48.2439 75.7732L47.6376 75.1669L46.9305 75.8741ZM27.7664 102.039L27.3195 102.933L28.0745 103.31L28.5732 102.63L27.7664 102.039ZM23.2666 101.539L23.0494 100.563L23.0367 100.565L23.024 100.569L23.2666 101.539ZM18.7667 109.371L19.7402 109.142L19.7348 109.119L19.7283 109.097L18.7667 109.371ZM26.5994 114.037L26.3121 113.08L26.2979 113.084L26.2839 113.088L26.5994 114.037ZM30.4321 111.038L31.3061 111.524L31.3064 111.524L30.4321 111.038ZM31.0982 106.206L32.056 105.919L32.0405 105.867L32.0195 105.817L31.0982 106.206ZM31.0981 106.206L30.1697 106.577L30.1731 106.586L30.1767 106.595L31.0981 106.206ZM29.9311 103.873L29.1239 103.283L28.6866 103.881L29.1312 104.473L29.9311 103.873ZM49.43 77.2075L49.6737 76.2377L49.0204 76.0735L48.6228 76.6172L49.43 77.2075ZM53.0964 77.3749L52.8531 76.405L52.8165 76.4141L52.7808 76.426L53.0964 77.3749ZM54.7634 76.5414L55.2868 75.6893L54.741 75.3541L54.2082 75.7097L54.7634 76.5414ZM66.4285 83.7068L67.4089 83.904L67.5465 83.2199L66.9519 82.8547L66.4285 83.7068ZM66.593 86.1973L65.6123 86.3929L65.6124 86.3932L66.593 86.1973ZM66.5948 86.206L65.6141 86.4019L65.6234 86.4481L65.6369 86.4933L66.5948 86.206ZM69.5939 90.2059L69.1081 91.08L69.1272 91.0906L69.1467 91.1004L69.5939 90.2059ZM74.4275 90.8732L74.1401 89.9154L74.1259 89.9196L74.1119 89.9243L74.4275 90.8732ZM77.9684 83.3291C78.3731 84.6788 78.1205 86.0651 77.3858 87.3888L79.1345 88.3594C80.0644 86.684 80.4791 84.7388 79.8841 82.7546L77.9684 83.3291ZM77.9652 83.3182L77.9657 83.3199L79.8868 82.7638L79.8863 82.762L77.9652 83.3182ZM77.0523 81.5824C77.4289 81.9581 77.8217 82.6183 77.9451 83.236L79.9064 82.8442C79.6972 81.7973 79.0904 80.7906 78.4649 80.1665L77.0523 81.5824ZM104.65 46.5763L76.986 80.2396L78.5312 81.5094L106.195 47.8461L104.65 46.5763ZM107.922 46.7111C107.225 46.7111 106.517 46.5726 105.795 46.283L105.051 48.1394C105.993 48.5171 106.952 48.7111 107.922 48.7111V46.7111ZM109.273 46.5959C108.958 46.7008 108.469 46.7111 107.922 46.7111V48.7111C108.375 48.7111 109.22 48.7214 109.905 48.4938L109.273 46.5959ZM113.116 39.944C113.834 42.9577 112.102 45.8857 109.346 46.5747L109.832 48.515C113.741 47.5375 116.011 43.4674 115.062 39.4807L113.116 39.944ZM106.488 36.0189C109.488 35.3046 112.419 37.0181 113.116 39.944L115.062 39.4807C114.092 35.4083 110.025 33.1206 106.025 34.0733L106.488 36.0189ZM102.718 42.604C101.878 39.662 103.7 36.7161 106.499 36.0163L106.014 34.076C102.148 35.0426 99.6357 39.0948 100.795 43.1533L102.718 42.604ZM103.797 44.8382C103.289 44.3306 102.878 43.5245 102.743 42.7146L100.77 43.0427C100.968 44.2322 101.558 45.4279 102.383 46.2524L103.797 44.8382ZM76.5341 79.6741L103.865 46.1775L102.315 44.9131L74.9844 78.4097L76.5341 79.6741ZM71.5756 79.4907C72.7435 79.1015 74.128 79.3448 75.3123 79.9365L76.2062 78.1473C74.7241 77.4069 72.7745 76.9829 70.9432 77.5934L71.5756 79.4907ZM68.4411 81.7388C69.146 80.6111 70.2624 79.7883 71.4766 79.5182L71.0422 77.5659C69.2574 77.963 67.7072 79.1397 66.7452 80.6787L68.4411 81.7388ZM56.4072 75.5633L67.0728 82.0627L68.1135 80.3548L57.4479 73.8554L56.4072 75.5633ZM56.6289 69.9726C57.0496 71.5158 56.7796 72.9154 56.0532 74.2241L57.8019 75.1947C58.7401 73.5043 59.1374 71.5697 58.5584 69.4465L56.6289 69.9726ZM54.1087 66.5838C55.3229 67.2586 56.1895 68.5085 56.6358 69.9968L58.5515 69.4224C57.9981 67.577 56.8653 65.8278 55.0803 64.8356L54.1087 66.5838ZM50.0495 66.0015C51.3993 65.5967 52.7855 65.8493 54.1092 66.584L55.0798 64.8354C53.4045 63.9054 51.4593 63.4908 49.4751 64.0857L50.0495 66.0015ZM46.8037 68.5285C47.4978 67.2798 48.6069 66.4343 50.0497 66.0014L49.4749 64.0858C47.586 64.6526 46.0285 65.8065 45.0556 67.5569L46.8037 68.5285ZM46.2214 72.5877C45.8167 71.238 46.0693 69.8517 46.804 68.528L45.0553 67.5574C44.1254 69.2328 43.7107 71.178 44.3057 73.1622L46.2214 72.5877ZM47.6376 75.1669C46.9564 74.4857 46.5262 73.6527 46.225 72.5998L44.3021 73.1501C44.6681 74.429 45.2377 75.5954 46.2234 76.5812L47.6376 75.1669ZM28.5732 102.63L47.7373 76.4649L46.1238 75.2832L26.9597 101.448L28.5732 102.63ZM23.4837 102.515C24.7795 102.227 26.2096 102.379 27.3195 102.933L28.2133 101.144C26.6568 100.366 24.7528 100.184 23.0494 100.563L23.4837 102.515ZM19.7283 109.097C18.888 106.155 20.7099 103.209 23.5091 102.509L23.024 100.569C19.1578 101.535 16.646 105.587 17.8052 109.646L19.7283 109.097ZM24.9325 113.204C22.5439 113.204 20.2958 111.504 19.7402 109.142L17.7933 109.6C18.5703 112.904 21.6552 115.204 24.9325 115.204V113.204ZM24.9325 113.204H24.9325V115.204H24.9325V113.204ZM26.2839 113.088C25.9686 113.193 25.4791 113.204 24.9325 113.204V115.204C25.3857 115.204 26.2306 115.214 26.915 114.986L26.2839 113.088ZM29.558 110.552C28.864 111.801 27.7548 112.647 26.3121 113.08L26.8868 114.995C28.7758 114.428 30.3332 113.274 31.3061 111.524L29.558 110.552ZM30.1403 106.493C30.5451 107.843 30.2925 109.229 29.5577 110.553L31.3064 111.524C32.2363 109.848 32.651 107.903 32.056 105.919L30.1403 106.493ZM30.1767 106.595L30.1768 106.595L32.0195 105.817L32.0195 105.817L30.1767 106.595ZM29.1312 104.473C29.537 105.014 29.8248 105.716 30.1697 106.577L32.0265 105.834C31.7042 105.029 31.3248 104.064 30.7309 103.273L29.1312 104.473ZM48.6228 76.6172L29.1239 103.283L30.7383 104.463L50.2372 77.7978L48.6228 76.6172ZM51.4294 76.5411C50.908 76.5411 50.3614 76.4105 49.6737 76.2377L49.1862 78.1774C49.8307 78.3393 50.6186 78.5411 51.4294 78.5411V76.5411ZM52.7808 76.426C52.4656 76.5308 51.976 76.5411 51.4294 76.5411V78.5411C51.8826 78.5411 52.7275 78.5514 53.4119 78.3238L52.7808 76.426ZM54.2082 75.7097C53.6986 76.0498 53.3311 76.285 52.8531 76.405L53.3397 78.3449C54.1962 78.13 54.8284 77.7003 55.3185 77.3732L54.2082 75.7097ZM66.9519 82.8547L55.2868 75.6893L54.24 77.3935L65.9051 84.5589L66.9519 82.8547ZM67.5737 86.0017C67.4008 85.1346 67.2882 84.504 67.4089 83.904L65.4482 83.5096C65.2352 84.5684 65.454 85.5989 65.6123 86.3929L67.5737 86.0017ZM67.5754 86.0102L67.5737 86.0015L65.6124 86.3932L65.6141 86.4019L67.5754 86.0102ZM70.0797 89.3319C68.8655 88.657 67.9989 87.4072 67.5526 85.9188L65.6369 86.4933C66.1903 88.3386 67.3231 90.0879 69.1081 91.08L70.0797 89.3319ZM72.7605 90.0394C71.8003 90.0394 70.9571 89.7695 70.041 89.3115L69.1467 91.1004C70.2303 91.6421 71.3865 92.0394 72.7605 92.0394V90.0394ZM74.1119 89.9243C73.7967 90.0291 73.3071 90.0394 72.7605 90.0394V92.0394C73.2136 92.0394 74.0586 92.0497 74.743 91.8221L74.1119 89.9243ZM77.3861 87.3883C76.692 88.637 75.5828 89.4825 74.1401 89.9154L74.7149 91.831C76.6038 91.2642 78.1613 90.1103 79.1342 88.3599L77.3861 87.3883Z" fill="#222222"/>
</svg>
