<svg width="142" height="110" viewBox="0 0 142 110" fill="none" xmlns="http://www.w3.org/2000/svg">
<path fill-rule="evenodd" clip-rule="evenodd" d="M25.72 107.828C22.1407 107.47 18.6125 106.376 15.3685 104.539C2.70835 97.3711 -1.74466 81.296 5.42426 68.6357C10.5368 59.6061 20.1803 54.7514 29.8842 55.3107C20.18 54.751 10.536 59.6057 5.4233 68.6357C-1.74562 81.2959 2.70739 97.3711 15.3676 104.539C18.6118 106.376 22.1404 107.47 25.72 107.828ZM41.3268 58.6909C41.3271 58.6911 41.3274 58.6913 41.3277 58.6915V42.8109C41.3277 41.6672 42.2551 40.7409 43.3977 40.7409H62.4776L62.4777 40.7409C62.4773 40.7409 62.477 40.7409 62.4767 40.7408H43.3968C42.2541 40.7408 41.3268 41.6671 41.3268 42.8109V58.6909ZM62.5216 39.5415C64.2788 39.6069 65.6736 41.0509 65.6718 42.8119V101.593C65.6718 103.4 64.2068 104.863 62.4018 104.863L62.3927 104.863C62.3928 104.863 62.3936 104.863 62.4018 103.663L62.3927 104.863L62.3901 104.863L43.3198 104.734C34.7154 110.307 23.7141 110.645 14.7763 105.583C1.53948 98.0888 -3.11642 81.2814 4.37906 68.0444C11.5394 55.3979 27.2003 50.584 40.1268 56.7165V42.8109C40.1268 41.0039 41.5918 39.5408 43.3968 39.5408H62.0371L62.0568 39.5242L62.5216 39.5415ZM51.1878 81.6688C51.1777 94.329 40.9105 104.587 28.2505 104.587C28.2512 104.587 28.2515 104.587 28.2515 104.587C40.9114 104.587 51.1786 94.3291 51.1887 81.6689C51.1994 69.5667 41.8346 59.6455 29.9528 58.7746C41.8341 59.6459 51.1985 69.567 51.1878 81.6688ZM17.6536 100.469C12.3507 97.7082 6.92255 92.33 6.51309 81.6015C6.53889 69.6101 16.2734 59.9018 28.2685 59.9124C40.2738 59.9219 49.9984 69.6627 49.9878 81.6679C49.9782 93.66 40.2574 103.378 28.2676 103.387L28.2334 103.386C28.1983 103.385 28.1432 103.382 28.0694 103.378C27.9217 103.37 27.6993 103.355 27.4127 103.327C26.8391 103.273 26.0105 103.171 25.0102 102.981C23.0047 102.599 20.3359 101.866 17.6536 100.469ZM60.3694 44.902L60.3897 99.5252H47.6139C47.6139 99.5253 47.6139 99.5253 47.6139 99.5253H60.3907L60.3704 44.902H60.3694ZM59.1699 46.1019L59.1892 98.3252H50.204C58.7203 87.2931 58.828 70.5054 46.6296 60.6718V46.1019H59.1699Z" fill="#222222"/>
<path d="M90.2012 59.2949L90.1694 59.2946L90.1474 59.2967H71.1716C69.6977 59.2967 68.5016 60.4914 68.5016 61.9667V101.329C68.5016 102.803 69.6962 103.999 71.1716 103.999H90.1763C91.6501 103.999 92.8463 102.805 92.8463 101.329V61.9865C92.8578 60.5138 91.6739 59.3094 90.2012 59.2949ZM87.5062 98.6421H73.7845V64.731H87.5062V98.6421Z" fill="#8D49C5" stroke="#8D49C5" stroke-width="1.2"/>
<path d="M118.237 28.4927L118.206 28.4924L118.184 28.4945H99.1325C97.6587 28.4945 96.4625 29.6892 96.4625 31.1645V102.44C96.4625 103.914 97.6572 105.11 99.1325 105.11H118.212C119.686 105.11 120.882 103.916 120.882 102.44V31.1843C120.894 29.7116 119.71 28.5071 118.237 28.4927ZM115.467 99.7531H101.803V33.8541H115.467V99.7531Z" fill="#222222" stroke="#222222" stroke-width="1.2"/>
<path d="M51.1879 26.7779C54.6365 26.7779 57.4327 23.9818 57.4327 20.5331C57.4327 17.0844 54.6366 14.2882 51.1879 14.2882C47.7391 14.2882 44.943 17.0844 44.943 20.5331C44.943 23.9817 47.7391 26.7779 51.1879 26.7779ZM49.6427 20.5536C49.6513 19.704 50.3396 19.0155 51.1907 19.0059C52.0424 19.0075 52.733 19.6983 52.733 20.5511C52.733 21.404 52.0415 22.0962 51.1879 22.0962C50.3357 22.0962 49.6441 21.4061 49.6427 20.5536Z" fill="#8D49C5" stroke="#8D49C5" stroke-width="1.2"/>
<path d="M78.8871 47.5702C82.3357 47.5702 85.132 44.774 85.132 41.3253C85.132 37.8766 82.3358 35.0804 78.8871 35.0804C75.4384 35.0804 72.6422 37.8766 72.6422 41.3253C72.6422 44.7739 75.4372 47.5702 78.8871 47.5702ZM80.4322 41.3253C80.4322 42.1783 79.7408 42.8705 78.8871 42.8705C78.0341 42.8705 77.3419 42.179 77.3419 41.3253C77.3419 40.4723 78.0334 39.7801 78.8871 39.7801C79.7401 39.7801 80.4322 40.4716 80.4322 41.3253Z" fill="#8D49C5" stroke="#8D49C5" stroke-width="1.2"/>
<mask id="path-6-outside-1_4001_3247" maskUnits="userSpaceOnUse" x="12.3887" y="0" width="129" height="52" fill="black">
<rect fill="white" x="12.3887" width="129" height="52"/>
<path fill-rule="evenodd" clip-rule="evenodd" d="M114.484 7.64488C114.484 4.52762 111.956 2 108.839 2C105.722 2 103.194 4.52754 103.194 7.64488C103.104 10.5638 105.397 13.0027 108.316 13.0926C108.49 13.0982 108.665 13.0948 108.839 13.0825C111.797 13.2383 114.321 10.9676 114.477 8.01056C114.483 7.88945 114.486 7.7671 114.484 7.64488ZM108.839 5.49972C110.023 5.52102 110.966 6.49773 110.946 7.683C110.925 8.86716 109.948 9.81023 108.763 9.79002C107.608 9.76983 106.676 8.83799 106.656 7.683C106.634 6.49885 107.578 5.52105 108.763 5.50084H108.82L108.839 5.49972ZM20.1009 50.4321C23.2182 50.4321 25.7458 47.9046 25.7458 44.7872C25.6864 43.5033 25.2334 42.2675 24.4473 41.2494C22.504 38.8116 18.9514 38.4113 16.5148 40.3546C14.077 42.2979 13.6766 45.8505 15.6199 48.2871C16.7054 49.6484 18.3594 50.4334 20.1008 50.412L20.1009 50.4321ZM20.1009 42.6612C21.2851 42.6612 22.2461 43.6211 22.2461 44.8064C22.2461 45.9905 21.2862 46.9515 20.1009 46.9515C18.9168 46.9515 17.9558 45.9916 17.9558 44.8064C17.967 43.6256 18.9213 42.6713 20.1009 42.6612ZM128.711 27.5513C128.711 24.4339 131.239 21.9064 134.356 21.9064C137.473 21.9064 140.001 24.4328 140.001 27.5513C140.001 30.6686 137.473 33.1961 134.356 33.1961C131.238 33.1961 128.711 30.6686 128.711 27.5513ZM132.211 27.5321C132.211 28.7174 133.172 29.6773 134.356 29.6773V29.6582C135.529 29.6481 136.481 28.705 136.501 27.5321C136.501 26.3468 135.54 25.3869 134.356 25.3869C133.171 25.3869 132.211 26.348 132.211 27.5321ZM29.512 37.9964C28.6094 38.7489 27.6304 39.1447 27.0092 38.316C26.3879 37.4885 26.8589 36.6598 27.7616 35.9074C28.6643 35.1549 29.6432 34.7412 30.2645 35.5878C30.8857 36.4344 30.4349 37.225 29.512 37.9964ZM33.5912 32.9135C34.2124 33.7421 35.1914 33.3463 36.0941 32.5939C37.0349 31.8403 37.4666 31.0318 36.8465 30.1852C36.2253 29.3386 35.2463 29.7524 34.3436 30.5048C33.4409 31.2572 32.9699 32.0859 33.5912 32.9135ZM42.4378 27.5328C41.5351 28.2853 40.5562 28.6811 39.9349 27.8524C39.3137 27.0249 39.7847 26.1962 40.6874 25.4438C41.59 24.6913 42.569 24.2775 43.1902 25.1242C43.8115 25.9708 43.3416 26.8174 42.4378 27.5328ZM72.9209 36.5448C72.2997 37.3735 71.3207 36.9776 70.4181 36.2252C69.5142 35.3977 69.0444 34.6632 69.6656 33.8165C70.2869 32.9699 71.2658 33.3837 72.1685 34.1361C73.0712 34.8886 73.5422 35.7172 72.9209 36.5448ZM64.6583 31.4657C65.561 32.2181 66.5399 32.614 67.1612 31.7853C67.7824 30.9577 67.3114 30.129 66.4087 29.3766C65.5061 28.6242 64.5271 28.2104 63.9059 29.057C63.2846 29.9036 63.7545 30.7133 64.6583 31.4657ZM60.9734 26.931C60.3522 27.7597 59.3732 27.3639 58.4706 26.6114C57.5679 25.8579 57.0969 25.0494 57.7181 24.2028C58.3394 23.3562 59.3183 23.7699 60.221 24.5224C61.1237 25.2748 61.5947 26.1035 60.9734 26.931ZM87.5026 33.7421C86.7311 34.6269 85.8845 35.1539 85.0749 34.4385C84.2653 33.7231 84.6802 32.8204 85.4517 31.9356C86.2232 31.0509 87.0698 30.5238 87.8794 31.2392C88.6879 31.9547 88.2741 32.8585 87.5026 33.7421ZM90.4785 28.0613C91.2679 28.7756 92.1145 28.2867 92.9242 27.421C93.7136 26.5553 94.1655 25.6717 93.3761 24.9372C92.5866 24.2038 91.74 24.7309 90.9304 25.5775C90.1208 26.4241 89.6879 27.3459 90.4785 28.0613ZM98.5491 21.2663C97.7776 22.169 96.9501 22.696 96.1214 21.9997C95.2938 21.3033 95.7076 20.3816 96.46 19.4968C97.2125 18.6121 98.0591 18.048 98.8878 18.7634C99.7153 19.4789 99.3206 20.3815 98.5491 21.2663ZM100.867 16.693C101.675 17.4084 102.522 16.8814 103.313 16.0157C104.103 15.1321 104.536 14.2283 103.726 13.5128C102.918 12.7974 102.071 13.3054 101.281 14.1901C100.49 15.0749 100.057 15.9776 100.867 16.693ZM123.596 20.4968C124.498 21.2493 125.477 21.6451 126.098 20.8164C126.72 19.9889 126.249 19.1602 125.346 18.4077C124.443 17.6553 123.464 17.2415 122.843 18.0882C122.222 18.9348 122.693 19.7444 123.596 20.4968ZM119.888 15.9594C119.267 16.788 118.288 16.3922 117.385 15.6398C116.5 14.8873 116.011 14.0777 116.632 13.2311C117.254 12.3845 118.233 12.7983 119.135 13.5507C120.038 14.3031 120.509 15.1318 119.888 15.9594Z"/>
</mask>
<path fill-rule="evenodd" clip-rule="evenodd" d="M114.484 7.64488C114.484 4.52762 111.956 2 108.839 2C105.722 2 103.194 4.52754 103.194 7.64488C103.104 10.5638 105.397 13.0027 108.316 13.0926C108.49 13.0982 108.665 13.0948 108.839 13.0825C111.797 13.2383 114.321 10.9676 114.477 8.01056C114.483 7.88945 114.486 7.7671 114.484 7.64488ZM108.839 5.49972C110.023 5.52102 110.966 6.49773 110.946 7.683C110.925 8.86716 109.948 9.81023 108.763 9.79002C107.608 9.76983 106.676 8.83799 106.656 7.683C106.634 6.49885 107.578 5.52105 108.763 5.50084H108.82L108.839 5.49972ZM20.1009 50.4321C23.2182 50.4321 25.7458 47.9046 25.7458 44.7872C25.6864 43.5033 25.2334 42.2675 24.4473 41.2494C22.504 38.8116 18.9514 38.4113 16.5148 40.3546C14.077 42.2979 13.6766 45.8505 15.6199 48.2871C16.7054 49.6484 18.3594 50.4334 20.1008 50.412L20.1009 50.4321ZM20.1009 42.6612C21.2851 42.6612 22.2461 43.6211 22.2461 44.8064C22.2461 45.9905 21.2862 46.9515 20.1009 46.9515C18.9168 46.9515 17.9558 45.9916 17.9558 44.8064C17.967 43.6256 18.9213 42.6713 20.1009 42.6612ZM128.711 27.5513C128.711 24.4339 131.239 21.9064 134.356 21.9064C137.473 21.9064 140.001 24.4328 140.001 27.5513C140.001 30.6686 137.473 33.1961 134.356 33.1961C131.238 33.1961 128.711 30.6686 128.711 27.5513ZM132.211 27.5321C132.211 28.7174 133.172 29.6773 134.356 29.6773V29.6582C135.529 29.6481 136.481 28.705 136.501 27.5321C136.501 26.3468 135.54 25.3869 134.356 25.3869C133.171 25.3869 132.211 26.348 132.211 27.5321ZM29.512 37.9964C28.6094 38.7489 27.6304 39.1447 27.0092 38.316C26.3879 37.4885 26.8589 36.6598 27.7616 35.9074C28.6643 35.1549 29.6432 34.7412 30.2645 35.5878C30.8857 36.4344 30.4349 37.225 29.512 37.9964ZM33.5912 32.9135C34.2124 33.7421 35.1914 33.3463 36.0941 32.5939C37.0349 31.8403 37.4666 31.0318 36.8465 30.1852C36.2253 29.3386 35.2463 29.7524 34.3436 30.5048C33.4409 31.2572 32.9699 32.0859 33.5912 32.9135ZM42.4378 27.5328C41.5351 28.2853 40.5562 28.6811 39.9349 27.8524C39.3137 27.0249 39.7847 26.1962 40.6874 25.4438C41.59 24.6913 42.569 24.2775 43.1902 25.1242C43.8115 25.9708 43.3416 26.8174 42.4378 27.5328ZM72.9209 36.5448C72.2997 37.3735 71.3207 36.9776 70.4181 36.2252C69.5142 35.3977 69.0444 34.6632 69.6656 33.8165C70.2869 32.9699 71.2658 33.3837 72.1685 34.1361C73.0712 34.8886 73.5422 35.7172 72.9209 36.5448ZM64.6583 31.4657C65.561 32.2181 66.5399 32.614 67.1612 31.7853C67.7824 30.9577 67.3114 30.129 66.4087 29.3766C65.5061 28.6242 64.5271 28.2104 63.9059 29.057C63.2846 29.9036 63.7545 30.7133 64.6583 31.4657ZM60.9734 26.931C60.3522 27.7597 59.3732 27.3639 58.4706 26.6114C57.5679 25.8579 57.0969 25.0494 57.7181 24.2028C58.3394 23.3562 59.3183 23.7699 60.221 24.5224C61.1237 25.2748 61.5947 26.1035 60.9734 26.931ZM87.5026 33.7421C86.7311 34.6269 85.8845 35.1539 85.0749 34.4385C84.2653 33.7231 84.6802 32.8204 85.4517 31.9356C86.2232 31.0509 87.0698 30.5238 87.8794 31.2392C88.6879 31.9547 88.2741 32.8585 87.5026 33.7421ZM90.4785 28.0613C91.2679 28.7756 92.1145 28.2867 92.9242 27.421C93.7136 26.5553 94.1655 25.6717 93.3761 24.9372C92.5866 24.2038 91.74 24.7309 90.9304 25.5775C90.1208 26.4241 89.6879 27.3459 90.4785 28.0613ZM98.5491 21.2663C97.7776 22.169 96.9501 22.696 96.1214 21.9997C95.2938 21.3033 95.7076 20.3816 96.46 19.4968C97.2125 18.6121 98.0591 18.048 98.8878 18.7634C99.7153 19.4789 99.3206 20.3815 98.5491 21.2663ZM100.867 16.693C101.675 17.4084 102.522 16.8814 103.313 16.0157C104.103 15.1321 104.536 14.2283 103.726 13.5128C102.918 12.7974 102.071 13.3054 101.281 14.1901C100.49 15.0749 100.057 15.9776 100.867 16.693ZM123.596 20.4968C124.498 21.2493 125.477 21.6451 126.098 20.8164C126.72 19.9889 126.249 19.1602 125.346 18.4077C124.443 17.6553 123.464 17.2415 122.843 18.0882C122.222 18.9348 122.693 19.7444 123.596 20.4968ZM119.888 15.9594C119.267 16.788 118.288 16.3922 117.385 15.6398C116.5 14.8873 116.011 14.0777 116.632 13.2311C117.254 12.3845 118.233 12.7983 119.135 13.5507C120.038 14.3031 120.509 15.1318 119.888 15.9594Z" fill="#8D49C5"/>
<path d="M114.484 7.64488H113.284V7.65589L113.284 7.6669L114.484 7.64488ZM103.194 7.64488L104.393 7.68175L104.394 7.66332V7.64488H103.194ZM108.316 13.0926L108.355 11.8932L108.353 11.8931L108.316 13.0926ZM108.839 13.0825L108.902 11.8841L108.828 11.8802L108.754 11.8855L108.839 13.0825ZM114.477 8.01056L115.676 8.07373L115.676 8.06599L114.477 8.01056ZM110.946 7.683L112.146 7.7046L112.146 7.70346L110.946 7.683ZM108.839 5.49972L108.86 4.29991L108.814 4.29909L108.769 4.30178L108.839 5.49972ZM108.763 9.79002L108.742 10.9898L108.742 10.9898L108.763 9.79002ZM106.656 7.683L107.855 7.66204L107.855 7.66141L106.656 7.683ZM108.763 5.50084V4.30084H108.752L108.742 4.30101L108.763 5.50084ZM108.82 5.50084V6.70084H108.855L108.89 6.69878L108.82 5.50084ZM25.7458 44.7872H26.9458V44.7595L26.9445 44.7317L25.7458 44.7872ZM20.1009 50.4321L18.901 50.4426L18.9114 51.6321H20.1009V50.4321ZM24.4473 41.2494L25.3972 40.5161L25.3915 40.5087L25.3857 40.5014L24.4473 41.2494ZM16.5148 40.3546L17.2628 41.2929L17.263 41.2927L16.5148 40.3546ZM15.6199 48.2871L16.5582 47.539L16.5581 47.5389L15.6199 48.2871ZM20.1008 50.412L21.3007 50.4016L21.2902 49.1974L20.0861 49.2121L20.1008 50.412ZM20.1009 42.6612L20.1009 41.4612L20.0907 41.4612L20.1009 42.6612ZM17.9558 44.8064L16.7558 44.795V44.8064H17.9558ZM134.356 29.6773V30.8773H135.556V29.6773H134.356ZM134.356 29.6582L134.346 28.4582L133.156 28.4684V29.6582H134.356ZM136.501 27.5321L137.701 27.5528L137.701 27.5424V27.5321H136.501ZM27.0092 38.316L27.9693 37.5962L27.9688 37.5956L27.0092 38.316ZM29.512 37.9964L30.2804 38.9182L30.2817 38.9171L29.512 37.9964ZM27.7616 35.9074L26.9933 34.9856L26.9933 34.9856L27.7616 35.9074ZM30.2645 35.5878L29.297 36.2977L29.297 36.2977L30.2645 35.5878ZM36.0941 32.5939L35.3439 31.6573L35.3347 31.6646L35.3257 31.6721L36.0941 32.5939ZM33.5912 32.9135L34.5513 32.1937L34.5509 32.193L33.5912 32.9135ZM36.8465 30.1852L37.8146 29.4761L37.814 29.4753L36.8465 30.1852ZM34.3436 30.5048L33.5753 29.583L33.5753 29.583L34.3436 30.5048ZM39.9349 27.8524L40.8951 27.1326L40.8946 27.132L39.9349 27.8524ZM42.4378 27.5328L41.693 26.5919L41.6811 26.6013L41.6695 26.6111L42.4378 27.5328ZM40.6874 25.4438L41.4557 26.3655L41.4557 26.3655L40.6874 25.4438ZM43.1902 25.1242L42.2228 25.8341L42.2228 25.8341L43.1902 25.1242ZM70.4181 36.2252L69.6077 37.1103L69.6283 37.1291L69.6497 37.147L70.4181 36.2252ZM72.9209 36.5448L71.9613 35.8244L71.9608 35.825L72.9209 36.5448ZM69.6656 33.8165L70.6331 34.5265L70.6331 34.5265L69.6656 33.8165ZM72.1685 34.1361L71.4002 35.0579L71.4002 35.0579L72.1685 34.1361ZM67.1612 31.7853L66.2015 31.0649L66.201 31.0655L67.1612 31.7853ZM64.6583 31.4657L65.4266 30.5439L65.4261 30.5434L64.6583 31.4657ZM66.4087 29.3766L65.6404 30.2984L65.6404 30.2984L66.4087 29.3766ZM63.9059 29.057L64.8733 29.767L64.8733 29.7669L63.9059 29.057ZM58.4706 26.6114L57.7016 27.5327L57.7022 27.5332L58.4706 26.6114ZM60.9734 26.931L60.0138 26.2106L60.0133 26.2112L60.9734 26.931ZM57.7181 24.2028L56.7507 23.4929L56.7507 23.4929L57.7181 24.2028ZM60.221 24.5224L59.4527 25.4441L59.4527 25.4441L60.221 24.5224ZM87.5026 33.7421L86.5987 32.9529L86.5982 32.9534L87.5026 33.7421ZM85.4517 31.9356L84.5472 31.1469L84.5472 31.147L85.4517 31.9356ZM87.8794 31.2392L88.6746 30.3406L88.674 30.34L87.8794 31.2392ZM92.9242 27.421L93.8006 28.2407L93.8058 28.2351L93.8108 28.2296L92.9242 27.421ZM90.4785 28.0613L89.6733 28.951L89.6734 28.9511L90.4785 28.0613ZM93.3761 24.9372L94.1935 24.0586L94.1928 24.058L93.3761 24.9372ZM90.9304 25.5775L91.7977 26.4069L91.7977 26.4069L90.9304 25.5775ZM96.1214 21.9997L95.3488 22.9178L95.3494 22.9184L96.1214 21.9997ZM98.5491 21.2663L97.6446 20.4776L97.6369 20.4867L98.5491 21.2663ZM96.46 19.4968L95.5459 18.7194L95.5459 18.7194L96.46 19.4968ZM98.8878 18.7634L99.6726 17.8556L99.672 17.8551L98.8878 18.7634ZM103.313 16.0157L104.199 16.825L104.207 16.8158L103.313 16.0157ZM100.867 16.693L101.662 15.7943L101.662 15.7938L100.867 16.693ZM103.726 13.5128L102.931 14.4115L102.932 14.4121L103.726 13.5128ZM101.281 14.1901L100.386 13.3906L100.386 13.3906L101.281 14.1901ZM126.098 20.8164L125.139 20.096L125.138 20.0966L126.098 20.8164ZM123.596 20.4968L124.364 19.575L124.364 19.575L123.596 20.4968ZM125.346 18.4077L126.114 17.486L126.114 17.486L125.346 18.4077ZM122.843 18.0882L123.811 18.7981L123.811 18.7981L122.843 18.0882ZM117.385 15.6398L116.607 16.5539L116.617 16.5615L117.385 15.6398ZM119.888 15.9594L118.928 15.2389L118.928 15.2396L119.888 15.9594ZM116.632 13.2311L115.665 12.5212L115.665 12.5212L116.632 13.2311ZM119.135 13.5507L118.367 14.4725L118.367 14.4725L119.135 13.5507ZM108.839 3.2C111.293 3.2 113.284 5.19035 113.284 7.64488H115.684C115.684 3.86489 112.619 0.8 108.839 0.8V3.2ZM104.394 7.64488C104.394 5.19029 106.384 3.2 108.839 3.2V0.8C105.059 0.8 101.994 3.86479 101.994 7.64488H104.394ZM108.353 11.8931C106.097 11.8237 104.324 9.93828 104.393 7.68175L101.995 7.60802C101.884 11.1893 104.698 14.1817 108.279 14.292L108.353 11.8931ZM108.754 11.8855C108.621 11.8949 108.488 11.8975 108.355 11.8932L108.278 14.2919C108.493 14.2989 108.709 14.2947 108.924 14.2794L108.754 11.8855ZM113.279 7.94739C113.158 10.2422 111.199 12.0051 108.902 11.8841L108.776 14.2808C112.395 14.4715 115.485 11.6929 115.676 8.07373L113.279 7.94739ZM113.284 7.6669C113.286 7.75473 113.283 7.84954 113.278 7.95513L115.676 8.06599C115.682 7.92937 115.686 7.77947 115.684 7.62286L113.284 7.6669ZM112.146 7.70346C112.177 5.85638 110.707 4.33314 108.86 4.29991L108.817 6.69952C109.339 6.70891 109.755 7.13908 109.746 7.66255L112.146 7.70346ZM108.742 10.9898C110.589 11.0213 112.112 9.55133 112.146 7.70459L109.746 7.66141C109.737 8.18298 109.306 8.59912 108.783 8.59019L108.742 10.9898ZM105.456 7.70397C105.487 9.50529 106.94 10.9584 108.742 10.9898L108.784 8.5902C108.275 8.58131 107.864 8.17069 107.855 7.66204L105.456 7.70397ZM108.742 4.30101C106.895 4.33254 105.423 5.85734 105.456 7.70459L107.855 7.66141C107.846 7.14037 108.262 6.70956 108.783 6.70066L108.742 4.30101ZM108.82 4.30084H108.763V6.70084H108.82V4.30084ZM108.769 4.30178L108.749 4.3029L108.89 6.69878L108.909 6.69766L108.769 4.30178ZM24.5458 44.7872C24.5458 47.2418 22.5555 49.2321 20.1009 49.2321V51.6321C23.8809 51.6321 26.9458 48.5673 26.9458 44.7872H24.5458ZM23.4975 41.9827C24.1327 42.8056 24.4991 43.8046 24.5471 44.8427L26.9445 44.7317C26.8737 43.2019 26.334 41.7295 25.3972 40.5161L23.4975 41.9827ZM17.263 41.2927C19.1814 39.7628 21.9788 40.0779 23.509 41.9974L25.3857 40.5014C23.0292 37.5453 18.7214 37.0598 15.7666 39.4164L17.263 41.2927ZM16.5581 47.5389C15.0281 45.6205 15.3433 42.8231 17.2628 41.2929L15.7668 39.4162C12.8107 41.7727 12.3252 46.0804 14.6818 49.0353L16.5581 47.5389ZM20.0861 49.2121C18.7154 49.2289 17.413 48.611 16.5582 47.539L14.6817 49.0352C15.9978 50.6859 18.0034 51.6378 20.1155 51.6119L20.0861 49.2121ZM21.3009 50.4216L21.3007 50.4016L18.9008 50.4225L18.901 50.4426L21.3009 50.4216ZM23.4461 44.8064C23.4461 42.9579 21.9474 41.4612 20.1009 41.4612V43.8612C20.6228 43.8612 21.0461 44.2842 21.0461 44.8064H23.4461ZM20.1009 48.1515C21.9494 48.1515 23.4461 46.6528 23.4461 44.8064H21.0461C21.0461 45.3282 20.6231 45.7515 20.1009 45.7515V48.1515ZM16.7558 44.8064C16.7558 46.6548 18.2545 48.1515 20.1009 48.1515V45.7515C19.5791 45.7515 19.1558 45.3285 19.1558 44.8064H16.7558ZM20.0907 41.4612C18.2557 41.477 16.7733 42.961 16.7558 44.795L19.1557 44.8178C19.1607 44.2902 19.5869 43.8656 20.1112 43.8612L20.0907 41.4612ZM134.356 20.7064C130.576 20.7064 127.511 23.7712 127.511 27.5513H129.911C129.911 25.0967 131.901 23.1064 134.356 23.1064V20.7064ZM141.201 27.5513C141.201 23.77 138.136 20.7064 134.356 20.7064V23.1064C136.811 23.1064 138.801 25.0957 138.801 27.5513H141.201ZM134.356 34.3961C138.136 34.3961 141.201 31.3313 141.201 27.5513H138.801C138.801 30.0059 136.81 31.9961 134.356 31.9961V34.3961ZM127.511 27.5513C127.511 31.3313 130.576 34.3961 134.356 34.3961V31.9961C131.901 31.9961 129.911 30.0059 129.911 27.5513H127.511ZM134.356 28.4773C133.834 28.4773 133.411 28.0542 133.411 27.5321H131.011C131.011 29.3805 132.509 30.8773 134.356 30.8773V28.4773ZM133.156 29.6582V29.6773H135.556V29.6582H133.156ZM135.301 27.5115C135.292 28.0333 134.868 28.4537 134.346 28.4582L134.366 30.8581C136.189 30.8425 137.669 29.3768 137.701 27.5528L135.301 27.5115ZM134.356 26.5869C134.878 26.5869 135.301 27.01 135.301 27.5321H137.701C137.701 25.6837 136.202 24.1869 134.356 24.1869V26.5869ZM133.411 27.5321C133.411 27.0103 133.834 26.5869 134.356 26.5869V24.1869C132.507 24.1869 131.011 25.6856 131.011 27.5321H133.411ZM26.049 39.0358C26.3277 39.4076 26.6922 39.6977 27.1388 39.8541C27.5787 40.0081 28.0142 40.0032 28.3966 39.9246C29.1212 39.7757 29.7757 39.3389 30.2804 38.9182L28.7437 37.0747C28.5577 37.2297 28.3858 37.351 28.234 37.4374C28.0793 37.5254 27.9727 37.5616 27.9135 37.5737C27.8606 37.5846 27.8786 37.5702 27.932 37.5889C27.992 37.61 28.0012 37.6388 27.9693 37.5962L26.049 39.0358ZM26.9933 34.9856C26.4823 35.4115 25.9526 35.9682 25.6914 36.6593C25.3938 37.4468 25.4913 38.2929 26.0495 39.0365L27.9688 37.5956C27.9176 37.5274 27.9228 37.5068 27.9259 37.5284C27.9289 37.5498 27.9208 37.5491 27.9364 37.5077C27.9811 37.3896 28.1382 37.1557 28.5299 36.8292L26.9933 34.9856ZM31.2319 34.8779C30.9552 34.5007 30.5904 34.2037 30.1392 34.0437C29.6946 33.8861 29.2548 33.8929 28.8712 33.9737C28.1466 34.1263 27.4929 34.5692 26.9933 34.9856L28.5299 36.8292C28.7179 36.6725 28.8912 36.5493 29.0444 36.4612C29.2008 36.3712 29.3076 36.3345 29.3659 36.3222C29.4175 36.3113 29.3954 36.3264 29.3373 36.3058C29.2725 36.2828 29.2631 36.2515 29.297 36.2977L31.2319 34.8779ZM30.2817 38.9171C30.7933 38.4894 31.3298 37.9359 31.5905 37.2427C31.8911 36.4435 31.7697 35.6107 31.2319 34.8779L29.297 36.2977C29.3571 36.3796 29.3547 36.4086 29.3519 36.3902C29.3488 36.3691 29.3565 36.3649 29.3441 36.3979C29.3283 36.4398 29.2859 36.5231 29.1824 36.6479C29.0799 36.7716 28.9356 36.9143 28.7424 37.0758L30.2817 38.9171ZM35.3257 31.6721C35.1397 31.8272 34.9679 31.9484 34.8161 32.0348C34.6613 32.1229 34.5547 32.159 34.4956 32.1711C34.4427 32.182 34.4606 32.1677 34.514 32.1864C34.5741 32.2074 34.5833 32.2362 34.5513 32.1937L32.631 33.6333C32.9097 34.005 33.2743 34.2951 33.7208 34.4515C34.1607 34.6055 34.5963 34.6006 34.9786 34.522C35.7033 34.3731 36.3577 33.9363 36.8624 33.5156L35.3257 31.6721ZM35.8784 30.8943C35.939 30.977 35.939 31.0096 35.937 30.9966C35.9345 30.9806 35.941 30.9787 35.9295 31.0099C35.8931 31.1089 35.7498 31.3321 35.3439 31.6573L36.8442 33.5305C37.3791 33.1021 37.9222 32.5442 38.1818 31.8389C38.4774 31.0358 38.347 30.203 37.8146 29.4761L35.8784 30.8943ZM35.112 31.4266C35.2999 31.2699 35.4732 31.1467 35.6264 31.0586C35.7829 30.9686 35.8896 30.9319 35.9479 30.9196C35.9996 30.9087 35.9775 30.9238 35.9193 30.9032C35.8546 30.8802 35.8451 30.8489 35.879 30.8951L37.814 29.4753C37.5372 29.0982 37.1725 28.8011 36.7212 28.6411C36.2766 28.4835 35.8369 28.4903 35.4533 28.5711C34.7286 28.7238 34.0749 29.1666 33.5753 29.583L35.112 31.4266ZM34.5509 32.193C34.4997 32.1248 34.5049 32.1042 34.5079 32.1258C34.5109 32.1472 34.5028 32.1465 34.5184 32.1052C34.5631 31.987 34.7202 31.7531 35.112 31.4266L33.5753 29.583C33.0643 30.0089 32.5346 30.5656 32.2734 31.2567C31.9758 32.0442 32.0733 32.8903 32.6315 33.6339L34.5509 32.193ZM38.9748 28.5722C39.2535 28.944 39.618 29.2341 40.0646 29.3905C40.5045 29.5445 40.94 29.5395 41.3224 29.461C42.047 29.3121 42.7015 28.8753 43.2061 28.4546L41.6695 26.6111C41.4834 26.7661 41.3116 26.8874 41.1598 26.9737C41.005 27.0618 40.8985 27.0979 40.8393 27.1101C40.7864 27.121 40.8043 27.1066 40.8577 27.1253C40.9178 27.1464 40.927 27.1752 40.8951 27.1326L38.9748 28.5722ZM39.919 24.522C39.408 24.9479 38.8784 25.5045 38.6172 26.1957C38.3196 26.9832 38.4171 27.8293 38.9753 28.5728L40.8946 27.132C40.8434 27.0638 40.8486 27.0432 40.8517 27.0647C40.8547 27.0861 40.8466 27.0854 40.8622 27.0441C40.9068 26.926 41.064 26.692 41.4557 26.3655L39.919 24.522ZM44.1577 24.4142C43.881 24.0371 43.5162 23.7401 43.065 23.5801C42.6203 23.4225 42.1806 23.4293 41.797 23.5101C41.0724 23.6627 40.4186 24.1055 39.919 24.522L41.4557 26.3655C41.6436 26.2089 41.817 26.0857 41.9702 25.9976C42.1266 25.9076 42.2333 25.8708 42.2917 25.8586C42.3433 25.8477 42.3212 25.8628 42.2631 25.8422C42.1983 25.8192 42.1889 25.7879 42.2228 25.8341L44.1577 24.4142ZM43.1826 28.4737C43.7097 28.0565 44.246 27.5008 44.5093 26.7995C44.8055 26.0108 44.7065 25.1621 44.1577 24.4142L42.2228 25.8341C42.2765 25.9073 42.2751 25.9352 42.2733 25.9226C42.2715 25.9098 42.2777 25.9153 42.2625 25.9559C42.2203 26.0684 42.0697 26.2937 41.693 26.5919L43.1826 28.4737ZM69.6497 37.147C70.1544 37.5677 70.8089 38.0045 71.5335 38.1534C71.9159 38.2319 72.3514 38.2369 72.7913 38.0828C73.2379 37.9265 73.6024 37.6363 73.8811 37.2646L71.9608 35.825C71.9289 35.8676 71.9381 35.8387 71.9981 35.8177C72.0515 35.799 72.0695 35.8133 72.0166 35.8025C71.9574 35.7903 71.8508 35.7542 71.696 35.6661C71.5443 35.5798 71.3724 35.4585 71.1864 35.3034L69.6497 37.147ZM68.6982 33.1066C68.45 33.4448 68.2691 33.8302 68.2065 34.2611C68.1433 34.6958 68.2113 35.1024 68.3515 35.4629C68.6116 36.1317 69.1378 36.68 69.6077 37.1103L71.2284 35.3402C71.0259 35.1548 70.8734 34.9976 70.7627 34.8615C70.6509 34.724 70.6052 34.6364 70.5884 34.5931C70.5758 34.5607 70.5863 34.5732 70.5815 34.6063C70.5773 34.6355 70.5707 34.6116 70.6331 34.5265L68.6982 33.1066ZM72.9369 33.2144C72.4372 32.7979 71.7835 32.3551 71.0589 32.2025C70.6753 32.1217 70.2355 32.1148 69.7909 32.2725C69.3397 32.4324 68.9749 32.7295 68.6982 33.1066L70.6331 34.5265C70.667 34.4803 70.6576 34.5116 70.5928 34.5345C70.5347 34.5552 70.5126 34.5401 70.5642 34.5509C70.6226 34.5632 70.7293 34.6 70.8857 34.6899C71.0389 34.7781 71.2122 34.9013 71.4002 35.0579L72.9369 33.2144ZM73.8806 37.2652C74.4388 36.5217 74.5363 35.6756 74.2387 34.8881C73.9775 34.1969 73.4478 33.6403 72.9368 33.2144L71.4002 35.0579C71.7919 35.3844 71.949 35.6183 71.9937 35.7365C72.0093 35.7778 72.0012 35.7785 72.0042 35.7571C72.0073 35.7356 72.0125 35.7562 71.9613 35.8244L73.8806 37.2652ZM66.201 31.0655C66.1691 31.1081 66.1783 31.0792 66.2384 31.0582C66.2918 31.0395 66.3097 31.0538 66.2568 31.043C66.1976 31.0308 66.0911 30.9947 65.9363 30.9066C65.7845 30.8202 65.6127 30.699 65.4266 30.5439L63.89 32.3875C64.3947 32.8081 65.0491 33.2449 65.7738 33.3938C66.1561 33.4724 66.5917 33.4774 67.0315 33.3233C67.4781 33.167 67.8426 32.8768 68.1213 32.5051L66.201 31.0655ZM65.6404 30.2984C66.0321 30.6249 66.1893 30.8588 66.2339 30.977C66.2495 31.0183 66.2414 31.019 66.2445 30.9976C66.2475 30.9761 66.2527 30.9967 66.2015 31.0649L68.1209 32.5057C68.679 31.7622 68.7766 30.9161 68.479 30.1286C68.2178 29.4374 67.6881 28.8808 67.1771 28.4548L65.6404 30.2984ZM64.8733 29.7669C64.9072 29.7208 64.8978 29.7521 64.8331 29.775C64.7749 29.7956 64.7528 29.7805 64.8044 29.7914C64.8628 29.8037 64.9695 29.8404 65.1259 29.9304C65.2792 30.0185 65.4525 30.1417 65.6404 30.2984L67.1771 28.4549C66.6775 28.0384 66.0238 27.5956 65.2991 27.4429C64.9155 27.3621 64.4758 27.3553 64.0311 27.513C63.5799 27.6729 63.2151 27.97 62.9384 28.3471L64.8733 29.7669ZM65.4261 30.5434C65.029 30.2129 64.875 29.9839 64.832 29.8706C64.8176 29.8328 64.8252 29.8331 64.8225 29.8525C64.8199 29.8707 64.8168 29.844 64.8733 29.767L62.9384 28.3471C62.3928 29.0907 62.2878 29.9312 62.5884 30.7227C62.8509 31.414 63.3837 31.966 63.8905 32.3879L65.4261 30.5434ZM57.7022 27.5332C58.2069 27.9539 58.8614 28.3907 59.586 28.5396C59.9684 28.6182 60.4039 28.6231 60.8438 28.4691C61.2904 28.3127 61.6549 28.0226 61.9336 27.6508L60.0133 26.2112C59.9814 26.2538 59.9906 26.225 60.0506 26.2039C60.104 26.1852 60.122 26.1996 60.0691 26.1887C60.0099 26.1765 59.9033 26.1404 59.7486 26.0524C59.5968 25.966 59.4249 25.8447 59.2389 25.6897L57.7022 27.5332ZM56.7507 23.4929C56.2048 24.2368 56.1004 25.0773 56.4012 25.8685C56.6638 26.5591 57.1962 27.1108 57.7016 27.5327L59.2396 25.6902C58.8422 25.3585 58.6878 25.1292 58.6445 25.0155C58.6301 24.9775 58.6377 24.978 58.6349 24.9977C58.6324 25.0162 58.6291 24.9897 58.6856 24.9127L56.7507 23.4929ZM60.9894 23.6006C60.4898 23.1842 59.836 22.7413 59.1114 22.5887C58.7278 22.5079 58.288 22.5011 57.8434 22.6587C57.3922 22.8187 57.0274 23.1157 56.7507 23.4929L58.6856 24.9127C58.7195 24.8665 58.7101 24.8978 58.6453 24.9208C58.5872 24.9414 58.5651 24.9263 58.6167 24.9372C58.6751 24.9495 58.7818 24.9862 58.9382 25.0762C59.0914 25.1643 59.2647 25.2875 59.4527 25.4441L60.9894 23.6006ZM61.9331 27.6515C62.4913 26.9079 62.5888 26.0618 62.2912 25.2743C62.03 24.5831 61.5003 24.0265 60.9894 23.6006L59.4527 25.4441C59.8444 25.7706 60.0015 26.0046 60.0462 26.1227C60.0618 26.1641 60.0537 26.1648 60.0567 26.1434C60.0598 26.1218 60.065 26.1424 60.0138 26.2106L61.9331 27.6515ZM84.2803 35.3377C84.6188 35.6368 85.018 35.8538 85.4724 35.9365C85.9262 36.0191 86.3526 35.9529 86.7231 35.8145C87.4189 35.5545 87.9848 35.015 88.4071 34.5308L86.5982 32.9534C86.4355 33.1401 86.2874 33.286 86.1557 33.3928C86.0219 33.5014 85.9307 33.5485 85.8831 33.5663C85.8442 33.5808 85.859 33.5674 85.9022 33.5753C85.9461 33.5833 85.9358 33.5979 85.8695 33.5393L84.2803 35.3377ZM84.5472 31.147C84.1276 31.6282 83.6691 32.2581 83.5015 32.9788C83.4123 33.3628 83.4009 33.7929 83.5395 34.2316C83.6783 34.6708 83.9424 35.0391 84.2803 35.3377L85.8695 33.5393C85.8026 33.4801 85.815 33.4673 85.828 33.5084C85.8408 33.549 85.8295 33.5639 85.8392 33.5223C85.851 33.4714 85.8864 33.3738 85.9771 33.2256C86.0663 33.0797 86.1921 32.9124 86.3561 32.7243L84.5472 31.147ZM88.674 30.34C88.3355 30.0409 87.9364 29.8239 87.4819 29.7412C87.0281 29.6586 86.6017 29.7248 86.2312 29.8633C85.5355 30.1232 84.9695 30.6627 84.5472 31.1469L86.3561 32.7243C86.5189 32.5376 86.6669 32.3917 86.7986 32.2849C86.9325 32.1763 87.0236 32.1293 87.0713 32.1115C87.1101 32.0969 87.0953 32.1103 87.0521 32.1024C87.0082 32.0944 87.0185 32.0798 87.0848 32.1385L88.674 30.34ZM88.4066 34.5313C88.8269 34.0499 89.2851 33.4199 89.4525 32.6989C89.5416 32.3149 89.5528 31.8851 89.4145 31.4467C89.2759 31.0077 89.0123 30.6393 88.6746 30.3406L87.0842 32.1379C87.1508 32.1968 87.1386 32.2097 87.1257 32.169C87.1131 32.129 87.1243 32.1145 87.1146 32.1563C87.1027 32.2073 87.0674 32.3048 86.9769 32.4528C86.8879 32.5984 86.7624 32.7654 86.5987 32.9529L88.4066 34.5313ZM92.0477 26.6013C91.8754 26.7855 91.7209 26.9281 91.5848 27.0317C91.4466 27.1369 91.3535 27.1817 91.3044 27.1985C91.2642 27.2123 91.2773 27.1999 91.3178 27.2082C91.3589 27.2165 91.3479 27.2296 91.2836 27.1715L89.6734 28.9511C90.0038 29.2501 90.3947 29.47 90.8418 29.5605C91.2885 29.6509 91.7118 29.5961 92.0831 29.4687C92.7805 29.2295 93.36 28.7118 93.8006 28.2407L92.0477 26.6013ZM92.5587 25.8157C92.6228 25.8754 92.6075 25.8851 92.5946 25.8392C92.5819 25.7942 92.5944 25.7771 92.5832 25.8188C92.5695 25.8698 92.5305 25.9672 92.434 26.115C92.3392 26.2602 92.2075 26.426 92.0375 26.6124L93.8108 28.2296C94.2351 27.7644 94.7107 27.1507 94.9012 26.441C95.0029 26.0617 95.0298 25.6319 94.9044 25.1876C94.7789 24.7424 94.524 24.3662 94.1935 24.0586L92.5587 25.8157ZM91.7977 26.4069C91.9737 26.2228 92.1314 26.0778 92.2715 25.9708C92.4141 25.8619 92.5102 25.8142 92.5618 25.7959C92.6045 25.7807 92.588 25.7952 92.54 25.7856C92.4905 25.7757 92.4966 25.7581 92.5593 25.8164L94.1928 24.058C93.8608 23.7496 93.465 23.5228 93.0094 23.432C92.5554 23.3414 92.1286 23.4031 91.7598 23.5338C91.0704 23.7783 90.4945 24.2971 90.0631 24.7481L91.7977 26.4069ZM91.2837 27.1715C91.2258 27.1191 91.2415 27.1122 91.2545 27.1569C91.2667 27.1993 91.2546 27.2135 91.2658 27.1703C91.2791 27.1192 91.3172 27.0226 91.4105 26.8802C91.5023 26.7402 91.6311 26.5811 91.7977 26.4069L90.0631 24.7481C89.6102 25.2218 89.1307 25.8441 88.9429 26.5668C88.8436 26.9494 88.8209 27.381 88.949 27.824C89.0778 28.2691 89.3359 28.6457 89.6733 28.951L91.2837 27.1715ZM95.3494 22.9184C95.6921 23.2064 96.0921 23.414 96.5443 23.4894C96.9968 23.565 97.4207 23.4946 97.79 23.3517C98.4826 23.0835 99.0417 22.5369 99.4613 22.0459L97.6369 20.4867C97.4728 20.6786 97.3248 20.8278 97.1937 20.9369C97.0605 21.0477 96.9703 21.0954 96.9234 21.1136C96.8858 21.1282 96.8992 21.1155 96.9394 21.1222C96.9792 21.1288 96.965 21.1412 96.8934 21.081L95.3494 22.9184ZM95.5459 18.7194C95.1351 19.2024 94.685 19.8386 94.5262 20.5614C94.4416 20.9461 94.4347 21.3783 94.5806 21.8175C94.727 22.2583 95.0003 22.6247 95.3488 22.9178L96.894 21.0815C96.8287 21.0265 96.8434 21.0165 96.8582 21.0609C96.8724 21.1038 96.8607 21.1197 96.8703 21.0764C96.8817 21.0242 96.9164 20.9253 97.0051 20.776C97.0923 20.6291 97.215 20.4613 97.3742 20.2742L95.5459 18.7194ZM99.672 17.8551C99.3254 17.5559 98.9185 17.3426 98.458 17.2675C97.9988 17.1925 97.5712 17.2686 97.2033 17.4144C96.5125 17.6881 95.9558 18.2374 95.5459 18.7194L97.3742 20.2742C97.5336 20.0867 97.6799 19.9381 97.8113 19.8279C97.945 19.7158 98.0374 19.6655 98.0874 19.6457C98.1287 19.6293 98.1151 19.6433 98.0713 19.6361C98.0261 19.6287 98.0358 19.6132 98.1036 19.6717L99.672 17.8551ZM99.4536 22.055C99.8764 21.57 100.334 20.9342 100.491 20.204C100.575 19.8148 100.577 19.3835 100.429 18.9475C100.282 18.5124 100.012 18.1495 99.6726 17.8556L98.103 19.6712C98.1768 19.7351 98.1682 19.7533 98.1557 19.7163C98.1429 19.6784 98.1528 19.6622 98.145 19.6987C98.135 19.7451 98.103 19.8387 98.0158 19.9837C97.9298 20.1264 97.807 20.2915 97.6447 20.4777L99.4536 22.055ZM102.426 15.2065C102.257 15.3918 102.104 15.5374 101.968 15.6445C101.83 15.7534 101.736 15.8016 101.684 15.8203C101.642 15.8359 101.654 15.8228 101.695 15.8304C101.738 15.8383 101.728 15.8525 101.662 15.7943L100.072 17.5917C100.41 17.8912 100.809 18.1079 101.263 18.1911C101.715 18.274 102.14 18.2092 102.509 18.0742C103.201 17.821 103.771 17.2931 104.199 16.8249L102.426 15.2065ZM102.932 14.4121C102.997 14.4695 102.981 14.4789 102.967 14.4325C102.953 14.3872 102.965 14.3696 102.955 14.4118C102.942 14.4631 102.905 14.5618 102.81 14.7115C102.717 14.8586 102.587 15.027 102.418 15.2156L104.207 16.8158C104.635 16.3371 105.105 15.7098 105.284 14.9906C105.379 14.6069 105.398 14.174 105.262 13.7304C105.126 13.2858 104.861 12.9139 104.521 12.6136L102.932 14.4121ZM102.176 14.9897C102.343 14.8024 102.494 14.6571 102.628 14.5513C102.763 14.4438 102.855 14.3978 102.903 14.3805C102.942 14.3664 102.929 14.3788 102.89 14.3712C102.85 14.3636 102.863 14.3512 102.931 14.4115L104.522 12.6142C104.186 12.3168 103.79 12.0996 103.339 12.0137C102.888 11.9277 102.463 11.9883 102.09 12.1224C101.391 12.3742 100.818 12.9072 100.386 13.3906L102.176 14.9897ZM101.662 15.7938C101.596 15.7362 101.612 15.7269 101.626 15.7734C101.64 15.8188 101.628 15.8367 101.638 15.7946C101.651 15.7433 101.689 15.6446 101.783 15.4947C101.876 15.3474 102.007 15.1788 102.176 14.9897L100.386 13.3906C99.958 13.8694 99.4879 14.4966 99.3092 15.2156C99.2138 15.5992 99.1956 16.0321 99.3314 16.4757C99.4674 16.9203 99.7326 17.2921 100.072 17.5922L101.662 15.7938ZM125.138 20.0966C125.106 20.1392 125.116 20.1103 125.176 20.0893C125.229 20.0706 125.247 20.085 125.194 20.0741C125.135 20.0619 125.028 20.0258 124.874 19.9377C124.722 19.8514 124.55 19.7301 124.364 19.575L122.827 21.4186C123.332 21.8393 123.986 22.2761 124.711 22.425C125.093 22.5035 125.529 22.5085 125.969 22.3545C126.415 22.1981 126.78 21.908 127.059 21.5362L125.138 20.0966ZM124.578 19.3295C124.969 19.656 125.127 19.89 125.171 20.0081C125.187 20.0494 125.179 20.0501 125.182 20.0287C125.185 20.0072 125.19 20.0278 125.139 20.096L127.058 21.5368C127.616 20.7933 127.714 19.9472 127.416 19.1597C127.155 18.4685 126.625 17.9119 126.114 17.486L124.578 19.3295ZM123.811 18.7981C123.845 18.7519 123.835 18.7832 123.77 18.8061C123.712 18.8268 123.69 18.8117 123.742 18.8225C123.8 18.8348 123.907 18.8716 124.063 18.9616C124.216 19.0497 124.39 19.1729 124.578 19.3295L126.114 17.486C125.615 17.0695 124.961 16.6267 124.236 16.4741C123.853 16.3933 123.413 16.3865 122.968 16.5441C122.517 16.704 122.152 17.0011 121.876 17.3782L123.811 18.7981ZM124.364 19.575C123.967 19.2443 123.813 19.0151 123.77 18.9014C123.755 18.8634 123.763 18.8637 123.76 18.8832C123.757 18.9014 123.754 18.875 123.811 18.7981L121.876 17.3782C121.33 18.1223 121.225 18.9631 121.526 19.7542C121.789 20.4451 122.321 20.9969 122.827 21.4186L124.364 19.575ZM116.617 16.5615C117.121 16.9822 117.776 17.419 118.5 17.5679C118.883 17.6465 119.318 17.6514 119.758 17.4974C120.205 17.341 120.569 17.0509 120.848 16.6792L118.928 15.2396C118.896 15.2821 118.905 15.2533 118.965 15.2323C119.018 15.2136 119.036 15.2279 118.983 15.217C118.924 15.2049 118.818 15.1688 118.663 15.0807C118.511 14.9943 118.339 14.8731 118.153 14.718L116.617 16.5615ZM115.665 12.5212C115.113 13.2732 115.021 14.1174 115.324 14.9026C115.588 15.5866 116.116 16.1356 116.608 16.5539L118.162 14.7256C117.769 14.3915 117.61 14.1594 117.564 14.0389C117.548 13.9977 117.556 13.9972 117.553 14.0182C117.55 14.0389 117.546 14.0152 117.6 13.941L115.665 12.5212ZM119.904 12.6289C119.404 12.2125 118.75 11.7696 118.026 11.617C117.642 11.5362 117.202 11.5294 116.758 11.687C116.307 11.847 115.942 12.144 115.665 12.5212L117.6 13.941C117.634 13.8948 117.624 13.9261 117.56 13.9491C117.502 13.9697 117.479 13.9546 117.531 13.9655C117.589 13.9778 117.696 14.0145 117.853 14.1045C118.006 14.1926 118.179 14.3158 118.367 14.4725L119.904 12.6289ZM120.847 16.6798C121.406 15.9363 121.503 15.0901 121.206 14.3026C120.944 13.6115 120.415 13.0548 119.904 12.6289L118.367 14.4725C118.759 14.799 118.916 15.0329 118.961 15.1511C118.976 15.1924 118.968 15.1931 118.971 15.1717C118.974 15.1501 118.979 15.1707 118.928 15.2389L120.847 16.6798Z" fill="#8D49C5" mask="url(#path-6-outside-1_4001_3247)"/>
<path d="M24.4284 81.7037H32.5096C34.9891 81.7037 36.9992 83.5888 36.9992 85.9141C36.9992 88.2395 34.9891 90.1245 32.5096 90.1245L24.4277 90.124V74.1245L31.1627 74.125C33.3943 74.125 35.2033 75.8216 35.2033 77.9144C35.2033 80.0072 33.3943 81.7037 31.1627 81.7037" stroke="#8D49C5" stroke-width="4" stroke-linecap="round" stroke-linejoin="round"/>
<path d="M26.6562 71.8389V74.1246" stroke="#8D49C5" stroke-width="4" stroke-linecap="round" stroke-linejoin="round"/>
<path d="M31.2285 71.8389V74.1246" stroke="#8D49C5" stroke-width="4" stroke-linecap="round" stroke-linejoin="round"/>
<path d="M26.6562 90.1245V92.4102" stroke="#8D49C5" stroke-width="4" stroke-linecap="round" stroke-linejoin="round"/>
<path d="M31.2285 90.1245V92.4102" stroke="#8D49C5" stroke-width="4" stroke-linecap="round" stroke-linejoin="round"/>
<path d="M24.3712 74.1245H21" stroke="#8D49C5" stroke-width="4" stroke-linecap="round" stroke-linejoin="round"/>
<path d="M24.3712 90.1245H21" stroke="#8D49C5" stroke-width="4" stroke-linecap="round" stroke-linejoin="round"/>
</svg>
