<svg width="120" height="120" viewBox="0 0 120 120" fill="none" xmlns="http://www.w3.org/2000/svg">
<mask id="path-1-outside-1_3771_6871" maskUnits="userSpaceOnUse" x="0" y="0" width="120" height="120" fill="black">
<rect fill="white" width="120" height="120"/>
<path d="M10.6039 69.5052L19.2089 87.2978C19.1366 87.366 19.0602 87.4269 18.9889 87.4972C17.1842 89.3008 16.1894 91.7014 16.1894 94.2542C16.1894 96.8057 17.1832 99.2066 18.9889 101.01C20.7925 102.815 23.1923 103.81 25.7448 103.81C27.9772 103.81 30.0927 103.048 31.7963 101.651L50.4597 108.146C50.4566 108.245 50.4442 108.342 50.4442 108.443C50.4442 113.712 54.7312 117.998 59.9996 117.998C64.9467 117.998 69.0272 114.218 69.5063 109.395L87.2989 100.791C87.3671 100.863 87.428 100.941 87.4983 101.011C89.3029 102.816 91.7025 103.811 94.2553 103.811C96.808 103.811 99.2076 102.817 101.011 101.011C102.816 99.2075 103.811 96.8069 103.811 94.2552C103.811 92.0229 103.049 89.9063 101.652 88.2038L108.147 69.5404C108.247 69.5435 108.344 69.5559 108.445 69.5559C113.713 69.5559 118 65.2689 118 60.0005C118 55.0523 114.22 50.9729 109.397 50.4927L100.792 32.7012C100.865 32.633 100.941 32.572 101.011 32.5018C102.816 30.6971 103.811 28.2975 103.811 25.7448C103.811 23.192 102.817 20.7924 101.011 18.9878C99.2076 17.1831 96.807 16.1894 94.2553 16.1894C92.0229 16.1894 89.9074 16.9497 88.2038 18.3484L69.5404 11.8529C69.5435 11.7538 69.5559 11.6556 69.5559 11.5554C69.5559 6.28702 65.2689 2 60.0005 2C55.0534 2 50.9729 5.7798 50.4937 10.6029L32.7012 19.2078C32.633 19.1355 32.5731 19.0581 32.5018 18.9878C30.6972 17.1831 28.2976 16.1894 25.7448 16.1894C23.1933 16.1894 20.7924 17.1831 18.9889 18.9878C15.4902 22.4857 15.2773 28.0442 18.3494 31.7941L11.8529 50.4586C11.7527 50.4555 11.6556 50.4431 11.5554 50.4431C6.28702 50.4431 2 54.7301 2 59.9985C2.00103 64.9456 5.78086 69.0261 10.6039 69.5053L10.6039 69.5052ZM13.7855 69.2801C17.5106 68.3844 20.3855 65.308 20.9858 61.4787H37.643C37.9767 66.5488 39.9921 71.1561 43.1478 74.7561L31.3663 86.5376C29.7424 85.3486 27.7962 84.6978 25.7446 84.6978C24.3149 84.6978 22.939 85.0201 21.6839 85.611L13.7855 69.2801ZM60.0011 40.5263C70.7373 40.5263 79.4713 49.2603 79.4713 59.9975C79.4713 70.7337 70.7373 79.4678 60.0011 79.4678C49.2649 79.4678 40.5308 70.7337 40.5308 59.9975C40.5308 49.2613 49.2649 40.5263 60.0011 40.5263ZM25.7467 100.845C23.9864 100.845 22.3305 100.159 21.0847 98.9132C19.8399 97.6685 19.1529 96.0125 19.1529 94.2512C19.1529 92.4899 19.8389 90.834 21.0847 89.5882C22.3294 88.3434 23.9854 87.6564 25.7467 87.6564C27.5079 87.6564 29.1629 88.3423 30.4098 89.5882C31.6545 90.8329 32.3415 92.4889 32.3415 94.2512C32.3415 96.0115 31.6556 97.6674 30.4098 98.9132C29.1629 100.159 27.5079 100.845 25.7467 100.845ZM51.0224 105.203L33.8878 99.2395C34.8031 97.7519 35.302 96.0423 35.302 94.2522C35.302 92.2017 34.6502 90.2545 33.4622 88.6305L45.2438 76.8489C48.8438 80.0059 53.4511 82.0213 58.5211 82.3537V99.011C55.0449 99.5554 52.1907 101.975 51.0226 105.203L51.0224 105.203ZM60.0013 115.034C56.3651 115.034 53.4075 112.076 53.4075 108.441C53.4075 104.804 56.3651 101.847 60.0013 101.847C63.6375 101.847 66.5952 104.804 66.5952 108.441C66.5952 112.076 63.6375 115.034 60.0013 115.034ZM69.2831 106.21C68.3885 102.486 65.311 99.6116 61.4828 99.0113V82.354C66.5528 82.0203 71.1601 80.0049 74.7601 76.8492L86.5417 88.6308C85.3527 90.2546 84.7019 92.2019 84.7019 94.2525C84.7019 95.6811 85.0242 97.058 85.6151 98.3131L69.2831 106.21ZM98.9175 98.9142C97.6727 100.159 96.0167 100.846 94.2555 100.846C92.4942 100.846 90.8393 100.16 89.5924 98.9142C88.3476 97.6694 87.6606 96.0134 87.6606 94.2522C87.6606 92.491 88.3466 90.835 89.5924 89.5891C90.8382 88.3444 92.4932 87.6574 94.2555 87.6574C96.0157 87.6574 97.6716 88.3433 98.9175 89.5891C100.162 90.8339 100.849 92.4899 100.849 94.2522C100.849 96.0124 100.163 97.6684 98.9175 98.9142ZM99.2439 86.11C97.7564 85.1948 96.0467 84.6958 94.2566 84.6958C92.2051 84.6958 90.2589 85.3476 88.6349 86.5356L76.8533 74.754C80.0104 71.154 82.0257 66.5468 82.3582 61.4767H99.0154C99.5598 64.9529 101.978 67.8061 105.206 68.9744L99.2439 86.11ZM115.038 59.9965C115.038 63.6327 112.08 66.5903 108.444 66.5903C104.808 66.5903 101.85 63.6327 101.85 59.9965C101.85 56.3603 104.809 53.4027 108.444 53.4027C112.08 53.4027 115.038 56.3613 115.038 59.9965ZM106.216 50.7137C102.491 51.6093 99.616 54.6858 99.0157 58.515L82.3584 58.5161C82.0248 53.446 80.0094 48.8387 76.8536 45.2388L88.6352 33.4572C90.2591 34.6462 92.2053 35.297 94.2569 35.297C95.6866 35.297 97.0624 34.9747 98.3186 34.3838L106.216 50.7137ZM94.2556 19.1488C96.0158 19.1488 97.6717 19.8347 98.9176 21.0795C101.488 23.6507 101.488 27.8333 98.9176 30.4046C97.6728 31.6494 96.0168 32.3363 94.2556 32.3363C92.4943 32.3363 90.8394 31.6504 89.5925 30.4046C87.0223 27.8334 87.0223 23.6508 89.5925 21.0795C90.8383 19.8347 92.4943 19.1488 94.2556 19.1488ZM68.9798 14.7906L86.1165 20.7543C84.1156 24.0208 84.2582 28.2303 86.5422 31.3622L74.7595 43.1449C71.1595 39.9889 66.5523 37.9735 61.4822 37.64V20.9828C64.9574 20.4384 67.8116 18.0201 68.9799 14.7909L68.9798 14.7906ZM60.0009 4.96046C63.6371 4.96046 66.5947 7.91808 66.5947 11.5543C66.5947 15.1894 63.6371 18.1481 60.0009 18.1481C56.3647 18.1481 53.4071 15.1894 53.4071 11.5543C53.4071 7.91808 56.3647 4.96046 60.0009 4.96046ZM50.7192 13.7833C51.6138 17.5074 54.6902 20.3822 58.5195 20.9825V37.6398C53.4494 37.9734 48.8421 39.9888 45.2421 43.1456L33.4595 31.363C35.5328 28.5202 35.8406 24.7919 34.3841 21.6836L50.7192 13.7833ZM21.0848 21.0796C22.3295 19.8348 23.9855 19.1489 25.7468 19.1489C27.508 19.1489 29.164 19.8348 30.4099 21.0796C32.98 23.6507 32.98 27.8334 30.4099 30.4046C29.1641 31.6494 27.5091 32.3364 25.7468 32.3364C23.9865 32.3364 22.3306 31.6504 21.0848 30.4046C18.5136 27.8335 18.5136 23.6508 21.0848 21.0796ZM20.7583 33.8848C22.2459 34.8001 23.9555 35.299 25.7456 35.299C27.7972 35.299 29.7433 34.6472 31.3673 33.4592L43.1489 45.2408C39.9919 48.8408 37.9776 53.4481 37.6441 58.5181L20.9868 58.5171C20.4424 55.0409 18.0242 52.1867 14.796 51.0186L20.7583 33.8848ZM11.5573 53.4037C15.1935 53.4037 18.1511 56.3624 18.1511 59.9975C18.1511 63.6338 15.1924 66.5914 11.5573 66.5914C7.92107 66.5914 4.96344 63.6338 4.96344 59.9975C4.96448 56.3624 7.92213 53.4037 11.5573 53.4037Z"/>
</mask>
<path d="M10.6039 69.5052L19.2089 87.2978C19.1366 87.366 19.0602 87.4269 18.9889 87.4972C17.1842 89.3008 16.1894 91.7014 16.1894 94.2542C16.1894 96.8057 17.1832 99.2066 18.9889 101.01C20.7925 102.815 23.1923 103.81 25.7448 103.81C27.9772 103.81 30.0927 103.048 31.7963 101.651L50.4597 108.146C50.4566 108.245 50.4442 108.342 50.4442 108.443C50.4442 113.712 54.7312 117.998 59.9996 117.998C64.9467 117.998 69.0272 114.218 69.5063 109.395L87.2989 100.791C87.3671 100.863 87.428 100.941 87.4983 101.011C89.3029 102.816 91.7025 103.811 94.2553 103.811C96.808 103.811 99.2076 102.817 101.011 101.011C102.816 99.2075 103.811 96.8069 103.811 94.2552C103.811 92.0229 103.049 89.9063 101.652 88.2038L108.147 69.5404C108.247 69.5435 108.344 69.5559 108.445 69.5559C113.713 69.5559 118 65.2689 118 60.0005C118 55.0523 114.22 50.9729 109.397 50.4927L100.792 32.7012C100.865 32.633 100.941 32.572 101.011 32.5018C102.816 30.6971 103.811 28.2975 103.811 25.7448C103.811 23.192 102.817 20.7924 101.011 18.9878C99.2076 17.1831 96.807 16.1894 94.2553 16.1894C92.0229 16.1894 89.9074 16.9497 88.2038 18.3484L69.5404 11.8529C69.5435 11.7538 69.5559 11.6556 69.5559 11.5554C69.5559 6.28702 65.2689 2 60.0005 2C55.0534 2 50.9729 5.7798 50.4937 10.6029L32.7012 19.2078C32.633 19.1355 32.5731 19.0581 32.5018 18.9878C30.6972 17.1831 28.2976 16.1894 25.7448 16.1894C23.1933 16.1894 20.7924 17.1831 18.9889 18.9878C15.4902 22.4857 15.2773 28.0442 18.3494 31.7941L11.8529 50.4586C11.7527 50.4555 11.6556 50.4431 11.5554 50.4431C6.28702 50.4431 2 54.7301 2 59.9985C2.00103 64.9456 5.78086 69.0261 10.6039 69.5053L10.6039 69.5052ZM13.7855 69.2801C17.5106 68.3844 20.3855 65.308 20.9858 61.4787H37.643C37.9767 66.5488 39.9921 71.1561 43.1478 74.7561L31.3663 86.5376C29.7424 85.3486 27.7962 84.6978 25.7446 84.6978C24.3149 84.6978 22.939 85.0201 21.6839 85.611L13.7855 69.2801ZM60.0011 40.5263C70.7373 40.5263 79.4713 49.2603 79.4713 59.9975C79.4713 70.7337 70.7373 79.4678 60.0011 79.4678C49.2649 79.4678 40.5308 70.7337 40.5308 59.9975C40.5308 49.2613 49.2649 40.5263 60.0011 40.5263ZM25.7467 100.845C23.9864 100.845 22.3305 100.159 21.0847 98.9132C19.8399 97.6685 19.1529 96.0125 19.1529 94.2512C19.1529 92.4899 19.8389 90.834 21.0847 89.5882C22.3294 88.3434 23.9854 87.6564 25.7467 87.6564C27.5079 87.6564 29.1629 88.3423 30.4098 89.5882C31.6545 90.8329 32.3415 92.4889 32.3415 94.2512C32.3415 96.0115 31.6556 97.6674 30.4098 98.9132C29.1629 100.159 27.5079 100.845 25.7467 100.845ZM51.0224 105.203L33.8878 99.2395C34.8031 97.7519 35.302 96.0423 35.302 94.2522C35.302 92.2017 34.6502 90.2545 33.4622 88.6305L45.2438 76.8489C48.8438 80.0059 53.4511 82.0213 58.5211 82.3537V99.011C55.0449 99.5554 52.1907 101.975 51.0226 105.203L51.0224 105.203ZM60.0013 115.034C56.3651 115.034 53.4075 112.076 53.4075 108.441C53.4075 104.804 56.3651 101.847 60.0013 101.847C63.6375 101.847 66.5952 104.804 66.5952 108.441C66.5952 112.076 63.6375 115.034 60.0013 115.034ZM69.2831 106.21C68.3885 102.486 65.311 99.6116 61.4828 99.0113V82.354C66.5528 82.0203 71.1601 80.0049 74.7601 76.8492L86.5417 88.6308C85.3527 90.2546 84.7019 92.2019 84.7019 94.2525C84.7019 95.6811 85.0242 97.058 85.6151 98.3131L69.2831 106.21ZM98.9175 98.9142C97.6727 100.159 96.0167 100.846 94.2555 100.846C92.4942 100.846 90.8393 100.16 89.5924 98.9142C88.3476 97.6694 87.6606 96.0134 87.6606 94.2522C87.6606 92.491 88.3466 90.835 89.5924 89.5891C90.8382 88.3444 92.4932 87.6574 94.2555 87.6574C96.0157 87.6574 97.6716 88.3433 98.9175 89.5891C100.162 90.8339 100.849 92.4899 100.849 94.2522C100.849 96.0124 100.163 97.6684 98.9175 98.9142ZM99.2439 86.11C97.7564 85.1948 96.0467 84.6958 94.2566 84.6958C92.2051 84.6958 90.2589 85.3476 88.6349 86.5356L76.8533 74.754C80.0104 71.154 82.0257 66.5468 82.3582 61.4767H99.0154C99.5598 64.9529 101.978 67.8061 105.206 68.9744L99.2439 86.11ZM115.038 59.9965C115.038 63.6327 112.08 66.5903 108.444 66.5903C104.808 66.5903 101.85 63.6327 101.85 59.9965C101.85 56.3603 104.809 53.4027 108.444 53.4027C112.08 53.4027 115.038 56.3613 115.038 59.9965ZM106.216 50.7137C102.491 51.6093 99.616 54.6858 99.0157 58.515L82.3584 58.5161C82.0248 53.446 80.0094 48.8387 76.8536 45.2388L88.6352 33.4572C90.2591 34.6462 92.2053 35.297 94.2569 35.297C95.6866 35.297 97.0624 34.9747 98.3186 34.3838L106.216 50.7137ZM94.2556 19.1488C96.0158 19.1488 97.6717 19.8347 98.9176 21.0795C101.488 23.6507 101.488 27.8333 98.9176 30.4046C97.6728 31.6494 96.0168 32.3363 94.2556 32.3363C92.4943 32.3363 90.8394 31.6504 89.5925 30.4046C87.0223 27.8334 87.0223 23.6508 89.5925 21.0795C90.8383 19.8347 92.4943 19.1488 94.2556 19.1488ZM68.9798 14.7906L86.1165 20.7543C84.1156 24.0208 84.2582 28.2303 86.5422 31.3622L74.7595 43.1449C71.1595 39.9889 66.5523 37.9735 61.4822 37.64V20.9828C64.9574 20.4384 67.8116 18.0201 68.9799 14.7909L68.9798 14.7906ZM60.0009 4.96046C63.6371 4.96046 66.5947 7.91808 66.5947 11.5543C66.5947 15.1894 63.6371 18.1481 60.0009 18.1481C56.3647 18.1481 53.4071 15.1894 53.4071 11.5543C53.4071 7.91808 56.3647 4.96046 60.0009 4.96046ZM50.7192 13.7833C51.6138 17.5074 54.6902 20.3822 58.5195 20.9825V37.6398C53.4494 37.9734 48.8421 39.9888 45.2421 43.1456L33.4595 31.363C35.5328 28.5202 35.8406 24.7919 34.3841 21.6836L50.7192 13.7833ZM21.0848 21.0796C22.3295 19.8348 23.9855 19.1489 25.7468 19.1489C27.508 19.1489 29.164 19.8348 30.4099 21.0796C32.98 23.6507 32.98 27.8334 30.4099 30.4046C29.1641 31.6494 27.5091 32.3364 25.7468 32.3364C23.9865 32.3364 22.3306 31.6504 21.0848 30.4046C18.5136 27.8335 18.5136 23.6508 21.0848 21.0796ZM20.7583 33.8848C22.2459 34.8001 23.9555 35.299 25.7456 35.299C27.7972 35.299 29.7433 34.6472 31.3673 33.4592L43.1489 45.2408C39.9919 48.8408 37.9776 53.4481 37.6441 58.5181L20.9868 58.5171C20.4424 55.0409 18.0242 52.1867 14.796 51.0186L20.7583 33.8848ZM11.5573 53.4037C15.1935 53.4037 18.1511 56.3624 18.1511 59.9975C18.1511 63.6338 15.1924 66.5914 11.5573 66.5914C7.92107 66.5914 4.96344 63.6338 4.96344 59.9975C4.96448 56.3624 7.92213 53.4037 11.5573 53.4037Z" fill="#81B0AE"/>
<path d="M10.6039 69.5052L19.2089 87.2978C19.1366 87.366 19.0602 87.4269 18.9889 87.4972C17.1842 89.3008 16.1894 91.7014 16.1894 94.2542C16.1894 96.8057 17.1832 99.2066 18.9889 101.01C20.7925 102.815 23.1923 103.81 25.7448 103.81C27.9772 103.81 30.0927 103.048 31.7963 101.651L50.4597 108.146C50.4566 108.245 50.4442 108.342 50.4442 108.443C50.4442 113.712 54.7312 117.998 59.9996 117.998C64.9467 117.998 69.0272 114.218 69.5063 109.395L87.2989 100.791C87.3671 100.863 87.428 100.941 87.4983 101.011C89.3029 102.816 91.7025 103.811 94.2553 103.811C96.808 103.811 99.2076 102.817 101.011 101.011C102.816 99.2075 103.811 96.8069 103.811 94.2552C103.811 92.0229 103.049 89.9063 101.652 88.2038L108.147 69.5404C108.247 69.5435 108.344 69.5559 108.445 69.5559C113.713 69.5559 118 65.2689 118 60.0005C118 55.0523 114.22 50.9729 109.397 50.4927L100.792 32.7012C100.865 32.633 100.941 32.572 101.011 32.5018C102.816 30.6971 103.811 28.2975 103.811 25.7448C103.811 23.192 102.817 20.7924 101.011 18.9878C99.2076 17.1831 96.807 16.1894 94.2553 16.1894C92.0229 16.1894 89.9074 16.9497 88.2038 18.3484L69.5404 11.8529C69.5435 11.7538 69.5559 11.6556 69.5559 11.5554C69.5559 6.28702 65.2689 2 60.0005 2C55.0534 2 50.9729 5.7798 50.4937 10.6029L32.7012 19.2078C32.633 19.1355 32.5731 19.0581 32.5018 18.9878C30.6972 17.1831 28.2976 16.1894 25.7448 16.1894C23.1933 16.1894 20.7924 17.1831 18.9889 18.9878C15.4902 22.4857 15.2773 28.0442 18.3494 31.7941L11.8529 50.4586C11.7527 50.4555 11.6556 50.4431 11.5554 50.4431C6.28702 50.4431 2 54.7301 2 59.9985C2.00103 64.9456 5.78086 69.0261 10.6039 69.5053L10.6039 69.5052ZM13.7855 69.2801C17.5106 68.3844 20.3855 65.308 20.9858 61.4787H37.643C37.9767 66.5488 39.9921 71.1561 43.1478 74.7561L31.3663 86.5376C29.7424 85.3486 27.7962 84.6978 25.7446 84.6978C24.3149 84.6978 22.939 85.0201 21.6839 85.611L13.7855 69.2801ZM60.0011 40.5263C70.7373 40.5263 79.4713 49.2603 79.4713 59.9975C79.4713 70.7337 70.7373 79.4678 60.0011 79.4678C49.2649 79.4678 40.5308 70.7337 40.5308 59.9975C40.5308 49.2613 49.2649 40.5263 60.0011 40.5263ZM25.7467 100.845C23.9864 100.845 22.3305 100.159 21.0847 98.9132C19.8399 97.6685 19.1529 96.0125 19.1529 94.2512C19.1529 92.4899 19.8389 90.834 21.0847 89.5882C22.3294 88.3434 23.9854 87.6564 25.7467 87.6564C27.5079 87.6564 29.1629 88.3423 30.4098 89.5882C31.6545 90.8329 32.3415 92.4889 32.3415 94.2512C32.3415 96.0115 31.6556 97.6674 30.4098 98.9132C29.1629 100.159 27.5079 100.845 25.7467 100.845ZM51.0224 105.203L33.8878 99.2395C34.8031 97.7519 35.302 96.0423 35.302 94.2522C35.302 92.2017 34.6502 90.2545 33.4622 88.6305L45.2438 76.8489C48.8438 80.0059 53.4511 82.0213 58.5211 82.3537V99.011C55.0449 99.5554 52.1907 101.975 51.0226 105.203L51.0224 105.203ZM60.0013 115.034C56.3651 115.034 53.4075 112.076 53.4075 108.441C53.4075 104.804 56.3651 101.847 60.0013 101.847C63.6375 101.847 66.5952 104.804 66.5952 108.441C66.5952 112.076 63.6375 115.034 60.0013 115.034ZM69.2831 106.21C68.3885 102.486 65.311 99.6116 61.4828 99.0113V82.354C66.5528 82.0203 71.1601 80.0049 74.7601 76.8492L86.5417 88.6308C85.3527 90.2546 84.7019 92.2019 84.7019 94.2525C84.7019 95.6811 85.0242 97.058 85.6151 98.3131L69.2831 106.21ZM98.9175 98.9142C97.6727 100.159 96.0167 100.846 94.2555 100.846C92.4942 100.846 90.8393 100.16 89.5924 98.9142C88.3476 97.6694 87.6606 96.0134 87.6606 94.2522C87.6606 92.491 88.3466 90.835 89.5924 89.5891C90.8382 88.3444 92.4932 87.6574 94.2555 87.6574C96.0157 87.6574 97.6716 88.3433 98.9175 89.5891C100.162 90.8339 100.849 92.4899 100.849 94.2522C100.849 96.0124 100.163 97.6684 98.9175 98.9142ZM99.2439 86.11C97.7564 85.1948 96.0467 84.6958 94.2566 84.6958C92.2051 84.6958 90.2589 85.3476 88.6349 86.5356L76.8533 74.754C80.0104 71.154 82.0257 66.5468 82.3582 61.4767H99.0154C99.5598 64.9529 101.978 67.8061 105.206 68.9744L99.2439 86.11ZM115.038 59.9965C115.038 63.6327 112.08 66.5903 108.444 66.5903C104.808 66.5903 101.85 63.6327 101.85 59.9965C101.85 56.3603 104.809 53.4027 108.444 53.4027C112.08 53.4027 115.038 56.3613 115.038 59.9965ZM106.216 50.7137C102.491 51.6093 99.616 54.6858 99.0157 58.515L82.3584 58.5161C82.0248 53.446 80.0094 48.8387 76.8536 45.2388L88.6352 33.4572C90.2591 34.6462 92.2053 35.297 94.2569 35.297C95.6866 35.297 97.0624 34.9747 98.3186 34.3838L106.216 50.7137ZM94.2556 19.1488C96.0158 19.1488 97.6717 19.8347 98.9176 21.0795C101.488 23.6507 101.488 27.8333 98.9176 30.4046C97.6728 31.6494 96.0168 32.3363 94.2556 32.3363C92.4943 32.3363 90.8394 31.6504 89.5925 30.4046C87.0223 27.8334 87.0223 23.6508 89.5925 21.0795C90.8383 19.8347 92.4943 19.1488 94.2556 19.1488ZM68.9798 14.7906L86.1165 20.7543C84.1156 24.0208 84.2582 28.2303 86.5422 31.3622L74.7595 43.1449C71.1595 39.9889 66.5523 37.9735 61.4822 37.64V20.9828C64.9574 20.4384 67.8116 18.0201 68.9799 14.7909L68.9798 14.7906ZM60.0009 4.96046C63.6371 4.96046 66.5947 7.91808 66.5947 11.5543C66.5947 15.1894 63.6371 18.1481 60.0009 18.1481C56.3647 18.1481 53.4071 15.1894 53.4071 11.5543C53.4071 7.91808 56.3647 4.96046 60.0009 4.96046ZM50.7192 13.7833C51.6138 17.5074 54.6902 20.3822 58.5195 20.9825V37.6398C53.4494 37.9734 48.8421 39.9888 45.2421 43.1456L33.4595 31.363C35.5328 28.5202 35.8406 24.7919 34.3841 21.6836L50.7192 13.7833ZM21.0848 21.0796C22.3295 19.8348 23.9855 19.1489 25.7468 19.1489C27.508 19.1489 29.164 19.8348 30.4099 21.0796C32.98 23.6507 32.98 27.8334 30.4099 30.4046C29.1641 31.6494 27.5091 32.3364 25.7468 32.3364C23.9865 32.3364 22.3306 31.6504 21.0848 30.4046C18.5136 27.8335 18.5136 23.6508 21.0848 21.0796ZM20.7583 33.8848C22.2459 34.8001 23.9555 35.299 25.7456 35.299C27.7972 35.299 29.7433 34.6472 31.3673 33.4592L43.1489 45.2408C39.9919 48.8408 37.9776 53.4481 37.6441 58.5181L20.9868 58.5171C20.4424 55.0409 18.0242 52.1867 14.796 51.0186L20.7583 33.8848ZM11.5573 53.4037C15.1935 53.4037 18.1511 56.3624 18.1511 59.9975C18.1511 63.6338 15.1924 66.5914 11.5573 66.5914C7.92107 66.5914 4.96344 63.6338 4.96344 59.9975C4.96448 56.3624 7.92213 53.4037 11.5573 53.4037Z" stroke="#81B0AE" stroke-width="3" mask="url(#path-1-outside-1_3771_6871)"/>
<path d="M63.6919 66.2676C63.6618 66.2864 63.5896 66.3204 63.2651 66.3328H63.0976H57.2953H57.1267C56.8022 66.3204 56.7297 66.2864 56.6995 66.2675C56.6638 66.2451 56.5662 66.1655 56.3412 65.7011L56.3403 65.6993L54.3042 61.526L54.3042 61.526L54.3022 61.5218L54.2966 61.5105C54.0071 60.9264 53.8771 60.664 53.8771 60.1896C53.8771 59.6186 54.0044 59.3115 54.3043 58.6847L56.3865 54.4925L56.3867 54.4921C56.6201 54.0215 56.6959 53.9643 56.7151 53.952C56.725 53.9457 56.7708 53.9168 57.0415 53.9038H57.2963H63.0987H63.3526C63.6231 53.9168 63.6693 53.9458 63.6795 53.9523C63.6992 53.9649 63.7752 54.0227 64.0085 54.4924L64.0085 54.4925L64.8762 56.2394L65.0831 56.6557H65.5479H68.1996H69.4066L68.872 55.5735L67.4623 52.72C67.4621 52.7196 67.4619 52.7192 67.4617 52.7188C67.0181 51.8117 66.4771 51.1019 65.7292 50.6319C64.9802 50.1612 64.1072 49.9834 63.0986 49.9834H62.1844V47.4309V46.6809H61.4344H58.9614H58.2114V47.4309V49.9834H57.2972C56.2886 49.9834 55.4158 50.1612 54.6669 50.632C53.9192 51.1019 53.3783 51.8116 52.9343 52.7184C52.9341 52.7188 52.9339 52.7192 52.9337 52.7197L50.7312 57.1783C50.7311 57.1786 50.7309 57.1788 50.7308 57.1791C50.2111 58.2253 49.9824 58.9899 49.9824 60.1896C49.9824 61.2761 50.264 62.1623 50.7065 63.0545C50.7068 63.055 50.707 63.0554 50.7072 63.0559L52.9088 67.5392C52.9089 67.5394 52.909 67.5396 52.9091 67.5398C53.3294 68.3995 53.8559 69.0976 54.5832 69.5718C55.3145 70.0487 56.1748 70.2511 57.1755 70.2511H58.2095V72.5672V73.3172H58.9595H61.4325H62.1825V72.5672V70.2511H63.2165C64.2172 70.2511 65.0775 70.0487 65.8089 69.5718C66.5361 69.0976 67.0626 68.3996 67.4829 67.5399C67.483 67.5397 67.4831 67.5394 67.4832 67.5392L69.0145 64.423L69.5455 63.3423H68.3413H65.6698H65.2012L64.9958 63.7635L64.0516 65.6994L64.051 65.7005C63.8253 66.1653 63.7277 66.2451 63.6919 66.2676Z" fill="#222222" stroke="#222222" stroke-width="1.5"/>
</svg>
