<svg width="33" height="33" viewBox="0 0 33 33" fill="none" xmlns="http://www.w3.org/2000/svg">
<path d="M16.5 33C25.6127 33 33 25.6127 33 16.5C33 7.3873 25.6127 0 16.5 0C7.3873 0 0 7.3873 0 16.5C0 25.6127 7.3873 33 16.5 33Z" fill="#627EEA"/>
<path d="M17.0127 4.12482V13.272L24.744 16.7267L17.0127 4.12482Z" fill="white" fill-opacity="0.602"/>
<path d="M17.0119 4.12497L9.27954 16.7268L17.0119 13.2722V4.12497Z" fill="white"/>
<path d="M17.0127 22.6545V28.8699L24.7491 18.1665L17.0127 22.6545Z" fill="white" fill-opacity="0.602"/>
<path d="M17.0119 28.8699V22.6535L9.27954 18.1665L17.0119 28.8699Z" fill="white"/>
<path d="M17.0127 21.2157L24.744 16.7266L17.0127 13.274V21.2157Z" fill="white" fill-opacity="0.2"/>
<path d="M9.27954 16.7266L17.0119 21.2157V13.274L9.27954 16.7266Z" fill="white" fill-opacity="0.602"/>
</svg>
