<svg width="34" height="34" viewBox="0 0 34 34" fill="none" xmlns="http://www.w3.org/2000/svg">
<path d="M17 34C26.3888 34 34 26.3888 34 17C34 7.61116 26.3888 0 17 0C7.61116 0 0 7.61116 0 17C0 26.3888 7.61116 34 17 34Z" fill="#3AB83A"/>
<mask id="mask0_4088_3272" style="mask-type:alpha" maskUnits="userSpaceOnUse" x="0" y="0" width="34" height="34">
<path d="M17 34C26.3888 34 34 26.3888 34 17C34 7.61116 26.3888 0 17 0C7.61116 0 0 7.61116 0 17C0 26.3888 7.61116 34 17 34Z" fill="white"/>
</mask>
<g mask="url(#mask0_4088_3272)">
<path fill-rule="evenodd" clip-rule="evenodd" d="M13.0769 16.1186L17.6726 13.1312L22.2308 16.1372L17.6526 7.84613L13.0769 16.1186ZM13.2522 16.9814L17.6776 14.0652L22.0454 16.9598L17.6801 19.8791L13.2522 16.9814ZM13.0769 17.8164C14.6898 18.874 16.3728 19.9812 17.6726 20.8378L22.2308 17.8164C20.5803 20.844 19.2053 23.3644 17.6726 26.1538L16.733 24.4506C15.4702 22.1618 14.1679 19.8014 13.0769 17.8164Z" fill="white"/>
<path fill-rule="evenodd" clip-rule="evenodd" d="M17.6538 7.84613L17.671 13.1312L22.2307 16.1372L17.6538 7.84613ZM17.6753 14.0652L22.0719 16.9598L17.6774 19.8791L17.6753 14.0652ZM17.671 20.8378L22.2307 17.8164C20.8164 20.844 17.671 26.1538 17.671 26.1538V20.8378Z" fill="white"/>
</g>
</svg>
