<svg width="14" height="12" viewBox="0 0 14 12" fill="none" xmlns="http://www.w3.org/2000/svg">
<path d="M2.33364 1.33337L11.667 10.6667M9.6253 8.77436C8.83629 9.1994 7.94449 9.50003 7.0003 9.50003C4.94076 9.50003 3.13067 8.06965 2.09267 7.03771C1.81868 6.76532 1.6817 6.62915 1.5945 6.36181C1.53231 6.17116 1.53229 5.82876 1.5945 5.63812C1.68173 5.37079 1.81899 5.23435 2.09352 4.96148C2.61671 4.44146 3.33587 3.82043 4.18415 3.33228M11.3753 7.53633C11.5696 7.36546 11.7475 7.19735 11.9072 7.03864C12.1818 6.76574 12.3189 6.62928 12.4062 6.36195C12.4684 6.17131 12.4686 5.82894 12.4064 5.63829C12.3192 5.37095 12.1821 5.23475 11.9081 4.96235C10.8701 3.93042 9.05985 2.50004 7.0003 2.50004C6.80343 2.50004 6.60883 2.51311 6.41697 2.53765M7.772 6.875C7.56634 7.05653 7.29618 7.16667 7.0003 7.16667C6.35597 7.16667 5.83364 6.64434 5.83364 6C5.83364 5.68529 5.95825 5.39969 6.16082 5.18984" stroke="#C2C2C2" stroke-width="1.5" stroke-linecap="round" stroke-linejoin="round"/>
</svg>
