<svg width="72" height="73" viewBox="0 0 72 73" fill="none" xmlns="http://www.w3.org/2000/svg">
<path fill-rule="evenodd" clip-rule="evenodd" d="M50.2716 23.8497C43.8802 18.4904 33.6969 14.5602 25.5768 16.0646C18.6768 17.3429 14.0269 24.6596 16.5088 31.7055C18.5902 37.6143 22.8176 41.4495 25.1673 43.0236C25.3202 43.126 25.4643 51.3492 25.5927 51.3746C25.6474 51.3854 33.8041 48.2001 34.013 48.3092C39.3401 51.0902 45.4869 52.6161 50.3911 51.4397C56.6432 49.9399 60.4121 42.347 58.6442 35.3646C57.6809 31.5596 54.8502 27.4549 51.8317 25.0188" fill="#F2F2F2"/>
<path d="M50.2716 23.8497C43.8802 18.4904 33.6969 14.5602 25.5768 16.0646C18.6768 17.3429 14.0269 24.6596 16.5088 31.7055C18.5902 37.6143 22.8176 41.4495 25.1673 43.0236C25.3202 43.126 25.4643 51.3492 25.5927 51.3746C25.6474 51.3854 33.8041 48.2001 34.013 48.3092C39.3401 51.0902 45.4869 52.6161 50.3911 51.4397C56.6432 49.9399 60.4121 42.347 58.6442 35.3646C57.6809 31.5596 54.8502 27.4549 51.8317 25.0188" stroke="#D4D4D4" stroke-miterlimit="1.5" stroke-linecap="round" stroke-linejoin="round"/>
<path d="M32.4311 31.7943C32.939 32.1231 33.5316 32.0105 33.8442 31.5276C34.1675 31.0281 34.0383 30.4246 33.5305 30.0959C33.0226 29.7671 32.4191 29.8964 32.0958 30.3959C31.7832 30.8788 31.9232 31.4656 32.4311 31.7943Z" fill="#D4D4D4"/>
<path d="M36.7566 34.5941C37.2645 34.9229 37.8572 34.8103 38.1697 34.3274C38.4931 33.8279 38.3638 33.2244 37.856 32.8957C37.3481 32.5669 36.7446 32.6962 36.4213 33.1957C36.1087 33.6786 36.2487 34.2654 36.7566 34.5941Z" fill="#D4D4D4"/>
<path d="M41.0821 37.3939C41.59 37.7226 42.1827 37.6101 42.4952 37.1272C42.8186 36.6276 42.6894 36.0242 42.1815 35.6955C41.6736 35.3667 41.0702 35.4959 40.7468 35.9955C40.4342 36.4784 40.5742 37.0652 41.0821 37.3939Z" fill="#D4D4D4"/>
</svg>
