<svg width="89" height="92" viewBox="0 0 89 92" fill="none" xmlns="http://www.w3.org/2000/svg">
<path fill-rule="evenodd" clip-rule="evenodd" d="M66.4044 50.0382C69.7669 51.801 74.2555 53.751 77.6024 55.536C77.7628 54.6269 77.9584 53.9775 78.1104 52.9507C80.3254 54.9032 81.6364 56.7477 82.9695 58.9419C81.1218 59.634 77.0595 60.1818 74.6663 60.0137C74.9916 59.6113 75.7171 58.8196 76.4214 58.1541C73.1864 56.8899 68.5361 55.568 65.2076 54.5768C64.9298 54.4941 64.6517 54.4128 64.3732 54.3323C62.266 57.9391 59.2339 61.2388 55.2005 63.9183C41.0758 73.3019 24.9439 69.82 17.7756 55.0507C12.3169 43.8038 16.4257 28.428 25.801 20.684C28.4001 18.0706 34.1887 16.3949 37.4832 15.8276C47.8551 14.041 60.2031 17.9253 65.5095 28.9994C68.5457 35.3359 69.007 43.0076 66.4044 50.0382Z" fill="#F2F2F2"/>
<path fill-rule="evenodd" clip-rule="evenodd" d="M25.5833 20.4444C20.8411 24.3666 17.4414 30.2063 15.9117 36.477C14.3806 42.7534 14.7168 49.4884 17.485 55.192C21.1085 62.6578 27.0099 67.2899 33.8073 68.8573C40.6011 70.4238 48.2553 68.9214 55.3803 64.1879C59.3731 61.5354 62.3984 58.2782 64.525 54.7132C64.7222 54.7706 64.9192 54.8285 65.1159 54.8871L65.2083 54.5768L65.1159 54.8871C65.5893 55.0281 66.0888 55.1755 66.6066 55.3284C69.5645 56.2018 73.1198 57.2516 75.8326 58.2747C75.2458 58.8567 74.6933 59.4661 74.4152 59.8102C74.3394 59.904 74.322 60.0322 74.3702 60.1429C74.4183 60.2535 74.524 60.3282 74.6443 60.3366C75.8708 60.4228 77.5083 60.3253 79.0651 60.1214C80.6195 59.9178 82.1255 59.604 83.0837 59.2451C83.174 59.2112 83.2446 59.1389 83.2761 59.0478C83.3076 58.9567 83.2969 58.8562 83.2468 58.7738C81.9042 56.564 80.5735 54.6898 78.3251 52.7078C78.2361 52.6293 78.1112 52.6059 77.9998 52.6466C77.8883 52.6874 77.8081 52.7859 77.7908 52.9033C77.7164 53.406 77.6313 53.8169 77.5439 54.2187C77.5303 54.2811 77.5166 54.3434 77.5029 54.406C77.4574 54.6138 77.4114 54.8236 77.3667 55.045C75.7749 54.2111 73.9591 53.3459 72.1488 52.4863L71.9104 52.3732C70.1252 51.5257 68.3547 50.6852 66.8064 49.8824C69.3297 42.8426 68.8374 35.1941 65.8021 28.8595C60.416 17.6193 47.9004 13.7048 37.4289 15.5085C35.7638 15.7953 33.4733 16.361 31.2686 17.1853C29.0784 18.0042 26.9338 19.0924 25.5833 20.4444ZM31.4953 17.7917C33.6584 16.983 35.9094 16.4272 37.5388 16.1466L37.5388 16.1466C47.8111 14.3771 59.9914 18.2314 65.2182 29.1393C68.2168 35.3972 68.6734 42.9778 66.1014 49.9258C66.0449 50.0785 66.1106 50.2494 66.2547 50.3249C67.873 51.1733 69.7495 52.0641 71.6275 52.9556L71.8711 53.0712C73.8332 54.0028 75.7851 54.9333 77.4507 55.8217C77.5422 55.8705 77.6516 55.8725 77.7448 55.8271C77.838 55.7817 77.9039 55.6944 77.9219 55.5923C77.9882 55.2159 78.0606 54.8859 78.1348 54.5471C78.1487 54.4839 78.1626 54.4204 78.1765 54.3563C78.2295 54.1128 78.2825 53.862 78.3332 53.5875C80.1464 55.2658 81.3212 56.8856 82.4833 58.7668C81.5898 59.0496 80.3188 59.3042 78.9811 59.4794C77.7195 59.6446 76.4202 59.7364 75.3497 59.7183C75.7066 59.3225 76.1799 58.8283 76.6444 58.3894C76.725 58.3133 76.761 58.2011 76.7399 58.0923C76.7187 57.9834 76.6432 57.893 76.5399 57.8526C73.7492 56.762 69.914 55.6297 66.7845 54.7058C66.268 54.5533 65.7708 54.4065 65.3007 54.2665C65.0218 54.1835 64.7428 54.1019 64.4637 54.0213C64.3213 53.9802 64.1691 54.0411 64.0944 54.169C62.0124 57.7325 59.0149 60.996 55.022 63.6486C48.0224 68.2988 40.5482 69.7472 33.9528 68.2264C27.3609 66.7064 21.6123 62.2129 18.0675 54.9093C15.377 49.3661 15.0382 42.7897 16.5407 36.6305C18.0432 30.4709 21.381 24.7553 26.0078 20.9336C26.0159 20.9268 26.0237 20.9197 26.0311 20.9123C27.2805 19.6561 29.324 18.6036 31.4953 17.7917Z" fill="#D5D5D5"/>
<path d="M36.1311 40.2561C35.5034 42.5312 36.368 44.5727 38.2824 45.4657L39.3039 43.4771C38.3315 43.0537 37.7921 42.0948 38.1224 40.8621C38.3894 39.8658 39.1333 39.2507 40.1127 39.5132C41.8688 39.9837 41.1394 43.5165 43.7905 44.2269L44.3477 44.3762L44.9495 42.1304L44.5273 42.0172C42.8219 41.5603 43.7551 38.0097 40.665 37.1817C38.4867 36.598 36.7329 38.0103 36.1311 40.2561ZM48.9748 44.331C49.2011 43.4867 48.8022 42.7464 47.9917 42.5292C47.1474 42.303 46.4149 42.7402 46.1887 43.5845C45.967 44.4119 46.3782 45.1736 47.2225 45.3998C48.033 45.617 48.7531 45.1584 48.9748 44.331Z" fill="#D4D4D4"/>
</svg>
