<svg width="104" height="102" viewBox="0 0 104 102" fill="none" xmlns="http://www.w3.org/2000/svg">
<path fill-rule="evenodd" clip-rule="evenodd" d="M37.3379 21.2231C25.435 29.5639 14.2273 44.9312 13.0972 59.277C12.1369 71.4672 22.3548 82.5934 35.3334 81.5937C46.2175 80.7553 54.5793 75.3697 58.2883 72.1247C58.5297 71.9135 72.4354 75.3797 72.5361 75.175C72.579 75.0878 70.8962 59.9224 71.1741 59.6199C78.2575 51.9078 83.598 42.25 83.8297 33.465C84.125 22.2656 73.0448 12.4975 60.4951 12.324C53.6563 12.2294 45.4709 15.1426 40.0093 19.1246" fill="#F2F2F2"/>
<path d="M37.3379 21.2231C25.435 29.5639 14.2273 44.9312 13.0972 59.277C12.1369 71.4672 22.3548 82.5934 35.3334 81.5937C46.2175 80.7553 54.5793 75.3697 58.2883 72.1247C58.5297 71.9135 72.4354 75.3797 72.5361 75.175C72.579 75.0878 70.8962 59.9224 71.1741 59.6199C78.2575 51.9078 83.598 42.25 83.8297 33.465C84.125 22.2656 73.0448 12.4975 60.4951 12.324C53.6563 12.2294 45.4709 15.1426 40.0093 19.1246" stroke="#D4D4D4" stroke-miterlimit="1.5" stroke-linecap="round" stroke-linejoin="round"/>
<path d="M42.6618 54.8382C43.4441 54.1317 43.522 53.0833 42.8501 52.3395C42.1552 51.5699 41.0812 51.5153 40.2988 52.2218C39.5165 52.9284 39.4618 54.0024 40.1568 54.7719C40.8286 55.5158 41.8794 55.5448 42.6618 54.8382Z" fill="#D4D4D4"/>
<path d="M49.325 48.8205C50.1074 48.1139 50.1852 47.0656 49.5134 46.3217C48.8184 45.5522 47.7444 45.4975 46.9621 46.2041C46.1797 46.9106 46.125 47.9846 46.82 48.7541C47.4918 49.498 48.5426 49.527 49.325 48.8205Z" fill="#D4D4D4"/>
<path d="M55.9882 42.8027C56.7706 42.0961 56.8484 41.0478 56.1766 40.3039C55.4816 39.5344 54.4076 39.4797 53.6253 40.1863C52.8429 40.8929 52.7883 41.9669 53.4833 42.7364C54.1551 43.4803 55.2059 43.5093 55.9882 42.8027Z" fill="#D4D4D4"/>
</svg>
