<svg width="135" height="141" viewBox="0 0 135 141" fill="none" xmlns="http://www.w3.org/2000/svg">
<path fill-rule="evenodd" clip-rule="evenodd" d="M32.6832 76.734C27.4898 79.4565 20.5573 82.4684 15.388 85.2253C15.1403 83.8211 14.8381 82.8182 14.6035 81.2322C11.1824 84.2479 9.15762 87.0967 7.09856 90.4856C9.95241 91.5546 16.2266 92.4006 19.9227 92.141C19.4204 91.5195 18.2998 90.2968 17.212 89.2689C22.2085 87.3164 29.3909 85.2746 34.5316 83.7438C34.9607 83.616 35.3903 83.4904 35.8204 83.3662C39.075 88.9368 43.758 94.0331 49.9875 98.1716C71.8029 112.665 96.7186 107.287 107.79 84.4757C116.221 67.105 109.875 43.3572 95.3948 31.3966C91.3804 27.3603 82.4401 24.7723 77.3517 23.896C61.3325 21.1366 42.2611 27.136 34.0654 44.2397C29.3759 54.0264 28.6636 65.8752 32.6832 76.734Z" fill="#F2F2F2" stroke="#D5D5D5" stroke-miterlimit="1.5" stroke-linecap="round" stroke-linejoin="round"/>
<path d="M78.8345 60.0234C77.2342 56.7484 74.1456 55.27 71.0166 56.1944L71.8682 59.5406C73.4267 59.0361 75.0317 59.5943 75.9101 61.3587C76.6201 62.7848 76.3881 64.2575 74.9863 64.9554C72.4726 66.2069 69.7037 61.3722 65.9089 63.2615L65.1113 63.6586L66.7118 66.8732L67.316 66.5724C69.7572 65.357 72.3084 70.4207 76.7315 68.2186C79.8495 66.6663 80.4349 63.2381 78.8345 60.0234ZM59.8023 68.4432C60.404 69.6517 61.6227 70.1005 62.7829 69.5229C63.9914 68.9213 64.392 67.6662 63.7904 66.4577C63.2007 65.2733 61.9458 64.8123 60.7372 65.414C59.5771 65.9916 59.2127 67.2588 59.8023 68.4432Z" fill="#D4D4D4"/>
</svg>
