<svg width="34" height="35" viewBox="0 0 34 35" fill="none" xmlns="http://www.w3.org/2000/svg">
<path d="M17 34.0312C26.3888 34.0312 34 26.4131 34 17.0156C34 7.61815 26.3888 0 17 0C7.61116 0 0 7.61815 0 17.0156C0 26.4131 7.61116 34.0312 17 34.0312Z" fill="#00EF8B"/>
<path d="M24.4459 14.3612H19.6519V19.1596H24.4459V14.3612Z" fill="white"/>
<path d="M14.858 20.9633C14.858 21.9502 14.042 22.7669 13.056 22.7669C12.07 22.7669 11.254 21.9502 11.254 20.9633C11.254 19.9764 12.07 19.1596 13.056 19.1596H14.858V14.3612H13.056C9.41796 14.3612 6.45996 17.3219 6.45996 20.9633C6.45996 24.6046 9.41796 27.5653 13.056 27.5653C16.694 27.5653 19.652 24.6046 19.652 20.9633V19.1596H14.858V20.9633Z" fill="white"/>
<path d="M21.4539 11.945H26.8599V7.14661H21.4539C17.8159 7.14661 14.8579 10.1073 14.8579 13.7487V14.3612H19.6519V13.7487C19.6519 12.7618 20.4679 11.945 21.4539 11.945Z" fill="white"/>
<path d="M19.6519 14.3612H14.8579V19.1596H19.6519V14.3612Z" fill="#396955"/>
</svg>
