<svg width="33" height="33" viewBox="0 0 33 33" fill="none" xmlns="http://www.w3.org/2000/svg">
<circle cx="16.5" cy="16.5" r="16.5" fill="#02A6C2"/>
<path d="M12.9995 9.62689C17.0158 9.62567 21.0324 9.62567 25.0492 9.62689C25.0504 10.9098 25.0504 12.1925 25.0492 13.475C21.0328 13.4762 17.0162 13.4762 12.9995 13.475C12.9982 12.1921 12.9982 10.9094 12.9995 9.62689Z" fill="white"/>
<path d="M8.25504 14.9229C9.5508 14.9163 10.8468 14.9163 12.143 14.9229C12.1497 16.2034 12.1497 17.4842 12.143 18.7651C10.8468 18.7717 9.55086 18.7718 8.25504 18.7654C8.24832 17.4847 8.24832 16.2039 8.25504 14.9229Z" fill="#5FCADE"/>
<path d="M13.0026 14.9235C15.9015 14.9174 18.8002 14.9174 21.6987 14.9235C21.7049 16.204 21.7049 17.4847 21.6987 18.7657C18.7999 18.7716 15.9012 18.7716 13.0026 18.7657C12.9965 17.4851 12.9965 16.2044 13.0026 14.9235Z" fill="#5FCADE"/>
<path d="M13.0059 20.2194C14.2995 20.2055 15.5929 20.2055 16.886 20.2194C16.8994 21.4969 16.8996 22.775 16.8866 24.0538C15.593 24.0664 14.2997 24.0661 13.0066 24.0531C12.9931 22.7757 12.9929 21.4978 13.0059 20.2194Z" fill="#ABEBF4"/>
</svg>
