<svg width="12" height="12" viewBox="0 0 12 12" fill="none" xmlns="http://www.w3.org/2000/svg">
<path d="M0.75 6.65H11.25V5.35H0.75V6.65ZM6 10.6C3.45949 10.6 1.4 8.54051 1.4 6H0.1C0.1 9.25848 2.74152 11.9 6 11.9V10.6ZM1.4 6C1.4 3.45949 3.45949 1.4 6 1.4V0.1C2.74152 0.1 0.1 2.74152 0.1 6H1.4ZM6 1.4C8.54051 1.4 10.6 3.45949 10.6 6H11.9C11.9 2.74152 9.25848 0.1 6 0.1V1.4ZM10.6 6C10.6 8.54051 8.54051 10.6 6 10.6V11.9C9.25848 11.9 11.9 9.25848 11.9 6H10.6ZM6 10.6C5.88933 10.6 5.73496 10.5522 5.53986 10.3666C5.34141 10.1777 5.13312 9.87371 4.94406 9.44832C4.56667 8.59919 4.31667 7.38057 4.31667 6H3.01667C3.01667 7.51892 3.289 8.9253 3.75611 9.9763C3.9893 10.501 4.2838 10.9658 4.64366 11.3083C5.00687 11.6539 5.46634 11.9 6 11.9V10.6ZM4.31667 6C4.31667 4.61943 4.56667 3.40081 4.94406 2.55168C5.13312 2.12629 5.34141 1.82229 5.53986 1.63343C5.73496 1.44776 5.88933 1.4 6 1.4V0.1C5.46634 0.1 5.00687 0.346058 4.64366 0.691714C4.2838 1.03418 3.9893 1.49902 3.75611 2.0237C3.289 3.07469 3.01667 4.48108 3.01667 6H4.31667ZM6 1.4C6.11067 1.4 6.26504 1.44776 6.46014 1.63343C6.65859 1.82229 6.86688 2.12629 7.05594 2.55168C7.43333 3.40081 7.68333 4.61943 7.68333 6H8.98333C8.98333 4.48108 8.711 3.07469 8.24389 2.0237C8.0107 1.49902 7.7162 1.03418 7.35634 0.691714C6.99313 0.346058 6.53366 0.1 6 0.1V1.4ZM7.68333 6C7.68333 7.38057 7.43333 8.59919 7.05594 9.44832C6.86688 9.87371 6.65859 10.1777 6.46014 10.3666C6.26504 10.5522 6.11067 10.6 6 10.6V11.9C6.53366 11.9 6.99313 11.6539 7.35634 11.3083C7.7162 10.9658 8.0107 10.501 8.24389 9.9763C8.711 8.9253 8.98333 7.51892 8.98333 6H7.68333Z" fill="#A5A4AA"/>
</svg>
