<svg width="26" height="26" viewBox="0 0 26 26" fill="none" xmlns="http://www.w3.org/2000/svg">
<path d="M24.9998 13.2773C25.0145 12.4165 24.9259 11.5556 24.7389 10.7195H13.0469V15.365H19.9115C19.6507 17.0125 18.7305 18.4769 17.3674 19.4268L17.3428 19.5801L21.0384 22.4594L21.2943 22.4842C23.6416 20.3024 24.9998 17.0916 24.9998 13.2773Z" fill="#4285F4"/>
<path d="M13.049 25.5169C16.41 25.5169 19.2346 24.4038 21.2964 22.4842L17.3695 19.4219C16.095 20.2827 14.5843 20.7181 13.0539 20.6735C9.82578 20.6537 6.97166 18.5561 5.9678 15.469L5.82017 15.4838L1.97694 18.472L1.92773 18.6105C4.03388 22.8503 8.33967 25.5219 13.049 25.5169Z" fill="#34A853"/>
<path d="M5.96144 15.474C5.69079 14.6775 5.54808 13.8414 5.54808 12.9954C5.55301 12.1544 5.69079 11.3183 5.9516 10.5168L5.94668 10.3535L2.05424 7.31592L1.9263 7.37528C0.154775 10.9126 0.154775 15.0782 1.9263 18.6155L5.96144 15.474Z" fill="#FBBC05"/>
<path d="M13.0451 5.3221C14.8314 5.29242 16.5537 5.9603 17.8578 7.18723L21.3713 3.73897C19.1175 1.61164 16.1306 0.449031 13.0402 0.483662C8.33092 0.483662 4.02513 3.15025 1.91406 7.38512L5.93936 10.5266C6.95307 7.43954 9.81211 5.34189 13.0451 5.3221Z" fill="#EB4335"/>
</svg>
