<svg width="32" height="150" viewBox="0 0 32 150" fill="none" xmlns="http://www.w3.org/2000/svg">
<circle cx="16" cy="16" r="16" fill="white"/>
<circle cx="16" cy="134" r="16" fill="white"/>
<circle cx="16" cy="16" r="7" fill="#F12A23"/>
<circle cx="16" cy="134" r="7" fill="#F12A23"/>
<path d="M15.7633 17.1834C15.8559 17.2668 15.9761 17.313 16.1008 17.313C16.2254 17.313 16.3457 17.2668 16.4383 17.1834L18.2716 15.4375C18.3492 15.3595 18.3928 15.2539 18.3928 15.1438C18.3928 15.0337 18.3492 14.9281 18.2716 14.85C18.2329 14.811 18.1868 14.78 18.136 14.7588C18.0852 14.7377 18.0308 14.7268 17.9758 14.7268C17.9208 14.7268 17.8663 14.7377 17.8155 14.7588C17.7648 14.78 17.7187 14.811 17.6799 14.85L16.1508 16.2917C16.1318 16.3084 16.1073 16.3176 16.082 16.3176C16.0567 16.3176 16.0323 16.3084 16.0133 16.2917L14.2924 14.7959C14.209 14.7229 14.1 14.6861 13.9895 14.6936C13.8789 14.701 13.7758 14.752 13.7029 14.8355C13.6299 14.9189 13.5931 15.0279 13.6005 15.1385C13.608 15.249 13.659 15.3521 13.7424 15.425L15.7633 17.1834Z" fill="white"/>
<path d="M15.7633 135.183C15.8559 135.267 15.9761 135.313 16.1008 135.313C16.2254 135.313 16.3457 135.267 16.4383 135.183L18.2716 133.438C18.3492 133.359 18.3928 133.254 18.3928 133.144C18.3928 133.034 18.3492 132.928 18.2716 132.85C18.2329 132.811 18.1868 132.78 18.136 132.759C18.0852 132.738 18.0308 132.727 17.9758 132.727C17.9208 132.727 17.8663 132.738 17.8155 132.759C17.7648 132.78 17.7187 132.811 17.6799 132.85L16.1508 134.292C16.1318 134.308 16.1073 134.318 16.082 134.318C16.0567 134.318 16.0323 134.308 16.0133 134.292L14.2924 132.796C14.209 132.723 14.1 132.686 13.9895 132.694C13.8789 132.701 13.7758 132.752 13.7029 132.835C13.6299 132.919 13.5931 133.028 13.6005 133.138C13.608 133.249 13.659 133.352 13.7424 133.425L15.7633 135.183Z" fill="white"/>
<line x1="16.5" y1="35.5" x2="16.5" y2="114.5" stroke="#F12A23" stroke-linecap="round" stroke-dasharray="0.1 5"/>
</svg>
