<svg width="14" height="7" viewBox="0 0 14 7" fill="none" xmlns="http://www.w3.org/2000/svg">
<path d="M7.75 3C7.88807 3 8 3.11193 8 3.25L8 3.75C8 3.88807 7.88807 4 7.75 4L7.25 4C7.11193 4 7 3.88807 7 3.75L7 3.25C7 3.11193 7.11193 3 7.25 3L7.75 3Z" fill="white"/>
<path opacity="0.3" d="M10.75 3C10.8881 3 11 3.11193 11 3.25L11 3.75C11 3.88807 10.8881 4 10.75 4L10.25 4C10.1119 4 10 3.88807 10 3.75L10 3.25C10 3.11193 10.1119 3 10.25 3L10.75 3Z" fill="white"/>
<path opacity="0.1" d="M13.75 3C13.8881 3 14 3.11193 14 3.25L14 3.75C14 3.88807 13.8881 4 13.75 4L13.25 4C13.1119 4 13 3.88807 13 3.75L13 3.25C13 3.11193 13.1119 3 13.25 3L13.75 3Z" fill="white"/>
<path fill-rule="evenodd" clip-rule="evenodd" d="M3.02584 6.86079L0.133133 3.83608C-0.0443778 3.65047 -0.0443778 3.34953 0.133133 3.16392L3.02584 0.139209C3.20335 -0.0464029 3.49116 -0.0464029 3.66867 0.139209C3.84618 0.32482 3.84618 0.625756 3.66867 0.811367L1.55192 3.02471L4.54545 3.02471C4.79649 3.02471 5 3.23751 5 3.5C5 3.76249 4.79649 3.97529 4.54545 3.97529L1.55191 3.97529L3.66867 6.18863C3.84618 6.37424 3.84618 6.67518 3.66867 6.86079C3.49116 7.0464 3.20335 7.0464 3.02584 6.86079Z" fill="white"/>
</svg>
