<svg width="36" height="37" viewBox="0 0 36 37" fill="none" xmlns="http://www.w3.org/2000/svg">
<path d="M14.6331 11.3277C14.9075 12.7145 16.1114 13.705 17.5286 13.705C18.9306 13.705 20.1498 12.6992 20.4241 11.3277L20.7746 9.49898C20.8965 8.6151 20.6222 7.73122 20.0431 7.07593C19.464 6.4054 18.6259 6.02441 17.742 6.02441H17.3305C16.4466 6.02441 15.6085 6.4054 15.0294 7.07593C14.4503 7.74646 14.176 8.63034 14.3131 9.5447L14.6331 11.3277ZM16.0352 7.97505C16.3552 7.60931 16.8276 7.39596 17.3305 7.39596H17.742C18.2296 7.39596 18.7021 7.60931 19.0373 7.97505C19.3573 8.34079 19.5097 8.84369 19.4488 9.30087L19.0983 11.0839C18.9459 11.8306 18.2906 12.3792 17.5286 12.3792C16.7667 12.3792 16.1114 11.8306 15.959 11.0839L15.6237 9.33135C15.5627 8.84369 15.7151 8.34079 16.0352 7.97505Z" fill="white"/>
<path d="M23.593 20.9894C23.9587 20.9132 24.1873 20.5475 24.1111 20.1817L23.3644 16.6462C23.273 16.189 22.9377 15.808 22.4957 15.6556L20.0727 14.8022C19.8289 14.7108 19.5698 14.7718 19.3869 14.9394L17.5277 16.6767L15.6685 14.9394C15.4856 14.7718 15.2113 14.7108 14.9827 14.8022L12.5597 15.6556C12.1177 15.808 11.7825 16.189 11.691 16.6462L10.9443 20.1817C10.8681 20.5475 11.0967 20.9132 11.4625 20.9894C11.5082 21.0047 11.5539 21.0047 11.5996 21.0047C11.9044 21.0047 12.1939 20.7913 12.2549 20.4713L13.0016 16.9357L15.0285 16.2195L17.0401 18.1092C17.2991 18.353 17.7106 18.353 17.9697 18.1092L19.9813 16.2195L22.0081 16.9357L22.7548 20.4713C22.8615 20.837 23.2272 21.0656 23.593 20.9894Z" fill="white"/>
<path d="M24.8433 26.7804C24.9805 26.8262 25.1633 26.8871 25.3919 26.8719C25.7577 26.8566 26.0929 26.7043 26.352 26.4452C26.6263 26.1709 26.7787 25.8051 26.7635 25.4089C26.733 22.9858 28.2722 20.8828 30.5581 20.1666C30.7105 20.1209 30.8781 20.0447 31 19.938C31.3048 19.7094 31.5029 19.3741 31.5486 19.0084C31.6096 18.6274 31.5182 18.2464 31.2743 17.9264C29.8266 15.991 29.8266 13.3851 31.2591 11.4497L31.442 11.2363L31.5182 11.0077C31.6401 10.642 31.5943 10.2458 31.4267 9.92573C31.2438 9.57522 30.9391 9.31616 30.5733 9.20948C28.2874 8.47799 26.7635 6.37496 26.7787 3.98239C26.7787 3.79951 26.7482 3.63188 26.7025 3.47949C26.5806 3.12898 26.3215 2.83943 25.9558 2.65656C25.6053 2.48893 25.2243 2.47369 24.8738 2.5956C24.3099 2.79372 23.7156 2.88515 23.1213 2.88515C21.3687 2.88515 19.7077 2.03175 18.6866 0.59925C18.58 0.462096 18.458 0.340181 18.3514 0.263984C17.7113 -0.193196 16.8122 -0.0408025 16.3398 0.59925C15.3187 2.03175 13.6729 2.88515 11.9051 2.88515C11.3108 2.88515 10.7164 2.79372 10.1678 2.5956C9.68017 2.42797 9.04012 2.54989 8.67438 2.94611C8.40007 3.22042 8.24767 3.58616 8.26291 3.96715C8.29339 6.37496 6.75422 8.49323 4.46832 9.19424C4.30068 9.23996 4.16353 9.31616 4.01114 9.42283C3.38632 9.89525 3.24917 10.7944 3.72159 11.4344C5.16933 13.3698 5.16933 15.9757 3.72159 17.9264C3.63015 18.0483 3.55396 18.2007 3.50824 18.3378C3.38632 18.7036 3.43204 19.0846 3.61491 19.4503C3.79778 19.8008 4.10257 20.0447 4.45308 20.1513C6.75422 20.8981 8.27815 23.0011 8.24767 25.3784C8.23243 25.5613 8.26291 25.7289 8.32387 25.8966C8.44578 26.2471 8.70485 26.5519 9.0706 26.7195C9.4211 26.8871 9.78685 26.9024 10.1526 26.7804C10.7317 26.5823 11.326 26.4909 11.9204 26.4909C13.6881 26.4909 15.3035 27.3291 16.3245 28.7768C16.416 28.914 16.5379 29.0206 16.6598 29.1121C16.9036 29.2949 17.1932 29.3864 17.498 29.3864C17.5742 29.3864 17.6656 29.3864 17.7418 29.3711C18.1228 29.3102 18.458 29.0968 18.6714 28.792C20.0886 26.8262 22.5574 26.0185 24.8433 26.7804ZM17.5437 27.9386C16.2483 26.1099 14.1605 25.0279 11.9356 25.0279C11.1736 25.0279 10.4269 25.1498 9.74113 25.4241C9.78685 22.3763 7.85145 19.6942 4.94074 18.795C6.76946 16.3263 6.76946 13.0193 4.9255 10.6115C7.83621 9.69714 9.77161 7.04549 9.77161 3.99762C10.4574 4.22621 11.1889 4.34813 11.9356 4.34813C14.1605 4.34813 16.2636 3.26614 17.5132 1.43741C18.8085 3.2509 20.9116 4.34813 23.1518 4.34813C23.8985 4.34813 24.6604 4.22621 25.331 3.96715C25.3005 6.98454 27.2054 9.63618 30.1009 10.5963C28.3027 13.0498 28.3027 16.311 30.1161 18.7798C27.2207 19.7094 25.3005 22.3763 25.3615 25.3937H25.3462C22.4203 24.4183 19.2657 25.4394 17.5437 27.9386Z" fill="black" fill-opacity="0.19"/>
<path d="M12.9408 28.4567C12.6055 28.2282 12.1483 28.3348 11.9197 28.6701L8.15563 34.4306L6.40311 30.8036C6.28119 30.5445 6.02212 30.3921 5.74781 30.3921L2.09037 30.3769L6.03736 24.3421C6.26595 24.0069 6.15928 23.5497 5.82401 23.3211C5.48875 23.0925 5.03156 23.1992 4.80297 23.5344L0.124495 30.6969C-0.027898 30.9255 -0.0431373 31.2151 0.0940168 31.4437C0.215932 31.6875 0.475 31.8246 0.734069 31.8246L5.29063 31.8399L7.42414 36.2136C7.54606 36.4574 7.77465 36.6098 8.03372 36.625C8.04895 36.625 8.06419 36.625 8.07943 36.625C8.32326 36.625 8.55185 36.5031 8.68901 36.2898L13.1541 29.4473C13.3827 29.1425 13.2913 28.6853 12.9408 28.4567Z" fill="white"/>
<path d="M34.9463 30.7122L30.2526 23.5344C30.024 23.1992 29.5668 23.0925 29.2315 23.3211C28.8963 23.5497 28.7896 24.0069 29.0182 24.3421L32.9652 30.3921L29.3077 30.4074C29.0334 30.4074 28.7743 30.575 28.6524 30.8188L26.8847 34.4458L23.1205 28.6853C22.892 28.3501 22.4348 28.2434 22.0995 28.472C21.7642 28.7006 21.6576 29.1578 21.8862 29.493L26.3665 36.3507C26.5037 36.5641 26.7323 36.686 26.9761 36.686C26.9913 36.686 27.0066 36.686 27.0218 36.686C27.2809 36.6708 27.5247 36.5184 27.6314 36.2745L29.7649 31.9008L34.3215 31.8856C34.5958 31.8856 34.8396 31.7332 34.9615 31.5046C35.0987 31.2303 35.0834 30.9408 34.9463 30.7122Z" fill="white"/>
</svg>
