<svg width="4" height="10" viewBox="0 0 4 10" fill="none" xmlns="http://www.w3.org/2000/svg">
<path d="M3.29029 8.19927C2.9887 8.29052 2.29594 8.44159 2.33087 7.89957L3.11289 4.7475C3.1812 4.47216 3.13735 4.18091 2.9909 3.93789C2.84451 3.69488 2.60758 3.51994 2.33218 3.45161C2.3115 3.44647 2.27031 3.43926 2.27031 3.43926C1.60378 3.30942 0.913555 3.47165 0.374734 3.88493C0.329464 3.92122 0.296545 3.97057 0.280352 4.0263L0.184906 4.34579C0.176809 4.37256 0.184019 4.40158 0.203759 4.42137C0.223498 4.44117 0.252517 4.44856 0.279288 4.44052C0.606055 4.34165 1.39409 4.17061 1.21577 4.8892L0.472129 7.88665L0.472188 7.88671C0.403869 8.16205 0.44772 8.4533 0.59411 8.69632C0.740559 8.93933 0.977491 9.11421 1.25283 9.18254C1.27021 9.18685 1.28758 9.18969 1.3049 9.1927L1.29923 9.20044L1.29928 9.2005C1.96581 9.33034 2.6561 9.16806 3.19486 8.75483C3.24013 8.71855 3.27305 8.6692 3.28924 8.61347L3.38468 8.29398C3.39278 8.26721 3.38557 8.23819 3.36583 8.21839C3.34609 8.19853 3.31707 8.1912 3.2903 8.19924L3.29029 8.19927Z" fill="white"/>
<path d="M2.93358 0.797315C3.53758 0.928811 3.92059 1.52495 3.78916 2.12895C3.65767 2.73289 3.06153 3.11591 2.45759 2.98448C1.85359 2.85304 1.47057 2.25684 1.602 1.6529C1.73344 1.0489 2.32964 0.665885 2.93358 0.797315Z" fill="white"/>
</svg>
