<svg width="42" height="20" viewBox="0 0 42 20" fill="none" xmlns="http://www.w3.org/2000/svg">
<path d="M17.4883 13.9539L16.061 15.5617C14.9614 16.6593 13.5611 17.4064 12.0371 17.7086C10.513 18.0107 8.93363 17.8542 7.49846 17.259C6.06329 16.6638 4.83675 15.6566 3.97385 14.3645C3.11094 13.0725 2.65039 11.5537 2.65039 9.99996C2.65039 8.44626 3.11094 6.92742 3.97385 5.63538C4.83675 4.34334 6.06329 3.33608 7.49846 2.74088C8.93363 2.14567 10.513 1.98925 12.0371 2.29136C13.5611 2.59347 14.9614 3.34057 16.061 4.43824L25.9376 15.5617C27.0371 16.6593 28.4374 17.4064 29.9615 17.7086C31.4855 18.0107 33.0649 17.8542 34.5001 17.259C35.9353 16.6638 37.1618 15.6566 38.0247 14.3645C38.8876 13.0725 39.3482 11.5537 39.3482 9.99996C39.3482 8.44626 38.8876 6.92742 38.0247 5.63538C37.1618 4.34334 35.9353 3.33608 34.5001 2.74088C33.0649 2.14567 31.4855 1.98925 29.9615 2.29136C28.4374 2.59347 27.0371 3.34057 25.9376 4.43824L24.5102 6.04605" stroke="white" stroke-width="4" stroke-linecap="round" stroke-linejoin="round"/>
</svg>
