<svg width="221" height="427" viewBox="0 0 221 427" fill="none" xmlns="http://www.w3.org/2000/svg">
<path d="M157.735 402.802L155.881 404.003L155.298 405.418L154.848 405.971L153.626 406.335L152.411 406.343L147.789 403.513L146.724 403.64L147.781 402.343L150.652 401.284L152.269 399.885L156 401.237L157.735 402.802ZM88.4185 308.19L89.3493 308.878L91.6839 308.767L90.911 310.301L88.3397 312.008L86.6122 313.692L84.5221 315.099L83.5125 313.478L82.3371 313.541L80.5388 310.427L80.2155 305.764L82.5658 304.547L85.8156 304.618L88.4185 308.19ZM40.2015 235.379L43.325 236.351L45.6517 236.335L47.7182 239.157L48.8226 243.599L51.4018 247.978L54.7778 251.771L54.9119 254.087L53.705 255.328L51.1888 256.87L51.1968 258.521L52.861 257.692L54.2966 257.312L57.7513 257.676L58.9583 259.351L59.7943 261.857L60.236 263.912L59.9363 266.141L59.0054 265.43L58.059 263.438L57.0099 262.521L55.7874 262.023L56.3396 264.766L56.1186 268.425L56.6472 268.765L58.2879 268.828L57.2071 272.559L54.9591 273.571L52.3483 273.95L51.7174 275.27L51.2442 276.97L49.8796 279.499L48.0812 280.93L45.8568 280.637L43.6798 279.507L41.7789 279.277L40.4538 279.949L39.594 280.574L38.758 280.463L36.368 280.7L34.12 280.653L33.7967 279.665L34.1833 276.693L33.6783 275.887L31.533 275.476L30.7363 274.764L29.4978 272.709L29.2535 271.745L29.08 270.417L27.7705 268.702L26.1852 267.469L25.2543 267.406L23.4008 269.413L21.8706 271.445L22.4069 272.464L22.9038 273.8L22.0757 274.764L19.5596 276.962L19.165 277.815L18.4867 278.281L17.288 277.673L14.2983 277.815L12.926 277.428L11.3248 275.808L7.4205 274.725L6.76576 272.124L6.01643 271.634L1.59143 267.168L1 265.675L1.57578 264.782L3.22417 263.43L8.7692 261.185L9.64467 260.284L9.82617 259.486L8.19342 258.577L6.72628 257.565L6.22946 256.909L6.18998 256.332L7.02597 255.581L8.69819 255.526L10.0233 255.866L11.0723 255.194L12.9181 254.514L14.1566 253.66L15.2212 251.455L16.3492 249.471L16.4676 248.396L17.4536 244.61L17.9978 243.67L21.5 241.188L22.3834 242.547L24.1107 242.879L25.6566 241.631L27.5103 237.686L28.7959 237.441L30.2156 237.766L33.0079 237.267L37.9612 235.426L40.2015 235.379ZM68.3051 227.316L65.5128 227.348L64.5033 227.008L63.2964 226.06L61.9397 220.685L62.4288 218.78L62.981 217.847L63.5961 217.12L65.0711 216.82L66.5383 217.839L67.0905 218.788L68.3207 222.424L68.5497 225.538L68.3051 227.316ZM45.6517 208.394L46.4485 213.461L47.2294 216.591L47.2845 217.658L46.551 219.144L42.899 221.12L41.7474 221.127L41.7 220.645L42.5203 218.638L41.8105 216.353L42.1576 214.615L41.8184 214.298L41.1085 214.543L38.4898 217.302L37.6144 217.571L37.5195 217.01L38.1663 214.749L38.2453 213.2L38.6319 212.251L39.3417 211.374L40.1857 210.718L40.8719 210.623L41.5974 211.303L43.7114 209.406L45.6517 208.394ZM49.1697 212.978L48.7042 213.397L47.5842 213.279L47.1663 212.639L46.9374 211.658L46.9138 209.864L47.5921 208.576L50.4633 206.631L49.1618 205.944L49.1144 205.454L49.856 203.834L52.94 201.312L53.7683 200.854L54.5884 200.925L52.9951 205.399L49.1697 212.978ZM53.4212 191.962L44.6027 194.183L41.5659 193.985L41.29 192.894L41.8974 192.167L44.4135 191.464L45.431 186.113L41.6292 183.639L41.4318 182.951L41.7317 181.773L42.1735 181.244L44.4766 179.995L45.4466 179.718L46.2355 179.884L47.8603 181.331L49.6902 184.358L52.1432 184.84L53.8075 186.12L53.4212 191.962ZM35.0508 182.319L33.7967 182.54L33.7021 181.971L35.8868 179.252L37.2988 178.801L37.7956 179.07L36.7702 180.651L35.0508 182.319ZM17.138 166.945L15.1897 167.499L14.4719 167.175L14.3458 166.661L14.7875 165.262L16.2782 164.764L17.3587 165.523L17.5323 166.21L17.138 166.945ZM42.3311 166.977L41.6764 167.499L40.8483 167.396L40.028 166.724L38.9395 164.811L41.3846 163.483L42.3627 164.266L42.7333 165.159L42.7492 166.147L42.3311 166.977ZM20.8373 160.843L19.8987 161.073L18.6762 160.851L17.9189 160.219L17.1537 157.713L17.0119 156.196L17.351 153.366L17.2721 149.975L19.7962 149.872L20.4507 150.363L20.8847 160.409L20.8373 160.843ZM45.3046 144.877L45.2731 146.695L44.8788 148.837L45.3836 151.106L45.502 152.726L46.4326 153.24L47.0007 153.983L51.1496 154.812L55.0065 154.575L55.7479 155.239L55.8348 156.299L55.2275 157.461L53.0266 159.579L50.408 163.001L49.6271 163.713L48.7831 163.744L48.1758 163.436L47.7421 157.35L44.9024 158.132L42.6152 158.045L41.3608 157.302L40.4853 155.872L38.7106 152.188L33.5521 150.734L32.0929 148.695L31.6512 147.462L31.8327 146.782L32.9053 145.265L34.2463 145.802L35.0744 145.47L35.5792 144.79L35.5715 144.229L34.8693 142.909L34.8378 142.498L40.1146 140.822L40.5799 138.198L41.7238 137.985L43.033 138.846L44.8237 141.573L45.3046 144.877ZM21.8153 137.527L24.3158 139.85L22.328 143.707L19.2755 143.692L14.9767 140.878L14.961 140.301L15.3161 139.455L15.9626 138.783L16.6332 138.625L17.6979 139.084L19.1809 138.341L20.364 138.578L21.8153 137.527ZM44.1059 109.08L41.29 116.423L40.1857 116.605L39.2156 118.438L36.2183 120.454L38.837 120.493L39.5704 121.165L39.5863 122.612L39.0892 123.449L35.7055 126.785L33.3786 128.05L30.8704 131.527L29.6004 131.567L28.3463 133.772L27.3208 134.744H26.7374L26.0747 134.254L24.5209 132.096L27.3447 129.97L27.6049 128.777L29.5373 127.528L29.3717 127.141L26.3033 125.386L25.0967 124.208L25.2071 123.592L26.682 122.232L25.988 122.058L25.5148 121.323L24.6629 121.039L24.4024 120.359L24.2448 118.557L24.4735 116.715L25.3648 115.901L25.7276 115.032L26.0906 114.763L27.4708 115.229L28.8749 116.707L30.5153 116.138L32.4165 116.415L32.4557 116.075L31.0596 112.447L31.3121 111.704L32.0693 110.858L36.4549 108.258L41.9209 103.879L43.2461 103.191L43.6483 103.792L44.2005 106.06L44.1059 109.08ZM112.484 102.638L112.673 106.1L112.413 107.151L111.884 108.447L110.212 110.858L105.811 114.297L97.7576 122.169L92.9934 126.058L92.3387 127.923L91.9836 130.516L94.8313 131.029L95.9354 131.907L95.2571 133.219L91.0372 137.779L89.7989 141.89L93.0329 141.739L95.6988 140.949L101.007 138.388L106 136.483L108.398 136.404L113.06 137.922L114.116 137.969L116.096 137.266L118.1 137.139L131.651 137.613L135.421 136.72L137.914 137.787L139.996 140.443L141.976 145.336L141.912 146.15L140.714 148.371L138.505 151.153L136.604 154.978L136.052 157.034L135.681 159.286L135.082 161.365L131.304 171.087L127.62 176.446L125.98 180.24L123.952 183.251L121.996 185.148L119.914 186.413L113.888 187.757L112.2 188.721L110.188 190.373L108.074 191.195L110.551 191.092L113.004 190.175L117.477 189.843L122.619 193.005L122.138 195.589L120.072 197.629L115.371 197.953L110.977 202.482L108.997 203.873L106.899 204.561L104.281 204.355L99.5244 203.146L97.442 201.881L99.3193 203.944L101.457 205.019L113.833 207.556L114.582 207.287L118.526 204.616L123.787 204.576L133.796 209.493L136.675 213.247L140.808 218.598L143.056 220.685L144.681 222.574L145.683 225.396L147.623 234.691L149.84 243.717L152.734 253.439L154.052 256.127L155.779 258.008L164.518 262.323L166.467 263.754L169.858 267.896L173.132 272.298L176.176 275.673L179.465 278.4L177.872 279.815L176.784 282.036L177.604 285.047L178.937 287.916L181.564 292.501L183.882 297.488L183.031 296.738L182.132 296.327L180.901 296.453L179.702 296.216L177.486 294.651L175.356 292.73L171.12 293.505L168.77 293.157L166.727 293.212L170.6 294.319L174.836 294.398L184.174 302.752L187.329 307.685L189.207 314.174L187.929 317.082L185.941 318.964L184.088 321.106L182.345 323.532L187.527 327.081L188.647 326.978L189.79 326.48L190.895 325.271L192.748 322.323L193.703 321.279L196.929 320.9L199.634 321.129L202.324 321.785L204.698 321.58L209.47 322.844L211.923 323.983L218.005 329.097L219.322 331.895L219.929 335.499L220 339.483L218.975 343.11L217.799 346.383L217.074 350.596L216.561 352.113L215.843 353.299L212.625 356.611L210.488 357.97L209.588 357.377L208.618 357.456L208.516 358.255L209.533 359.938L209.541 361.97L207.64 363.471L205.708 364.112L202.474 363.313L197.986 366.111L201.212 367.55L201.866 369.075L201.062 371.755L199.035 372.948L196.779 373.478L194.476 373.604L192.567 374.26L190.737 375.525L193.032 374.861L194.625 375.446L195.627 377.691L196.534 378.339L201.03 379.295L203.807 379.287L209.17 378.742L211.75 378.75L212.665 379.161L212.68 381.018L212.286 385.571L211.576 386.512L204.469 390.321L203.01 392.977L202.608 394.582L198.451 394.297L196.503 395.996L193.135 397.127L190.532 398.32L187.984 399.83L185.886 400.28L176.839 398.486L171.373 398.636L163.966 400.201L162.057 399.94L159.202 398.447L156.268 397.435L152.9 396.992L149.989 395.601L151.804 398.265L147.773 400.834L145.911 401.339L143.979 401.261L140.035 401.956L136.367 401.577L136.92 403.395L137.898 404.983L137.101 405.671L136.265 405.845L129.308 404.651L128.322 404.873L127.462 405.979L124.93 405.387L122.469 403.529L119.859 402.272L117.114 401.679L114.937 401.885L105.968 404.825L104.178 407.766L103.279 411.931L101.985 415.622L99.8713 418.46L97.3551 418.831L94.9889 416.863L90.4929 414.697L88.9627 413.227L88.4738 413.14L87.969 413.662L86.2022 414.326L84.38 414.357L81.5642 414.942L76.666 416.705L74.6861 417.898L70.4347 421.195L69.5671 422.103L68.021 425.415L65.6628 426L63.5014 423.882L61.0407 423.139L58.4455 423.858L56.8759 424.988L56.1424 424.072L56.1186 422.19L58.0118 419.946L63.0677 418.246L67.5083 413.828L69.6853 411.133L70.5531 409.607L71.6178 408.635L73.0062 408.271L73.724 406.588L79.884 399.806L80.389 398.249L80.6964 395.451L81.2014 392.756L86.2179 391.009L88.6158 385.326L89.2783 384.876L96.2746 383.832L101.465 383.919L106.623 385.034L109.266 385.136L111.916 384.749L113.998 383.208L117.555 377.643L119.559 375.185L121.854 372.964L124 370.427L127.478 365.716L125.128 367.344L122.288 369.921L120.64 371.415L115.402 372.917L113.146 374.45L109.195 377.904L108.437 378.189L102.474 377.359L98.0414 372.877L95.2099 371.043L94.0424 370.83L92.8278 371.375L90.2406 371.936L87.6061 371.842L88.955 369.763L90.7849 368.601L86.6832 367.795L85.5395 367.162L84.238 365.7L81.02 365.455L79.4897 365.827L76.9026 367.755L72.8167 369.802L67.887 366.965L66.9249 365.724L66.9484 363.313L66.207 361.401L64.8425 360.729L66.5857 358.239L68.6994 356.579L73.3374 354.927L80.3652 350.999L84.309 349.323L87.969 346.43L89.4834 344.66L90.5798 342.233L91.6683 339.261L93.2221 336.835L91.7155 336.258L91.0372 334.432L91.2187 332.574L91.9129 330.922L91.2897 328.852L90.1776 326.686L90.2406 324.994L90.5403 323.184L87.7165 323.279L84.9007 323.848L82.3451 325.129L79.8684 326.868L77.6678 327.192L77.6993 325.801L78.6538 324.078L81.1461 321.611L83.8122 319.564L84.7587 318.007L85.508 316.197L86.8331 314.743L90.3194 311.992L97.0003 308.894L97.9942 308.712L100.613 309.076L103.192 308.601L105.448 307.487L107.696 307.25L112.76 310.467L111.253 305.487L113.485 304.294L116.719 308.799L117.918 309.273L120.458 308.617L119.48 307.858L118.336 307.811L116.838 307.131L115.576 305.685L113.477 301.085L113.596 298.35L115.008 295.505L116.569 292.88L115.26 292.359L114.211 291.355L113.911 288.723L114.321 286.391L117.13 284.336L117.958 281.206L118.305 277.752L117.839 276.163L115.047 276.416L113.691 277.064L112.476 278.084L111.229 278.021L107.783 274.195L105.819 271.294L102.293 265.145L101.796 261.454L104.612 253.471L108.966 248.341L114.093 246.547L113.099 246.207L105.282 246.136L102.703 246.768L100.313 248.871L98.9643 249.519L97.5445 249.756L96.251 250.799L94.9889 252.246L93.6717 253.178L91.061 252.933L89.7989 253.242L88.8917 252.404L88.1267 251.02L87.1328 250.649L86.0207 251.076L83.6702 252.941L81.2881 254.04L78.4092 252.862L74.631 250.665L73.8896 251.471L73.0534 253.51L72.5722 256.68L69.8904 253.921L67.6109 250.23L66.838 247.906L66.7828 245.282L68.021 244.263L69.37 245.195L71.3734 238.959L75.3644 230.802L76.7764 228.407L77.7624 225.269L77.5968 223.214L76.7211 221.475L73.0062 217.523L73.0534 214.291L73.4479 210.639L74.4574 208.441L74.8832 208.023L79.813 208.078L77.8885 206.94L74.0552 203.628L74.1262 202.45L75.0253 199.375L74.6074 199.684L73.787 201.107L72.2174 204.545L71.2629 205.343L68.5497 206.157L68.0526 207.841L67.6188 208.283L66.2701 208.473L65.852 210.046L65.5523 210.149L65.1657 208.457L65.1263 205.643L65.6628 203.051L66.688 201.02L70.6636 196.396L68.7309 197.826L64.3454 202.102L62.1053 204.908L61.506 205.857L61.3245 206.655L61.3324 207.572L62.3342 212.481L62.0423 214.749L58.264 229.648L57.5462 231.134L56.8918 231.908L56.2686 232.09L54.4071 231.806L53.5788 230.691L53.5868 229.435L53.9339 227.546L55.5033 220.487L56.1819 218.519L57.1914 216.685L59.4156 213.476L59.3605 213.263L57.8777 213.895L57.2466 213.69L56.7892 213.05L57.081 203.478L58.2879 200.316L58.7373 195.708L59.7786 191.748L60.9853 188.855L61.9082 185.148L63.2884 183.496L63.6594 180.967L65.2132 178.224L66.4121 175.355L65.7653 175.64L58.0905 183.101L56.1345 184.453L53.4684 184.089L51.4334 183.251L49.8401 181.489L49.1303 178.098L47.1663 178.011L45.4861 177.426L45.502 176.968L47.6711 175.118L51.1496 174.486L54.4071 171.514L51.5123 169.506L51.7569 168.866L54.2808 167.151L57.4911 161.389L58.1379 156.069L56.6077 153.564L56.0555 151.92L52.9872 150.086L52.4747 147.738L52.8295 146.419L53.8313 145.13L55.3377 144.134L57.7042 143.17L55.5587 142.142L54.7542 140.925L54.1467 139.163L54.0916 138.143L55.2036 133.59L55.8504 131.709L57.1204 129.306L62.8626 129.441L63.5253 128.381L64.1798 128.342L67.1141 129.314L66.6803 128.271L61.8766 122.54L61.4429 121.45L62.8152 118.351L62.91 116.968L62.7126 115.49L63.1072 114.36L64.6294 113.83L69.2675 113.878L70.4111 113.356L69.8904 111.854L68.8099 109.878L68.5968 108.218L68.8493 106.748L68.9045 103.784L69.1175 102.472L70.2219 100.504L71.1289 99.9191L72.2569 99.5793L74.8045 100.235L75.7746 101.026L76.8946 102.899L77.715 102.749L80.8859 100.709L81.8403 100.417L83.1418 102.78L88.5605 100.899L95.8408 100.061L100.218 98.8204L104.825 98.3698L109.123 96.9551L113.683 97.6033L113.84 98.4251L113.604 99.5634L112.484 102.638ZM116.483 93.0188L116.27 93.1452L115.457 92.3627L114.132 89.5569L116.223 88.9956L117.209 89.3434L116.838 90.537L116.483 93.0188ZM111.261 90.7741L109.991 91.3431L108.737 91.3035L106.781 88.8297L106.039 87.0276L106.174 85.834L106.994 85.431L108.887 86.0159L109.865 88.0788L109.991 89.4146L110.22 89.9363L111.395 90.4658L111.261 90.7741ZM113.643 80.6805L113.343 81.7397L115.024 81.7161L117.461 82.617L118.936 82.7277L120.166 83.8501L119.488 85.9448L118.754 86.5374L117.926 86.6561L115.024 84.5614L111.222 85.431L110.464 85.1623L109.968 84.5853L109.763 83.866V82.3958L109.557 81.9611L108.177 83.3522L107.578 83.1863L107.238 82.5222L107.089 81.1471L107.238 79.1631L108.051 76.3255L109.415 75.7564L111.45 76.0884L113.785 77.6929L114.487 78.6809L114.471 79.4714L113.643 80.6805ZM124.899 71.9704L122.398 72.0179L123.692 69.4568L125.199 68.8088L128.046 69.0933L127.541 70.2473L124.899 71.9704ZM120.908 73.8989L119.007 74.974L118.194 74.0887L117.981 71.3063L115.718 70.1129L114.613 69.37L113.762 67.963L113.975 67.5283L115.449 66.9514L117.973 69.5043L119.007 71.5594L120.876 72.1679L121.113 72.4842L120.908 73.8989ZM152.364 14.3183L152.821 17.4878L153.965 16.6659L155.692 19.7009H156.576L158.027 18.4996L157.735 21.3213L156.229 29.1226L155.802 30.4426L155.519 32.8059L155.219 33.2722L154.777 38.0384L153.76 39.6033L152.908 43.334L152.561 43.6977L151.314 42.267L152.561 36.5682L153.074 33.2485L152.742 31.5254L152.04 29.9684L150.131 29.9208L148.522 30.6401L148.183 29.7233L148.136 28.4902L147.749 28.0793L145.612 28.1661L144.981 27.8263L144.563 26.6881L144.484 25.7792L146.416 25.0678L148.23 25.3366L150.881 23.5266L149.224 17.4484L147.024 16.8713L146.519 16.2785L146.945 15.2431L148.151 14.6819L150.005 11.5756L151.117 11.0856L152.498 11.1725L152.364 14.3183ZM158.248 15.3854L157.688 15.8992L155.526 11.3227L157.128 6.06654L159.068 6.23249L159.376 7.60776L159.186 8.8804L158.2 8.99099L158.114 9.37826L158.421 11.8207L158.437 14.6503L158.248 15.3854ZM164.179 1.90105V2.42279L163.028 6.24829L163.043 7.71052L161.19 7.56833L160.898 7.10194L160.551 4.91246L160.788 2.58078L161.048 1.97221L161.584 1.72713L162.168 2.18568L163.091 1L163.572 1.02376L164.179 1.90105Z" fill="#F4F4F4" stroke="#E7E7E7" stroke-width="0.5"/>
</svg>
