<svg width="300" height="422" viewBox="0 0 300 422" fill="none" xmlns="http://www.w3.org/2000/svg">
<path d="M168.82 16.1407L169.19 17.5142L170.555 16.5369L171.576 14.9957L173.223 13.4276L173.003 15.9553L173.848 16.5106L179.307 18.2717L180.434 19.743L181.596 20.1656L182.248 19.3377L183.022 18.8883L184.995 19.8134L189.45 22.3852L189.82 23.2749L189.591 24.5957L189.811 25.9961L190.419 27.1148L191.898 27.3701L193.87 25.7144L194.795 25.5117L196.098 27.8636L196.591 29.1936L196.388 29.1495L197.242 30.4703L198.37 31.7739L200.316 35.6407L200.025 36.997L199.453 38.221L201.24 41.8056L200.069 42.0523L196.556 41.4449L196.67 42.1668L198.722 44.8004L200.447 48.5258L201.83 50.7718L206.708 57.7565L205.977 60.2401L206.091 61.8872L205.466 63.3053L207.131 67.0221L206.091 68.1757L205.404 71.9893L204.647 72.6591L204.744 74.0503L206.717 74.4202L207.905 75.0104L208.927 76.1469L209.561 74.7814L210.423 74.4116L212.774 76.235L217.67 78.0579L219.017 78.7364L219.677 80.2072L220.179 83.7654L221.13 85.3329L223.005 85.6324L225.022 85.1572L225.656 83.8621L225.251 80.3744L223.798 74.8078L223.789 73.0026L223.992 71.1883L223.657 69.3912L222.926 67.7L222.142 66.4055L221.139 65.3131L221.491 63.6133L222.997 62.8473L223.913 64.2826L224.661 66.0179L228.456 71.1614L230.701 70.8007L230.904 72.9322L232.427 75.0986L233.272 77.644L234.381 85.2625L236.081 92.4585L239.163 95.5941L239.523 97.0999L237.648 96.3247L237.076 96.7741L237.269 97.5316L239.004 98.9142L241.047 99.5926L242.332 99.4958L243.539 99.9979L251.525 104.701L255.363 106.533L265.049 109.536L267.813 109.774L269.345 109.695L272.242 108.656L274.84 106.789L277.085 103.996L279.022 100.817L281.126 99.2754L283.513 98.06L284.719 96.9327L285.987 96.1312L292.476 96.501L294.668 98.1041L297.512 99.39L299 100.394L298.498 102.437L296.799 105.449L295.496 108.752L294.334 116.274L293.55 123.902L292.37 127.275L290.222 129.873L287.845 131.776L285.159 132.674L284.067 137.034L283.53 142.151L283.689 143.437L284.551 144.459L284.904 145.982L283.495 149.065L282.676 148.616L281.514 146.044L280.466 144.969L277.244 144.168L273.959 143.798L271.115 144.027L268.368 145.128L264.221 147.356L262.936 148.483L261.808 149.919L259.906 153.125L259.449 157.053L259.537 159.114L260.215 160.708L263.746 162.884L260.241 170.494L257.133 178.438L255.372 180.711L253.347 182.815L251.436 187.616L248.099 191.755L245.845 194.926L244.084 198.22L242.543 201.726L239.259 206.684L237.807 209.969L235.905 212.709L232.365 216.205L228.597 219.209L222.662 223.366L221.007 224.74L219.264 225.753L217.097 224.563L216.666 223.269L216.147 220.424L215.671 219.385L212.915 218.522L209.261 219.896L208.654 219.605L208.495 218.953V214.823L209.111 213.66L208.257 213.017L207.412 213.272L207.121 214.329L207.659 215.245L205.581 216.382L203.415 216.408L202.763 215.959L202.578 215.201L203.106 213.951L203.802 212.85L207.826 207.653L212.008 200.774L215.61 193.429L216.543 189.659L217.864 182.684L216.781 179.777L215.442 177.055L211.823 171.824L206.99 168.873L203.864 168.459L200.905 167.358L198.123 164.866L195.587 161.933L190.56 159.528L185.259 157.644L182.239 154.984L181.517 153.407L181.042 151.575L181.112 149.875L181.491 148.149L182.09 146.828L183.032 145.868L188.64 142.442L194.584 140.539L195.675 140.575L196.723 140.266L198.211 139.104L200.87 136.444L201.645 134.656L202.173 128.983L203.027 123.417L204.568 117.049L206.892 113.112L207.65 110.699L206.708 106.727L207.579 105.274L208.636 104.393L209.834 103.882L207.808 100.165L205.422 94.5545L204.92 92.8197L205.281 91.1022L205.862 89.4196L204.375 88.997L203.512 87.3854L201.372 81.9688L201.953 81.1055L203.195 81.6866L205.035 85.5883L205.334 83.5804L206.743 82.3386L208.24 81.6957L209.842 81.5543L206.215 77.2037L205 77.3795L203.397 78.0757L201.751 78.4982L200.139 78.1198L198.634 77.1597L197.859 75.3276L196.917 71.8135L196.327 70.5185L191.554 63.358L192.954 63.129L196.811 66.7135L197.559 65.569L198.114 63.9219L197.929 62.0899L197.014 60.6981L195.649 59.7998L195.622 58.1704L196.661 56.6819L196.599 55.6427L194.39 53.5199L193.509 53.2908L193.113 54.2773L193.747 55.7481L193.157 55.9158L187.795 52.0577L186.139 48.9575L184.784 45.5578L184.643 46.9405L184.845 48.887L186.967 52.7888L190.41 57.1576L191 58.3199L190.489 59.8261L189.292 60.2578L188.235 59.3063L186.659 55.5632L185.523 53.6962L172.36 34.4602L174.042 31.9325L176.648 29.801L177.246 28.8587L177.643 27.705L176.542 27.511L175.556 28.0394L174.429 29.0172L173.399 30.1268L172.096 32.6018L171.48 33.1743L169.939 31.4568L169.349 30.3999L169.375 29.1317L168.961 28.3302L167.817 28.0749L166.135 25.5558L165.069 24.2699L166.848 21.8127L166.892 18.5802L165.079 15.1978L162.912 12.089L158.739 7.07724L154.909 1.78429L159.056 1.11447L163.265 0.999969L161.283 4.17112L162.181 6.00317L163.52 7.55299L166.408 12.3089L166.654 13.6829L168.116 15.0747L168.82 16.1407ZM224.995 56.8405L225.189 58.5053L223.296 57.9151L222.556 56.6555L220.435 55.3519L220.127 54.9643L219.889 52.4366L221.007 51.2126L221.192 50.6928L221.685 50.4901L222.556 51.82L224.238 53.7139L224.995 56.8405ZM165.008 214.849L167.852 215.008L170.502 212.612L173.214 210.666L176.058 209.053L180.39 205.363L181.526 204.817L184.335 204.113L185.559 203.241L186.923 203.038L185.691 205.222L184.141 205.953L183.894 206.737L184.766 208.006L183.419 209.776L183.472 211.986L181.869 214.602L184.317 213.528L185.224 211.828L184.757 210.868L185.814 208.965L187.46 208.058L186.809 206.622L186.853 205.487L188.869 205.909L189.864 205.865L190.656 205.416L192.109 205.24L192.4 206.508L194.355 206.349L193.641 207.952L192.154 209.811L191.801 210.938L189.415 212.814L187.822 213.616L190.278 213.818L193.87 211.309L196.001 209.097L195.94 211.863L194.205 214.347L192.725 215.914L191.053 216.408L189.389 217.685L188.579 219.773L188.675 221.164L189.151 222.265L190.85 224.123L188.939 227.717L191.07 227.267L192.233 227.946L193.87 230.016L192.884 232.411L192.197 233.636L188.041 238.7L186.228 241.272L184.106 242.919L184.132 245.623L182.917 247.596L176.718 254.369L175.635 255.84L170.749 266.664L167.632 271.227L165.844 272.785L163.952 274.045L159.417 276.203L157.409 278.686L155.199 280.747L152.866 281.214L152.936 282.13L154.433 282.641L155.605 283.998L154.733 285.521L153.069 286.473L151.343 286.746L150.462 287.723L154.583 287.027L155.745 287.82L155.957 289.502L156.397 291.017L157.392 293.025L160.861 294.311L163.978 294.91L164.585 295.844L165.052 299.058L164.488 300.635L163.793 301.674L162.745 302.045L160.209 302.247L157.664 301.516L155.983 299.57L151.167 300.195L149.881 300.609L149.221 300.257L151.889 298.213L150.498 297.05L149.335 296.619L148.076 297.297L147.231 298.371L146.985 300.133L146.113 301.155L144.792 301.445L142.916 299.974L141.059 297.878L138.329 295.765L138.752 297.068L140.847 300.265L141.895 302.388L139.456 304.088L136.903 305.409L134.754 306.184L132.729 307.399L130.343 309.293L129.031 309.962L125.545 310.007L123.678 310.605L123.061 313.107L121.758 314.701L118.695 315.018L119.804 315.52L120.482 316.321L118.456 323.878L118.016 327.023L117.638 332.413L116.361 337.433L112.724 337.407L113.306 338.296L116.062 339.714L115.542 341.855L112.513 345.774L111.246 348.038L110.013 353.551L108.164 358.65L105.337 364.464L105.311 365.512L106.306 367.001L107.512 368.286L107.583 370.101L107.213 371.061L105.866 371.307L104.686 371.933L98.3817 373.535L96.3212 375.332L94.622 378.556L92.6319 381.339L86.0106 387.522L82.1192 392.719L81.3357 394.207L80.2878 395.29L71.7731 397.756L65.7509 398.127L62.4754 397.492L59.3144 396.241L57.5625 395.819L54.2166 396.585L52.7548 397.422L50.1312 396.594L48.0531 397.219L47.4367 396.612L46.6617 395.088L47.0933 393.062L46.5209 391.565L45.2005 390.552L44.3111 389.372L43.2987 388.535L40.5337 388.209L36.1667 388.737L34.7227 388.685L31.7552 383.726L30.7782 382.511L27.2474 380.934L26.0409 381.154L24.1477 383.797L23.0299 384.245L16.3908 384.528L9.73445 383.673L7.28657 382.687L6.80237 380.406L11.8561 374.143L10.3595 374.98L7.2425 377.525L5.25249 377.138L7.1635 374.364L7.33064 373.121L6.93457 371.748L4.33675 374.082L1.37833 374.39L1 372.223L1.26387 369.713L1.86307 369L9.84892 367.687L12.7278 366.833L13.9869 365.485L9.20618 365.028L8.90685 363.142L9.59365 361.637L13.679 359.135L10.6679 359.769L7.33064 359.549L7.55097 356.907L8.42264 354.846L11.9179 354.784L10.8259 353.366L10.6588 351.393L11.6272 351.261L15.1757 353.921L17.738 354.89L16.6552 352.89L16.8046 351.631L17.4828 351.068L19.5781 350.671L18.9972 350.319L17.0335 349.808L14.6915 348.293L14.4448 346.69L14.5329 344.84L17.0512 342.295L18.5393 343.81L20.3004 343.396L18.9531 342.207L18.1341 340.428L18.6887 339.256L24.0332 334.544L25.3982 339.08L25.7153 337.574L25.7943 336.147L25.1515 334.905L25.2483 333.655L25.8647 332.58L28.154 331.514L31.1302 328.062L33.3314 326.459L35.1188 327.489L36.3425 328.872L36.1576 327.498L35.2859 326.362L35.0484 323.2L39.0456 318.303L43.4395 313.653L47.657 308.791L49.9023 307.029L54.6831 305.03L57.7473 305.867L58.5309 305.708L63.0741 302.22L64.9582 301.313L66.6753 302.555L67.7318 303.004L66.6667 299.816L67.5029 298.354L71.298 295.782L76.0524 293.131L79.6627 292.03L82.3218 290.233L83.9238 290.189L83.6863 288.833L83.9593 287.538L85.3329 287.626L85.7553 287.116L84.5402 286.411L88.4585 283.821L90.5893 280.959L91.6985 280.369L92.7115 279.506L93.9615 277.533L95.441 276.881L96.8146 277.189L97.8093 278.158L97.2633 276.546L95.5022 275.63L97.3955 274.239L99.3592 273.27L101.27 273.965L103.145 275.093L101.27 273.367L100.961 272.301L103.242 271.068L104.475 270.689L106.2 272.997L105.954 271.165L106.359 269.544L108.798 266.893L111.994 262.525L113.015 264.048L113.182 265.889L113.024 268.117L113.684 267.351L113.905 265.334L113.411 261.785L117.409 255.241L118.201 254.51L119.082 254.069L120.473 253.893L120.042 252.907L118.958 251.956L120.05 248.644L120.702 244.865L121.627 241.236L123.115 237.696L124.744 231.795L125.985 230.562L129.339 230.139L130.81 229.311L133.258 227.188L136.154 223.348L137.704 220.257L139.738 212.286L140.883 203.98L144.176 197.841L149.01 193.411L153.262 190.047L155.005 189.342L157.947 189.131L160.746 190.056L155.534 190.866L154.997 192.865L154.83 194.891L155.428 196.705L156.362 198.326L158.889 199.85L161.847 200.757L163.168 204.192L163.406 208.27L163.81 211.775L165.008 214.849ZM184.757 201.276L181.447 203.17L181.588 201.858L182.23 198.995L183.736 197.551L184.476 197.454L185.99 196.37L185.822 198.766L184.757 201.276ZM13.3797 346.769L14.4448 350.971L12.1823 350.169L11.2397 348.892L12.9659 346.787L13.3797 346.769ZM7.62137 363.486L7.48917 365.221L7.19843 366.093L6.3359 366.102L5.05043 365.908L3.79128 365.107L2.98088 365.336L2.31181 365.045L3.18348 363.09L6.11556 362.051L7.2425 362.887L7.62137 363.486ZM42.1803 406.476L42.1981 407.912L39.618 407.401L39.6706 409.013L41.7047 409.867L42.4533 411.03L44.5664 410.695L45.042 412.43L44.5487 413.989L43.1401 415.125L38.9666 415.698L36.2543 417.961L33.9123 417.617L33.2787 417.82L30.5933 420.251L27.5908 421L26.7718 420.815L27.1856 418.648L29.4218 416.596L29.4658 414.623L30.0382 413.047L32.1781 411.937L32.2131 409.894L33.6571 408.07L32.7768 404.151L33.2433 400.637L37.4872 400.443L42.1803 406.476Z" fill="#F4F4F4" stroke="#E7E7E7" stroke-width="0.5"/>
</svg>
