<svg width="321" height="266" viewBox="0 0 321 266" fill="none" xmlns="http://www.w3.org/2000/svg">
<path d="M88.753 17.5426V20.1589V22.7404V25.2873V27.8018V30.2839V32.7335V35.153V37.5422V39.9024V42.2347V44.5401V46.8176V49.0693V51.2953V53.4968V55.6736V57.827V59.9569V62.0644V64.1495V66.2123V68.255V70.2775V72.28V74.2623V76.2244V78.1687V80.094V82.0025V83.892V85.7647V87.6207L89.5011 87.8801L90.2425 88.1372L90.4696 87.6241L91.2689 88.0176L91.967 88.3608L92.4123 87.9203L92.8943 87.4429L93.5444 87.4094L94.2736 87.3714L94.7601 87.3468V87.7537L94.5798 88.4268L94.4295 88.9869L94.8726 89.5538L95.4181 89.8512L95.928 90.1296L96.1573 90.8966L96.715 91.4869L97.1392 91.9341L97.5466 92.3623L98.1289 92.9728L98.5363 93.3999L99.0796 93.9667L99.4024 94.3033L99.5572 94.9562L99.7431 95.7377L99.6284 96.1984L99.8856 96.2721L100.389 95.7556L100.862 95.4347L101.446 95.0378L101.84 94.7695L102.573 94.7561L102.923 93.9745L102.924 92.8733L103.294 92.8923L103.513 92.7425L103.608 92.4171L103.376 91.9721L104.077 91.7642L104.585 91.6132L105.309 91.2029L106.017 90.8015L106.355 91.1124L106.689 91.412L107.344 92.1331L107.389 92.3064L107.344 92.6441L107.28 92.9806L107.678 93.922L107.793 94.0271L108.12 94.1568L108.511 94.4676L108.684 94.7359L109.249 95.1631L109.345 95.3397L109.398 95.6259L109.491 95.8719L109.597 96.0474L109.699 96.2979L109.944 96.593L110.41 96.9217L110.734 97.1498L111.187 97.4684L111.646 98.118L112.045 98.6804L112.499 99.235L112.432 99.6766L112.892 100.356L113.376 101.218L113.748 101.98L114.012 102.405L114.329 103.017L114.716 103.765L115.157 104.614L115.495 105.156L115.934 105.913L116.151 106.364L116.003 106.671L115.821 107.051L116.386 107.231L116.778 107.355L116.68 107.776L116.551 108.33L116.994 108.548L117.295 108.697L117.232 108.987L117.398 109.313L117.425 109.853L117.965 109.818L118.203 109.803L118.526 110.042L118.951 110.357L119.378 110.652L119.742 110.904L120.219 111.053L120.808 111.266L121.098 111.702L121.634 111.889L121.835 112.496L122.455 112.719L122.82 112.57L122.951 112.817L123.055 113.101L123.083 113.459L123.048 113.808L122.893 114.098L122.777 114.411L122.699 114.748L122.669 115.108L122.687 115.492L122.75 115.828L122.94 116.447L123.004 116.826L123.011 117.078L122.589 117.961L122.444 118.38L122.457 118.568L122.15 119.004L121.585 119.612L121.329 119.962L121.202 119.846L120.472 119.756L120.207 118.979L120.067 118.374L119.854 117.846L119.86 117.726L120.053 117.373L120.784 117.082L120.79 116.966L120.519 116.889L120.453 116.763L120.379 116.187L120.399 115.68L120.38 115.344L120.258 114.655L120.076 114.232L119.605 113.405L119.565 113.196L119.772 112.933L119.901 112.688L119.105 113.114L118.018 113.561L117.553 113.871L117.455 113.995L117.422 114.101L117.506 114.393L117.493 114.487L117.398 114.661L117.286 115.148L117.05 115.664L116.931 115.77L116.507 115.577L116.393 115.413L116.18 114.739L116.229 114.559L116.384 114.407L116.595 114.079L116.86 113.574L117.366 112.285L117.697 112.279L118.28 112.023L117.365 111.895L117.228 111.828L117.106 111.651L116.996 111.365L116.811 111.046L116.462 110.934L116.31 110.817L116.079 110.429L115.924 110.254L115.84 110.039L115.825 109.782L115.76 109.652L115.52 109.605L115.391 109.517L115.355 108.85L114.879 108.679L114.684 108.532L114.37 108.113L114.283 107.91L114.256 107.74L114.332 107.277L114.3 107.19L114.022 107.237L112.296 106.518L112.388 105.564L112.068 104.3L111.725 103.785L111.793 103.584L111.867 103.478L112.02 103.476L112.683 103.85L113.306 104.293L113.386 104.228L112.39 103.287L112.14 103.005L112.078 102.665L112.075 102.483L112.154 102.388L113.088 102.473L113.143 102.402L112.196 102.125L112.002 102.126L111.795 102.524L111.697 102.618L111.494 102.599L111.425 102.538L111.184 102.056L110.955 101.719L110.528 101.253L110.448 100.92L110.427 100.429L110.484 99.9639L110.832 98.8973L110.974 98.7117L111.01 98.5954L110.902 98.6133L110.8 98.7151L110.512 99.2115L110.214 100.023L109.972 100.299L109.819 100.232L109.589 99.9024L109.108 99.4988L108.551 99.3948L108.199 98.9812L107.68 97.8251L107.609 97.2471L107.543 97.1051L107.261 96.9173L107.087 96.6389L106.82 95.2189L106.467 94.2261L106.379 93.6995L106.408 93.1763L106.363 93.1181L106.241 93.5262L106.21 93.7386L105.987 93.799L106.197 94.2116L106.249 94.4173L106.144 94.4005L105.931 94.452L106.294 95.153L106.456 96.2352L106.697 97.0335L106.852 97.6787L106.923 98.1672L107.025 98.6334L107.305 99.6587L107.343 99.8622L107.31 100.028L107.218 100.224L107.057 100.298L106.554 100.164L106.365 99.9114L106.093 99.4463L105.712 99.2316L104.769 99.3378L104.694 99.3021L104.697 98.9219L104.805 98.2432L104.718 97.9682L104.231 96.9653L104.238 96.7685L104.915 96.3057L104.587 96.271L104.322 96.4521L104.22 96.3359L104.059 95.6885L103.956 95.447L103.904 95.3956L103.876 96.0117L103.988 96.3347L104.005 96.5215L103.987 96.782L103.917 96.9687L103.793 97.0816L103.67 97.1096L103.441 96.9799L103.188 96.735L102.966 96.6199L102.884 96.5226L102.779 96.252L102.608 96.0463L101.78 95.7858L101.287 95.4772L101.246 95.5588L101.4 95.8875L101.414 96.0821L101.289 96.1413L101.067 96.4533L101.131 96.4958L101.366 96.3929L101.629 96.4052L102.063 96.5942L102.457 96.8423L102.6 96.981L102.659 97.1867L102.708 97.2594L103.093 97.4986L103.112 97.6239L102.864 97.9973L103.376 97.9559L103.673 98.089L104.054 98.6659L104.183 98.9868L104.201 99.3971L104.122 99.5156L103.97 99.5983L102.93 99.7325L102.555 100.226L102.477 100.232L102.191 100.098L101.672 99.7045L101.026 99.33L99.5505 98.2153L99.5104 98.1628L99.4859 97.947L99.3846 97.8363L99.1842 97.7424L98.9059 97.4584L98.5508 96.9844L98.3315 96.6132L98.248 96.3459L98.0409 96.0396L97.373 95.399L97.0234 95.153L96.715 95.0132L96.4467 94.983L96.3744 94.8969L96.4979 94.7561L96.5169 94.6733L95.9246 94.5403L95.3624 94.2384L93.9363 93.3876L93.1993 92.8532L92.7696 92.5971L92.5859 92.4529L92.5047 92.3355L92.6082 92.2125L92.8954 92.0851L93.0902 91.9397L93.3975 91.3952L93.4209 91.2197L93.2561 90.8228L93.1826 90.4605L93.186 90.2593L93.2294 90.058L93.2762 89.9272L93.4064 89.8009L93.4977 89.7372L93.6113 89.7808L93.9731 90.2794L94.0243 90.4605L94.0076 91.1403L94.1111 91.933L94.1445 91.8749L94.1779 91.6132L94.1991 91.1124L94.2402 90.8708L94.3182 90.6361L94.4495 90.512L94.8581 90.5835L95.0462 90.541L94.2514 90.181L93.7515 89.5046L93.6613 89.4342L93.3875 89.404L93.098 89.6779L92.3533 90.569L92.144 90.7255L91.2077 91.2175L90.5732 91.3158L89.8584 91.2387L89.2495 91.0788L87.7221 90.3007L87.4838 90.1195L87.839 89.6365L87.8534 89.4856L87.7299 88.9925L87.6275 88.8517L87.4827 88.7734L87.4415 88.8293L87.4404 88.9758L87.4794 89.2475L87.3625 89.3906L87.1031 89.5449L86.6656 89.7014L85.3096 89.3034L83.9203 88.9735L82.6801 88.9053L80.9289 89.1681L79.9949 89.4319L79.4505 89.4576L78.9262 89.4107L78.8828 89.2262L79.1221 89.1178L79.1088 88.9836L78.806 88.5654L78.3462 88.3117L77.7294 88.2222L77.3765 88.0992L77.2875 87.9438L77.0693 87.7962L76.7219 87.6554L76.5694 87.4016L76.6908 86.6145L76.8088 86.1415L76.9268 85.8162L77.2251 85.2761L77.1216 85.3164L76.6885 85.7122L76.3111 86.1203L75.9616 86.6502L75.7534 86.8928L75.4862 87.1165L75.0687 87.0639L74.5021 86.733L74.0167 86.5619L73.6126 86.5518L73.4523 86.4948L73.7284 86.1985L73.8876 85.9604L74.1047 85.578L74.1525 85.3913L72.6708 85.3298L72.6162 85.1274L72.614 84.9788L72.5672 84.8558L72.3524 84.7641L72.0518 84.8345L71.5653 85.0738L71.3549 84.8915L71.4295 84.7898L71.5887 84.7149L71.9126 84.3672L71.4751 84.1872L71.2514 83.9803L71.1423 83.8104L71.15 83.1966L71.2658 82.8019L72.2477 82.4184L71.9371 82.2686L71.317 82.32L70.9007 82.6465L70.4064 83.1161L70.0746 83.2916L69.9054 83.1731L69.6817 83.1317L69.4033 83.1686L69.2163 83.2883L69.1206 83.4918L69.0092 83.6293L68.8834 83.6997L68.7922 83.6762L68.6586 83.4683L68.378 83.3386L68.24 83.1798L68.1609 83.2793L68.0652 83.579L67.9639 83.731L67.4896 83.8864L67.2291 83.8573L66.9174 83.4817L66.8729 83.3509L66.9787 83.0244L67.6633 81.7275L67.5943 81.7353L67.3727 81.9399L66.9308 82.4587L66.7337 82.613L66.3942 82.6331L66.2361 82.5772L66.0446 82.6197L65.8197 82.7583L65.6739 82.9104L65.6049 83.0747L65.6516 83.1027L65.9901 82.9148L66.1827 82.8645L66.2361 82.9562L65.9723 83.5387L65.812 84.0944L65.6594 84.2341L65.4167 84.2107L65.1507 84.2654L65.1473 84.4208L65.6427 84.8625L65.822 84.9251L66.0513 85.0827L66.0869 85.2393L66.0001 85.6608L65.9355 85.8262L65.8309 85.9123L65.4268 85.8978L65.2954 85.9414L65.0238 86.2053L64.8879 86.4233L64.9369 86.4423L65.1718 86.2623L65.5136 86.1661L65.9622 86.1527L66.2962 86.0577L66.5155 85.8788L66.7293 85.9291L66.9375 86.2086L66.9998 86.4535L66.9152 86.6637L66.7438 86.8135L66.4844 86.9029L66.3207 87.0371L66.2517 87.216L66.2127 87.4809L66.2038 87.8309L66.2695 88.4604L66.2194 88.5453L66.1214 88.5923L65.9767 88.6001L65.8465 88.7477L65.5414 89.5817L65.4334 89.6723L65.3054 89.5829L65.1919 89.5929L65.0928 89.7014L64.8757 89.7841L64.5406 89.8411L64.2534 89.8199L63.7491 89.6399L63.5431 89.5124L63.3828 89.3034L62.9297 89.5247L62.8106 89.4286L62.5289 88.8505L62.4677 88.8852L62.4132 89.508L62.3274 89.726L62.048 90.1754L61.8955 90.9469L61.8487 90.9704L61.7964 90.8586L61.6239 90.1687L61.5326 90.0167L61.2799 90.4147L61.252 90.5589L61.3188 91.0721L61.2598 91.1493L60.7488 90.8731L60.623 90.8597L60.5896 90.9066L60.7644 91.3035L60.7444 91.4467L60.0208 92.2114L59.8326 92.1846L59.7146 92.1085L59.5844 92.1208L59.1246 92.4048L58.9977 92.3925L58.824 92.2248L58.7438 92.2315L58.7004 92.4071L58.6949 92.7492L58.5245 93.0734L57.9768 93.5967L57.8321 93.837L57.7219 94.1658L57.6395 94.197L57.3178 93.9857L56.9459 93.8482L56.8947 93.9164L57.0083 94.1165L56.9849 94.2395L56.8235 94.2854L56.6197 94.2675L56.3726 94.1859L56.0264 94.2775L55.5822 94.5425L55.2115 94.5347L54.6938 94.0987L54.5513 94.0662L54.5057 93.9432L54.607 93.59L54.7539 93.3216L54.8619 93.1986L55.3528 92.8543L55.915 92.7279L56.2679 92.52L56.6977 92.0918L56.9248 91.7698L57.3712 90.9368L57.3378 90.872L57.2376 90.8261L56.2557 91.6166L56.111 91.6893L55.9162 91.6837L55.1313 91.3807L54.9654 91.251L54.8519 90.8708L55.0701 90.0033L55.2226 89.5829L55.6056 88.9322L56.1065 88.2356L56.2802 87.7828L56.5407 86.5664L56.5251 86.0118L56.4082 85.3343L56.4038 84.9307L56.5129 84.8032L57.6629 84.1726L58.2073 83.6986L59.2637 82.9964L59.551 83.002L59.7625 83.2435L60.0085 83.437L60.2891 83.5812L60.6498 83.5667L61.0906 83.3911L61.7897 83.4582L63.2258 83.92L63.5309 83.9457L63.5431 83.8875L63.3216 83.5644L62.3319 83.3766L61.9144 83.1888L60.7422 82.3603L60.475 82.0394L60.583 81.8896L60.8702 81.7655L60.9681 81.6459L61.0093 81.4368L61.1741 81.1517L61.4624 80.7872L61.9033 80.435L62.7371 79.9095L62.4109 79.8872L61.8109 79.9844L61.5927 80.0839L61.1919 80.4596L61.0361 80.7235L60.8123 81.2378L60.7165 81.335L60.3002 81.4088L59.1658 81.4603L58.9743 81.1975L58.8685 81.155L58.7283 81.1919L57.6862 81.8628L57.3133 82.2038L57.0472 82.5928L56.6353 82.8768L56.0787 83.0568L55.6623 83.2793L55.2237 83.7232L55.0745 84.0631L55.0656 84.2229L55.1725 84.725L55.0634 84.8189L54.8107 84.858L54.4043 85.1901L53.546 86.174L53.4336 86.5295L53.438 86.6514L53.5772 86.9286L53.4803 87.1086L53.2388 87.3926L52.7011 87.841L52.3481 88.0109L52.1188 88.0198L51.8984 87.9561L51.5065 87.6677L51.1892 87.6498L51.1692 87.69L51.6011 87.9986L52.0409 88.3944L52.3148 88.7231L52.4227 88.9836L52.4272 89.2519L52.3281 89.527L52.0175 90.0044L51.7136 90.1464L50.9354 90.2895L50.6849 90.4035L50.607 90.4918L51.1414 90.6931L51.1892 90.796L51.1158 91.194L50.9744 91.3237L50.5291 91.5607L50.1305 91.63L50.0693 91.5842L50.1439 91.2722L50.1227 91.1951L49.9724 91.1314L49.7598 91.2499L49.2288 91.7094L49.172 91.7843L49.3635 91.9073L49.3234 92.009L49.0362 92.3377L48.9171 92.5569L48.7245 92.7794L47.8673 93.4591L47.9329 93.6246L47.7103 94.2138L47.5856 94.7337L47.737 94.9517L48.4562 95.2067L48.8046 95.2681L49.2154 95.4459L49.9591 95.9244L50.2073 96.2364L50.2441 96.3828L50.2207 96.5427L50.1316 96.7585L49.899 97.1655L49.3368 97.7692L49.083 97.9403L48.6989 98.0744L48.5731 98.1717L48.0799 98.7408L47.9463 99.0471L47.9675 99.3143L47.8728 99.5011L47.2383 99.8678L47.2605 99.9326L47.491 99.9606L47.4064 100.284L47.3685 100.731L47.2583 100.806L46.862 100.802L46.3577 100.976L46.3221 101.025L46.3131 101.346L44.995 101.581L44.7067 102.187L44.5564 102.372L44.0399 102.812L43.7237 102.988L43.3619 103.096L43.1726 103.244L43.1548 103.434L43.0524 103.599L42.7396 103.87L42.5859 104.211L42.4746 104.265L41.8924 104.347L41.7766 104.455L41.7198 104.915L41.6118 104.929L41.4048 104.822L41.1354 104.905L40.5297 105.423L40.3973 105.61L40.4117 105.71L40.5053 105.808L40.6489 106.115L40.64 106.322L40.4073 106.898L40.3249 106.988L40.0421 107.129L39.9264 107.447L39.6659 107.412L39.4554 107.473L39.3174 107.684L39.1682 107.806L39.0068 107.837L38.8031 108.005L38.5593 108.307L38.3322 108.499L38.124 108.582L37.9214 108.603L37.7243 108.561L37.5473 108.595L37.3903 108.707L37.2367 108.881L37.1143 109.376L36.9595 109.596L36.8615 109.634L36.6612 109.602L36.3584 109.498L36.0511 109.534L35.5546 109.837L35.3965 110.065L35.7093 110.116L35.8641 110.181L35.8607 110.244L35.6982 110.306L35.4199 110.301L35.2529 110.354L35.0503 110.484L34.5404 110.623L34.3467 110.723L33.9626 111.291L33.9159 111.419L33.9648 111.447L34.1808 111.388L34.4346 111.482L34.566 111.602L34.6506 111.749L34.7308 112.033L34.7797 112.076L34.2921 112.552L34.1541 112.754L34.065 112.829L34.006 112.771L33.9459 112.241L33.9092 112.151L33.7934 112.142L33.6821 112.309L33.4383 112.936L33.1722 113.251L31.1739 114.056L30.8867 114.241L30.8299 114.584L30.7475 114.88L30.615 115.115L30.4603 115.263L30.4269 115.157L30.4425 114.324L30.4013 114.159L30.1998 114.052L30.1107 114.067L29.9894 114.114L29.789 114.295L29.6665 114.34L29.514 114.325L29.2535 114.503L28.6345 115.072L28.2304 115.213L28.1235 115.33L27.951 115.641L27.8363 115.755L27.6671 115.765L27.4422 115.673L27.2619 115.738L27.1249 115.964L26.9858 116.054L26.5928 115.887L26.4191 116.001L26.1943 116.292L25.9594 116.483L25.7144 116.576L25.0777 116.672L24.8216 116.611L24.7693 116.527L24.7815 116.157L24.8839 115.889L24.9786 115.763L25.1055 115.651L25.2914 115.638L25.6387 115.722L25.5987 115.632L25.4729 115.526L25.1534 115.342L24.8361 115.248L24.6546 115.308L24.3997 115.449L24.226 115.612L24.1347 115.798L24.0201 116.401L23.9533 116.565L23.2074 117.623L22.9146 117.949L22.6251 117.924L22.4849 118.047L22.2878 118.31L22.1052 118.436L21.9383 118.425L21.808 118.375L21.7156 118.286L21.7312 118.204L21.8559 118.127L21.8113 117.916L21.5976 117.57L21.4518 117.382L21.1746 117.36L21.1311 117.517L21.2247 118.32L21.2102 118.501L21.0376 118.729L20.5834 118.984L20.442 118.96L20.0335 118.458L19.646 118.358L19.6204 118.521L19.7073 118.856L19.6104 119.166L19.331 119.456L19.1184 119.596L18.9725 119.587L18.9647 119.384L19.095 118.988L19.1284 118.657L19.0649 118.39L19.0727 118.187L19.1495 118.045L19.6627 117.649L19.8787 117.59L19.9945 117.687L20.1381 117.704L20.3118 117.639L20.4209 117.513L20.4665 117.324L20.6881 117.082L21.0855 116.786L21.5408 116.239L22.0529 115.439L22.653 114.747L23.3421 114.164L24.0891 113.7L25.5942 113.062L25.71 113.101L25.5719 113.309L25.6655 113.439L25.8135 113.455L26.3646 113.353L26.5839 113.218L26.6485 113.348L26.5717 113.511L26.241 113.677L26.2499 113.814L26.732 114.457L26.8834 114.554L27.0092 114.542L27.0626 114.459L27.0225 113.995L27.1851 113.907L27.5179 113.885L27.735 113.945L27.8363 114.087L28.0267 114.204L28.3061 114.298L28.4798 114.269L28.5477 114.118L28.4286 113.938L27.8931 113.543L27.7439 113.377L27.7083 113.146L27.784 112.849L27.9521 112.409L28.2126 111.824L28.4486 111.415L28.9262 110.95L29.2479 110.72L30.064 110.013L31.6325 109.291L32.02 108.826L32.5465 108.311L32.7725 108.185V108.384L32.8449 108.562L33.1967 108.68L33.426 108.722L33.5318 108.686L33.5607 108.497L33.514 108.154L33.5017 107.829L33.5251 107.524L33.5763 107.283L33.8112 106.852L34.1608 106.361L34.6384 105.79L34.9401 105.531L35.2239 105.392L35.4989 105.142L35.972 104.548L36.1235 104.451L36.463 104.333L36.5877 104.385L36.66 104.535L36.7491 104.627L37.0931 104.711L37.3224 104.579L37.2846 104.509L37.0987 104.463L36.9796 104.377L36.8671 104.022L36.6389 103.809L36.5877 103.566L36.6289 103.188L36.8248 102.298L36.8571 101.379L37.0319 100.851L37.3826 100.659L38.1607 100.529L37.7054 100.289L37.5362 100.288L37.2401 100.175L37.1276 99.5961L37.1298 99.1746L37.3258 98.6849L38.0505 97.8564L38.8443 97.2806L38.7363 97.2337L38.6383 97.0626L39.0046 95.9043L39.3619 94.8656L38.8799 95.7512L38.3221 96.4264L36.6856 97.2079L35.5724 97.8609L35.0447 98.0163L34.6963 97.8508L34.4246 97.2247L34.2688 97.0011L34.0695 96.5919L34.1541 96.0575L34.3122 95.6874L34.6595 95.627L35.0514 95.8059L35.3909 95.8216L34.9534 95.456L34.3222 95.1362L34.0361 95.2402L33.8168 95.7578L33.524 96.1123L33.2668 95.9859L33.1143 95.8417L33.2201 96.2744L33.0252 96.9318L32.9518 97.3857L33.2301 98.5798L33.1789 99.055L32.6723 99.273L32.2593 98.8828L31.3988 97.3712L31.0982 96.9385L30.4235 96.223L30.2009 96.3247L29.917 96.678L29.642 96.7753L28.9162 96.2542L28.5778 95.8562L28.2582 95.3721L27.7684 95.6393L27.3409 95.9569L26.84 96.4622L26.5049 96.4577L25.5942 96.8904L25.4974 96.8994L25.3693 97.1319L25.2435 97.2359L25.14 97.6831L23.9087 98.0297L22.6919 97.8363L23.1172 97.5903L23.5926 97.3969L24.0056 96.9307L23.8297 96.3057L23.7996 95.9871L23.8041 95.5834L24.255 95.0154L23.7863 95.0166L23.4846 95.2201L23.2029 94.793L23.0704 93.95L23.3933 93.4491L23.5425 93.0622L23.6694 92.53L23.6783 92.0716L23.4289 91.2935L22.712 89.6354L22.3858 88.3899L21.8269 87.7236L22.2444 86.6279L22.7097 85.625L23.3109 85.1744L23.263 85.1073L22.9313 85.1107L22.7131 85.1699L22.5205 85.4975L22.3168 85.7468L21.6811 87.0225L21.2714 87.6419L21.0053 87.8186L21.4339 88.0579L21.4996 88.2591L21.582 88.7164L21.4718 89.2698L21.3616 89.575L20.8562 89.5504L20.402 89.9943L19.3354 90.4762L17.8949 90.7512L17.1868 90.7188L16.4499 90.1576L16.4554 89.8311L16.4855 89.5482L15.4268 88.5744L14.8278 87.5994L14.397 87.5782L14.023 87.3177L13.581 86.9119L13.62 86.5843L13.6901 86.3528L13.4185 86.1907L13.0711 86.2064L12.667 86.0946L13.7224 84.8245L14.0853 83.9692L14.3814 83.8473L14.7655 83.9792L15.2954 84.3169L15.7418 84.4656L15.9033 84.6243L16.068 84.9229L15.8943 85.4226L15.7352 85.7726L15.9311 85.6786L16.4866 85.1364L16.9007 84.659L17.0989 84.7082L17.228 84.792L17.4585 85.284L17.7435 85.7838L18.3725 85.3074L18.7087 84.7127L18.4248 84.4521L18.0775 84.2967L17.1913 84.0944L17.4073 83.9233L17.9761 83.9423L18.1899 83.7791L17.965 83.5521L17.6834 83.3486L16.9163 84.0251L15.5203 83.9915L14.5451 83.5957L13.571 83.665L13.4173 83.5868L13.2281 83.3755L13.7769 82.8712L14.1654 82.5917L14.1866 82.4296L13.9606 82.4095L13.5365 82.5436L13.3472 82.3111L13.3784 81.9064L13.3082 81.9433L13.1401 82.1646L12.903 82.0551L12.6971 81.865L12.8039 81.6705L13.0132 81.4021L12.9208 81.3619L12.7338 81.4189L12.5512 81.7688L12.5913 82.0517L12.5868 82.4576L12.2751 82.5313L12.0079 82.4833L11.8154 82.0752L11.6161 81.1986L11.0773 80.965L10.9448 80.52L11.2854 79.9464L11.1351 79.6501L10.7722 79.554L10.3581 79.8436L10.1744 79.5864L10.141 79.3035L10.1265 78.8966L10.2423 78.853L10.3381 78.9335L11.1697 78.7076L11.2498 78.5969L10.5908 78.2515L10.4071 77.8881L10.6798 77.6813L11.1719 77.6634L11.8621 77.4476L11.5715 77.0607L11.5103 76.8483L11.4524 76.4995L11.5671 75.9058L12.3787 74.5384L13.1691 73.3913L13.4151 73.1263L13.7769 72.9832L14.1142 73.0939L14.466 73.341L14.5328 73.2348L14.4137 73.1342L14.2634 72.6623L14.7521 72.4767L15.0382 71.9423L15.0594 71.7869L14.7488 72.0094L14.4248 72.375L14.3436 72.0072L14.2601 71.1597L14.4026 70.3558L14.5139 69.9936L14.7844 69.6492L15.5637 69.5106L15.7018 69.5799L15.7296 69.4166L15.2609 68.9068L15.4535 68.5077L15.6227 68.2997L16.5645 67.9755L17.0789 68.0761L17.7246 68.454L18.0997 68.9236L18.0452 69.164L17.9528 69.3037L17.7591 69.4591L17.6867 69.5799L17.7212 69.676L17.9984 69.3965L18.4515 69.0566L18.7053 69.2042L18.9057 69.4726L19.1273 69.4681L19.832 69.2378L20.1893 68.994L20.6268 68.3579L21.208 67.9464L22.0262 66.6405L22.2667 66.1028L22.5461 66.02L22.7988 66.067L22.9747 66.5086L23.2319 66.6372L24.6958 66.5299L25.4439 66.3275L25.9638 65.8993L26.5049 65.1759L26.8177 64.6895L26.968 64.0545L26.7743 63.2294L26.5761 62.5418L26.3156 60.9609L25.5886 59.9099L25.0721 59.5946L24.7437 59.6393L24.9808 58.9652L25.6733 59.0378L26.1241 58.9059L26.4893 58.5805L26.6084 58.3335L26.7887 57.8281L26.7264 57.2881L26.6295 56.994L26.3779 56.6698L26.0785 56.1946L25.8692 56.0359L25.6922 56.0459L24.8194 56.9996L24.295 57.0175L23.9032 56.8431L23.5625 57.3842L22.6129 57.8583L22.1052 58.3357L21.1645 59.5163L20.9296 60.0485L20.6291 60.072L20.412 59.0389L19.3889 58.0483L19.0794 58.386L19.2497 58.6968L19.4813 58.9182L19.8631 59.0143L19.6984 59.314L19.5737 59.712L19.1907 59.3386L18.5061 58.7952L17.7969 58.5146L15.9511 58.5459L14.7399 59.1038L14.6286 58.9875L14.5117 58.9417L14.3091 59.0747L14.2222 59.3017L14.0897 59.4437L13.8426 59.494L13.3439 59.4101L12.382 59.0635L10.2056 58.5537L9.63558 58.2395L9.14797 57.4893L9.15799 56.9784L9.37508 56.7615L9.35393 56.0269L8.93089 55.8313L8.06811 54.7691L7.75083 54.3152L7.81985 54.2649L7.97459 54.3879L8.26961 54.4807L8.99323 54.3331L9.24149 53.641L9.77808 53.4431L10.2724 53.5404L10.161 53.3526L10.0352 53.205L8.74831 52.8505L8.57353 52.959L6.26573 52.3284L4.44332 51.2283L4.29415 51.0169L4.12827 50.5451L4.3743 50.0778L4.62144 49.8564L4.63258 50.1136L4.67266 50.3662L5.7169 49.7793L6.26351 49.0067L7.29773 48.8703L7.53819 48.6568L7.85993 48.2397L8.31859 47.5253L8.96762 47.1485L9.40959 46.8097L9.98515 46.6085L10.4761 46.9428L10.6275 46.9886L11.5181 47.0568L11.8109 46.9126L11.9356 46.8053L12.0291 46.6353L11.1541 46.0293L11.2431 45.6917L11.3545 45.4535L12.3753 44.7436L13.1602 44.5088L13.5799 44.5256L14.7978 43.6043L15.4646 43.3404L16.7215 43.1649L17.7546 43.1191L18.034 43.4489L17.4785 43.3796L17.2347 43.4399L17.4084 43.5529L17.6043 43.7932L17.5475 44.0962L17.2069 44.9918L17.2347 45.7062L17.0132 45.9377L16.7983 46.263L17.8559 47.2838L19.4924 47.3486L20.383 47.1642L20.8974 47.4683L21.3182 47.5376L22.4826 47.3811L23.3599 47.598L23.7262 47.5152L24.5377 45.9891L24.855 45.7487L25.2001 46.0148L25.6499 46.2306L25.9371 46.0741L26.1709 46.4687L26.0607 45.6458L25.9015 45.3362L24.5767 44.7671L23.6905 45.0499L23.4133 44.7291L23.5057 44.0918L22.5572 42.5131L22.162 42.1911L21.6944 42.1754L21.4562 41.6231L21.2569 40.912L21.6599 40.6202L22.0251 40.4883L22.3624 40.7186L22.7443 41.6533L23.0994 41.7908L22.9959 42.7177L23.4367 43.5685L24.432 44.3556L25.2291 44.0661L25.7924 44.075L26.1286 44.2405L26.9524 44.9448L27.371 45.0332L28.6791 44.6642L28.6924 43.971L28.5822 43.4679L28.2749 43.1515L27.391 43.2107L26.703 42.6897L26.1174 42.8329L25.0342 43.63L24.4921 43.317L24.1514 42.891L23.6015 42.4572L23.5324 41.6343L23.9933 40.6862L24.334 40.2334L24.029 39.9024L23.2619 39.6699L21.9305 39.908L21.8681 39.5827L21.8748 39.2316L21.3326 39.9192L20.776 39.775L20.0257 39.8488L18.3691 39.2428L17.7791 38.4926L17.532 37.8821L17.0855 36.1984L16.5155 35.1384L12.5757 31.4925L10.7834 30.5656L9.92058 29.5348L9.37953 29.2799L8.86298 29.1759L8.20059 28.8416L8.64589 28.4302L8.95204 28.2904L8.63364 28.7208L8.87522 28.8293L9.26041 28.5811L9.46859 28.2837L9.77363 27.0169L10.0887 25.085L10.0041 24.3191L12.1894 24.4734L13.6444 24.3437L14.1265 24.1693L15.9611 23.873L16.4365 23.6583L17.3182 22.9976L18.3569 21.8247L19.2475 20.2729L19.3889 19.8536L19.4457 19.961L19.5258 19.8939L19.6204 19.3013L19.7373 17.9004L20.1793 16.5688L22.0596 13.4998L22.9324 12.2699L23.223 11.7087L23.5258 11.2983L23.7395 11.6885L23.8408 11.8048L23.8998 11.9882L23.7206 12.0731L23.4289 12.4712L23.0215 12.7373L22.9235 12.8737L23.1628 12.8435L23.8787 12.5539L24.2828 12.2028L26.2911 11.551L27.3799 10.4699L27.4222 10.2284L29.0375 8.86657L29.2613 8.91912L29.5185 9.08348L29.0709 9.98239L29.386 10.2172L29.1066 11.2849L29.6921 11.3017L29.8235 11.7914L29.8558 11.3699L29.8491 10.7639L29.8959 10.1669L29.9827 9.75319L30.3946 9.93991L31.3219 9.49491L30.1987 9.43901L29.5251 8.46184L29.1511 8.45401L30.4035 7.01174L31.5479 6.13519L31.8062 6.15196L31.9309 6.31519L31.9576 6.58017L31.7105 6.75234L31.4678 7.06316L31.5791 7.33709L31.745 7.37623L32.2949 7.15149L32.541 6.86975L33.7132 6.89435L34.0572 6.69309L34.1396 6.49296L35.6581 6.45271L35.9364 6.31183L36.886 5.53367L37.7644 4.58669L38.1685 4.06792L38.8621 2.73968L39.4566 1.87095L40.434 1L40.6678 1.10845L40.3505 1.28175L40.1301 1.6507L40.434 2.1404L42.4924 3.14552L43.0101 3.20032L43.2172 3.79959L43.0446 4.37538L42.5136 5.01266L41.4449 5.66336L41.7721 5.90823L41.9859 6.48513L42.3021 6.55557L42.8153 6.33867L43.2172 5.98425L44.0488 4.82483L44.3104 4.17525L44.5063 4.01089L45.2032 4.16742L45.5973 4.50171L46.0471 5.09317L45.8823 5.66336L45.6986 5.98425L46.2809 6.42699L46.9266 6.51979L47.5422 6.87533L48.4072 6.14748L49.0852 5.99208L49.7208 6.01555L50.548 5.61752L51.9474 6.15978L52.3036 6.01891L52.8647 6.11283L53.4614 6.43929L53.6718 6.78701L53.0328 7.52156L52.9293 8.27625L53.1519 8.59042L53.556 8.64408L53.6073 9.08348L53.8588 9.19305L55.1213 9.16062L55.0244 9.36969L54.9632 9.62126L54.5724 10.1769L56.8224 10.4889L57.1241 10.1814L57.5894 10.0595L58.578 9.63467L58.9498 9.82026L59.3884 10.2541L59.7937 10.3446L60.1722 10.2563L61.0539 9.6369L62.0725 9.60672L62.49 9.80909L62.9308 9.72077L64.2578 10.4296L64.7466 10.5123L65.4 11.4303L65.7374 11.4571L66.1192 11.068L66.451 11.0803L66.7749 11.4526L67.3048 11.5667L67.552 12.1525L67.8181 12.3649L69.8253 12.7987L70.8194 12.6008L72.2678 12.6523L72.9658 12.9296L73.6983 12.8938L74.8951 13.8989L75.5296 14.0554L75.6532 14.2869L77.46 14.5306L78.0924 14.0085L79.1945 13.8698L80.1864 13.4293L80.7486 13.4338L81.4032 13.5434L81.6548 13.4908L81.8363 13.2985L83.4316 14.0565L84.3244 14.9197L84.7152 15.5547L86.5832 16.4592L87.1231 16.9635L87.4928 17.518L87.7098 17.5773L87.8624 17.4152L88.5147 17.4621L88.753 17.5426ZM10.3069 46.1713L10.1866 46.2149L10.1933 46.0964L10.5496 45.78L11.2064 45.3876L11.1819 45.4726L10.8312 45.7767L10.3069 46.1713ZM67.1056 84.2677L66.7104 84.3202L66.5289 84.2386L66.5033 84.1503L66.5779 83.8249L66.5723 83.6874L66.7716 83.636L67.0009 83.7903L67.0677 83.9501L67.1056 84.2677ZM54.3264 87.2305L54.1761 87.254L54.3776 86.9409L54.5179 86.3293L54.706 86.4143L54.7439 86.5261L54.4333 87.1534L54.3264 87.2305ZM67.9561 86.6681L67.955 86.8347L67.857 86.9957L67.9505 87.2898L67.788 87.794L67.7257 88.1138L67.6388 88.315L67.552 88.3921L67.464 88.3463L67.4451 88.2356L67.4963 88.059L67.2904 88.0646L67.2269 87.6241L67.3416 87.4843L67.3828 87.2965L67.3961 87.169L67.5308 86.6066L67.5787 86.5675L67.5943 86.7017L67.6377 86.7408L67.709 86.686L67.8158 86.4356L67.8615 86.4065L67.9561 86.6681ZM71.9071 86.6737L71.9772 86.8481L72.5784 86.8056L72.7509 86.837L72.8199 86.9174L72.7387 87.0348L72.5071 87.1902L71.8303 87.4631L71.2803 87.8208L71.2091 87.7873L71.1089 87.396L71.0076 87.2372L70.9452 87.0158V86.9331L71.0465 86.7799L71.248 86.5563L71.3905 86.4758L71.9071 86.6737ZM75.8914 87.387L75.7912 87.5413L75.5185 87.4865L75.3727 87.3881L75.8603 86.9812L75.9404 87.0628L75.8914 87.387ZM10.2267 87.093L10.5139 87.4072L10.6665 87.425L11.1474 87.33L11.3244 87.3971L11.4947 87.5324L11.6005 87.7392L11.6205 88.1015L11.5426 88.4246L11.566 88.8796L11.5493 89.0753L11.8042 89.3324L11.8844 89.6801L11.9256 90.0536L11.3712 90.1777L10.8168 90.1978L10.3381 90.4505L10.2401 90.6372L10.3169 90.9133L10.1855 90.9838L10.0642 90.9234L9.83263 90.6674L9.5788 90.5455L8.68931 90.3566L7.57271 89.6108L7.09178 89.4565L6.60417 88.9087L6.16331 88.2099L6.45054 88.097L6.73998 88.04L8.03805 88.1439L8.20059 87.6419L8.36758 87.5167L8.77948 87.3747L9.16467 87.0952L9.33723 87.1019L9.51312 87.2093L9.87827 87.0427L10.072 87.0069L10.2267 87.093ZM67.7145 90.6763L67.3694 90.7669L67.2881 90.5824L67.4696 90.1229L67.6143 89.8624L67.7223 89.8009L68.1186 89.281L68.5584 88.902L68.9625 88.3463L69.3722 87.5514L69.4479 87.254L69.6382 87.2227L69.9511 87.4183L70.1448 87.6934L70.0546 87.9114L69.0182 89.0384L68.9313 89.1848L68.8378 89.5661L68.7521 89.6992L68.6152 89.7595L68.5161 89.925L68.4537 90.1967L68.3257 90.3387L68.132 90.351L67.9984 90.4259L67.9238 90.5634L67.7145 90.6763ZM66.8206 89.0999L66.6569 89.2922L66.0391 89.1759L66.1671 88.7969L66.6391 88.5576L67.1557 88.9299L66.8206 89.0999ZM77.6192 90.645L77.4689 90.6808L77.6938 90.2716L77.9955 89.8188L78.2794 89.5348L78.649 89.4163L78.6078 89.6231L78.1258 90.0055L77.6192 90.645ZM26.526 98.2388L26.2967 98.3349L26.054 98.2868L25.8625 97.6909L26.0095 97.6719L26.3167 97.2784L26.9969 96.9598L27.1639 96.924L26.526 98.2388ZM52.8736 98.7911L52.7812 98.8291L52.553 98.6458L52.4027 98.4512L52.5018 98.3025L52.9437 97.9895L53.1553 97.9839L53.2421 98.0331L53.2766 98.1303L53.2599 98.2746L53.1653 98.4546L52.8736 98.7911ZM53.0885 99.5368L53.202 99.5849L53.32 99.2294L53.4035 99.2182L53.7731 99.519L54.0002 99.4519L54.1461 99.822L54.2774 99.8555L54.3988 99.8108L54.4723 99.8365L54.4466 100.227L54.1761 100.621L54.0503 100.721L53.8744 100.619L53.8088 100.581L53.693 100.407L53.605 100.186L53.5527 100.183L53.3467 100.442L53.3512 100.571L53.4369 100.763L53.4247 100.883L53.1998 100.94L52.9794 100.91L52.71 101.077L52.6454 100.974L52.6042 100.679L52.5207 100.713L52.3938 101.073L52.2546 101.301L52.0019 101.49L51.9463 101.582L51.7615 101.594L51.4876 101.713L51.3184 101.692L50.3098 101.302L50.0726 101.159L50.902 100.261L51.3384 99.9125L51.5911 99.9315L51.8438 100.04L51.9774 100.022L51.9874 99.6229L51.7526 99.3244L51.7615 99.2003L52.2814 98.9957L52.4762 99.0248L52.691 99.1299L52.8948 99.2998L53.0885 99.5368ZM108.504 100.719L109.298 100.854L109.879 100.824L110.41 101.709L110.737 102.421L110.928 102.919L111.037 103.399L111.183 103.86L111.17 103.925L110.863 103.614L110.643 102.983L110.531 102.736L110.419 102.624L110.302 102.39L110.074 101.784L110.066 101.613L109.965 101.454L109.848 101.388L109.716 101.414L109.67 101.476L109.69 101.895L109.795 102.36L110.368 103.373L110.751 103.948L110.827 104.138L110.877 104.661L110.712 104.897L110.915 105.378L110.907 105.471L110.862 105.563L110.317 105.776L109.817 106.662L109.269 107.18L109.017 107.263L108.895 107.176L108.781 106.979L108.713 106.714L108.693 106.382L108.83 106.171L109.1 105.078L109.108 104.718L108.771 104.217L108.567 103.807L108.457 103.233L108.272 101.708L108.186 101.218L108.066 100.809L107.91 100.482L107.793 100.12L107.713 99.7258L107.743 99.5726L108.014 99.7783L108.339 100.344L108.504 100.719ZM109.652 100.319L109.63 100.467L109.204 100.453L108.774 100.236L108.562 99.9505L108.605 99.822L109.004 99.7023L109.383 99.9729L109.652 100.319ZM105.224 100.228L105.67 100.807L105.673 100.94L105.582 101.337L105.339 101.449L105.409 101.606L105.589 101.725L105.718 101.626L106.189 101.071L106.334 100.955L106.422 100.942L106.996 101.11L107.498 101.375L107.646 101.586L107.73 101.956L107.596 102.755L107.184 102.893L106.989 102.879L106.781 102.762L106.446 103.04L106.724 103.251L107.57 103.299L107.826 103.746L107.9 104.091L107.717 104.721L107.238 104.547L106.815 104.181L105.947 103.662L105.739 103.639L105.6 103.731L105.562 104.045L105.571 104.725L105.339 105.077L104.656 104.921L104.388 104.407L104.137 103.591L103.194 102.619L102.939 102.425L102.6 101.841L102.736 101.377L102.776 101.109L102.957 101.037L103.222 100.829L103.37 100.379L103.608 100.743L103.927 101.093L103.931 100.764L104.081 100.502L104.394 100.512L104.541 100.457L104.746 100.211L105.042 100.084L105.224 100.228ZM51.5856 102.714L51.6078 103.037L51.7347 102.998L52.2157 102.666L52.4662 102.569L52.7923 102.553L53.0506 102.705L53.1029 102.822L53.0796 102.96L52.8725 103.241L52.8814 103.423L53.1041 103.759L53.6507 103.941L53.7175 104.041L53.7152 104.162L53.339 104.716L53.2009 104.844L53.1029 104.876L52.4194 104.776L51.7937 104.595L51.541 104.564L51.4509 104.623L51.2738 104.793L51.4008 104.843L51.9485 104.883L52.1422 105.13L52.2268 105.313L52.2691 105.513L52.16 105.594L51.9262 105.655L51.6457 105.654L51.2983 105.878L51.1069 106.136L50.4111 106.2L49.8812 106.543L49.6952 106.711L49.6296 106.913L49.4292 107.058L48.9783 107.204L49.2477 107.335L49.29 107.446L49.2945 107.599L49.2577 107.731L48.9015 108.318L48.2291 108.8L48.0587 108.778L47.9853 108.717L47.9252 108.625L47.9229 108.533L48.7902 107.564L48.7556 107.517L48.5196 107.485L48.1467 107.218L47.8829 107.39L47.8227 107.383L47.8929 107.154L48.0643 106.881L48.0343 106.804L47.9396 106.736L47.7225 106.695L47.3819 106.681L47.1292 106.746L46.9655 106.889L46.9522 106.95L47.3006 106.933L47.3952 107.005L47.4888 107.141L47.5455 107.297L47.5667 107.475L47.4932 107.713L47.3273 108.012L47.0835 107.959L46.5837 107.294L46.3632 106.317L45.9358 105.568L45.9168 105.388L46.0382 104.924L46.469 104.263L46.9321 104.082L47.2617 103.803L47.5812 103.719L47.7782 103.726L48.0487 103.846L48.1578 104.1L48.0921 104.218L48.1166 104.281L48.3059 104.433L48.5107 104.964L48.749 105.433L48.9082 105.623L49.1175 105.741L48.9015 105.383L48.7735 104.939L48.7089 104.052L48.6465 103.816L48.7679 103.753L49.1097 103.788L49.1008 103.655L48.7401 103.354L48.5185 103.105L48.435 102.908L48.4395 102.737L48.6365 102.484L48.7479 102.412L48.8636 102.381L49.093 102.435L49.1954 102.514L49.4893 103.082L49.6273 103.259H49.742L49.8478 103.165L49.9457 102.977L50.047 102.864L50.1506 102.827L50.4779 102.911L50.587 102.88L50.6404 102.738L50.6382 102.483L50.7194 102.391L50.7395 102.203L50.5614 101.926L50.7662 101.841L51.4453 102.052L51.7359 102.284L51.5856 102.714ZM50.5157 102.561L50.4278 102.724L50.3454 102.682L50.1706 102.491L49.8144 102.211L49.6518 102.02L49.6418 101.938L49.7643 101.848L50.1829 102.074L50.361 102.279L50.5157 102.561ZM107.601 105.476L107.865 106.112L108.058 106.604L108.23 107.194L108.516 108.412L108.649 108.87L108.692 109.121L108.723 109.775L108.679 109.916L108.594 110.044L108.577 110.231L108.656 110.727L108.66 111.48L108.586 111.902L108.498 111.966L108.284 111.828L108.108 111.598L107.979 111.36L107.66 110.605L107.565 110.253L107.559 110L107.608 109.814L107.713 109.699L107.894 109.39L107.869 109.341L107.731 109.41L107.449 109.449L107.201 109.206L107.007 109.077L107.046 108.637L106.995 108.513L106.614 108.649L106.472 108.526L106.44 108.36L106.447 108.113L106.52 107.896L106.88 107.348L106.843 107.246L106.668 107.223L106.436 107.036L106.33 106.418L106.081 106.066L105.934 106.099L105.6 107.094L105.435 107.311L104.965 107.45L105.061 107.174L105.106 106.927L104.939 106.177L104.934 105.887L105.046 105.674L105.377 105.584L105.553 105.458L105.69 105.251L105.725 105.05L105.982 104.516L106.102 104.412L106.423 104.418L107.096 105.01L107.301 105.097L107.601 105.476ZM51.2449 106.787L50.8475 106.973L50.7773 106.965L50.5324 107.341L50.3454 107.503L50.0982 107.207L50.1617 106.746L50.3777 106.44L51.4709 106.543L51.5555 106.629L51.5577 106.701L51.4776 106.762L51.2449 106.787ZM112.61 107.486L112.818 107.666L112.932 107.477L113.142 107.486L113.534 107.654L113.767 107.905L113.898 108.193L113.909 108.364L113.869 108.752L113.898 109.149L113.882 109.354L113.829 109.524L113.741 109.659L113.646 109.675L113.342 109.32L112.993 108.677L112.728 108.481L112.717 108.548L112.789 108.733L113.007 109.079L113.045 109.287L113.198 109.541L113.266 109.732L113.305 109.984L113.304 110.203L113.261 110.391L113.191 110.51L113.092 110.563L112.56 110.51L112.243 110.636L111.872 110.565L111.783 110.451L111.727 110.266L111.7 109.814L111.606 109.165L111.628 108.666L111.389 108.213L111.184 107.939L110.889 107.694L110.695 107.45L110.749 107.256L111.051 107.11L111.545 107.145L112.61 107.486ZM110.663 108.395L110.866 108.791L111.16 108.758L111.324 109.058L111.449 109.505L111.358 109.792L111.228 109.728L111.083 109.893L110.994 110.442L111.035 110.991L110.99 111.537L110.822 112.091L110.788 112.463L110.722 112.573L110.65 112.611L110.556 112.511L110.42 112.432L110.249 112.744L110.04 112.747L109.866 112.037L110.021 110.849L110.368 110.607L110.161 110.282L109.725 109.905L109.761 109.694L109.43 109.085L109.411 108.94L109.463 108.43L109.772 107.974L110.182 107.893L110.468 108.089L110.629 108.255L110.663 108.395ZM114.545 110.215L114.512 110.298L114.114 110.29L113.971 110.222L113.917 109.979L113.954 109.755L114.046 109.58L114.159 109.244L114.247 108.682L114.829 109.311L115.008 109.59L115.104 109.931L114.897 110.059L114.646 110.12L114.545 110.215ZM47.491 110.277L47.3374 110.289L47.1058 110.139L47.137 109.959L47.4665 109.742L47.7994 109.776L47.8238 109.897L47.8083 110.033L47.7815 110.111L47.6758 110.193L47.491 110.277ZM46.0092 110.725L45.7955 110.859L45.7253 110.812L45.7153 110.702L45.7654 110.525L45.8645 110.348L46.194 110.013L46.5258 109.79L46.695 109.804L46.7529 109.946L46.5458 110.24L46.0092 110.725ZM116.528 112.565L116.463 113.497L116.34 113.444L116.222 113.443L115.981 113.575L115.727 113.517L115.608 113.414L115.565 113.294L115.61 113.017L115.47 112.863L114.996 112.807L114.818 112.741L114.72 112.449L114.696 112.067L114.771 111.924L115.01 111.823L115.196 111.357L115.3 111.294L115.694 110.368L115.892 110.433L116.238 110.997L116.672 111.809L116.528 112.565ZM114.443 111.791L114.282 111.809L114.093 111.722L113.644 111.263L113.637 111.128L113.701 110.973L113.956 110.692L114.061 110.623L114.673 110.654L114.869 110.729L114.914 110.86L114.904 110.995L114.839 111.13L114.824 111.271L114.859 111.418L114.788 111.565L114.443 111.791ZM111.986 111.272L112.578 111.393L113.12 111.38L113.306 111.613L113.428 111.858L113.5 112.088L113.52 112.304L113.505 112.456L113.44 112.619L113.454 112.674L114.514 113.207L115.014 113.766L115.213 114.059L115.329 114.306L115.538 114.925L115.979 115.64L116.21 115.857L116.342 116.068L116.268 116.076L115.958 115.92L115.285 115.441L115.23 115.46L115.168 115.719L115.064 115.946L114.909 116.11L115.033 116.158L115.575 116.055L116.031 116.52L116.208 116.604L116.38 116.937L116.385 117.064L116.285 117.31L116.208 117.411L116.234 117.479L116.361 117.514L116.864 117.445L116.954 117.565L116.88 118.522L116.951 118.873L116.95 119.033L116.892 119.245L116.89 119.424L116.935 119.607L116.941 119.77L116.813 120.196L116.678 120.268L116.461 120.271L116.29 120.15L116.049 119.784L115.815 119.213L115.725 119.132L115.418 119.046L115.362 118.977L115.166 118.965L115.027 118.73L115.044 118.422L114.924 118.105L114.938 117.964L114.803 117.905L114.69 117.995L114.749 118.304L114.682 118.544L114.438 118.443L114.031 117.676L113.568 117.059L113.386 116.912L113.434 116.732L113.662 116.637L113.847 116.645L113.885 116.538L113.499 115.939L113.512 115.769L113.652 115.466L113.476 115.339L112.994 115.434L112.824 115.371L112.685 115.127L112.604 114.916L112.186 114.878L112.028 114.903L111.755 114.582L111.632 114.38L111.681 114.276L111.931 114.094L112.078 114.12L112.36 114.314L112.47 114.307L112.749 114.049L112.792 113.817L113.001 113.624L112.968 113.422L112.852 113.076L112.596 112.98L112.072 113.186L111.617 113.502L111.435 113.379L111.395 113.186L111.882 112.658L112.096 112.366L112.055 112.193L111.898 111.968L111.884 111.406L111.986 111.272ZM120.068 116.021L119.959 116.627L119.744 117.246L119.416 117.578L119.184 117.504L119.014 117.236L118.856 117.25L118.687 117.195L118.593 116.973L118.682 116.685L118.603 116.463L118.519 116.657L118.371 116.835L117.998 117.068L117.741 117.511L117.62 117.799L117.468 117.485L117.372 116.739L117.359 116.422L117.63 115.942L117.979 115.486L118.05 114.118L119.161 113.427L119.264 113.463L119.625 113.979L120.009 114.698L120.108 115.021L120.11 115.583L120.068 116.021ZM43.2495 114.179L43.1281 114.354L42.891 114.342L42.7585 114.285L42.714 114.131L43.0791 113.666L43.1626 113.603L43.2283 113.621L43.2572 113.813L43.2495 114.179ZM112.802 115.719L112.871 115.875L112.875 115.973L112.423 116.34L112.415 116.416L112.31 116.642L112.215 116.725L112.047 116.969L111.725 117.233L111.773 116.441L111.454 115.979L111.775 115.745L111.986 115.812L112.335 115.839L112.676 115.636L112.802 115.719ZM27.2563 116.983L27.3042 116.986L27.3999 116.944L27.6025 116.634L27.6693 116.621L27.6704 116.716L27.5747 117.022L27.7372 117.431L27.8886 117.627L27.8731 117.696L27.4934 117.837L27.204 117.735L27.0515 117.771L26.9123 117.913L26.8177 117.755L26.752 117.001L26.7743 116.869L26.9324 116.606L27.1361 116.488L27.224 116.522L27.2975 116.627L27.3164 116.737L27.2563 116.983ZM28.3673 116.857L28.3239 117.29L27.8942 117.014L27.7795 116.877L27.8564 116.775L28.2649 116.749L28.3673 116.857ZM114.184 119.283L114.261 119.356L114.339 119.305L114.466 119.112L114.69 119.15L114.852 119.214L114.951 119.295L114.899 119.577L114.859 120.035L114.767 120.197L114.675 120.425L114.358 120.29L114.101 119.999L113.728 119.498L113.52 119.136L113.503 118.983L113.372 118.872L113.116 118.246L112.971 117.75L112.74 117.693L112.45 117.554L112.337 117.281L112.415 117.042L112.83 116.921L113.452 117.536L113.546 117.797L113.769 118.101L113.811 118.525L113.925 118.69L114.184 119.283ZM29.7934 118.004L29.6031 118.123L29.543 118.275L29.3982 118.34L29.2769 118.464L28.8672 119.026L28.688 119.128L28.8861 118.65L28.9173 118.498L28.9206 118.396L28.8594 118.034L28.9785 118.049L29.0765 117.975L29.2747 117.653L29.4528 117.625L29.6443 117.241L29.7478 117.211L29.799 117.262L29.7144 117.495L29.8981 117.708L29.8513 117.915L29.7934 118.004ZM118.941 118.272L119.261 118.984L119.278 119.233L118.974 119.321L118.734 119.285L118.611 119.203L118.578 119.087L118.656 118.727L118.498 118.516L118.316 118.443L118.153 118.567L118.144 118.212L118.267 117.956L118.199 117.608L118.197 117.345L118.238 117.261L118.403 117.269L118.74 117.541L118.941 118.272ZM30.9112 117.877L30.8945 118.313L30.8488 118.382L30.7653 118.265L30.5894 118.395L30.4937 118.301L30.5349 118.149L30.5215 118.03L30.6518 118.02L30.6829 117.804L30.6596 117.712L30.7241 117.516L30.8165 117.47L30.9112 117.877ZM31.3899 118.858L31.2886 118.886L31.2051 118.826L31.0893 118.517L31.0793 118.386L31.303 118.483L31.3876 118.709L31.3899 118.858ZM18.5361 118.813L18.8389 119.713L18.9703 119.889L19.1651 119.984L19.439 120.08L19.6015 120.213L19.744 120.415L19.7629 120.508L18.9046 120.147L18.3647 120.675L18.2021 120.744L16.6703 120.769L16.3641 120.866L16.166 121.037L15.8164 121.517L15.6383 121.703L15.4513 121.814L15.0538 121.937L14.5762 121.92L14.3269 121.858L14.1933 121.629L14.0753 121.18V121.055L14.1254 120.839L14.5506 120.542L14.692 120.384L15.2431 119.359L15.4034 119.218L15.5726 119.183L16.0435 119.255L16.4454 118.954L17.3115 118.496L17.5019 118.441L18.1253 118.431L18.2957 118.502L18.427 118.631L18.5361 118.813ZM22.2166 119.541L22.142 119.566L21.9271 119.399L21.8492 119.275L21.7924 119.08L22.231 118.801L22.3223 118.797L22.4047 118.955L22.4192 119.078L22.2978 119.431L22.2166 119.541ZM21.4161 121.951L21.1456 122.069L20.8584 121.946L20.6124 121.719L20.5845 121.448L21.1323 121.624L21.2491 121.707L21.4161 121.951ZM12.0213 123.37L11.8844 123.41L11.8521 123.356L11.8354 123.121L11.7307 122.748L11.93 122.612L12.0547 122.581L12.107 122.638L12.2506 122.917L12.3942 122.991L12.5 123.05L12.3141 123.135L12.0213 123.37ZM11.1463 123.722L11.0283 123.816L10.9336 123.836L10.8624 123.784L10.5362 123.848L10.4728 123.81L10.3291 123.491L10.3202 123.327L10.377 123.197L10.5217 123.078L10.7555 122.972L10.986 122.995L11.3867 123.289L11.5749 123.461L11.6105 123.567L11.4702 123.668L11.1463 123.722ZM8.72827 124.626L8.86298 124.878L9.09565 124.719L9.26709 124.499L9.40068 124.217L9.48752 124.105L9.60218 124.255L9.92948 124.458L9.65339 124.771L9.12348 125.239L8.94536 125.552L8.93423 125.687L9.44855 125.584L9.59216 125.599L9.68345 125.706L9.54318 125.832L9.26375 125.947L9.02106 126.17L8.45775 126.554L8.24512 126.874L7.99352 126.996L7.65063 127.025L7.04725 127.233L6.68098 127.429L6.58858 127.534L6.4728 127.582L6.33476 127.576L6.18669 127.662L6.02638 127.839L5.89279 127.922L5.67459 127.941L5.56104 128.01L5.43413 128.008L5.08568 127.797L4.99884 127.674L5.30721 127.427L5.52987 127.344L5.86941 127.307L6.20228 127.078L6.88805 126.775L7.10068 126.609L7.23761 126.031L7.39347 125.933L7.47696 125.701L7.85659 125.708L8.03026 125.967L8.09149 126.003L8.12154 125.979L8.13824 125.771L8.33306 125.625L8.22062 125.518L7.86995 125.384L7.60944 125.32L7.43911 125.328L7.30107 125.253L7.1942 125.094L7.14633 124.937L7.15523 124.78L7.24207 124.605L7.40572 124.41L7.59274 124.299L7.99686 124.22L8.35533 124.09L8.54458 124.07L8.6882 124.125L8.72827 124.626ZM9.99517 125.568L9.95064 125.584L9.87048 125.453L9.86714 125.334L9.91835 125.246L10.0642 125.043L10.1677 124.971L10.2957 124.934L10.3303 124.989L10.2178 125.23L10.0775 125.392L9.99517 125.568ZM4.51346 127.56L3.55717 128.12L3.24656 128.529L3.00944 128.922L2.82353 129.137L2.68771 129.174L2.5363 129.278L2.22014 129.552L2.08654 129.585L1.07125 130.224L1 130.234L1.04898 130.067L1.35847 129.831L1.56108 129.616L1.7893 129.26L1.9151 129.128L1.95518 128.949L1.97188 128.587L2.02866 128.45L2.24685 128.177L2.40605 128.028L2.61534 127.977L3.03838 128.022L3.21428 127.883L3.26883 127.778L3.16196 127.681L3.13747 127.515L3.1653 127.226L3.28776 126.97L3.50484 126.747L3.80097 126.572L4.17503 126.447L4.44889 126.442L4.94095 126.705L5.01331 126.826L4.89197 127.09L4.82295 127.338L4.51346 127.56ZM237.548 151.091L237.922 151.033L238.244 151.05L238.568 151.075L238.741 151.113L239.239 151.321L239.564 151.491L240.031 151.807L240.289 151.946L240.414 152.274L240.559 152.693H240.766L240.922 152.447L241.318 152.403L241.839 152.575L242.298 153.064L242.957 153.5L243.36 153.717L243.769 153.716L244.289 153.5L244.842 153.082L245.241 153.01L245.477 153.051L245.612 153.376L245.776 153.5L246.206 153.464L247.102 153.526L247.816 153.438L247.979 153.625L248.123 153.919L248.413 154.011L248.806 153.919L249.424 153.982L249.339 154.029L249.248 154.019L249.129 154.09L248.98 154.24L248.639 154.453L248.104 154.731L247.488 154.986L246.237 155.446L245.458 155.922L245.113 156.207L243.772 157.634L242.962 158.391L241.652 159.451L241.527 159.585L241.519 159.71L241.626 159.828L241.893 159.997L242.102 160.019L242.368 159.984L243.42 159.691L243.863 159.488L244.298 159.146L244.343 159.134L244.524 159.197L244.581 159.227L245.146 158.832L245.332 158.782L245.478 158.792L245.66 158.948L245.702 159.042L245.641 159.223L245.478 159.49L245.399 159.715L245.404 159.897L245.333 160.094L245.155 160.361L245.22 160.432L245.697 160.24L245.768 160.165L245.775 160.12L245.746 160.067L245.801 160.042L246.177 160.305L246.428 160.45L246.638 160.52L247.037 160.436L247.623 160.199L248.124 159.91L248.538 159.568L249.055 159.358L249.675 159.281L250.118 159.16L250.385 158.995L250.744 158.671L250.945 158.576L251.199 158.547L251.39 158.422L251.518 158.201L251.76 157.949L252.117 157.667L252.32 157.553L252.37 157.607L252.389 157.707L252.376 157.853L252.465 157.97L252.655 158.061L252.742 158.181L252.725 158.329L252.777 158.456L252.897 158.561L252.928 158.789L252.872 159.139L252.866 159.366L252.908 159.469L252.95 159.527L253.018 159.471L253.104 159.348L253.135 159.272L253.157 159.195L253.678 158.841L253.78 158.824L253.95 158.915L254.738 159.043L255.049 159.133L255.375 159.336L255.486 159.414L255.886 160.067L256.069 160.322L256.182 160.392L256.247 160.492L256.298 160.722L256.36 160.791L256.946 160.84L257.211 160.799L257.372 160.706L257.551 160.767L257.749 160.979L257.942 161.038L258.133 160.946L258.312 160.948L258.48 161.047L258.558 161.119L258.609 161.116L258.942 160.791L259.343 160.503L259.878 160.191L260.189 160.052L260.275 160.086L260.768 159.982L261.212 159.973L261.801 160.035L262.346 159.963L262.848 159.754L263.293 159.637L263.679 159.613L263.825 159.671L263.73 159.813L263.679 160.056L263.672 160.4L263.639 160.617L263.58 160.709L263.573 160.796L263.618 160.878L263.993 160.932L264.19 161.044L264.416 161.048L264.671 160.947L264.866 160.986L265.001 161.164L265.198 161.196L265.39 161.069L265.525 160.949L265.64 160.896L265.731 160.885L265.826 160.946L265.891 161.047L266.053 161.327L266.134 161.516L266.183 161.796L266.217 161.889L266.213 162.052L266.104 162.163L266.075 162.251L266.14 162.34L266.51 162.364L266.678 162.452L266.74 162.549L266.698 162.656L266.721 162.771L266.812 162.892L267.108 163.075L267.18 163.163L267.159 163.255L267.071 163.315L266.916 163.342L265.785 163.169L265.452 163.141L265.403 163.205L265.372 163.214L265.319 163.197L265.222 163.194L265.173 163.153L265.132 163.037L265.034 162.964L264.877 162.931L264.742 163.018L264.585 163.359L264.61 163.423L264.584 163.641L264.624 163.7L264.622 163.75L264.577 163.791L264.485 163.785L264.345 163.734L263.814 163.219L263.412 162.961L262.914 162.772L262.52 162.68L262.231 162.684L261.992 162.817L261.806 163.077L261.516 163.224L261.121 163.26L260.907 163.33L260.873 163.434L260.731 163.437L260.479 163.338L260.22 163.31L259.952 163.354L259.756 163.456L259.548 163.774L259.506 163.931L259.356 164.067L258.956 164.28L258.936 164.358L258.726 164.599L258.659 164.732L258.66 164.863L258.59 164.855L258.449 164.709L258.443 164.512L258.573 164.264L258.69 164.144L258.793 164.152L258.856 164.041L258.881 163.813L258.844 163.699L258.645 163.744L258.54 163.835L258.408 163.855L258.248 163.803L258.108 163.927L257.987 164.228L257.842 164.425L257.674 164.518L257.56 164.415L257.503 164.116V163.883L257.57 163.6L257.536 163.545L257.465 163.636L257.358 163.872L257.215 164.386L257.124 164.552L257 164.623L256.804 164.934L256.537 165.484L256.236 166.017L255.899 166.531L255.697 166.807L255.629 166.847L255.599 166.938L255.582 167.268L255.522 167.492L255.346 167.667L254.886 167.889L254.814 168.04L254.804 168.164L254.508 168.677L254.363 168.991L254.268 169.318L254.299 169.523L254.453 169.607L254.579 169.575L254.675 169.426L254.822 169.291L255.021 169.17L255.166 168.992L255.367 168.559L255.593 168.31L255.713 168.296L255.747 168.302L255.982 168.189L256.171 168.226L256.286 168.396L256.403 168.513L256.428 168.622L256.37 168.866L256.262 169.123L256.105 169.392L255.963 169.796L255.835 170.334L255.808 170.74L255.882 171.014L255.811 171.258L255.598 171.473L255.425 171.76L255.295 172.119L255.221 172.42L255.204 172.664L255.223 172.846L255.303 173.092L255.297 173.216L255.066 173.756L254.982 174.018L254.968 174.225L254.91 174.428L254.733 174.841L254.677 175.07L254.667 175.28L254.707 175.624L254.685 175.741L254.695 175.829L254.738 175.888V175.997L254.693 176.154L254.71 176.276L254.791 176.363L254.842 176.53L254.865 176.775L254.926 176.979L255.025 177.143L255.043 177.381L254.98 177.692L254.948 178.275L254.946 179.131L254.993 179.678L255.089 179.921L255.196 180.1L255.314 180.215L255.45 180.568L255.603 181.161L255.745 181.552L255.876 181.742L255.994 181.847L256.088 181.909L256.157 181.918L256.196 182.011L256.371 182.067L256.693 182.09L256.989 182.053L257.259 181.957L258.116 181.458L258.449 181.187L258.634 180.943L258.813 180.622L258.985 180.224L259.337 179.627L259.509 179.266L259.673 178.807L259.798 178.327L259.882 177.822L259.922 177.298L259.917 176.755L259.833 176.207L259.669 175.653L259.581 175.371L259.546 175.296L259.25 174.585L258.916 173.592L258.921 173.507L259.233 172.913L259.24 172.833L259.207 172.35L259.14 172.107L258.981 171.781L258.986 171.698L259.31 171.281L259.506 170.963L259.685 170.578L259.8 170.127L259.853 169.612L259.851 169.267L259.795 169.095L259.8 168.962L259.868 168.869L260.216 168.748L260.332 168.544L260.357 168.184L260.428 168.005L260.546 168.008L260.655 167.934L260.755 167.784L260.888 167.74L261.053 167.806L261.283 167.582L261.579 167.069L261.806 166.782L261.966 166.721L261.996 166.768L261.898 166.922L261.868 167.09L261.905 167.274L261.872 167.451L261.799 167.694L261.844 167.77L261.717 168.16L261.712 168.355L261.789 168.502L261.88 168.451L261.986 168.199L262.018 168.065L261.974 168.049L261.991 167.941L262.066 167.744L262.133 167.65L262.19 167.662L262.206 167.769L262.18 167.974L262.012 168.456L261.979 168.602L262.017 168.643L262.219 168.341L262.389 167.861L262.518 167.492L262.541 167.29L262.502 166.771L262.51 166.557L262.559 166.409L262.735 166.243L263.037 166.057L263.335 165.958L263.63 165.945L263.836 165.895L263.953 165.807L263.912 165.735L263.713 165.683L263.562 165.566L263.46 165.386L263.425 165.18L263.46 164.947L263.585 164.718L263.804 164.493L263.873 164.329L263.791 164.223L263.885 164.185L264.152 164.215L264.339 164.186L264.445 164.097L264.474 164.109L264.698 164.192L265.097 164.469L265.477 164.63L265.836 164.675L266.099 164.773L266.264 164.921L266.383 165.088L266.455 165.272L266.627 165.376L266.897 165.4L267.11 165.478L267.265 165.611L268.124 165.954L268.484 166.136L268.682 166.312L268.738 166.426L268.721 166.538L268.741 166.658L268.888 166.89L268.944 166.911L268.978 167.023L268.99 167.227L269.034 167.363L269.107 167.432L269.061 167.46L268.797 167.343L268.646 167.379L268.576 167.531L268.565 167.675L268.613 167.81L268.951 168.217L269.039 168.589L269.056 169.037L269.014 169.211L268.978 169.595L268.949 170.187L268.942 170.39L268.831 170.588L268.529 170.872L268.525 170.818L268.453 170.803L268.375 170.847L268.266 171.09L268.172 171.532L268.058 171.773L267.924 171.811L267.842 171.874L267.816 171.964L267.672 172.024L267.411 172.056L267.231 172.19L267.098 172.568L267.103 172.749L267.041 172.974L267.045 173.166L267.116 173.326L267.327 173.486L267.679 173.645L267.889 173.67L268.034 173.603L268.185 173.341L268.332 173.239L268.512 173.195L268.579 173.076L268.874 172.552V172.436L268.766 172.391L268.782 172.359L268.921 172.337L269.041 172.267L269.144 172.146L269.323 172.057L269.76 171.919L269.993 171.763L270.141 171.737L270.357 171.821L270.64 172.013L270.864 172.294L271.029 172.662L271.237 173.613L271.488 175.141L271.66 175.993L271.752 176.174L271.798 176.265L271.576 177.451L271.398 177.94L271.087 178.223L270.777 178.497L270.391 178.955L269.967 179.181L269.75 179.314L269.703 179.4L269.65 179.373L269.535 179.621L269.431 179.965L269.39 180.23L269.427 180.375L269.339 180.468L269.18 180.642L269.149 180.706L269.161 180.808L269.127 180.857L269.05 180.855L268.991 180.904L268.848 181.086L268.601 181.562L268.554 181.662L268.595 181.736L268.878 181.782L269.07 181.869L269.221 182L269.763 182.256L269.929 182.414L270.094 182.502L270.257 182.517L270.37 182.467L270.43 182.351L270.507 182.343L270.6 182.443L270.905 182.553L270.915 182.588L270.069 182.778L269.892 182.866L270.104 182.928L270.317 182.913L270.532 182.821L270.779 182.826L270.996 182.869L271.065 182.832L271.093 182.813L271.463 183.063L271.601 183.1L271.744 183.072L271.893 182.978L272.219 182.856L272.722 182.705L273.206 182.644L273.672 182.671L273.965 182.629L274.235 182.472L274.829 181.958L275.512 181.543L276.635 181.028L278.305 180.407L278.563 180.263L278.825 180.121L278.961 180.04L279.112 179.966L280.274 179.315L280.873 178.93L281.173 178.651L281.489 178.418L281.821 178.233L282.083 177.995L282.278 177.704L282.493 177.487L282.728 177.345L282.855 177.195L282.873 177.039L282.828 176.826L282.723 176.559L282.709 176.349L282.785 176.195L282.801 176.091L282.759 176.037L282.266 175.884L282.287 175.146L282.28 175.125L282.306 175.116L283.443 174.788L284.167 174.675L285.05 174.645L286.102 174.807L286.511 174.955L286.769 175.143L287.067 175.193L287.406 175.106L287.875 175.077L288.475 175.106L288.795 175.15L288.838 175.21L288.879 175.192L288.92 175.098L289.08 174.994L289.53 174.838L289.59 174.871L289.682 174.793L289.807 174.603L290.036 174.392L290.371 174.162L290.672 174.042L290.943 174.032L291.123 173.976L291.214 173.872L291.242 173.781L291.207 173.701L291.222 173.613L291.238 173.569L291.224 173.534L291.192 173.459L291.167 173.081L291.114 172.903L291.041 172.771L290.947 172.686L290.958 172.598L291.121 172.488L291.109 172.59L291.151 172.621L291.227 172.574L291.4 172.346L291.42 172.26L291.538 172.172L291.626 172.034L291.529 172.014L291.299 172.056L291.247 172.014L291.366 171.831L291.344 171.727L291.306 171.683L291.23 171.665L290.971 171.826L290.89 171.841L290.879 171.756L290.746 171.567L291.104 171.232L292.371 170.296L292.5 170.154L292.548 170.026L292.514 169.915L292.478 169.887L292.497 169.859L293.718 168.649L294.412 168.089L294.984 167.776L295.42 167.627L295.715 167.648L295.882 167.627H296.025L296.752 167.626L298.052 167.624L299.352 167.623L300.653 167.62L301.952 167.618L303.252 167.616L304.552 167.614L305.852 167.611L306.16 166.757L306.446 166.358L306.839 166.49L307.048 166.479L307.281 166.273L307.469 166.148L307.593 166.167L307.698 166.355L307.786 166.48L307.89 166.443L307.978 166.265L307.975 166.018L308.095 165.846L308.238 165.82L308.371 165.826L308.438 165.742L308.43 165.622L308.383 165.428L308.4 165.194L308.73 164.779L309.136 164.499L309.277 164.358L309.318 164.073L309.551 163.776L309.667 163.605L309.694 163.457L309.634 163.273L309.64 162.923L309.72 162.505L309.816 162.049L310.03 161.638L310.38 161.188L310.472 160.596L310.566 159.97L310.991 159.358L311.474 158.661L311.748 158.265L312.243 157.541L312.595 157.025L312.772 156.788L312.956 156.506L313.258 156.591L313.559 156.675L313.514 157.084L313.563 157.381L313.706 157.552L313.912 157.669L314.067 157.708L314.251 157.705L314.752 157.474L315.34 157.324L315.664 157.184L315.723 157.054L315.87 157.008L316.105 157.047L316.539 157.375L317.045 157.869L317.445 158.259L317.457 158.934L317.465 159.648L317.473 160.397L317.478 160.93L317.488 161.661L317.496 162.24L317.506 162.995L317.512 163.397L317.566 163.514L317.533 163.671L317.519 163.751L317.522 163.814L317.544 163.894L317.541 164.005L317.49 164.104L317.464 164.22L317.457 164.409L317.512 164.526L317.603 164.594H317.68L317.779 164.662L317.907 164.783L318.102 164.888L318.303 164.925L318.443 164.899L318.611 164.967L318.67 165.135L318.636 165.293L318.542 165.366L318.439 165.423L318.42 165.544L318.471 165.669L318.545 165.779L318.625 165.971L318.592 166.139L318.518 166.28L318.486 166.425L318.548 166.55L318.713 166.717L318.815 166.878L318.977 166.966L319.054 166.904L319.116 166.82L319.182 166.757L319.295 166.794L319.428 166.841L319.571 166.897L319.554 167.032L319.642 167.259L319.709 167.695L319.605 167.893L319.627 168.155L319.917 168.231L319.987 168.311L320 168.407L319.362 169.077L318.822 168.984L318.529 169.162L318.223 169.214L318.089 169.512L317.92 169.576L317.69 169.558L317.491 169.474L317.339 169.515L317.127 170.053L316.953 170.006L316.884 170.2L316.793 170.285L316.659 170.356L316.543 170.118L316.47 169.891L316.361 169.842L316.216 169.784L316.068 169.786L315.969 169.818L315.845 169.965L315.667 170.091L315.532 169.986L315.427 169.817L315.337 170.089L315.205 170.375L315.227 170.708L315.171 170.906L315.046 170.854L314.922 170.68L314.575 170.542L314.298 170.554L314.355 170.368L314.616 170.102L314.535 170.051L314.407 170.088L314.351 170.051L314.444 169.808L314.453 169.541L314.336 169.634L314.189 169.916L313.833 170.14L313.849 170.516L313.514 171.283L313.499 171.61L313.284 171.869L313.005 172.092L312.635 172.03L312.352 172.223L312.208 172.446L312.084 172.479L312.019 172.197L311.972 172.109L311.868 172.527L311.762 172.553L311.722 172.257L311.672 172.061L311.527 172.23L311.431 172.677L311.331 172.639L311.299 172.474L311.226 172.423L311.202 172.614L311.237 172.881L311.185 173.023L311.085 172.947L310.985 172.818L310.819 172.915L310.666 172.955V172.824L310.695 172.663L310.393 172.751L310.029 173.047L309.746 173.457L309.844 173.525L309.954 173.654L309.463 174.284L308.96 174.85L308.58 175.77L308.428 175.877L308.296 176.045L308.157 176.598L307.997 177.089L308.087 177.308L308.146 177.533L308.288 177.754L308.41 177.774L308.541 177.734L308.637 177.743L308.699 177.837L308.673 177.95L308.521 177.978L308.238 178.175L307.99 178.251L307.867 178.488L307.681 178.762L307.319 179.189L307.474 179.321L308.031 179.468L308.281 179.62L308.657 180.414L308.571 180.494L308.537 180.639L308.872 180.842L308.979 181.41L309.254 181.604L309.663 181.722L310.165 181.551L310.583 181.315L310.568 181.122L310.306 180.67L310.242 180.459L310.047 180.321L309.974 180.438L309.848 180.287L309.834 180.202L309.951 180.16L310.088 180.177L310.247 180.256L310.656 180.75L310.77 181.394L310.794 181.802L310.748 181.941L310.629 181.912L310.401 181.94L309.323 182.152L309.083 182.337L308.534 182.538L308.5 182.438L308.54 182.23L308.506 181.803L308.398 181.783L307.544 182.479L307.214 182.523L306.937 182.726L306.875 182.613L306.826 182.092L306.999 181.654L306.907 181.661L306.617 181.923L306.494 181.761L306.432 181.584L306.342 181.483L306.246 181.445L306.329 181.833L306.132 182.124L306.079 182.874L305.831 183.185L305.061 183.385L304.559 183.342L304.109 183.405L303.511 183.548L303.181 183.463L302.842 183.614L301.694 183.655L301.451 183.575L301.141 183.86L300.646 184.029L299.393 184.667L299.117 184.9L298.781 185.261L298.555 185.455L298.369 185.519L298.255 185.681L298.13 185.786L298.25 185.426L298.38 185.122L298.49 184.531L298.457 184.052L298.323 183.855L298.183 183.724L298.346 184.197L298.373 184.776L298.316 185.114L298.009 185.766L297.878 185.917L297.726 186.051L297.61 186.108L297.503 186.212L297.38 186.377L297.263 186.703L297.334 187.001L297.933 187.109L298.094 187.017L298.176 187.23L298.222 187.525L298.177 187.845L298.077 188.169L298.001 188.571L297.936 189.183L297.839 189.732L297.826 189.565L297.887 188.897L297.789 188.967L297.721 189.121L297.539 189.982L297.287 190.44L297.056 190.756L296.816 190.704L296.87 190.955L296.804 191.086L296.748 191.359L296.606 191.539L296.472 191.522L296.281 191.646L296.205 191.741L296.2 191.923L296.07 192.083L295.606 192.913L295.203 193.156L295.107 193.121L295.213 192.729L295.286 192.334L295.041 192.161L294.807 192.07L294.539 192.082L294.241 191.773L293.859 191.55L293.326 190.942L293.342 190.773L293.328 190.489L293.491 190.041L293.646 189.726L293.861 189.563L294.484 189.398L294.64 189.148L294.732 188.938L294.424 189.299L293.962 189.422L293.712 189.558L293.513 189.763L293.395 190.022L293.128 190.332L293.147 190.54L293.192 190.688L293.17 190.996L293.34 191.296L293.674 191.787L293.738 192.547L293.993 193.055L294.385 193.645L294.685 193.813L294.701 194.032L294.562 194.394L294.378 194.56L294.616 194.526L294.734 194.609L294.85 194.911L294.841 195.218L294.802 195.39L294.73 195.46L294.732 195.283L294.681 195.222L294.596 195.298L294.542 195.385L294.519 195.728L294.461 195.899L294.256 195.949L294.048 196.399L293.855 196.654L293.097 198.371L293.126 198.657L292.987 198.749L292.777 198.824L292.565 198.995L292.423 199.183L292.292 199.688L292.04 200.256L291.883 200.02L291.843 199.818L291.913 199.288L292.185 198.419L292.485 197.878L292.713 197.621L292.9 197.095L292.663 197.017L292.301 197.026L292.369 196.783L292.475 196.57L292.286 196.356L292.175 196.33L292.06 196.242L292.195 196.065L292.261 195.877L292.221 195.648L292.277 195.474L292.184 195.5L292.033 195.683L291.939 195.756L291.882 195.594L291.817 195.631L291.774 195.743L291.677 195.803L291.474 195.651L291.177 195.478L291.012 195.178L290.917 194.945L291.013 194.525L291.219 194.45L291.486 194.518H291.836L291.785 194.425L291.661 194.441L291.292 194.099L291.173 193.892L290.969 193.835L290.877 194.034L290.773 194.087L290.9 193.652L291.067 193.634L291.313 193.513L291.242 193.26L291.086 193.15L290.806 193.288L290.809 193.111L290.861 192.884H291.073L291.259 192.958L291.417 192.59L291.424 192.425L291.162 192.665L291.103 192.149L291.36 191.652L291.606 191.434L291.913 191.44L292.225 191.406L292.029 191.314L291.828 191.265L291.979 191.067L292.108 191.031L292.235 190.859L291.931 190.885L291.967 190.558L291.819 190.625L291.642 190.655L291.573 190.794L291.586 191.024L291.535 191.175L291.397 191.296L291.164 191.39L291.142 191.227L291.065 191.153L291.036 191.503L290.975 191.621L290.805 191.294L290.753 191.36L290.76 191.453L290.717 191.614L290.571 191.697L290.58 191.903L290.523 192.016L290.057 191.837L290.045 191.898L290.309 192.283L290.502 192.415L290.525 192.625L290.359 192.8L290.131 192.65L290.092 192.661L290.217 192.918L290.295 193.143L290.215 193.331L290.227 193.563L290.209 193.774L290.16 193.957L290.271 194.799L290.405 195.028L290.536 195.246L290.607 195.451L290.467 195.48L290.245 195.312L290.049 195.184L289.816 194.773L289.778 194.609L289.721 194.479L289.748 194.777L289.832 195.109L290.56 195.851L290.694 196.135L290.797 196.359L290.771 196.571L290.581 196.42L290.417 196.228L289.982 196.01L289.433 195.872L289.124 195.365L289.125 195.576L289.056 195.756L288.866 195.537L288.747 195.35L288.707 195.146L288.471 195.159L288.224 195.338L287.985 195.295L287.957 194.948L288.022 194.763L288.29 194.327L288.544 194.104L288.655 193.815L288.617 193.368L288.57 193.823L288.426 194.048L288.197 194.22L287.898 194.526L287.826 194.809L287.732 195.338L287.858 195.517L287.987 195.564L288.368 195.444L288.565 195.498L289.003 196.133L289.821 196.383L290.119 196.54L290.362 196.871L290.727 197.061L291.011 197.337L291.018 197.517L290.92 197.729L290.881 198.017L290.761 198.198L290.473 198.219L290.298 198.172L289.36 197.16L289.247 197.067L288.899 196.536L288.49 196.251L288.363 196.257L288.944 196.783L289.182 197.151L289.599 197.666L289.897 197.884L290.117 198.224L290.322 198.382L290.879 198.608L290.686 198.771L290.995 198.91L291.04 199.164L291.012 199.453L290.582 199.338L290.568 199.552L290.607 199.677L290.417 199.781L290.153 199.64L289.469 198.869L289.474 198.971L289.53 199.091L289.927 199.588L290.283 199.885L290.583 200.019L290.815 200.268L290.897 200.418L290.952 200.646L290.78 200.801L290.584 200.887L290.394 200.732L290.254 200.569L289.955 200.293L289.865 199.983L289.638 199.999L288.689 199.607L287.927 199.561L288.001 199.64L288.097 199.693L288.704 199.789L288.943 199.97L289.442 200.131L289.735 200.174L289.853 200.666L290.257 201.005L290.309 201.256L290.585 201.284L291.071 201.039L291.384 201.125L291.836 201.195L291.939 201.393L292.016 201.769L292.176 202.191L292.59 203.853L293.213 205.205L293.289 205.437L293.145 205.233L292.683 204.338L292.428 203.69L292.166 202.543L292.09 202.285L292 202.183L291.941 202.266L291.916 202.413L291.959 202.526L291.856 202.904L291.9 203.077L292.067 203.256L292.25 203.702L292.396 204.302L292.198 204.059L291.989 203.93L291.663 203.832L291.372 203.658L291.394 203.907L291.366 204.175L291.142 204.093L290.989 204.004L291.125 204.289L290.832 204.204L290.637 204.222L290.51 204.476L290.339 204.629L290.088 204.678L289.714 204.447L289.593 204.165L289.543 203.851L289.523 204.222L289.59 204.608L289.567 204.9L289.926 204.954L290.263 204.907L290.717 204.92L291.013 204.865L291.191 204.772L291.618 204.852L291.649 205.206L291.6 205.557L291.575 205.929L291.693 205.927L291.832 205.807L291.902 205.137L292.293 204.889L292.424 204.907L292.549 205.122L292.591 205.34L292.636 205.64L292.545 206.096L291.945 206.628L291.515 207.119L291.294 207.218L290.978 207.161L290.619 207.038L290.442 207.014L290.308 207.055L290.227 206.903L290.175 206.627L290.035 206.535L289.93 206.545L289.858 206.838L289.523 206.922L289.068 206.8L288.59 206.554L288.795 206.818L289.979 207.311L290.112 207.404L290.237 207.538L290.072 207.749L289.942 207.987L289.923 208.174L289.877 208.292L289.405 208.608L289.15 208.552L288.497 207.981L288.795 208.475L289.033 208.684L289.514 208.796L290.415 208.611L290.711 208.813L290.468 209.169L290.228 209.419L289.912 209.446L289.634 209.515L289.551 209.686L289.353 209.697L289.042 209.707L288.563 209.723L288.299 209.682L287.93 210.032L287.791 210.08L287.597 210.014L287.516 209.733L287.429 209.594L287.427 210.121L287.462 210.263L287.532 210.369L287.101 210.654L286.688 211.009L286.54 211.106L286.372 211.283L286.028 211.797L285.943 212.17L285.818 212.586L285.803 212.399L285.824 212.084L285.739 211.723L285.685 212.385L285.551 212.691L284.324 212.67L283.788 212.836L282.964 213.397L282.718 213.643L282.037 214.589L281.863 215.194L281.724 214.941L281.758 214.75L281.76 214.594L281.59 214.913L281.753 215.4L281.607 215.586L281.157 215.932L280.911 215.988L280.635 216.087L280.548 216.428L280.173 216.742L279.955 216.88L279.554 216.797L279.678 217.098L279.531 217.328L279.277 217.503L278.962 217.617L278.781 217.603L278.628 217.663L278.506 217.808L278.211 217.945L277.905 217.869L277.558 217.823L277.364 217.904L277.689 218.04L277.864 218.234L277.828 218.497L277.742 218.598L277.536 218.735L277.445 218.715L277.391 218.592L277.324 218.335L277.228 218.39L277.212 218.509L277.129 218.553L276.838 218.143L276.852 218.456L276.953 218.696L277.051 218.818L277.15 218.889L277.175 219.001L276.976 219.273L276.873 219.333L276.691 219.377L276.588 219.544L276.618 219.688L276.458 220L276.076 220.194L275.96 220.186L275.866 220.243L275.921 220.382L276.016 220.483L276.013 220.577L275.913 220.704L275.713 220.74L275.602 220.884L275.638 221.022L275.703 221.098L275.689 221.228L275.463 221.36L275.409 221.49L275.522 221.528L275.609 221.49L275.672 221.518L275.536 221.735L275.415 221.867L275.299 222.104L275.031 222.17L275.041 222.247L275.192 222.315L275.319 222.497L275.081 222.834L274.932 222.806L274.84 222.732L274.783 222.997L274.805 223.138L274.748 223.428L274.657 223.774L274.594 223.916L274.608 224.181L274.647 224.437L274.793 224.766L275.016 226.109L275.169 226.574L275.443 227.826L275.896 229.036L276.535 230.493L277.584 232.25L277.709 232.499L277.572 232.711L277.531 232.93L277.519 233.26L277.557 233.582L277.68 233.974L277.919 234.573L277.785 234.455L277.44 233.594L277.4 233.089L277.449 232.37L277.368 232.388L277.302 232.621L277.265 232.895L277.177 233.001L277.058 232.582L277.067 232.393L277.194 232.172L277.157 232.092L276.951 231.978L276.908 231.801L276.936 231.624L276.819 231.53L276.726 231.535L276.789 231.97L276.886 232.236L277.006 232.874L277.201 233.26L277.314 233.583L278.639 237.015L278.953 237.45L279.069 237.762L279.189 238.414L279.216 239.249L279 240.771L278.951 241.805L278.919 241.774L278.898 241.664L278.848 241.65L278.661 242.123L278.406 242.548L278.322 243.21L278.199 243.541L277.831 243.891L277.602 243.882L277.044 244.145L276.651 244.077L276.183 244.224L275.876 244.208L275.698 243.896L275.724 243.756L275.795 243.616L275.915 243.584L276.328 243.911L276.406 243.773L276.281 243.609L276.042 243.518L275.866 243.417L275.511 242.67L275.142 242.157L275.08 241.813L274.444 241.603L273.984 241.284L273.684 240.718L273.511 239.713L273.309 239.6L273.223 239.522L273.421 239.147L273.63 238.833L273.466 238.911L273.344 239.028L273.189 239.305L273.076 239.348L272.972 239.305L272.853 238.773L272.888 238.119L273.055 237.874L272.798 237.867L272.532 237.96L272.571 238.178L272.533 238.298L272.339 238.266L272.191 238.19L271.992 237.962L271.719 237.528L271.159 236.33L271.05 236.161L270.864 235.983L270.952 235.929L271.111 235.896L271.471 235.355L271.752 235.027L271.846 234.8L271.829 234.703L271.704 234.562L271.541 234.685L271.471 234.651L271.286 234.365L271.11 234.285L270.987 234.346L271.117 234.579L271.232 234.666L271.187 235.005L271.14 235.115L271.031 235.212L270.861 235.159L270.775 235.243L270.674 235.155L270.573 235.006L270.461 234.761L270.758 233.379L271.033 232.496L271.064 231.485L271.085 231.336L271.062 231.066L270.694 230.481L269.065 229.049L267.804 227.345L266.71 226.705L265.881 226.846L265.737 226.974L265.676 227.142L265.727 227.333L265.653 227.412L265.43 227.402L265.131 227.447L264.348 227.895L264.072 227.879L263.821 227.995L263.633 228.082L263.143 228.129L262.728 228.229L262.549 228.175L262.432 227.914V227.645L262.527 227.852L262.674 228.014L262.742 227.949L262.766 227.806L262.62 227.525L262.149 227.165L261.614 226.639L261.777 226.657L261.819 226.544L261.653 226.395L261.723 226.224L261.84 226.044L261.614 226.071L261.41 226.197L261.403 226.352L261.363 226.477L261.254 226.459L261.052 226.305L260.054 225.878L259.181 225.637L259.851 225.528L260.214 225.612L260.171 225.483L260.083 225.4L259.797 225.296L259.432 225.335L259.201 225.286L258.966 225.39L258.708 225.543L258.478 225.621L257.578 225.732L256.849 225.852L256.966 225.725L257.091 225.644L257.521 225.52L257.586 225.262L257.485 225.014L257.371 225.073L257.252 225.267L257.106 225.127L256.945 225.128L256.9 225.436L256.692 225.642L256.599 225.85L255.99 226.014L255.912 225.96L256.09 225.762L256.075 225.653L255.873 225.746L255.532 226.12L254.333 226.242L254.399 226.157L254.653 226.139L255.008 226.022L254.935 225.822L254.798 225.603L254.671 225.579L254.588 225.45L254.592 225.045L254.511 224.808L254.316 224.565L254.251 224.612L254.107 225.03L253.988 225.577L253.929 225.753L253.574 225.765L253.259 225.727L252.19 225.793L251.791 225.608L251.626 225.572L251.524 225.577L251.06 225.746L250.53 225.876L250.405 225.835L250.227 225.829L249.843 226.271L249.39 226.478L248.248 226.105L247.964 225.807L247.711 225.743L247.401 225.706L247.068 226.074L246.814 226.569L247.214 226.841L247.557 226.971L248.122 226.862L248.435 226.622L248.69 226.63L248.812 226.582L248.924 226.456L249.142 226.555L249.15 226.654L248.995 226.794L248.799 226.911L248.681 227.05L248.904 227.329L249.254 227.422L249.386 227.382L249.467 227.069L249.683 226.867L249.976 226.91L249.935 227.038L249.976 227.157L250.11 227.362L250.095 227.655L250.12 227.725L249.805 227.854L249.57 227.898L249.382 228.066L249.481 228.164L249.29 228.25L249.161 228.215L249.095 228.246L249.075 228.35L248.976 228.445L249.12 228.735L249.415 228.923L249.623 229.16L250.46 229.471L250.663 229.462L250.862 229.775L251.023 229.882L251.178 229.937L251.16 230.152L250.884 230.309L250.81 230.497L250.741 230.602L250.616 230.469L250.489 230.372L250.194 230.666L250.051 230.728L250.122 230.411L250.01 230.287L249.842 229.968L249.596 229.771L249.422 229.705L249.288 229.581L249.124 229.531L248.985 229.544L248.749 229.472L248.733 229.302L248.668 229.174L248.483 229.025L247.602 228.741L247.597 228.858L247.658 228.946L247.785 229.006L247.936 229.12L247.935 229.458L247.869 229.602L247.842 229.805L247.783 230.013L247.675 230.176L247.434 230.287L247.328 230.194L247.157 229.748L246.914 229.608L246.529 229.591L246.267 229.692L245.982 230.125L245.752 230.195L244.965 229.972L244.068 229.629L244.091 229.515L244.232 229.479L244.504 229.525L244.49 229.408L244.212 229.026L244.162 228.854L244.198 228.643L244.108 228.648L243.942 228.824L243.37 228.675L243.212 228.495L242.875 227.989L242.401 227.973L242.186 227.666L241.798 227.795L241.602 227.937L241.429 228.157L241.496 228.271L241.669 228.452L241.591 228.54L241.037 228.669L239.755 228.525L239.38 228.39L238.876 228.103L238.18 227.871L237.843 227.833L237.515 227.879L236.558 227.902L236.336 227.964L236.147 228.063L236.024 227.954L235.968 227.758L236.079 227.727L236.202 227.611L236.314 227.383L236.327 227.245L236.249 227.155L236.101 227.146L235.774 227.74L235.961 228.072L235.949 228.192L235.295 228.26L233.811 228.927L233.232 229.287L233.262 229.167L233.961 228.7L233.714 228.629L233.317 228.745L233.174 228.7L233.342 228.315L233.288 227.974L233.005 227.965L232.825 228.236L232.7 228.225L232.536 228.109L232.41 228.146L232.503 228.762L232.681 229.015L232.83 229.338L232.424 229.735L232.047 230.062L232.005 230.379L231.626 230.79L231.27 231.024L230.431 231.571L230.192 231.688L229.813 231.942L229.292 232.132L228.791 232.434L228.623 232.479L228.943 232.223L229.321 231.971L228.996 232.005L228.495 231.889L228.189 231.882L228.188 231.975L227.955 232.106L227.714 231.915L227.609 231.786L227.559 231.674L227.457 231.648L227.359 231.699L227.719 232.482L227.873 232.515L228.042 232.592L227.831 232.775L227.602 232.913L227.244 233.005L226.941 232.72L226.876 233.078L226.837 233.434L226.735 233.526L226.573 233.657L226.485 233.558L226.442 233.42L226.338 233.543L226.185 233.635L225.934 233.654L225.746 233.704L225.75 233.851L225.793 234L226.127 233.883L226.006 234.264L225.699 234.641L225.448 234.729L225.065 234.674L224.971 234.712L224.886 234.79L225.333 235.377L225.045 236.262L224.862 236.583L224.735 236.624L224.594 236.634L224.1 236.35L223.831 236.13L224.069 236.728L224.717 236.902L224.75 237.129L224.747 237.322L224.619 237.549L224.5 237.849L224.588 238.058L224.69 238.576L224.778 238.813L224.874 239.532L224.976 239.843L225.565 240.985L225.763 240.994L225.795 241.117L225.776 241.354L225.353 241.424L225.174 241.529L225.14 241.621L225.114 241.67L225.06 241.665L224.858 241.599L224.399 241.275L223.729 241.074L222.85 240.996L222.249 240.833L221.926 240.586L221.59 240.439L221.239 240.393L220.947 240.259L220.717 240.036L220.38 239.894L219.935 239.832L219.646 239.665L219.446 239.256L219.444 239.25L219.264 238.566L219.037 238.137L218.596 237.604L218.556 237.534L218.553 237.447L218.607 237.137L218.561 236.914L218.421 236.731L218.389 236.539L218.465 236.337L218.469 236.093L218.404 235.808L218.123 235.499L217.627 235.168L217.203 234.683L216.855 234.045L216.51 233.602L216.168 233.355L215.935 233.053L215.81 232.696L215.773 232.489L215.824 232.432L215.615 232.035L215.144 231.299L214.873 230.759L214.803 230.417L214.504 230.01L213.974 229.537L213.687 229.229L213.617 229.016H213.615L212.789 228.392L212.549 228.002L212.362 227.879L212.147 227.892L212.037 227.854L212.031 227.766L211.961 227.761L211.826 227.842L211.387 227.857L210.642 227.81L210.104 227.704L209.774 227.54L209.542 227.562L209.408 227.772L209.126 227.908L208.693 227.968L208.321 228.357L208.009 229.075L207.872 229.536L207.91 229.741L207.828 229.89L207.625 229.983L207.419 230.191L207.21 230.514L206.965 230.67L206.685 230.659L206.169 230.411L205.416 229.923L204.826 229.622L204.399 229.506L204.021 229.281L203.694 228.944L203.392 228.719L203.116 228.606L202.793 228.233L202.424 227.598L202.239 227.107V226.588L201.756 225.456L201.5 224.964L201.309 224.737L200.938 224.466L200.382 224.151L199.638 223.52L198.706 222.571L198.045 221.999L197.658 221.804L197.322 221.461L197.037 220.969L196.758 220.655L196.729 220.64L196.705 220.634L196.018 220.629L195.331 220.625L194.644 220.62L193.957 220.617L193.271 220.612L192.584 220.609L191.897 220.605L191.21 220.6L191.208 221.013L191.197 221.429L191.195 221.84L191.193 222.251L190.089 222.254L188.984 222.256L187.88 222.258L186.776 222.26L185.671 222.263L184.567 222.265L183.463 222.267L182.358 222.269L180.877 221.728L179.395 221.186L177.913 220.643L176.431 220.098L174.95 219.554L173.468 219.008L171.986 218.461L170.504 217.913L170.654 217.704L170.852 217.145L170.494 217.186L169.6 217.265L168.706 217.344L167.812 217.424L166.919 217.503L166.025 217.582L165.131 217.662L164.237 217.741L163.343 217.821L163.336 217.797L163.314 217.391L163.169 217.248L162.983 217.337L162.898 216.809L162.945 216.559L162.923 216.316L162.748 215.715L162.284 214.986L161.281 214.077L160.77 213.773L160.369 213.389L160.114 213.281L159.794 213.252L159.701 213.426L159.338 213.307L159.393 212.877L159.039 212.277L158.749 212.21L158.02 212.251L157.046 211.921L156.759 211.724L156.66 211.372L156.203 211.065L155.602 210.765L155.267 210.835L154.83 210.788L154.205 210.571L153.841 210.544L153.132 210.608L152.867 210.562L152.621 210.288L152.356 210.151L152.412 209.813L152.378 209.508L152.418 209.27L152.299 208.748L152.392 208.262L152.311 208.087L152.161 207.952L151.691 207.753L151.606 207.503L151.682 207.157L151.56 206.928L151.175 206.714L150.815 206.229L150.359 205.963L150.172 205.517L149.891 205.24L149.793 204.996L149.17 204.12L148.504 203.435L148.402 203.039L148.376 202.497L148.637 202.166L148.777 201.874L148.762 201.607L148.722 201.41L148.493 201.068L147.607 200.864L146.886 200.016L146.844 199.365L146.561 198.699L146.558 198.264L146.515 197.793L146.729 197.69L146.921 197.728L146.902 197.915L146.967 198.251L147.193 198.504L147.407 198.615L147.603 198.86L147.75 198.933L147.902 198.951L147.82 198.794L147.734 198.693L147.628 198.367L147.428 197.95L147.197 197.719L147.08 197.299L146.98 197.202L146.918 197.045L147.14 196.859L147.444 196.728L147.852 196.692L149.007 196.754L149.253 196.646L149.457 196.681L149.606 196.667L149.292 196.555L149.116 196.592L148.908 196.569L148.495 196.591L148.328 196.544L148.144 196.412L148.024 196.399L147.642 196.629L147.472 196.601L147.069 196.35L146.893 196.314L146.61 196.457L146.576 197.073L146.664 197.53L146.495 197.577L146.298 197.389L145.996 197.278L145.746 197.107L145.395 196.788L145.21 196.672L145.001 196.937L144.993 196.815L145.096 196.506L145.067 195.989L145.382 196.402L145.284 196.112L145.04 195.791L144.854 195.679L144.62 195.104L144.093 194.759L143.671 194.2L142.807 193.271L142.751 192.452L142.436 191.413L142.568 190.821L142.55 190.401L142.396 189.763L142.234 189.417L141.534 188.463L140.86 187.819L140.759 187.33L140.712 186.837L140.859 186.398L140.987 185.934L141.08 185.811L141.116 185.862L141.091 185.961L141.187 185.991L141.223 185.786L141.28 185.681L141.18 185.668L141.19 185.603L141.25 185.473L141.459 184.863L141.437 184.091L141.661 183.142L141.65 182.828L141.507 182.15L141.365 181.743L141.111 181.455L141.223 181.032L141.214 180.629L140.766 180.046L140.594 179.28L140.562 178.956L140.607 178.098L140.49 177.73L140.19 177.123L140.318 176.594L140.456 176.271L140.794 174.859L140.875 174.743L141.015 174.747L141.261 174.506L141.148 174.45L140.976 174.566L141.129 174.004L141.3 173.523L141.411 173.349L141.468 171.771L141.566 170.557L141.728 170.156L141.671 169.741L141.736 169.179L141.69 168.609L142.036 165.848L141.99 165.513L142.096 165.062L141.997 163.872L142.042 162.532L141.954 162.361L141.909 162.175L141.991 162.147L142.152 162.343L142.895 162.341L143.37 162.16L143.542 162.219L143.743 162.465L143.995 162.514L144.31 162.471L144.215 162.409L144.067 162.392L143.735 162.165L143.547 161.938L142.967 161.954L142.849 161.809L142.201 161.954L142 161.805L141.647 161.902L141.734 161.479L141.719 160.944L141.738 160.423L141.824 160.804L142.044 161.207L142.15 160.75L142.222 160.173L142.008 159.952L141.652 159.787L141.524 159.248L142.367 158.788L141.919 158.69L141.743 158.484L141.526 158.458L141.509 158.618L141.439 158.827L141.364 158.548L141.341 158.221L141.252 157.661L140.907 156.756L140.698 155.579L140.435 154.995L139.932 154.436L139.801 154.11L139.68 153.279L139.748 152.649L139.655 152.204L139.896 152.229L140.532 152.579L141.323 152.853L141.563 153.052L141.947 153.2L144.075 153.429L144.215 153.407L144.49 153.265L144.606 153.283L144.919 153.608L145.076 153.647L145.28 153.63L145.43 153.569L145.687 153.346L145.722 153.429L145.718 153.636L145.809 153.93L145.997 154.31L146.068 154.546L145.687 155.21L145.615 155.225L145.604 155L145.554 154.955L144.837 156.075L144.585 156.604L144.561 156.842L144.57 156.982L144.67 157.017L144.899 156.962L145.239 156.743L145.256 156.695L144.939 156.773L144.788 156.78L144.809 156.529L144.845 156.411L145.052 156.04L145.269 155.817L145.577 155.58L145.755 155.384L145.878 155.098L146.221 154.756L146.284 154.661L146.27 154.379L146.291 154.326L146.457 154.364L146.526 154.849L146.485 155.065L146.188 155.327L146.152 155.42L146.203 155.779L146.157 155.814L146.045 155.771L146.01 155.795L146.29 156.184L146.379 156.486L146.391 156.755L146.315 157.271L146.234 157.357L146.095 157.325L145.91 157.164L145.869 157.216L145.722 157.616L145.674 157.581L145.583 157.106L145.533 157.07L145.249 157.287L145.134 157.495L145.036 157.826L144.912 157.982L145.266 158.015L145.585 157.948L145.841 158.106L145.928 158.11L146.162 157.956L146.233 157.852L146.427 157.352L146.524 157.263L146.667 157.259L146.806 157.184L147.013 156.909L147.022 156.8L146.947 156.184L146.969 155.834L146.93 155.723L146.837 155.608L146.849 155.496L146.921 155.312L146.927 155.145L146.864 154.996L146.892 154.828L147.088 154.463L147.125 154.302L147.363 153.939L147.303 153.792L147.127 153.613L147.016 153.456L146.904 153.21L146.82 153.127L146.792 153.165L146.911 153.568L146.885 153.594L146.576 153.378L146.503 153.24L146.466 153.053L146.492 152.914L146.659 152.775L146.859 152.725L146.842 152.608L146.593 152.23L146.427 152.058L146.299 151.974L146.126 151.952L146.049 151.891L146.029 151.802L146.066 151.686L146.158 151.648L146.424 151.695L146.568 151.612L146.555 151.461L146.511 151.377L146.518 150.836L146.417 150.396L146.364 150.321L146.308 150.313L146.247 150.372L146.08 150.388L145.977 150.244L145.862 149.964L145.655 149.298H145.976H147.308H148.64H149.972H151.305H152.636H153.969H155.302H156.634H157.966H159.298H160.631H161.962H163.295H164.627H165.96H167.291H168.624H169.957H171.288H172.621H173.953H175.286H176.617H177.95H179.282H180.614H181.946H183.279H184.612H185.943H187.276H188.608H189.94H191.272H192.605H193.937H195.269H196.601H197.934H199.265H200.598H201.931H203.262H204.595H205.927H207.26H208.591H209.924H211.256H212.588H213.92H215.253H216.586H217.915H219.247H220.58H221.911H223.244H224.577H225.909H227.241H228.573H229.906H231.237L231.974 149.304L231.987 148.295L231.995 147.497L232.67 147.594L232.872 147.739L232.936 147.809L232.917 148.029L232.973 148.696L233.095 149.251L233.378 149.916L233.379 149.917L233.403 150.177L233.495 150.339L233.665 150.49L234.311 150.672L235.432 150.885L236.068 151.13L236.218 151.406L236.518 151.517L236.966 151.463L237.28 151.348L237.548 151.091ZM145.679 150.825L145.72 150.928L145.594 151.028L145.505 151.044L145.362 150.883L145.3 150.863L145.35 151.111L145.332 151.196L145.042 151.044L144.988 150.923L145.07 150.796L145.253 150.664L145.317 150.648L145.679 150.825ZM144.957 151.638L145.04 151.793L144.703 151.694L144.562 151.604L144.52 151.517L144.47 151.232L144.493 151.139L144.643 151.107L144.924 151.46L144.957 151.638ZM145.557 151.965L145.508 152.012L145.341 151.951L145.243 151.846L145.21 151.715L145.272 151.463L145.356 151.399L145.408 151.413L145.43 151.635L145.578 151.868L145.557 151.965ZM146.333 153.258L146.486 153.872L146.551 153.616L146.977 154.058V154.276L146.925 154.349L146.836 154.375L146.755 154.311L146.68 154.158L146.585 154.077L146.381 154.026L146.275 153.852L146.239 153.733L146.229 153.389L146.177 153.281L146.069 153.258L145.966 153.176L145.805 152.935L145.783 152.87L145.859 152.673L146.033 152.343L146.158 152.187L146.236 152.204L146.333 152.303L146.449 152.484L146.427 152.612L145.959 152.861L145.944 152.919L146.171 152.99L146.254 153.052L146.333 153.258ZM251.366 154.337L251.351 154.414L251.464 154.437L251.443 154.477L251.319 154.547L250.97 154.69L250.736 154.736L250.616 154.685L250.604 154.589L250.698 154.45V154.38H250.601L250.625 154.324L250.768 154.214L251.991 153.508L252.513 153.251L252.791 153.17L252.836 153.21L252.534 153.476L252.486 153.584L252.497 153.657L252.398 153.797L251.504 154.291L251.366 154.337ZM146.569 155.879L146.552 155.968L146.38 155.862L146.323 155.763L146.33 155.543L146.373 155.4L146.406 155.371L146.507 155.434L146.536 155.471L146.569 155.879ZM146.891 156.802L146.876 156.907L146.757 156.989L146.695 156.968L146.691 156.843L146.658 156.824L146.529 156.973L146.539 156.679L146.603 156.369L146.658 156.364L146.741 156.567L146.891 156.802ZM253.657 157.654L253.599 157.803L253.611 157.892L253.231 158.286L253.093 158.534L252.978 158.573L252.886 158.404V158.268L252.979 158.165L253.072 158.019L253.083 157.816L253.047 157.742L252.931 157.925L252.996 157.964L253.015 157.995L252.993 158.061L252.556 157.964L252.426 157.822L252.448 157.624L252.594 157.37L253.118 156.832L253.35 156.682L254.007 156.445L254.369 156.391H254.733L254.997 156.469L255.16 156.624L255.005 156.727L254.286 156.816L254.266 156.843L254.404 156.928L254.43 156.989L254.303 157.146L253.657 157.654ZM145.457 157.681L145.427 157.771L145.382 157.767L145.284 157.582L145.272 157.453L145.356 157.359L145.468 157.628L145.457 157.681ZM246.768 158.503L246.666 158.574L246.627 158.541L246.652 158.4L246.703 158.318L246.782 158.295L246.821 158.329L246.82 158.421L246.768 158.503ZM245.89 158.954L245.843 158.987L245.724 158.91L245.707 158.846L245.74 158.782L245.795 158.797L245.873 158.889L245.89 158.954ZM246.394 158.991L246.29 159.017L246.066 158.977L246.069 158.91L246.302 158.817L246.405 158.791L246.43 158.83L246.394 158.991ZM245.882 159.613L245.703 159.675L245.628 159.664L245.658 159.578L245.751 159.475L246.167 159.218L246.24 159.223L246.262 159.284L246.06 159.411L245.985 159.478L245.976 159.548L245.882 159.613ZM266.433 161.529V161.626L266.337 161.604L266.257 161.538L266.193 161.429L266.112 161.155L265.99 160.96L266.174 160.74L266.284 160.714L266.402 160.763L266.419 160.892L266.332 161.1L266.336 161.312L266.433 161.529ZM266.471 162.056L266.426 162.08L266.269 161.904L266.236 161.795L266.259 161.705L266.32 161.7L266.418 161.783L266.473 161.879L266.485 161.989L266.471 162.056ZM268.399 163.107L268.429 163.207L268.353 163.355L268.134 163.43L267.689 163.422L267.401 163.365L267.268 163.26L267.239 163.205L267.251 163.088L267.316 163.08L267.411 163.144L267.552 163.117L267.74 162.998L267.839 162.909L267.848 162.85L267.788 162.736L267.836 162.688L268.072 162.732L268.16 162.806L268.319 163.061L268.399 163.107ZM265.107 163.972L265.507 164.035L265.546 164L265.659 164.119L265.677 164.219L265.629 164.303L265.559 164.35L265.469 164.358L265.324 164.273L265.088 164.047L265.107 163.972ZM262 164.949L261.893 164.972L261.812 164.919L261.825 164.709L261.934 164.342L262.041 164.174L262.186 164.243L262.157 164.287L262.186 164.679L262.134 164.85L262 164.949ZM257.907 166.065L257.813 166.11L257.642 166.094L257.579 165.994L257.669 165.738L257.706 165.784L257.855 165.788L257.907 165.812L257.923 165.876L257.907 166.065ZM257.5 166.559L257.442 166.616L257.346 166.578L257.308 166.662L257.33 166.867L257.298 166.961L257.212 166.945L257.207 166.983L257.283 167.074L257.291 167.173L257.232 167.282L257.174 167.332L257.12 167.324L257.034 167.447L256.918 167.701L256.878 167.847L256.915 167.888L256.888 167.973L256.6 168.357L256.488 168.394L256.367 168.34L256.281 168.229L256.231 168.057L256.217 167.926L256.237 167.832L256.491 167.491L256.603 167.268L256.668 167.018L256.784 166.858L256.956 166.788L257.095 166.633L257.201 166.39L257.323 166.285L257.461 166.317L257.521 166.408L257.5 166.559ZM260.673 167.175L260.636 167.238L260.549 167.232L260.48 167.172L260.413 166.976L260.435 166.934L260.603 166.962L260.662 167.045L260.673 167.175ZM316.253 170.563L316.07 170.648L315.871 170.611L315.875 170.841L315.853 170.924L315.633 170.806L315.551 170.73L315.558 170.424L315.753 170.135L315.902 170.02L316.094 170.099L316.24 170.423L316.253 170.563ZM291.495 170.803L291.397 170.839L291.374 170.788L291.389 170.74L291.47 170.679H291.607L291.592 170.727L291.495 170.803ZM314.89 171.159L314.772 171.245L314.645 171.217L314.641 171.002L314.68 170.93L314.723 170.897L314.789 170.958L314.89 171.159ZM291.024 172.054L290.977 172.068L290.982 171.975L291.03 171.915L291.121 171.888L291.119 171.935L291.024 172.054ZM282.689 176.227L282.593 176.374L282.501 176.359L282.433 176.312L282.41 176.219L282.426 176.103L282.509 176.052L282.732 176.096L282.74 176.143L282.689 176.227ZM306.711 182.692L306.556 182.806L306.384 182.786L306.472 182.631L306.505 182.404L306.591 182.155L306.64 182.079L306.741 182.012L306.711 182.692ZM306.324 182.72L306.237 182.797L306.204 182.595L306.266 182.363L306.327 182.358L306.358 182.481L306.324 182.72ZM308.995 183.173L308.135 183.377L307.998 183.246L308.213 183.185L308.483 182.873L308.664 182.837L308.946 183.014L308.995 183.173ZM310.658 183.635L310.417 183.702L309.86 183.549L310.318 183.419L310.393 183.374L310.453 183.182L310.46 183.086L310.634 183.498L310.658 183.635ZM302.748 184.796L302.526 185.063L302.727 185.09L302.899 185.012L303.062 184.853L303.441 184.638L303.765 184.544L303.867 184.524L304.021 184.675L304.327 184.554L304.643 184.486L303.281 185.176L303.003 185.253L302.604 185.459L302.228 185.604L301.957 185.657L300.609 186.166L300.502 186.178L300.387 186.128L299.275 186.39L298.82 186.419L298.405 186.511L298.712 186.3L298.719 186.22L298.645 186.159L298.482 186.177L298.314 186.393L298.045 186.466L297.992 186.23L298.082 186.047L298.203 185.872L298.469 185.599L298.851 185.425L299.045 185.275L299.18 185.407L299.209 185.228L299.312 185.126L299.425 185.07L299.694 185.069L299.84 185.041L299.945 184.981L300.053 184.97L300.349 185.052L300.637 185.028L300.87 184.917L301.112 184.878L301.753 184.854L302.388 184.772L302.643 184.627L303.177 184.218L303.485 184.104L303.006 184.579L302.748 184.796ZM297.504 186.707L297.355 186.723L297.504 186.329L297.778 186.147L297.877 186.185L297.881 186.325L297.843 186.444L297.659 186.628L297.504 186.707ZM297.676 190.148L297.309 190.762L297.302 190.644L297.759 189.882L297.676 190.148ZM293.926 197.334L293.784 197.398L294.26 196.605L294.537 195.937L294.661 195.706L294.541 196.173L294.331 196.602L293.926 197.334ZM292.981 205.272L292.934 205.35L292.726 204.924L292.94 205.061L292.978 205.177L292.981 205.272ZM293.267 207.636L292.849 207.74L292.812 207.707L293.292 207.489L293.443 206.72L293.464 206.364L293.393 205.736L293.395 205.606L293.473 205.808L293.542 206.394L293.517 206.837L293.377 207.482L293.267 207.636ZM292.525 207.828L291.957 208.1L291.892 208.084L292.265 207.889L292.525 207.828ZM290.269 209.912L290.191 209.955L290.477 209.481L291.042 208.878L291.194 208.786L290.725 209.3L290.269 209.912ZM290.137 209.867L290.067 209.876L289.944 209.834L289.775 209.754L289.737 209.695L289.898 209.716L290.137 209.867ZM154.738 212.044L155.374 212.237L155.717 212.144L155.779 212.237L155.739 212.319L154.967 212.464L154.729 212.362L154.708 212.223L154.628 212.088L154.738 212.044ZM153.414 212.249L153.248 212.259L152.992 212.219L153.082 212.131L153.223 212.067L153.269 212.115L153.414 212.249ZM154.235 212.65L154.016 212.702L153.85 212.653L153.585 212.293L154.147 212.245L154.39 212.401L154.422 212.445L154.235 212.65ZM159.533 214.65L159.691 214.925L159.464 214.891L159.227 214.907L159.155 214.757L159.084 214.548L159.037 214.496L158.874 214.477L158.862 214.458L158.843 214.356L158.889 214.308L159.398 214.54L159.533 214.65ZM156.127 215.279L155.987 215.286L155.796 215.251L155.698 215.05L155.855 215.037L156 215.065L156.114 215.222L156.127 215.279ZM159.525 216.731L159.343 216.764L159.141 216.688L158.968 216.329L158.776 216.049L158.88 215.968L159.034 216.239L159.423 216.65L159.525 216.731ZM274.912 223.557L274.773 224.444L274.712 224.13L274.707 223.826L274.812 223.645L274.912 223.557ZM254.127 226.167L253.852 226.244L253.445 226.236L253.362 226.209L253.525 226.158L254.008 226.089L254.127 226.167ZM252.607 226.299L252.567 226.339L252.29 226.264L252.122 226.194L252.092 226.123L252.556 226.25L252.607 226.299ZM250.526 226.774L250.537 226.942L250.383 226.858L250.156 226.85L250.256 226.793L250.326 226.737L250.362 226.677L250.648 226.468L250.567 226.621L250.526 226.774ZM251.765 227.77L251.677 227.885L251.764 227.336L251.642 226.873L251.77 227.077L251.813 227.318L251.765 227.77ZM251.572 228.112L251.403 228.3L251.411 228.229L251.535 228.041L251.624 227.967L251.572 228.112ZM264.012 228.364L263.698 228.494L263.358 228.4L263.569 228.382L263.721 228.42L264.107 228.234L264.31 228.094L264.544 228.042L264.012 228.364ZM242.498 228.873L242.382 228.924L241.866 228.613L241.833 228.48L242.088 228.359L242.244 228.371L242.49 228.529L242.58 228.573L242.623 228.637L242.599 228.736L242.498 228.873ZM232.356 230.144L232.2 230.178L232.882 229.628L233.024 229.445L233.207 229.453L232.903 229.76L232.356 230.144ZM226.967 233.677L226.852 233.691L226.995 233.5L227.226 233.404L227.734 233.036L227.941 233.01L228.049 232.884L228.096 232.865L228.066 233.021L227.658 233.242L226.967 233.677ZM226.186 234.564L226.118 234.573L226.27 234.284L226.298 234.168L226.546 233.801L226.677 233.746L226.732 233.903L226.477 234.16L226.186 234.564ZM278.761 236.759L278.813 237.018L278.525 236.417L278.17 235.475L277.981 234.745L278.109 234.942L278.235 235.35L278.761 236.759ZM225.127 236.683L225.029 236.886L225.055 236.585L225.309 235.899L225.825 234.997L226.042 234.846L225.447 235.836L225.127 236.683ZM225.698 240.669L225.654 240.831L225.396 240.076L224.975 238.364L224.96 237.384L225.026 237.047L225.134 238.431L225.6 240.18L225.698 240.669ZM272.835 239.301L272.831 239.505L272.673 239.162L272.568 238.782L272.719 238.905L272.835 239.301ZM272.98 239.645L272.869 239.737L272.643 239.67L272.52 239.55L272.467 239.316L272.663 239.564L272.733 239.62L272.98 239.645ZM278.152 244.191L277.531 244.838L277.6 244.676L277.843 244.33L277.921 244.166L278.085 244.063L278.237 243.877L278.248 243.658L278.47 243.504L278.542 243.482L278.152 244.191ZM277.351 245.014L277.267 245.031L277.391 244.884L277.425 244.895L277.351 245.014ZM276.754 245.356H276.695L276.724 245.307L276.848 245.209L276.892 245.247L276.888 245.297L276.754 245.356ZM276.083 245.654L275.94 245.736L275.792 245.676L275.955 245.594L276.439 245.507L276.257 245.615L276.083 245.654ZM275.176 245.883L275.082 245.953L275.038 245.931V245.828L274.904 245.6L274.908 245.54L275.213 245.763L275.221 245.823L275.176 245.883ZM274.451 246.056L274.248 246.089L274.412 245.954L274.464 245.748L274.56 245.908L274.559 246.005L274.451 246.056ZM273.772 246.246L273.693 246.254L273.686 246.201L273.823 246.136L273.914 246.141L273.911 246.212L273.772 246.246ZM31.3565 255.116L31.0815 255.305L30.9212 255.224L30.6184 255.194L30.5015 255.052L30.1842 254.923L30.0562 254.749L30.251 254.418L30.7119 254.138L31.4221 254.15L31.5702 254.371L31.5836 254.535L31.4912 254.72L31.4489 254.979L31.3565 255.116ZM28.8338 255.423L28.7704 255.571L28.6624 255.548L28.6356 255.416L28.7058 255.234L28.8839 255.076L29.0821 254.837L29.2446 254.873L29.1567 255.03L29.1466 255.2L28.9173 255.296L28.8338 255.423ZM36.2726 256.714L36.3795 256.733L36.5175 256.71L36.5654 256.977L36.7257 257.124L36.7847 257.213L36.6111 257.306L36.2737 257.342L36.1157 257.269L35.952 257.102L35.775 257.148L35.7438 257.014L35.7127 256.975L35.5913 257.01L35.7049 257.184L35.3976 257.197L35.3008 257.176L35.215 256.98L34.8989 256.605L34.9 256.458L34.792 256.284L35.2607 256.233L35.5813 255.926L35.7628 255.893L36.1101 256.39L36.1012 256.529L36.178 256.665L36.2726 256.714ZM38.1017 257.521L38.7619 257.613L38.9177 257.574L39.028 257.649L39.5746 257.696L39.6681 257.724L39.5568 257.896L39.2072 258.054L38.704 257.915L37.8624 257.866L37.8969 257.733L37.977 257.639L37.9893 257.474L38.1017 257.521ZM40.3728 258.467L40.454 258.526L40.7869 258.437L41.0274 258.405L41.4304 258.625L41.5706 258.776L41.8356 258.937L41.9258 259.053L41.8523 259.194L41.5595 259.427L41.161 259.48L40.9261 259.58L40.6177 259.558L40.5253 259.516L40.4919 259.221L40.3939 258.904L40.1947 258.941L39.9709 258.835L39.7393 258.569L39.7137 258.41L39.8418 258.158L40.0655 258.125L40.2314 258.265L40.3728 258.467ZM39.2395 259.002L39.0547 259.096L38.8532 259.052L38.8064 258.824L38.6127 258.534L38.9534 258.475L39.1448 258.559L39.245 258.649L39.3664 258.805L39.2395 259.002ZM43.2027 264.841L43.0646 265L42.8921 264.988L42.2653 264.648L42.1896 264.466L42.2364 263.617L42.0015 262.928L41.7432 262.401L41.9313 262.13L42.1796 261.92L42.4568 261.524L42.2297 261.015L42.2876 260.708L42.4212 260.655L43.0758 261.029L44.3983 261.59L44.7501 261.985L44.8125 262.407L45.0529 262.461L45.1676 262.75L45.5149 263.004L45.6307 263.148L45.4871 263.381L44.8525 263.827L44.0521 264.022L43.3474 264.52L43.2027 264.841Z" fill="#F4F4F4" stroke="#E7E7E7" stroke-width="0.5"/>
</svg>
