<svg width="32" height="32" viewBox="0 0 32 32" fill="none" xmlns="http://www.w3.org/2000/svg">
<rect opacity="0.1" width="32" height="32" rx="4" fill="black"/>
<path d="M18.25 13.75L15.25 16.75L13.75 15.25M22 11.65V14.6236C22 19.5498 18.274 21.7584 16.6943 22.4734C16.5269 22.5492 16.4437 22.5871 16.2542 22.6197C16.1346 22.6402 15.866 22.6402 15.7464 22.6197C15.5569 22.5871 15.4729 22.5492 15.3055 22.4734C13.7258 21.7584 10 19.5498 10 14.6236V11.65C10 10.8099 10 10.3899 10.1635 10.069C10.3073 9.78679 10.5366 9.5573 10.8188 9.41349C11.1397 9.25 11.5601 9.25 12.4001 9.25H19.6001C20.4402 9.25 20.86 9.25 21.1808 9.41349C21.4631 9.5573 21.6929 9.78679 21.8367 10.069C22.0002 10.3899 22 10.8099 22 11.65Z" stroke="white" stroke-width="2" stroke-linecap="round" stroke-linejoin="round"/>
</svg>
