<svg width="27" height="28" viewBox="0 0 27 28" fill="none" xmlns="http://www.w3.org/2000/svg">
<path d="M0 24.0718C0 24.9668 0.35558 25.8253 0.988393 26.4584C1.62158 27.0913 2.48005 27.4468 3.375 27.4468H23.625C24.52 27.4468 25.3785 27.0913 26.0116 26.4584C26.6444 25.8253 27 24.9668 27 24.0718V18.447C27 17.8255 26.4964 17.3218 25.8749 17.3218C25.2537 17.3218 24.7501 17.8255 24.7501 18.447V24.0718C24.7501 24.3702 24.6315 24.6564 24.4205 24.8674C24.2096 25.0783 23.9233 25.197 23.625 25.197H3.375C2.75387 25.197 2.24987 24.693 2.24987 24.0718V18.447C2.24987 17.8255 1.74625 17.3218 1.12513 17.3218C0.503617 17.3218 0 17.8255 0 18.447V24.0718Z" fill="#F12A23"/>
<path d="M6.33423 7.03943L12.6005 0.773119V0.773495C12.81 0.565577 13.0929 0.448423 13.3878 0.447296C13.6869 0.445412 13.9743 0.562933 14.1867 0.773495L14.2654 0.863518L20.4305 7.02858C20.6433 7.23952 20.7631 7.5273 20.7631 7.82713C20.7631 8.12696 20.6433 8.41474 20.4305 8.62606C19.9917 9.06224 19.2832 9.06224 18.8444 8.62606L14.6256 4.38474V18.526C14.6256 18.8243 14.507 19.1106 14.296 19.3215C14.0851 19.5325 13.7988 19.6511 13.5005 19.6511C12.8793 19.6511 12.3754 19.1475 12.3754 18.526V4.18224L7.93173 8.68237C7.4929 9.11856 6.78442 9.11856 6.34558 8.68237C6.11693 8.47106 5.98585 8.17462 5.98359 7.86348C5.98171 7.55235 6.10865 7.25402 6.33428 7.03969L6.33423 7.03943Z" fill="#F12A23"/>
</svg>
