<svg width="32" height="30" viewBox="0 0 32 30" fill="none" xmlns="http://www.w3.org/2000/svg">
<path d="M9.33333 8.33341C9.33333 4.65152 12.3181 1.66675 16 1.66675C19.6819 1.66675 22.6667 4.65152 22.6667 8.33341M1 13.6667V23C1 24.8668 0.999645 25.8004 1.36296 26.5135C1.68253 27.1407 2.19315 27.6505 2.82036 27.9701C3.53339 28.3334 4.46617 28.3334 6.33301 28.3334H25.6663C27.5332 28.3334 28.4673 28.3334 29.1803 27.9701C29.8075 27.6505 30.3171 27.1407 30.6367 26.5135C31 25.8004 31 24.8668 31 23V13.6667C31 11.7998 31 10.8665 30.6367 10.1535C30.3171 9.52628 29.8075 9.0163 29.1803 8.69673C28.4673 8.33341 27.5332 8.33341 25.6663 8.33341H6.33301C4.46617 8.33341 3.53339 8.33341 2.82036 8.69673C2.19315 9.0163 1.68253 9.52628 1.36296 10.1535C0.999645 10.8665 1 11.7998 1 13.6667Z" stroke="#F12A23" stroke-width="2" stroke-linecap="round" stroke-linejoin="round"/>
</svg>
