<svg width="28" height="29" viewBox="0 0 28 29" fill="none" xmlns="http://www.w3.org/2000/svg">
<path d="M14.1329 0.197086C14.0031 0.215523 13.8822 0.273874 13.787 0.364055L7.35872 6.20798H3.49457C2.69484 6.18563 1.90769 6.41053 1.24049 6.85201C0.927843 7.04908 0.667843 7.31926 0.48292 7.63924C0.297996 7.95922 0.193703 8.31939 0.179039 8.68867V26.4113C0.193287 26.7684 0.294079 27.1167 0.472744 27.4263C0.65141 27.7358 0.9026 27.9973 1.20471 28.1883C1.84716 28.6148 2.60434 28.8353 3.37531 28.8204H22.8392C23.3184 28.8123 23.784 28.6601 24.1755 28.3836C24.5669 28.107 24.8659 27.719 25.0336 27.27C25.5798 27.2417 26.1077 27.0643 26.5602 26.7571C26.8536 26.5496 27.0925 26.2742 27.2566 25.9544C27.4206 25.6346 27.5049 25.2799 27.5024 24.9205V8.68867C27.5167 8.0631 27.305 7.45333 26.9061 6.97127C26.6884 6.72551 26.42 6.52997 26.1194 6.39818C25.8187 6.26639 25.493 6.20149 25.1648 6.20798H21.9328L20.1796 2.55851C20.1242 2.43998 20.0341 2.34111 19.9212 2.27507C19.8083 2.20902 19.6779 2.17893 19.5475 2.18879C19.4647 2.19984 19.3842 2.22399 19.309 2.26035L17.2576 3.3218L14.7769 0.435614C14.7061 0.335604 14.6067 0.259321 14.4918 0.216758C14.3769 0.174195 14.2518 0.167339 14.1329 0.197086ZM14.1329 1.77137L16.0173 3.94197L6.20186 9.02261L14.1329 1.77137ZM19.309 3.72729L22.0282 9.29691H8.49173L19.309 3.72729ZM22.6006 7.49603H25.1648C25.3058 7.4827 25.448 7.50397 25.5789 7.55801C25.7098 7.61204 25.8256 7.69721 25.9162 7.80612C26.1089 8.05413 26.2062 8.36305 26.1905 8.67674V14.5564H20.8355C20.0665 14.6048 19.3448 14.9443 18.8173 15.506C18.2898 16.0677 17.9962 16.8093 17.9962 17.5798C17.9962 18.3503 18.2898 19.0919 18.8173 19.6536C19.3448 20.2152 20.0665 20.5548 20.8355 20.6031H26.1905V24.9085C26.2105 25.0597 26.1863 25.2134 26.1207 25.351C26.055 25.4886 25.9508 25.6042 25.8208 25.6838C25.6265 25.8014 25.4122 25.8823 25.1887 25.9223V22.1655C25.1887 21.9936 25.1212 21.8285 25.0008 21.7058C24.8803 21.5831 24.7165 21.5127 24.5446 21.5095C24.4584 21.5092 24.3729 21.5259 24.2931 21.5586C24.2132 21.5914 24.1407 21.6395 24.0795 21.7003C23.9608 21.8266 23.8928 21.9922 23.8887 22.1655V26.4113C23.8935 26.5526 23.8699 26.6935 23.8195 26.8257C23.769 26.9579 23.6927 27.0786 23.5949 27.1808C23.4971 27.283 23.3799 27.3647 23.2501 27.4209C23.1203 27.4772 22.9806 27.507 22.8392 27.5085H3.38724C2.87846 27.5181 2.37762 27.3815 1.94414 27.1149C1.81695 27.0435 1.70916 26.942 1.63016 26.8194C1.55117 26.6967 1.50337 26.5566 1.49094 26.4113V10.2272C2.00122 10.4839 2.56557 10.6148 3.13678 10.6088H23.1254C23.2343 10.6018 23.343 10.6247 23.4397 10.6752C23.5365 10.7257 23.6175 10.8017 23.674 10.8951C23.8307 11.1364 23.9136 11.4183 23.9125 11.706V12.7436C23.9167 12.9169 23.9846 13.0825 24.1034 13.2088C24.1645 13.2696 24.2371 13.3178 24.3169 13.3505C24.3967 13.3833 24.4822 13.3999 24.5685 13.3996C24.7404 13.3965 24.9042 13.326 25.0246 13.2033C25.1451 13.0806 25.2125 12.9156 25.2125 12.7436V11.706C25.2211 11.1371 25.0454 10.5806 24.7116 10.1198C24.4217 9.72708 23.997 9.45525 23.519 9.35655L22.6006 7.49603ZM3.51843 7.49603H5.92755L3.94777 9.30884H3.12485C2.7063 9.31763 2.29349 9.2103 1.93222 8.99875C1.82933 8.943 1.73912 8.86652 1.66727 8.77415C1.59543 8.68177 1.54351 8.57551 1.51479 8.46207C1.61056 8.24612 1.76829 8.06348 1.968 7.93731C2.41374 7.64624 2.93871 7.50041 3.47072 7.51988L3.51843 7.49603ZM20.8713 15.8445H26.2263V19.2912H20.8355C20.4032 19.2552 20.0002 19.0581 19.7065 18.7388C19.4127 18.4196 19.2497 18.0017 19.2497 17.5679C19.2497 17.1341 19.4127 16.7161 19.7065 16.3969C20.0002 16.0777 20.4032 15.8805 20.8355 15.8445H20.8713ZM21.3007 16.6555C21.0767 16.6811 20.8699 16.7883 20.7198 16.9566C20.5698 17.1248 20.4868 17.3424 20.4868 17.5679C20.4868 17.7933 20.5698 18.0109 20.7198 18.1792C20.8699 18.3474 21.0767 18.4546 21.3007 18.4802C21.4292 18.495 21.5595 18.4823 21.6828 18.4432C21.8062 18.4041 21.9199 18.3393 22.0164 18.2532C22.113 18.167 22.1903 18.0614 22.2432 17.9433C22.2961 17.8252 22.3235 17.6973 22.3235 17.5679C22.3235 17.4384 22.2961 17.3105 22.2432 17.1924C22.1903 17.0743 22.113 16.9687 22.0164 16.8826C21.9199 16.7964 21.8062 16.7316 21.6828 16.6925C21.5595 16.6534 21.4292 16.6408 21.3007 16.6555Z" fill="#F12D26"/>
<path fill-rule="evenodd" clip-rule="evenodd" d="M14.0985 0.0213297C14.2497 -0.0145878 14.4081 -0.004999 14.5539 0.0490006C14.6999 0.103048 14.8264 0.199111 14.9177 0.324969L17.3011 3.09789L19.2311 2.09923C19.3234 2.05461 19.4222 2.02502 19.5238 2.01147L19.534 2.01011C19.7006 1.99751 19.8672 2.03626 20.0115 2.12065C20.1555 2.20486 20.2705 2.33082 20.3412 2.48184C20.3411 2.48152 20.3414 2.48217 20.3412 2.48184L22.0453 6.02909H25.1631C25.5166 6.02236 25.8673 6.09238 26.1912 6.23434C26.5156 6.37653 26.8052 6.58751 27.04 6.85267L27.0439 6.85715C27.4699 7.37183 27.6961 8.02279 27.6813 8.69066V24.9198C27.6839 25.3079 27.5928 25.6908 27.4157 26.036C27.2385 26.3815 26.9805 26.679 26.6635 26.9032L26.6607 26.9052C26.2131 27.2091 25.6957 27.393 25.158 27.4406C24.9719 27.8774 24.6678 28.2548 24.2787 28.5297C23.8579 28.827 23.3573 28.9906 22.8422 28.9993L22.8392 28.9993H3.37709C2.57101 29.0145 1.77939 28.784 1.10747 28.3385C0.7816 28.1321 0.510631 27.8498 0.317804 27.5157C0.124652 27.181 0.0156876 26.8045 0.000284525 26.4184L0 26.4113L0.000142316 8.68157C0.0159582 8.28328 0.128583 7.89484 0.328029 7.54973C0.527144 7.20519 0.806963 6.91419 1.14341 6.70173C1.84026 6.24112 2.66204 6.00627 3.49704 6.02909H7.28956L13.6654 0.232844C13.7851 0.120035 13.9361 0.0462994 14.0985 0.0213297ZM14.4297 0.384519C14.3485 0.354475 14.2602 0.349635 14.1763 0.370633L14.1673 0.372895L14.1581 0.374206C14.065 0.387425 13.9783 0.429261 13.9101 0.49392L13.9074 0.496457L7.42788 6.38688H3.48957C2.72664 6.36556 1.97571 6.58004 1.3392 7.0012L1.3359 7.00338C1.04781 7.18498 0.808209 7.4339 0.637808 7.72875C0.467988 8.0226 0.371961 8.35323 0.357934 8.69229V26.4076C0.371542 26.7346 0.464085 27.0534 0.627683 27.3368C0.791862 27.6213 1.02269 27.8616 1.3003 28.0371L1.30367 28.0392C1.91581 28.4456 2.63726 28.6557 3.37186 28.6415L3.37531 28.6415L22.8376 28.6415C23.2804 28.6338 23.7106 28.493 24.0722 28.2375C24.4343 27.9816 24.7109 27.6227 24.866 27.2074L24.9071 27.0974L25.0244 27.0913C25.5373 27.0647 26.0331 26.8983 26.4582 26.6101C26.7275 26.4193 26.9467 26.1664 27.0974 25.8727C27.2483 25.5786 27.3258 25.2523 27.3235 24.9218L27.3235 24.9205V8.68456C27.3368 8.10303 27.1404 7.53616 26.7701 7.08763C26.57 6.86233 26.3235 6.68301 26.0475 6.56203C25.7706 6.44064 25.4706 6.38087 25.1683 6.38684L25.1648 6.38688H21.8202L20.0183 2.63598L20.0175 2.6342C19.9775 2.54859 19.9124 2.47719 19.8309 2.42949C19.7508 2.38264 19.6585 2.36084 19.566 2.36683C19.5046 2.37555 19.4448 2.39363 19.3889 2.42042L17.2142 3.54571L14.6303 0.539462C14.5803 0.468867 14.5108 0.414563 14.4297 0.384519ZM14.1477 1.51548L16.3014 3.99635L5.08294 9.80322L14.1477 1.51548ZM7.32078 8.242L15.7332 3.88759L14.1181 2.02726L7.32078 8.242ZM19.3895 3.48459L22.3146 9.47581H7.75348L19.3895 3.48459ZM9.22997 9.11802H21.7417L19.2284 3.97L9.22997 9.11802ZM25.5106 7.72337C25.4066 7.68044 25.2937 7.66354 25.1816 7.67413L25.1648 7.67573L22.8884 7.67493L23.6417 9.20109C24.1275 9.32241 24.5571 9.60923 24.8555 10.0136L24.8565 10.0149C25.2127 10.5066 25.4003 11.1003 25.3914 11.7074V12.7436C25.3914 12.9624 25.3056 13.1725 25.1523 13.3286C24.999 13.4848 24.7905 13.5745 24.5717 13.5785L24.5692 13.5785C24.4594 13.5789 24.3506 13.5577 24.249 13.516C24.1474 13.4743 24.0551 13.413 23.9772 13.3356L23.9729 13.3314C23.8241 13.173 23.7389 12.9652 23.7337 12.7479L23.7336 12.7436L23.7336 11.706C23.7346 11.4531 23.6617 11.2046 23.524 10.9925L23.5209 10.9877C23.4813 10.9224 23.4247 10.8691 23.357 10.8338C23.2893 10.7985 23.2132 10.7824 23.1369 10.7873L23.1254 10.7881L3.13778 10.7877C2.63354 10.7929 2.1344 10.6965 1.66984 10.5054V26.4032C1.68072 26.5169 1.71867 26.6264 1.78056 26.7225C1.84376 26.8206 1.92999 26.9018 2.03175 26.9589L2.03792 26.9624C2.44224 27.211 2.90932 27.3386 3.38387 27.3296L3.38723 27.3296L22.8381 27.3296C22.9554 27.3282 23.0713 27.3035 23.1789 27.2568C23.2868 27.21 23.3843 27.1421 23.4656 27.0571C23.5469 26.9722 23.6104 26.8718 23.6523 26.7619C23.6943 26.652 23.7139 26.5349 23.7099 26.4173L23.7097 26.4113L23.7098 22.1612C23.715 21.9439 23.8003 21.7362 23.9492 21.5778L23.9533 21.5734C24.0311 21.496 24.1236 21.4348 24.2252 21.3931C24.3267 21.3514 24.4355 21.3302 24.5453 21.3306L24.5479 21.3306C24.7667 21.3346 24.9751 21.4244 25.1284 21.5805C25.2817 21.7366 25.3676 21.9467 25.3675 22.1655V25.6943C25.4933 25.6544 25.6142 25.5997 25.7276 25.5311C25.828 25.4696 25.9085 25.3803 25.9592 25.274C26.0099 25.1677 26.0286 25.0489 26.0131 24.9321L26.0116 24.9204V20.782H20.8243C20.0099 20.7308 19.2456 20.3709 18.6869 19.776C18.1283 19.1812 17.8173 18.3958 17.8173 17.5798C17.8173 16.7637 18.1283 15.9784 18.6869 15.3835C19.2456 14.7887 20.0099 14.4291 20.8243 14.3779L20.8355 14.3772L26.0116 14.3776V8.66777C26.0251 8.39786 25.9419 8.13205 25.7767 7.91827C25.7051 7.83281 25.6138 7.76594 25.5106 7.72337ZM25.1568 7.31714C25.3239 7.30275 25.492 7.32863 25.6471 7.39264C25.805 7.45778 25.9445 7.56045 26.0537 7.69173L26.0575 7.6963C26.2756 7.97692 26.3861 8.32623 26.3694 8.68112V14.7353H20.8412C20.1197 14.7821 19.4428 15.1013 18.9477 15.6285C18.4514 16.157 18.1751 16.8548 18.1751 17.5798C18.1751 18.3048 18.4514 19.0026 18.9477 19.5311C19.4428 20.0583 20.1197 20.3775 20.8412 20.4242H26.3694V24.8973C26.3911 25.0788 26.3609 25.2629 26.2821 25.428C26.2016 25.5969 26.0737 25.7388 25.9141 25.8364C25.701 25.9654 25.4654 26.0545 25.2202 26.0984L25.0098 26.136V22.1654C25.0098 22.0404 24.9607 21.9204 24.8731 21.8312C24.7858 21.7422 24.6672 21.691 24.5427 21.6884C24.4804 21.6883 24.4186 21.7005 24.361 21.7241C24.3038 21.7476 24.2518 21.7818 24.2078 21.8251C24.121 21.9185 24.0711 22.0403 24.0676 22.1678V26.4084C24.0727 26.5725 24.0452 26.7361 23.9866 26.8895C23.9276 27.0439 23.8384 27.185 23.7242 27.3045C23.6099 27.4239 23.4729 27.5193 23.3213 27.5851C23.1696 27.6508 23.0064 27.6856 22.8411 27.6874L22.8392 27.6874H3.38888C2.84761 27.6972 2.31483 27.5521 1.85336 27.2691C1.70211 27.1835 1.5739 27.0624 1.47976 26.9162C1.38497 26.7691 1.32761 26.6009 1.31269 26.4265L1.31139 26.4113L1.31204 9.93688L1.57135 10.0674C2.05612 10.3113 2.59225 10.4356 3.1349 10.4299L3.13678 10.4299L23.12 10.4299C23.2595 10.422 23.3986 10.4519 23.5225 10.5166C23.6474 10.5818 23.7521 10.6797 23.8255 10.7999C24.0002 11.07 24.0926 11.385 24.0914 11.7067V12.7413C24.0914 12.7406 24.0914 12.74 24.0914 12.7393L23.9125 12.7436H24.0914V12.7413C24.095 12.8688 24.1448 12.9906 24.2316 13.084C24.2309 13.0833 24.2302 13.0826 24.2295 13.0819L24.1034 13.2088L24.2337 13.0862C24.233 13.0855 24.2323 13.0848 24.2316 13.084C24.2757 13.1273 24.3277 13.1616 24.3848 13.185C24.4425 13.2087 24.5042 13.2208 24.5665 13.2207C24.5661 13.2207 24.5657 13.2207 24.5652 13.2207L24.5685 13.3996L24.5678 13.2207C24.5674 13.2207 24.5669 13.2207 24.5665 13.2207C24.6911 13.2181 24.8097 13.1669 24.897 13.078C24.9846 12.9887 25.0336 12.8687 25.0336 12.7436V11.7033C25.0416 11.1733 24.8781 10.6549 24.5672 10.2255C24.3036 9.86852 23.9174 9.62148 23.4828 9.53175L23.3972 9.51408L22.3128 7.31714H25.1568ZM25.1568 7.31714C25.1538 7.31739 25.1509 7.31765 25.148 7.31793L25.1648 7.49603V7.31714H25.1568ZM3.47619 7.31714H6.38783L4.01731 9.48774H3.12668C2.6767 9.49683 2.23294 9.38155 1.8443 9.15458C1.72079 9.08717 1.61246 8.99506 1.52606 8.88398C1.43904 8.77209 1.37615 8.64338 1.34137 8.50597L1.3262 8.44605L1.35126 8.38955C1.4612 8.14162 1.64218 7.93187 1.87131 7.78679C2.3348 7.48445 2.87828 7.32889 3.43086 7.3398L3.47619 7.31714ZM3.56065 7.67493L3.50985 7.70033L3.46417 7.69866C2.96911 7.68054 2.4806 7.81624 2.06581 8.0871L2.06356 8.08856C1.91185 8.18441 1.78863 8.31858 1.70605 8.47705C1.72989 8.54444 1.76444 8.60769 1.80848 8.66432C1.86515 8.73717 1.9363 8.79749 2.01745 8.84147L2.02266 8.8443C2.35541 9.03914 2.73558 9.13808 3.1211 9.12998L3.12485 9.12991L3.87824 9.12994L5.46727 7.67493H3.56065ZM20.8355 15.6656H26.4051V19.4701H20.8206C20.3436 19.4304 19.899 19.2122 19.5748 18.86C19.2507 18.5077 19.0708 18.0465 19.0708 17.5679C19.0708 17.0892 19.2507 16.628 19.5748 16.2757C19.899 15.9235 20.3437 15.7059 20.8207 15.6662L20.8355 15.6656ZM20.8432 16.0234C20.4583 16.0572 20.0998 16.2336 19.8381 16.518C19.5748 16.8042 19.4286 17.1789 19.4286 17.5679C19.4286 17.9568 19.5748 18.3315 19.8381 18.6177C20.0998 18.9021 20.4583 19.0785 20.8432 19.1123H26.0474V16.0234H20.8432ZM21.2803 16.4778C21.4339 16.4602 21.5895 16.4752 21.7369 16.522C21.8843 16.5687 22.0201 16.6461 22.1355 16.7491C22.2509 16.852 22.3432 16.9781 22.4065 17.1192C22.4697 17.2604 22.5024 17.4132 22.5024 17.5679C22.5024 17.7225 22.4697 17.8754 22.4065 18.0165C22.3432 18.1576 22.2509 18.2837 22.1355 18.3867C22.0201 18.4896 21.8843 18.567 21.7369 18.6137C21.5895 18.6605 21.4339 18.6756 21.2803 18.658C21.0127 18.6273 20.7657 18.4993 20.5863 18.2982C20.407 18.0972 20.3079 17.8372 20.3079 17.5679C20.3079 17.2985 20.407 17.0385 20.5863 16.8375C20.7657 16.6364 21.0127 16.5084 21.2803 16.4778ZM21.6287 16.863C21.5294 16.8315 21.4245 16.8214 21.321 16.8332C21.1406 16.8539 20.9742 16.9402 20.8533 17.0756C20.7325 17.2111 20.6657 17.3863 20.6657 17.5679C20.6657 17.7494 20.7325 17.9246 20.8533 18.0601C20.9742 18.1956 21.1406 18.2818 21.321 18.3025C21.4245 18.3143 21.5294 18.3042 21.6287 18.2727C21.7281 18.2412 21.8196 18.189 21.8974 18.1197C21.9751 18.0503 22.0373 17.9653 22.0799 17.8702C22.1225 17.7751 22.1446 17.6721 22.1446 17.5679C22.1446 17.4637 22.1225 17.3606 22.0799 17.2655C22.0373 17.1704 21.9751 17.0854 21.8974 17.0161C21.8196 16.9467 21.7281 16.8945 21.6287 16.863Z" fill="#F12D26"/>
</svg>
