<svg width="30" height="31" viewBox="0 0 30 31" fill="none" xmlns="http://www.w3.org/2000/svg">
<path d="M0.299999 15.7349C0.299999 17.0009 1.28669 18.0311 2.49994 18.0311H27.1001C28.3133 18.0311 29.3 17.0009 29.3 15.7349V3.29622C29.3 2.03043 28.3133 1 27.1001 1H2.49994C1.28669 1 0.299999 2.03043 0.299999 3.29622V15.7349ZM1.46 3.29622C1.46 2.66976 1.92672 2.16 2.49994 2.16H27.1001C27.6733 2.16 28.14 2.66977 28.14 3.29622V15.7349C28.14 16.3614 27.6733 16.8711 27.1001 16.8711H2.49994C1.92674 16.8709 1.46 16.3614 1.46 15.7347V3.29622Z" fill="#F12A23"/>
<path fill-rule="evenodd" clip-rule="evenodd" d="M2.49994 18.3311C1.109 18.3311 0 17.1543 0 15.7348V3.29617C0 1.87698 1.10898 0.699951 2.49994 0.699951H27.1001C28.491 0.699951 29.6 1.87698 29.6 3.29617V15.7348C29.6 17.1543 28.491 18.3311 27.1001 18.3311H2.49994ZM2.49994 2.45995C2.11683 2.45995 1.76 2.80987 1.76 3.29617V15.7346C1.76 16.221 2.11673 16.5708 2.49994 16.5711C2.49998 16.5711 2.50002 16.5711 2.50006 16.5711H27.1001C27.4832 16.5711 27.84 16.2211 27.84 15.7348V3.29617C27.84 2.80988 27.4832 2.45995 27.1001 2.45995H2.49994ZM2.49994 16.8711H27.1001C27.6733 16.8711 28.14 16.3613 28.14 15.7348V3.29617C28.14 2.66972 27.6733 2.15995 27.1001 2.15995H2.49994C1.92672 2.15995 1.46 2.66971 1.46 3.29617V15.7346C1.46 16.3613 1.92674 16.8708 2.49994 16.8711ZM2.49994 18.0311C1.2867 18.0311 0.3 17.0009 0.3 15.7348V3.29617C0.3 2.03038 1.2867 0.999951 2.49994 0.999951H27.1001C28.3133 0.999951 29.3 2.03038 29.3 3.29617V15.7348C29.3 17.0009 28.3133 18.0311 27.1001 18.0311H2.49994Z" fill="#F12A23"/>
<path d="M15.0774 11.9731C14.3563 11.9731 13.7697 11.4946 13.7697 10.9065C13.7697 10.5859 13.5103 10.3265 13.1897 10.3265C12.8691 10.3265 12.6097 10.5859 12.6097 10.9065C12.6097 11.9527 13.4165 12.8264 14.4959 13.0638V13.6886C14.4959 14.0092 14.7553 14.2686 15.0759 14.2686C15.3965 14.2686 15.6559 14.0092 15.6559 13.6886V13.0646C16.7371 12.8283 17.5454 11.9538 17.5454 10.9064C17.5454 9.67912 16.438 8.68042 15.0777 8.68042C14.3565 8.68042 13.77 8.20192 13.77 7.61374C13.77 7.02672 14.3552 6.54955 15.0745 6.54799C15.0749 6.54799 15.0754 6.54821 15.0761 6.54821C15.077 6.54821 15.0777 6.54776 15.0786 6.54776C15.7993 6.54822 16.3856 7.02604 16.3856 7.61374C16.3856 7.93433 16.645 8.19374 16.9656 8.19374C17.2862 8.19374 17.5456 7.93433 17.5456 7.61374C17.5456 6.56679 16.7372 5.69226 15.6561 5.45597L15.6556 4.82951C15.6556 4.50893 15.3962 4.24951 15.0756 4.24951C14.755 4.24951 14.4956 4.50893 14.4956 4.82951V5.45707C13.4163 5.69451 12.6095 6.56812 12.6095 7.61398C12.6095 8.84195 13.7169 9.84065 15.0772 9.84065C15.7984 9.84065 16.3849 10.3187 16.3849 10.9066C16.3851 11.4943 15.7986 11.9731 15.0774 11.9731L15.0774 11.9731Z" fill="#F12A23"/>
<path fill-rule="evenodd" clip-rule="evenodd" d="M15.0774 11.973C15.0775 11.973 15.0775 11.973 15.0775 11.973C15.1907 11.973 15.3005 11.9612 15.4053 11.9391C15.9682 11.8201 16.3851 11.4021 16.3849 10.9066C16.3849 10.3187 15.7984 9.8406 15.0772 9.8406C13.7169 9.8406 12.6095 8.8419 12.6095 7.61393C12.6095 6.56807 13.4163 5.69446 14.4956 5.45702V4.82946C14.4956 4.50888 14.755 4.24946 15.0756 4.24946C15.3962 4.24946 15.6556 4.50888 15.6556 4.82946L15.6561 5.45592C16.7372 5.69221 17.5456 6.56674 17.5456 7.6137C17.5456 7.93428 17.2862 8.1937 16.9656 8.1937C16.645 8.1937 16.3856 7.93428 16.3856 7.6137C16.3856 7.02599 15.7993 6.54817 15.0786 6.54771C15.0781 6.54771 15.0777 6.54783 15.0773 6.54794C15.0769 6.54805 15.0765 6.54817 15.0761 6.54817L15.0745 6.54794C14.3552 6.54951 13.7699 7.02667 13.7699 7.61369C13.7699 8.20187 14.3565 8.68037 15.0777 8.68037C16.4379 8.68037 17.5454 9.67907 17.5454 10.9063C17.5454 11.9538 16.7371 12.8283 15.6559 13.0646V13.6886C15.6559 14.0091 15.3965 14.2686 15.0759 14.2686C14.7553 14.2686 14.4959 14.0091 14.4959 13.6886V13.0637C13.4165 12.8263 12.6097 11.9527 12.6097 10.9064C12.6097 10.5858 12.8691 10.3264 13.1897 10.3264C13.5103 10.3264 13.7697 10.5858 13.7697 10.9064C13.7697 11.3887 14.1641 11.7973 14.7037 11.9287C14.8221 11.9576 14.9475 11.9731 15.0773 11.9731C15.0774 11.9731 15.0774 11.9731 15.0774 11.9731C15.0774 11.9731 15.0774 11.9731 15.0774 11.9731L15.0774 11.973C15.0774 11.973 15.0774 11.973 15.0774 11.973ZM15.0653 11.673H15.0774C15.693 11.673 16.085 11.2744 16.0849 10.9067V10.9066C16.0849 10.5388 15.6929 10.1406 15.0772 10.1406C13.581 10.1406 12.3095 9.0359 12.3095 7.61393C12.3095 6.48375 13.1194 5.55791 14.1956 5.22612V4.82946C14.1956 4.34319 14.5893 3.94946 15.0756 3.94946C15.5619 3.94946 15.9556 4.34319 15.9556 4.82946M15.0653 11.673C14.4568 11.6679 14.0697 11.2722 14.0697 10.9064C14.0697 10.4201 13.676 10.0264 13.1897 10.0264C12.7034 10.0264 12.3097 10.4201 12.3097 10.9064C12.3097 12.0369 13.1196 12.9629 14.1959 13.2946V13.6886C14.1959 14.1748 14.5896 14.5686 15.0759 14.5686C15.5621 14.5686 15.9559 14.1748 15.9559 13.6886V13.2958C17.034 12.9649 17.8454 12.0381 17.8454 10.9063C17.8454 9.48501 16.5738 8.38037 15.0777 8.38037C14.4622 8.38037 14.0699 7.98195 14.0699 7.61369C14.0699 7.24844 14.457 6.85327 15.0659 6.84799C15.0692 6.8481 15.0726 6.84817 15.0761 6.84817C15.0814 6.84817 15.0865 6.84803 15.0913 6.84778C15.6993 6.8537 16.0856 7.24866 16.0856 7.6137C16.0856 8.09996 16.4793 8.4937 16.9656 8.4937C17.4519 8.4937 17.8456 8.09996 17.8456 7.6137C17.8456 6.48231 17.034 5.5555 15.9559 5.22466L15.9556 4.82946" fill="#F12A23"/>
<path d="M22.6669 6.49154H25.4287C25.7493 6.49154 26.0087 6.23213 26.0087 5.91154C26.0087 5.59096 25.7493 5.33154 25.4287 5.33154H22.6669C22.3463 5.33154 22.0869 5.59096 22.0869 5.91154C22.0869 6.23213 22.3463 6.49154 22.6669 6.49154Z" fill="#F12A23"/>
<path fill-rule="evenodd" clip-rule="evenodd" d="M25.4287 6.79174H22.6669C22.1806 6.79174 21.7869 6.39801 21.7869 5.91174C21.7869 5.42547 22.1806 5.03174 22.6669 5.03174H25.4287C25.9149 5.03174 26.3087 5.42547 26.3087 5.91174C26.3087 6.39801 25.9149 6.79174 25.4287 6.79174ZM25.4287 6.49174H22.6669C22.3463 6.49174 22.0869 6.23232 22.0869 5.91174C22.0869 5.59115 22.3463 5.33174 22.6669 5.33174H25.4287C25.7492 5.33174 26.0087 5.59115 26.0087 5.91174C26.0087 6.23232 25.7492 6.49174 25.4287 6.49174Z" fill="#F12A23"/>
<path d="M22.6669 9.83944H25.4287C25.7493 9.83944 26.0087 9.58003 26.0087 9.25944C26.0087 8.93886 25.7493 8.67944 25.4287 8.67944H22.6669C22.3463 8.67944 22.0869 8.93886 22.0869 9.25944C22.0869 9.58003 22.3463 9.83944 22.6669 9.83944Z" fill="#F12A23"/>
<path fill-rule="evenodd" clip-rule="evenodd" d="M25.4287 10.1394H22.6669C22.1806 10.1394 21.7869 9.74566 21.7869 9.25939C21.7869 8.77313 22.1806 8.37939 22.6669 8.37939H25.4287C25.9149 8.37939 26.3087 8.77313 26.3087 9.25939C26.3087 9.74566 25.9149 10.1394 25.4287 10.1394ZM25.4287 9.83939H22.6669C22.3463 9.83939 22.0869 9.57998 22.0869 9.25939C22.0869 8.93881 22.3463 8.67939 22.6669 8.67939H25.4287C25.7492 8.67939 26.0087 8.93881 26.0087 9.25939C26.0087 9.57998 25.7492 9.83939 25.4287 9.83939Z" fill="#F12A23"/>
<path d="M22.6669 13.1891H25.4287C25.7493 13.1891 26.0087 12.9296 26.0087 12.6091C26.0087 12.2885 25.7493 12.0291 25.4287 12.0291H22.6669C22.3463 12.0291 22.0869 12.2885 22.0869 12.6091C22.0869 12.9299 22.3463 13.1891 22.6669 13.1891Z" fill="#F12A23"/>
<path fill-rule="evenodd" clip-rule="evenodd" d="M25.4287 13.489H22.6669C22.1807 13.489 21.7869 13.0956 21.7869 12.609C21.7869 12.1227 22.1806 11.729 22.6669 11.729H25.4287C25.9149 11.729 26.3087 12.1227 26.3087 12.609C26.3087 13.0953 25.9149 13.489 25.4287 13.489ZM25.4287 13.189H22.6669C22.3463 13.189 22.0869 12.9298 22.0869 12.609C22.0869 12.2884 22.3463 12.029 22.6669 12.029H25.4287C25.7492 12.029 26.0087 12.2884 26.0087 12.609C26.0087 12.9296 25.7492 13.189 25.4287 13.189Z" fill="#F12A23"/>
<path d="M4.17108 6.49154H6.93287C7.25345 6.49154 7.51287 6.23213 7.51287 5.91154C7.51287 5.59096 7.25345 5.33154 6.93287 5.33154H4.17108C3.8505 5.33154 3.59108 5.59096 3.59108 5.91154C3.59108 6.23213 3.8505 6.49154 4.17108 6.49154Z" fill="#F12A23"/>
<path fill-rule="evenodd" clip-rule="evenodd" d="M6.93287 6.79174H4.17108C3.68482 6.79174 3.29108 6.39801 3.29108 5.91174C3.29108 5.42547 3.68482 5.03174 4.17108 5.03174H6.93287C7.41914 5.03174 7.81287 5.42547 7.81287 5.91174C7.81287 6.39801 7.41914 6.79174 6.93287 6.79174ZM6.93287 6.49174H4.17108C3.8505 6.49174 3.59108 6.23232 3.59108 5.91174C3.59108 5.59115 3.8505 5.33174 4.17108 5.33174H6.93287C7.25345 5.33174 7.51287 5.59115 7.51287 5.91174C7.51287 6.23232 7.25345 6.49174 6.93287 6.49174Z" fill="#F12A23"/>
<path d="M4.17108 9.83944H6.93287C7.25345 9.83944 7.51287 9.58003 7.51287 9.25944C7.51287 8.93886 7.25345 8.67944 6.93287 8.67944H4.17108C3.8505 8.67944 3.59108 8.93886 3.59108 9.25944C3.59108 9.58003 3.8505 9.83944 4.17108 9.83944Z" fill="#F12A23"/>
<path fill-rule="evenodd" clip-rule="evenodd" d="M6.93287 10.1394H4.17108C3.68482 10.1394 3.29108 9.74566 3.29108 9.25939C3.29108 8.77313 3.68482 8.37939 4.17108 8.37939H6.93287C7.41914 8.37939 7.81287 8.77313 7.81287 9.25939C7.81287 9.74566 7.41914 10.1394 6.93287 10.1394ZM6.93287 9.83939H4.17108C3.8505 9.83939 3.59108 9.57998 3.59108 9.25939C3.59108 8.93881 3.8505 8.67939 4.17108 8.67939H6.93287C7.25345 8.67939 7.51287 8.93881 7.51287 9.25939C7.51287 9.57998 7.25345 9.83939 6.93287 9.83939Z" fill="#F12A23"/>
<path d="M4.17108 13.1891H6.93287C7.25345 13.1891 7.51287 12.9296 7.51287 12.6091C7.51287 12.2885 7.25345 12.0291 6.93287 12.0291H4.17108C3.8505 12.0291 3.59108 12.2885 3.59108 12.6091C3.59108 12.9299 3.8505 13.1891 4.17108 13.1891Z" fill="#F12A23"/>
<path fill-rule="evenodd" clip-rule="evenodd" d="M6.93287 13.489H4.17108C3.68489 13.489 3.29108 13.0956 3.29108 12.609C3.29108 12.1227 3.68482 11.729 4.17108 11.729H6.93287C7.41914 11.729 7.81287 12.1227 7.81287 12.609C7.81287 13.0953 7.41914 13.489 6.93287 13.489ZM6.93287 13.189H4.17108C3.8505 13.189 3.59108 12.9298 3.59108 12.609C3.59108 12.2884 3.8505 12.029 4.17108 12.029H6.93287C7.25345 12.029 7.51287 12.2884 7.51287 12.609C7.51287 12.9296 7.25345 13.189 6.93287 13.189Z" fill="#F12A23"/>
<path d="M0.879999 21.0225H28.72C29.0406 21.0225 29.3 20.7631 29.3 20.4425C29.3 20.122 29.0406 19.8625 28.72 19.8625H0.879999C0.559416 19.8625 0.299999 20.122 0.299999 20.4425C0.299999 20.7631 0.559416 21.0225 0.879999 21.0225Z" fill="#F12A23"/>
<path fill-rule="evenodd" clip-rule="evenodd" d="M28.72 21.3225H0.88C0.393731 21.3225 0 20.9288 0 20.4425C0 19.9562 0.393731 19.5625 0.88 19.5625H28.72C29.2063 19.5625 29.6 19.9562 29.6 20.4425C29.6 20.9288 29.2063 21.3225 28.72 21.3225ZM28.72 21.0225H0.88C0.559417 21.0225 0.3 20.7631 0.3 20.4425C0.3 20.1219 0.559417 19.8625 0.88 19.8625H28.72C29.0406 19.8625 29.3 20.1219 29.3 20.4425C29.3 20.7631 29.0406 21.0225 28.72 21.0225Z" fill="#F12A23"/>
<path d="M0.879999 24.016H28.72C29.0406 24.016 29.3 23.7565 29.3 23.436C29.3 23.1154 29.0406 22.856 28.72 22.856H0.879999C0.559416 22.856 0.299999 23.1154 0.299999 23.436C0.299999 23.7565 0.559416 24.016 0.879999 24.016Z" fill="#F12A23"/>
<path fill-rule="evenodd" clip-rule="evenodd" d="M28.72 24.3159H0.88C0.393731 24.3159 0 23.9222 0 23.4359C0 22.9496 0.393731 22.5559 0.88 22.5559H28.72C29.2063 22.5559 29.6 22.9496 29.6 23.4359C29.6 23.9222 29.2063 24.3159 28.72 24.3159ZM28.72 24.0159H0.88C0.559417 24.0159 0.3 23.7565 0.3 23.4359C0.3 23.1153 0.559417 22.8559 0.88 22.8559H28.72C29.0406 22.8559 29.3 23.1153 29.3 23.4359C29.3 23.7565 29.0406 24.0159 28.72 24.0159Z" fill="#F12A23"/>
<path d="M0.879999 27.0094H28.72C29.0406 27.0094 29.3 26.7499 29.3 26.4294C29.3 26.1088 29.0406 25.8494 28.72 25.8494H0.879999C0.559416 25.8494 0.299999 26.1088 0.299999 26.4294C0.299999 26.7502 0.559416 27.0094 0.879999 27.0094Z" fill="#F12A23"/>
<path fill-rule="evenodd" clip-rule="evenodd" d="M28.72 27.3093H0.88C0.393807 27.3093 0 26.9159 0 26.4293C0 25.943 0.393731 25.5493 0.88 25.5493H28.72C29.2063 25.5493 29.6 25.943 29.6 26.4293C29.6 26.9156 29.2063 27.3093 28.72 27.3093ZM28.72 27.0093H0.88C0.559417 27.0093 0.3 26.7501 0.3 26.4293C0.3 26.1087 0.559417 25.8493 0.88 25.8493H28.72C29.0406 25.8493 29.3 26.1087 29.3 26.4293C29.3 26.7499 29.0406 27.0093 28.72 27.0093Z" fill="#F12A23"/>
<path d="M0.879999 30.0001H28.72C29.0406 30.0001 29.3 29.7407 29.3 29.4201C29.3 29.0995 29.0406 28.8401 28.72 28.8401H0.879999C0.559416 28.8401 0.299999 29.0995 0.299999 29.4201C0.299999 29.7407 0.559416 30.0001 0.879999 30.0001Z" fill="#F12A23"/>
<path fill-rule="evenodd" clip-rule="evenodd" d="M28.72 30.3H0.88C0.393731 30.3 0 29.9063 0 29.42C0 28.9338 0.393731 28.54 0.88 28.54H28.72C29.2063 28.54 29.6 28.9338 29.6 29.42C29.6 29.9063 29.2063 30.3 28.72 30.3ZM28.72 30H0.88C0.559417 30 0.3 29.7406 0.3 29.42C0.3 29.0995 0.559417 28.84 0.88 28.84H28.72C29.0406 28.84 29.3 29.0995 29.3 29.42C29.3 29.7406 29.0406 30 28.72 30Z" fill="#F12A23"/>
</svg>
