<svg width="32" height="28" viewBox="0 0 32 28" fill="none" xmlns="http://www.w3.org/2000/svg">
<path d="M24.3333 26.3332C24.3333 23.5718 20.6024 21.3333 16 21.3333C11.3976 21.3333 7.66667 23.5718 7.66667 26.3332M31 21.3331C31 19.2827 28.9432 17.5207 26 16.7491M1 21.3331C1 19.2827 3.05683 17.5207 6 16.7491M26 10.0601C27.0229 9.14456 27.6667 7.81408 27.6667 6.33325C27.6667 3.57183 25.4281 1.33325 22.6667 1.33325C21.3861 1.33325 20.2179 1.81467 19.3333 2.60641M6 10.0601C4.97708 9.14456 4.33333 7.81408 4.33333 6.33325C4.33333 3.57183 6.57191 1.33325 9.33333 1.33325C10.6139 1.33325 11.7821 1.81467 12.6667 2.60641M16 16.3333C13.2386 16.3333 11 14.0947 11 11.3333C11 8.57183 13.2386 6.33325 16 6.33325C18.7614 6.33325 21 8.57183 21 11.3333C21 14.0947 18.7614 16.3333 16 16.3333Z" stroke="#F12A23" stroke-width="2" stroke-linecap="round" stroke-linejoin="round"/>
</svg>
