<svg width="15" height="14" viewBox="0 0 15 14" fill="none" xmlns="http://www.w3.org/2000/svg">
<path d="M13.0812 5.19212C12.5269 5.88067 11.9537 6.59299 11.3753 7.31948C11.2603 7.46313 11.1971 7.64133 11.196 7.82523C11.1945 8.72783 11.1745 9.62961 11.136 10.5307C11.1091 11.0815 10.5508 11.5211 10.0588 11.3627C9.25226 11.103 8.42805 10.815 7.59144 10.5088V10.5089C7.42341 10.4475 7.23906 10.4475 7.07103 10.5089C6.23327 10.8151 5.40908 11.1031 4.60372 11.3628C4.112 11.5214 3.55337 11.0819 3.52643 10.5308C3.48821 9.6295 3.46823 8.72772 3.46648 7.82533L3.46638 7.82523C3.46444 7.64141 3.4005 7.46354 3.28482 7.3206C2.7064 6.59425 2.13324 5.88067 1.57891 5.19212C1.23749 4.77119 1.47388 4.15037 2.02186 3.97627C2.91381 3.69624 3.80319 3.41171 4.6869 3.13136H4.687C4.86518 3.07439 5.0196 2.96014 5.12615 2.80623C5.66008 2.03736 6.18768 1.26355 6.6958 0.494443C7.00789 0.0210581 7.6523 0.0210581 7.96449 0.494443C8.47201 1.26363 8.9999 2.03733 9.53382 2.80623C9.64059 2.96013 9.79521 3.07439 9.97361 3.13136C10.8569 3.41171 11.7463 3.69624 12.6384 3.97627C13.1865 4.15128 13.4228 4.77211 13.0814 5.19212H13.0812Z" fill="#F0AE03"/>
<path d="M0.600296 9.11058C0.408178 9.11058 0.227637 9.01856 0.114714 8.86313C0.00179925 8.70769 -0.0299636 8.50767 0.02926 8.32487C0.0885859 8.14208 0.231729 7.99872 0.414431 7.9392L1.20851 7.68099C1.36067 7.62915 1.52727 7.64052 1.67104 7.71255C1.81469 7.78469 1.92351 7.91133 1.973 8.0642C2.0226 8.21718 2.00866 8.38359 1.93448 8.5261C1.86029 8.66873 1.73201 8.77559 1.57842 8.82282L0.784341 9.08103H0.784239C0.724913 9.10049 0.662819 9.11043 0.600317 9.11054L0.600296 9.11058Z" fill="#F0AE03"/>
<path d="M14.057 9.11043C13.9941 9.11074 13.9315 9.101 13.8717 9.08174L13.0781 8.82353C12.8759 8.75611 12.7247 8.58632 12.6808 8.37771C12.637 8.1692 12.7071 7.95291 12.8649 7.80977C13.0228 7.66652 13.2448 7.61775 13.4482 7.68169L14.2417 7.9399C14.4242 7.99943 14.5674 8.14267 14.6267 8.32525C14.6861 8.50784 14.6546 8.70775 14.5419 8.86329C14.4292 9.01873 14.2489 9.11095 14.057 9.11136L14.057 9.11043Z" fill="#F0AE03"/>
<path d="M3.65806 1.87347C3.46512 1.87429 3.28367 1.78207 3.17033 1.62592L2.6826 0.953156C2.55667 0.779378 2.5331 0.551591 2.62061 0.355701C2.70811 0.159687 2.89356 0.0253516 3.107 0.00321293C3.32054 -0.0189192 3.52955 0.0744239 3.65549 0.248202L4.14322 0.920966C4.23021 1.04095 4.26976 1.18891 4.25419 1.33625C4.23861 1.48369 4.16914 1.62007 4.05899 1.71927C3.94895 1.81845 3.80601 1.87338 3.65774 1.87348L3.65806 1.87347Z" fill="#F0AE03"/>
<path d="M10.9985 1.87297C10.8502 1.87297 10.7072 1.81805 10.597 1.71887C10.4868 1.61969 10.4172 1.4832 10.4017 1.33577C10.3862 1.18833 10.4259 1.04036 10.513 0.920486L11.0007 0.248326V0.248223C11.0942 0.119425 11.2351 0.0329482 11.3922 0.00794513C11.5494 -0.0170558 11.7102 0.0213678 11.8391 0.114814C11.9679 0.208363 12.0544 0.349148 12.0794 0.506438C12.1044 0.663617 12.0659 0.824275 11.9725 0.953172L11.4848 1.62533C11.3717 1.78118 11.1909 1.87329 10.9985 1.87299L10.9985 1.87297Z" fill="#F0AE03"/>
<path d="M7.32875 14C7.16922 14 7.01614 13.9365 6.90353 13.8234C6.79092 13.7104 6.72791 13.5571 6.72852 13.3975V12.608C6.72852 12.3936 6.84297 12.1954 7.02863 12.0883C7.21439 11.981 7.4431 11.981 7.62886 12.0883C7.81452 12.1954 7.92897 12.3936 7.92897 12.608V13.3975C7.92958 13.5571 7.86657 13.7104 7.75396 13.8234C7.64135 13.9365 7.48827 14 7.32873 14H7.32875Z" fill="#F0AE03"/>
</svg>
