<svg width="23" height="30" viewBox="0 0 23 30" fill="none" xmlns="http://www.w3.org/2000/svg">
<path d="M22.7827 8.88262C21.9611 6.9503 20.1908 6.81145 18.6403 6.70731H18.27C19.203 6.28686 20.0294 5.66206 20.6883 4.87912C20.9921 4.54999 21.3167 4.24079 21.6603 3.95346C21.7272 3.91051 21.7843 3.85398 21.828 3.78752C21.8716 3.72107 21.9008 3.64618 21.9136 3.56771C21.9264 3.48925 21.9226 3.40897 21.9024 3.33208C21.8821 3.25519 21.846 3.18342 21.7962 3.12141C21.7464 3.05941 21.6842 3.00857 21.6135 2.97219C21.5428 2.9358 21.4653 2.9147 21.3859 2.91023C21.3065 2.90577 21.2271 2.91805 21.1528 2.94627C21.0784 2.9745 21.0109 3.01804 20.9545 3.07407C20.5713 3.38669 20.2117 3.72701 19.8784 4.09231C19.4357 4.68304 18.8581 5.15931 18.1939 5.48136C17.5296 5.80342 16.798 5.96192 16.06 5.94364C15.9137 5.66862 15.6932 5.44013 15.4236 5.2841L16.5807 2.72695C16.7055 2.45375 16.7391 2.14765 16.6766 1.85387C16.6141 1.56009 16.4588 1.2942 16.2336 1.09547C15.9603 0.859326 15.6112 0.729385 15.2501 0.729385C14.8889 0.729385 14.5398 0.859326 14.2665 1.09547C14.2263 1.12657 14.1796 1.14844 14.13 1.15951C14.0803 1.17059 14.0288 1.17061 13.9791 1.15957C13.9294 1.14853 13.8828 1.1267 13.8425 1.09563C13.8022 1.06455 13.7692 1.025 13.7459 0.979759C13.6283 0.768062 13.462 0.587362 13.2608 0.452569C13.0596 0.317775 12.8293 0.232752 12.5888 0.204515C12.3272 0.195908 12.0673 0.24904 11.8301 0.359604C11.5929 0.470168 11.385 0.635057 11.2234 0.840909C11.1378 0.953408 11.0146 1.03142 10.8763 1.06075C10.7148 1.04232 10.5661 0.963848 10.4597 0.840909C10.3017 0.636875 10.0979 0.472935 9.86467 0.362371C9.63148 0.251807 9.37552 0.197727 9.11753 0.204515C8.8773 0.233657 8.64732 0.319046 8.44627 0.453746C8.24523 0.588447 8.07878 0.768662 7.96045 0.979759C7.93471 1.03452 7.89594 1.08215 7.84752 1.11845C7.79911 1.15476 7.74254 1.17865 7.68275 1.18803C7.59937 1.18417 7.51893 1.15602 7.45134 1.10704C7.17916 0.868622 6.82965 0.737189 6.46782 0.737189C6.10599 0.737189 5.75648 0.868622 5.4843 1.10704C5.26797 1.30696 5.12021 1.57002 5.06204 1.85878C5.00388 2.14754 5.03827 2.44729 5.16032 2.71538L6.3174 5.27253C6.10811 5.39432 5.92878 5.56149 5.79262 5.76173C5.65645 5.96198 5.56691 6.1902 5.53058 6.42961C5.489 6.64916 5.49431 6.87503 5.54616 7.09238C5.59801 7.30974 5.69522 7.51368 5.83143 7.69083C3.98104 9.38201 2.47266 11.4128 1.38824 13.6729C0.219956 16.0881 -0.117665 18.8216 0.427859 21.4485C1.58494 26.6554 4.87105 29.0853 10.8416 29.0853H10.9457C13.2766 29.2014 15.5901 28.6301 17.5989 27.4422C19.5125 26.0931 20.8243 24.0507 21.2553 21.7494C21.8823 19.0843 21.5844 16.2852 20.4106 13.8118C19.3365 11.496 17.8146 9.41573 15.9327 7.69083C16.0031 7.57993 16.065 7.4639 16.1179 7.3437C16.903 7.61959 17.7273 7.76803 18.5593 7.78339C20.1908 7.8991 21.209 8.03795 21.7413 9.27603C21.7844 9.3786 21.8568 9.46621 21.9494 9.52793C22.042 9.58966 22.1507 9.62278 22.262 9.62315C22.3343 9.63955 22.4095 9.63955 22.4818 9.62315C22.6196 9.56447 22.7286 9.45366 22.7849 9.31492C22.8413 9.17617 22.8405 9.02076 22.7827 8.88262ZM7.02322 7.20485C6.89137 7.17704 6.77592 7.09809 6.70218 6.98531C6.62843 6.87253 6.60241 6.73511 6.62981 6.60317C6.6603 6.47133 6.73884 6.35558 6.85011 6.27855C6.96137 6.20153 7.09735 6.16875 7.23149 6.18662C9.6421 6.661 12.1221 6.661 14.5327 6.18662C14.6625 6.16551 14.7956 6.19434 14.9051 6.26732C15.0145 6.34031 15.0923 6.45203 15.1228 6.58003C15.1502 6.71197 15.1242 6.84939 15.0504 6.96217C14.9767 7.07495 14.8612 7.1539 14.7294 7.18171C12.1848 7.67935 9.56783 7.67935 7.02322 7.18171V7.20485ZM6.24797 1.92857C6.46782 1.73186 6.76866 2.00956 6.96536 2.1137C7.26514 2.29557 7.62263 2.35729 7.96604 2.28646C8.30945 2.21563 8.61334 2.0175 8.81669 1.73186C8.92083 1.59301 9.03654 1.35002 9.23324 1.32688C9.42995 1.30374 9.6845 1.62772 9.83492 1.76657C10.1136 2.03798 10.4873 2.18986 10.8763 2.18986C11.2653 2.18986 11.639 2.03798 11.9177 1.76657C12.1144 1.58144 12.4384 1.10704 12.7276 1.44259L12.9359 1.73186C13.1413 2.01807 13.4463 2.21712 13.791 2.28991C14.1357 2.36271 14.4952 2.30398 14.7988 2.12527C14.9608 2.02113 15.1922 1.80129 15.4121 1.87071C15.4481 1.8847 15.481 1.90578 15.5087 1.93269C15.5365 1.95961 15.5586 1.99182 15.5737 2.02741C15.5888 2.06301 15.5966 2.10128 15.5967 2.13995C15.5967 2.17861 15.589 2.2169 15.574 2.25255L14.2781 5.11054C12.0354 5.55009 9.72874 5.55009 7.48605 5.11054L6.17855 2.25255C6.15554 2.19794 6.14986 2.13758 6.16228 2.07963C6.1747 2.02169 6.20461 1.96895 6.24797 1.92857ZM20.1329 21.4832C18.9759 25.9958 16.2683 27.9282 10.8763 27.9513H10.8532C5.41488 27.9513 2.54532 25.857 1.52709 21.2287C0.589851 16.9012 2.52217 12.215 6.80337 8.31565C8.14061 8.58219 9.5012 8.71399 10.8647 8.70906C12.2206 8.71353 13.5734 8.58173 14.9029 8.31565C19.3114 12.3076 21.209 17.0979 20.1329 21.4832ZM13.8384 20.3261C13.8128 20.9827 13.558 21.6095 13.1183 22.0977C12.6787 22.586 12.0819 22.9049 11.4317 22.999V23.728C11.4348 23.8019 11.4231 23.8756 11.3973 23.9449C11.3715 24.0143 11.3321 24.0777 11.2815 24.1316C11.2308 24.1855 11.1699 24.2287 11.1023 24.2588C11.0347 24.2888 10.9618 24.305 10.8879 24.3065C10.7414 24.3066 10.6006 24.2501 10.4949 24.1487C10.3892 24.0473 10.3269 23.909 10.3209 23.7627V23.0106C9.60454 22.8645 8.95259 22.496 8.458 21.9576C8.40446 21.9058 8.36189 21.8438 8.33281 21.7752C8.30373 21.7067 8.28875 21.6329 8.28875 21.5584C8.28875 21.484 8.30373 21.4102 8.33281 21.3416C8.36189 21.2731 8.40446 21.211 8.458 21.1592C8.56559 21.0567 8.70854 20.9995 8.85719 20.9995C9.00584 20.9995 9.14879 21.0567 9.25638 21.1592C9.45332 21.4057 9.70337 21.6044 9.98788 21.7407C10.2724 21.8769 10.584 21.9471 10.8994 21.9461C11.3598 21.9751 11.8134 21.8232 12.1635 21.5228C12.5136 21.2224 12.7326 20.7972 12.7739 20.3377C12.7355 19.8771 12.5173 19.4501 12.1665 19.1491C11.8157 18.8482 11.3605 18.6974 10.8994 18.7294C10.139 18.7608 9.397 18.49 8.83551 17.9762C8.27401 17.4624 7.93863 16.7473 7.9026 15.9871C7.9189 15.3296 8.16516 14.6987 8.59854 14.204C9.03192 13.7093 9.625 13.3822 10.2746 13.2795V12.458C10.2746 12.3046 10.3356 12.1574 10.4441 12.0489C10.5526 11.9404 10.6997 11.8795 10.8532 11.8795C11.0066 11.8795 11.1537 11.9404 11.2622 12.0489C11.3707 12.1574 11.4317 12.3046 11.4317 12.458V13.2911C12.0033 13.3908 12.536 13.6472 12.9706 14.0316C13.0381 14.0769 13.095 14.1362 13.1376 14.2055C13.1801 14.2747 13.2073 14.3523 13.2172 14.433C13.2272 14.5137 13.2197 14.5956 13.1952 14.6731C13.1707 14.7506 13.1298 14.8219 13.0754 14.8822C13.0209 14.9426 12.9541 14.9905 12.8795 15.0227C12.8049 15.055 12.7242 15.0708 12.6429 15.0692C12.5617 15.0675 12.4817 15.0484 12.4085 15.0131C12.3353 14.9778 12.2705 14.9272 12.2185 14.8647C11.8455 14.5442 11.368 14.3714 10.8763 14.3788C10.4164 14.3469 9.96255 14.498 9.61361 14.7993C9.26467 15.1005 9.04893 15.5275 9.0134 15.9871C9.04893 16.4467 9.26467 16.8737 9.61361 17.1749C9.96255 17.4762 10.4164 17.6273 10.8763 17.5954C11.6367 17.564 12.3787 17.8348 12.9402 18.3486C13.5017 18.8624 13.8371 19.5775 13.8731 20.3377L13.8384 20.3261Z" fill="#F12D26"/>
<path fill-rule="evenodd" clip-rule="evenodd" d="M11.7568 0.202269C12.0187 0.0801875 12.3057 0.0215215 12.5945 0.0310245L12.6091 0.0315049C12.8769 0.0629512 13.1334 0.158246 13.3574 0.308357C13.5815 0.458468 13.7666 0.659702 13.8976 0.895455L13.9002 0.900175C13.9119 0.922794 13.9283 0.94261 13.9484 0.958147C13.9686 0.973683 13.9919 0.984598 14.0168 0.990119C14.0416 0.995639 14.0673 0.995629 14.0922 0.99009C14.1158 0.98483 14.138 0.974705 14.1574 0.960378C14.4616 0.699361 14.8491 0.555801 15.2501 0.555801C15.6529 0.555801 16.0423 0.700735 16.3471 0.964123L16.3484 0.965301C16.6016 1.18867 16.7761 1.48753 16.8464 1.81773C16.9166 2.14779 16.8789 2.49168 16.7388 2.79865C16.7387 2.79878 16.7388 2.79852 16.7388 2.79865L15.6437 5.21873C15.8527 5.36493 16.0291 5.55312 16.1617 5.77145C16.8389 5.77343 17.508 5.62098 18.1182 5.32517C18.7575 5.01519 19.3134 4.55678 19.7395 3.9882L19.7445 3.98149L19.7502 3.9753C20.0874 3.60569 20.4512 3.26121 20.8386 2.94461C20.9109 2.87446 20.9969 2.8198 21.0911 2.784C21.1882 2.74713 21.292 2.73109 21.3956 2.73692C21.4993 2.74275 21.6006 2.77032 21.6929 2.81784C21.7853 2.86536 21.8666 2.93177 21.9316 3.01275C21.9966 3.09374 22.0438 3.18748 22.0702 3.28791C22.0966 3.38833 22.1016 3.49319 22.0849 3.59567C22.0682 3.69816 22.03 3.79598 21.973 3.88277C21.9182 3.96631 21.847 4.03784 21.7638 4.0931C21.4299 4.37297 21.1141 4.67387 20.8185 4.99396C20.2904 5.62074 19.6575 6.14855 18.9497 6.55479C19.6394 6.60534 20.3777 6.68536 21.0481 6.94775C21.8263 7.25232 22.5116 7.80148 22.9424 8.81469C23.0179 8.99512 23.0194 9.199 22.9457 9.38022C22.8721 9.56144 22.7298 9.70617 22.5498 9.78281L22.5354 9.78895L22.5202 9.7924C22.4288 9.8131 22.3342 9.81442 22.2424 9.79638C22.1037 9.79237 21.9688 9.74944 21.8531 9.67232C21.7324 9.59184 21.638 9.47766 21.5816 9.34399C21.3339 8.76812 20.9811 8.45761 20.4997 8.27059C20.0041 8.0781 19.3699 8.01492 18.5515 7.95682C17.7546 7.94165 16.9648 7.80706 16.2083 7.55779C16.1909 7.59186 16.1728 7.62556 16.154 7.65889C18.0047 9.38007 19.5038 11.4446 20.5678 13.738C21.7576 16.2457 22.0599 19.0832 21.4252 21.7852C20.9851 24.1293 19.6484 26.2096 17.6989 27.584L17.6876 27.5921C15.6507 28.7965 13.3047 29.3758 10.9414 29.2588H10.8416C7.8346 29.2588 5.47949 28.6471 3.72691 27.3593C1.97186 26.0697 0.84343 24.1186 0.258431 21.4861L0.257924 21.4838C-0.295363 18.8195 0.0470382 16.0471 1.2319 13.5975C2.30397 11.3633 3.78673 9.3511 5.60239 7.66579C5.49865 7.50203 5.42248 7.32192 5.37733 7.13263C5.32006 6.89251 5.31397 6.64302 5.35947 6.40041C5.39999 6.13649 5.49894 5.88494 5.64909 5.66412C5.77024 5.48595 5.92226 5.33144 6.09755 5.20764L5.00236 2.78727C5.00234 2.78724 5.00237 2.7873 5.00236 2.78727C4.86521 2.48598 4.82653 2.14901 4.8919 1.82449C4.95728 1.49993 5.12336 1.20426 5.3665 0.979551L5.3699 0.976413C5.67372 0.710275 6.06392 0.563605 6.46782 0.563605C6.86863 0.563605 7.25589 0.708078 7.55869 0.970354C7.59271 0.99366 7.63184 1.00832 7.67268 1.01315C7.6982 1.00682 7.72226 0.99543 7.74339 0.979583C7.76911 0.960294 7.78971 0.934995 7.80338 0.905901L7.80867 0.894654C7.94034 0.65975 8.12595 0.459426 8.34967 0.309534C8.57339 0.159642 8.8293 0.0646231 9.09663 0.0321937L9.10477 0.0312063L9.11297 0.0309906C9.39821 0.0234865 9.6812 0.0832783 9.93902 0.205522C10.1953 0.327024 10.4195 0.506826 10.5938 0.730509C10.6651 0.811507 10.7618 0.865572 10.8676 0.884181C10.9541 0.859639 11.0306 0.807685 11.0853 0.735762L11.0869 0.73371C11.2654 0.506415 11.4948 0.324351 11.7568 0.202269ZM18.6345 6.88085H17.4625L18.1987 6.54905C19.1079 6.13929 19.9134 5.53038 20.5555 4.76734L20.5607 4.76127C20.8695 4.42665 21.1997 4.11242 21.5489 3.8203L21.5573 3.81328L21.5665 3.80737C21.613 3.77757 21.6526 3.73834 21.6829 3.69223C21.7132 3.64612 21.7334 3.59415 21.7423 3.53971C21.7512 3.48527 21.7486 3.42956 21.7345 3.37621C21.7205 3.32286 21.6954 3.27305 21.6609 3.23003C21.6263 3.18701 21.5831 3.15173 21.5341 3.12649C21.485 3.10124 21.4312 3.0866 21.3761 3.0835C21.3211 3.0804 21.2659 3.08892 21.2144 3.10851C21.1628 3.12809 21.1159 3.15831 21.0768 3.19719L21.0708 3.20317L21.0642 3.20853C20.6898 3.51403 20.3382 3.84646 20.0122 4.20316C19.5535 4.8129 18.9562 5.30462 18.2696 5.63752C17.5804 5.97165 16.8214 6.13609 16.0557 6.11712L15.9544 6.11461L15.9068 6.02513C15.7757 5.77877 15.5782 5.57408 15.3367 5.4343L15.2007 5.35562L16.4226 2.65538C16.5319 2.41604 16.5616 2.14733 16.5069 1.88997C16.4522 1.6329 16.3163 1.4002 16.1194 1.22617C15.8778 1.01765 15.5692 0.902925 15.2501 0.902925C14.9306 0.902925 14.6218 1.01787 14.38 1.22677L14.3728 1.23303C14.3124 1.27969 14.2422 1.31228 14.1677 1.32889C14.0932 1.34551 14.016 1.34554 13.9414 1.32898C13.8669 1.31242 13.797 1.27967 13.7365 1.23306C13.6768 1.18707 13.6279 1.1287 13.593 1.06198C13.4888 0.875218 13.3419 0.71578 13.1642 0.596737C12.9879 0.478611 12.7863 0.403608 12.5758 0.377738C12.3439 0.371246 12.1137 0.418878 11.9034 0.516895C11.6912 0.615779 11.5053 0.763168 11.3607 0.947154C11.2499 1.09213 11.0908 1.19266 10.9123 1.23052L10.8847 1.23638L10.8566 1.23317C10.6518 1.2098 10.4633 1.11031 10.3285 0.954443L10.3223 0.947321C10.181 0.76484 9.99887 0.618061 9.79031 0.519176C9.58423 0.421465 9.35826 0.37308 9.13031 0.377802C8.92011 0.40458 8.71899 0.479925 8.54288 0.597915C8.36601 0.716416 8.21933 0.87462 8.11452 1.05987C8.07672 1.13766 8.0209 1.20535 7.95166 1.25728C7.88056 1.31061 7.79747 1.3457 7.70966 1.35948L7.69229 1.3622L7.67473 1.36139C7.55754 1.35596 7.44449 1.3164 7.3495 1.24756L7.33649 1.23813C7.09596 1.02744 6.78758 0.910729 6.46782 0.910729C6.14883 0.910729 5.84068 1.02632 5.60041 1.23605C5.41182 1.41099 5.28299 1.64082 5.23219 1.89303C5.18123 2.146 5.21136 2.40859 5.31828 2.64344L6.54012 5.34371L6.4047 5.42252C6.21783 5.53126 6.05772 5.68052 5.93614 5.85931C5.81456 6.03809 5.73462 6.24186 5.70218 6.45563L5.70123 6.46191C5.6642 6.65742 5.66882 6.85853 5.71499 7.05209C5.76116 7.24565 5.84773 7.42726 5.96902 7.58501L6.06618 7.71138L5.94852 7.81892C4.11453 9.49511 2.61953 11.5079 1.54472 13.748C0.393271 16.1284 0.0601511 18.823 0.597554 21.412C1.16971 23.9858 2.2628 25.8527 3.93245 27.0796C5.60483 28.3084 7.87803 28.9117 10.8416 28.9117H10.9544C13.2489 29.026 15.5265 28.4645 17.5046 27.2963C19.3781 25.9732 20.6624 23.972 21.0847 21.7174L21.0862 21.7095C21.7041 19.0828 21.4107 16.3241 20.2538 13.8862L20.2532 13.8848C19.1887 11.5898 17.6804 9.52818 15.8155 7.81875L15.7083 7.72056L15.7862 7.59784C15.8518 7.49431 15.9096 7.38597 15.959 7.27376L16.0238 7.12665L16.1754 7.17993C16.9431 7.44968 17.749 7.59482 18.5625 7.60984L18.5716 7.61001C19.3826 7.66752 20.0718 7.73199 20.6254 7.94702C21.1938 8.1678 21.6162 8.54562 21.9007 9.20746L21.9013 9.20871C21.9312 9.27988 21.9814 9.34067 22.0457 9.3835C22.1099 9.42633 22.1854 9.44931 22.2626 9.44957L22.2817 9.44963L22.3003 9.45386C22.3424 9.46339 22.3859 9.46441 22.4283 9.45691C22.5171 9.4148 22.587 9.34091 22.6241 9.24957C22.6632 9.15347 22.6627 9.04585 22.6228 8.95012C22.232 8.03125 21.6215 7.54493 20.9216 7.271C20.2132 6.99373 19.4121 6.93311 18.6345 6.88085ZM12.0377 1.89193C11.7267 2.19425 11.3101 2.3634 10.8763 2.3634C10.4428 2.3634 10.0264 2.19445 9.71546 1.89247C9.67998 1.85958 9.63989 1.81816 9.60099 1.77798C9.59414 1.7709 9.58733 1.76386 9.58058 1.75691C9.53268 1.70757 9.48437 1.65871 9.43591 1.61549C9.38679 1.57168 9.34323 1.5389 9.30619 1.51876C9.27071 1.49947 9.25493 1.49927 9.25356 1.49925C9.25343 1.49925 9.25346 1.49926 9.25356 1.49925C9.22368 1.50276 9.18267 1.52515 9.12437 1.59613C9.09685 1.62963 9.07044 1.66773 9.04228 1.7098C9.03753 1.71688 9.03264 1.72423 9.02764 1.73174C9.00533 1.76527 8.98079 1.80216 8.95687 1.83421C8.7281 2.15464 8.38675 2.37688 8.0011 2.45642C7.61638 2.53577 7.21594 2.46725 6.87956 2.26462C6.83406 2.24017 6.78406 2.20818 6.73864 2.17911C6.72823 2.17246 6.71807 2.16595 6.70826 2.15973C6.64958 2.12252 6.59536 2.08986 6.54353 2.0663C6.43801 2.01834 6.39603 2.02969 6.36504 2.05671C6.34836 2.07271 6.33684 2.09335 6.33199 2.11598C6.32717 2.13849 6.32917 2.16192 6.33773 2.18326L7.60671 4.95707C9.77067 5.36977 11.9931 5.3698 14.1571 4.95714L15.4148 2.18351C15.4203 2.16974 15.4231 2.15504 15.4231 2.14019C15.4231 2.12472 15.42 2.10942 15.4139 2.09518C15.4079 2.08094 15.399 2.06805 15.3879 2.05729C15.3782 2.04784 15.3669 2.04019 15.3545 2.03468C15.3152 2.02451 15.2582 2.03393 15.1687 2.08421C15.1245 2.10907 15.0797 2.13963 15.0328 2.17308C15.0229 2.18014 15.0126 2.18755 15.0021 2.19512C14.9662 2.22099 14.9276 2.24877 14.8927 2.27124L14.8869 2.27494C14.546 2.47562 14.1423 2.54145 13.7552 2.45971C13.3681 2.37797 13.0256 2.15444 12.7949 1.83304L12.5916 1.55074C12.5477 1.50171 12.52 1.49913 12.5071 1.49916C12.4844 1.49921 12.4459 1.51037 12.3879 1.55122C12.3313 1.59101 12.2729 1.64705 12.2118 1.71074C12.1945 1.72878 12.1761 1.7485 12.1573 1.76862C12.1165 1.81221 12.074 1.85766 12.0377 1.89193ZM12.5063 1.15203C12.6413 1.1517 12.761 1.21547 12.8591 1.32924L12.869 1.34077L13.0768 1.63043C13.2569 1.88144 13.5246 2.05623 13.8269 2.12007C14.1281 2.18368 14.4421 2.13279 14.7078 1.97742C14.7335 1.96075 14.7607 1.94117 14.7934 1.91763C14.8052 1.90911 14.8178 1.90008 14.8313 1.89047C14.8802 1.85558 14.9374 1.81599 14.9987 1.78155C15.1163 1.71553 15.2839 1.64822 15.4643 1.70518L15.475 1.70855C15.5327 1.73093 15.5851 1.76499 15.6296 1.80805C15.674 1.85112 15.7093 1.90265 15.7335 1.95961C15.7576 2.01656 15.7701 2.07779 15.7702 2.13966C15.7703 2.20153 15.758 2.26279 15.734 2.31982L15.7322 2.32423L14.3993 5.26364L14.3115 5.28084C12.0468 5.72471 9.7174 5.72471 7.45267 5.28084L7.36527 5.26371L6.01853 2.31994C5.98172 2.23256 5.9727 2.13595 5.99257 2.04324C6.01244 1.95053 6.0603 1.86616 6.12968 1.80154L6.13222 1.79917C6.32094 1.63032 6.53965 1.68323 6.68717 1.75029C6.76262 1.78458 6.83423 1.82858 6.89416 1.86658C6.90732 1.87493 6.91974 1.88286 6.93152 1.89039C6.97747 1.91974 7.01372 1.94289 7.04657 1.96028L7.05555 1.96503C7.31785 2.12417 7.6305 2.17843 7.93098 2.11645C8.23146 2.05448 8.49737 1.88112 8.6753 1.63118L8.6778 1.62767C8.6957 1.60381 8.71389 1.57659 8.73622 1.54308C8.7418 1.53469 8.74765 1.5259 8.75383 1.51668C8.7828 1.47341 8.81713 1.42329 8.85614 1.37579C8.93091 1.28478 9.04614 1.17411 9.21297 1.15449C9.31254 1.14277 9.40285 1.1762 9.47198 1.21379C9.5427 1.25223 9.60906 1.30478 9.66697 1.35643C9.72554 1.40867 9.78137 1.46539 9.82965 1.51512C9.83727 1.52297 9.84464 1.53058 9.85177 1.53794C9.89191 1.57938 9.92456 1.61309 9.95265 1.63902L9.95606 1.64216C10.2024 1.88202 10.5325 2.01628 10.8763 2.01628C11.2201 2.01628 11.5503 1.88206 11.7966 1.64221L11.7987 1.64015C11.8274 1.61317 11.857 1.58149 11.8927 1.54325C11.9132 1.52129 11.9357 1.49717 11.9612 1.47054C12.0253 1.4037 12.1028 1.3274 12.188 1.26739C12.2717 1.20844 12.3808 1.15234 12.5063 1.15203ZM14.5631 6.35751C12.1332 6.83525 9.63365 6.83543 7.20376 6.35803C7.114 6.34726 7.02333 6.36971 6.9489 6.42123C6.87369 6.47331 6.82043 6.55136 6.79936 6.64034C6.78194 6.72672 6.79919 6.81651 6.84744 6.89031C6.874 6.93093 6.90877 6.96489 6.94902 6.99033L7.05653 7.01135C9.57868 7.5046 12.1725 7.50469 14.6947 7.01163C14.7811 6.9931 14.8568 6.94119 14.9052 6.86717C14.9533 6.79353 14.9706 6.70395 14.9533 6.61774C14.9326 6.53343 14.8811 6.4599 14.8088 6.41171C14.7365 6.36353 14.6488 6.34421 14.5631 6.35751ZM7.19678 7.39137V7.41882L6.9874 7.37466C6.8106 7.33737 6.65579 7.2315 6.55691 7.08027C6.45803 6.92904 6.42313 6.74477 6.45988 6.56786L6.46067 6.56404C6.50088 6.39012 6.60454 6.23744 6.75131 6.13583C6.89809 6.03422 7.07747 5.99098 7.25442 6.01456L7.26507 6.01598C9.65355 6.486 12.1107 6.48633 14.4992 6.0163L14.5048 6.01519C14.678 5.98704 14.8554 6.02558 15.0013 6.12289C15.1473 6.2202 15.251 6.36917 15.2916 6.53983L15.2928 6.5447C15.3295 6.72162 15.2946 6.9059 15.1957 7.05713C15.0968 7.20836 14.942 7.31422 14.7652 7.35152L14.7627 7.35204C12.265 7.84051 9.6982 7.85361 7.19678 7.39137ZM6.75132 8.12828L6.8373 8.14542C8.16316 8.40969 9.51217 8.54036 10.8641 8.53548H10.8653C12.2095 8.53991 13.5508 8.40924 14.8689 8.14544L14.9546 8.12828L15.0194 8.18697C19.458 12.2061 21.3976 17.0576 20.3015 21.5246L20.3011 21.5263C19.7158 23.8087 18.732 25.4619 17.1924 26.5428C15.6563 27.6214 13.5909 28.1132 10.877 28.1248L10.8532 28.1248C8.11414 28.1248 5.99607 27.5978 4.43092 26.4662C2.86256 25.3324 1.87302 23.6088 1.35758 21.2659C0.403069 16.8587 2.37628 12.1131 6.6865 8.18731L6.75132 8.12828ZM6.8558 8.50286C2.64907 12.3637 0.781493 16.9655 1.69666 21.1917C2.19947 23.4769 3.1538 25.1146 4.63429 26.1849C6.11804 27.2576 8.15389 27.7777 10.8532 27.7777L10.8756 27.7777C10.8754 27.7777 10.8757 27.7777 10.8756 27.7777C13.5534 27.7662 15.5382 27.2802 16.993 26.2588C18.4443 25.2397 19.3928 23.6707 19.9646 21.4409C21.015 17.1586 19.1827 12.4552 14.8509 8.50286C13.5379 8.75977 12.2028 8.88697 10.8648 8.8826C9.51917 8.88742 8.17642 8.76022 6.8558 8.50286ZM10.8532 12.053C10.7457 12.053 10.6427 12.0957 10.5668 12.1716C10.4908 12.2476 10.4482 12.3506 10.4482 12.458V13.4278L10.3017 13.4509C9.69219 13.5472 9.13572 13.8542 8.72909 14.3183C8.32383 14.7809 8.09297 15.3705 8.07627 15.9851C8.11167 16.6972 8.42655 17.3667 8.95268 17.8482C9.47977 18.3305 10.1761 18.5849 10.8899 18.556C11.3957 18.5216 11.8948 18.6873 12.2795 19.0174C12.6649 19.3481 12.9047 19.8172 12.9469 20.3233L12.9481 20.3383L12.9468 20.3532C12.9014 20.8577 12.6609 21.3246 12.2765 21.6545C11.8935 21.9831 11.3979 22.1498 10.8943 22.1196C10.5547 22.1199 10.2193 22.0439 9.91292 21.8972C9.60876 21.7515 9.34096 21.5399 9.12898 21.2777C9.0546 21.2104 8.95776 21.173 8.85719 21.173C8.75335 21.173 8.65349 21.2129 8.57822 21.2844C8.54163 21.3199 8.51251 21.3624 8.49261 21.4094C8.47262 21.4565 8.46231 21.5072 8.46231 21.5584C8.46231 21.6096 8.47262 21.6603 8.49261 21.7075C8.5126 21.7546 8.54186 21.7973 8.57867 21.8329L8.58604 21.84C9.0559 22.3515 9.67503 22.7017 10.3556 22.8405L10.4945 22.8688V23.7588C10.4994 23.8591 10.5425 23.9538 10.6151 24.0234C10.688 24.0934 10.785 24.1326 10.886 24.1329C10.9363 24.1317 10.9859 24.1206 11.0318 24.1001C11.0783 24.0795 11.1202 24.0498 11.155 24.0127C11.1898 23.9757 11.2169 23.932 11.2346 23.8844C11.2524 23.8367 11.2604 23.786 11.2583 23.7352L11.258 23.7279L11.2581 22.8487L11.4068 22.8272C12.0169 22.7389 12.5769 22.4397 12.9894 21.9816C13.4019 21.5235 13.6409 20.9353 13.665 20.3193L13.674 20.0884L13.6753 20.0888C13.5866 19.4717 13.2869 18.901 12.8231 18.4766C12.296 17.9943 11.5996 17.7399 10.8858 17.7687C10.3811 17.8031 9.88315 17.6369 9.50019 17.3063C9.11658 16.9751 8.87941 16.5057 8.84035 16.0005L8.83932 15.9871L8.84035 15.9737C8.87941 15.4684 9.11658 14.999 9.50019 14.6679C9.88193 14.3383 10.3779 14.1721 10.881 14.2051C11.4125 14.1989 11.9283 14.3865 12.3316 14.7331L12.3427 14.7426L12.352 14.7538C12.388 14.7971 12.433 14.8323 12.4838 14.8567C12.5346 14.8812 12.5901 14.8945 12.6465 14.8956C12.7029 14.8968 12.7589 14.8858 12.8106 14.8634C12.8624 14.841 12.9087 14.8078 12.9465 14.7659C12.9843 14.7241 13.0127 14.6746 13.0297 14.6208C13.0467 14.567 13.0519 14.5102 13.045 14.4542C13.0381 14.3982 13.0192 14.3444 12.9897 14.2963C12.9602 14.2483 12.9207 14.2071 12.8739 14.1757L12.8643 14.1693L12.8556 14.1616C12.4451 13.7984 11.9418 13.5562 11.4019 13.4621L11.2581 13.437V12.458C11.2581 12.3506 11.2155 12.2476 11.1395 12.1716C11.0636 12.0957 10.9606 12.053 10.8532 12.053ZM13.9942 20.561C13.9229 21.1742 13.6629 21.7523 13.2473 22.2139C12.8143 22.6948 12.2376 23.021 11.6053 23.1454V23.7245C11.6088 23.8202 11.5934 23.9157 11.56 24.0055C11.5261 24.0964 11.4744 24.1797 11.4079 24.2505C11.3414 24.3212 11.2615 24.3779 11.1728 24.4174C11.0841 24.4568 10.9884 24.4781 10.8913 24.48L10.888 24.48C10.6967 24.4802 10.5128 24.4063 10.3748 24.2739C10.2367 24.1415 10.1553 23.9609 10.1475 23.7697L10.1472 23.7627L10.1473 23.1495C9.4515 22.9791 8.82019 22.607 8.33346 22.0786C8.26501 22.0114 8.21048 21.9313 8.17302 21.843C8.13486 21.7529 8.11519 21.6562 8.11519 21.5584C8.11519 21.4607 8.13486 21.3639 8.17302 21.2739C8.21118 21.1839 8.26706 21.1025 8.33733 21.0345L8.33824 21.0336C8.47812 20.9003 8.66395 20.8259 8.85719 20.8259C9.05044 20.8259 9.23627 20.9003 9.37614 21.0336L9.38464 21.0417L9.39197 21.0509C9.57258 21.2769 9.80191 21.4591 10.0628 21.5841C10.3238 21.7091 10.6096 21.7734 10.8989 21.7725L10.9104 21.7724C11.3256 21.7986 11.7347 21.662 12.0505 21.391C12.3624 21.1234 12.559 20.7458 12.5996 20.3371C12.5616 19.9277 12.3658 19.5489 12.0535 19.2808C11.7373 19.0096 11.3271 18.8736 10.9115 18.9025L10.9066 18.9028C10.1004 18.9361 9.31366 18.649 8.71834 18.1043C8.12302 17.5595 7.76743 16.8013 7.72923 15.9953L7.72864 15.9828C7.74594 15.2847 8.00786 14.6148 8.46799 14.0896C8.89534 13.6018 9.46894 13.2674 10.1011 13.135V12.458C10.1011 12.2585 10.1803 12.0672 10.3213 11.9262C10.4624 11.7851 10.6537 11.7059 10.8532 11.7059C11.0526 11.7059 11.2439 11.7851 11.385 11.9262C11.526 12.0672 11.6053 12.2585 11.6053 12.458V13.1485C12.1504 13.2686 12.657 13.5249 13.0774 13.8944C13.1612 13.9526 13.232 14.0276 13.2855 14.1146C13.3411 14.2051 13.3765 14.3064 13.3895 14.4118C13.4025 14.5171 13.3927 14.6241 13.3607 14.7253C13.3287 14.8265 13.2753 14.9197 13.2042 14.9985C13.1331 15.0773 13.0458 15.1399 12.9484 15.182C12.8509 15.2242 12.7455 15.2448 12.6394 15.2427C12.5333 15.2405 12.4288 15.2155 12.3332 15.1695C12.2423 15.1257 12.1614 15.0638 12.0953 14.9878C11.756 14.7004 11.3238 14.5456 10.8789 14.5523L10.8642 14.5525C10.45 14.5238 10.0413 14.6593 9.72703 14.9306C9.41614 15.199 9.22265 15.5782 9.18754 15.9871C9.22265 16.3959 9.41614 16.7751 9.72703 17.0435C10.0413 17.3149 10.4501 17.451 10.8643 17.4223L10.8691 17.4219C11.6754 17.3886 12.4621 17.6758 13.0574 18.2205C13.6527 18.7653 14.0083 19.5234 14.0465 20.3295L14.0585 20.5824L13.9942 20.561Z" fill="#F12D26"/>
</svg>
