<svg width="32" height="30" viewBox="0 0 32 30" fill="none" xmlns="http://www.w3.org/2000/svg">
<path d="M9.33333 8.33329C9.33333 4.65139 12.3181 1.66663 16 1.66663C19.6819 1.66663 22.6667 4.65139 22.6667 8.33329M1 13.6665V22.9999C1 24.8667 0.999645 25.8003 1.36296 26.5133C1.68253 27.1405 2.19315 27.6504 2.82036 27.9699C3.53339 28.3332 4.46617 28.3333 6.33301 28.3333H25.6663C27.5332 28.3333 28.4673 28.3332 29.1803 27.9699C29.8075 27.6504 30.3171 27.1405 30.6367 26.5133C31 25.8003 31 24.8667 31 22.9999V13.6665C31 11.7997 31 10.8664 30.6367 10.1534C30.3171 9.52615 29.8075 9.01618 29.1803 8.6966C28.4673 8.33329 27.5332 8.33329 25.6663 8.33329H6.33301C4.46617 8.33329 3.53339 8.33329 2.82036 8.6966C2.19315 9.01618 1.68253 9.52615 1.36296 10.1534C0.999645 10.8664 1 11.7997 1 13.6665Z" stroke="#F12A23" stroke-width="2" stroke-linecap="round" stroke-linejoin="round"/>
</svg>
