<svg width="60" height="57" viewBox="0 0 60 57" fill="none" xmlns="http://www.w3.org/2000/svg">
<path fill-rule="evenodd" clip-rule="evenodd" d="M52.0909 20.0519C47.7052 20.0519 44.1809 23.5761 44.1809 27.9619C44.1809 32.3477 47.7051 35.8718 52.0909 35.8718C56.4767 35.8718 60.0008 32.3477 60.0008 27.9619C60.0014 23.5762 56.4772 20.0519 52.0909 20.0519ZM45.6691 36.9685C41.2834 36.9685 37.7591 40.4927 37.7591 44.8785C37.7591 49.2643 41.2833 52.7885 45.6691 52.7885C50.0549 52.7885 53.5791 49.2643 53.5791 44.8785C53.5791 40.4927 50.0549 36.9685 45.6691 36.9685ZM28.5958 47.8547C26.3249 47.8547 24.445 49.7345 24.445 52.0056C24.445 54.2766 26.3247 56.1564 28.5958 56.1564C30.8668 56.1564 32.7467 54.2766 32.7467 52.0056C32.7467 49.7341 30.8673 47.8547 28.5958 47.8547ZM11.9141 39.9443C9.64319 39.9443 7.76329 41.8241 7.76329 44.0952C7.76329 46.3663 9.64305 48.246 11.9141 48.246C14.1852 48.246 16.065 46.3663 16.065 44.0952C15.9863 41.8243 14.1852 39.9443 11.9141 39.9443ZM9.25091 27.9617C9.25091 25.6908 7.37114 23.8109 5.10006 23.8109C2.82913 23.8109 0.949219 25.6906 0.949219 27.9617C0.949219 30.2327 2.82899 32.1126 5.10006 32.1126C7.37156 32.0344 9.25091 30.2332 9.25091 27.9617ZM11.5224 15.9011C13.7933 15.9011 15.6732 14.0213 15.6732 11.7502C15.6732 9.47928 13.7935 7.59937 11.5224 7.59937C9.25133 7.59937 7.37156 9.47914 7.37156 11.7502C7.37156 14.0212 9.25091 15.9011 11.5224 15.9011ZM28.5957 0.15918C26.3247 0.15918 24.4448 2.03895 24.4448 4.31002C24.4448 6.58096 26.3246 8.46087 28.5957 8.46087C30.8666 8.46087 32.7465 6.5811 32.7465 4.31002C32.7465 1.96091 30.8672 0.15918 28.5957 0.15918ZM45.3557 16.9975C48.645 16.9975 51.3863 14.3348 51.3863 10.9669C51.3863 7.67755 48.7236 4.93629 45.3557 4.93629C42.0663 4.93629 39.3251 7.59895 39.3251 10.9669C39.3256 14.3348 41.9883 16.9975 45.3557 16.9975Z" fill="url(#paint0_angular_3275_1368)"/>
<defs>
<radialGradient id="paint0_angular_3275_1368" cx="0" cy="0" r="1" gradientUnits="userSpaceOnUse" gradientTransform="translate(30.475 28.1578) rotate(72.959) scale(34.6307 36.5196)">
<stop stop-color="#56CE60" stop-opacity="0"/>
<stop offset="1" stop-color="#56CE60"/>
</radialGradient>
</defs>
</svg>
