<svg width="139" height="126" viewBox="0 0 139 126" fill="none" xmlns="http://www.w3.org/2000/svg">
<path d="M0 95.1596C0 104.416 7.13784 111.193 16.8713 111.193C26.6047 111.193 33.7425 104.416 33.7425 95.1596C33.7425 85.9031 26.6047 79.126 16.8713 79.126C7.13784 79.126 0 85.9031 0 95.1596ZM25.7395 95.1596C25.7395 100.738 22.2355 104.375 16.8713 104.375C11.5071 104.375 8.00304 100.738 8.00304 95.1596C8.00304 89.5809 11.5071 85.9444 16.8713 85.9444C22.2355 85.9444 25.7395 89.5809 25.7395 95.1596Z" fill="#222222"/>
<path d="M37.5312 79.6632L48.0433 110.656H58.3823L68.8079 79.6632H60.8481L53.4075 103.094L45.7938 79.6632H37.5312Z" fill="#222222"/>
<path d="M117.285 79.6632H108.33L123.038 100.821L108.546 110.656H116.895L123.038 100.821L129.873 110.656H138.871L124.077 89.3743L138.958 79.6632H130.263L124.077 89.3743L117.285 79.6632Z" fill="#222222"/>
<path d="M3.37602 125.445C5.59421 125.445 7.14153 124.228 7.52025 122.333L7.59599 121.924H3.11633L2.97567 122.63H6.51395C6.22179 123.857 5.04237 124.721 3.44094 124.721C1.86116 124.721 0.963065 123.847 0.952245 122.472C0.941424 120.623 2.43464 119.044 4.55545 119.044C5.86472 119.044 6.60051 119.741 6.71953 120.688L7.62845 120.503C7.4445 119.211 6.37328 118.319 4.60955 118.319C1.86116 118.319 -0.0107738 120.373 4.66639e-05 122.547C0.010867 124.275 1.2444 125.445 3.37602 125.445Z" fill="#222222"/>
<path d="M9.88502 125.362H14.9706L15.1221 124.637H10.9562L12.2331 118.394H11.3133L9.88502 125.362Z" fill="#222222"/>
<path d="M21.6782 118.319C18.9731 118.319 17.0795 120.363 17.0795 122.537C17.0795 124.247 18.2806 125.436 20.3906 125.436C23.1065 125.436 25.0109 123.392 25.0109 121.218C25.0109 119.509 23.799 118.319 21.6782 118.319ZM21.6133 119.044C23.1931 119.044 24.0695 119.917 24.0695 121.283C24.0695 123.123 22.5005 124.711 20.4663 124.711C18.8973 124.711 18.0317 123.838 18.0317 122.472C18.0317 120.633 19.579 119.044 21.6133 119.044Z" fill="#222222"/>
<path d="M27.3021 125.362H30.44C32.247 125.362 33.3291 124.479 33.3291 123.327C33.3291 122.575 32.853 122.008 32.0847 121.766C32.9828 121.506 33.5996 120.893 33.5996 120.075C33.5996 119.118 32.7989 118.394 31.5654 118.394H28.7304L27.3021 125.362ZM31.4355 119.072C32.2579 119.072 32.6799 119.546 32.6799 120.15C32.6799 120.902 32.0198 121.422 31.0027 121.422H29.0226L29.4987 119.072H31.4355ZM30.9811 122.101C31.8792 122.101 32.3985 122.612 32.3985 123.308C32.3985 124.126 31.6736 124.684 30.4617 124.684H28.3517L28.8819 122.101H30.9811Z" fill="#222222"/>
<path d="M34.8597 125.362H35.8335L37.3917 122.993H40.6486L41.168 125.362H42.0877L40.5188 118.394H39.5016L34.8597 125.362ZM37.8678 122.268L39.8479 119.267L40.4971 122.268H37.8678Z" fill="#222222"/>
<path d="M44.6452 125.362H49.7308L49.8823 124.637H45.7165L46.9933 118.394H46.0735L44.6452 125.362Z" fill="#222222"/>
<path fill-rule="evenodd" clip-rule="evenodd" d="M64.1328 125.445H71.7703L82.0219 96.0227L85.197 87.2816L86.7631 91.6522L88.3292 96.0227L93.5639 110.494H101.545L89.4877 79.126H81.2066L64.1328 125.445Z" fill="#DD231D"/>
<path fill-rule="evenodd" clip-rule="evenodd" d="M60.6852 1.32173C66.2369 -0.402034 72.1749 -0.440564 77.7484 1.21101C83.3219 2.86259 88.2806 6.13009 91.9973 10.6003C95.7141 15.0705 98.022 20.5427 98.6291 26.3247C99.2363 32.1068 98.1154 37.9391 95.4083 43.084C92.7012 48.229 88.5295 52.4555 83.4206 55.2291C78.3117 58.0028 72.4953 59.1989 66.7067 58.6662C60.9181 58.1336 55.4175 55.8961 50.9004 52.2368C46.3833 48.5775 43.0526 43.6606 41.3296 38.108C36.5158 22.6003 45.1853 6.12727 60.6852 1.32173Z" fill="url(#paint0_radial_3647_15371)"/>
<path d="M42.5268 17.0952C43.2861 15.4345 44.197 13.8461 45.2483 12.3498C49.777 8.04931 49.777 8.04931 56.4808 4.39736C56.4808 3.94355 56.4808 3.94355 56.4808 3.56299C58.5476 3.57192 58.5476 3.57192 60.9607 3.88816C59.0237 5.9607 59.0237 5.96069 57.0705 8.39056C56.9064 7.57941 56.9064 7.57941 56.7675 6.82723C47.6037 11.6709 47.5947 11.6709 42.5195 17.0952H42.5268ZM59.0977 56.543C69.1687 57.3613 69.1687 57.3613 81.2271 54.3651C81.2627 54.6366 81.2843 54.9097 81.2921 55.1834C83.2453 53.5057 83.2453 53.5057 85.2166 51.4742C83.0253 51.0687 83.0253 51.0687 80.466 50.4022C80.6554 51.2045 80.6554 51.2045 80.8105 51.9656C65.383 55.6336 65.383 55.6336 54.1434 54.1596C55.7146 55.1096 57.3735 55.9095 59.0977 56.5484V56.543ZM49.3928 50.6238C48.3662 49.6844 47.4074 48.6749 46.5234 47.6025C57.92 48.4119 57.92 48.4119 78.6264 43.1484C78.3 41.9585 78.3 41.9585 77.9555 40.7274C81.2019 42.2336 81.2019 42.2336 84.1525 43.554C82.2065 46.5913 82.2065 46.5913 80.2442 49.4089C80.0314 48.4851 80.0314 48.4851 79.7861 47.5061C61.0076 52.0728 61.0076 52.0728 49.3928 50.6238ZM43.6937 43.4646C43.0799 42.3747 42.5377 41.2468 42.0705 40.0878C55.3121 37.1988 55.3121 37.1988 82.1091 29.0409L81.2921 26.3287C84.5943 28.2154 84.5943 28.2154 87.6423 30.0378C85.9993 33.4718 85.9993 33.4718 84.2264 36.929C83.9144 35.6658 83.9144 35.6658 83.588 34.3615C57.5106 42.2014 57.5106 42.2014 43.6937 43.4646ZM40.6276 35.4711C40.3469 34.2542 40.1457 33.0206 40.0252 31.778C55.6313 23.7773 55.6313 23.7773 84.9947 15.3067C84.5114 14.1472 84.5114 14.1472 84.0226 13.0145C87.0616 14.9173 87.0616 14.9173 89.8823 16.8683C88.9012 19.6626 88.9012 19.6626 87.691 22.7411C87.2744 21.4618 87.2744 21.4618 86.8506 20.2129C56.7423 29.2356 56.7423 29.2356 40.6204 35.4711H40.6276ZM40 26.7736C40.1141 25.3905 40.3275 24.0173 40.6385 22.6642C49.3766 14.9709 49.3766 14.9709 67.4607 8.19224C67.1 7.25246 67.1 7.25245 66.7483 6.36269C69.9784 7.57584 69.9784 7.57584 73.3222 9.0016C71.6377 11.7477 71.6377 11.7477 69.8306 14.8083L68.9973 12.4391C48.9239 19.7198 48.9239 19.7198 40 26.7736Z" fill="#FEFEFE"/>
<defs>
<radialGradient id="paint0_radial_3647_15371" cx="0" cy="0" r="1" gradientUnits="userSpaceOnUse" gradientTransform="translate(82.9672 7.56822) scale(58.9336 58.9424)">
<stop stop-color="#DF241E"/>
<stop offset="1" stop-color="#770C08"/>
</radialGradient>
</defs>
</svg>
