<svg width="68" height="19" viewBox="0 0 68 19" fill="none" xmlns="http://www.w3.org/2000/svg">
<path d="M23.4277 7.42851C23.4277 10.3976 25.7172 12.5714 28.8393 12.5714C31.9613 12.5714 34.2508 10.3976 34.2508 7.42851C34.2508 4.45943 31.9613 2.28564 28.8393 2.28564C25.7172 2.28564 23.4277 4.45943 23.4277 7.42851ZM31.6838 7.42851C31.6838 9.21791 30.5599 10.3843 28.8393 10.3843C27.1187 10.3843 25.9948 9.21791 25.9948 7.42851C25.9948 5.63911 27.1187 4.47269 28.8393 4.47269C30.5599 4.47269 31.6838 5.63911 31.6838 7.42851Z" fill="white"/>
<path d="M35.4661 2.45796L38.8379 12.3991H42.1542L45.4982 2.45796H42.9451L40.5585 9.97343L38.1163 2.45796H35.4661Z" fill="white"/>
<path d="M61.0475 2.45796H58.1752L62.8929 9.24442L58.2446 12.3991H60.9226L62.8929 9.24442L65.0853 12.3991H67.9715L63.226 5.57284L67.9992 2.45796H65.2102L63.226 5.57284L61.0475 2.45796Z" fill="white"/>
<path d="M24.5106 17.1429C25.2221 17.1429 25.7184 16.7525 25.8399 16.1446L25.8642 16.0134H24.4273L24.3822 16.2399H25.5171C25.4234 16.6333 25.0451 16.9104 24.5314 16.9104C24.0247 16.9104 23.7366 16.6303 23.7332 16.1893C23.7297 15.5962 24.2087 15.0896 24.8889 15.0896C25.3089 15.0896 25.5449 15.3131 25.5831 15.6171L25.8746 15.5575C25.8156 15.1433 25.472 14.8572 24.9063 14.8572C24.0247 14.8572 23.4243 15.5158 23.4277 16.2131C23.4312 16.7674 23.8269 17.1429 24.5106 17.1429Z" fill="white"/>
<path d="M26.5984 17.1161H28.2296L28.2782 16.8836H26.942L27.3516 14.881H27.0565L26.5984 17.1161Z" fill="white"/>
<path d="M30.3811 14.8572C29.5135 14.8572 28.9061 15.5128 28.9061 16.2101C28.9061 16.7585 29.2913 17.1399 29.9681 17.1399C30.8393 17.1399 31.4501 16.4843 31.4501 15.787C31.4501 15.2386 31.0614 14.8572 30.3811 14.8572ZM30.3603 15.0896C30.867 15.0896 31.1482 15.3698 31.1482 15.8078C31.1482 16.3979 30.6449 16.9075 29.9924 16.9075C29.4892 16.9075 29.2115 16.6273 29.2115 16.1893C29.2115 15.5992 29.7078 15.0896 30.3603 15.0896Z" fill="white"/>
<path d="M32.185 17.1161H33.1915C33.7711 17.1161 34.1182 16.833 34.1182 16.4634C34.1182 16.2221 33.9655 16.0403 33.7191 15.9628C34.0072 15.8793 34.205 15.6827 34.205 15.4204C34.205 15.1135 33.9482 14.881 33.5525 14.881H32.6432L32.185 17.1161ZM33.5108 15.0986C33.7746 15.0986 33.91 15.2505 33.91 15.4443C33.91 15.6856 33.6983 15.8525 33.372 15.8525H32.7369L32.8896 15.0986H33.5108ZM33.3651 16.0701C33.6531 16.0701 33.8197 16.234 33.8197 16.4575C33.8197 16.7197 33.5872 16.8985 33.1985 16.8985H32.5217L32.6918 16.0701H33.3651Z" fill="white"/>
<path d="M34.6092 17.1161H34.9215L35.4213 16.3562H36.466L36.6326 17.1161H36.9276L36.4243 14.881H36.0981L34.6092 17.1161ZM35.574 16.1237L36.2092 15.1611L36.4174 16.1237H35.574Z" fill="white"/>
<path d="M37.7479 17.1161H39.3792L39.4278 16.8836H38.0915L38.5011 14.881H38.2061L37.7479 17.1161Z" fill="white"/>
<path fill-rule="evenodd" clip-rule="evenodd" d="M44.001 17.1428H46.4507L49.739 7.70537L50.7574 4.9016L51.2598 6.30348L51.7621 7.70537L53.4411 12.347H56.001L52.1337 2.28564H49.4775L44.001 17.1428Z" fill="white"/>
<path fill-rule="evenodd" clip-rule="evenodd" d="M12.108 0.388439C10.3203 -0.141313 8.41562 -0.128955 6.6349 0.423952C4.66688 1.03411 3.04216 2.23068 1.8931 3.76232C3.14152 2.57891 3.24475 2.52268 5.28629 1.41053V1.1429C5.59085 1.14421 5.7555 1.14493 5.91955 1.15515C6.1126 1.16717 6.30483 1.19236 6.72327 1.2472C6.10197 1.91197 6.10197 1.91197 5.47547 2.69136L5.47546 2.69137L5.47544 2.69129C5.42282 2.43119 5.42281 2.43116 5.37827 2.18992L5.363 2.19799C2.51132 3.70529 2.43529 3.74547 0.925956 5.35756C0.641799 5.9511 0.419183 6.57468 0.263516 7.21802C1.29377 6.31101 1.94296 5.74235 2.65674 5.27161C3.84431 4.4884 5.21065 3.97625 8.80817 2.62776L8.80806 2.62747C8.69247 2.32631 8.69244 2.32622 8.57966 2.04092C9.08422 2.23041 9.34306 2.32763 9.59972 2.43032C9.8701 2.5385 10.138 2.65275 10.6883 2.88736C10.148 3.76818 10.148 3.76819 9.56834 4.74984L9.56831 4.74988L9.30105 3.98997L9.30103 3.98998C2.89284 6.31425 2.86254 6.32524 0.0404097 8.55588C-0.00949113 9.09125 -0.0136814 9.6349 0.0306545 10.1815C5.01384 7.62675 5.02799 7.62267 14.4323 4.90977C14.3541 4.72212 14.3153 4.62915 14.276 4.53642C14.2374 4.44535 14.1982 4.35453 14.1205 4.17451L14.1205 4.17454C15.0953 4.78484 15.0953 4.78485 16 5.41065C15.6853 6.30695 15.6853 6.30695 15.2972 7.29437L15.2971 7.29412C15.1635 6.88404 15.1635 6.88396 15.0276 6.48346L15.0275 6.48349C5.37402 9.37637 5.37016 9.37753 0.205183 11.3752C0.265305 11.6584 0.338934 11.9414 0.426462 12.2233C0.979142 14.0044 2.04748 15.5815 3.49636 16.7552C4.94525 17.929 6.70961 18.6467 8.56632 18.8175C10.423 18.9884 12.2887 18.6047 13.9274 17.715C15.5661 16.8254 16.9042 15.4697 17.7725 13.8194C18.6408 12.1692 19.0003 10.2984 18.8056 8.4438C18.6109 6.58917 17.8706 4.83395 16.6784 3.4001C15.4863 1.96626 13.8957 0.918191 12.108 0.388439ZM9.1699 18.2678C8.37808 18.3195 7.57864 18.2546 6.12569 18.1365V18.1382C5.57266 17.9333 5.04056 17.6768 4.53656 17.372C6.04868 17.5703 6.92658 17.6855 7.80138 17.6655C9.01228 17.6378 10.2173 17.3514 13.0902 16.6683L13.0902 16.6682C13.0404 16.4242 13.0404 16.4241 12.9797 16.1668C13.8006 16.3806 13.8006 16.3806 14.5035 16.5107C14.1724 16.8519 14.0147 17.0144 13.8496 17.1691C13.6994 17.3098 13.5431 17.4441 13.2447 17.7004C13.2422 17.6126 13.2352 17.525 13.2238 17.4379C11.0957 17.9667 10.1385 18.2046 9.1699 18.2678ZM2.09242 15.2688C2.37595 15.6128 2.6835 15.9366 3.0128 16.2379C6.73831 16.7027 6.73831 16.7027 12.7616 15.2379L12.7616 15.2379C12.8022 15.3998 12.8218 15.4783 12.8407 15.5569C12.8584 15.6307 12.8755 15.7047 12.9085 15.8482C13.5379 14.9445 13.5379 14.9445 14.1621 13.9703L14.1621 13.9702C13.2158 13.5467 13.2157 13.5467 12.1746 13.0637L12.1744 13.0636C12.2849 13.4583 12.2849 13.4585 12.3895 13.8396L12.3896 13.8401C8.08489 14.9344 6.57022 15.3194 5.04197 15.3842C4.21231 15.4194 3.37865 15.3602 2.09242 15.2688ZM0.664113 12.8584C0.813985 13.2302 0.987894 13.592 1.18476 13.9416C2.68711 13.8042 3.68019 13.7134 4.66245 13.5555C6.57781 13.2474 8.45208 12.6839 13.9811 11.0217L13.9815 11.0235C14.0858 11.4401 14.0859 11.4406 14.1859 11.8452C14.4731 11.2851 14.6152 11.0079 14.7535 10.7288C14.889 10.4553 15.0207 10.18 15.2815 9.63484C14.3039 9.05033 14.3039 9.0503 13.2448 8.44523L13.2447 8.44512L13.5067 9.31506C7.71627 11.0779 5.82671 11.6531 3.91152 12.1242C2.98382 12.3523 2.05011 12.556 0.664113 12.8584Z" fill="white"/>
</svg>
