<svg width="133" height="45" viewBox="0 0 133 45" fill="none" xmlns="http://www.w3.org/2000/svg">
<path d="M0 16.0673C0 24.8872 6.80115 31.3446 16.0755 31.3446C25.3497 31.3446 32.1509 24.8872 32.1509 16.0673C32.1509 7.24745 25.3497 0.790039 16.0755 0.790039C6.80115 0.790039 0 7.24745 0 16.0673ZM24.5254 16.0673C24.5254 21.3829 21.1866 24.8478 16.0755 24.8478C10.9643 24.8478 7.62553 21.3829 7.62553 16.0673C7.62553 10.7518 10.9643 7.28683 16.0755 7.28683C21.1866 7.28683 24.5254 10.7518 24.5254 16.0673Z" fill="white"/>
<path d="M35.7608 1.30191L45.7771 30.8328H55.6285L65.5622 1.30191H57.9779L50.8883 23.6272L43.6337 1.30191H35.7608Z" fill="white"/>
<path d="M111.753 1.30191H103.22L117.235 21.4616L103.426 30.8328H111.382L117.235 21.4616L123.747 30.8328H132.321L118.224 10.5549L132.403 1.30191H124.118L118.224 10.5549L111.753 1.30191Z" fill="white"/>
<path d="M3.21678 44.9247C5.33033 44.9247 6.80467 43.765 7.16552 41.9591L7.23769 41.5696H2.96933L2.8353 42.2424H6.20668C5.92831 43.4109 4.80452 44.2342 3.27864 44.2342C1.77337 44.2342 0.917637 43.402 0.907327 42.0919C0.897017 40.3302 2.3198 38.8253 4.34057 38.8253C5.58808 38.8253 6.28917 39.4892 6.40258 40.3922L7.26862 40.2151C7.09335 38.9846 6.07265 38.1348 4.39212 38.1348C1.77337 38.1348 -0.0102656 40.0912 4.44628e-05 42.1627C0.0103544 43.8093 1.1857 44.9247 3.21678 44.9247Z" fill="white"/>
<path d="M9.41874 44.845H14.2645L14.4088 44.1545H10.4394L11.656 38.2056H10.7797L9.41874 44.845Z" fill="white"/>
<path d="M20.6556 38.1348C18.0781 38.1348 16.2739 40.0823 16.2739 42.1538C16.2739 43.7827 17.4183 44.9158 19.4287 44.9158C22.0166 44.9158 23.8311 42.9683 23.8311 40.8968C23.8311 39.2679 22.6764 38.1348 20.6556 38.1348ZM20.5938 38.8253C22.099 38.8253 22.9342 39.6574 22.9342 40.9587C22.9342 42.7115 21.4392 44.2253 19.5009 44.2253C18.006 44.2253 17.1812 43.3932 17.1812 42.0919C17.1812 40.3391 18.6555 38.8253 20.5938 38.8253Z" fill="white"/>
<path d="M26.0143 44.845H29.0042C30.726 44.845 31.757 44.004 31.757 42.9063C31.757 42.1892 31.3033 41.6492 30.5713 41.4191C31.427 41.1712 32.0147 40.5869 32.0147 39.8079C32.0147 38.8961 31.2518 38.2056 30.0764 38.2056H27.3752L26.0143 44.845ZM29.9527 38.8518C30.7363 38.8518 31.1384 39.3033 31.1384 39.8787C31.1384 40.5958 30.5094 41.0915 29.5403 41.0915H27.6536L28.1072 38.8518H29.9527ZM29.5197 41.7378C30.3754 41.7378 30.8703 42.2246 30.8703 42.8886C30.8703 43.6676 30.1795 44.1988 29.0248 44.1988H27.0143L27.5195 41.7378H29.5197Z" fill="white"/>
<path d="M33.2153 44.845H34.1432L35.6279 42.5876H38.7312L39.2261 44.845H40.1024L38.6075 38.2056H37.6384L33.2153 44.845ZM36.0815 41.8971L37.9683 39.0377L38.5869 41.8971H36.0815Z" fill="white"/>
<path d="M42.5393 44.845H47.385L47.5294 44.1545H43.56L44.7766 38.2056H43.9002L42.5393 44.845Z" fill="white"/>
<path fill-rule="evenodd" clip-rule="evenodd" d="M61.1094 44.9245H68.3866L78.1546 16.8898L81.18 8.56095L82.6722 12.7254L84.1644 16.8898L89.1522 30.6782H96.7564L85.2683 0.790039H77.3778L61.1094 44.9245Z" fill="#DD231D"/>
</svg>
