<svg width="33" height="33" viewBox="0 0 33 33" fill="none" xmlns="http://www.w3.org/2000/svg">
<circle cx="16.5" cy="16.5" r="16.5" fill="#8247E5"/>
<path d="M21.0795 13.5803C20.7699 13.4 20.3717 13.4 20.0178 13.5803L17.5404 15.0678L15.8592 16.0144L13.4261 17.5019C13.1164 17.6822 12.7182 17.6822 12.3643 17.5019L10.462 16.3299C10.1523 16.1496 9.93111 15.789 9.93111 15.3833V13.1295C9.93111 12.7689 10.1081 12.4083 10.462 12.1829L12.3643 11.056C12.674 10.8757 13.0721 10.8757 13.4261 11.056L15.3284 12.228C15.638 12.4083 15.8592 12.7689 15.8592 13.1746V14.6621L17.5404 13.6704V12.1378C17.5404 11.7772 17.3634 11.4166 17.0095 11.1912L13.4703 9.07267C13.1606 8.89236 12.7625 8.89236 12.4085 9.07267L8.78088 11.2363C8.42696 11.4166 8.25 11.7772 8.25 12.1378V16.375C8.25 16.7356 8.42696 17.0962 8.78088 17.3216L12.3643 19.4402C12.674 19.6205 13.0721 19.6205 13.4261 19.4402L15.8592 17.9978L17.5404 17.0061L19.9735 15.5636C20.2832 15.3833 20.6814 15.3833 21.0353 15.5636L22.9376 16.6905C23.2473 16.8708 23.4685 17.2315 23.4685 17.6371V19.891C23.4685 20.2516 23.2915 20.6122 22.9376 20.8375L21.0795 21.9645C20.7699 22.1448 20.3717 22.1448 20.0178 21.9645L18.1155 20.8375C17.8058 20.6572 17.5846 20.2966 17.5846 19.891V18.4485L15.9035 19.4402V20.9277C15.9035 21.2883 16.0804 21.6489 16.4344 21.8743L20.0178 23.9929C20.3275 24.1732 20.7256 24.1732 21.0795 23.9929L24.663 21.8743C24.9726 21.694 25.1938 21.3334 25.1938 20.9277V16.6455C25.1938 16.2849 25.0169 15.9242 24.663 15.6989L21.0795 13.5803Z" fill="white"/>
</svg>
