<svg width="26" height="37" viewBox="0 0 26 37" fill="none" xmlns="http://www.w3.org/2000/svg">
<path d="M13.6969 0.000454257C6.34381 -0.047351 1.48983 3.68129 0 9.65666L7.8817 11.521C8.45841 8.98742 10.2847 7.36212 13.1201 7.36212C15.7153 7.36212 17.3494 8.74841 17.3494 10.9951C17.3494 15.8711 7.8817 15.2974 7.8817 22.8503V24.0454H16.1479V23.1849C16.1479 18.8826 26 18.8826 26 10.4215C26 3.96811 20.5213 0.0482567 13.6969 0.000454257ZM12.207 37C15.1386 37 17.2532 34.9923 17.2532 32.2197C17.2532 29.3515 15.1386 27.2482 12.207 27.2482C9.27541 27.2482 7.16081 29.3515 7.16081 32.2197C7.16081 34.9923 9.27541 37 12.207 37Z" fill="#F12A23"/>
</svg>
