<svg width="16" height="18" viewBox="0 0 16 18" fill="none" xmlns="http://www.w3.org/2000/svg">
<path d="M8.75859 16.0777L9.17096 16.9887L9.17096 16.9887L8.75859 16.0777ZM7.24009 16.0777L6.82773 16.9887L7.24009 16.0777ZM1.6182 2.51559L2.50921 2.96958L1.6182 2.51559ZM2.33473 1.79887L2.78872 2.68987L2.33473 1.79887ZM8.27732 16.2376L8.10812 15.252L8.10812 15.252L8.27732 16.2376ZM7.72219 16.2376L7.89139 15.252L7.89139 15.252L7.72219 16.2376ZM14.3809 2.51559L13.4899 2.96958L13.4899 2.96958L14.3809 2.51559ZM13.6638 1.79887L14.1178 0.90786L14.1178 0.90786L13.6638 1.79887ZM8.04029 11.4601H9.04029C9.04029 10.9078 8.59258 10.4601 8.04029 10.4601V11.4601ZM8.04029 11.5421L8.04004 12.5421C8.3053 12.5422 8.55972 12.4369 8.74731 12.2493C8.9349 12.0618 9.04029 11.8074 9.04029 11.5421H8.04029ZM7.95861 11.5421H6.95861C6.95861 12.0943 7.40618 12.542 7.95836 12.5421L7.95861 11.5421ZM7.95861 11.4601V10.4601C7.40633 10.4601 6.95861 10.9078 6.95861 11.4601H7.95861ZM8.99945 5.72012C8.99945 5.16783 8.55174 4.72012 7.99945 4.72012C7.44717 4.72012 6.99945 5.16783 6.99945 5.72012H8.99945ZM6.99945 9.00012C6.99945 9.5524 7.44717 10.0001 7.99945 10.0001C8.55174 10.0001 8.99945 9.5524 8.99945 9.00012H6.99945ZM13.5595 4.24408V7.49526H15.5595V4.24408H13.5595ZM13.5595 7.49526C13.5595 12.2686 9.97227 14.4306 8.34623 15.1666L9.17096 16.9887C10.999 16.1612 15.5595 13.4939 15.5595 7.49526H13.5595ZM7.65245 15.1666C6.02646 14.4307 2.43945 12.2686 2.43945 7.49525H0.439453C0.439453 13.4939 4.99964 16.1612 6.82773 16.9887L7.65245 15.1666ZM2.43945 7.49525V4.24408H0.439453V7.49525H2.43945ZM4.06361 2.62012H11.9356V0.620117H4.06361V2.62012ZM2.43945 4.24408C2.43945 3.76833 2.44023 3.47168 2.45848 3.24839C2.47577 3.03679 2.50363 2.98053 2.50921 2.96958L0.727196 2.0616C0.554026 2.40147 0.492516 2.75021 0.465118 3.08552C0.438675 3.40915 0.439453 3.80134 0.439453 4.24408H2.43945ZM4.06361 0.620117C3.62086 0.620117 3.2286 0.61934 2.90489 0.64578C2.56957 0.673168 2.22067 0.734655 1.88074 0.90786L2.78872 2.68987C2.7996 2.68433 2.8559 2.65644 3.0677 2.63914C3.29111 2.62089 3.58788 2.62012 4.06361 2.62012V0.620117ZM2.50921 2.96958C2.5707 2.8489 2.66855 2.7511 2.78872 2.68987L1.88074 0.90786C1.38373 1.1611 0.98017 1.56511 0.727196 2.0616L2.50921 2.96958ZM8.34623 15.1666C8.24434 15.2128 8.2176 15.2241 8.19494 15.2321C8.18601 15.2353 8.16737 15.2419 8.10812 15.252L8.44652 17.2232C8.78324 17.1654 8.96849 17.0803 9.17096 16.9887L8.34623 15.1666ZM6.82773 16.9887C7.03164 17.081 7.21708 17.1655 7.55299 17.2232L7.89139 15.252C7.83184 15.2418 7.81272 15.2351 7.80331 15.2318C7.78065 15.2239 7.75344 15.2124 7.65245 15.1666L6.82773 16.9887ZM8.10812 15.252C8.12764 15.2487 8.12626 15.2501 8.09543 15.2519C8.06965 15.2534 8.03628 15.2544 7.99975 15.2544C7.96323 15.2544 7.92986 15.2534 7.90408 15.2519C7.87325 15.2501 7.87187 15.2487 7.89139 15.252L7.55299 17.2232C7.70382 17.2491 7.87807 17.2544 7.99975 17.2544C8.12144 17.2544 8.29569 17.2491 8.44652 17.2232L8.10812 15.252ZM15.5595 4.24408C15.5595 3.80144 15.5603 3.40924 15.5339 3.08568C15.5065 2.75042 15.4451 2.40158 15.2719 2.0616L13.4899 2.96958C13.4954 2.98042 13.5232 3.03658 13.5405 3.24824C13.5587 3.47159 13.5595 3.76823 13.5595 4.24408H15.5595ZM11.9356 2.62012C12.4114 2.62012 12.7079 2.6209 12.9311 2.63914C13.1426 2.65642 13.1989 2.68427 13.2098 2.68987L14.1178 0.90786C13.778 0.734713 13.4294 0.673188 13.0941 0.645784C12.7705 0.619339 12.3783 0.620117 11.9356 0.620117V2.62012ZM15.2719 2.0616C15.0186 1.56444 14.6142 1.16076 14.1178 0.90786L13.2098 2.68987C13.3307 2.75144 13.4287 2.84957 13.4899 2.96958L15.2719 2.0616ZM7.04029 11.4601V11.5421H9.04029V11.4601H7.04029ZM8.04054 10.5421L7.95886 10.5421L7.95836 12.5421L8.04004 12.5421L8.04054 10.5421ZM8.95861 11.5421V11.4601H6.95861V11.5421H8.95861ZM7.95861 12.4601H8.04029V10.4601H7.95861V12.4601ZM6.99945 5.72012V9.00012H8.99945V5.72012H6.99945Z" fill="#3283E7"/>
</svg>
