<svg width="19" height="16" viewBox="0 0 19 16" fill="none" xmlns="http://www.w3.org/2000/svg">
<path d="M12.125 15.0254C12.125 13.0924 9.7745 11.5254 6.875 11.5254C3.9755 11.5254 1.625 13.0924 1.625 15.0254M13.7246 2.92557C14.0496 3.25057 14.3074 3.63641 14.4833 4.06105C14.6592 4.48569 14.7498 4.94074 14.7498 5.40037C14.7498 5.85999 14.6593 6.31514 14.4834 6.73978C14.3075 7.16442 14.0496 7.55028 13.7246 7.87529M15.625 1.02539C16.1995 1.59992 16.6553 2.28199 16.9662 3.03266C17.2771 3.78332 17.4371 4.58781 17.4371 5.40032C17.4371 6.21284 17.2771 7.01746 16.9661 7.76812C16.6552 8.51879 16.1995 9.20092 15.625 9.77545M6.875 8.90039C4.942 8.90039 3.375 7.33339 3.375 5.40039C3.375 3.46739 4.942 1.90039 6.875 1.90039C8.808 1.90039 10.375 3.46739 10.375 5.40039C10.375 7.33339 8.808 8.90039 6.875 8.90039Z" stroke="#56CE60" stroke-width="1.5" stroke-linecap="round" stroke-linejoin="round"/>
</svg>
