<svg width="30" height="26" viewBox="0 0 30 26" fill="none" xmlns="http://www.w3.org/2000/svg">
<path d="M3.56739 17.8002L4.2169 18.1752L3.56739 17.8002ZM10.842 5.20016L10.1925 4.82516L10.842 5.20016ZM19.1563 5.20016L19.8058 4.82516L19.1563 5.20016ZM26.4309 17.8002L27.0804 17.4252L26.4309 17.8002ZM13.7785 1.25936L14.0836 1.94452L13.7785 1.25936ZM16.2192 1.25936L15.9142 1.94452L16.2192 1.25936ZM2.84375 24.4272L2.40291 25.0339H2.40291L2.84375 24.4272ZM1.62324 22.3136L2.36913 22.2352L1.62324 22.3136ZM27.1545 24.4272L27.5953 25.0339L27.1545 24.4272ZM28.375 22.3136L29.1209 22.392L28.375 22.3136ZM15.0737 19.0001H15.8237C15.8237 18.5859 15.4879 18.2501 15.0737 18.2501V19.0001ZM15.0737 19.1501L15.0735 19.9001C15.2725 19.9001 15.4633 19.8211 15.604 19.6805C15.7447 19.5398 15.8237 19.349 15.8237 19.1501H15.0737ZM14.9243 19.1501H14.1743C14.1743 19.5642 14.51 19.8999 14.9241 19.9001L14.9243 19.1501ZM14.9243 19.0001V18.2501C14.5101 18.2501 14.1743 18.5859 14.1743 19.0001H14.9243ZM15.749 8.50009C15.749 8.08587 15.4132 7.75009 14.999 7.75009C14.5848 7.75009 14.249 8.08587 14.249 8.50009H15.749ZM14.249 14.5001C14.249 14.9143 14.5848 15.2501 14.999 15.2501C15.4132 15.2501 15.749 14.9143 15.749 14.5001H14.249ZM22.2738 24.2501H7.72461V25.7501H22.2738V24.2501ZM4.2169 18.1752L11.4915 5.57516L10.1925 4.82516L2.91787 17.4252L4.2169 18.1752ZM18.5067 5.57516L25.7813 18.1752L27.0804 17.4252L19.8058 4.82516L18.5067 5.57516ZM11.4915 5.57516C12.181 4.38094 12.6727 3.53065 13.1005 2.92512C13.5305 2.31638 13.8271 2.0587 14.0836 1.94452L13.4735 0.574205C12.8394 0.856498 12.3499 1.38783 11.8753 2.05967C11.3984 2.73472 10.8671 3.65661 10.1925 4.82516L11.4915 5.57516ZM19.8058 4.82516C19.1311 3.65655 18.5996 2.73468 18.1226 2.0596C17.6479 1.38773 17.1583 0.85647 16.5243 0.574205L15.9142 1.94452C16.1707 2.05873 16.4675 2.31648 16.8976 2.9252C17.3254 3.53071 17.8173 4.38099 18.5067 5.57516L19.8058 4.82516ZM14.0836 1.94452C14.6661 1.68516 15.3316 1.68516 15.9142 1.94452L16.5243 0.574205C15.5534 0.141932 14.4444 0.141932 13.4735 0.574205L14.0836 1.94452ZM7.72461 24.2501C6.34567 24.2501 5.36351 24.2493 4.62531 24.1816C3.88323 24.1135 3.51174 23.9854 3.28459 23.8204L2.40291 25.0339C2.96436 25.4418 3.66915 25.6002 4.48827 25.6753C5.31128 25.7508 6.37525 25.7501 7.72461 25.7501V24.2501ZM2.91787 17.4252C2.24318 18.5938 1.71056 19.5148 1.36448 20.2653C1.02002 21.0123 0.804814 21.7018 0.877352 22.392L2.36913 22.2352C2.33978 21.9559 2.41457 21.5702 2.72662 20.8935C3.03704 20.2203 3.52744 19.3693 4.2169 18.1752L2.91787 17.4252ZM3.28459 23.8204C2.76859 23.4455 2.43577 22.8692 2.36913 22.2352L0.877352 22.392C0.988458 23.4491 1.54322 24.4093 2.40291 25.0339L3.28459 23.8204ZM22.2738 25.7501C23.6232 25.7501 24.6871 25.7508 25.5101 25.6753C26.3292 25.6002 27.0339 25.4418 27.5953 25.0339L26.7136 23.8204C26.4865 23.9854 26.115 24.1135 25.373 24.1816C24.6349 24.2493 23.6528 24.2501 22.2738 24.2501V25.7501ZM25.7813 18.1752C26.4708 19.3693 26.9612 20.2203 27.2716 20.8935C27.5837 21.5702 27.6585 21.9559 27.6291 22.2352L29.1209 22.392C29.1934 21.7018 28.9782 21.0123 28.6338 20.2653C28.2877 19.5148 27.7551 18.5938 27.0804 17.4252L25.7813 18.1752ZM27.5953 25.0339C28.455 24.4093 29.0098 23.4491 29.1209 22.392L27.6291 22.2352C27.5625 22.8692 27.2297 23.4455 26.7136 23.8204L27.5953 25.0339ZM14.3237 19.0001V19.1501H15.8237V19.0001H14.3237ZM15.0739 18.4001L14.9245 18.4001L14.9241 19.9001L15.0735 19.9001L15.0739 18.4001ZM15.6743 19.1501V19.0001H14.1743V19.1501H15.6743ZM14.9243 19.7501H15.0737V18.2501H14.9243V19.7501ZM14.249 8.50009V14.5001H15.749V8.50009H14.249Z" fill="#E5A13E"/>
</svg>
