<svg width="30" height="24" viewBox="0 0 30 24" fill="none" xmlns="http://www.w3.org/2000/svg">
<path fill-rule="evenodd" clip-rule="evenodd" d="M10.8523 0H10.8975V2.17955C9.69366 2.17955 8.85441 2.18027 8.20054 2.23233C7.55882 2.28341 7.18911 2.37853 6.90888 2.51669C6.2633 2.83511 5.74102 3.35738 5.42262 4.00296C5.28445 4.28318 5.18934 4.65296 5.13826 5.29462C5.0862 5.94848 5.08547 6.78773 5.08547 7.99159H2.90593V7.94634C2.90593 6.79841 2.90593 5.87235 2.96552 5.12196C3.02682 4.34941 3.15648 3.67026 3.46784 3.039C3.99837 1.96312 4.86898 1.09248 5.94486 0.56198C6.57612 0.250616 7.25527 0.120965 8.02782 0.0596635C8.77827 6.65896e-05 9.70433 6.65144e-05 10.8522 6.65144e-05L10.8523 0ZM21.5862 2.23235C20.9324 2.1803 20.0931 2.17957 18.8892 2.17957V2.13796e-05H18.9345C20.0824 2.13796e-05 21.0085 2.09808e-05 21.7589 0.0596179C22.5312 0.120918 23.2108 0.250571 23.8418 0.561935C24.9177 1.09247 25.7884 1.96307 26.3189 3.03896C26.6302 3.67022 26.7596 4.34936 26.8212 5.12192C26.8808 5.87237 26.8808 6.79842 26.8808 7.9463V7.99154H24.7012C24.7012 6.78769 24.7003 5.94844 24.6484 5.29457C24.5976 4.65285 24.5022 4.28314 24.3641 4.00291C24.0457 3.35733 23.5234 2.83505 22.8778 2.51665C22.5976 2.37848 22.2278 2.28337 21.5862 2.23229L21.5862 2.23235ZM0 11.9874C0 11.3856 0.487963 10.8976 1.08977 10.8976H28.6978C29.2996 10.8976 29.7875 11.3856 29.7875 11.9874C29.7875 12.5892 29.2996 13.0771 28.6978 13.0771H1.08977C0.487963 13.0771 0 12.5892 0 11.9874ZM2.90614 16.0286V15.9833H5.08569C5.08569 17.1872 5.08642 18.0264 5.13848 18.6803C5.18956 19.322 5.28467 19.6917 5.42284 19.972C5.74126 20.6175 6.26352 21.1398 6.9091 21.4582C7.18933 21.5964 7.5591 21.6917 8.20076 21.7426C8.85463 21.7944 9.69387 21.7954 10.8977 21.7954V23.9749H10.8525C9.70455 23.9749 8.77849 23.9749 8.02811 23.9153C7.25555 23.8538 6.5764 23.7244 5.94515 23.413C4.86926 22.8825 3.99863 22.0119 3.46812 20.936C3.15676 20.305 3.02711 19.6253 2.96581 18.853C2.90621 18.1026 2.90621 17.1765 2.90621 16.0286L2.90614 16.0286ZM24.6487 18.6803C24.7005 18.0264 24.7015 17.1871 24.7015 15.9833H26.881V16.0285C26.881 17.1765 26.881 18.1025 26.8214 18.8529C26.7599 19.6252 26.6304 20.3049 26.3191 20.9359C25.7886 22.0118 24.9179 22.8824 23.8421 23.4129C23.2111 23.7243 22.5314 23.8537 21.7591 23.9152C21.0087 23.9748 20.0826 23.9748 18.9347 23.9748H18.8895V21.7953C20.0933 21.7953 20.9326 21.7943 21.5864 21.7425C22.2282 21.6916 22.5979 21.5963 22.8781 21.4581C23.5237 21.1397 24.046 20.6174 24.3644 19.9719C24.5025 19.6916 24.5979 19.3219 24.6487 18.6802L24.6487 18.6803Z" fill="white"/>
<path fill-rule="evenodd" clip-rule="evenodd" d="M1.08977 10.8975C0.487963 10.8975 0 11.3854 0 11.9872C0 12.589 0.487963 13.077 1.08977 13.077H28.6978C29.2996 13.077 29.7875 12.589 29.7875 11.9872C29.7875 11.3854 29.2996 10.8975 28.6978 10.8975H1.08977Z" fill="#222222"/>
</svg>
