<svg width="35" height="132" viewBox="0 0 35 132" fill="none" xmlns="http://www.w3.org/2000/svg">
<path opacity="0.1" d="M25.4151 8.37941e-07C29.9934 4.37695e-07 33.6378 3.83501 33.4047 8.40735L29.8871 77.4008C29.6702 81.6552 26.1574 84.9934 21.8975 84.9934L13.1025 84.9934C8.84259 84.9934 5.32984 81.6552 5.11293 77.4008L1.5953 8.40736C1.36218 3.83502 5.00664 2.6221e-06 9.58492 2.22186e-06L25.4151 8.37941e-07ZM17.5 132C7.33336 132 -5.41173e-07 124.715 -1.42069e-06 114.654C-2.33053e-06 104.247 7.33335 96.615 17.5 96.615C27.6667 96.615 35 104.247 35 114.654C35 124.715 27.6667 132 17.5 132Z" fill="url(#paint0_linear_3423_10280)"/>
<defs>
<linearGradient id="paint0_linear_3423_10280" x1="17.5" y1="1.5299e-06" x2="17.5" y2="152" gradientUnits="userSpaceOnUse">
<stop stop-color="#3BB9E5"/>
<stop offset="1" stop-color="#3BB9E5" stop-opacity="0"/>
</linearGradient>
</defs>
</svg>
