<svg width="30" height="30" viewBox="0 0 30 30" fill="none" xmlns="http://www.w3.org/2000/svg">
<path d="M11.0303 9.96967C10.7374 9.67678 10.2626 9.67678 9.96967 9.96967C9.67678 10.2626 9.67678 10.7374 9.96967 11.0303L11.0303 9.96967ZM18.9695 20.0301C19.2624 20.323 19.7372 20.323 20.0301 20.0301C20.323 19.7372 20.323 19.2624 20.0301 18.9695L18.9695 20.0301ZM9.96967 18.9697C9.67678 19.2626 9.67678 19.7374 9.96967 20.0303C10.2626 20.3232 10.7374 20.3232 11.0303 20.0303L9.96967 18.9697ZM20.0301 11.0305C20.323 10.7376 20.323 10.2627 20.0301 9.96985C19.7372 9.67696 19.2624 9.67696 18.9695 9.96985L20.0301 11.0305ZM15 27.75C7.95837 27.75 2.25 22.0416 2.25 15H0.75C0.75 22.8701 7.12994 29.25 15 29.25V27.75ZM2.25 15C2.25 7.95837 7.95837 2.25 15 2.25V0.75C7.12994 0.75 0.75 7.12994 0.75 15H2.25ZM15 2.25C22.0416 2.25 27.75 7.95837 27.75 15H29.25C29.25 7.12994 22.8701 0.75 15 0.75V2.25ZM27.75 15C27.75 22.0416 22.0416 27.75 15 27.75V29.25C22.8701 29.25 29.25 22.8701 29.25 15H27.75ZM9.96967 11.0303L18.9695 20.0301L20.0301 18.9695L11.0303 9.96967L9.96967 11.0303ZM11.0303 20.0303L20.0301 11.0305L18.9695 9.96985L9.96967 18.9697L11.0303 20.0303Z" fill="#F12A23"/>
</svg>
