<svg width="141" height="141" viewBox="0 0 141 141" fill="none" xmlns="http://www.w3.org/2000/svg">
<path opacity="0.1" d="M65.7384 39.3878C68.4721 42.1215 72.9042 42.1215 75.6379 39.3878L112.284 2.7419C115.017 0.00822699 119.45 0.00822699 122.183 2.7419L138.635 19.1935C141.369 21.9272 141.369 26.3593 138.635 29.093L101.989 65.7389C99.2553 68.4726 99.2553 72.9047 101.989 75.6384L138.389 112.038C141.122 114.772 141.122 119.204 138.389 121.938L121.937 138.389C119.203 141.123 114.771 141.123 112.038 138.389L75.6379 101.989C72.9042 99.2558 68.4721 99.2558 65.7384 101.989L29.0925 138.635C26.3588 141.369 21.9267 141.369 19.193 138.635L2.74141 122.184C0.0077396 119.45 0.00774264 115.018 2.74141 112.284L39.3873 75.6384C42.121 72.9047 42.121 68.4726 39.3873 65.7389L2.49515 28.8467C-0.238521 26.1131 -0.238517 21.6809 2.49515 18.9472L18.9468 2.49562C21.6804 -0.238051 26.1126 -0.238048 28.8463 2.49562L65.7384 39.3878Z" fill="url(#paint0_linear_3416_5942)"/>
<defs>
<linearGradient id="paint0_linear_3416_5942" x1="70" y1="5.5" x2="70" y2="122.5" gradientUnits="userSpaceOnUse">
<stop stop-color="#F12A23"/>
<stop offset="1" stop-color="#F12A23" stop-opacity="0"/>
</linearGradient>
</defs>
</svg>
