<svg width="85" height="33" viewBox="0 0 85 33" fill="none" xmlns="http://www.w3.org/2000/svg">
<rect width="85" height="33" rx="16.5" fill="white"/>
<rect x="7" y="6" width="71" height="21" rx="10.5" fill="#6FC984"/>
<path d="M60.25 17C60.1119 17 60 16.8881 60 16.75L60 16.25C60 16.1119 60.1119 16 60.25 16L60.75 16C60.8881 16 61 16.1119 61 16.25L61 16.75C61 16.8881 60.8881 17 60.75 17L60.25 17Z" fill="white"/>
<path opacity="0.3" d="M57.25 17C57.1119 17 57 16.8881 57 16.75L57 16.25C57 16.1119 57.1119 16 57.25 16L57.75 16C57.8881 16 58 16.1119 58 16.25L58 16.75C58 16.8881 57.8881 17 57.75 17L57.25 17Z" fill="white"/>
<path opacity="0.1" d="M54.25 17C54.1119 17 54 16.8881 54 16.75L54 16.25C54 16.1119 54.1119 16 54.25 16L54.75 16C54.8881 16 55 16.1119 55 16.25L55 16.75C55 16.8881 54.8881 17 54.75 17L54.25 17Z" fill="white"/>
<path fill-rule="evenodd" clip-rule="evenodd" d="M64.9742 13.1392L67.8669 16.1639C68.0444 16.3495 68.0444 16.6505 67.8669 16.8361L64.9742 19.8608C64.7966 20.0464 64.5088 20.0464 64.3313 19.8608C64.1538 19.6752 64.1538 19.3742 64.3313 19.1886L66.4481 16.9753L63.4545 16.9753C63.2035 16.9753 63 16.7625 63 16.5C63 16.2375 63.2035 16.0247 63.4545 16.0247L66.4481 16.0247L64.3313 13.8114C64.1538 13.6258 64.1538 13.3248 64.3313 13.1392C64.5088 12.9536 64.7966 12.9536 64.9742 13.1392Z" fill="white"/>
</svg>
