<svg width="33" height="33" viewBox="0 0 33 33" fill="none" xmlns="http://www.w3.org/2000/svg">
<circle cx="16.5" cy="16.5" r="16.5" fill="#894EB7"/>
<path d="M20.6438 10.3284L17.7748 14.5909C17.5764 14.8812 17.9579 15.2326 18.2326 14.9882L21.0558 12.5284C21.1321 12.4673 21.239 12.5132 21.239 12.6201V20.3048C21.239 20.4118 21.1016 20.4576 21.0406 20.3812L12.4945 10.1451C12.2198 9.809 11.823 9.62567 11.3805 9.62567H11.0753C10.2817 9.62567 9.62549 10.2826 9.62549 11.0923V21.909C9.62549 22.7187 10.2817 23.3757 11.0905 23.3757C11.5941 23.3757 12.0672 23.116 12.3419 22.6729L15.2109 18.4104C15.4093 18.1201 15.0278 17.7687 14.7531 18.0132L11.9299 20.4576C11.8536 20.5187 11.7467 20.4729 11.7467 20.366V12.6965C11.7467 12.5896 11.8841 12.5437 11.9451 12.6201L20.4912 22.8562C20.7659 23.1923 21.1779 23.3757 21.6052 23.3757H21.9105C22.7193 23.3757 23.3755 22.7187 23.3755 21.909V11.0923C23.3755 10.2826 22.7193 9.62567 21.9105 9.62567C21.3916 9.62567 20.9185 9.88539 20.6438 10.3284Z" fill="white"/>
</svg>
