<svg width="161" height="157" viewBox="0 0 161 157" fill="none" xmlns="http://www.w3.org/2000/svg">
<path d="M43.6277 143.92C12.5827 124.348 -18.2598 85.0576 13.1163 63.8948C25.272 55.696 26.3653 45.9267 31.8177 32.3841C47.573 -6.79745 84.7399 -3.5087 104.853 12.9134C139.725 41.3869 160.054 54.1312 160.802 79.2423C161.126 90.1556 155.162 94.8747 138.65 110.31C127.557 120.68 124.303 140.563 102.443 150.728C85.7292 158.508 67.7972 159.157 43.6277 143.92Z" fill="url(#paint0_linear_3443_11755)"/>
<path d="M67.0382 115.988C69.7369 114.847 72.3893 115.606 73.3525 117.887L73.393 117.981C74.3172 120.166 73.3135 121.711 72.1651 122.914L71.8195 123.261C71.4333 123.672 71.3929 124.002 71.6344 124.572L71.9236 125.256L69.7398 126.181L69.3942 125.364C68.8706 124.129 68.9212 123.195 69.9018 122.169L70.2272 121.83C71.2193 120.783 71.6633 120.035 71.1976 118.937C70.69 117.741 69.3508 117.434 67.9074 118.045C66.4062 118.68 65.5616 119.912 66.1806 121.371L66.4048 121.903L64.2152 122.819L63.9491 122.193C62.8543 119.589 64.3034 117.145 67.0382 115.988ZM71.2164 126.653C72.1666 126.251 73.1587 126.637 73.5608 127.587C73.7003 127.911 73.7405 128.27 73.6763 128.617C73.6121 128.964 73.4465 129.284 73.2003 129.537C72.9541 129.79 72.6384 129.964 72.2931 130.038C71.9479 130.111 71.5886 130.081 71.2607 129.95C70.9328 129.82 70.651 129.595 70.4509 129.304C70.2509 129.013 70.1416 128.669 70.1369 128.316C70.1321 127.963 70.2322 127.617 70.4243 127.321C70.6165 127.025 70.8921 126.792 71.2164 126.653Z" fill="#F3FAFF"/>
<path d="M132.147 53.3372C135.194 52.8368 137.723 54.2744 138.146 56.8501L138.163 56.9572C138.569 59.4259 137.151 60.7608 135.681 61.7081L135.247 61.9785C134.75 62.3025 134.627 62.6322 134.732 63.2801L134.86 64.0524L132.391 64.4588L132.239 63.5347C132.011 62.139 132.296 61.1889 133.552 60.3876L133.972 60.1201C135.247 59.2943 135.888 58.6377 135.684 57.3925C135.461 56.0402 134.166 55.3923 132.534 55.657C130.838 55.9347 129.666 56.9875 129.931 58.6406L130.031 59.2408L127.559 59.6457L127.442 58.9385C126.96 55.9969 129.054 53.8449 132.147 53.3372ZM133.778 65.3049C134.851 65.1284 135.772 65.7706 135.947 66.8437C135.996 67.0895 135.994 67.3427 135.941 67.5876C135.888 67.8325 135.785 68.0639 135.638 68.2673C135.492 68.4708 135.305 68.6419 135.09 68.7702C134.875 68.8985 134.635 68.9811 134.387 69.013C133.335 69.1851 132.414 68.543 132.235 67.4482C132.188 67.2054 132.191 66.9556 132.245 66.7141C132.298 66.4727 132.4 66.2446 132.544 66.044C132.689 65.8433 132.873 65.6743 133.085 65.5472C133.297 65.4201 133.533 65.3376 133.778 65.3049Z" fill="#D2EAFF"/>
<path d="M79.5904 1.02099C83.6789 2.9604 85.52 6.80595 83.8857 10.2567L83.8177 10.4013C82.2471 13.7132 79.4327 14.1413 76.8642 14.0516L76.1078 14.0111C75.2401 13.9851 74.8163 14.2801 74.4056 15.1435L73.9139 16.1805L70.6034 14.607L71.1906 13.369C72.0786 11.4976 73.2154 10.5893 75.3977 10.6732L76.1209 10.7007C78.3466 10.7686 79.667 10.5141 80.4596 8.8437C81.3201 7.03012 80.299 5.1688 78.1094 4.1304C75.8345 3.05151 73.5465 3.34076 72.4937 5.55784L72.1162 6.3634L68.8043 4.79278L69.2556 3.8426C71.127 -0.10274 75.444 -0.947344 79.5904 1.02099ZM71.5753 16.7966C73.0143 17.4806 73.5885 19.0223 72.9044 20.4613C72.2073 21.9307 70.6497 22.4615 69.2107 21.7789C67.7992 21.1093 67.2265 19.5661 67.9236 18.0982C68.6062 16.6592 70.1638 16.127 71.5753 16.7966Z" fill="white"/>
<path d="M80.354 136.814L79.333 136.236C80.3935 134.259 81.3095 132.849 82.0808 132.004C82.8521 131.159 84.1885 130.152 86.0898 128.983C87.9921 127.811 89.3819 126.793 90.2593 125.928C91.1367 125.063 92.0015 123.873 92.8539 122.356C94.1728 120.01 94.68 118.021 94.3753 116.387C94.0706 114.754 93.2844 113.581 92.0165 112.867C91.0523 112.325 90.1002 112.127 89.1602 112.271C88.4477 112.382 87.9728 112.649 87.7356 113.073C87.5775 113.358 87.4984 113.896 87.4984 114.687C87.4927 116.471 87.2222 117.84 86.6871 118.791C86.4707 119.2 86.172 119.559 85.8098 119.847C85.4477 120.135 85.0299 120.345 84.5828 120.463C84.1326 120.587 83.6617 120.619 83.1988 120.556C82.7359 120.493 82.2906 120.337 81.8899 120.097C81.4202 119.847 81.0087 119.5 80.6822 119.08C80.3557 118.66 80.1217 118.176 79.9953 117.659C79.7177 116.587 79.9009 115.478 80.5449 114.332C81.7135 112.251 83.6418 110.933 86.3299 110.378C89.018 109.824 91.977 110.455 95.2069 112.27C98.6345 114.198 100.787 116.482 101.664 119.119C102.542 121.757 102.33 124.233 101.028 126.546C100.107 128.201 98.7137 129.545 97.0263 130.406C95.3023 131.304 92.6244 131.867 88.9924 132.097C86.554 132.259 84.7983 132.636 83.7252 133.228C82.6521 133.82 81.5284 135.015 80.354 136.814ZM77.9605 140.553C78.9386 141.109 79.694 141.986 80.098 143.036C80.502 144.086 80.5298 145.244 80.1765 146.312C79.8233 147.38 79.1109 148.293 78.1605 148.895C77.2101 149.497 76.0805 149.751 74.9638 149.614C73.8471 149.477 72.8123 148.958 72.0356 148.144C71.2588 147.33 70.788 146.272 70.7033 145.15C70.6186 144.028 70.9252 142.912 71.5709 141.991C72.2166 141.069 73.1616 140.4 74.2451 140.097C74.8627 139.915 75.5109 139.862 76.1499 139.941C76.7889 140.019 77.4051 140.227 77.9605 140.553Z" fill="#F3FAFF"/>
<path d="M44.4718 109.359L44.0206 108.902C44.871 108.022 45.5608 107.417 46.0902 107.088C46.6195 106.759 47.4694 106.428 48.6399 106.095C49.8113 105.762 50.6911 105.433 51.2793 105.108C51.9751 104.701 52.6113 104.199 53.1695 103.617C54.2079 102.582 54.7676 101.613 54.8486 100.71C54.9296 99.8078 54.6885 99.076 54.1255 98.5149C53.7532 98.1161 53.2555 97.8568 52.7154 97.7802C52.3249 97.7325 52.0371 97.8034 51.8476 97.9899C51.7233 98.1143 51.6023 98.3828 51.4846 98.7955C51.2166 99.7317 50.8724 100.41 50.452 100.83C50.2781 101.013 50.0683 101.157 49.8358 101.254C49.6033 101.352 49.3532 101.4 49.1012 101.396C48.8465 101.395 48.5946 101.342 48.3609 101.24C48.1272 101.139 47.9166 100.991 47.7418 100.806C47.5324 100.605 47.3678 100.362 47.2587 100.094C47.1495 99.8252 47.0983 99.5365 47.1083 99.2467C47.1218 98.6441 47.3821 98.0892 47.8893 97.5821C48.8091 96.6632 50.0143 96.2568 51.5049 96.3629C52.9955 96.469 54.4552 97.2369 55.8841 98.6668C57.3988 100.184 58.1908 101.7 58.2603 103.215C58.3297 104.73 57.8553 105.999 56.8372 107.022C56.1088 107.754 55.179 108.254 54.166 108.456C53.1276 108.672 51.6389 108.576 49.7 108.167C48.3964 107.891 47.4193 107.83 46.7684 107.982C46.1176 108.134 45.3521 108.593 44.4718 109.359ZM42.664 110.966C43.0943 111.401 43.3603 111.973 43.4167 112.583C43.4731 113.193 43.3165 113.803 42.9735 114.311C42.6305 114.818 42.1222 115.191 41.5353 115.366C40.9483 115.541 40.3189 115.507 39.754 115.27C39.1892 115.034 38.7238 114.608 38.4371 114.067C38.1504 113.526 38.0601 112.902 38.1815 112.302C38.3029 111.701 38.6285 111.162 39.103 110.774C39.5774 110.387 40.1714 110.176 40.7839 110.177C41.1344 110.174 41.482 110.242 41.8053 110.378C42.1285 110.513 42.4208 110.713 42.664 110.966Z" fill="#F3FAFF"/>
<path d="M145.218 67.493L144.805 67.0779C145.586 66.2699 146.219 65.7146 146.705 65.4118C147.191 65.1091 147.971 64.8054 149.046 64.5007C150.122 64.1941 150.93 63.8918 151.47 63.5939C152.109 63.2198 152.693 62.7594 153.206 62.2258C154.159 61.2742 154.674 60.3842 154.749 59.556C154.824 58.7278 154.604 58.0558 154.089 57.54C153.746 57.1718 153.287 56.9333 152.788 56.8646C152.431 56.8212 152.166 56.8853 151.994 57.0569C151.878 57.1717 151.767 57.4185 151.66 57.7974C151.415 58.6565 151.099 59.2793 150.713 59.6659C150.553 59.8333 150.36 59.9659 150.146 60.0552C149.933 60.1446 149.703 60.1888 149.472 60.1851C149.238 60.1843 149.007 60.136 148.792 60.043C148.577 59.95 148.384 59.8143 148.224 59.6442C148.032 59.4594 147.881 59.2362 147.782 58.9892C147.682 58.7423 147.635 58.4771 147.645 58.211C147.659 57.6566 147.9 57.1475 148.368 56.6838C149.213 55.8392 150.322 55.4656 151.695 55.563C153.067 55.6603 154.408 56.3656 155.715 57.6788C157.106 59.073 157.834 60.4652 157.897 61.8555C157.961 63.2459 157.524 64.4096 156.586 65.3468C155.916 66.021 155.06 66.4798 154.127 66.6643C153.174 66.8629 151.806 66.7723 150.026 66.3924C148.83 66.1398 147.933 66.0829 147.334 66.2217C146.735 66.3606 146.03 66.7843 145.218 67.493ZM143.558 68.9696C143.954 69.3697 144.198 69.8945 144.251 70.4548C144.303 71.0151 144.16 71.5762 143.846 72.0429C143.531 72.5095 143.065 72.8529 142.526 73.0146C141.987 73.1764 141.409 73.1465 140.889 72.9301C140.37 72.7136 139.941 72.324 139.677 71.8274C139.412 71.3309 139.328 70.7579 139.438 70.2061C139.548 69.6542 139.845 69.1574 140.28 68.8002C140.715 68.443 141.26 68.2473 141.822 68.2465C142.146 68.2416 142.467 68.3033 142.765 68.4277C143.064 68.5521 143.334 68.7365 143.558 68.9696Z" fill="white"/>
<path d="M98.4989 37.9579L97.8857 38.7317C96.3806 37.5785 95.3287 36.6235 94.73 35.8667C94.1312 35.1098 93.4713 33.8622 92.7501 32.1238C92.0299 30.3825 91.3684 29.0886 90.7658 28.2421C90.1632 27.3956 89.2873 26.5158 88.138 25.6027C86.3611 24.1912 84.7702 23.5028 83.3654 23.5375C81.9606 23.5722 80.8798 24.0716 80.123 25.0358C79.5445 25.7657 79.2514 26.5322 79.2436 27.3353C79.2436 27.9427 79.4023 28.3737 79.7195 28.6282C79.9335 28.7975 80.3674 28.9363 81.0211 29.0433C82.5059 29.2863 83.6089 29.6946 84.3301 30.2683C84.6431 30.5035 84.9039 30.8013 85.0958 31.1426C85.2877 31.4839 85.4067 31.8614 85.4451 32.2511C85.4883 32.6428 85.4516 33.0391 85.3373 33.4162C85.2229 33.7933 85.0333 34.1433 84.7799 34.445C84.5082 34.8024 84.1643 35.0985 83.7706 35.314C83.3769 35.5296 82.9422 35.6597 82.4948 35.696C81.5653 35.7838 80.6667 35.4825 79.799 34.7921C78.2226 33.5387 77.3833 31.7584 77.2811 29.4512C77.1789 27.1439 78.1002 24.7639 80.0449 22.3111C82.1072 19.7156 84.2963 18.2288 86.6122 17.8509C88.9281 17.4729 90.9592 17.9777 92.7052 19.3651C93.9601 20.3538 94.8925 21.6934 95.3837 23.2135C95.9014 24.7716 96.0142 27.0774 95.7221 30.1309C95.5293 32.1845 95.6078 33.6973 95.9578 34.6692C96.3078 35.6411 97.1548 36.7373 98.4989 37.9579ZM101.293 40.4513C101.887 39.7121 102.719 39.2014 103.647 39.0061C104.575 38.8109 105.541 38.943 106.383 39.3802C107.224 39.8173 107.889 40.5325 108.262 41.404C108.636 42.2755 108.696 43.2495 108.433 44.1605C108.17 45.0715 107.599 45.8631 106.818 46.4008C106.037 46.9385 105.094 47.189 104.149 47.1098C103.204 47.0306 102.315 46.6265 101.635 45.9663C100.954 45.3061 100.523 44.4305 100.415 43.4884C100.346 42.949 100.389 42.4013 100.54 41.8789C100.691 41.3566 100.947 40.8707 101.293 40.4513Z" fill="#D2EAFF"/>
<path d="M134.103 93.2983L133.57 93.547C133.073 92.5337 132.766 91.746 132.648 91.1839C132.531 90.6218 132.511 89.7815 132.59 88.6631C132.669 87.5437 132.66 86.6784 132.566 86.0671C132.43 85.3366 132.195 84.6281 131.867 83.9614C131.297 82.7369 130.633 81.9472 129.877 81.5924C129.121 81.2376 128.412 81.2145 127.75 81.523C127.287 81.7203 126.905 82.0705 126.67 82.5151C126.506 82.8381 126.475 83.11 126.578 83.3308C126.648 83.4783 126.841 83.6678 127.157 83.8992C127.884 84.4246 128.363 84.9356 128.594 85.4322C128.698 85.6401 128.757 85.8672 128.769 86.0992C128.78 86.3312 128.744 86.563 128.661 86.7801C128.58 87.0003 128.455 87.2018 128.293 87.3724C128.132 87.5429 127.938 87.6789 127.722 87.7722C127.483 87.8905 127.221 87.9569 126.954 87.9671C126.686 87.9774 126.42 87.9311 126.172 87.8315C125.653 87.63 125.255 87.2303 124.976 86.6326C124.47 85.545 124.496 84.3726 125.056 83.1153C125.615 81.858 126.739 80.8351 128.428 80.0464C130.219 79.2124 131.781 79.0032 133.115 79.4187C134.45 79.8343 135.4 80.6471 135.966 81.8571C136.372 82.7179 136.512 83.68 136.369 84.6208C136.23 85.585 135.676 86.8437 134.708 88.397C134.06 89.4363 133.701 90.2612 133.632 90.8715C133.562 91.4818 133.719 92.2907 134.103 93.2983ZM134.928 95.3707C135.44 95.1355 136.019 95.0851 136.565 95.2282C137.11 95.3713 137.59 95.699 137.921 96.1556C138.253 96.6122 138.416 97.1695 138.383 97.7327C138.35 98.2959 138.122 98.8303 137.74 99.245C137.357 99.6597 136.843 99.9291 136.284 100.007C135.725 100.086 135.157 99.9678 134.675 99.6742C134.193 99.3805 133.828 98.9291 133.641 98.3966C133.455 97.8641 133.459 97.2834 133.652 96.7534C133.76 96.4476 133.929 96.1672 134.149 95.9294C134.37 95.6916 134.637 95.5015 134.933 95.3707H134.928Z" fill="#F3FAFF"/>
<path d="M124.412 35.4328C129.272 37.0367 131.882 41.0847 130.527 45.1906L130.47 45.3627C129.169 49.2979 126.075 50.1729 123.181 50.4317L122.327 50.4925C121.348 50.5865 120.915 50.9755 120.577 52.0009L120.17 53.2331L116.235 51.9315L116.721 50.4737C117.454 48.2494 118.601 47.0721 121.06 46.8581L121.88 46.7872C124.386 46.5515 125.831 46.08 126.486 44.0958C127.198 41.9394 125.79 39.9957 123.19 39.1366C120.486 38.2457 117.959 38.8907 117.09 41.5258L116.773 42.4847L112.838 41.183L113.211 40.0535C114.76 35.3648 119.485 33.813 124.412 35.4328ZM117.632 54.2614C119.343 54.8254 120.204 56.4756 119.638 58.1865C119.06 59.9321 117.389 60.7463 115.68 60.1808C114.002 59.6284 113.143 57.9782 113.719 56.2326C114.283 54.5232 115.956 53.7075 117.632 54.2614Z" fill="#F3FAFF"/>
<path d="M20.8594 111.201C20.6033 110.702 20.2486 110.259 19.8167 109.9C19.4008 109.551 18.9194 109.289 18.4008 109.129C17.5815 108.892 16.7113 108.896 15.8944 109.141C15.0774 109.386 14.3484 109.861 13.7946 110.51C13.446 110.926 13.1791 111.405 13.0078 111.92C12.8383 112.436 12.7739 112.98 12.8183 113.521C12.8626 114.08 13.0195 114.624 13.2797 115.121C13.6513 115.859 14.2379 116.468 14.9623 116.867C15.6868 117.265 16.515 117.435 17.3378 117.354C18.4914 117.228 19.5567 116.677 20.3258 115.808C20.8719 115.185 21.2155 114.41 21.3108 113.587C21.4062 112.764 21.2487 111.931 20.8594 111.2V111.201Z" fill="white"/>
<path d="M1.04104 90.0499C1.39179 89.5499 1.78728 89.0827 2.22262 88.6543C2.81646 88.091 3.49292 87.6219 4.22856 87.263C5.39133 86.6614 6.48132 86.4806 7.4985 86.7207C8.51569 86.9608 9.28943 87.5928 9.81972 88.6167C10.2337 89.3679 10.4338 90.2183 10.3982 91.0753C10.3511 91.8793 10.1849 92.6718 9.90505 93.4269C9.61837 94.2026 9.28016 94.9583 8.89268 95.6888C8.51782 96.3941 8.19165 97.1243 7.91647 97.8741C7.66274 98.5549 7.52583 99.2737 7.51152 100C7.50284 100.703 7.74388 101.398 8.23464 102.086L10.6296 105.617L15.0247 103.344L13.8837 99.718C13.7281 99.1619 13.7462 98.5715 13.9357 98.0259C14.1511 97.3657 14.414 96.7218 14.7225 96.0996C15.057 95.4169 15.4061 94.6866 15.7696 93.9085C16.1412 93.1094 16.4132 92.2676 16.5794 91.4022C16.7567 90.4483 16.7884 89.4731 16.6735 88.5097C16.5616 87.4771 16.201 86.3717 15.5917 85.1935C15.0167 84.0423 14.2044 83.0259 13.2083 82.2113C12.2758 81.4595 11.1896 80.9213 10.0265 80.6349C8.79825 80.344 7.52419 80.3017 6.27932 80.5105C4.85095 80.7502 3.47107 81.2206 2.1937 81.9033C1.50833 82.2558 0.848228 82.6555 0.218134 83.0993C-0.105109 85.7589 -0.0520411 88.4508 0.375774 91.0956C0.553661 90.7817 0.776382 90.4375 1.04104 90.0499Z" fill="white"/>
<path d="M90.6541 49.1822C90.9666 49.0101 91.2903 48.8594 91.6231 48.731C91.9726 48.5967 92.3338 48.495 92.702 48.4273C93.1 48.3557 93.5038 48.3218 93.9082 48.326C94.3578 48.3287 94.8061 48.3772 95.2459 48.4707C95.8451 48.588 96.421 48.8025 96.951 49.1056C97.4138 49.3691 97.819 49.7226 98.1427 50.1454C98.4484 50.549 98.6607 51.0152 98.7646 51.5107C98.8727 52.0419 98.8673 52.5899 98.7487 53.1189C98.587 54.0158 98.115 54.8272 97.4153 55.4112C97.1305 55.6504 96.8172 55.8535 96.4825 56.0157C96.1556 56.1733 95.8476 56.3194 95.5554 56.4496C95.2889 56.5701 95.0317 56.7103 94.786 56.869C94.5784 56.9961 94.4149 57.1839 94.3174 57.407L93.723 58.8952L91.6809 58.4613L91.8429 56.6679C91.8516 56.3493 91.9638 56.0422 92.1625 55.793C92.3604 55.559 92.5966 55.3605 92.8611 55.2058C93.1507 55.0345 93.4518 54.8833 93.7621 54.7531C94.0829 54.6168 94.3945 54.4598 94.6949 54.2831C94.9873 54.1112 95.2529 53.8973 95.4831 53.6482C95.7223 53.3772 95.8833 53.0462 95.9488 52.6908C96.0028 52.4789 96.0081 52.2576 95.9643 52.0434C95.9204 51.8293 95.8286 51.6278 95.6957 51.4542C95.3893 51.0825 94.9579 50.8351 94.4823 50.7586C94.1461 50.68 93.7998 50.6531 93.4555 50.6791C93.1995 50.7045 92.9464 50.7529 92.6991 50.8237C92.4822 50.8873 92.297 50.9481 92.1423 51.0059C92.0108 51.0611 91.8663 51.0777 91.7258 51.0536C91.599 51.0318 91.4809 50.9747 91.3852 50.8887C91.2895 50.8027 91.2201 50.6914 91.1849 50.5677L90.6541 49.1822ZM90.0134 62.288C90.0604 62.056 90.1545 61.8359 90.2897 61.6416C90.4193 61.4527 90.5855 61.2919 90.7785 61.1686C91.1831 60.9166 91.6695 60.8307 92.136 60.9288C92.6025 61.0269 93.0131 61.3014 93.2819 61.6951C93.4081 61.8857 93.4951 62.0996 93.5379 62.3242C93.5819 62.558 93.579 62.7982 93.5293 63.0308C93.4797 63.2634 93.3843 63.4839 93.2487 63.6793C93.1184 63.867 92.9519 64.0266 92.7588 64.1489C92.5658 64.2711 92.3503 64.3534 92.1249 64.3909C91.6423 64.4696 91.1476 64.3665 90.7366 64.1016C90.547 63.9747 90.3839 63.8121 90.2564 63.6229C90.1265 63.4292 90.0374 63.2111 89.9944 62.9819C89.9514 62.7527 89.9554 62.5171 90.0062 62.2895L90.0134 62.288Z" fill="#F3FAFF"/>
<path d="M43.0193 119.423C47.8382 115.78 53.5219 115.962 56.5995 120.035L56.7282 120.204C59.6786 124.109 58.4492 127.701 56.7586 130.685L56.2437 131.553C55.6768 132.565 55.765 133.248 56.533 134.266L57.4571 135.486L53.5523 138.437L52.4502 136.978C50.7827 134.772 50.4096 132.867 51.8544 130.335L52.336 129.492C53.7909 126.899 54.3029 125.179 52.8147 123.211C51.1978 121.073 48.3661 121.135 45.7874 123.085C43.1061 125.11 42.0373 128.002 44.0114 130.605L44.7346 131.556L40.8297 134.506L39.9822 133.386C36.4693 128.746 38.1325 123.117 43.0193 119.423ZM56.747 138.641C58.4435 137.358 60.6229 137.628 61.9058 139.326C63.2074 141.062 62.8805 143.231 61.1826 144.511C59.5209 145.768 57.3414 145.494 56.034 143.765C54.7527 142.068 55.0838 139.897 56.747 138.641Z" fill="#D2EAFF"/>
<path d="M74.448 86.9769C78.4324 87.363 81.1224 90.0024 80.797 93.3693L80.7825 93.5139C80.4701 96.7404 78.2588 97.9423 76.0953 98.6393L75.4531 98.8317C74.7213 99.0732 74.4596 99.4435 74.3786 100.278L74.2802 101.29L71.0537 100.978L71.1708 99.7718C71.3473 97.9466 72.0198 96.8518 73.8608 96.2646L74.474 96.0694C76.3469 95.4576 77.3665 94.8488 77.5256 93.2217C77.6962 91.453 76.2876 90.2121 74.1544 90.0067C71.9388 89.7913 70.1208 90.7197 69.9126 92.8804L69.8359 93.6657L66.6094 93.3533L66.699 92.4278C67.0707 88.5851 70.4086 86.5864 74.448 86.9769ZM72.5202 102.509C73.923 102.644 74.8631 103.755 74.7271 105.158C74.5825 106.589 73.4515 107.499 72.0501 107.363C70.6748 107.23 69.7361 106.119 69.8735 104.688C69.8948 104.367 69.9814 104.055 70.1281 103.769C70.2747 103.483 70.4783 103.231 70.7262 103.027C70.9741 102.823 71.2612 102.671 71.5697 102.582C71.8782 102.494 72.2017 102.469 72.5202 102.509Z" fill="#D2EAFF"/>
<path d="M85.1198 74.3901L80.7402 71.1765L76.9911 76.286L81.3706 79.4996L85.1198 74.3901Z" fill="#222222"/>
<path d="M129.043 102.981L86.8435 72.0443L83.2539 76.9398L130.351 111.47C131.303 110.171 131.7 108.547 131.455 106.955C131.21 105.363 130.342 103.933 129.043 102.981Z" fill="#92CBFF"/>
<path d="M79.6621 81.8413L121.86 112.778C123.159 113.731 124.783 114.129 126.375 113.885C127.967 113.641 129.397 112.774 130.35 111.476L83.2531 76.9399L79.6621 81.8413Z" fill="#BBDCFF"/>
<path opacity="0.4" d="M73.531 76.3886C86.7793 63.1403 86.7793 41.6605 73.531 28.4122C60.2827 15.1639 38.8029 15.1639 25.5546 28.4122C12.3063 41.6605 12.3063 63.1403 25.5546 76.3886C38.8029 89.6369 60.2827 89.6369 73.531 76.3886Z" fill="white"/>
<path d="M71.7665 22.3182C55.168 10.1524 31.8488 13.7391 19.6816 30.3405C7.51438 46.9419 11.1054 70.2567 27.7024 82.4239C44.2995 94.5911 67.6187 90.9987 79.7873 74.4016C91.956 57.8046 88.3664 34.4854 71.7665 22.3182ZM55.0884 85.8718C36.591 88.8279 19.1928 76.2268 16.2352 57.725C13.2776 39.2233 25.8787 21.8294 44.379 18.8704C62.8793 15.9113 80.2776 28.5153 83.2352 47.0156C86.1927 65.5159 73.5902 82.9128 55.0884 85.8718Z" fill="#222222"/>
<g style="mix-blend-mode:multiply">
<path d="M66.8752 23.0963C72.7748 28.2952 76.675 35.3901 77.9027 43.1571C80.8603 61.6574 68.2607 79.0528 49.7589 82.0103C41.9961 83.2639 34.0392 81.7699 27.2598 77.7859C31.0109 81.1085 35.4527 83.5573 40.2648 84.9556C45.0768 86.3539 50.1392 86.6668 55.0869 85.8718C73.5886 82.9128 86.1955 65.5145 83.2336 47.0157C82.4473 42.0665 80.5721 37.3536 77.7432 33.2171C74.9143 29.0807 71.2023 25.6239 66.8752 23.0963Z" fill="#E6F4FF"/>
</g>
<g style="mix-blend-mode:multiply">
<path d="M47.3016 31.7522C56.5937 30.3219 64.2458 34.7705 65.4548 42.6221L65.5055 42.9504C66.6624 50.4709 62.3237 54.4929 57.8057 57.3319L56.4563 58.1389C54.932 59.1107 54.5487 60.1072 54.851 62.0697L55.214 64.4257L47.6936 65.5826L47.2597 62.7697C46.6045 58.5163 47.5012 55.6311 51.3511 53.2245L52.6354 52.4233C56.5402 49.9459 58.5129 47.9674 57.9286 44.1725C57.2894 40.0609 53.3672 38.0535 48.3892 38.82C43.2203 39.6154 39.6221 42.7827 40.3973 47.8214L40.6793 49.6538L33.1589 50.8108L32.8262 48.6515C31.4407 39.6877 37.8779 33.2042 47.3016 31.7522Z" fill="#E6F4FF"/>
</g>
<g style="mix-blend-mode:multiply">
<path d="M51.9198 68.2205C55.1912 67.7172 57.9752 69.7 58.4785 72.9714C58.9934 76.3093 56.934 79.0384 53.6626 79.5417C50.4562 80.0349 47.6722 78.0521 47.1545 74.7156C46.6483 71.4442 48.7063 68.7151 51.9198 68.2205Z" fill="#E6F4FF"/>
</g>
<path d="M45.594 30.047C54.8861 28.6152 62.5382 33.0639 63.7472 40.9169L63.7979 41.2438C64.9548 48.7642 60.6161 52.7862 56.0995 55.6266L54.7502 56.4365C53.2244 57.4084 52.8426 58.4063 53.1448 60.3689L53.5107 62.7248L45.9903 63.8818L45.5564 61.0674C44.9013 56.814 45.7965 53.9302 49.6478 51.5294L50.9307 50.7282C54.8355 48.2508 56.8096 46.2724 56.2239 42.476C55.589 38.3542 51.6639 36.3468 46.6903 37.1119C41.52 37.9088 37.9217 41.0746 38.6984 46.1133L38.9876 47.9457L31.4672 49.1026L31.1345 46.9434C29.7346 37.9825 36.1718 31.4976 45.594 30.047Z" fill="#92CBFF"/>
<path d="M50.2058 66.5154C53.4772 66.0122 56.2627 67.9949 56.7659 71.2663C57.2794 74.6028 55.2214 77.3319 51.95 77.8366C48.7437 78.3298 45.9596 76.347 45.4419 73.0091C44.9415 69.7377 47.0024 67.0086 50.2058 66.5154Z" fill="#92CBFF"/>
<path d="M56.7671 71.2663C56.3101 68.3001 53.9774 66.4012 51.1095 66.4446C53.1183 66.809 54.6629 68.3377 55.0042 70.5505C55.4496 73.4429 53.6621 75.8191 50.8202 76.2573C48.4484 76.6218 46.347 75.4228 45.498 73.2679C46.1156 76.4497 48.8244 78.3168 51.9512 77.8366C55.2226 77.3319 57.2806 74.6028 56.7671 71.2663Z" fill="#76B8F4"/>
<path d="M63.7485 40.9168C63.4947 39.2058 62.8879 37.5663 61.9667 36.1023C65.2193 43.0645 62.3124 47.3367 61.6659 48.6846C59.5631 53.071 54.0789 55.0177 52.4519 56.6389C50.8249 58.2601 51.6391 61.1526 52.0007 62.9503L53.5091 62.7189L53.1461 60.363C52.8438 58.4004 53.2256 57.4025 54.7514 56.4306L56.1008 55.6207C60.6203 52.7803 64.959 48.7627 63.7991 41.2379L63.7485 40.9168Z" fill="#76B8F4"/>
<path d="M38.6928 46.1146C37.9161 41.073 41.5086 37.9101 46.6847 37.1132C48.815 36.7864 50.7341 37.0106 52.325 37.6064C47.3109 35.2476 41.3336 37.0872 39.131 39.514C36.7186 42.1751 37.0035 45.9512 37.4186 48.1914L38.9762 47.9514L38.6928 46.1146Z" fill="#76B8F4"/>
<path d="M111.476 82.4573C109.408 79.666 105.039 77.3593 102.699 76.6246C102.375 76.0663 102.433 75.8031 101.253 74.3814C99.4234 72.1673 94.5712 72.2641 93.138 72.9887C91.7048 73.7133 95.5605 91.7103 96.1607 95.1234C95.9943 94.9691 95.8369 94.8054 95.6892 94.6331C92.3628 90.7167 85.2878 84.7062 80.8276 85.5739C78.531 86.0208 77.5013 86.6325 76.4238 87.4236C77.0819 88.5025 83.522 95.0164 85.8244 99.0369C89.2028 104.942 90.7416 112.807 96.2156 115.379C97.0501 115.773 97.9106 116.211 98.8478 116.518C104.293 118.304 109.883 122.133 116.749 118.939C125.197 115.008 126.994 105.189 126.524 101.167C126.037 96.992 121.97 92.5954 120.016 91.3025C118.815 87.3123 113.494 83.3178 111.476 82.4573Z" fill="#FFC7B3"/>
<path d="M78.0156 89.3166C79.2406 90.6949 80.9689 92.6054 82.5583 94.5376C83.0297 94.1138 84.2865 92.9568 84.972 92.011C83.7326 90.8858 82.9603 90.1497 82.0101 89.3644C80.3151 87.9659 79.0511 88.2999 78.0156 89.3166Z" fill="#FFD8CC"/>
<path d="M96.1591 95.1233C95.9927 94.969 95.8353 94.8053 95.6876 94.6331C93.5674 92.1412 89.9359 88.8047 86.4316 86.929C92.085 90.1613 95.462 99.1699 96.9762 102.149C97.5518 99.3478 96.1591 95.1233 96.1591 95.1233Z" fill="#F2AA91"/>
<path d="M123.15 94.3064C122.012 92.9281 120.836 91.8478 120.012 91.3083C120.783 93.3201 122.268 98.0681 122.615 100.329C122.726 101.046 123.494 97.854 123.15 94.3064Z" fill="#F2AA91"/>
<path d="M105.746 77.9523C104.771 77.4247 103.751 76.9829 102.699 76.6318C103.856 79.0196 107.158 87.1257 107.537 89.5815C107.813 91.3661 109.682 88.2755 105.746 77.9523Z" fill="#F2AA91"/>
<path d="M114.998 84.7872C113.613 83.6446 112.282 82.8015 111.477 82.4573C112.161 83.231 115.026 89.8403 115.708 94.2673C115.943 95.793 116.897 91.5295 114.998 84.7872Z" fill="#F2AA91"/>
<path d="M95.9199 115.241C99.8927 117.654 101.696 129.366 101.828 136.259C106.582 136.296 126.882 132.588 126.882 132.588C124.914 123.143 123.106 117.777 125.283 109.321C115.307 108.724 95.9199 115.241 95.9199 115.241Z" fill="#FFC7B3"/>
<path d="M97.5488 126.265L100.514 143.743L130.258 138.703L127.294 121.225C120.34 117.466 106.365 120.182 97.5488 126.265Z" fill="white"/>
<path d="M95.793 133.724C95.793 133.724 98.59 149.82 99.2784 154.285C99.7325 157.234 109.211 147.874 119.782 147.913C124.223 147.93 125.214 149.43 128.471 150.227C132.023 151.103 134.428 149.266 134.272 148.347C133.47 143.616 130.786 127.784 130.786 127.784C122.608 123.364 106.164 126.571 95.793 133.724Z" fill="#556BFF"/>
<path d="M99.8286 127.863C99.7974 127.663 99.8264 127.458 99.9118 127.275C99.9971 127.091 100.135 126.937 100.308 126.831C100.481 126.726 100.682 126.674 100.884 126.683C101.087 126.692 101.282 126.76 101.445 126.88C101.609 127 101.733 127.165 101.802 127.356C101.872 127.546 101.883 127.753 101.835 127.949C101.787 128.146 101.681 128.324 101.532 128.461C101.383 128.598 101.196 128.687 100.996 128.718C100.728 128.759 100.454 128.692 100.235 128.532C100.017 128.372 99.8703 128.131 99.8286 127.863Z" fill="#92CBFF"/>
<path d="M103.896 129.399C101.05 130.549 98.3356 131.999 95.7969 133.723C95.7969 133.723 98.5939 149.82 99.2823 154.285C99.5267 155.875 102.409 153.877 106.674 151.707C105.286 144.19 103.964 130.884 103.896 129.399Z" fill="#495EEA"/>
<defs>
<linearGradient id="paint0_linear_3443_11755" x1="80.4072" y1="36" x2="80.4072" y2="156.113" gradientUnits="userSpaceOnUse">
<stop stop-color="#E4F1FF" stop-opacity="0"/>
<stop offset="1" stop-color="#E4F1FF"/>
</linearGradient>
</defs>
</svg>
