<svg width="10" height="10" viewBox="0 0 10 10" fill="none" xmlns="http://www.w3.org/2000/svg">
<path d="M4.48704 3.07653C4.48704 3.85552 3.85552 4.48704 3.07653 4.48704C2.29753 4.48704 1.66602 3.85552 1.66602 3.07653C1.66602 2.29753 2.29753 1.66602 3.07653 1.66602C3.85552 1.66602 4.48704 2.29753 4.48704 3.07653Z" stroke="white" stroke-width="1.5" stroke-miterlimit="10" stroke-linecap="round" stroke-linejoin="round"/>
<path d="M9.00071 7.5902C9.00071 8.3692 8.3692 9.00071 7.5902 9.00071C6.8112 9.00071 6.17969 8.3692 6.17969 7.5902C6.17969 6.8112 6.8112 6.17969 7.5902 6.17969C8.3692 6.17969 9.00071 6.8112 9.00071 7.5902Z" stroke="white" stroke-width="1.5" stroke-miterlimit="10" stroke-linecap="round" stroke-linejoin="round"/>
<path d="M6.17969 1.66602H9.00071V4.48704" stroke="white" stroke-width="1.5" stroke-miterlimit="10" stroke-linecap="round" stroke-linejoin="round"/>
<path d="M1.66602 9.00067L9.00067 1.66602" stroke="white" stroke-width="1.5" stroke-miterlimit="10" stroke-linecap="round" stroke-linejoin="round"/>
</svg>
