<svg width="9" height="9" viewBox="0 0 9 9" fill="none" xmlns="http://www.w3.org/2000/svg">
<path d="M0.875854 3.8764C0.758386 3.76777 0.822195 3.57138 0.981081 3.55255L3.23242 3.28562C3.29718 3.27794 3.35342 3.23714 3.38074 3.17793L4.33032 1.11923C4.39734 0.973941 4.60388 0.973922 4.6709 1.11921L5.62048 3.17796C5.6478 3.23717 5.70368 3.27795 5.76843 3.28562L8.0199 3.55255C8.17878 3.57138 8.24256 3.76778 8.12509 3.87641L6.46071 5.41569C6.41284 5.45996 6.39147 5.52596 6.40417 5.58991L6.84592 7.81359C6.8771 7.97052 6.7101 8.09188 6.57048 8.01373L4.59222 6.90639C4.53532 6.87454 4.46601 6.8745 4.40911 6.90635L2.43065 8.01375C2.29104 8.0919 2.12385 7.97054 2.15503 7.81361L2.59688 5.58989C2.60959 5.52593 2.58825 5.45998 2.54037 5.41571L0.875854 3.8764Z" stroke="white" stroke-width="1.5" stroke-linecap="round" stroke-linejoin="round"/>
</svg>
