<svg width="34" height="34" viewBox="0 0 34 34" fill="none" xmlns="http://www.w3.org/2000/svg">
<circle cx="17" cy="17" r="17" fill="#474747"/>
<path d="M16.9871 10.3303C17.4777 10.3303 17.9482 10.5251 18.2951 10.872C18.642 11.2189 18.8369 11.6894 18.8369 12.18C18.8369 12.2962 18.883 12.4077 18.9653 12.4899C19.0475 12.5721 19.1589 12.6183 19.2752 12.6183C19.3914 12.6183 19.5029 12.5721 19.5851 12.4899C19.6673 12.4077 19.7135 12.2962 19.7135 12.18C19.7135 11.4569 19.4263 10.7634 18.915 10.2521C18.4037 9.74085 17.7102 9.45361 16.9871 9.45361C16.8709 9.45361 16.7594 9.49979 16.6772 9.58199C16.595 9.6642 16.5488 9.77568 16.5488 9.89194C16.5488 10.0082 16.595 10.1197 16.6772 10.2019C16.7594 10.2841 16.8709 10.3303 16.9871 10.3303Z" fill="white"/>
<path d="M19.4759 18.7373C19.3724 18.6853 19.2525 18.6764 19.1425 18.7125C19.0324 18.7487 18.9411 18.8269 18.8886 18.9302C18.8616 18.9812 18.8453 19.0371 18.8404 19.0946C18.8355 19.1521 18.8423 19.21 18.8603 19.2648C18.8783 19.3196 18.9072 19.3702 18.9452 19.4137C18.9832 19.4571 19.0295 19.4924 19.0815 19.5175C20.3789 20.1662 20.3789 22.2789 20.3789 22.9715C20.3789 23.0877 20.4251 23.1992 20.5073 23.2814C20.5895 23.3636 20.701 23.4098 20.8172 23.4098C20.9335 23.4098 21.0449 23.3636 21.1272 23.2814C21.2094 23.1992 21.2555 23.0877 21.2555 22.9715C21.2555 22.1474 21.2555 19.6315 19.4759 18.7373Z" fill="white"/>
<path d="M20.7915 16.0813H20.7477C21.5107 15.3326 22.0336 14.3738 22.2496 13.3269C22.4656 12.28 22.3651 11.1925 21.9607 10.203C21.5564 9.21344 20.8665 8.36672 19.9792 7.77072C19.0918 7.17473 18.047 6.85645 16.9781 6.85645C15.9091 6.85645 14.8644 7.17473 13.977 7.77072C13.0896 8.36672 12.3998 9.21344 11.9954 10.203C11.5911 11.1925 11.4905 12.28 11.7066 13.3269C11.9226 14.3738 12.4455 15.3326 13.2085 16.0813C11.3851 17.6242 10.3419 18.7112 10 23.0944C10.0178 23.5098 10.1512 23.912 10.385 24.2558C10.6188 24.5996 10.9439 24.8714 11.3237 25.0406C13.0965 25.8577 15.036 26.248 16.9869 26.1802C18.9438 26.2641 20.8929 25.8857 22.6763 25.0756C23.0653 24.8995 23.3963 24.6165 23.6307 24.2595C23.865 23.9026 23.9931 23.4863 24 23.0593C23.6581 18.7024 22.6149 17.6242 20.7915 16.0813ZM20.5986 12.2065C20.5986 12.925 20.3853 13.6274 19.9857 14.2246C19.5862 14.8218 19.0183 15.287 18.3541 15.5612C17.6899 15.8353 16.9593 15.9062 16.2548 15.7647C15.5503 15.6233 14.9037 15.2759 14.3968 14.7665C13.8899 14.2572 13.5457 13.6089 13.4076 12.9037C13.2696 12.1986 13.344 11.4683 13.6213 10.8054C13.8987 10.1426 14.3666 9.57697 14.9658 9.18029C15.5649 8.78362 16.2683 8.57372 16.9869 8.57719C17.9464 8.58182 18.865 8.96624 19.5418 9.64637C20.2187 10.3265 20.5986 11.247 20.5986 12.2065ZM12.1741 23.6029C11.9962 23.52 11.8424 23.3933 11.727 23.2347C12.025 19.4037 12.7877 18.755 14.3131 17.4664L14.7076 17.1332L14.9267 17.2297L16.1979 18.9829L14.6637 22.4895L16.2505 24.4269C14.8451 24.434 13.4547 24.138 12.1741 23.559V23.6029ZM21.8172 23.6029C20.525 24.1853 19.1231 24.4843 17.7057 24.4795L19.2924 22.5421L17.7583 19.0355L19.0294 17.2823L19.2749 17.1683L19.6781 17.519C21.2035 18.8076 21.9662 19.4563 22.2642 23.2259C22.2467 23.2171 22.1065 23.3837 21.7996 23.559L21.8172 23.6029Z" fill="white"/>
</svg>
