<svg width="51" height="47" viewBox="0 0 51 47" fill="none" xmlns="http://www.w3.org/2000/svg">
<path fill-rule="evenodd" clip-rule="evenodd" d="M22.6743 6.58886L22.0393 7.37372L21.5004 8.25608L8.04689 39.0575L7.60433 40.0649L7.32615 41.0536L7.20437 42.0084L7.2315 42.914L7.40031 43.7541L7.70361 44.5117L8.13442 45.1696L8.68538 45.7094L9.34895 46.1127L10.1171 46.3603L10.9817 46.433L11.9335 46.3114L44.1827 39.3155L45.3396 38.9486L46.4026 38.4078L47.3571 37.7176L48.1892 36.9035L48.8855 35.9913L49.4334 35.0073L49.8211 33.9779L50.0375 32.9292L50.0723 31.8874L49.9161 30.8779L49.5601 29.9257L48.9966 29.0549L30.226 5.41306L29.6612 4.87466L29.0001 4.50415L28.264 4.29262L27.4735 4.23144L26.6484 4.31235L25.8084 4.52746L24.9724 4.86934L24.1592 5.33107L23.387 5.9062L22.6743 6.58886Z" fill="url(#paint0_linear_3357_6535)" fill-opacity="0.35"/>
<g filter="url(#filter0_b_3357_6535)">
<path fill-rule="evenodd" clip-rule="evenodd" d="M49.8509 29.787L49.2742 28.8899L31.211 6.41544L30.2607 5.41778L29.2939 4.40284L28.3101 3.3701L27.3091 2.3192L26.2901 1.24951L44.5541 24.1139L45.1384 25.0348L45.5074 26.042L45.6694 27.1096L45.6333 28.2115L45.4089 29.3206L45.007 30.4093L44.4389 31.45L43.7169 32.4148L42.8542 33.2759L41.8644 34.0058L40.7623 34.5778L39.5628 34.9659L5.46698 42.859L4.4801 42.9876L3.58371 42.9107L2.78714 42.6488L4.07119 43.3863L5.33173 44.1104L6.5694 44.8213L7.78481 45.5194L8.97857 46.2051L9.76176 46.468L10.6387 46.5535L11.6 46.4415L44.5951 39.2748L45.749 38.9175L46.8062 38.3821L47.7524 37.6932L48.5742 36.8764L49.2587 35.9578L49.7937 34.9639L50.1677 33.9212L50.37 32.8562L50.3906 31.795L50.2204 30.7636L49.8509 29.787Z" fill="url(#paint1_linear_3357_6535)" fill-opacity="0.6"/>
</g>
<g filter="url(#filter1_b_3357_6535)">
<path fill-rule="evenodd" clip-rule="evenodd" d="M18.4607 2.49329L17.8023 3.32339L17.2436 4.25661L1.43767 35.1871L0.978799 36.2527L0.690365 37.2983L0.564099 38.3082L0.592228 39.266L0.767254 40.1544L1.08174 40.9557L1.52842 41.6515L2.09967 42.2225L2.78769 42.649L3.58419 42.9109L4.48064 42.9878L5.46753 42.8592L39.5634 34.9661L40.7629 34.578L41.865 34.006L42.8547 33.2761L43.7175 32.415L44.4394 31.4503L45.0075 30.4095L45.4095 29.3208L45.6338 28.2117L45.6699 27.1099L45.508 26.0422L45.1389 25.0351L44.5546 24.1141L26.2907 1.24972L25.705 0.680286L25.0196 0.28842L24.2564 0.0646995L23.4367 -1.94369e-06L22.5813 0.0855643L21.7103 0.313072L20.8435 0.674665L20.0003 1.163L19.1997 1.77128L18.4607 2.49329Z" fill="url(#paint2_linear_3357_6535)" fill-opacity="0.2"/>
</g>
<g filter="url(#filter2_d_3357_6535)">
<path fill-rule="evenodd" clip-rule="evenodd" d="M22.9245 8.41649L22.9804 8.50829L23.4233 8.81199L23.8661 9.11569L23.823 9.00351L23.7667 8.91194L23.3456 8.66421L22.9245 8.41649ZM23.6975 8.84093L22.8559 8.3457L22.8554 8.34537L22.9245 8.41649L23.7662 8.91161L23.7667 8.91194L23.6975 8.84093ZM22.9804 8.50829L23.4233 8.81199L23.8661 9.11569L23.8961 9.2485L23.4746 9.00133L23.0531 8.75416L23.0234 8.62089L22.9804 8.50829ZM23.6856 8.8339L23.6975 8.84093L23.6965 8.84028L23.6153 8.79046L22.7852 8.30199L22.7733 8.29492L22.7743 8.29557L22.8554 8.34537L23.6856 8.8339ZM23.0531 8.75416L23.4746 9.00133L23.8961 9.2485L23.9131 9.40198L23.9169 9.57615L23.6685 23.0066L23.6685 23.0072L23.6596 23.175L23.6392 23.3325L23.6073 23.4795L23.5639 23.616L23.509 23.7419L23.4427 23.8573L23.3649 23.962L23.2757 24.056L23.1752 24.1394L23.0633 24.2121L22.9401 24.2741L22.8056 24.3254L21.2701 24.8295L21.1378 24.8658L21.0168 24.8842L20.907 24.8847L20.8085 24.8674L20.0207 24.4723L20.0204 24.4721L20.1302 24.4714L20.2514 24.4526L20.3839 24.4158L21.9223 23.9054L22.057 23.8535L22.1805 23.7909L22.2928 23.7175L22.3936 23.6335L22.4832 23.5387L22.5614 23.4334L22.628 23.3172L22.6833 23.1905L22.7271 23.0533L22.7595 22.9055L22.7802 22.7471L22.7895 22.5784L23.073 9.08373L23.0731 9.08323L23.0696 8.90827L23.0531 8.75416ZM20.8822 31.6984L21.0315 31.6629L23.0843 31.0571L23.2369 31.0034L23.3763 30.9364L23.5024 30.8559L23.6152 30.7621L23.7146 30.6548L23.8006 30.5342L23.8731 30.4003L23.9322 30.2532L23.9777 30.0928L24.0097 29.9192L24.0282 29.7326L24.0332 29.533L24.0147 27.3379L24.0064 27.1451L23.9851 26.9736L23.9507 26.8234L23.9033 26.6944L23.8429 26.5866L23.7694 26.4999L23.6831 26.4344L22.7956 26.0231L22.7953 26.0229L22.8815 26.0886L22.9548 26.1755L23.015 26.2837L23.0622 26.4132L23.0962 26.5641L23.1171 26.7365L23.1249 26.9302L23.1377 29.1367L23.1323 29.3373L23.1132 29.525L23.0807 29.6995L23.0347 29.8608L22.9752 30.0089L22.9023 30.1437L22.8159 30.2651L22.7161 30.3731L22.6029 30.4677L22.4764 30.5489L22.3367 30.6166L20.1271 31.2843L19.9775 31.3204L19.8411 31.3354L19.7181 31.3293L20.5131 31.6795L20.6229 31.7067L20.746 31.713L20.8822 31.6984ZM19.7181 31.3293L19.6081 31.3022L20.5131 31.6795L19.7181 31.3293Z" fill="url(#paint3_linear_3357_6535)"/>
<path fill-rule="evenodd" clip-rule="evenodd" d="M22.5708 8.25586L22.5708 8.25586L22.5708 8.25586L22.5708 8.25586L22.679 8.26509L22.7742 8.29491L22.7742 8.29491L22.7742 8.29493L22.8563 8.34536L22.9253 8.41644L22.9254 8.41647L22.9254 8.41647L22.9814 8.50828L23.0242 8.62082L23.0242 8.62083L23.0242 8.62083L23.0242 8.62083L23.0242 8.62083L22.7742 8.29492L22.7742 8.29492L22.7742 8.29493L23.0242 8.62083L23.0706 8.90826L23.0739 9.0832L22.7905 22.5776L22.7905 22.5784L22.7811 22.7471L22.7603 22.9054L22.728 23.0532L22.6842 23.1905L22.6289 23.3172L22.5622 23.4333L22.4841 23.5387L22.3946 23.6335L22.2937 23.7175L22.1815 23.7909L22.058 23.8535L21.9233 23.9054L20.3848 24.4158L20.2523 24.4526L20.1311 24.4714L20.0213 24.4721L19.9227 24.4549L19.8354 24.4198L19.8354 24.4198L19.8353 24.4197L19.7593 24.3667L19.6946 24.2959L19.6945 24.2958L19.6945 24.2958L19.6945 24.2958L19.6945 24.2957L19.6408 24.207L19.5984 24.1005L19.5984 24.1004L19.5469 23.8339L19.5468 23.8338L19.5378 23.6739L19.264 10.6147L19.264 10.6145L19.2672 10.4403L19.2832 10.2761L19.3119 10.1218L19.3532 9.97748L19.4073 9.84306L19.4741 9.71849L19.5536 9.60372L19.6459 9.49874L19.751 9.40349L19.8689 9.31798L19.9998 9.24218L20.1437 9.17608L22.1687 8.35125L22.3156 8.29899L22.3156 8.29899L22.3157 8.29897L22.4497 8.26717L22.5708 8.25586L22.5708 8.25586ZM19.5983 24.1004L19.567 23.976L19.5468 23.8338L19.5983 24.1004ZM19.378 27.3169L19.4488 27.1858L19.5323 27.0674L19.6285 26.9616L19.7375 26.8682L19.8593 26.7875L19.994 26.7192L19.9941 26.7192L20.1417 26.6634L22.1707 26.012L22.3215 25.972L22.4595 25.9531L22.5847 25.9552L22.6969 25.9785L22.7962 26.0229L22.8825 26.0885L22.8825 26.0885L22.8826 26.0888L22.9557 26.1755L23.0157 26.2833L23.016 26.2837L23.0161 26.284L23.0631 26.4132L23.097 26.5637L23.0971 26.5641L23.0972 26.5641L23.0971 26.5643L23.0972 26.5648L23.1181 26.7364L23.1258 26.9301L23.1258 26.9302L23.1387 29.1366L23.1331 29.3373L23.1141 29.525L23.0816 29.6995L23.0356 29.8608L22.9761 30.0088L22.9761 30.0089L22.9761 30.0089L22.9032 30.1437L22.8168 30.2651L22.7169 30.3731L22.6038 30.4677L22.6037 30.4677L22.6035 30.4678L22.4773 30.5489L22.3378 30.6165L22.3376 30.6166L20.128 31.2843L19.9784 31.3204L19.842 31.3353L19.7189 31.3293L19.609 31.3022L19.5123 31.2542L19.4288 31.1854L19.4287 31.1853L19.4287 31.1853L19.3582 31.0955L19.3009 30.9849L19.3009 30.9847L19.3008 30.9847L19.3008 30.9845L19.2566 30.8535L19.2253 30.7015L19.2253 30.7013L19.207 30.5285L19.2017 30.3349L19.2017 30.3349L19.214 28.1628L19.2215 27.968L19.2416 27.786L19.2744 27.6169L19.3199 27.4605L19.378 27.3169ZM19.2744 27.6169L19.2215 27.968L19.2017 30.3349L19.2215 27.968L19.2744 27.6169L19.5323 27.0674L19.5323 27.0674L19.2744 27.6169ZM23.054 8.75415L23.0243 8.62083L23.0706 8.90826L23.054 8.75415Z" fill="url(#paint4_linear_3357_6535)" fill-opacity="0.8"/>
</g>
<defs>
<filter id="filter0_b_3357_6535" x="-27.2129" y="-28.7505" width="107.604" height="105.304" filterUnits="userSpaceOnUse" color-interpolation-filters="sRGB">
<feFlood flood-opacity="0" result="BackgroundImageFix"/>
<feGaussianBlur in="BackgroundImageFix" stdDeviation="15"/>
<feComposite in2="SourceAlpha" operator="in" result="effect1_backgroundBlur_3357_6535"/>
<feBlend mode="normal" in="SourceGraphic" in2="effect1_backgroundBlur_3357_6535" result="shape"/>
</filter>
<filter id="filter1_b_3357_6535" x="-12.4355" y="-13" width="71.1055" height="68.9878" filterUnits="userSpaceOnUse" color-interpolation-filters="sRGB">
<feFlood flood-opacity="0" result="BackgroundImageFix"/>
<feGaussianBlur in="BackgroundImageFix" stdDeviation="6.5"/>
<feComposite in2="SourceAlpha" operator="in" result="effect1_backgroundBlur_3357_6535"/>
<feBlend mode="normal" in="SourceGraphic" in2="effect1_backgroundBlur_3357_6535" result="shape"/>
</filter>
<filter id="filter2_d_3357_6535" x="5.20117" y="1.25586" width="24.832" height="43.457" filterUnits="userSpaceOnUse" color-interpolation-filters="sRGB">
<feFlood flood-opacity="0" result="BackgroundImageFix"/>
<feColorMatrix in="SourceAlpha" type="matrix" values="0 0 0 0 0 0 0 0 0 0 0 0 0 0 0 0 0 0 127 0" result="hardAlpha"/>
<feOffset dx="-4" dy="3"/>
<feGaussianBlur stdDeviation="5"/>
<feComposite in2="hardAlpha" operator="out"/>
<feColorMatrix type="matrix" values="0 0 0 0 0.333333 0 0 0 0 0.260549 0 0 0 0 0.207843 0 0 0 0.3 0"/>
<feBlend mode="normal" in2="BackgroundImageFix" result="effect1_dropShadow_3357_6535"/>
<feBlend mode="normal" in="SourceGraphic" in2="effect1_dropShadow_3357_6535" result="shape"/>
</filter>
<linearGradient id="paint0_linear_3357_6535" x1="49.0073" y1="48.2082" x2="13.7804" y2="2.8385" gradientUnits="userSpaceOnUse">
<stop offset="0.268633" stop-color="#EFD5D5"/>
<stop offset="0.763637" stop-color="#E7B7B7" stop-opacity="0.39"/>
</linearGradient>
<linearGradient id="paint1_linear_3357_6535" x1="62.0815" y1="7.38928" x2="19.3756" y2="60.2194" gradientUnits="userSpaceOnUse">
<stop offset="0.325325" stop-color="#FFBEBE"/>
<stop offset="0.51875" stop-color="#FF7676"/>
<stop offset="0.976143" stop-color="#F56464"/>
</linearGradient>
<linearGradient id="paint2_linear_3357_6535" x1="44.2365" y1="44.6058" x2="6.80247" y2="-2.65879" gradientUnits="userSpaceOnUse">
<stop offset="0.268633" stop-color="#EFD5D5"/>
<stop offset="0.763637" stop-color="#B47171"/>
</linearGradient>
<linearGradient id="paint3_linear_3357_6535" x1="26.0972" y1="14.9242" x2="18.0753" y2="15.301" gradientUnits="userSpaceOnUse">
<stop offset="0.334199" stop-color="#CA8A8A"/>
<stop offset="0.590808" stop-color="#C06B6B"/>
</linearGradient>
<linearGradient id="paint4_linear_3357_6535" x1="10.8562" y1="31.1187" x2="5.11282" y2="23.1477" gradientUnits="userSpaceOnUse">
<stop offset="0.306695" stop-color="white" stop-opacity="0.85"/>
<stop offset="1" stop-color="#E7B7B7" stop-opacity="0.64"/>
</linearGradient>
</defs>
</svg>
