<svg width="23" height="13" viewBox="0 0 23 13" fill="none" xmlns="http://www.w3.org/2000/svg">
<path fill-rule="evenodd" clip-rule="evenodd" d="M3.00685 0C1.34621 0 0 1.34226 0 2.99879V10.0012C0 11.6574 1.33599 13 3.00685 13H19.9932C21.6538 13 23 11.6577 23 10.0012V2.99879C23 1.3426 21.664 0 19.9932 0H3.00685ZM16 6V4H20V3H15V10H16V7H19V6H16ZM3 5V10H4V7H5.99512C7.10238 7 8 6.11227 8 5C8 3.89543 7.1061 3 5.99512 3H3V5ZM4 4V6H6.00104C6.55275 6 7 5.55614 7 5C7 4.44772 6.55734 4 6.00104 4H4ZM9 3V10H11.9951C13.1024 10 14 9.11345 14 7.99408V5.00592C14 3.89808 13.1061 3 11.9951 3H9ZM10 4V9H12.001C12.5528 9 13 8.55628 13 8.00019V4.99981C13 4.44763 12.5573 4 12.001 4H10Z" fill="#F12A23"/>
</svg>
