<svg width="36" height="21" viewBox="0 0 36 21" fill="none" xmlns="http://www.w3.org/2000/svg">
<path d="M36 0C35.4869 2.22857 34.9454 4.6 34.3753 7.11428C33.8622 9.62857 33.3777 12.0857 32.9216 14.4857C32.4656 16.8286 32.095 19 31.81 21H20.095L19.4964 20.0571C20.0095 18 20.6651 15.8286 21.4632 13.5429C22.2613 11.2571 23.1164 8.94286 24.0285 6.6C24.9976 4.25714 25.9382 2.05714 26.8504 0H36ZM16.5036 0C15.9905 2.22857 15.4489 4.6 14.8789 7.11428C14.3658 9.62857 13.8812 12.0857 13.4252 14.4857C12.9691 16.8286 12.5986 19 12.3135 21H0.598575L0 20.0571C0.513064 18 1.16865 15.8286 1.96675 13.5429C2.76485 11.2571 3.61995 8.94286 4.53207 6.6C5.50119 4.25714 6.4418 2.05714 7.35392 0H16.5036Z" fill="#F12A23"/>
</svg>
