<svg width="17" height="42" viewBox="0 0 17 42" fill="none" xmlns="http://www.w3.org/2000/svg">
<path opacity="0.05" d="M15.8741 41.1912C15.7896 41.6911 14.5365 41.7685 8.65809 41.7685C3.21614 41.7685 1.30124 41.7685 1.09004 41.1912C0.723961 40.1563 5.53231 37.3615 8.83409 37.3615C12.1359 37.3615 16.0924 39.8466 15.8741 41.1912Z" fill="#F9F9F9"/>
<path opacity="0.1" d="M15.8017 41.1843C15.7242 41.663 14.4781 41.7334 8.63491 41.7334C3.22111 41.7334 1.31326 41.7334 1.11614 41.1843C0.764141 40.1776 5.51617 37.4249 8.78275 37.4249C12.0493 37.4249 16.034 39.8608 15.8017 41.1843Z" fill="#F2F2F2"/>
<path opacity="0.14" d="M15.8028 41.1702C15.7324 41.6348 14.4863 41.7052 8.67826 41.7052C3.29967 41.67 1.4059 41.7052 1.21582 41.1702C0.884934 40.1916 5.5736 37.4812 8.81906 37.4812C12.0645 37.4812 15.9717 39.8748 15.8028 41.1702Z" fill="#ECECEC"/>
<path opacity="0.19" d="M15.726 41.163C15.6556 41.6065 14.4236 41.6699 8.68592 41.6699C3.33549 41.6699 1.44875 41.6699 1.27979 41.163C0.955952 40.2126 5.58126 37.5444 8.81264 37.5444C12.044 37.5444 15.916 39.8888 15.726 41.163Z" fill="#E6E6E6"/>
<path opacity="0.24" d="M15.6746 41.1561C15.6112 41.5785 14.3792 41.6348 8.63456 41.6348C3.32636 41.6348 1.44667 41.6348 1.28475 41.1561C1.01723 40.2268 5.55102 37.6008 8.76128 37.6008C11.9715 37.6008 15.8576 39.9029 15.6746 41.1561Z" fill="#DFDFDF"/>
<path opacity="0.29" d="M15.6275 41.1421C15.5712 41.5504 14.3462 41.6067 8.64381 41.6067C3.36377 41.5715 1.49112 41.6067 1.34328 41.1421C1.05464 40.241 5.56027 37.6643 8.76349 37.6643C11.9667 37.6643 15.8035 39.9171 15.6275 41.1421Z" fill="#D9D9D9"/>
<path opacity="0.33" d="M15.5781 41.1349C15.5218 41.5221 14.3038 41.5714 8.63662 41.5714C3.39179 41.5714 1.53321 41.5714 1.39241 41.1349C1.12489 40.262 5.56012 37.7275 8.76334 37.7275C11.9666 37.7275 15.74 39.9311 15.5781 41.1349Z" fill="#D3D3D3"/>
<path opacity="0.38" d="M15.5287 41.128C15.4795 41.494 14.2686 41.5363 8.63654 41.5363C3.41987 41.5363 1.5965 41.5363 1.44161 41.128C1.19521 40.2761 5.56708 37.7839 8.71398 37.7839C11.8609 37.7839 15.6836 39.9452 15.5287 41.128Z" fill="#CCCCCC"/>
<path opacity="0.43" d="M15.48 41.1137C15.4307 41.4587 14.2269 41.501 8.63002 41.501C3.44855 41.501 1.58998 41.501 1.49142 41.1137C1.2591 40.2971 5.57464 37.8472 8.70042 37.8472C11.8262 37.8472 15.6278 39.9592 15.48 41.1137Z" fill="#C6C6C6"/>
<path opacity="0.48" d="M15.4308 41.1068C15.3885 41.4306 14.1917 41.4729 8.63011 41.4729C3.4768 41.4377 1.65343 41.5362 1.54079 41.1068C1.32959 40.3113 5.57473 37.9036 8.68643 37.9036C11.7981 37.9036 15.5645 39.9733 15.4308 41.1068Z" fill="#C0C0C0"/>
<path opacity="0.52" d="M15.3814 41.0999C15.3814 41.4026 14.1564 41.4378 8.62292 41.4378C3.50481 41.4378 1.68848 41.48 1.58288 41.0999C1.38576 40.3255 5.57458 37.967 8.66516 37.967C11.7557 37.967 15.5081 39.9875 15.3814 41.0999Z" fill="#B9B9B9"/>
<path opacity="0.57" d="M15.3323 41.0857C15.3323 41.3744 14.1144 41.4025 8.62319 41.4025C3.54028 41.4025 1.73099 41.4448 1.64651 41.0857C1.46347 40.3817 5.58893 38.0233 8.68655 38.0233C11.7842 38.0233 15.452 40.0016 15.3323 41.0857Z" fill="#B3B3B3"/>
<path opacity="0.62" d="M15.2814 41.0786C15.2814 41.3461 14.0776 41.3742 8.61451 41.3742C3.5668 41.339 1.77159 41.4165 1.69415 41.0786C1.53223 40.3746 5.5873 38.0865 8.63563 38.0865C11.684 38.0865 15.387 40.0155 15.2814 41.0786Z" fill="#ADADAD"/>
<path opacity="0.67" d="M15.2326 41.0716C15.2326 41.318 14.0358 41.3392 8.61494 41.3392C3.59539 41.3392 1.80722 41.3884 1.74386 41.0716C1.60306 40.3676 5.59476 38.15 8.62198 38.15C11.6492 38.15 15.3311 40.0297 15.2326 41.0716Z" fill="#A6A6A6"/>
<path opacity="0.71" d="M15.1822 41.0575C15.1822 41.2898 13.9995 41.3039 8.60681 41.3039C3.62246 41.3039 1.84837 41.3602 1.79205 41.0575C1.66533 40.3957 5.60071 38.2415 8.60681 38.2415C11.6129 38.2415 15.2667 40.0437 15.1822 41.0575Z" fill="#A0A0A0"/>
<path opacity="0.76" d="M15.1336 41.0505C15.1336 41.2547 13.9579 41.2758 8.60744 41.2758C3.67941 41.2406 1.89124 41.3321 1.84196 41.0505C1.73636 40.4099 5.60134 38.2345 8.59336 38.2345C11.5854 38.2345 15.204 40.0579 15.1336 41.0505Z" fill="#9A9A9A"/>
<path opacity="0.81" d="M15.0987 41.0434C15.0987 41.2264 13.9371 41.2405 8.61484 41.2405C3.68681 41.2405 1.94088 41.3039 1.90568 41.0434C1.8212 40.4239 5.62282 38.3259 8.59372 38.3259C11.5646 38.3259 15.148 40.0648 15.0987 41.0434Z" fill="#939393"/>
<path opacity="0.86" d="M15.0367 41.0294C15.0367 41.1984 13.8821 41.2054 8.60208 41.2054C3.70925 41.2054 1.97036 41.2758 1.9422 41.0294C1.87884 40.4381 5.6171 38.3894 8.56688 38.3894C11.5167 38.3894 15.1 40.079 15.0367 41.0294Z" fill="#8D8D8D"/>
<path opacity="0.9" d="M14.9795 41.0222C14.9795 41.1701 13.846 41.1701 8.59415 41.1701C3.74357 41.1701 2.01172 41.2405 1.9906 41.0222C1.94836 40.459 5.61622 38.4456 8.55191 38.4456C11.4876 38.4456 15.0217 40.1281 14.9795 41.0222Z" fill="#878787"/>
<path opacity="0.95" d="M14.9301 41.0153C14.9301 41.142 13.8037 41.142 8.59411 41.142C3.77169 41.142 2.05392 41.2124 2.04688 41.0153C2.04688 40.4732 5.62322 38.509 8.53075 38.509C11.4383 38.509 14.9513 40.1282 14.9301 41.0153Z" fill="#808080"/>
<path d="M14.8804 41.0012C14.8804 41.1138 13.7681 41.1068 8.58662 41.1068C3.79939 41.1068 2.0957 41.1842 2.0957 41.0012C2.0957 40.4873 5.61572 38.5724 8.51622 38.5724C11.4167 38.5724 14.8804 40.1282 14.8804 41.0012Z" fill="#7A7A7A"/>
<path d="M14.8826 36.7982H2.18945V41.0011H14.8826V36.7982Z" fill="url(#paint0_linear_777_3226)"/>
<path d="M13.9041 34.9257H3.16802L2.18945 36.7983H14.8826L13.9041 34.9257Z" fill="url(#paint1_linear_777_3226)"/>
<path style="mix-blend-mode:multiply" opacity="0.4" d="M12.7833 37.7416H4.29297V39.9873H12.7833V37.7416Z" fill="url(#paint2_linear_777_3226)"/>
<path d="M2.18945 36.7983L8.52549 36.7631C9.48998 36.7631 14.8615 36.7983 14.8615 36.7983C14.8615 36.7983 9.08869 36.9039 8.52549 36.9039C7.96229 36.9039 2.18945 36.7983 2.18945 36.7983Z" fill="#5C5C5C"/>
<path d="M12.7202 37.8331H4.34961V39.9029H12.7202V37.8331Z" fill="url(#paint3_linear_777_3226)"/>
<path style="mix-blend-mode:multiply" d="M5.79297 35.862L8.91875 36.4604L14.4241 35.9183L13.9031 34.9257H8.55266L5.79297 35.862Z" fill="url(#paint4_linear_777_3226)"/>
<path d="M5.79297 22.4718V35.8479C5.79297 36.1788 7.03202 36.4463 8.55266 36.4463C10.0733 36.4463 11.3124 36.1788 11.3124 35.8479V22.4718H5.79297Z" fill="url(#paint5_linear_777_3226)"/>
<path style="mix-blend-mode:multiply" d="M8.55266 23.4998C10.0768 23.4998 11.3124 23.2319 11.3124 22.9014C11.3124 22.5709 10.0768 22.303 8.55266 22.303C7.02853 22.303 5.79297 22.5709 5.79297 22.9014C5.79297 23.2319 7.02853 23.4998 8.55266 23.4998Z" fill="url(#paint6_linear_777_3226)"/>
<path d="M8.52436 23.2321C7.52533 23.306 6.52279 23.147 5.5957 22.7675V22.8238C5.5957 22.8238 6.29971 23.3166 8.53844 23.3166C10.7772 23.3166 11.4741 22.8871 11.4741 22.8871V22.8167C10.5312 23.1619 9.52592 23.3035 8.52436 23.2321V23.2321Z" fill="url(#paint7_linear_777_3226)"/>
<path d="M15.1706 14.4532L14.6637 11.5316L16.7898 9.46181L13.8541 9.03237L12.5446 6.37828L11.2281 9.03237L9.93982 9.22245L9.51037 6.7162L12.2771 4.01986L8.44733 3.4637L6.74364 0L5.03291 3.4637L1.20312 4.01986L3.96986 6.7162L3.32218 10.5249L6.74364 8.72965L8.48957 9.6519L10.4185 11.5316L10.1721 12.9889L9.15837 15.0375L6.57468 15.4106L8.44029 17.234L8.00381 19.8107L10.3129 18.5927L12.6221 19.8107L12.1856 17.234L14.0512 15.4106L11.4675 15.0375L10.9184 13.9252L12.5446 13.0734L15.1706 14.4532Z" fill="url(#paint8_linear_777_3226)"/>
<path d="M10.3117 14.6714L10.8749 15.8189L12.1421 16.002L11.2269 16.896L11.4381 18.1492L10.3117 17.5578L9.18525 18.1492L9.39645 16.896L8.48828 16.002L9.74845 15.8189L10.3117 14.6714Z" fill="url(#paint9_linear_777_3226)"/>
<path d="M12.5445 8.49036L13.2062 9.835L14.6846 10.0462L13.6146 11.0881L13.868 12.5595L12.5445 11.8696L11.2209 12.5595L11.4744 11.0881L10.4043 10.0462L11.8827 9.835L12.5445 8.49036Z" fill="url(#paint10_linear_777_3226)"/>
<path d="M6.74442 2.53442L7.68075 4.43524L9.77868 4.745L8.25803 6.22341L8.61707 8.3143L6.74442 7.32869L4.86473 8.3143L5.22377 6.22341L3.70312 4.745L5.80106 4.43524L6.74442 2.53442Z" fill="url(#paint11_linear_777_3226)"/>
<path d="M12.5431 6.3783V8.49031L11.8813 9.83496L11.2266 9.03239L12.5431 6.3783Z" fill="url(#paint12_linear_777_3226)"/>
<path d="M8.25586 6.22327L9.50899 6.71607L9.93843 9.22232L9.77651 9.83481L8.6149 8.31416L8.25586 6.22327Z" fill="url(#paint13_linear_777_3226)"/>
<path d="M11.2256 9.03235L11.8804 9.83491L10.402 10.0461L9.77539 9.83491L9.93731 9.22243L11.2256 9.03235Z" fill="url(#paint14_linear_777_3226)"/>
<path d="M8.25586 6.22331L9.77651 4.7449L12.2757 4.01978L9.50899 6.71611L8.25586 6.22331Z" fill="url(#paint15_linear_777_3226)"/>
<path d="M12.2768 4.01991L9.77762 4.74503L7.67969 4.43527L8.44705 3.46375L12.2768 4.01991Z" fill="url(#paint16_linear_777_3226)"/>
<path d="M6.74219 0V2.53441L7.67851 4.43523L8.44588 3.4637L6.74219 0Z" fill="url(#paint17_linear_777_3226)"/>
<path d="M5.79861 4.43523L5.03125 3.4637L6.74198 0V2.63298L5.79861 4.43523Z" fill="url(#paint18_linear_777_3226)"/>
<path d="M1.20312 4.01991L5.03291 3.46375L5.80027 4.43527L3.70234 4.74503L1.20312 4.01991Z" fill="url(#paint19_linear_777_3226)"/>
<path d="M4.86403 8.31422L3.32227 10.5248L6.74373 8.72958V7.32861L4.86403 8.31422Z" fill="url(#paint20_linear_777_3226)"/>
<path d="M11.4731 11.088L10.4171 11.5315L8.48812 9.65183L6.74219 8.72958V7.32861L8.61484 8.31422L9.77644 9.83487L10.403 10.0461L11.4731 11.088Z" fill="url(#paint21_linear_777_3226)"/>
<path d="M1.20312 4.01978L3.70234 4.7449L5.22299 6.22331L3.96986 6.71611L1.20312 4.01978Z" fill="url(#paint22_linear_777_3226)"/>
<path d="M3.32227 10.5247L4.86403 8.31416L5.22308 6.22327L3.96995 6.71607L3.32227 10.5247Z" fill="url(#paint23_linear_777_3226)"/>
<path d="M16.7885 9.46179L14.6835 10.0461L13.2051 9.83491L13.8528 9.03235L16.7885 9.46179Z" fill="url(#paint24_linear_777_3226)"/>
<path d="M12.5449 6.3783V8.49031L13.2067 9.83496L13.8051 8.92679L12.5449 6.3783Z" fill="url(#paint25_linear_777_3226)"/>
<path d="M14.6622 11.5316L13.6133 11.088L14.6834 10.0461L16.7883 9.46179L14.6622 11.5316Z" fill="url(#paint26_linear_777_3226)"/>
<path d="M15.1691 14.4533L13.8667 12.5595L13.6133 11.0881L14.6622 11.5317L15.1691 14.4533Z" fill="url(#paint27_linear_777_3226)"/>
<path d="M12.5449 11.8695V13.0734L15.1709 14.4532L13.8684 12.5594L12.5449 11.8695Z" fill="url(#paint28_linear_777_3226)"/>
<path d="M11.4744 11.0881L10.4184 11.5317L10.172 12.9889L9.1582 15.0376L9.74957 15.819L10.3128 14.6715L10.5803 13.1579L11.2209 12.5595L11.4744 11.0881Z" fill="url(#paint29_linear_777_3226)"/>
<path d="M12.5443 11.8695V13.0734L10.918 13.9252L10.5801 13.1578L11.2207 12.5594L12.5443 11.8695Z" fill="url(#paint30_linear_777_3226)"/>
<path d="M10.8757 15.819L11.4671 15.0375L10.58 13.1578L10.3125 14.6714L10.8757 15.819Z" fill="url(#paint31_linear_777_3226)"/>
<path d="M14.0501 15.4107L12.1422 16.0021L10.875 15.819L11.4664 15.0376L14.0501 15.4107Z" fill="url(#paint32_linear_777_3226)"/>
<path d="M12.184 17.234L11.2266 16.8961L12.1418 16.002L14.0496 15.4106L12.184 17.234Z" fill="url(#paint33_linear_777_3226)"/>
<path d="M12.6205 19.8107L11.4378 18.1492L11.2266 16.8961L12.184 17.234L12.6205 19.8107Z" fill="url(#paint34_linear_777_3226)"/>
<path style="mix-blend-mode:multiply" d="M10.3125 18.5927V17.5579L11.4389 18.1492L12.6216 19.8107L10.3125 18.5927Z" fill="url(#paint35_linear_777_3226)"/>
<path style="mix-blend-mode:multiply" d="M8.00195 19.8107L10.3111 18.5927V17.5579L9.18468 18.1492L8.00195 19.8107Z" fill="url(#paint36_linear_777_3226)"/>
<path d="M6.57422 15.4107L8.48911 16.0021L9.74928 15.819L9.15791 15.0376L6.57422 15.4107Z" fill="url(#paint37_linear_777_3226)"/>
<path d="M9.39728 16.8961L8.43983 17.234L6.57422 15.4106L8.48911 16.002L9.39728 16.8961Z" fill="url(#paint38_linear_777_3226)"/>
<path d="M8.00195 19.8107L9.18468 18.1492L9.39588 16.8961L8.43844 17.234L8.00195 19.8107Z" fill="url(#paint39_linear_777_3226)"/>
<path d="M7.17232 6.13188C7.7025 6.5716 8.15472 7.09759 8.50993 7.68773L8.25649 6.22341L9.77714 4.745L7.66512 4.43524L6.74288 2.53442L5.79951 4.43524L3.6875 4.745L3.76494 4.8154C5.0186 4.84796 6.22243 5.31308 7.17232 6.13188Z" fill="url(#paint40_linear_777_3226)"/>
<path d="M11.4741 21.4369C11.4741 21.2468 11.3826 21.2398 11.2559 21.1623C10.428 20.6858 9.48649 20.4425 8.5314 20.4583C7.59311 20.4341 6.66743 20.6783 5.86322 21.1623C5.71538 21.2609 5.5957 21.2538 5.5957 21.4439C5.5957 21.8593 6.91219 22.0282 8.53844 22.0282C10.1647 22.0282 11.4741 21.8241 11.4741 21.4369Z" fill="url(#paint41_linear_777_3226)"/>
<path d="M5.5957 22.8168V21.4933C5.5957 21.4933 5.86322 22.0002 8.53844 22.0002C11.2137 22.0002 11.4741 21.4088 11.4741 21.4088V22.8802C11.4741 22.8802 10.7701 23.3096 8.53844 23.3096C6.30675 23.3096 5.5957 22.8168 5.5957 22.8168Z" fill="url(#paint42_linear_777_3226)"/>
<path d="M10.2352 23.2322C10.2352 23.2322 10.2352 22.4437 10.2352 22.1832C10.2314 22.132 10.2381 22.0806 10.2551 22.0321C10.272 21.9837 10.2988 21.9392 10.3337 21.9016C9.95981 21.9723 9.58074 22.0123 9.20029 22.0213C8.62301 22.0213 7.98237 22.0213 7.71484 22.0213C7.88731 22.0546 8.05682 22.1016 8.22173 22.1621C8.27603 22.1951 8.32082 22.2416 8.35168 22.2972C8.38254 22.3527 8.39841 22.4154 8.39773 22.4789V23.3448C9.01184 23.3419 9.62531 23.3043 10.2352 23.2322V23.2322Z" fill="url(#paint43_linear_777_3226)"/>
<path style="mix-blend-mode:multiply" opacity="0.5" d="M10.7556 23.1195C10.9436 23.075 11.1293 23.021 11.3118 22.9576V21.5496C11.0066 21.7173 10.672 21.8249 10.3262 21.8664C10.3262 21.8664 10.7556 21.8664 10.7556 21.9649V23.1195Z" fill="url(#paint44_linear_777_3226)"/>
<path d="M5.86328 22.9435C6.06499 23.0197 6.27207 23.0809 6.4828 23.1266V21.8242C6.26966 21.7884 6.06164 21.7269 5.86328 21.6411V22.9435Z" fill="url(#paint45_linear_777_3226)"/>
<path style="mix-blend-mode:multiply" opacity="0.5" d="M5.86328 21.6694C5.89572 21.6275 5.93957 21.596 5.98953 21.5785C6.03949 21.561 6.09344 21.5583 6.14488 21.5708C6.37016 21.6201 7.06713 20.7049 8.31322 20.7049C9.15423 20.6909 9.98734 20.8691 10.7491 21.2258C10.8969 21.3033 11.0518 21.4229 11.1644 21.3666C11.4038 21.261 11.4742 21.4089 11.4742 21.4089C11.4742 21.4089 11.1715 22.0002 8.5385 22.0002C6.22936 22.0002 5.86328 21.6694 5.86328 21.6694Z" fill="url(#paint46_linear_777_3226)"/>
<path d="M6.08984 21.7537C6.08984 21.6059 6.47001 21.7537 6.56857 21.6693C6.99639 21.209 7.58227 20.9274 8.2089 20.8808C9.1241 20.7541 9.90555 21.6622 10.2787 21.6481C10.6518 21.6341 11.039 21.5214 11.0249 21.6481C11.0108 21.7749 10.1167 22.0354 8.30042 21.9931C7.5564 22.0071 6.81362 21.9267 6.08984 21.7537Z" fill="url(#paint47_linear_777_3226)"/>
<path d="M5.80567 21.3313C5.74935 21.3313 5.85495 21.4933 6.12951 21.6059C6.36478 21.725 6.62028 21.7991 6.8828 21.8241C7.22135 21.8691 7.56215 21.8949 7.9036 21.9016C7.42688 21.8651 6.95511 21.7802 6.4956 21.6481C6.10839 21.451 5.94647 21.2891 5.80567 21.3313Z" fill="url(#paint48_linear_777_3226)"/>
<path d="M8.0043 19.8108L7.6875 20.7893C7.93451 20.9799 8.24199 21.0749 8.55342 21.0569C8.87818 21.0872 9.20303 20.9998 9.46863 20.8104L9.09551 19.2264L8.0043 19.8108Z" fill="url(#paint49_linear_777_3226)"/>
<path style="mix-blend-mode:multiply" d="M8.32698 21.0356C8.55825 21.092 8.7997 21.092 9.03098 21.0356C9.19398 21.007 9.34679 20.9367 9.4745 20.8314L9.10138 19.2474L7.99609 19.8318C7.99609 19.8318 8.4537 19.6698 8.6649 19.9092C8.8761 20.1486 9.1225 20.6132 8.98874 20.8948C8.85498 21.1764 8.31994 21.0074 8.32698 21.0356Z" fill="url(#paint50_linear_777_3226)"/>
<path style="mix-blend-mode:soft-light" opacity="0.5" d="M9.08008 5.42778L9.78408 4.72378L12.2833 4.01978L10.6218 5.63194C10.6218 5.63194 11.0302 5.04058 10.6782 4.98426C10.1277 5.05836 9.59 5.20759 9.08008 5.42778V5.42778Z" fill="url(#paint51_linear_777_3226)"/>
<path d="M11.3125 9.15198C11.3778 8.98652 11.4604 8.82842 11.5589 8.6803C11.6082 8.6803 11.6082 8.94078 11.8053 8.94078C12.0024 8.94078 12.2136 8.58878 12.3685 8.28606C12.4666 7.82249 12.5254 7.35149 12.5445 6.87805V8.51838L11.8827 9.85599L11.3125 9.15198Z" fill="url(#paint52_linear_777_3226)"/>
<path d="M9.50899 6.71607L8.25586 6.22327L8.6149 8.31416L9.77651 9.83481L8.8965 8.2156L8.6853 6.52599L9.50899 6.71607Z" fill="url(#paint53_linear_777_3226)"/>
<path style="mix-blend-mode:soft-light" d="M14.6836 10.0462L16.4999 9.42664L16.7886 9.46184L14.6836 10.0462Z" fill="url(#paint54_linear_777_3226)"/>
<path opacity="0.5" d="M14.6622 11.5317L13.6133 11.0881L13.8667 12.5595C13.8933 12.2519 13.9871 11.954 14.1413 11.6865C14.21 11.6219 14.293 11.5742 14.3834 11.5474C14.4739 11.5205 14.5693 11.5151 14.6622 11.5317Z" fill="url(#paint55_linear_777_3226)"/>
<path d="M15.1696 14.4532L13.8672 12.5594L15.0992 14.059L15.1696 14.4532Z" fill="url(#paint56_linear_777_3226)"/>
<path style="mix-blend-mode:multiply" opacity="0.4" d="M2.67969 4.10428L5.26338 3.76636L5.79843 4.43516L4.27074 4.66044L2.67969 4.10428Z" fill="url(#paint57_linear_777_3226)"/>
<path d="M1.20312 4.01986L1.70297 3.94946L3.70234 4.74499L1.20312 4.01986Z" fill="url(#paint58_linear_777_3226)"/>
<path d="M4.86523 8.31422L6.74493 7.32861L8.61758 8.31422L6.74493 7.45533L4.86523 8.31422Z" fill="url(#paint59_linear_777_3226)"/>
<g style="mix-blend-mode:multiply">
<path d="M8.6149 8.3143L8.25586 6.2234L9.77651 4.745L8.34738 6.2586L8.67122 8.3143L9.77651 9.83495L8.6149 8.3143Z" fill="#251C0D"/>
</g>
<path d="M3.70312 4.745L5.15337 6.25156L4.86473 8.3143L5.22377 6.2234L3.70312 4.745Z" fill="url(#paint60_linear_777_3226)"/>
<g style="mix-blend-mode:multiply" opacity="0.2">
<path d="M10.6218 5.63206C10.7767 5.4279 10.9527 5.0407 10.6782 4.98438C10.126 5.05024 9.58717 5.1998 9.08008 5.4279C9.40819 5.40423 9.73758 5.40423 10.0657 5.4279C10.266 5.44477 10.4582 5.51529 10.6218 5.63206V5.63206Z" fill="white"/>
</g>
<path style="mix-blend-mode:multiply" opacity="0.2" d="M10.637 5.63206C10.7849 5.42086 10.9468 5.06181 10.6793 5.00549C10.1494 5.06439 9.63177 5.20448 9.14453 5.42086C9.46545 5.39352 9.7881 5.39352 10.109 5.42086C10.3061 5.40678 10.6159 5.5335 10.637 5.63206Z" fill="url(#paint61_linear_777_3226)"/>
<path style="mix-blend-mode:multiply" opacity="0.2" d="M10.6499 5.58278C10.7907 5.37862 10.9315 5.0407 10.6499 4.98438C10.1452 5.03979 9.65165 5.1703 9.18555 5.37158C9.51322 5.3421 9.84252 5.33504 10.1712 5.35046C10.3542 5.38566 10.6288 5.50534 10.6499 5.58278Z" fill="url(#paint62_linear_777_3226)"/>
<path style="mix-blend-mode:multiply" opacity="0.2" d="M10.6639 5.55462C10.7976 5.3575 10.9243 5.03366 10.6639 4.98438C10.1781 5.03089 9.70279 5.15447 9.25586 5.35046C9.56047 5.3267 9.86646 5.3267 10.1711 5.35046C10.3963 5.36454 10.6427 5.47718 10.6639 5.55462Z" fill="url(#paint63_linear_777_3226)"/>
<path style="mix-blend-mode:multiply" opacity="0.2" d="M10.679 5.52646C10.7987 5.33638 10.9184 5.03366 10.679 4.98438C10.223 5.02799 9.77655 5.14199 9.35547 5.3223C9.65079 5.30171 9.94719 5.30171 10.2425 5.3223C10.4467 5.34342 10.6579 5.45606 10.679 5.52646Z" fill="url(#paint64_linear_777_3226)"/>
<path style="mix-blend-mode:multiply" opacity="0.2" d="M10.6945 5.50534C10.8072 5.31526 10.9128 5.02662 10.6945 4.98438C10.2629 5.02394 9.84002 5.13083 9.44141 5.30118C9.72954 5.27702 10.0192 5.27702 10.3073 5.30118C10.4904 5.31526 10.6805 5.4279 10.6945 5.50534Z" fill="url(#paint65_linear_777_3226)"/>
<path style="mix-blend-mode:multiply" opacity="0.2" d="M10.7058 5.47718C10.8114 5.29414 10.903 5.02662 10.7058 4.98438C10.2798 5.01225 9.86127 5.10976 9.4668 5.27302C9.74801 5.25213 10.0304 5.25213 10.3116 5.27302C10.5369 5.29414 10.6918 5.39974 10.7058 5.47718Z" fill="url(#paint66_linear_777_3226)"/>
<path style="mix-blend-mode:multiply" opacity="0.2" d="M10.7202 5.44902C10.8188 5.27302 10.8962 5.01958 10.678 4.98438C10.2923 5.00902 9.91372 5.0995 9.55859 5.2519C9.83244 5.22394 10.1084 5.22394 10.3823 5.2519C10.5794 5.27302 10.7061 5.37158 10.7202 5.44902Z" fill="url(#paint67_linear_777_3226)"/>
<path style="mix-blend-mode:multiply" opacity="0.2" d="M10.7342 5.4279C10.8257 5.24486 10.8891 5.01958 10.6779 4.98438C10.3178 5.00869 9.96386 5.08946 9.62891 5.22374C9.89352 5.19932 10.1598 5.19932 10.4244 5.22374C10.6216 5.2519 10.7201 5.35046 10.7342 5.4279Z" fill="url(#paint68_linear_777_3226)"/>
<path style="mix-blend-mode:multiply" opacity="0.2" d="M10.7501 5.39974C10.8276 5.22374 10.8769 5.01254 10.6797 4.98438C10.3442 5.00062 10.0136 5.07198 9.70117 5.19558C9.95652 5.17432 10.2132 5.17432 10.4685 5.19558C10.6727 5.23078 10.7361 5.3223 10.7501 5.39974Z" fill="url(#paint69_linear_777_3226)"/>
<path d="M12.3189 15.9456L10.932 15.7485L10.3125 14.6714L10.8757 15.8189L12.1429 16.002L12.3189 15.9456Z" fill="url(#paint70_linear_777_3226)"/>
<path d="M12.5449 6.3783V8.49031L13.2067 9.83496L14.6851 10.0462L16.7901 9.46183L14.664 9.9828L13.263 9.7364L12.5942 8.44103L12.5449 6.3783Z" fill="#FFF4BF"/>
<path d="M11.2207 12.5594L10.58 13.1579L10.3125 14.6715L10.4885 13.1579L11.2207 12.5594Z" fill="#FFFFAB"/>
<path d="M15.1691 14.4532L13.8667 12.5594L13.6133 11.088L14.6834 10.0461L16.7883 9.46179L14.7326 10.1095L13.7189 11.1232L13.9371 12.5242L15.1691 14.4532Z" fill="url(#paint71_linear_777_3226)"/>
<g style="mix-blend-mode:multiply">
<path d="M12.5442 11.8695L11.2207 12.5594L10.58 13.1578L10.3125 14.6714L10.6363 13.1578L11.2277 12.6369L12.5442 11.8695Z" fill="#251C0D"/>
</g>
<path opacity="0.5" d="M12.5442 11.8695C12.5442 11.8695 11.7769 12.7073 11.5586 13.003C11.3404 13.2986 10.918 13.9252 10.918 13.9252L12.5442 13.0734V11.8695Z" fill="url(#paint72_linear_777_3226)"/>
<path d="M11.4667 15.0376C11.8977 15.1117 12.3184 15.2369 12.7198 15.4107C12.7198 15.5304 12.4452 15.805 12.0932 15.7627C11.7063 15.7427 11.3186 15.7427 10.9316 15.7627L12.3396 15.9598L14.0715 15.4248L11.4667 15.0376Z" fill="url(#paint73_linear_777_3226)"/>
<path d="M11.2266 16.8961L11.4378 18.1492L11.3814 16.9454L11.2266 16.8961Z" fill="url(#paint74_linear_777_3226)"/>
<path d="M4.86403 8.31433L3.32227 10.5249L3.39971 10.0462L4.86403 8.31433Z" fill="url(#paint75_linear_777_3226)"/>
<path d="M6.57422 15.4106L8.48911 15.8752L9.68592 15.7344L10.3125 14.6714L9.74928 15.8189L8.48911 16.002L6.57422 15.4106Z" fill="#FFF4BF"/>
<path opacity="0.5" d="M8.43945 17.2341C8.54026 17.0481 8.59347 16.8401 8.59433 16.6286C8.55209 16.4034 8.48169 16.0021 8.48169 16.0021L9.3969 16.8962L8.43945 17.2341Z" fill="url(#paint76_linear_777_3226)"/>
<path d="M12.9035 10.9684C12.7386 10.4373 12.4201 9.96702 11.9883 9.6167L11.8827 9.83494L10.4043 10.0461L11.4744 11.0881L11.2209 12.5594L12.5445 11.8554L12.981 12.0807C13.0338 11.7086 13.0074 11.3296 12.9035 10.9684V10.9684Z" fill="url(#paint77_linear_777_3226)"/>
<g style="mix-blend-mode:multiply" opacity="0.05">
<path d="M9.4668 36.4603C9.87013 36.1824 10.2226 35.837 10.5087 35.4395C10.7199 35.0241 11.2972 30.2299 11.2972 30.2299C11.2972 30.2299 11.3535 35.8619 11.2972 35.9253C10.7518 36.2771 10.1159 36.463 9.4668 36.4603V36.4603Z" fill="#F6F6F6"/>
</g>
<g style="mix-blend-mode:multiply" opacity="0.1">
<path d="M9.50195 36.4533C9.9046 36.183 10.2572 35.8448 10.5439 35.4536C10.748 35.0383 11.3112 30.3707 11.3112 30.3707C11.3112 30.3707 11.3676 35.8549 11.3112 35.9253C10.7724 36.2737 10.1436 36.4573 9.50195 36.4533V36.4533Z" fill="#EDEDED"/>
</g>
<g style="mix-blend-mode:multiply" opacity="0.14">
<path d="M9.51562 36.4533C9.91864 36.1892 10.2714 35.8555 10.5576 35.4677C10.7688 35.0524 11.3108 30.5045 11.3108 30.5045C11.3108 30.5045 11.3672 35.8549 11.3108 35.9253C10.7781 36.2757 10.1532 36.4595 9.51562 36.4533V36.4533Z" fill="#E4E4E4"/>
</g>
<g style="mix-blend-mode:multiply" opacity="0.19">
<path d="M9.53711 36.4462C9.93945 36.1898 10.2924 35.8631 10.579 35.4817C10.7832 35.0593 11.283 30.6382 11.283 30.6382C11.283 30.6382 11.3394 35.8549 11.283 35.9253C10.765 36.2669 10.1577 36.4481 9.53711 36.4462V36.4462Z" fill="#DBDBDB"/>
</g>
<g style="mix-blend-mode:multiply" opacity="0.24">
<path d="M9.55859 36.4462C9.9619 36.1966 10.3133 35.8715 10.5935 35.4888C10.8047 35.0734 11.2975 30.772 11.2975 30.772C11.2975 30.772 11.3538 35.8549 11.2975 35.9253C10.7838 36.2707 10.1776 36.4523 9.55859 36.4462V36.4462Z" fill="#D2D2D2"/>
</g>
<g style="mix-blend-mode:multiply" opacity="0.29">
<path d="M9.57422 36.4394C9.97942 36.1984 10.3334 35.8803 10.6161 35.503C10.8203 35.0877 11.3201 30.9059 11.3201 30.9059C11.3201 30.9059 11.3765 35.8339 11.3201 35.9254C10.8051 36.2726 10.1953 36.4521 9.57422 36.4394V36.4394Z" fill="#C8C8C8"/>
</g>
<g style="mix-blend-mode:multiply" opacity="0.33">
<path d="M9.59375 36.4391C9.99643 36.2034 10.3482 35.8899 10.6286 35.5169C10.8398 35.1015 11.3326 31.0394 11.3326 31.0394C11.3326 31.0394 11.389 35.8548 11.3326 35.9252C10.822 36.2762 10.2132 36.4561 9.59375 36.4391Z" fill="#BFBFBF"/>
</g>
<g style="mix-blend-mode:multiply" opacity="0.38">
<path d="M9.60938 36.4323C10.014 36.2053 10.3684 35.8988 10.6513 35.5311C10.8555 35.1087 11.3131 31.1733 11.3131 31.1733C11.3131 31.1733 11.3694 35.855 11.3131 35.9254C10.8128 36.2698 10.2165 36.4472 9.60938 36.4323Z" fill="#B6B6B6"/>
</g>
<g style="mix-blend-mode:multiply" opacity="0.43">
<path d="M9.62891 36.4322C10.0328 36.2131 10.3855 35.9108 10.6638 35.5452C10.9512 34.1491 11.1673 32.7392 11.3115 31.3212C11.3115 31.3212 11.3678 35.869 11.3115 35.9394C10.8173 36.2786 10.2279 36.4512 9.62891 36.4322V36.4322Z" fill="#ADADAD"/>
</g>
<g style="mix-blend-mode:multiply" opacity="0.48">
<path d="M9.64258 36.4252C10.0497 36.2142 10.4054 35.9161 10.6845 35.5522C10.9624 34.1955 11.1716 32.8257 11.3111 31.4479C11.3111 31.4479 11.3674 35.8549 11.3111 35.9253C10.8239 36.2686 10.2383 36.4441 9.64258 36.4252V36.4252Z" fill="#A4A4A4"/>
</g>
<g style="mix-blend-mode:multiply" opacity="0.52">
<path d="M9.66602 36.4251C10.0693 36.2175 10.4225 35.9244 10.7009 35.5662C10.9774 34.2501 11.1818 32.9199 11.3134 31.5815C11.3134 31.5815 11.3697 35.8548 11.3134 35.9252C10.8348 36.2698 10.2554 36.4456 9.66602 36.4251V36.4251Z" fill="#9B9B9B"/>
</g>
<g style="mix-blend-mode:multiply" opacity="0.57">
<path d="M9.67773 36.4182C10.0841 36.2215 10.4403 35.9351 10.7197 35.5804C10.9858 34.3036 11.1832 33.0134 11.311 31.7155C11.311 31.7155 11.3673 35.855 11.311 35.9395C10.8373 36.281 10.2609 36.4499 9.67773 36.4182V36.4182Z" fill="#929292"/>
</g>
<g style="mix-blend-mode:multiply" opacity="0.62">
<path d="M9.70117 36.4182C10.1054 36.2277 10.4597 35.9457 10.7361 35.5945C11.0002 34.3582 11.193 33.1077 11.3133 31.8492C11.3133 31.8492 11.3697 35.855 11.3133 35.9254C10.8479 36.2688 10.2791 36.4427 9.70117 36.4182Z" fill="#898989"/>
</g>
<g style="mix-blend-mode:multiply" opacity="0.67">
<path d="M9.71289 36.4111C9.71289 36.4111 10.5436 36.0239 10.7478 35.6015C11.0075 34.4076 11.1955 33.1993 11.311 31.9829C11.311 31.9829 11.3673 35.8549 11.311 35.9253C10.8522 36.2705 10.2862 36.4426 9.71289 36.4111V36.4111Z" fill="#808080"/>
</g>
<g style="mix-blend-mode:multiply" opacity="0.71">
<path d="M9.73633 36.4111C9.73633 36.4111 10.56 36.038 10.7712 35.6156C11.0249 34.4547 11.206 33.2791 11.3133 32.0956C11.3133 32.0956 11.3696 35.8338 11.3133 35.9042C10.8638 36.2539 10.3053 36.4334 9.73633 36.4111V36.4111Z" fill="#777777"/>
</g>
<g style="mix-blend-mode:multiply" opacity="0.76">
<path d="M9.75 36.404C9.75 36.404 10.5807 36.0449 10.7849 35.6296C11.0328 34.5156 11.2091 33.3869 11.3129 32.2504C11.3129 32.2504 11.3692 35.8549 11.3129 35.9253C11.165 36.1224 10.6793 36.3406 9.75 36.404Z" fill="#6D6D6D"/>
</g>
<g style="mix-blend-mode:multiply" opacity="0.81">
<path d="M9.76953 36.404C9.76953 36.404 10.5932 36.0591 10.8044 35.6437C11.0452 34.5696 11.2146 33.4807 11.3113 32.3842C11.3113 32.3842 11.3676 35.8479 11.3113 35.9042C11.1635 36.1224 10.6918 36.3336 9.76953 36.404Z" fill="#646464"/>
</g>
<g style="mix-blend-mode:multiply" opacity="0.86">
<path d="M9.79297 36.404C9.79297 36.404 10.6167 36.0731 10.8208 35.6507C11.0568 34.6213 11.2214 33.5769 11.3136 32.5249C11.3136 32.5249 11.3699 35.8548 11.3136 35.9252C11.1658 36.1224 10.7152 36.3336 9.79297 36.404Z" fill="#5B5B5B"/>
</g>
<g style="mix-blend-mode:multiply" opacity="0.9">
<path d="M9.80469 36.397C9.80469 36.397 10.6284 36.0872 10.8396 35.693C11.0652 34.7029 11.2228 33.6985 11.3113 32.6869C11.3113 32.6869 11.3676 35.8831 11.3113 35.9535C11.1634 36.1224 10.7269 36.3266 9.80469 36.397Z" fill="#525252"/>
</g>
<g style="mix-blend-mode:multiply" opacity="0.95">
<path d="M9.82617 36.3971C9.82617 36.3971 10.6499 36.0943 10.854 35.6931C11.0782 34.7436 11.2311 33.7788 11.3116 32.8066C11.3116 32.8066 11.3679 35.8691 11.3116 35.9395C11.1638 36.1225 10.7484 36.3267 9.82617 36.3971Z" fill="#494949"/>
</g>
<g style="mix-blend-mode:multiply">
<path d="M9.8418 36.3901C9.8418 36.3901 10.6655 36.1085 10.8767 35.686C11.09 34.7758 11.2359 33.851 11.3132 32.9193C11.3132 32.9193 11.3695 35.848 11.3132 35.9184C11.1653 36.1225 10.764 36.3197 9.8418 36.3901Z" fill="#404040"/>
</g>
<defs>
<linearGradient id="paint0_linear_777_3226" x1="7.95525" y1="37.0939" x2="9.74342" y2="42.6555" gradientUnits="userSpaceOnUse">
<stop stop-color="#1D1D1B"/>
<stop offset="1" stop-color="#575756"/>
</linearGradient>
<linearGradient id="paint1_linear_777_3226" x1="2.18945" y1="35.862" x2="14.8826" y2="35.862" gradientUnits="userSpaceOnUse">
<stop stop-color="#575756"/>
<stop offset="1" stop-color="#1D1D1B"/>
</linearGradient>
<linearGradient id="paint2_linear_777_3226" x1="4.29297" y1="38.868" x2="12.7833" y2="38.868" gradientUnits="userSpaceOnUse">
<stop stop-color="#575756"/>
<stop offset="1" stop-color="#1D1D1B"/>
</linearGradient>
<linearGradient id="paint3_linear_777_3226" x1="4.34961" y1="38.868" x2="12.7273" y2="38.868" gradientUnits="userSpaceOnUse">
<stop stop-color="#EAC26F"/>
<stop offset="0.58" stop-color="#BF9339"/>
<stop offset="1" stop-color="#A47417"/>
</linearGradient>
<linearGradient id="paint4_linear_777_3226" x1="5.79297" y1="35.693" x2="14.4241" y2="35.693" gradientUnits="userSpaceOnUse">
<stop stop-color="#575756"/>
<stop offset="1" stop-color="#1D1D1B"/>
</linearGradient>
<linearGradient id="paint5_linear_777_3226" x1="5.79297" y1="29.4696" x2="11.3124" y2="29.4696" gradientUnits="userSpaceOnUse">
<stop stop-color="#575756"/>
<stop offset="0.07" stop-color="#20201E"/>
<stop offset="0.16" stop-color="#3C3C3B"/>
<stop offset="0.22" stop-color="#5C5B5B"/>
<stop offset="0.25" stop-color="#696868"/>
<stop offset="0.3" stop-color="#494948"/>
<stop offset="0.35" stop-color="#31302F"/>
<stop offset="0.4" stop-color="#1F1F1D"/>
<stop offset="0.45" stop-color="#141412"/>
<stop offset="0.51" stop-color="#11110F"/>
<stop offset="0.61" stop-color="#141412"/>
<stop offset="0.68" stop-color="#1D1D1B"/>
<stop offset="0.74" stop-color="#2C2C2A"/>
<stop offset="0.79" stop-color="#3F3F3E"/>
<stop offset="0.86" stop-color="#464645"/>
<stop offset="0.87" stop-color="#434342"/>
<stop offset="0.93" stop-color="#3C3C3B"/>
<stop offset="1" stop-color="#706F6F"/>
</linearGradient>
<linearGradient id="paint6_linear_777_3226" x1="5.79297" y1="22.9014" x2="11.3124" y2="22.9014" gradientUnits="userSpaceOnUse">
<stop stop-color="#1D1D1B"/>
<stop offset="1" stop-color="#575756"/>
</linearGradient>
<linearGradient id="paint7_linear_777_3226" x1="5.5957" y1="23.035" x2="11.4741" y2="23.035" gradientUnits="userSpaceOnUse">
<stop stop-color="#EAC26F"/>
<stop offset="0.58" stop-color="#BF9339"/>
<stop offset="1" stop-color="#A47417"/>
</linearGradient>
<linearGradient id="paint8_linear_777_3226" x1="1.20312" y1="9.90534" x2="16.7898" y2="9.90534" gradientUnits="userSpaceOnUse">
<stop stop-color="#DCAF63"/>
<stop offset="0.01" stop-color="#E1BB6B"/>
<stop offset="0.02" stop-color="#E4C271"/>
<stop offset="0.05" stop-color="#E5C472"/>
<stop offset="0.18" stop-color="#D1AE5E"/>
<stop offset="0.4" stop-color="#B28A3F"/>
<stop offset="0.51" stop-color="#A67C33"/>
<stop offset="0.87" stop-color="#F1DB95"/>
<stop offset="1" stop-color="#F0D397"/>
</linearGradient>
<linearGradient id="paint9_linear_777_3226" x1="8.48124" y1="16.4103" x2="12.1421" y2="16.4103" gradientUnits="userSpaceOnUse">
<stop stop-color="#F4E0B6"/>
<stop offset="0.42" stop-color="#EDD498"/>
<stop offset="1" stop-color="#E5C472"/>
</linearGradient>
<linearGradient id="paint10_linear_777_3226" x1="10.4043" y1="10.5249" x2="14.6846" y2="10.5249" gradientUnits="userSpaceOnUse">
<stop stop-color="#F4E0B6"/>
<stop offset="0.42" stop-color="#EDD498"/>
<stop offset="1" stop-color="#E5C472"/>
</linearGradient>
<linearGradient id="paint11_linear_777_3226" x1="3.70312" y1="5.42788" x2="9.77868" y2="5.42788" gradientUnits="userSpaceOnUse">
<stop stop-color="white"/>
<stop offset="0.05" stop-color="#FEFCF8"/>
<stop offset="0.7" stop-color="#ECD498"/>
<stop offset="1" stop-color="#E5C472"/>
</linearGradient>
<linearGradient id="paint12_linear_777_3226" x1="12.8669" y1="8.39175" x2="11.663" y2="7.86374" gradientUnits="userSpaceOnUse">
<stop stop-color="#A47417"/>
<stop offset="0.42" stop-color="#BF9339"/>
<stop offset="1" stop-color="#EAC26F"/>
</linearGradient>
<linearGradient id="paint13_linear_777_3226" x1="8.25586" y1="8.02552" x2="9.93843" y2="8.02552" gradientUnits="userSpaceOnUse">
<stop stop-color="#A47417"/>
<stop offset="0.42" stop-color="#BF9339"/>
<stop offset="1" stop-color="#EAC26F"/>
</linearGradient>
<linearGradient id="paint14_linear_777_3226" x1="10.9581" y1="9.82083" x2="10.233" y2="9.20835" gradientUnits="userSpaceOnUse">
<stop stop-color="#4F3300"/>
<stop offset="1" stop-color="#9F7C29"/>
</linearGradient>
<linearGradient id="paint15_linear_777_3226" x1="8.25586" y1="5.37146" x2="12.2757" y2="5.37146" gradientUnits="userSpaceOnUse">
<stop stop-color="#A47417"/>
<stop offset="0.42" stop-color="#BF9339"/>
<stop offset="1" stop-color="#EAC26F"/>
</linearGradient>
<linearGradient id="paint16_linear_777_3226" x1="12.7978" y1="5.45608" x2="7.86273" y2="3.30886" gradientUnits="userSpaceOnUse">
<stop stop-color="#C49A36"/>
<stop offset="0.5" stop-color="#9A711A"/>
<stop offset="1" stop-color="#744C00"/>
</linearGradient>
<linearGradient id="paint17_linear_777_3226" x1="9.41036" y1="3.17506" x2="5.8129" y2="1.61217" gradientUnits="userSpaceOnUse">
<stop stop-color="#C49A36"/>
<stop offset="0.5" stop-color="#9A711A"/>
<stop offset="1" stop-color="#744C00"/>
</linearGradient>
<linearGradient id="paint18_linear_777_3226" x1="7.10806" y1="2.5837" x2="5.60149" y2="1.92897" gradientUnits="userSpaceOnUse">
<stop stop-color="#B3832C"/>
<stop offset="0.44" stop-color="#CAA14C"/>
<stop offset="1" stop-color="#E5C472"/>
</linearGradient>
<linearGradient id="paint19_linear_777_3226" x1="6.67324" y1="5.28712" x2="1.33689" y2="2.97094" gradientUnits="userSpaceOnUse">
<stop stop-color="#C49A36"/>
<stop offset="0.5" stop-color="#9A711A"/>
<stop offset="1" stop-color="#744C00"/>
</linearGradient>
<linearGradient id="paint20_linear_777_3226" x1="6.97605" y1="9.77151" x2="4.02627" y2="8.49022" gradientUnits="userSpaceOnUse">
<stop stop-color="#F4E7BD"/>
<stop offset="0.16" stop-color="#F2E5B9"/>
<stop offset="0.31" stop-color="#EEDDAE"/>
<stop offset="0.45" stop-color="#E6D09C"/>
<stop offset="0.59" stop-color="#DBBF82"/>
<stop offset="0.72" stop-color="#CDA861"/>
<stop offset="0.85" stop-color="#BC8B38"/>
<stop offset="0.98" stop-color="#A76B08"/>
<stop offset="1" stop-color="#A46500"/>
</linearGradient>
<linearGradient id="paint21_linear_777_3226" x1="13.0078" y1="11.3555" x2="5.89034" y2="8.26494" gradientUnits="userSpaceOnUse">
<stop stop-color="#F4E0B6"/>
<stop offset="1" stop-color="#F4E79F"/>
</linearGradient>
<linearGradient id="paint22_linear_777_3226" x1="6.26491" y1="6.78651" x2="0.710322" y2="4.37178" gradientUnits="userSpaceOnUse">
<stop stop-color="#E5C472"/>
<stop offset="0.58" stop-color="#EDD498"/>
<stop offset="1" stop-color="#F4E0B6"/>
</linearGradient>
<linearGradient id="paint23_linear_777_3226" x1="5.08932" y1="8.72952" x2="3.32227" y2="7.96216" gradientUnits="userSpaceOnUse">
<stop stop-color="#E5C472"/>
<stop offset="0.58" stop-color="#EDD498"/>
<stop offset="1" stop-color="#F4E0B6"/>
</linearGradient>
<linearGradient id="paint24_linear_777_3226" x1="17.1827" y1="10.5952" x2="13.36" y2="8.93379" gradientUnits="userSpaceOnUse">
<stop stop-color="#C49A36"/>
<stop offset="0.5" stop-color="#9A711A"/>
<stop offset="1" stop-color="#744C00"/>
</linearGradient>
<linearGradient id="paint25_linear_777_3226" x1="14.4739" y1="8.80007" x2="11.8268" y2="7.65254" gradientUnits="userSpaceOnUse">
<stop stop-color="#E5C472"/>
<stop offset="0.56" stop-color="#CAA14C"/>
<stop offset="1" stop-color="#B3832C"/>
</linearGradient>
<linearGradient id="paint26_linear_777_3226" x1="13.6133" y1="10.4967" x2="16.7883" y2="10.4967" gradientUnits="userSpaceOnUse">
<stop stop-color="#F4E79F"/>
<stop offset="1" stop-color="#F4E0B6"/>
</linearGradient>
<linearGradient id="paint27_linear_777_3226" x1="16.3167" y1="13.6014" x2="12.9515" y2="12.1371" gradientUnits="userSpaceOnUse">
<stop stop-color="#EAC26F"/>
<stop offset="0.35" stop-color="#D5AD5C"/>
<stop offset="1" stop-color="#B38B3D"/>
</linearGradient>
<linearGradient id="paint28_linear_777_3226" x1="16.248" y1="14.1998" x2="12.0592" y2="12.3834" gradientUnits="userSpaceOnUse">
<stop stop-color="#B3832C"/>
<stop offset="0.44" stop-color="#CAA14C"/>
<stop offset="1" stop-color="#E5C472"/>
</linearGradient>
<linearGradient id="paint29_linear_777_3226" x1="11.0801" y1="13.6577" x2="9.67213" y2="13.0453" gradientUnits="userSpaceOnUse">
<stop stop-color="#F4E0B6"/>
<stop offset="1" stop-color="#F4E79F"/>
</linearGradient>
<linearGradient id="paint30_linear_777_3226" x1="12.8963" y1="13.4042" x2="10.749" y2="12.4679" gradientUnits="userSpaceOnUse">
<stop stop-color="#C49A36"/>
<stop offset="0.5" stop-color="#9A711A"/>
<stop offset="1" stop-color="#744C00"/>
</linearGradient>
<linearGradient id="paint31_linear_777_3226" x1="11.9247" y1="15.0094" x2="10.0168" y2="14.1786" gradientUnits="userSpaceOnUse">
<stop stop-color="#C49A36"/>
<stop offset="0.5" stop-color="#9A711A"/>
<stop offset="1" stop-color="#744C00"/>
</linearGradient>
<linearGradient id="paint32_linear_777_3226" x1="14.3809" y1="16.4526" x2="11.0299" y2="14.9954" gradientUnits="userSpaceOnUse">
<stop stop-color="#E5C472"/>
<stop offset="0.56" stop-color="#CAA14C"/>
<stop offset="1" stop-color="#B3832C"/>
</linearGradient>
<linearGradient id="paint33_linear_777_3226" x1="14.0355" y1="16.7623" x2="11.5926" y2="15.6993" gradientUnits="userSpaceOnUse">
<stop stop-color="#F4E79F"/>
<stop offset="1" stop-color="#F4E0B6"/>
</linearGradient>
<linearGradient id="paint34_linear_777_3226" x1="13.6413" y1="19.0645" x2="10.6634" y2="17.7691" gradientUnits="userSpaceOnUse">
<stop stop-color="#E5C472"/>
<stop offset="0.56" stop-color="#CAA14C"/>
<stop offset="1" stop-color="#B3832C"/>
</linearGradient>
<linearGradient id="paint35_linear_777_3226" x1="10.3125" y1="18.6843" x2="12.6216" y2="18.6843" gradientUnits="userSpaceOnUse">
<stop offset="0.01" stop-color="#B58A4C"/>
<stop offset="0.03" stop-color="#B18443"/>
<stop offset="0.09" stop-color="#A67227"/>
<stop offset="0.15" stop-color="#9E6413"/>
<stop offset="0.22" stop-color="#995D07"/>
<stop offset="0.28" stop-color="#975A03"/>
<stop offset="0.49" stop-color="#A87A2D"/>
<stop offset="0.71" stop-color="#B89954"/>
<stop offset="0.89" stop-color="#C2AC6D"/>
<stop offset="1" stop-color="#C6B376"/>
</linearGradient>
<linearGradient id="paint36_linear_777_3226" x1="8.00195" y1="18.6843" x2="10.3111" y2="18.6843" gradientUnits="userSpaceOnUse">
<stop stop-color="#291D13"/>
<stop offset="0.16" stop-color="#322212"/>
<stop offset="0.42" stop-color="#4B300E"/>
<stop offset="0.74" stop-color="#724608"/>
<stop offset="1" stop-color="#975A03"/>
</linearGradient>
<linearGradient id="paint37_linear_777_3226" x1="10.397" y1="16.3259" x2="6.65166" y2="14.6997" gradientUnits="userSpaceOnUse">
<stop stop-color="#F4E7BD"/>
<stop offset="0.28" stop-color="#E2CC97"/>
<stop offset="0.91" stop-color="#B58837"/>
<stop offset="1" stop-color="#AE7E29"/>
</linearGradient>
<linearGradient id="paint38_linear_777_3226" x1="10.1083" y1="17.3326" x2="6.22926" y2="15.65" gradientUnits="userSpaceOnUse">
<stop stop-color="#F4E0B6"/>
<stop offset="1" stop-color="#F4E79F"/>
</linearGradient>
<linearGradient id="paint39_linear_777_3226" x1="9.28324" y1="18.6068" x2="8.00899" y2="18.0507" gradientUnits="userSpaceOnUse">
<stop stop-color="#E5C472"/>
<stop offset="0.58" stop-color="#EDD498"/>
<stop offset="1" stop-color="#F4E0B6"/>
</linearGradient>
<linearGradient id="paint40_linear_777_3226" x1="3.70158" y1="5.11108" x2="9.77714" y2="5.11108" gradientUnits="userSpaceOnUse">
<stop stop-color="#F4E0B6"/>
<stop offset="0.42" stop-color="#EDD498"/>
<stop offset="1" stop-color="#E5C472"/>
</linearGradient>
<linearGradient id="paint41_linear_777_3226" x1="5.5957" y1="21.282" x2="11.4741" y2="21.282" gradientUnits="userSpaceOnUse">
<stop stop-color="#EAC26F"/>
<stop offset="0.58" stop-color="#BF9339"/>
<stop offset="1" stop-color="#A47417"/>
</linearGradient>
<linearGradient id="paint42_linear_777_3226" x1="5.5957" y1="22.3592" x2="11.4741" y2="22.3592" gradientUnits="userSpaceOnUse">
<stop stop-color="#F4E0B6"/>
<stop offset="0.25" stop-color="#F4DFB4"/>
<stop offset="0.33" stop-color="#F2DCAD"/>
<stop offset="0.4" stop-color="#EFD8A2"/>
<stop offset="0.45" stop-color="#ECD191"/>
<stop offset="0.49" stop-color="#E7C87B"/>
<stop offset="0.51" stop-color="#E5C472"/>
<stop offset="0.53" stop-color="#E2C06F"/>
<stop offset="0.84" stop-color="#BB8F47"/>
<stop offset="1" stop-color="#AC7C37"/>
</linearGradient>
<linearGradient id="paint43_linear_777_3226" x1="7.68668" y1="22.5915" x2="10.3056" y2="22.5915" gradientUnits="userSpaceOnUse">
<stop stop-color="#EAC26F"/>
<stop offset="0.58" stop-color="#BF9339"/>
<stop offset="1" stop-color="#A47417"/>
</linearGradient>
<linearGradient id="paint44_linear_777_3226" x1="10.3262" y1="22.331" x2="11.3118" y2="22.331" gradientUnits="userSpaceOnUse">
<stop stop-color="#975A03"/>
<stop offset="0.2" stop-color="#8B5408"/>
<stop offset="0.56" stop-color="#6A4414"/>
<stop offset="1" stop-color="#3A2D26"/>
</linearGradient>
<linearGradient id="paint45_linear_777_3226" x1="5.86328" y1="22.4014" x2="6.4828" y2="22.4014" gradientUnits="userSpaceOnUse">
<stop stop-color="#B3832C"/>
<stop offset="0.44" stop-color="#CAA14C"/>
<stop offset="1" stop-color="#E5C472"/>
</linearGradient>
<linearGradient id="paint46_linear_777_3226" x1="5.86328" y1="21.3525" x2="11.4742" y2="21.3525" gradientUnits="userSpaceOnUse">
<stop stop-color="#975A03"/>
<stop offset="0.2" stop-color="#8B5408"/>
<stop offset="0.56" stop-color="#6A4414"/>
<stop offset="1" stop-color="#3A2D26"/>
</linearGradient>
<linearGradient id="paint47_linear_777_3226" x1="6.08984" y1="21.4158" x2="11.0249" y2="21.4158" gradientUnits="userSpaceOnUse">
<stop stop-color="#F4E0B6"/>
<stop offset="0.25" stop-color="#F4DFB4"/>
<stop offset="0.33" stop-color="#F2DCAD"/>
<stop offset="0.4" stop-color="#EFD8A2"/>
<stop offset="0.45" stop-color="#ECD191"/>
<stop offset="0.49" stop-color="#E7C87B"/>
<stop offset="0.51" stop-color="#E5C472"/>
<stop offset="0.53" stop-color="#E2C06F"/>
<stop offset="0.84" stop-color="#BB8F47"/>
<stop offset="1" stop-color="#AC7C37"/>
</linearGradient>
<linearGradient id="paint48_linear_777_3226" x1="5.79159" y1="21.5989" x2="7.9036" y2="21.5989" gradientUnits="userSpaceOnUse">
<stop stop-color="#EAC26F"/>
<stop offset="0.58" stop-color="#BF9339"/>
<stop offset="1" stop-color="#A47417"/>
</linearGradient>
<linearGradient id="paint49_linear_777_3226" x1="7.8987" y1="20.1416" x2="9.38415" y2="20.1416" gradientUnits="userSpaceOnUse">
<stop stop-color="#F4E0B6"/>
<stop offset="0.25" stop-color="#F4DFB4"/>
<stop offset="0.33" stop-color="#F2DCAD"/>
<stop offset="0.4" stop-color="#EFD8A2"/>
<stop offset="0.45" stop-color="#ECD191"/>
<stop offset="0.49" stop-color="#E7C87B"/>
<stop offset="0.51" stop-color="#E5C472"/>
<stop offset="0.53" stop-color="#E2C06F"/>
<stop offset="0.84" stop-color="#BB8F47"/>
<stop offset="1" stop-color="#AC7C37"/>
</linearGradient>
<linearGradient id="paint50_linear_777_3226" x1="8.31994" y1="20.6977" x2="9.41114" y2="19.698" gradientUnits="userSpaceOnUse">
<stop stop-color="#975A03"/>
<stop offset="0.2" stop-color="#8B5408"/>
<stop offset="0.56" stop-color="#6A4414"/>
<stop offset="1" stop-color="#3A2D26"/>
</linearGradient>
<linearGradient id="paint51_linear_777_3226" x1="12.3255" y1="5.44186" x2="9.43912" y2="4.1817" gradientUnits="userSpaceOnUse">
<stop stop-color="#F4E0B6"/>
<stop offset="0.47" stop-color="#DDC591"/>
<stop offset="1" stop-color="#C5A96B"/>
</linearGradient>
<linearGradient id="paint52_linear_777_3226" x1="11.932" y1="9.89119" x2="11.932" y2="8.65918" gradientUnits="userSpaceOnUse">
<stop stop-color="#362B21"/>
<stop offset="0.17" stop-color="#3F3120"/>
<stop offset="0.46" stop-color="#57411E"/>
<stop offset="0.81" stop-color="#7F5A1A"/>
<stop offset="1" stop-color="#976A18"/>
</linearGradient>
<linearGradient id="paint53_linear_777_3226" x1="9.02322" y1="9.90521" x2="9.01618" y2="8.40568" gradientUnits="userSpaceOnUse">
<stop stop-color="#362B21"/>
<stop offset="0.17" stop-color="#3F3120"/>
<stop offset="0.46" stop-color="#57411E"/>
<stop offset="0.81" stop-color="#7F5A1A"/>
<stop offset="1" stop-color="#976A18"/>
</linearGradient>
<linearGradient id="paint54_linear_777_3226" x1="15.8452" y1="9.84904" x2="15.3735" y2="9.44776" gradientUnits="userSpaceOnUse">
<stop stop-color="#F4E0B6"/>
<stop offset="0.42" stop-color="#EDD498"/>
<stop offset="1" stop-color="#E5C472"/>
</linearGradient>
<linearGradient id="paint55_linear_777_3226" x1="13.9512" y1="11.7851" x2="13.5077" y2="11.412" gradientUnits="userSpaceOnUse">
<stop stop-color="#AB8838"/>
<stop offset="0.34" stop-color="#977224"/>
<stop offset="1" stop-color="#744C00"/>
</linearGradient>
<linearGradient id="paint56_linear_777_3226" x1="14.719" y1="13.6788" x2="13.8601" y2="12.9537" gradientUnits="userSpaceOnUse">
<stop stop-color="#F4E0B6"/>
<stop offset="0.42" stop-color="#EDD498"/>
<stop offset="1" stop-color="#E5C472"/>
</linearGradient>
<linearGradient id="paint57_linear_777_3226" x1="6.40387" y1="4.99132" x2="2.75713" y2="3.40732" gradientUnits="userSpaceOnUse">
<stop stop-color="#C49A36"/>
<stop offset="0.5" stop-color="#9A711A"/>
<stop offset="1" stop-color="#744C00"/>
</linearGradient>
<linearGradient id="paint58_linear_777_3226" x1="4.25146" y1="5.16035" x2="1.1116" y2="3.79458" gradientUnits="userSpaceOnUse">
<stop stop-color="#E5C472"/>
<stop offset="0.3" stop-color="#ECD498"/>
<stop offset="0.95" stop-color="#FEFCF8"/>
<stop offset="1" stop-color="white"/>
</linearGradient>
<linearGradient id="paint59_linear_777_3226" x1="9.17374" y1="9.28575" x2="4.97787" y2="7.46238" gradientUnits="userSpaceOnUse">
<stop stop-color="#C49A36"/>
<stop offset="0.5" stop-color="#9A711A"/>
<stop offset="1" stop-color="#744C00"/>
</linearGradient>
<linearGradient id="paint60_linear_777_3226" x1="3.70312" y1="6.52613" x2="5.22377" y2="6.52613" gradientUnits="userSpaceOnUse">
<stop stop-color="#E5C472"/>
<stop offset="0.56" stop-color="#CAA14C"/>
<stop offset="1" stop-color="#B3832C"/>
</linearGradient>
<linearGradient id="paint61_linear_777_3226" x1="9.14453" y1="5.29413" x2="10.8201" y2="5.29413" gradientUnits="userSpaceOnUse">
<stop stop-color="#F3EDE3"/>
<stop offset="0.19" stop-color="#F0EBE4"/>
<stop offset="1" stop-color="#E7E6E5"/>
</linearGradient>
<linearGradient id="paint62_linear_777_3226" x1="9.21371" y1="5.28006" x2="10.8188" y2="5.28006" gradientUnits="userSpaceOnUse">
<stop stop-color="#E8DAC7"/>
<stop offset="0.53" stop-color="#D8D2CA"/>
<stop offset="1" stop-color="#CFCDCB"/>
</linearGradient>
<linearGradient id="paint63_linear_777_3226" x1="9.28402" y1="5.26598" x2="10.8187" y2="5.26598" gradientUnits="userSpaceOnUse">
<stop stop-color="#DCC8AB"/>
<stop offset="0.05" stop-color="#D9C7AB"/>
<stop offset="0.64" stop-color="#C1B9AF"/>
<stop offset="1" stop-color="#B8B4B0"/>
</linearGradient>
<linearGradient id="paint64_linear_777_3226" x1="9.35547" y1="5.2519" x2="10.8198" y2="5.2519" gradientUnits="userSpaceOnUse">
<stop stop-color="#D1B68F"/>
<stop offset="0.25" stop-color="#C1AD91"/>
<stop offset="0.71" stop-color="#A9A095"/>
<stop offset="1" stop-color="#A09B96"/>
</linearGradient>
<linearGradient id="paint65_linear_777_3226" x1="9.42733" y1="5.23782" x2="10.8213" y2="5.23782" gradientUnits="userSpaceOnUse">
<stop stop-color="#C5A373"/>
<stop offset="0.36" stop-color="#A99477"/>
<stop offset="0.76" stop-color="#91867B"/>
<stop offset="1" stop-color="#88817C"/>
</linearGradient>
<linearGradient id="paint66_linear_777_3226" x1="9.48792" y1="5.23078" x2="10.8185" y2="5.23078" gradientUnits="userSpaceOnUse">
<stop stop-color="#BA9157"/>
<stop offset="0.01" stop-color="#B99157"/>
<stop offset="0.44" stop-color="#917B5D"/>
<stop offset="0.79" stop-color="#796D61"/>
<stop offset="1" stop-color="#706862"/>
</linearGradient>
<linearGradient id="paint67_linear_777_3226" x1="9.55859" y1="5.2167" x2="10.8188" y2="5.2167" gradientUnits="userSpaceOnUse">
<stop stop-color="#AE7F3B"/>
<stop offset="0.11" stop-color="#A2783D"/>
<stop offset="0.5" stop-color="#7A6242"/>
<stop offset="0.81" stop-color="#625446"/>
<stop offset="1" stop-color="#594F47"/>
</linearGradient>
<linearGradient id="paint68_linear_777_3226" x1="9.62891" y1="5.20262" x2="10.8187" y2="5.20262" gradientUnits="userSpaceOnUse">
<stop stop-color="#A36C1F"/>
<stop offset="0.19" stop-color="#8A5E23"/>
<stop offset="0.55" stop-color="#624828"/>
<stop offset="0.83" stop-color="#4A3B2C"/>
<stop offset="1" stop-color="#41362D"/>
</linearGradient>
<linearGradient id="paint69_linear_777_3226" x1="9.70117" y1="5.18854" x2="10.8205" y2="5.18854" gradientUnits="userSpaceOnUse">
<stop stop-color="#975A03"/>
<stop offset="0.26" stop-color="#724608"/>
<stop offset="0.58" stop-color="#4B300E"/>
<stop offset="0.84" stop-color="#322212"/>
<stop offset="1" stop-color="#291D13"/>
</linearGradient>
<linearGradient id="paint70_linear_777_3226" x1="12.861" y1="16.2343" x2="10.0027" y2="14.9882" gradientUnits="userSpaceOnUse">
<stop stop-color="#F4E79F"/>
<stop offset="1" stop-color="#F4E0B6"/>
</linearGradient>
<linearGradient id="paint71_linear_777_3226" x1="13.6133" y1="11.961" x2="16.7883" y2="11.961" gradientUnits="userSpaceOnUse">
<stop stop-color="#F4E79F"/>
<stop offset="1" stop-color="#F4E0B6"/>
</linearGradient>
<linearGradient id="paint72_linear_777_3226" x1="10.918" y1="12.8974" x2="12.5442" y2="12.8974" gradientUnits="userSpaceOnUse">
<stop stop-color="#F4E0B6"/>
<stop offset="0.42" stop-color="#EDD498"/>
<stop offset="1" stop-color="#E5C472"/>
</linearGradient>
<linearGradient id="paint73_linear_777_3226" x1="10.9316" y1="15.4952" x2="14.0504" y2="15.4952" gradientUnits="userSpaceOnUse">
<stop stop-color="#C49A36"/>
<stop offset="0.5" stop-color="#9A711A"/>
<stop offset="1" stop-color="#744C00"/>
</linearGradient>
<linearGradient id="paint74_linear_777_3226" x1="11.825" y1="17.7268" x2="10.9731" y2="17.3608" gradientUnits="userSpaceOnUse">
<stop stop-color="#F4E79F"/>
<stop offset="1" stop-color="#F4E0B6"/>
</linearGradient>
<linearGradient id="paint75_linear_777_3226" x1="4.49091" y1="9.59562" x2="3.70243" y2="9.25066" gradientUnits="userSpaceOnUse">
<stop stop-color="#E5C472"/>
<stop offset="0.3" stop-color="#ECD498"/>
<stop offset="0.95" stop-color="#FEFCF8"/>
<stop offset="1" stop-color="white"/>
</linearGradient>
<linearGradient id="paint76_linear_777_3226" x1="8.43945" y1="16.6216" x2="9.3969" y2="16.6216" gradientUnits="userSpaceOnUse">
<stop stop-color="#E5C472"/>
<stop offset="0.56" stop-color="#CAA14C"/>
<stop offset="1" stop-color="#B3832C"/>
</linearGradient>
<linearGradient id="paint77_linear_777_3226" x1="9.98189" y1="11.0881" x2="14.1707" y2="11.0881" gradientUnits="userSpaceOnUse">
<stop stop-color="white"/>
<stop offset="0.05" stop-color="#FEFCF8"/>
<stop offset="0.7" stop-color="#ECD498"/>
<stop offset="1" stop-color="#E5C472"/>
</linearGradient>
</defs>
</svg>
