<svg width="23" height="36" viewBox="0 0 23 36" fill="none" xmlns="http://www.w3.org/2000/svg">
<path opacity="0.05" d="M20.5287 34.6225C20.4864 35.1927 18.8672 35.2702 11.5174 35.2702C4.71672 35.235 2.0415 35.3124 2.06262 34.6225C2.14006 31.5108 7.02585 27.3994 11.1513 27.3994C15.2768 27.3994 20.6835 32.6442 20.5287 34.6225Z" fill="#F9F9F9"/>
<path opacity="0.1" d="M20.4734 34.6084C20.4241 35.1576 18.819 35.235 11.5115 35.235C4.75301 35.1998 2.10596 35.2772 2.12708 34.6084C2.20452 31.6235 7.05511 27.6177 11.1454 27.6177C15.2356 27.6177 20.6213 32.6865 20.4734 34.6084Z" fill="#F2F2F2"/>
<path opacity="0.14" d="M20.4092 34.6014C20.367 35.1294 18.7689 35.1927 11.5106 35.1927C4.81551 35.1575 2.16846 35.242 2.18958 34.6014C2.25998 31.7431 7.11761 27.8289 11.1516 27.8289C15.1855 27.8289 20.55 32.7217 20.4092 34.6014Z" fill="#ECECEC"/>
<path opacity="0.19" d="M20.3469 34.5873C20.3469 35.0942 18.7207 35.1575 11.5046 35.1575C4.81661 35.1223 2.23291 35.1998 2.25403 34.5873C2.31739 31.8557 7.13278 28.04 11.1667 28.04C15.2007 28.04 20.4807 32.7639 20.3469 34.5873Z" fill="#E6E6E6"/>
<path opacity="0.24" d="M20.3049 34.5803C20.3049 35.059 18.6928 35.1224 11.526 35.1224C4.88725 35.1224 2.31763 35.1787 2.37395 34.5803C2.43731 31.9755 7.22454 28.2443 11.2303 28.2443C15.2361 28.2443 20.4176 32.7992 20.3049 34.5803Z" fill="#DFDFDF"/>
<path opacity="0.29" d="M20.2204 34.5662C20.2204 35.0308 18.6223 35.0801 11.4978 35.0801C4.90124 35.0801 2.3457 35.1434 2.3457 34.5662C2.40906 32.0881 7.17517 28.4695 11.1598 28.4695C15.1445 28.4695 20.3471 32.8413 20.2204 34.5662Z" fill="#D9D9D9"/>
<path opacity="0.33" d="M20.1643 34.5521C20.1291 34.9956 18.5733 35.0449 11.491 35.0449C4.93673 35.0097 2.43047 35.1082 2.43751 34.5521C2.49384 32.2077 7.23882 28.6807 11.1953 28.6807C15.1518 28.6807 20.3051 32.8765 20.1643 34.5521Z" fill="#D3D3D3"/>
<path opacity="0.38" d="M20.1021 34.5451C20.1021 34.9605 18.5321 35.0098 11.4921 35.0098C4.97302 35.0098 2.49493 35.0731 2.50197 34.5451C2.55829 32.3205 7.27512 28.9131 11.2105 28.9131C15.1459 28.9131 20.2077 32.9189 20.1021 34.5451Z" fill="#CCCCCC"/>
<path opacity="0.43" d="M20.0359 34.5311C20.0359 34.9253 18.48 34.9746 11.4822 34.9746C5.00541 34.9746 2.55548 35.0379 2.56252 34.5311C2.6118 32.419 7.3075 29.1102 11.2147 29.1102C15.1219 29.1102 20.1415 32.9541 20.0359 34.5311Z" fill="#C6C6C6"/>
<path opacity="0.48" d="M19.9717 34.4958C19.9717 34.8689 18.4299 34.9041 11.4814 34.9041C5.04679 34.8971 2.61798 35.0027 2.62502 34.4958C2.66726 32.5246 7.34184 29.2932 11.2279 29.2932C15.114 29.2932 20.0702 32.9963 19.9717 34.4958Z" fill="#C0C0C0"/>
<path opacity="0.52" d="M19.916 34.4958C19.916 34.8478 18.3813 34.883 11.468 34.883C5.08266 34.8619 2.70312 34.9675 2.70312 34.4958C2.70312 32.6724 7.37771 29.5677 11.2357 29.5677C15.0936 29.5677 20.0005 33.0314 19.916 34.4958Z" fill="#B9B9B9"/>
<path opacity="0.57" d="M19.8522 34.4958C19.8522 34.8196 18.3316 34.8548 11.4675 34.8548C5.1315 34.8196 2.74493 34.9252 2.75197 34.4958C2.78717 32.778 7.41248 29.7438 11.2493 29.7438C15.0861 29.7438 19.9297 33.0878 19.8522 34.4958Z" fill="#B3B3B3"/>
<path opacity="0.62" d="M19.79 34.4957C19.79 34.8055 18.2834 34.8266 11.4686 34.8266C5.1326 34.8266 2.80938 34.9041 2.81642 34.4957C2.81642 32.9117 7.44877 29.969 11.2645 29.969C15.0802 29.969 19.8604 33.0877 19.79 34.4957Z" fill="#ADADAD"/>
<path opacity="0.67" d="M19.7257 34.4958C19.7257 34.7774 18.2333 34.7985 11.4607 34.7985C5.18806 34.7985 2.87188 34.8759 2.87892 34.4958C2.87892 33.0314 7.48311 30.1873 11.2707 30.1873C15.0582 30.1873 19.7961 33.1441 19.7257 34.4958Z" fill="#A6A6A6"/>
<path opacity="0.71" d="M19.6635 34.4957C19.6635 34.7562 18.1921 34.7773 11.4548 34.7773C5.22435 34.7773 2.93634 34.8548 2.94338 34.4957C2.94338 33.1581 7.5194 30.4196 11.2788 30.4196C15.0382 30.4196 19.7268 33.1863 19.6635 34.4957Z" fill="#A0A0A0"/>
<path opacity="0.76" d="M19.6004 34.4958C19.6004 34.7281 18.1361 34.7492 11.448 34.7492C5.25985 34.714 3 34.8266 3 34.4958C3 33.2849 7.55491 30.6378 11.2932 30.6378C15.0314 30.6378 19.6567 33.2215 19.6004 34.4958Z" fill="#9A9A9A"/>
<path opacity="0.81" d="M19.5432 34.4466C19.5432 34.6649 18.093 34.6719 11.4472 34.6719C5.30123 34.6719 3.0625 34.7564 3.0625 34.4466C3.0625 33.3625 7.58925 30.814 11.2993 30.814C15.0094 30.814 19.5996 33.2639 19.5432 34.4466Z" fill="#939393"/>
<path opacity="0.86" d="M19.479 34.4395C19.479 34.6296 18.071 34.6366 11.4463 34.6366C5.33557 34.6014 3.125 34.7211 3.125 34.4395C3.125 33.482 7.62359 31.0321 11.3126 31.0321C15.0015 31.0321 19.5142 33.299 19.479 34.4395Z" fill="#8D8D8D"/>
<path opacity="0.9" d="M19.4148 34.4254C19.4148 34.5943 18.0068 34.6014 11.4384 34.6014C5.36991 34.6014 3.1875 34.6859 3.1875 34.4254C3.1875 33.5947 7.65793 31.2433 11.3187 31.2433C14.9796 31.2433 19.443 33.3412 19.4148 34.4254Z" fill="#878787"/>
<path opacity="0.95" d="M19.3596 34.4183C19.3596 34.5662 17.9516 34.5591 11.4325 34.5591C5.40621 34.5591 3.25195 34.6506 3.25195 34.4183C3.25195 33.7143 7.69422 31.4545 11.3339 31.4545C14.9736 31.4545 19.3666 33.3764 19.3596 34.4183Z" fill="#808080"/>
<path d="M19.2973 34.4043C19.2973 34.531 17.8893 34.5239 11.4336 34.5239C5.4425 34.5239 3.31641 34.6155 3.31641 34.4043C3.31641 33.827 7.73051 31.6727 11.3421 31.6727C14.9536 31.6727 19.2973 33.4187 19.2973 34.4043Z" fill="#7A7A7A"/>
<path d="M19.2829 29.0468H3.29492V34.4535H19.2829V29.0468Z" fill="url(#paint0_linear_778_3227)"/>
<path d="M18.0508 26.6321H4.53397L3.29492 29.0468H19.2829L18.0508 26.6321Z" fill="url(#paint1_linear_778_3227)"/>
<path style="mix-blend-mode:multiply" opacity="0.4" d="M16.6411 30.2577H5.94727V33.1441H16.6411V30.2577Z" fill="url(#paint2_linear_778_3227)"/>
<path d="M3.29492 29.0468L11.2924 28.9905C12.5103 28.9905 19.2829 29.0468 19.2829 29.0468C19.2829 29.0468 12.0035 29.1735 11.2924 29.1735C10.5814 29.1735 3.29492 29.0468 3.29492 29.0468Z" fill="#5C5C5C"/>
<path d="M16.5655 30.3704H6.01953V33.0315H16.5655V30.3704Z" fill="url(#paint3_linear_778_3227)"/>
<path style="mix-blend-mode:multiply" d="M7.5957 27.8359L12.5589 28.5188L18.6908 27.9063L18.022 26.6321H11.1439L7.5957 27.8359Z" fill="url(#paint4_linear_778_3227)"/>
<path d="M15.8119 25.6606C15.8119 25.3649 15.6429 25.3931 15.4739 25.2312C14.2881 24.3657 12.8434 23.9288 11.3766 23.9921C9.91718 23.9694 8.49384 24.4464 7.34269 25.3438C7.13853 25.5268 6.94141 25.4916 6.94141 25.7803C6.94141 26.4068 8.9267 26.6673 11.3766 26.6673C13.8266 26.6673 15.8119 26.2872 15.8119 25.6606Z" fill="url(#paint5_linear_778_3227)"/>
<path d="M6.92773 27.7585V25.7451C6.92773 25.7451 7.32902 26.5195 11.363 26.5195C15.3969 26.5195 15.7982 25.6113 15.7982 25.6113V27.8571C15.7982 27.8571 14.6999 28.5189 11.363 28.5189C8.02598 28.5189 6.92773 27.7585 6.92773 27.7585Z" fill="url(#paint6_linear_778_3227)"/>
<path d="M13.9689 28.3639C13.9689 28.3639 13.9337 27.1601 13.9337 26.7658C13.9282 26.6869 13.9385 26.6077 13.9639 26.5328C13.9893 26.4579 14.0292 26.3887 14.0815 26.3293C13.5173 26.4383 12.9452 26.5019 12.3708 26.5194C11.4978 26.5194 10.5263 26.5194 10.125 26.5194C10.3832 26.5743 10.6373 26.6472 10.8853 26.7377C10.9675 26.7875 11.0353 26.8579 11.0822 26.9418C11.1291 27.0257 11.1534 27.1203 11.1528 27.2164V28.547C12.0942 28.539 13.0344 28.4779 13.9689 28.3639V28.3639Z" fill="url(#paint7_linear_778_3227)"/>
<path style="mix-blend-mode:multiply" d="M14.7278 28.2161C15.0133 28.1569 15.2935 28.0745 15.5655 27.9697V25.8577C15.1032 26.1053 14.6 26.2675 14.0801 26.3364C14.0801 26.3364 14.7278 26.3364 14.7278 26.4842V28.2161Z" fill="url(#paint8_linear_778_3227)"/>
<path style="mix-blend-mode:multiply" d="M7.34375 27.9557C7.6484 28.071 7.96142 28.1628 8.28008 28.2303V26.2872C7.96073 26.239 7.64704 26.1588 7.34375 26.0479V27.9557Z" fill="url(#paint9_linear_778_3227)"/>
<path style="mix-blend-mode:multiply" d="M7.34375 26.0478C7.39019 25.9801 7.45625 25.9283 7.53304 25.8994C7.60982 25.8704 7.69364 25.8657 7.77319 25.8859C8.11111 25.9633 9.1812 24.5694 11.0468 24.5694C12.3128 24.5414 13.5681 24.8064 14.7147 25.3438C14.94 25.4564 15.1723 25.6395 15.3483 25.562C15.7073 25.3931 15.8129 25.6184 15.8129 25.6184C15.8129 25.6184 15.3553 26.5265 11.3777 26.5265C7.89991 26.5195 7.34375 26.0478 7.34375 26.0478Z" fill="url(#paint10_linear_778_3227)"/>
<path d="M7.68164 26.1394C7.68164 25.9141 8.26596 26.1886 8.38564 26.0197C9.0241 25.3148 9.90844 24.8815 10.8567 24.8088C12.2647 24.6187 13.4193 26.0056 13.9895 25.9774C14.5598 25.9493 15.13 25.7874 15.1089 25.9282C15.0878 26.069 13.7361 26.5266 10.9975 26.4562C9.88335 26.4885 8.7695 26.3821 7.68164 26.1394V26.1394Z" fill="url(#paint11_linear_778_3227)"/>
<path d="M7.26502 25.4915C7.1735 25.4915 7.33542 25.7379 7.75078 25.9139C8.1099 26.0785 8.4968 26.1741 8.89127 26.1955C9.40028 26.2634 9.91262 26.3033 10.426 26.3152C9.69886 26.2603 8.97932 26.1305 8.27879 25.928C7.71558 25.6816 7.4551 25.4352 7.26502 25.4915Z" fill="url(#paint12_linear_778_3227)"/>
<path d="M10.8008 24.8721C10.8008 24.8721 12.2933 24.7805 12.3355 24.5412C12.3778 24.3018 14.884 13.2771 14.884 13.2771C14.884 13.2771 14.1307 12.3267 13.7928 12.4253C10.5896 13.3757 11.188 22.6052 10.8008 24.8721Z" fill="url(#paint13_linear_778_3227)"/>
<path d="M22.8393 13.967C22.8393 13.967 22.3042 14.4317 21.917 14.3542C21.5298 14.2768 14.877 13.256 14.877 13.256L13.8984 12.6154L22.8393 13.967Z" fill="url(#paint14_linear_778_3227)"/>
<path d="M8.11907 7.3634C8.11907 7.3634 3.51488 9.37686 2.90944 9.92598C2.6208 10.1865 2.63488 10.2639 2.63488 10.2639L8.59075 12.1366L8.11907 7.3634Z" fill="url(#paint15_radial_778_3227)"/>
<path d="M15.7207 8.29278L16.9034 8.10974L22.8382 13.9671C22.4333 14.0086 22.0252 14.0086 21.6203 13.9671C21.0078 13.8755 15.7207 8.29278 15.7207 8.29278Z" fill="url(#paint16_linear_778_3227)"/>
<path d="M19.8963 2.02017C20.0294 1.9561 20.174 1.91936 20.3215 1.9121C20.469 1.90485 20.6165 1.92723 20.7552 1.97793L16.9043 8.10981L15.6582 8.29989C15.6582 8.29989 18.0729 3.15362 19.8963 2.02017Z" fill="url(#paint17_linear_778_3227)"/>
<path d="M10.0449 0.337576C10.0449 0.337576 10.5377 -0.0989062 10.7489 0.0207745C10.9601 0.140455 13.1003 4.12512 13.2129 4.08288C13.3256 4.04064 20.0207 1.82303 20.0418 1.97087C17.5229 3.20854 14.9377 4.30611 12.2977 5.25856C12.0443 5.20928 10.0449 0.337576 10.0449 0.337576Z" fill="url(#paint18_linear_778_3227)"/>
<g style="mix-blend-mode:multiply">
<path d="M10.7983 24.8721C11.094 24.8299 13.2412 13.4109 14.0297 12.9041C14.4098 12.6577 21.4851 14.1079 21.6188 13.946C21.7526 13.7841 15.7193 8.31395 15.7193 8.31395C15.7193 8.31395 19.6899 2.37215 20.0278 1.97791C20.3657 1.58367 12.5583 4.70241 12.5583 4.70241C12.5583 4.70241 10.5589 0.295342 10.045 0.337582C9.53108 0.379822 8.36947 7.2861 8.11603 7.37762C7.86259 7.46914 2.80784 9.85572 3.06832 9.96132L8.18643 11.4468C8.18643 11.4468 10.1999 24.9566 10.7983 24.8721Z" fill="#251C0D"/>
</g>
<path style="mix-blend-mode:multiply" d="M11.2227 24.8369C11.2227 24.8369 13.5599 14.2135 13.9049 13.9319C14.1571 13.7522 14.4614 13.6606 14.7708 13.6714L12.335 24.6398C11.9803 24.7763 11.6027 24.8433 11.2227 24.8369Z" fill="url(#paint19_linear_778_3227)"/>
<path d="M10.7999 24.8721C11.0956 24.8299 13.1091 13.1153 13.9046 12.6154C14.2847 12.369 21.4867 14.1149 21.6486 13.953C21.8105 13.7911 15.6857 8.32098 15.6857 8.32098C15.6857 8.32098 19.4521 2.56927 19.7901 2.19615C20.128 1.82302 12.5599 4.7024 12.5599 4.7024C12.5599 4.7024 10.2156 0.591018 10.0466 0.633258C9.87768 0.675498 8.42743 7.3213 8.17399 7.40578C7.92055 7.49026 3.94997 9.51779 4.17525 9.60227C4.40053 9.68675 8.21623 11.4327 8.21623 11.4327C8.21623 11.4327 10.2015 24.9566 10.7999 24.8721Z" fill="url(#paint20_linear_778_3227)"/>
<path style="mix-blend-mode:hard-light" opacity="0.5" d="M12.5581 4.7024C12.5581 4.7024 10.2137 0.591018 10.0448 0.633258C9.95219 0.794152 9.89014 0.970773 9.86174 1.15422C9.9603 2.82975 9.15774 7.20162 13.424 9.75011C15.7402 11.1581 21.0202 13.7489 21.344 13.601C20.0276 12.2493 15.6557 8.29986 15.6557 8.29986C15.6557 8.29986 19.4221 2.54815 19.76 2.17503C20.098 1.8019 12.5581 4.7024 12.5581 4.7024Z" fill="url(#paint21_radial_778_3227)"/>
<path opacity="0.2" d="M8.2168 11.4326C8.66828 11.5969 9.07189 11.8707 9.39138 12.2295C9.71087 12.5883 9.93623 13.0209 10.0472 13.4883C10.3851 15.0723 10.8005 24.8721 10.8005 24.8721C10.8005 24.8721 10.0965 23.1543 9.3432 18.6346C8.58992 14.1149 8.2168 11.4326 8.2168 11.4326Z" fill="url(#paint22_linear_778_3227)"/>
<g style="mix-blend-mode:multiply">
<path d="M15.7215 8.29289C15.8677 8.26796 16.0099 8.22295 16.1439 8.15913C16.2283 8.10281 18.9599 4.01959 19.9736 2.41446C20.0263 2.35121 20.0552 2.2715 20.0552 2.18918C20.0552 2.10686 20.0263 2.02715 19.9736 1.9639C20.1633 1.91763 20.3613 1.91763 20.5509 1.9639C20.5509 1.9639 16.4818 8.14505 16.4888 8.21545C16.4959 8.28585 22.0716 13.7278 22.2757 13.8475C22.4799 13.9672 22.8178 13.946 22.8319 14.0094C22.5337 14.1129 22.2169 14.1513 21.9026 14.122C19.0866 13.6081 14.2008 12.9534 14.2783 12.7704C14.3557 12.5873 17.5026 13.0379 18.1151 12.9675C18.7276 12.8971 18.8191 12.6648 18.9317 12.6718C19.0444 12.6788 21.2338 13.77 21.3394 13.6433C21.445 13.5166 18.9317 11.3483 18.9458 11.3201C18.9599 11.292 19.1992 11.4468 19.2767 11.4187C19.3541 11.3905 16.3832 8.37737 16.2565 8.34217C16.1298 8.30697 15.7215 8.37737 15.7215 8.29289Z" fill="#251C0D"/>
</g>
<path style="mix-blend-mode:color-dodge" opacity="0.5" fill-rule="evenodd" clip-rule="evenodd" d="M11.1516 25.6395C11.1094 26.1252 10.511 26.4702 9.814 26.4068C9.11704 26.3435 8.58903 25.9 8.63127 25.4142C8.67351 24.9284 9.27896 24.5905 9.96888 24.6539C10.6588 24.7172 11.1516 25.1608 11.1516 25.6395Z" fill="url(#paint23_radial_778_3227)"/>
<g style="mix-blend-mode:multiply">
<path d="M11.3763 28.5188C14.7132 28.5188 15.8115 27.857 15.8115 27.857V27.2938C15.8115 27.2938 15.016 27.8992 11.848 27.9978C10.1545 28.1378 8.45424 27.8268 6.91992 27.0967V27.7303C6.91992 27.7303 8.03929 28.5188 11.3763 28.5188Z" fill="#AB9A77"/>
</g>
<defs>
<linearGradient id="paint0_linear_778_3227" x1="10.5532" y1="29.441" x2="12.8271" y2="36.5233" gradientUnits="userSpaceOnUse">
<stop stop-color="#1D1D1B"/>
<stop offset="1" stop-color="#575756"/>
</linearGradient>
<linearGradient id="paint1_linear_778_3227" x1="3.29492" y1="27.8359" x2="19.2829" y2="27.8359" gradientUnits="userSpaceOnUse">
<stop stop-color="#575756"/>
<stop offset="1" stop-color="#1D1D1B"/>
</linearGradient>
<linearGradient id="paint2_linear_778_3227" x1="5.94727" y1="31.7009" x2="16.6411" y2="31.7009" gradientUnits="userSpaceOnUse">
<stop stop-color="#575756"/>
<stop offset="1" stop-color="#1D1D1B"/>
</linearGradient>
<linearGradient id="paint3_linear_778_3227" x1="6.01953" y1="31.7009" x2="16.5655" y2="31.7009" gradientUnits="userSpaceOnUse">
<stop stop-color="#EAC26F"/>
<stop offset="0.58" stop-color="#BF9339"/>
<stop offset="1" stop-color="#A47417"/>
</linearGradient>
<linearGradient id="paint4_linear_778_3227" x1="7.5957" y1="27.5754" x2="18.6908" y2="27.5754" gradientUnits="userSpaceOnUse">
<stop stop-color="#575756"/>
<stop offset="1" stop-color="#1D1D1B"/>
</linearGradient>
<linearGradient id="paint5_linear_778_3227" x1="6.94141" y1="25.3086" x2="15.8119" y2="25.3086" gradientUnits="userSpaceOnUse">
<stop stop-color="#EAC26F"/>
<stop offset="0.58" stop-color="#BF9339"/>
<stop offset="1" stop-color="#A47417"/>
</linearGradient>
<linearGradient id="paint6_linear_778_3227" x1="6.94181" y1="27.0616" x2="15.8123" y2="27.0616" gradientUnits="userSpaceOnUse">
<stop stop-color="#A47417"/>
<stop offset="0.42" stop-color="#BF9339"/>
<stop offset="1" stop-color="#EAC26F"/>
</linearGradient>
<linearGradient id="paint7_linear_778_3227" x1="10.0968" y1="27.4206" x2="14.0533" y2="27.4206" gradientUnits="userSpaceOnUse">
<stop stop-color="#EAC26F"/>
<stop offset="0.58" stop-color="#BF9339"/>
<stop offset="1" stop-color="#A47417"/>
</linearGradient>
<linearGradient id="paint8_linear_778_3227" x1="14.0801" y1="27.0193" x2="15.5655" y2="27.0193" gradientUnits="userSpaceOnUse">
<stop stop-color="#975A03"/>
<stop offset="0.26" stop-color="#724608"/>
<stop offset="0.58" stop-color="#4B300E"/>
<stop offset="0.84" stop-color="#322212"/>
<stop offset="1" stop-color="#291D13"/>
</linearGradient>
<linearGradient id="paint9_linear_778_3227" x1="7.34375" y1="27.125" x2="8.28008" y2="27.125" gradientUnits="userSpaceOnUse">
<stop stop-color="#291D13"/>
<stop offset="0.16" stop-color="#322212"/>
<stop offset="0.42" stop-color="#4B300E"/>
<stop offset="0.74" stop-color="#724608"/>
<stop offset="1" stop-color="#975A03"/>
</linearGradient>
<linearGradient id="paint10_linear_778_3227" x1="7.34375" y1="25.5268" x2="15.8129" y2="25.5268" gradientUnits="userSpaceOnUse">
<stop stop-color="#975A03"/>
<stop offset="0.26" stop-color="#724608"/>
<stop offset="0.58" stop-color="#4B300E"/>
<stop offset="0.84" stop-color="#322212"/>
<stop offset="1" stop-color="#291D13"/>
</linearGradient>
<linearGradient id="paint11_linear_778_3227" x1="7.68164" y1="25.6325" x2="15.13" y2="25.6325" gradientUnits="userSpaceOnUse">
<stop stop-color="#F4E0B6"/>
<stop offset="0.25" stop-color="#F4DFB4"/>
<stop offset="0.33" stop-color="#F2DCAD"/>
<stop offset="0.4" stop-color="#EFD8A2"/>
<stop offset="0.45" stop-color="#ECD191"/>
<stop offset="0.49" stop-color="#E7C87B"/>
<stop offset="0.51" stop-color="#E5C472"/>
<stop offset="0.53" stop-color="#E2C06F"/>
<stop offset="0.84" stop-color="#BB8F47"/>
<stop offset="1" stop-color="#AC7C37"/>
</linearGradient>
<linearGradient id="paint12_linear_778_3227" x1="7.23686" y1="25.8998" x2="10.426" y2="25.8998" gradientUnits="userSpaceOnUse">
<stop stop-color="#EAC26F"/>
<stop offset="0.58" stop-color="#BF9339"/>
<stop offset="1" stop-color="#A47417"/>
</linearGradient>
<linearGradient id="paint13_linear_778_3227" x1="10.8008" y1="18.6346" x2="14.884" y2="18.6346" gradientUnits="userSpaceOnUse">
<stop stop-color="#EAC26F"/>
<stop offset="0.24" stop-color="#E2B969"/>
<stop offset="0.63" stop-color="#CCA157"/>
<stop offset="1" stop-color="#B28443"/>
</linearGradient>
<linearGradient id="paint14_linear_778_3227" x1="13.9055" y1="13.4883" x2="22.8393" y2="13.4883" gradientUnits="userSpaceOnUse">
<stop stop-color="#975A03"/>
<stop offset="0.25" stop-color="#B27C26"/>
<stop offset="0.58" stop-color="#D0A24D"/>
<stop offset="0.84" stop-color="#E3B966"/>
<stop offset="1" stop-color="#EAC26F"/>
</linearGradient>
<radialGradient id="paint15_radial_778_3227" cx="0" cy="0" r="1" gradientUnits="userSpaceOnUse" gradientTransform="translate(4.58497 10.4135) scale(3.18914 3.02968)">
<stop stop-color="#EAC26F"/>
<stop offset="0.24" stop-color="#E2B969"/>
<stop offset="0.63" stop-color="#CCA157"/>
<stop offset="1" stop-color="#B28443"/>
</radialGradient>
<linearGradient id="paint16_linear_778_3227" x1="15.7207" y1="11.0525" x2="22.8382" y2="11.0525" gradientUnits="userSpaceOnUse">
<stop stop-color="#B28443"/>
<stop offset="0.37" stop-color="#CCA157"/>
<stop offset="0.76" stop-color="#E2B969"/>
<stop offset="1" stop-color="#EAC26F"/>
</linearGradient>
<linearGradient id="paint17_linear_778_3227" x1="17.8829" y1="4.96995" x2="18.8121" y2="5.45571" gradientUnits="userSpaceOnUse">
<stop stop-color="#B28443"/>
<stop offset="0.37" stop-color="#CCA157"/>
<stop offset="0.76" stop-color="#E2B969"/>
<stop offset="1" stop-color="#EAC26F"/>
</linearGradient>
<linearGradient id="paint18_linear_778_3227" x1="15.0715" y1="0.9571" x2="14.2337" y2="5.54721" gradientUnits="userSpaceOnUse">
<stop stop-color="#B28443"/>
<stop offset="0.37" stop-color="#CCA157"/>
<stop offset="0.76" stop-color="#E2B969"/>
<stop offset="1" stop-color="#EAC26F"/>
</linearGradient>
<linearGradient id="paint19_linear_778_3227" x1="11.2227" y1="19.2541" x2="14.7708" y2="19.2541" gradientUnits="userSpaceOnUse">
<stop stop-color="#291D13"/>
<stop offset="0.11" stop-color="#32251A"/>
<stop offset="0.3" stop-color="#4B3C2E"/>
<stop offset="0.53" stop-color="#73624E"/>
<stop offset="0.8" stop-color="#A9957A"/>
<stop offset="1" stop-color="#D8C1A0"/>
</linearGradient>
<linearGradient id="paint20_linear_778_3227" x1="14.686" y1="1.97087" x2="10.5676" y2="24.4568" gradientUnits="userSpaceOnUse">
<stop stop-color="#F4E0B6"/>
<stop offset="0.25" stop-color="#F4DFB4"/>
<stop offset="0.33" stop-color="#F2DCAD"/>
<stop offset="0.4" stop-color="#EFD8A2"/>
<stop offset="0.45" stop-color="#ECD191"/>
<stop offset="0.49" stop-color="#E7C87B"/>
<stop offset="0.51" stop-color="#E5C472"/>
<stop offset="0.53" stop-color="#E2C06F"/>
<stop offset="0.84" stop-color="#BB8F47"/>
<stop offset="1" stop-color="#AC7C37"/>
</linearGradient>
<radialGradient id="paint21_radial_778_3227" cx="0" cy="0" r="1" gradientUnits="userSpaceOnUse" gradientTransform="translate(15.5994 7.11714) scale(6.12484)">
<stop stop-color="white"/>
<stop offset="0.13" stop-color="#FEFBF8"/>
<stop offset="0.32" stop-color="#FAF0E5"/>
<stop offset="0.55" stop-color="#F4DEC5"/>
<stop offset="0.8" stop-color="#ECC699"/>
<stop offset="1" stop-color="#E5B072"/>
</radialGradient>
<linearGradient id="paint22_linear_778_3227" x1="8.2168" y1="18.1559" x2="10.8005" y2="18.1559" gradientUnits="userSpaceOnUse">
<stop stop-color="#92682E"/>
<stop offset="0.54" stop-color="#B38A47"/>
<stop offset="1" stop-color="#D3AB5E"/>
</linearGradient>
<radialGradient id="paint23_radial_778_3227" cx="0" cy="0" r="1" gradientUnits="userSpaceOnUse" gradientTransform="translate(10.8996 28.0777) rotate(95.2443) scale(0.878048 1.26812)">
<stop stop-color="white"/>
<stop offset="0.12" stop-color="#EAE7E4"/>
<stop offset="0.32" stop-color="#B4B0AB"/>
<stop offset="0.52" stop-color="#7E776F"/>
<stop offset="1" stop-color="#000100"/>
</radialGradient>
</defs>
</svg>
