<svg width="22" height="14" viewBox="0 0 22 14" fill="none" xmlns="http://www.w3.org/2000/svg">
<path d="M20.0676 0H1.93243C0.891892 0 0 0.891892 0 2.00676V6.61486C0 7.72973 0.891892 8.62162 2.00676 8.62162H3.86487C4.16216 8.62162 4.45946 8.39865 4.45946 8.02703C4.45946 7.65541 4.23649 7.43243 3.86487 7.43243H1.93243C1.48649 7.43243 1.04054 7.06081 1.04054 6.54054V2.00676C1.04054 1.56081 1.41216 1.11486 1.93243 1.11486H19.9932C20.4392 1.11486 20.8851 1.48649 20.8851 2.00676V6.46622C20.8851 6.91216 20.5135 7.35811 19.9932 7.35811H17.6149C17.3176 7.35811 17.0203 7.58108 17.0203 7.9527C17.0203 8.32432 17.2432 8.5473 17.6149 8.5473H19.9932C21.1081 8.5473 22 7.65541 22 6.54054V2.08108C22 0.891892 21.1081 0 20.0676 0ZM19.5473 2.97297C19.5473 2.67568 19.3243 2.37838 18.9527 2.37838H2.97297C2.67568 2.37838 2.37838 2.60135 2.37838 2.97297C2.37838 3.34459 2.60135 3.56757 2.97297 3.56757H18.9527C19.3243 3.56757 19.5473 3.27027 19.5473 2.97297ZM16.0541 4.08784C15.7568 3.93919 15.4595 4.08784 15.3108 4.38514C15.0878 4.97973 15.0878 5.87162 15.0135 6.98649C14.9392 8.84459 14.8649 11.3716 13.6757 12.5608H5.2027C6.24324 10.9257 6.31757 8.5473 6.39189 6.76351C6.39189 6.02027 6.46622 5.12838 6.54054 4.90541C6.68919 4.60811 6.61487 4.31081 6.31757 4.16216C6.02027 4.01351 5.72297 4.08784 5.57432 4.38514C5.35135 4.83108 5.27703 5.5 5.27703 6.68919C5.2027 8.62162 5.12838 11.5203 3.64189 12.7095C3.49324 12.8581 3.41892 13.0811 3.49324 13.3041C3.56757 13.527 3.79054 13.6757 4.01351 13.6757H13.973C14.1216 13.6757 14.2703 13.6014 14.3446 13.527C16.0541 12.0405 16.1284 9.14189 16.2027 6.98649C16.2027 6.09459 16.277 5.2027 16.4257 4.83108C16.5 4.53378 16.3514 4.16216 16.0541 4.08784ZM10.7027 6.46622C12.0405 6.46622 13.0811 5.64865 13.0811 4.60811H8.32432C8.39865 5.64865 9.43919 6.46622 10.7027 6.46622Z" fill="white"/>
</svg>
