<svg width="16" height="24" viewBox="0 0 16 24" fill="none" xmlns="http://www.w3.org/2000/svg">
<path fill-rule="evenodd" clip-rule="evenodd" d="M14.93 9.85386V11.996L13.0729 13.0676L12.0019 14.9231H11.7296C11.7296 14.9236 11.7301 14.9247 11.7301 14.9252V22.9183C11.7301 22.9204 11.729 22.922 11.729 22.9241C11.7312 23.0595 11.6816 23.1959 11.5782 23.2993C11.4749 23.4026 11.3384 23.4522 11.2026 23.4501C11.201 23.4501 11.1994 23.4511 11.1972 23.4511C11.0267 23.4511 10.8812 23.3659 10.7843 23.2407L8 20.4564L5.21575 23.2407C5.11876 23.3659 4.97382 23.4511 4.80277 23.4511C4.80064 23.4511 4.79904 23.4501 4.79744 23.4501C4.66156 23.4522 4.52514 23.4026 4.42177 23.2993C4.31892 23.1959 4.26883 23.0595 4.27097 22.9241C4.27097 22.922 4.2699 22.9204 4.2699 22.9183V14.9252C4.2699 14.9247 4.27043 14.9236 4.27043 14.9231H4.00027L2.92813 13.0676L1.0716 11.996V9.85386L0 7.9984L1.0716 6.14241V3.99867L2.92813 2.926L4.00027 1.07214H6.14507L7.99947 0L9.85599 1.07214H12.0008L13.0719 2.926L14.9289 3.99867V6.14188L16 7.9984L14.93 9.85386ZM5.33564 14.9252V21.6495L7.56837 19.4168C7.58543 19.3917 7.59662 19.363 7.619 19.34C7.72397 19.2356 7.86252 19.1871 8 19.1903C8.13748 19.1871 8.27603 19.2356 8.381 19.34C8.40338 19.363 8.41404 19.3917 8.43163 19.4168L10.6644 21.6495V14.9252C10.6644 14.9247 10.6649 14.9236 10.6649 14.9231H9.85652L8 15.9957L6.14561 14.9231H5.33511C5.33511 14.9236 5.33564 14.9247 5.33564 14.9252ZM13.8616 6.42696V4.6136L12.2907 3.70612L11.3853 2.13788H9.57037L8.00107 1.23147L6.43282 2.13788H4.61786L3.71145 3.70559L2.14001 4.61307V6.42696L1.2336 7.9984L2.14001 9.56877V11.3805L3.71145 12.2875L4.61786 13.8568H6.43229L8.00053 14.7632L9.56984 13.8568H11.3843L12.2896 12.2875L13.8611 11.3805V9.56931L14.7669 7.9984L13.8616 6.42696Z" fill="white"/>
</svg>
