<svg width="9" height="12" viewBox="0 0 9 12" fill="none" xmlns="http://www.w3.org/2000/svg">
<path d="M4.33649 2.15589C4.64095 2.15589 4.93295 2.27684 5.14824 2.49213C5.36353 2.70742 5.48448 2.99941 5.48448 3.30388C5.48448 3.37603 5.51314 3.44522 5.56416 3.49624C5.61517 3.54725 5.68437 3.57591 5.75652 3.57591C5.82866 3.57591 5.89786 3.54725 5.94887 3.49624C5.99989 3.44522 6.02855 3.37603 6.02855 3.30388C6.02855 2.85512 5.85028 2.42473 5.53296 2.10741C5.21563 1.79009 4.78525 1.61182 4.33649 1.61182C4.26434 1.61182 4.19515 1.64048 4.14413 1.69149C4.09311 1.74251 4.06445 1.8117 4.06445 1.88385C4.06445 1.956 4.09311 2.02519 4.14413 2.07621C4.19515 2.12723 4.26434 2.15589 4.33649 2.15589Z" fill="#474747"/>
<path d="M5.88074 7.37366C5.8165 7.3414 5.74209 7.33587 5.67378 7.3583C5.60548 7.38073 5.54883 7.42929 5.51621 7.49336C5.49949 7.52502 5.48932 7.55973 5.4863 7.59541C5.48328 7.63109 5.48749 7.66702 5.49866 7.70104C5.50983 7.73506 5.52774 7.76648 5.55132 7.79343C5.5749 7.82038 5.60367 7.8423 5.63591 7.85789C6.44113 8.2605 6.44114 9.57171 6.44114 10.0015C6.44114 10.0737 6.4698 10.1429 6.52081 10.1939C6.57183 10.2449 6.64102 10.2736 6.71317 10.2736C6.78532 10.2736 6.85451 10.2449 6.90553 10.1939C6.95655 10.1429 6.98521 10.0737 6.98521 10.0015C6.98521 9.4901 6.98521 7.92862 5.88074 7.37366Z" fill="#474747"/>
<path d="M6.69752 5.7252H6.67032C7.14388 5.26058 7.46839 4.66549 7.60247 4.01575C7.73655 3.36602 7.67414 2.69108 7.42319 2.07695C7.17223 1.46282 6.7441 0.937322 6.19337 0.567429C5.64263 0.197535 4.99423 0 4.33081 0C3.66738 0 3.01898 0.197535 2.46825 0.567429C1.91751 0.937322 1.48939 1.46282 1.23843 2.07695C0.987479 2.69108 0.925066 3.36602 1.05915 4.01575C1.19323 4.66549 1.51773 5.26058 1.9913 5.7252C0.859633 6.68276 0.212188 7.35741 0 10.0778C0.0110636 10.3356 0.0938101 10.5852 0.23894 10.7986C0.384069 11.0119 0.58583 11.1806 0.821548 11.2856C1.92176 11.7927 3.12551 12.035 4.33625 11.9929C5.55077 12.045 6.76047 11.8101 7.86727 11.3074C8.10873 11.1981 8.31415 11.0224 8.45961 10.8009C8.60506 10.5793 8.68456 10.321 8.68882 10.056C8.47663 7.35197 7.82919 6.68276 6.69752 5.7252ZM6.57782 3.3204C6.57782 3.76636 6.44544 4.20227 6.19745 4.57292C5.94946 4.94357 5.59703 5.23226 5.18481 5.40242C4.7726 5.57258 4.31915 5.61654 3.88192 5.52875C3.44469 5.44095 3.04336 5.22534 2.72879 4.90924C2.41422 4.59314 2.20055 4.19077 2.11487 3.75312C2.0292 3.31548 2.07536 2.86224 2.24751 2.45086C2.41966 2.03947 2.71006 1.68844 3.0819 1.44225C3.45374 1.19606 3.8903 1.06579 4.33625 1.06794C4.93175 1.07082 5.50188 1.3094 5.92195 1.73151C6.34201 2.15361 6.57783 2.72489 6.57782 3.3204ZM1.3493 10.3933C1.23893 10.3419 1.14345 10.2633 1.07182 10.1648C1.25681 7.78723 1.73015 7.38461 2.67683 6.58483L2.92166 6.37808L3.05768 6.43793L3.84659 7.52607L2.89446 9.70236L3.87923 10.9048C3.007 10.9092 2.14408 10.7255 1.3493 10.3661V10.3933ZM7.33408 10.3933C6.53213 10.7548 5.66205 10.9404 4.78239 10.9374L5.76716 9.735L4.81503 7.55872L5.60394 6.47057L5.75628 6.39984L6.00655 6.61747C6.95323 7.41726 7.42658 7.81987 7.61156 10.1594C7.60068 10.1539 7.51363 10.2573 7.3232 10.3661L7.33408 10.3933Z" fill="#474747"/>
</svg>
