<svg width="22" height="22" viewBox="0 0 22 22" fill="none" xmlns="http://www.w3.org/2000/svg">
<path d="M15.9995 6.78333C16.2705 7.51369 16.3783 8.29458 16.3152 9.07107C16.2521 9.84756 16.0197 10.6008 15.6342 11.2778C15.2488 11.9548 14.7197 12.5392 14.0842 12.9898C13.4486 13.4404 12.7221 13.7463 11.9557 13.886C11.1893 14.0256 10.4016 13.9957 9.64793 13.7983C8.89431 13.6009 8.19308 13.2408 7.59357 12.7433C6.99406 12.2458 6.51081 11.623 6.17782 10.9187C5.84483 10.2144 5.67018 9.4457 5.66615 8.66666C5.66161 8.02382 5.77457 7.38556 5.99948 6.78333" stroke="white" stroke-width="1.2" stroke-linecap="round" stroke-linejoin="round"/>
<path d="M21 11C19.8807 9.13634 18.2649 7.62092 16.3333 6.62335C15.694 6.29106 15.0243 6.02093 14.3333 5.81669C11.8508 5.07805 9.19308 5.18651 6.77901 6.12498C4.36493 7.06346 2.33179 8.77857 1 11" stroke="white" stroke-width="1.2" stroke-linecap="round" stroke-linejoin="round"/>
<path d="M1 10.9999C1.92715 12.5451 3.19963 13.8545 4.71767 14.8255C6.2357 15.7965 7.95802 16.4026 9.74958 16.5963C11.5411 16.7901 13.3532 16.5662 15.0437 15.9422C16.7343 15.3183 18.2573 14.3112 19.4933 12.9999C20.065 12.3885 20.5701 11.7181 21 10.9999" stroke="white" stroke-width="1.2" stroke-linecap="round" stroke-linejoin="round"/>
<path d="M7.66667 20.9999H2.33333C1.97971 20.9999 1.64057 20.8594 1.39052 20.6093C1.14048 20.3593 1 20.0201 1 19.6665V16.3332" stroke="white" stroke-width="1.2" stroke-linecap="round" stroke-linejoin="round"/>
<path d="M21.0007 16.3332V19.6665C21.0007 20.0201 20.8602 20.3593 20.6101 20.6093C20.3601 20.8594 20.0209 20.9999 19.6673 20.9999H14.334" stroke="white" stroke-width="1.2" stroke-linecap="round" stroke-linejoin="round"/>
<path d="M14.334 1H19.6673C20.0209 1 20.3601 1.14048 20.6101 1.39052C20.8602 1.64057 21.0007 1.97971 21.0007 2.33333V5.66667" stroke="white" stroke-width="1.2" stroke-linecap="round" stroke-linejoin="round"/>
<path d="M1 5.66667V2.33333C1 1.97971 1.14048 1.64057 1.39052 1.39052C1.64057 1.14048 1.97971 1 2.33333 1H7.66667" stroke="white" stroke-width="1.2" stroke-linecap="round" stroke-linejoin="round"/>
<path d="M8.39258 9.93317C8.94486 9.93317 9.39258 9.48545 9.39258 8.93317C9.39258 8.38088 8.94486 7.93317 8.39258 7.93317C7.84029 7.93317 7.39258 8.38088 7.39258 8.93317C7.39258 9.48545 7.84029 9.93317 8.39258 9.93317Z" fill="white"/>
</svg>
