<svg width="22" height="15" viewBox="0 0 22 15" fill="none" xmlns="http://www.w3.org/2000/svg">
<path d="M18.3265 0.0903821C18.1193 -0.0619509 17.8283 -0.0170647 17.6762 0.189922C17.5241 0.396909 17.5688 0.688086 17.7758 0.840186C19.7514 2.29119 20.9308 4.61479 20.9308 7.05584C20.9308 9.49689 19.7514 11.8205 17.7758 13.2717C17.5688 13.4238 17.5241 13.715 17.6762 13.922C17.7674 14.0462 17.9086 14.1118 18.0514 14.1118C18.1469 14.1118 18.2435 14.0825 18.3265 14.0215C20.5396 12.3956 21.8611 9.79179 21.8611 7.05584C21.8611 4.31989 20.5396 1.71604 18.3265 0.0903821Z" fill="white"/>
<path d="M15.2191 11.5091C15.0121 11.6612 14.9675 11.9524 15.1196 12.1593C15.2107 12.2835 15.3519 12.3491 15.4947 12.3491C15.5903 12.3491 15.6868 12.3198 15.7698 12.2589C17.4229 11.0444 18.41 9.09942 18.41 7.05583C18.41 5.01224 17.4229 3.06727 15.7698 1.85279C15.5626 1.70069 15.2714 1.74557 15.1196 1.95233C14.9675 2.15931 15.0121 2.45049 15.2191 2.60259C16.6345 3.64241 17.4797 5.30691 17.4797 7.05583C17.4797 8.80476 16.6345 10.4693 15.2191 11.5091Z" fill="white"/>
<path d="M12.6646 9.74761C12.4574 9.89948 12.4128 10.1907 12.5649 10.3976C12.656 10.5218 12.7972 10.5877 12.9402 10.5877C13.0358 10.5877 13.1321 10.5583 13.2151 10.4974C14.3078 9.69575 14.9599 8.40918 14.9599 7.05562C14.9599 5.70207 14.3075 4.41549 13.2151 3.61383C13.0082 3.46173 12.7167 3.50638 12.5651 3.7136C12.413 3.92082 12.4579 4.21176 12.6649 4.36363C13.5196 4.99087 14.0298 5.99697 14.0298 7.05539C14.0298 8.11381 13.5193 9.12037 12.6646 9.74761Z" fill="white"/>
<path d="M11.4013 2.3728C11.2489 2.29234 11.0643 2.3028 10.9217 2.40002C7.10849 5.00526 3.24272 5.00712 3.19853 5.00851C3.19783 5.00851 3.19713 5.00875 3.1962 5.00875C3.1955 5.00875 3.19504 5.00851 3.19434 5.00851H2.04731C0.918417 5.00851 0 5.92693 0 7.05582C0 8.18472 0.918417 9.10313 2.04731 9.10313H3.19434C3.19504 9.10313 3.19574 9.1029 3.19643 9.1029C3.19736 9.1029 3.19806 9.10313 3.19899 9.10313C3.23109 9.09964 7.09221 9.09546 10.9217 11.7116C11.0005 11.7654 11.0922 11.7928 11.184 11.7928C11.2585 11.7928 11.3331 11.7749 11.4013 11.7391C11.5538 11.6586 11.6492 11.5002 11.6492 11.3277V2.78399C11.6492 2.61165 11.5538 2.45327 11.4013 2.3728ZM0.930278 7.05582C0.930278 6.43998 1.43123 5.93879 2.04731 5.93879H2.7292V8.17262H2.04731C1.43123 8.17285 0.930278 7.67167 0.930278 7.05582ZM10.7189 10.4748C7.66456 8.62171 4.76814 8.25937 3.65948 8.18937V5.92251C4.76837 5.85251 7.66502 5.48993 10.7189 3.63705V10.4748Z" fill="white"/>
</svg>
