<svg width="22" height="23" viewBox="0 0 22 23" fill="none" xmlns="http://www.w3.org/2000/svg">
<path d="M12.4792 0C7.95355 0 4.27148 3.68199 4.27148 8.20776C4.27148 9.51376 4.58598 10.8134 5.18065 11.9661C5.32029 12.2371 5.6537 12.3432 5.92458 12.2037C6.19563 12.0638 6.30209 11.7308 6.16212 11.4597C5.64049 10.4486 5.37589 9.35447 5.37589 8.20776C5.37589 4.29092 8.56233 1.10448 12.4792 1.10448C16.396 1.10448 19.5825 4.29092 19.5825 8.20776C19.5825 10.5629 18.4182 12.7605 16.4677 14.0864C16.2154 14.2579 16.1501 14.6014 16.3215 14.8537C16.4284 15.0108 16.6018 15.0954 16.7786 15.0954C16.8856 15.0954 16.9935 15.0644 17.0886 14.9998C19.3419 13.468 20.687 10.929 20.687 8.20776C20.6871 3.68199 17.0051 0 12.4792 0Z" fill="white"/>
<path d="M14.2758 13.4444C14.3415 13.4444 14.4083 13.4325 14.4734 13.4076C16.6116 12.5879 18.0482 10.4983 18.0482 8.20775C18.0482 5.13804 15.5509 2.64075 12.4812 2.64075C9.4116 2.64075 6.91406 5.13804 6.91406 8.20775C6.91406 9.63471 7.45338 10.9917 8.43274 12.0289C8.64191 12.2507 8.99154 12.261 9.21327 12.0514C9.43516 11.842 9.44518 11.4926 9.23568 11.2709C8.45083 10.4393 8.01846 9.35144 8.01846 8.20775C8.01846 5.74714 10.0205 3.74523 12.4811 3.74523C14.9418 3.74523 16.9437 5.74714 16.9437 8.20775C16.9437 10.0441 15.792 11.7192 14.0779 12.3764C13.7932 12.4856 13.6508 12.805 13.7599 13.0898C13.8443 13.3094 14.0536 13.4444 14.2758 13.4444Z" fill="white"/>
<path d="M2.0972 14.4193C2.40216 14.4193 2.6494 14.1719 2.6494 13.867C2.6494 13.5621 2.40216 13.3149 2.0972 13.3149H0.552118C0.247242 13.3149 0 13.5621 0 13.867V21.5489C0 21.8537 0.247242 22.1011 0.552118 22.1011H4.11305H14.1502C15.4608 22.1011 16.7564 21.6632 17.7983 20.868L21.1506 18.3096C22.0841 17.5973 22.2781 16.2478 21.5831 15.3014C20.8873 14.3538 19.5404 14.1357 18.5807 14.8152L16.8646 16.0306C16.6157 16.2069 16.557 16.5516 16.7332 16.8006C16.9096 17.0493 17.2542 17.1081 17.5031 16.932L19.2192 15.7164C19.6904 15.3826 20.3516 15.4902 20.6928 15.9551C21.0342 16.4197 20.9389 17.082 20.4806 17.4317L17.1283 19.9899C16.2776 20.6391 15.2202 20.9966 14.1502 20.9966H4.66525V14.4192H8.40365C9.05229 14.4192 9.66481 14.6688 10.1285 15.1222C10.8001 15.7782 11.6869 16.1395 12.6255 16.1395H13.6953C14.1962 16.1395 14.6036 16.5469 14.6036 17.0476C14.6036 17.7153 14.0605 18.2585 13.3928 18.2585H9.51808C9.2132 18.2585 8.96588 18.5057 8.96588 18.8106C8.96588 19.1156 9.2132 19.3628 9.51808 19.3628H13.3928C14.6693 19.3628 15.708 18.3242 15.708 17.0476C15.708 15.9381 14.8051 15.0351 13.6953 15.0351H12.6255C11.977 15.0351 11.3644 14.7854 10.9005 14.3322C10.2293 13.6759 9.34257 13.3147 8.40365 13.3147H4.11297C3.8081 13.3147 3.56077 13.5619 3.56077 13.8668V20.9965H1.10432V14.4191H2.0972V14.4193Z" fill="white"/>
<path d="M12.4822 12.2661C12.7871 12.2661 13.0344 12.0188 13.0344 11.7139V11.2669C13.812 11.1234 14.4032 10.4417 14.4032 9.62321C14.4032 8.70076 13.6528 7.95039 12.7304 7.95039H12.645H12.3206H12.2352C11.9218 7.95039 11.6668 7.69557 11.6668 7.38213C11.6668 7.0687 11.9218 6.81387 12.2352 6.81387H13.5264C13.8314 6.81387 14.0786 6.56655 14.0786 6.26167C14.0786 5.9568 13.8314 5.70947 13.5264 5.70947H13.0344V5.35683C13.0344 5.05187 12.7872 4.80463 12.4822 4.80463C12.1774 4.80463 11.9301 5.05195 11.9301 5.35683V5.73874C11.1531 5.88278 10.5625 6.56427 10.5625 7.38221C10.5625 8.3045 11.3129 9.05487 12.2353 9.05487H12.3207H12.6451H12.7305C13.0439 9.05487 13.2989 9.30986 13.2989 9.6233C13.2989 9.93673 13.0439 10.1916 12.7305 10.1916H11.4393C11.1344 10.1916 10.8871 10.4389 10.8871 10.7438C10.8871 11.0487 11.1344 11.296 11.4393 11.296H11.9301V11.714C11.93 12.0188 12.1773 12.2661 12.4822 12.2661Z" fill="white"/>
</svg>
