<svg width="19" height="18" viewBox="0 0 19 18" fill="none" xmlns="http://www.w3.org/2000/svg">
<path d="M4.52954 11.4188C3.46002 11.4661 2.39359 11.2719 1.40944 10.8505C1.29544 10.8 1.19582 10.7218 1.1196 10.6231C1.31283 8.13957 1.80727 7.71901 2.82457 6.88358L3.08031 6.66761C3.53472 6.87782 4.02888 6.98828 4.52954 6.99156C4.71998 6.98856 4.90994 6.97146 5.09786 6.94041V5.76966C4.91305 5.8232 4.72193 5.85187 4.52954 5.85491C4.06419 5.85491 3.60929 5.71692 3.22236 5.45838C2.83543 5.19985 2.53386 4.83238 2.35578 4.40245C2.1777 3.97252 2.1311 3.49944 2.22189 3.04303C2.31267 2.58662 2.53676 2.16738 2.86582 1.83833C3.19487 1.50927 3.61411 1.28519 4.07052 1.1944C4.52693 1.10362 5.00001 1.15021 5.42994 1.32829C5.85987 1.50637 6.22734 1.80795 6.48587 2.19487C6.74441 2.5818 6.8824 3.0367 6.8824 3.50205C6.88285 3.68233 6.85993 3.8619 6.8142 4.03628H7.95085C7.98034 3.85971 7.99554 3.68106 7.99632 3.50205C7.99839 2.92526 7.85745 2.35694 7.58611 1.84795C7.31477 1.33896 6.92149 0.905173 6.44145 0.58539C5.96142 0.265607 5.4096 0.0698046 4.83536 0.0155004C4.26112 -0.0388038 3.68238 0.0500839 3.15091 0.274211C2.61943 0.498338 2.15181 0.850715 1.78986 1.29982C1.42792 1.74892 1.18294 2.28074 1.07685 2.84769C0.970765 3.41465 1.00687 3.99907 1.18194 4.54865C1.35701 5.09824 1.66559 5.59586 2.08007 5.99699C0.897952 6.99724 0.221646 7.70196 0 10.5436C0.0115567 10.8129 0.0979915 11.0736 0.24959 11.2965C0.401189 11.5194 0.611944 11.6956 0.858169 11.8053C2.01072 12.3265 3.26483 12.5847 4.52954 12.5611V11.4188Z" fill="#474747"/>
<path d="M4.52928 2.28585C4.84732 2.28585 5.15233 2.41219 5.37722 2.63708C5.6021 2.86197 5.72844 3.16698 5.72844 3.48502C5.72844 3.56038 5.75838 3.63266 5.81167 3.68595C5.86496 3.73924 5.93724 3.76918 6.0126 3.76918C6.08797 3.76918 6.16025 3.73924 6.21354 3.68595C6.26683 3.63266 6.29677 3.56038 6.29677 3.48502C6.29677 3.01625 6.11055 2.56668 5.77908 2.23521C5.44761 1.90375 4.99805 1.71753 4.52928 1.71753C4.45391 1.71753 4.38164 1.74747 4.32835 1.80076C4.27506 1.85405 4.24512 1.92633 4.24512 2.00169C4.24512 2.07706 4.27506 2.14933 4.32835 2.20262C4.38164 2.25591 4.45391 2.28585 4.52928 2.28585Z" fill="#474747"/>
<path d="M11.3496 4.0307C11.3086 3.8575 11.2876 3.68015 11.2871 3.50215C11.2871 3.03608 11.4256 2.58051 11.6849 2.19322C11.9442 1.80593 12.3127 1.50438 12.7436 1.32681C13.1745 1.14924 13.6485 1.10365 14.1053 1.19583C14.5622 1.288 14.9814 1.51379 15.3098 1.84455C15.6381 2.17531 15.8609 2.59615 15.9497 3.05367C16.0386 3.5112 15.9895 3.98481 15.8088 4.41443C15.6281 4.84405 15.3239 5.21033 14.9347 5.4668C14.5456 5.72328 14.089 5.85839 13.6229 5.85501C13.4314 5.85675 13.2404 5.83383 13.0546 5.78682V6.92346C13.2426 6.95354 13.4326 6.96874 13.6229 6.96893C14.1363 6.97024 14.6434 6.85562 15.1063 6.63362L15.3677 6.86095C16.3566 7.69638 16.851 8.11694 17.0443 10.5607C17.0443 10.6176 16.9533 10.7255 16.7544 10.8392C15.7703 11.2606 14.7038 11.4548 13.6343 11.4075V12.5442C14.9017 12.5828 16.1618 12.3381 17.3227 11.8281C17.5703 11.7136 17.7808 11.532 17.9304 11.304C18.0801 11.076 18.1629 10.8107 18.1695 10.538C17.9479 7.69638 17.2716 7.0144 16.0895 5.99141H16.0611C16.4704 5.58796 16.7738 5.08964 16.9442 4.54072C17.1146 3.99181 17.1468 3.4093 17.0379 2.84496C16.929 2.28061 16.6824 1.7519 16.32 1.3058C15.9575 0.859705 15.4905 0.510034 14.9605 0.287858C14.4304 0.0656813 13.8536 -0.022121 13.2815 0.0322523C12.7093 0.0866257 12.1594 0.281491 11.6806 0.599534C11.2019 0.917577 10.8091 1.34895 10.5372 1.85533C10.2653 2.3617 10.1227 2.9274 10.1221 3.50215C10.1228 3.68116 10.138 3.85981 10.1675 4.03638L11.3496 4.0307Z" fill="#474747"/>
<path d="M15.3895 3.4907C15.3903 3.25811 15.3451 3.02766 15.2566 2.81257C15.1681 2.59747 15.0381 2.40195 14.8739 2.23722C14.7097 2.07249 14.5146 1.94179 14.2998 1.85261C14.0849 1.76343 13.8546 1.71753 13.6221 1.71753C13.5467 1.71753 13.4744 1.74747 13.4211 1.80076C13.3678 1.85405 13.3379 1.92633 13.3379 2.00169C13.3379 2.07706 13.3678 2.14933 13.4211 2.20262C13.4744 2.25591 13.5467 2.28585 13.6221 2.28585C13.9401 2.28585 14.2451 2.41219 14.47 2.63708C14.6949 2.86197 14.8212 3.16698 14.8212 3.48502C14.8212 3.56038 14.8512 3.63266 14.9044 3.68595C14.9577 3.73924 15.03 3.76918 15.1054 3.76918C15.1798 3.76919 15.2512 3.74004 15.3043 3.68797C15.3575 3.6359 15.3881 3.56507 15.3895 3.4907Z" fill="#474747"/>
<path d="M14.9809 8.24185C15.822 8.66241 15.822 10.0321 15.822 10.481C15.822 10.5564 15.8519 10.6287 15.9052 10.682C15.9585 10.7353 16.0308 10.7652 16.1062 10.7652C16.1815 10.7652 16.2538 10.7353 16.3071 10.682C16.3604 10.6287 16.3903 10.5564 16.3903 10.481C16.3903 9.94682 16.3903 8.31004 15.2537 7.73604C15.1866 7.70233 15.1089 7.69656 15.0375 7.71999C14.9661 7.74342 14.907 7.79414 14.8729 7.86107C14.8548 7.89312 14.8432 7.92843 14.8389 7.96498C14.8345 8.00152 14.8374 8.03857 14.8475 8.07398C14.8575 8.10939 14.8745 8.14245 14.8974 8.17127C14.9203 8.20008 14.9487 8.22407 14.9809 8.24185Z" fill="#474747"/>
<path d="M9.07615 6.83224C9.39419 6.83224 9.6992 6.95858 9.92409 7.18347C10.149 7.40835 10.2753 7.71336 10.2753 8.0314C10.2753 8.10677 10.3053 8.17905 10.3585 8.23234C10.4118 8.28563 10.4841 8.31556 10.5595 8.31556C10.6348 8.31556 10.7071 8.28563 10.7604 8.23234C10.8137 8.17905 10.8436 8.10677 10.8436 8.0314C10.8436 7.56264 10.6574 7.11307 10.326 6.7816C9.99449 6.45013 9.54492 6.26392 9.07615 6.26392C9.00079 6.26392 8.92851 6.29385 8.87522 6.34714C8.82193 6.40044 8.79199 6.47271 8.79199 6.54808C8.79199 6.62344 8.82193 6.69572 8.87522 6.74901C8.92851 6.8023 9.00079 6.83224 9.07615 6.83224Z" fill="#474747"/>
<path d="M10.6894 12.2827C10.6223 12.249 10.5445 12.2432 10.4732 12.2666C10.4018 12.2901 10.3427 12.3408 10.3086 12.4077C10.2911 12.4408 10.2805 12.477 10.2774 12.5143C10.2742 12.5516 10.2786 12.5891 10.2903 12.6246C10.3019 12.6602 10.3206 12.693 10.3453 12.7211C10.3699 12.7493 10.4 12.7722 10.4336 12.7885C11.2748 13.209 11.2748 14.5787 11.2748 15.0277C11.2748 15.103 11.3047 15.1753 11.358 15.2286C11.4113 15.2819 11.4836 15.3118 11.5589 15.3118C11.6343 15.3118 11.7066 15.2819 11.7598 15.2286C11.8131 15.1753 11.8431 15.103 11.8431 15.0277C11.8431 14.4934 11.8431 12.8624 10.6894 12.2827Z" fill="#474747"/>
<path d="M11.5429 10.5607H11.5145C12.0092 10.0754 12.3482 9.45378 12.4882 8.77508C12.6283 8.09639 12.5631 7.39136 12.301 6.74985C12.0388 6.10835 11.5916 5.55943 11.0163 5.17304C10.441 4.78666 9.76373 4.58032 9.07073 4.58032C8.37774 4.58032 7.70043 4.78666 7.12515 5.17304C6.54986 5.55943 6.10265 6.10835 5.84051 6.74985C5.57837 7.39136 5.51318 8.09639 5.65324 8.77508C5.79329 9.45378 6.13226 10.0754 6.62694 10.5607C5.44483 11.561 4.76852 12.2657 4.54688 15.1073C4.55843 15.3766 4.64487 15.6374 4.79647 15.8602C4.94806 16.0831 5.15882 16.2593 5.40504 16.369C6.5543 16.8987 7.81171 17.1518 9.07642 17.1078C10.3451 17.1622 11.6087 16.9169 12.7648 16.3917C13.0171 16.2776 13.2316 16.0941 13.3836 15.8627C13.5355 15.6312 13.6185 15.3614 13.623 15.0846C13.4014 12.26 12.7251 11.561 11.5429 10.5607ZM11.4179 8.04873C11.4179 8.51457 11.2796 8.96992 11.0206 9.35708C10.7615 9.74425 10.3934 10.0458 9.96281 10.2236C9.53221 10.4013 9.05855 10.4472 8.60183 10.3555C8.14511 10.2638 7.7259 10.0386 7.3973 9.7084C7.06871 9.3782 6.84552 8.9579 6.75602 8.50074C6.66652 8.04359 6.71474 7.57015 6.89457 7.14043C7.0744 6.7107 7.37774 6.34403 7.76615 6.08686C8.15457 5.8297 8.61059 5.69362 9.07642 5.69587C9.69846 5.69888 10.294 5.94809 10.7328 6.38901C11.1716 6.82994 11.4179 7.42668 11.4179 8.04873ZM5.95632 15.4369C5.84103 15.3832 5.74129 15.3011 5.66647 15.1982C5.8597 12.7147 6.35414 12.2941 7.34303 11.4587L7.59877 11.2427L7.74085 11.3052L8.56492 12.4419L7.57036 14.7152L8.59902 15.9712C7.68792 15.9758 6.78653 15.7839 5.95632 15.4085V15.4369ZM12.2079 15.4369C11.3702 15.8146 10.4613 16.0083 9.54244 16.0053L10.5711 14.7493L9.57654 12.476L10.4006 11.3393L10.5597 11.2654L10.8212 11.4928C11.8101 12.3282 12.3045 12.7488 12.4977 15.1926C12.4864 15.1869 12.3954 15.2949 12.1965 15.4085L12.2079 15.4369Z" fill="#474747"/>
</svg>
