<svg width="104" height="143" viewBox="0 0 104 143" fill="none" xmlns="http://www.w3.org/2000/svg">
<path d="M51.9989 0.00869228C66.3576 0.00869228 79.3588 5.80932 88.7675 15.1805C98.1762 24.5517 104 37.5028 104 51.8026C104 64.6983 99.2709 76.4889 91.4387 85.5589L53.217 140.745C51.5718 143.117 48.3023 143.713 45.9145 142.075C43.5332 140.436 42.9347 137.18 44.5798 134.802L67.9071 101.12C62.8965 102.724 57.5479 103.588 52.0011 103.588C37.6425 103.588 24.6412 97.7872 15.2325 88.416C5.82383 79.0449 0 66.0937 0 51.7939C0 37.4925 5.82383 24.543 15.2325 15.1718C24.6412 5.80063 37.6441 0 52.0011 0L51.9989 0.00869228ZM83.2911 78.9074L88.5918 71.2497C91.7029 65.4491 93.4712 58.8279 93.4712 51.7932C93.4712 40.385 88.8318 30.0606 81.3229 22.5881C73.8206 15.1156 63.4549 10.4882 52.001 10.4882C40.5471 10.4882 30.1814 15.1091 22.679 22.5881C15.1767 30.0606 10.5307 40.385 10.5307 51.7932C10.5307 63.2015 15.1701 73.5259 22.679 80.9984C30.1814 88.4708 40.5471 93.0983 52.001 93.0983C63.4549 93.0983 73.8206 88.4774 81.3229 80.9984C82.0047 80.3193 82.6576 79.6212 83.2914 78.9007L83.2911 78.9074Z" fill="#ECECEC"/>
<circle cx="77" cy="37" r="10" fill="#F12A23" stroke="#FAFAFA" stroke-width="2"/>
<path d="M80 36C79.9145 36.3184 79.8242 36.6571 79.7292 37.0163C79.6437 37.3755 79.5629 37.7265 79.4869 38.0694C79.4109 38.4041 79.3492 38.7143 79.3017 39H77.3492L77.2494 38.8653C77.3349 38.5714 77.4442 38.2612 77.5772 37.9347C77.7102 37.6082 77.8527 37.2776 78.0047 36.9429C78.1663 36.6082 78.323 36.2939 78.4751 36H80ZM76.7506 36C76.6651 36.3184 76.5748 36.6571 76.4798 37.0163C76.3943 37.3755 76.3135 37.7265 76.2375 38.0694C76.1615 38.4041 76.0998 38.7143 76.0523 39H74.0998L74 38.8653C74.0855 38.5714 74.1948 38.2612 74.3278 37.9347C74.4608 37.6082 74.6033 37.2776 74.7553 36.9429C74.9169 36.6082 75.0736 36.2939 75.2257 36H76.7506Z" fill="white"/>
</svg>
