<svg width="99" height="63" viewBox="0 0 99 63" fill="none" xmlns="http://www.w3.org/2000/svg">
<g opacity="0.05">
<path d="M22.7975 0.00723978C29.0927 0.00723978 34.7927 2.56054 38.9177 6.68551C43.0427 10.8105 45.596 16.5113 45.596 22.8057C45.596 28.482 43.5226 33.672 40.0888 37.6644L23.3315 61.9562C22.6102 63.0002 21.1768 63.2626 20.13 62.5414C19.0859 61.8201 18.8235 60.3866 19.5448 59.3398L29.772 44.5142C27.5753 45.22 25.2303 45.6003 22.7984 45.6003C16.5033 45.6003 10.8032 43.047 6.67827 38.922C2.5533 34.7971 0 29.0963 0 22.8019C0 16.5067 2.5533 10.8067 6.67827 6.68168C10.8032 2.55671 16.504 0.00341365 22.7984 0.00341365L22.7975 0.00723978ZM92.9912 37.661L76.2339 61.9528C75.5126 62.9968 74.0792 63.2592 73.0324 62.5379C71.9883 61.8167 71.7259 60.3832 72.4472 59.3364L82.6708 44.5107C80.4741 45.2166 78.1291 45.5969 75.6972 45.5969C69.4021 45.5969 63.702 43.0436 59.5771 38.9186C55.4521 34.7936 52.8988 29.0929 52.8988 22.7984C52.8988 16.5033 55.4521 10.8032 59.5771 6.67827C63.702 2.5533 69.4028 0 75.6972 0C81.9924 0 87.6924 2.5533 91.8174 6.67827C95.9424 10.8032 98.4957 16.504 98.4957 22.7984C98.4957 28.4748 96.4223 33.6647 92.9885 37.6571L92.9912 37.661ZM89.4184 34.7366L91.7423 31.3658C93.1063 28.8125 93.8816 25.898 93.8816 22.8016C93.8816 17.7799 91.8476 13.2354 88.5555 9.94615C85.2663 6.65695 80.7217 4.62006 75.7001 4.62006C70.6784 4.62006 66.1339 6.65408 62.8447 9.94615C59.5555 13.2354 57.5186 17.7799 57.5186 22.8016C57.5186 27.8232 59.5526 32.3678 62.8447 35.657C66.1339 38.9462 70.6784 40.983 75.7001 40.983C80.7217 40.983 85.2663 38.949 88.5555 35.657C88.8544 35.358 89.1406 35.0507 89.4185 34.7336L89.4184 34.7366ZM36.5167 34.7366L38.8406 31.3658C40.2046 28.8125 40.9799 25.898 40.9799 22.8016C40.9799 17.7799 38.9459 13.2354 35.6538 9.94615C32.3646 6.65695 27.82 4.62006 22.7984 4.62006C17.7768 4.62006 13.2322 6.65408 9.94301 9.94615C6.65381 13.2354 4.61692 17.7799 4.61692 22.8016C4.61692 27.8232 6.65093 32.3678 9.94301 35.657C13.2322 38.9462 17.7768 40.983 22.7984 40.983C27.82 40.983 32.3646 38.949 35.6538 35.657C35.9527 35.358 36.239 35.0507 36.5168 34.7336L36.5167 34.7366Z" fill="black"/>
</g>
</svg>
