<svg width="58" height="66" viewBox="0 0 58 66" fill="none" xmlns="http://www.w3.org/2000/svg">
<path fill-rule="evenodd" clip-rule="evenodd" d="M0 65.7559C2.44118 64.9305 4.4967 62.994 5.84471 60.6976C8.91057 55.4748 8.87486 47.2985 5.73585 42.1193C3.19601 37.9287 1.73388 33.0123 1.73388 27.7543C1.73388 12.4261 14.1598 0.000198364 29.488 0.000198364C44.8162 0.000198364 57.2421 12.4261 57.2421 27.7543C57.2421 33.3173 55.6054 38.498 52.7873 42.8412C49.5761 47.7902 49.3954 55.7264 52.3526 60.8312C53.6469 63.0653 55.635 64.9456 57.9985 65.7559L0 65.7559Z" fill="white"/>
<circle cx="29" cy="28" r="15.5" transform="rotate(90 29 28)" stroke="#F5F5F5"/>
<path d="M29 32L30.4434 29.5L27.5566 29.5L29 32ZM28.75 25L28.75 29.75L29.25 29.75L29.25 25L28.75 25Z" fill="#222222"/>
</svg>
