<svg width="66" height="58" viewBox="0 0 66 58" fill="none" xmlns="http://www.w3.org/2000/svg">
<path fill-rule="evenodd" clip-rule="evenodd" d="M0 57.9985C0.825405 55.5574 2.76187 53.5018 5.05824 52.1538C10.281 49.088 18.4574 49.1237 23.6366 52.2627C27.8271 54.8025 32.7436 56.2647 38.0016 56.2647C53.3297 56.2647 65.7557 43.8387 65.7557 28.5106C65.7557 13.1824 53.3297 0.756452 38.0016 0.756453C32.4386 0.756453 27.2579 2.39313 22.9147 5.21123C17.9657 8.42241 10.0295 8.60314 4.92467 5.64589C2.69052 4.35163 0.810251 2.36355 -2.53519e-06 3.8147e-05L0 57.9985Z" fill="#FAFAFA"/>
<circle cx="38" cy="29" r="15.5" stroke="#F5F5F5"/>
<path d="M42 29L39.5 27.5566L39.5 30.4434L42 29ZM35 29.25L39.75 29.25L39.75 28.75L35 28.75L35 29.25Z" fill="#222222"/>
</svg>
