<svg width="1110" height="2058" viewBox="0 0 1110 2058" fill="none" xmlns="http://www.w3.org/2000/svg">
<path fill-rule="evenodd" clip-rule="evenodd" d="M1025 213H104V205H1025C1071.94 205 1110 243.056 1110 290V497C1110 543.944 1071.94 582 1025 582H275V574H1025C1067.53 574 1102 539.526 1102 497V290C1102 247.474 1067.53 213 1025 213Z" fill="#F9FAFE"/>
<path fill-rule="evenodd" clip-rule="evenodd" d="M85 582H1006V574H85C38.0558 574 0 612.056 0 659V866C0 912.944 38.0558 951 85 951H835V943H85C42.4741 943 8 908.526 8 866V659C8 616.474 42.474 582 85 582Z" fill="#F9FAFE"/>
<path fill-rule="evenodd" clip-rule="evenodd" d="M1022 951H101V943H1022C1068.94 943 1107 981.056 1107 1028V1235C1107 1281.94 1068.94 1320 1022 1320H272V1312H1022C1064.53 1312 1099 1277.53 1099 1235V1028C1099 985.474 1064.53 951 1022 951Z" fill="#F9FAFE"/>
<path fill-rule="evenodd" clip-rule="evenodd" d="M85 1320H1006V1312H85C38.0558 1312 0 1350.06 0 1397V1604C0 1650.94 38.0558 1689 85 1689H835V1681H85C42.4741 1681 8 1646.53 8 1604V1397C8 1354.47 42.474 1320 85 1320Z" fill="#F9FAFE"/>
<path fill-rule="evenodd" clip-rule="evenodd" d="M1025 211H103.725V207H1025C1070.84 207 1108 244.16 1108 290V497C1108 542.84 1070.84 580 1025 580H635V576H1025C1068.63 576 1104 540.63 1104 497V290C1104 246.37 1068.63 211 1025 211Z" fill="#F12A23"/>
<path fill-rule="evenodd" clip-rule="evenodd" d="M84.9998 580H1006.28V576H84.9998C39.16 576 1.99976 613.16 1.99976 659V866C1.99976 911.84 39.1602 949 84.9998 949H380V945H84.9998C41.3693 945 5.99976 909.63 5.99976 866V659C5.99976 615.37 41.3693 580 84.9998 580Z" fill="#F12A23"/>
<path fill-rule="evenodd" clip-rule="evenodd" d="M54 113H458V105H54C24.1766 105 0 129.177 0 159C0 188.823 24.1766 213 54 213H458V205H54C28.5948 205 8 184.405 8 159C8 133.595 28.5948 113 54 113Z" fill="#F9FAFE"/>
<path fill-rule="evenodd" clip-rule="evenodd" d="M1022 1689H101V1681H1022C1068.94 1681 1107 1719.06 1107 1766V1973C1107 2019.94 1068.94 2058 1022 2058H121V2050H1022C1064.53 2050 1099 2015.53 1099 1973V1766C1099 1723.47 1064.53 1689 1022 1689Z" fill="#F9FAFE"/>
<path fill-rule="evenodd" clip-rule="evenodd" d="M52 111H458V107H52C23.2812 107 0 130.281 0 159C0 187.719 23.2812 211 52 211H458V207H52C25.4904 207 4 185.51 4 159C4 132.49 25.4904 111 52 111Z" fill="#F12A23"/>
<path fill-rule="evenodd" clip-rule="evenodd" d="M551 0.00012207V65.0001C551 87.0915 533.091 105 511 105H412V113H511C537.51 113 559 91.5098 559 65.0001V0.00012207H551Z" fill="#F9FAFE"/>
<path fill-rule="evenodd" clip-rule="evenodd" d="M553 1.00012V63.0001C553 87.3006 533.301 107 509 107H412V111H509C535.51 111 557 89.5098 557 63.0001V1.00012H553Z" fill="#F12A23"/>
</svg>
