<svg width="66" height="58" viewBox="0 0 66 58" fill="none" xmlns="http://www.w3.org/2000/svg">
<path fill-rule="evenodd" clip-rule="evenodd" d="M65.7559 57.9985C64.9305 55.5574 62.994 53.5018 60.6976 52.1538C55.4748 49.088 47.2985 49.1237 42.1193 52.2627C37.9287 54.8025 33.0123 56.2646 27.7543 56.2646C12.4261 56.2646 0.000198983 43.8387 0.000199653 28.5105C0.000200323 13.1824 12.4261 0.756437 27.7543 0.756438C33.3173 0.756438 38.498 2.39311 42.8412 5.21121C47.7902 8.4224 55.7264 8.60314 60.8312 5.64589C63.0653 4.35162 64.9456 2.36354 65.7559 2.28882e-05L65.7559 57.9985Z" fill="#FAFAFA"/>
<circle cx="28" cy="29" r="15.5" stroke="#F5F5F5"/>
<path d="M32 29L29.5 27.5566L29.5 30.4434L32 29ZM25 29.25L29.75 29.25L29.75 28.75L25 28.75L25 29.25Z" fill="#222222"/>
</svg>
