<svg width="18" height="18" viewBox="0 0 18 18" fill="none" xmlns="http://www.w3.org/2000/svg">
<path d="M12.2803 11.2197C11.9874 10.9268 11.5126 10.9268 11.2197 11.2197C10.9268 11.5126 10.9268 11.9874 11.2197 12.2803L12.2803 11.2197ZM16.7197 17.7803C17.0126 18.0732 17.4874 18.0732 17.7803 17.7803C18.0732 17.4874 18.0732 17.0126 17.7803 16.7197L16.7197 17.7803ZM7.16667 12.8333C4.03705 12.8333 1.5 10.2963 1.5 7.16667H0C0 11.1247 3.20863 14.3333 7.16667 14.3333V12.8333ZM1.5 7.16667C1.5 4.03705 4.03705 1.5 7.16667 1.5V0C3.20863 0 0 3.20863 0 7.16667H1.5ZM7.16667 1.5C10.2963 1.5 12.8333 4.03705 12.8333 7.16667H14.3333C14.3333 3.20863 11.1247 0 7.16667 0V1.5ZM12.8333 7.16667C12.8333 10.2963 10.2963 12.8333 7.16667 12.8333V14.3333C11.1247 14.3333 14.3333 11.1247 14.3333 7.16667H12.8333ZM11.2197 12.2803L16.7197 17.7803L17.7803 16.7197L12.2803 11.2197L11.2197 12.2803Z" fill="#DADADA"/>
</svg>
