<svg width="36" height="42" viewBox="0 0 36 42" fill="none" xmlns="http://www.w3.org/2000/svg">
<path d="M19.0407 16.112H16.1113V14.6473C16.1113 13.8385 16.7672 13.1826 17.576 13.1826C18.3849 13.1826 19.0407 13.8385 19.0407 14.6473V16.112Z" fill="#F9A04E"/>
<path fill-rule="evenodd" clip-rule="evenodd" d="M16.7898 0.228776C17.2695 -0.0762587 17.8829 -0.0762587 18.3624 0.228776L21.6211 2.30254C24.5766 4.18314 27.9389 5.33004 31.4271 5.64717L33.82 5.86459C34.5746 5.93325 35.1523 6.56589 35.1523 7.32344V21.2532C35.1523 26.7618 32.338 31.8886 27.6905 34.8465L18.3624 40.7828C17.8828 41.0878 17.2694 41.0878 16.7898 40.7828L7.46178 34.8465C2.81432 31.8889 0 26.7621 0 21.2532V7.32344C0 6.56591 0.577704 5.93331 1.33196 5.86459L3.7252 5.64717C7.21371 5.33004 10.576 4.18314 13.5312 2.30254L16.7898 0.228776ZM21.9703 14.6473V16.3621C23.677 16.9653 24.8997 18.5928 24.8997 20.5061V23.4355C24.8997 25.8624 22.9325 27.8296 20.5056 27.8296H14.6468C12.2199 27.8296 10.2527 25.8624 10.2527 23.4355V20.5061C10.2527 18.5929 11.4754 16.9653 13.1821 16.3621V14.6473C13.1821 12.2204 15.1493 10.2532 17.5762 10.2532C20.0031 10.2532 21.9703 12.2204 21.9703 14.6473Z" fill="#F9A04E"/>
<path d="M19.2518 22.448V20.176H18.2038L18.1478 20.6C17.9158 20.304 17.6038 20.104 17.2038 20.104C16.1078 20.104 15.5798 20.984 15.5798 21.968C15.5798 22.936 16.1478 23.752 17.2038 23.752C17.6598 23.752 18.0118 23.536 18.2438 23.184C18.4278 23.504 18.7798 23.752 19.3478 23.752C20.3798 23.752 21.0038 22.904 21.0038 21.704C21.0038 19.848 19.5318 18.488 17.5238 18.488C15.4838 18.488 13.9958 19.952 13.9958 21.944C13.9958 23.888 15.4598 25.312 17.4598 25.312C18.0278 25.312 18.6198 25.224 19.1238 24.976L18.8598 24.208C18.4758 24.376 17.9558 24.48 17.5718 24.48C16.0118 24.48 14.8678 23.424 14.8678 21.944C14.8678 20.352 15.9878 19.296 17.5238 19.296C19.0278 19.296 20.1318 20.32 20.1318 21.72C20.1318 22.416 19.9158 22.816 19.5718 22.816C19.3718 22.816 19.2518 22.664 19.2518 22.448ZM18.0678 21.952C18.0678 22.424 17.8278 22.704 17.4198 22.704C17.0198 22.704 16.7798 22.424 16.7798 21.952C16.7798 21.448 17.0198 21.152 17.4198 21.152C17.8278 21.152 18.0678 21.448 18.0678 21.952Z" fill="#F9A04E"/>
</svg>
