<svg width="32" height="32" viewBox="0 0 32 32" fill="none" xmlns="http://www.w3.org/2000/svg">
<rect x="1" y="1" width="30" height="30" rx="15" fill="#39B755" stroke="#FAFAFA" stroke-width="2"/>
<path d="M10.8159 15.7623C10.7324 15.8549 10.6863 15.9751 10.6863 16.0998C10.6863 16.2245 10.7324 16.3447 10.8159 16.4373L12.5617 18.2706C12.6398 18.3482 12.7454 18.3918 12.8555 18.3918C12.9655 18.3918 13.0712 18.3482 13.1492 18.2706C13.1883 18.2319 13.2193 18.1858 13.2404 18.135C13.2616 18.0843 13.2725 18.0298 13.2725 17.9748C13.2725 17.9198 13.2616 17.8653 13.2404 17.8146C13.2193 17.7638 13.1883 17.7177 13.1492 17.679L11.7076 16.1498C11.6909 16.1308 11.6816 16.1064 11.6816 16.0811C11.6816 16.0558 11.6909 16.0313 11.7076 16.0123L13.2034 14.2915C13.2763 14.208 13.3131 14.099 13.3057 13.9885C13.2983 13.8779 13.2472 13.7748 13.1638 13.7019C13.0804 13.629 12.9714 13.5921 12.8608 13.5996C12.7502 13.607 12.6472 13.658 12.5742 13.7415L10.8159 15.7623Z" fill="white"/>
<path d="M21.1841 15.7623C21.2676 15.8549 21.3137 15.9751 21.3137 16.0998C21.3137 16.2245 21.2676 16.3447 21.1841 16.4373L19.4383 18.2706C19.3602 18.3482 19.2546 18.3918 19.1445 18.3918C19.0345 18.3918 18.9288 18.3482 18.8508 18.2706C18.8117 18.2319 18.7807 18.1858 18.7596 18.135C18.7384 18.0843 18.7275 18.0298 18.7275 17.9748C18.7275 17.9198 18.7384 17.8653 18.7596 17.8146C18.7807 17.7638 18.8117 17.7177 18.8508 17.679L20.2924 16.1498C20.3091 16.1308 20.3184 16.1064 20.3184 16.0811C20.3184 16.0558 20.3091 16.0313 20.2924 16.0123L18.7966 14.2915C18.7237 14.208 18.6869 14.099 18.6943 13.9885C18.7017 13.8779 18.7528 13.7748 18.8362 13.7019C18.9196 13.629 19.0286 13.5921 19.1392 13.5996C19.2498 13.607 19.3528 13.658 19.4258 13.7415L21.1841 15.7623Z" fill="white"/>
</svg>
