<svg width="33" height="33" viewBox="0 0 33 33" fill="none" xmlns="http://www.w3.org/2000/svg">
<circle cx="16.5" cy="16.5" r="16.5" fill="url(#paint0_linear_4088_3301)"/>
<path d="M11.4509 19.7551C11.5443 19.6598 11.6726 19.6042 11.8088 19.6042H24.1542C24.3798 19.6042 24.4926 19.8822 24.3331 20.0449L21.8944 22.5342C21.801 22.6295 21.6727 22.6851 21.5365 22.6851H9.19111C8.96551 22.6851 8.85271 22.4072 9.01219 22.2444L11.4509 19.7551Z" fill="white"/>
<path d="M11.4509 10.4618C11.5482 10.3666 11.6765 10.311 11.8088 10.311H24.1542C24.3798 10.311 24.4926 10.5889 24.3331 10.7517L21.8944 13.241C21.801 13.3362 21.6727 13.3918 21.5365 13.3918H9.19111C8.96551 13.3918 8.85271 13.1139 9.01219 12.9511L11.4509 10.4618Z" fill="white"/>
<path d="M21.8944 15.0793C21.801 14.984 21.6727 14.9284 21.5365 14.9284H9.19111C8.96551 14.9284 8.85271 15.2063 9.01219 15.3691L11.4509 17.8584C11.5443 17.9537 11.6726 18.0093 11.8088 18.0093H24.1542C24.3798 18.0093 24.4926 17.7314 24.3331 17.5686L21.8944 15.0793Z" fill="white"/>
<defs>
<linearGradient id="paint0_linear_4088_3301" x1="25.9334" y1="-76.116" x2="-48.73" y2="-48.2144" gradientUnits="userSpaceOnUse">
<stop stop-color="#00FFA3"/>
<stop offset="1" stop-color="#DC1FFF"/>
</linearGradient>
</defs>
</svg>
