<svg xmlns="http://www.w3.org/2000/svg" viewBox="0 0 298.09 300.05"><defs><style>.cls-1{fill:#22325f;}.cls-14,.cls-2,.cls-5{fill:#fff;}.cls-3{fill:#3273b9;}.cls-4{fill:#f0ba10;}.cls-5{stroke:#fff;stroke-width:0.5px;}.cls-6{fill:#1492d1;}.cls-7{fill:#e9e33e;}.cls-8{fill:#bad149;}.cls-9{fill:#79b751;}.cls-10{fill:#2e8361;}.cls-11{fill:#09522a;}.cls-12{fill:#f6ad38;}.cls-13{fill:#25a17b;}.cls-14{fill-rule:evenodd;}</style></defs><g id="TUSD"><path class="cls-1" d="M206.05,120a60,60,0,1,1,60-60A60.18,60.18,0,0,1,206.05,120Z"/><path class="cls-2" d="M236.3,96H175.82a5.77,5.77,0,0,1-5.76-5.76V29.76A5.77,5.77,0,0,1,175.82,24H236.3a5.77,5.77,0,0,1,5.76,5.76V90.24A5.77,5.77,0,0,1,236.3,96Z"/><path class="cls-1" d="M184.1,88.75a.36.36,0,0,1-.35-.36V78.72a.36.36,0,0,0-.34-.37H180a.36.36,0,0,1-.37-.34V76.14a.38.38,0,0,1,.37-.36h10.51a.37.37,0,0,1,.36.36V78a.35.35,0,0,1-.36.34h-3.4a.37.37,0,0,0-.36.37v9.67a.35.35,0,0,1-.34.36Z"/><path class="cls-1" d="M201.36,76.14a.35.35,0,0,1,.34-.36H204a.37.37,0,0,1,.36.36v6.6c0,3.91-2.21,6.19-5.72,6.19s-5.69-2.28-5.69-6.19v-6.6a.36.36,0,0,1,.35-.36h2.28a.38.38,0,0,1,.37.36v6.7c0,1.92,1,3.3,2.71,3.3s2.71-1.38,2.71-3.3v-6.7Z"/><path class="cls-1" d="M214.87,80a.48.48,0,0,1-.51-.34,2.64,2.64,0,0,0-2.62-1.53c-1.2,0-2.21.42-2.21,1.23s.93,1.24,3,1.48c3.13.37,4.93,1.32,4.93,3.8,0,2.79-2.45,4.26-5.57,4.26-2.71,0-5-1.32-5.4-4.09,0-.26.09-.36.36-.36h2.1a.49.49,0,0,1,.5.33,2.61,2.61,0,0,0,2.67,1.62c1.24,0,2.32-.46,2.32-1.43,0-1.17-1.14-1.38-3.43-1.66-2.63-.35-4.46-1.11-4.46-3.53s2.08-4.16,5.34-4.16c2.94,0,5,1.58,5.4,4,.06.26,0,.44-.31.44h-2.1Z"/><path class="cls-1" d="M220,88.75a.35.35,0,0,1-.34-.36V76.14a.35.35,0,0,1,.34-.36h5.19c3.85,0,6.85,2.65,6.85,6.52s-3,6.45-6.85,6.45Zm5.19-2.58a3.92,3.92,0,0,0,0-7.82h-2.16a.35.35,0,0,0-.34.36v7.12a.34.34,0,0,0,.34.34Z"/><path class="cls-1" d="M240.13,68.64H172a1,1,0,0,1-1-1V29.76a4.81,4.81,0,0,1,4.8-4.8h60.48a4.81,4.81,0,0,1,4.8,4.8V67.68A1,1,0,0,1,240.13,68.64Z"/><path class="cls-2" d="M209.59,60.86h-6.24a.73.73,0,0,1-.72-.72V33.74a.72.72,0,0,1,.72-.72h6.24a.72.72,0,0,1,.72.72v26.4A.72.72,0,0,1,209.59,60.86Z"/><path class="cls-2" d="M220.21,40.7H191.89a.72.72,0,0,1-.72-.72V33.74a.72.72,0,0,1,.72-.72h28.32a.72.72,0,0,1,.72.72V40A.72.72,0,0,1,220.21,40.7Z"/></g><g id="USDC"><path class="cls-3" d="M97.48,121.56a60,60,0,1,0-60-60A60,60,0,0,0,97.48,121.56Z"/><path class="cls-2" d="M97.48,107A45.46,45.46,0,1,1,129.62,93.7,45.45,45.45,0,0,1,97.48,107Zm-2.7-62.32a10,10,0,0,0-9.48,9.56c0,4.68,2.86,7.73,8.93,9l4.26,1c4.14,1,5.84,2.36,5.84,4.72s-3,4.68-6.85,4.68a7.36,7.36,0,0,1-7-3.52,2.62,2.62,0,0,0-1-1.1,2.66,2.66,0,0,0-1.4-.41H85.88a1.32,1.32,0,0,0-.49.19,1.43,1.43,0,0,0-.59.86,1.35,1.35,0,0,0,0,.53,10.57,10.57,0,0,0,10.1,8v3.25a2.73,2.73,0,0,0,5.46,0V78.23a10.14,10.14,0,0,0,10-10c0-4.91-2.83-7.74-9.52-9.17L97,58.23c-3.87-1-5.69-2.24-5.69-4.41s2.32-4.56,6.19-4.56a6.31,6.31,0,0,1,6.15,3.13,3.1,3.1,0,0,0,1.14,1.29,3,3,0,0,0,1.65.49h1.82a1.63,1.63,0,0,0,1.2-1.93,10.26,10.26,0,0,0-9.21-7.74V41.83a2.73,2.73,0,1,0-5.45,0ZM63.4,61.56A34,34,0,0,0,86.61,93.78h.54a1.74,1.74,0,0,0,1.24-.51A1.76,1.76,0,0,0,88.9,92v-.81a3.69,3.69,0,0,0-2.25-3.37,28.47,28.47,0,0,1,0-52.8,3.61,3.61,0,0,0,2.25-3.33v-.89a1.63,1.63,0,0,0-.18-.75,1.58,1.58,0,0,0-.51-.58,1.43,1.43,0,0,0-.71-.29,1.56,1.56,0,0,0-.77.08A34,34,0,0,0,63.4,61.56Zm68.16,0a34,34,0,0,0-23.21-32.19h-.58a1.78,1.78,0,0,0-1.28.54,1.81,1.81,0,0,0-.53,1.28v.58a3.8,3.8,0,0,0,.66,2.09,3.88,3.88,0,0,0,1.69,1.39,28.47,28.47,0,0,1,0,52.77,3.84,3.84,0,0,0-1.66,1.38,3.9,3.9,0,0,0-.66,2.06v.66a1.92,1.92,0,0,0,.21.82,1.84,1.84,0,0,0,1.35,1,1.84,1.84,0,0,0,.84-.08,34,34,0,0,0,23.17-32.26Z"/></g><g id="BUSD"><circle class="cls-4" cx="60" cy="166.99" r="60"/><path class="cls-5" d="M60.88,134.49l8.27,8.44L48.32,163.7l-8.27-8.25Z"/><path class="cls-5" d="M73.43,147l8.27,8.44L48.32,188.73l-8.27-8.25Z"/><path class="cls-5" d="M35.77,159.52,44,168l-8.27,8.24L27.5,168Z"/><path class="cls-5" d="M86,159.52,94.26,168,60.88,201.25,52.61,193Z"/></g><g id="USDP"><circle class="cls-6" cx="238.09" cy="169.62" r="60"/><path class="cls-2" d="M214,199.64a29.11,29.11,0,0,0,20.19,9.87A18.37,18.37,0,0,0,246.35,204a211.21,211.21,0,0,1,20-15.14l3.9-1.61A19.53,19.53,0,0,0,277.1,182a15.92,15.92,0,0,0,3.21-8.95,25.11,25.11,0,0,0-4.13-12.16A76.17,76.17,0,0,1,214,199.64Z"/><path class="cls-7" d="M222.71,134.47A18.37,18.37,0,0,1,236,128.73a12.09,12.09,0,0,1,4.66.62,11.85,11.85,0,0,1,4.06,2.37,39.94,39.94,0,0,0,22.49,7.34c2.07.23,6.2.92,8.95,4.36a11.94,11.94,0,0,1,2.29,7.11,31.87,31.87,0,0,1-2.29,10.33Z"/><path class="cls-8" d="M214,199.64a29.33,29.33,0,0,1-8-2.29c-3.22-1.38-7.12-3-9.64-7.35a14.27,14.27,0,0,1-1.84-7.34,31.84,31.84,0,0,1,3.44-14,64.32,64.32,0,0,0,4.36-16.75l1.15-4.59c.69-2.29,1.15-4.59,2.76-6.88l2.52-2.76a21.81,21.81,0,0,1,14-3.21A71.54,71.54,0,0,0,214,199.64Z"/><path class="cls-9" d="M222.72,134.47c-.23,0,12.39.69,20.19,3.44l6.43,2.76c-2.53-.23-18.59-.92-30.75,11.24-15.38,15.6-10.33,37-10.1,38.09a23.41,23.41,0,0,1-5.05-15.83,55.06,55.06,0,0,1,19.28-39.7Z"/><path class="cls-10" d="M253.47,191.15a45.89,45.89,0,0,0-4.13-50.48,31.44,31.44,0,0,1,17.44,9.17,43.68,43.68,0,0,1,9.4,11,67.63,67.63,0,0,1-22.71,30.29Z"/><path class="cls-11" d="M260.81,150.76a26.23,26.23,0,0,0-11.24-10.1c-1.84-.45-19-3.21-32.13,9.41a37.46,37.46,0,0,0-11.24,25.7,39.19,39.19,0,0,0,8.26,23.87,54.74,54.74,0,0,0,20.65,0c3.44-.69,11.47-2.07,18.36-8,.92-.92,11-10.33,11.7-25.24A27.39,27.39,0,0,0,260.81,150.76ZM252.55,184a22.7,22.7,0,0,1-16.75,7.34c-1.38,0-10.56-.23-17-7.8a22.76,22.76,0,0,1-5.28-14.92c.46-11,9.18-17.44,11-18.82a20.72,20.72,0,0,1,11.25-3.9,18.11,18.11,0,0,1,11,2.3c10.56,5.73,11,19.5,11,20.42C257.83,171.19,257.83,178.07,252.55,184Z"/></g><g id="DAI"><path class="cls-12" d="M150.3,180.05a60,60,0,1,1-60,60A60,60,0,0,1,150.3,180.05Z"/><path class="cls-2" d="M152.51,244.29h22.8c.48,0,.71,0,.75-.64a45,45,0,0,0,0-7c0-.45-.23-.64-.71-.64H130c-.56,0-.71.19-.71.71v6.68c0,.86,0,.86.9.86Zm21-16a.67.67,0,0,0,0-.52,15.41,15.41,0,0,0-1.35-2.37,19.47,19.47,0,0,0-2.78-3.49,9.43,9.43,0,0,0-1.72-1.68,27,27,0,0,0-11.26-5.7,27.87,27.87,0,0,0-6.37-.68H129.89c-.56,0-.63.23-.63.72v13.31c0,.56,0,.71.71.71h43.27s.38-.08.45-.3Zm0,23.85a8.71,8.71,0,0,0-1.91,0H130c-.56,0-.75,0-.75.75v13c0,.6,0,.75.75.75h19.2a9.59,9.59,0,0,0,2.73-.18,28.89,28.89,0,0,0,8.15-1.8,14.75,14.75,0,0,0,2.73-1.28h.26a24.34,24.34,0,0,0,10.46-10.53s.27-.57,0-.72Zm-51.79,21.26V252.62c0-.49,0-.57-.6-.57H113c-.45,0-.64,0-.64-.6v-7.12h8.7c.48,0,.67,0,.67-.64v-7.05c0-.45,0-.56-.6-.56H113c-.45,0-.64,0-.64-.6v-6.6c0-.41,0-.52.6-.52H121c.56,0,.71,0,.71-.71V207.43c0-.6,0-.75.75-.75H150.6a42.55,42.55,0,0,1,6.07.68,36.48,36.48,0,0,1,11.74,4.35,33,33,0,0,1,6.6,5.1,36.89,36.89,0,0,1,4,5,30.44,30.44,0,0,1,2.93,5.74,1,1,0,0,0,1.12.79h6.71c.86,0,.86,0,.9.83v6.15c0,.6-.22.75-.82.75h-5.18c-.52,0-.68,0-.64.67a37.43,37.43,0,0,1,0,6.86c0,.64,0,.72.72.72h5.92c.26.33,0,.67,0,1a7.17,7.17,0,0,1,0,1.31v4.54c0,.64-.19.83-.75.83h-7.09a.94.94,0,0,0-1.09.71,29.81,29.81,0,0,1-7.87,11.47,46.18,46.18,0,0,1-4,3.23c-1.5.86-3,1.76-4.5,2.47a39.82,39.82,0,0,1-8.85,2.81,46,46,0,0,1-8.77.72h-26v0Z"/></g><g id="USDT"><path class="cls-13" d="M209.55,147.15a60,60,0,1,1-60-60A60,60,0,0,1,209.55,147.15Z"/><path class="cls-2" d="M143.4,146.1V135.6H129.16v-9.2h39.78v9.33H154.71V146.1Z"/><path class="cls-14" d="M123,147.27c0-3.5,11.44-6.35,25.68-6.35s25.68,2.85,25.68,6.35-11.44,6.35-25.68,6.35S123,150.76,123,147.27Zm49.23,0c-.93-1.3-8.65-5.32-23.55-5.32s-22.62,3.89-23.55,5.32c.93,1.29,8.65,3.24,23.55,3.24S171.34,148.56,172.27,147.27Z"/><path class="cls-2" d="M154.71,149.34v-7.26c-1.87-.13-3.86-.26-5.86-.26s-3.59,0-5.32.13v7.26c1.6,0,3.46.13,5.32.13A44.06,44.06,0,0,0,154.71,149.34Z"/><path class="cls-2" d="M148.72,153.62c-1.86,0-3.59,0-5.32-.13v19.3h11.17V153.36C152.71,153.49,150.71,153.62,148.72,153.62Z"/></g></svg>