<svg width="837" height="249" viewBox="0 0 837 249" fill="none" xmlns="http://www.w3.org/2000/svg">
<path opacity="0.3" fill-rule="evenodd" clip-rule="evenodd" d="M39.1088 24.5608L4.09483 0.586426L0.839355 42.8966L13.9693 36.6058L30.0293 64.2648C44.7443 89.6072 65.1945 111.148 89.7391 127.158L200.001 199.081C226.911 216.634 257.88 226.978 289.938 229.12L577.012 248.303C637.467 252.343 696.148 226.92 734.548 180.053L836.801 55.2535L825.199 45.7469L722.945 170.546C687.617 213.664 633.631 237.053 578.012 233.337L290.938 214.153C261.445 212.183 232.953 202.666 208.196 186.517L97.9342 114.594C75.3531 99.865 56.5389 80.0477 43.0011 56.7327L27.5393 30.104L39.1088 24.5608Z" fill="url(#paint0_linear_3362_387)"/>
<defs>
<linearGradient id="paint0_linear_3362_387" x1="7" y1="20" x2="807.5" y2="72.4999" gradientUnits="userSpaceOnUse">
<stop stop-color="#3AB446"/>
<stop offset="1" stop-color="white" stop-opacity="0"/>
</linearGradient>
</defs>
</svg>
