<svg width="18" height="18" viewBox="0 0 18 18" fill="none" xmlns="http://www.w3.org/2000/svg">
<path d="M0.93418 10.8154V10.8154C0.934427 10.2403 1.22968 9.70701 1.71349 9.40108V8.23721L0.93418 10.8154ZM0.93418 10.8154L0.93418 12.4534L0.93418 12.4535M0.93418 10.8154L0.93418 12.4535M0.93418 12.4535C0.93468 12.8974 1.1112 13.323 1.42511 13.6369L0.93418 12.4535ZM2.55095 14.1268C2.12799 14.1118 1.72537 13.9373 1.42513 13.6369L2.55095 14.1268ZM2.55095 14.1268C2.69901 14.6508 3.08489 15.0769 3.59538 15.2748C4.13022 15.4824 4.73317 15.4126 5.20652 15.0885C5.68 14.7643 5.96301 14.2276 5.96301 13.6538V9.61504V9.61501C5.96288 9.10263 5.73688 8.61643 5.34518 8.28624C4.9534 7.95595 4.43601 7.81525 3.93108 7.90182M2.55095 14.1268L14.1038 7.90181M3.93108 7.90182C3.93109 7.90182 3.93109 7.90182 3.9311 7.90182L3.94797 8.00038L3.93108 7.90182ZM3.93108 7.90182C3.53198 7.97013 3.17284 8.17483 2.91165 8.47571V8.23702C2.91165 6.61762 3.55499 5.0646 4.70003 3.91958C5.84509 2.77456 7.39813 2.13119 9.01747 2.13119C10.6369 2.13119 12.1899 2.77453 13.3349 3.91958C14.4799 5.06463 15.1233 6.61768 15.1233 8.23702V8.47565C14.8621 8.17479 14.5029 7.97012 14.1038 7.90181M14.1038 7.90181C14.1039 7.90182 14.1039 7.90182 14.1039 7.90182L14.087 8.00038L14.1038 7.90181ZM14.1038 7.90181C13.5989 7.81526 13.0815 7.95597 12.6898 8.28624C12.2981 8.61643 12.0721 9.10263 12.0719 9.61501V9.61504V13.6538V13.6539C12.0724 14.0223 12.1898 14.3813 12.4072 14.6789C12.61 14.9567 12.8903 15.1677 13.2121 15.2862V15.8041C13.2109 15.8696 13.1582 15.9223 13.0928 15.9235H9.50568V15.9235L9.50381 15.9236C9.29255 15.9275 9.09897 16.0425 8.99439 16.2261L8.99435 16.2262C8.88994 16.4099 8.88994 16.6349 8.99434 16.8186L8.99437 16.8187C9.09893 17.0024 9.29253 17.1174 9.50381 17.1213V17.1214H9.50568H13.093H13.0931C13.4422 17.121 13.7767 16.9822 14.0235 16.7354C14.2703 16.4886 14.4091 16.154 14.4095 15.805V15.8049V15.2861C14.9319 15.0931 15.3309 14.6622 15.4834 14.1268C15.9064 14.1119 16.3091 13.9373 16.6094 13.6369L14.1038 7.90181ZM16.2212 8.23717H16.3212V8.23727V9.40117C16.8046 9.70739 17.0998 10.2404 17.1003 10.8154V10.8155V12.4534V12.4535C17.0998 12.8975 16.9233 13.323 16.6094 13.6369L15.0102 4.23393C15.8013 5.41892 16.2227 6.81223 16.2212 8.23717ZM16.2212 8.23717V9.45731V8.23717ZM14.3513 13.6536H14.3513L14.3513 13.6553C14.3538 13.8004 14.2979 13.9404 14.1962 14.0437L14.2675 14.1139L14.1962 14.0437C14.0944 14.1473 13.9553 14.2055 13.8103 14.2055C13.6652 14.2055 13.5262 14.1472 13.4245 14.0438L13.4245 14.0437C13.3228 13.9404 13.2668 13.8005 13.2692 13.6554H13.2692V13.6537L13.2692 9.615L13.2692 9.61336C13.2668 9.46832 13.3228 9.3284 13.4245 9.22489C13.5262 9.12151 13.6652 9.06326 13.8103 9.06326C13.9553 9.06326 14.0943 9.12148 14.1961 9.22485C14.2979 9.32838 14.3538 9.46828 14.3513 9.61329H14.3513V9.615V13.6536ZM3.9534 9.14657L3.9034 9.05996L3.95341 9.14657C4.12077 9.04994 4.32705 9.04992 4.49458 9.14657C4.66196 9.24321 4.76515 9.42192 4.76515 9.61518V13.6539C4.76515 13.8472 4.662 14.0258 4.4946 14.1225C4.32708 14.2192 4.12078 14.2192 3.9534 14.1226C3.78598 14.0258 3.68283 13.8471 3.68283 13.6539V9.61518C3.68283 9.42191 3.78603 9.24319 3.9534 9.14657ZM2.485 10.3558V12.9129C2.40181 12.8905 2.32559 12.8459 2.26507 12.7829L2.26503 12.7828C2.17981 12.6942 2.13222 12.5764 2.13201 12.4535C2.13201 12.4535 2.13201 12.4535 2.13201 12.4535V10.8156C2.13201 10.8156 2.13201 10.8155 2.13201 10.8155C2.13222 10.6926 2.17984 10.5746 2.26503 10.486L2.26507 10.4859C2.32562 10.4229 2.40184 10.3782 2.485 10.3558ZM2.26921 5.4427L2.26921 5.44271L7.59538 1.07476C6.17887 1.35783 4.8782 2.05515 3.85833 3.0783C3.17756 3.75354 2.63738 4.55726 2.26921 5.4427ZM15.9024 12.4532C15.9022 12.5761 15.8545 12.6942 15.7694 12.7829C15.7088 12.8459 15.6325 12.8905 15.5493 12.9129V10.3558C15.6325 10.3781 15.7087 10.4228 15.7693 10.4858C15.8545 10.5746 15.9022 10.6927 15.9024 10.8156V12.4532Z" fill="#606060" stroke="#606060" stroke-width="0.2"/>
</svg>
