<svg width="16" height="17" viewBox="0 0 16 17" fill="none" xmlns="http://www.w3.org/2000/svg">
<path fill-rule="evenodd" clip-rule="evenodd" d="M15.0024 11.4534C15.0022 11.6021 14.9444 11.745 14.8415 11.8522C14.7384 11.9593 14.5979 12.0226 14.4493 12.0287V9.23997C14.5979 9.24608 14.7384 9.30933 14.8415 9.41654C14.9444 9.52387 15.0022 9.6667 15.0024 9.81542V11.4534ZM13.4513 12.6536C13.4543 12.8255 13.388 12.9914 13.2675 13.1139C13.1469 13.2365 12.9822 13.3055 12.8103 13.3055C12.6384 13.3055 12.4737 13.2365 12.3532 13.1139C12.2327 12.9914 12.1664 12.8256 12.1692 12.6537V8.615C12.1664 8.44313 12.2327 8.27737 12.3532 8.15476C12.4737 8.03226 12.6384 7.96326 12.8103 7.96326C12.9822 7.96326 13.1469 8.03226 13.2675 8.15476C13.388 8.27737 13.4543 8.44313 13.4513 8.615V12.6536ZM2.58283 8.61519C2.58283 8.38618 2.70509 8.17444 2.9034 8.05996C3.10172 7.94546 3.34613 7.94546 3.54458 8.05996C3.7429 8.17447 3.86515 8.38619 3.86515 8.61519V12.6539C3.86515 12.8829 3.74289 13.0946 3.54458 13.2092C3.34614 13.3237 3.10173 13.3237 2.9034 13.2092C2.70508 13.0945 2.58283 12.8829 2.58283 12.6539V8.61519ZM1.03201 11.4536V9.81543C1.03224 9.66672 1.08985 9.52389 1.19295 9.41668C1.29593 9.30946 1.43641 9.2461 1.585 9.23998V12.0287C1.4364 12.0226 1.29592 11.9593 1.19295 11.8521C1.08985 11.7449 1.03225 11.6023 1.03201 11.4536ZM15.2212 8.45731V7.23717C15.2227 5.81223 14.8013 4.41892 14.0102 3.23393C13.2192 2.04882 12.094 1.1253 10.7774 0.580277C9.46083 0.0352568 8.01209 -0.10649 6.61499 0.172821C5.2178 0.452021 3.93488 1.13986 2.92896 2.1491C2.25748 2.81507 1.72468 3.60777 1.36155 4.4811C0.998423 5.35454 0.812075 6.29125 0.813489 7.23714V8.45728C0.331036 8.73954 0.0344204 9.25645 0.0341797 9.81543V11.4534C0.0346499 11.8708 0.200641 12.271 0.495837 12.5662C0.790909 12.8614 1.19118 13.0274 1.60854 13.0279H1.62864C1.75208 13.5544 2.12731 13.9861 2.63153 14.1816C3.13562 14.3772 3.7039 14.3115 4.15003 14.006C4.59628 13.7004 4.86301 13.1946 4.86301 12.6538V8.61504C4.86289 8.1321 4.64988 7.67388 4.28073 7.3627C3.91147 7.05139 3.42384 6.91879 2.94797 7.00038C2.47199 7.08185 2.05629 7.36917 1.81165 7.78556V7.23702C1.81165 5.59109 2.46552 4.01264 3.62932 2.84887C4.79313 1.6851 6.37161 1.03119 8.01747 1.03119C9.6634 1.03119 11.2418 1.68507 12.4056 2.84887C13.5694 4.01267 14.2233 5.59115 14.2233 7.23702V7.78556C13.9788 7.36917 13.563 7.08185 13.087 7.00038C12.6111 6.9188 12.1235 7.0514 11.7542 7.3627C11.3851 7.67388 11.1721 8.1321 11.1719 8.61504V12.6538C11.1724 13.001 11.283 13.3394 11.4879 13.6199C11.6927 13.9004 11.9813 14.1087 12.3121 14.2149V14.8049C12.3105 14.9249 12.2136 15.0219 12.0936 15.0235H8.50568C8.3297 15.0268 8.16841 15.1226 8.08128 15.2756C7.99429 15.4286 7.99429 15.6161 8.08128 15.7692C8.16839 15.9223 8.32968 16.0181 8.50568 16.0214H12.093C12.4156 16.021 12.7248 15.8928 12.9528 15.6647C13.1809 15.4366 13.3091 15.1274 13.3095 14.8049V14.2149C13.8574 14.0382 14.2731 13.588 14.4059 13.0279H14.426C14.8433 13.0274 15.2436 12.8614 15.5387 12.5662C15.8339 12.271 15.9998 11.8709 16.0003 11.4534V9.81545C15.9999 9.25659 15.7033 8.73993 15.2212 8.45731Z" fill="#606060"/>
</svg>
