<svg width="15" height="15" viewBox="0 0 15 15" fill="none" xmlns="http://www.w3.org/2000/svg">
<path d="M9.625 9.625H11.6083C12.4017 9.625 12.7983 9.62498 13.1014 9.47057C13.3679 9.33475 13.5849 9.11808 13.7207 8.85152C13.8752 8.54848 13.8752 8.15178 13.8752 7.35837V3.39168C13.8752 2.59828 13.8752 2.20157 13.7207 1.89853C13.5849 1.63197 13.3679 1.41523 13.1014 1.27941C12.7983 1.125 12.4019 1.125 11.6085 1.125H7.64181C6.8484 1.125 6.4514 1.125 6.14836 1.27941C5.88179 1.41523 5.66523 1.63197 5.52941 1.89853C5.375 2.20157 5.375 2.59831 5.375 3.39172V5.37505M1.125 11.6084V7.64172C1.125 6.84831 1.125 6.45157 1.27941 6.14853C1.41523 5.88197 1.63179 5.66523 1.89836 5.52941C2.2014 5.375 2.5984 5.375 3.39181 5.375H7.35847C8.15188 5.375 8.54831 5.375 8.85135 5.52941C9.11791 5.66523 9.33492 5.88197 9.47074 6.14853C9.62515 6.45157 9.62515 6.84827 9.62515 7.64168V11.6084C9.62515 12.4018 9.62515 12.7985 9.47074 13.1015C9.33492 13.3681 9.11791 13.5847 8.85135 13.7206C8.54831 13.875 8.15188 13.875 7.35847 13.875H3.39181C2.5984 13.875 2.2014 13.875 1.89836 13.7206C1.63179 13.5847 1.41523 13.3681 1.27941 13.1015C1.125 12.7985 1.125 12.4018 1.125 11.6084Z" stroke="#606060" stroke-width="1.5" stroke-linecap="round" stroke-linejoin="round"/>
</svg>
