<svg width="12" height="14" viewBox="0 0 12 14" fill="none" xmlns="http://www.w3.org/2000/svg">
<path d="M0.666016 4.83301C0.389873 4.83301 0.166016 5.05687 0.166016 5.33301C0.166016 5.60915 0.389873 5.83301 0.666016 5.83301V4.83301ZM11.3327 5.83301C11.6088 5.83301 11.8327 5.60915 11.8327 5.33301C11.8327 5.05687 11.6088 4.83301 11.3327 4.83301V5.83301ZM1.39388 13.1877L1.62088 12.7422L1.62088 12.7422L1.39388 13.1877ZM0.81134 12.605L0.365837 12.832L0.365837 12.832L0.81134 12.605ZM11.1875 12.605L10.742 12.378L11.1875 12.605ZM10.6045 13.1877L10.3775 12.7422L10.6045 13.1877ZM10.6045 2.81167L10.8315 2.36616L10.8315 2.36616L10.6045 2.81167ZM11.1875 3.39437L10.742 3.62136L10.742 3.62136L11.1875 3.39437ZM1.39388 2.81167L1.62088 3.25717L1.39388 2.81167ZM0.81134 3.39437L1.25684 3.62136L0.81134 3.39437ZM9.16602 1.33301C9.16602 1.05687 8.94216 0.833008 8.66602 0.833008C8.38987 0.833008 8.16602 1.05687 8.16602 1.33301H9.16602ZM8.16602 2.66634C8.16602 2.94248 8.38987 3.16634 8.66602 3.16634C8.94216 3.16634 9.16602 2.94248 9.16602 2.66634H8.16602ZM3.83268 1.33301C3.83268 1.05687 3.60882 0.833008 3.33268 0.833008C3.05654 0.833008 2.83268 1.05687 2.83268 1.33301H3.83268ZM2.83268 2.66634C2.83268 2.94248 3.05654 3.16634 3.33268 3.16634C3.60882 3.16634 3.83268 2.94248 3.83268 2.66634H2.83268ZM0.666016 5.83301H11.3327V4.83301H0.666016V5.83301ZM2.79948 3.16634H9.19948V2.16634H2.79948V3.16634ZM10.8327 4.79964V11.1996H11.8327V4.79964H10.8327ZM9.19948 12.833H2.79948V13.833H9.19948V12.833ZM1.16602 11.1996V4.79964H0.166016V11.1996H1.16602ZM2.79948 12.833C2.41787 12.833 2.16165 12.8326 1.96432 12.8165C1.7728 12.8008 1.68123 12.7729 1.62088 12.7422L1.16688 13.6332C1.39175 13.7477 1.62961 13.7925 1.88289 13.8132C2.13038 13.8334 2.43435 13.833 2.79948 13.833V12.833ZM0.166016 11.1996C0.166016 11.5648 0.165627 11.8687 0.185842 12.1161C0.206532 12.3694 0.251271 12.6072 0.365837 12.832L1.25684 12.378C1.22608 12.3177 1.19816 12.2261 1.18252 12.0347C1.1664 11.8374 1.16602 11.5813 1.16602 11.1996H0.166016ZM1.62088 12.7422C1.46415 12.6623 1.33678 12.5349 1.25684 12.378L0.365837 12.832C0.541566 13.1769 0.821845 13.4574 1.16688 13.6332L1.62088 12.7422ZM10.8327 11.1996C10.8327 11.5813 10.8323 11.8375 10.8162 12.0348C10.8006 12.2262 10.7727 12.3177 10.742 12.378L11.633 12.832C11.7476 12.6071 11.7923 12.3693 11.8129 12.116C11.8331 11.8686 11.8327 11.5647 11.8327 11.1996H10.8327ZM9.19948 13.833C9.5646 13.833 9.86845 13.8334 10.1158 13.8132C10.3691 13.7925 10.6067 13.7477 10.8315 13.6332L10.3775 12.7422C10.3171 12.7729 10.2256 12.8009 10.0343 12.8165C9.83717 12.8326 9.5811 12.833 9.19948 12.833V13.833ZM10.742 12.378C10.6622 12.5346 10.5346 12.6621 10.3775 12.7422L10.8315 13.6332C11.1762 13.4575 11.4571 13.1772 11.633 12.832L10.742 12.378ZM9.19948 3.16634C9.5811 3.16634 9.83717 3.16673 10.0344 3.18285C10.2257 3.19848 10.3171 3.22639 10.3775 3.25717L10.8315 2.36616C10.6067 2.25161 10.369 2.20686 10.1158 2.18617C9.86845 2.16595 9.56459 2.16634 9.19948 2.16634V3.16634ZM11.8327 4.79964C11.8327 4.43458 11.8331 4.13067 11.8129 3.8833C11.7923 3.63007 11.7476 3.39227 11.633 3.16737L10.742 3.62136C10.7727 3.68169 10.8006 3.77315 10.8162 3.96457C10.8323 4.16185 10.8327 4.41797 10.8327 4.79964H11.8327ZM10.3775 3.25717C10.5346 3.33717 10.6622 3.46477 10.742 3.62136L11.633 3.16737C11.4571 2.8222 11.1763 2.54183 10.8315 2.36616L10.3775 3.25717ZM2.79948 2.16634C2.43436 2.16634 2.13039 2.16595 1.88291 2.18617C1.62962 2.20685 1.39176 2.25159 1.16688 2.36616L1.62088 3.25717C1.68122 3.22642 1.77279 3.19849 1.96431 3.18285C2.16164 3.16673 2.41787 3.16634 2.79948 3.16634V2.16634ZM1.16602 4.79964C1.16602 4.41802 1.1664 4.16189 1.18252 3.96465C1.19816 3.77326 1.22608 3.68174 1.25684 3.62136L0.365837 3.16737C0.251277 3.39221 0.206535 3.62997 0.185842 3.88322C0.165627 4.13063 0.166016 4.43452 0.166016 4.79964H1.16602ZM1.16688 2.36616C0.821792 2.542 0.541539 2.82254 0.365837 3.16737L1.25684 3.62136C1.3368 3.46443 1.4642 3.337 1.62088 3.25717L1.16688 2.36616ZM5.83268 11.1663C6.20087 11.1663 6.49935 10.8679 6.49935 10.4997H5.49935C5.49935 10.3156 5.64859 10.1663 5.83268 10.1663V11.1663ZM6.49935 10.4997V8.16634H5.49935V10.4997H6.49935ZM6.49935 8.16634C6.49935 7.79815 6.20087 7.49967 5.83268 7.49967V8.49967C5.64859 8.49967 5.49935 8.35044 5.49935 8.16634H6.49935ZM5.83268 7.49967H3.49935V8.49967H5.83268V7.49967ZM3.49935 7.49967C3.13116 7.49967 2.83268 7.79815 2.83268 8.16634H3.83268C3.83268 8.35044 3.68344 8.49967 3.49935 8.49967V7.49967ZM2.83268 8.16634V10.4997H3.83268V8.16634H2.83268ZM2.83268 10.4997C2.83268 10.8679 3.13116 11.1663 3.49935 11.1663V10.1663C3.68344 10.1663 3.83268 10.3156 3.83268 10.4997H2.83268ZM3.49935 11.1663H5.83268V10.1663H3.49935V11.1663ZM8.16602 1.33301V2.66634H9.16602V1.33301H8.16602ZM2.83268 1.33301V2.66634H3.83268V1.33301H2.83268Z" fill="#5AB4F5"/>
</svg>
