<svg width="10" height="16" viewBox="0 0 10 16" fill="none" xmlns="http://www.w3.org/2000/svg">
<path d="M5.21054 0.799988C2.59419 0.799988 0.662112 2.18568 0.199219 4.39531L2.25205 4.80727C2.51368 3.49648 3.51997 2.61637 5.15016 2.61637C6.53884 2.61637 7.58538 3.2905 7.58538 4.54511C7.58538 6.79219 3.35897 6.96072 3.35897 9.93809V10.6122H5.4923V10.0692C5.4923 8.00935 9.79922 8.00935 9.79922 4.50766C9.79922 2.16696 7.82689 0.799988 5.21054 0.799988ZM4.52626 15.2C5.39167 15.2 5.97532 14.6757 5.97532 13.8892C5.97532 13.084 5.39167 12.5597 4.52626 12.5597C3.68098 12.5597 3.07721 13.084 3.07721 13.8892C3.07721 14.6757 3.68098 15.2 4.52626 15.2Z" fill="white"/>
</svg>
