<svg width="33" height="33" viewBox="0 0 33 33" fill="none" xmlns="http://www.w3.org/2000/svg">
<path d="M16.5 33C25.6127 33 33 25.6127 33 16.5C33 7.3873 25.6127 0 16.5 0C7.3873 0 0 7.3873 0 16.5C0 25.6127 7.3873 33 16.5 33Z" fill="#D81C1C"/>
<path fill-rule="evenodd" clip-rule="evenodd" d="M22.9061 12.8947L22.5779 12.662L22.5776 12.6617C22.0662 12.2992 21.533 11.9212 21.0094 11.5456C20.9953 11.5349 20.9813 11.5242 20.9637 11.5135C20.8933 11.46 20.8124 11.4029 20.7138 11.3707L20.7068 11.3672C19.1527 10.9861 17.5752 10.5962 16.0384 10.2163L16.0381 10.2163L16.038 10.2162L16.0376 10.2161L15.5974 10.1073C14.8374 9.91997 14.0782 9.7326 13.319 9.54523C12.5598 9.35786 11.8006 9.17049 11.0406 8.98312L11.0406 8.98312L11.0406 8.98312L11.0405 8.98312L11.0405 8.98312C11.0018 8.97242 10.9631 8.96171 10.9209 8.951C10.7837 8.91174 10.6253 8.86892 10.4564 8.89033C10.4072 8.89747 10.3649 8.91531 10.3262 8.9403L10.284 8.97599C10.2171 9.04023 10.182 9.12231 10.1644 9.16871L10.1538 9.19726V9.36143L10.1608 9.38641C10.8831 11.4391 11.6192 13.5139 12.3439 15.5564L12.3441 15.5569L12.3448 15.5589C12.5837 16.2322 12.8214 16.9021 13.0568 17.5664L13.7144 19.4187C14.2381 20.8939 14.7691 22.3895 15.2913 23.8656C15.337 24.0083 15.4672 24.1011 15.6291 24.1154H15.6643C15.8156 24.1154 15.9493 24.0404 16.0162 23.9191L18.8031 19.797C19.1427 19.2954 19.4824 18.793 19.822 18.2906C20.1615 17.7884 20.501 17.2861 20.8405 16.7848C20.9795 16.5796 21.1184 16.3736 21.2574 16.1675C21.3964 15.9614 21.5354 15.7552 21.6745 15.55L21.7316 15.4652C22.1711 14.8137 22.6229 14.144 23.0714 13.4907L23.0961 13.455V13.4122C23.1066 13.2873 23.1102 13.0303 22.9061 12.8947ZM18.9027 14.7884L18.9027 14.7884C18.4867 15.0092 18.0667 15.2321 17.6454 15.4536L18.8207 14.1759C19.2466 13.7097 19.6886 13.23 20.1256 12.7556L20.3197 12.5449L20.3303 12.5342C20.3725 12.4771 20.4253 12.4236 20.4816 12.3665L20.4816 12.3665C20.4912 12.3568 20.5009 12.3471 20.5108 12.3372L20.5108 12.3372L20.5109 12.3372C20.541 12.3073 20.5721 12.2765 20.6012 12.2416C20.8616 12.4236 21.1255 12.6092 21.3789 12.7912C21.5619 12.9232 21.7484 13.0553 21.9384 13.1873C21.1642 13.587 20.3901 13.9975 19.6406 14.3972C19.3967 14.5262 19.1509 14.6567 18.9036 14.7879L18.9027 14.7884ZM16.4173 15.9068C16.9346 15.3465 17.4554 14.7791 17.9586 14.2259L18.4021 13.7424C18.9231 13.1743 19.4536 12.5958 19.9819 12.0239C18.9616 11.7723 17.9403 11.5207 16.9191 11.2691C15.8976 11.0175 14.8762 10.7658 13.8556 10.5142C13.4932 10.4214 13.1237 10.3322 12.7683 10.2465C12.3636 10.1502 11.9519 10.0502 11.5437 9.94317C11.5647 9.96886 11.5856 9.99421 11.6064 10.0194L11.6064 10.0194L11.6064 10.0194C11.6521 10.0748 11.6973 10.1295 11.7408 10.1859C11.7724 10.2248 11.804 10.2644 11.8357 10.3042C11.9029 10.3885 11.9706 10.4734 12.0399 10.5535L12.0434 10.557L12.7208 11.3832L13.3982 12.2094C14.3905 13.4193 15.4145 14.672 16.4173 15.9068ZM16.1886 21.1817C16.1993 21.0784 16.2102 20.9742 16.2212 20.8696L16.2212 20.8695C16.2501 20.5949 16.2792 20.3172 16.3047 20.0432L16.3364 19.7382L16.3364 19.738C16.3575 19.5342 16.3786 19.3305 16.3997 19.1332L16.422 18.9193C16.4645 18.5116 16.5081 18.094 16.544 17.6842L16.5546 17.5985C16.5898 17.2916 16.6249 16.974 16.6461 16.6563C16.6848 16.6349 16.727 16.6135 16.7727 16.5956C16.7859 16.5894 16.7991 16.5834 16.8123 16.5774C16.8519 16.5593 16.8915 16.5412 16.9311 16.5171L16.9312 16.5171C17.744 16.0853 18.5568 15.6534 19.3731 15.2252C20.186 14.7969 21.02 14.3544 21.8469 13.9154C21.0939 15.0218 20.3373 16.1388 19.6054 17.2273L19.1925 17.8381C18.6943 18.5754 18.1881 19.3244 17.6841 20.0646C17.5409 20.2786 17.3942 20.4947 17.2487 20.7093C17.1368 20.8743 17.0256 21.0383 16.917 21.1996C16.6355 21.6136 16.347 22.0383 16.0654 22.463C16.1006 22.0347 16.1429 21.6029 16.1886 21.1817ZM11.2368 10.6562C11.2525 10.6994 11.2681 10.7426 11.2834 10.7854C12.0786 13.0314 12.8738 15.2742 13.6691 17.517C14.0667 18.6385 14.4644 19.76 14.862 20.8819L15.2385 21.9419C15.2878 22.0882 15.3406 22.2381 15.3934 22.3809C15.4001 22.4001 15.4074 22.4199 15.4148 22.44C15.4267 22.4721 15.4388 22.505 15.4497 22.5379C15.464 22.4019 15.4777 22.2658 15.4913 22.1304C15.5076 21.9675 15.5238 21.8055 15.5411 21.6457C15.5476 21.5839 15.5541 21.522 15.5606 21.4599C15.6285 20.8118 15.698 20.148 15.7558 19.4901L15.7593 19.4651C15.7593 19.4651 15.8156 18.9726 15.8402 18.7549C15.8442 18.7192 15.8484 18.6833 15.8526 18.6473C15.8669 18.5248 15.8813 18.4007 15.8895 18.2766V18.273C15.9177 18.0197 15.9423 17.7699 15.9669 17.5201L15.9669 17.52C15.9825 17.3764 15.9975 17.2304 16.0126 17.0833C16.0351 16.8649 16.0578 16.644 16.083 16.4243C15.9868 16.3162 15.8964 16.2042 15.8074 16.094C15.776 16.0551 15.7448 16.0164 15.7136 15.9782C15.6221 15.864 15.5271 15.7462 15.4321 15.6356C15.1107 15.2406 14.7893 14.8488 14.4679 14.457C14.3072 14.2612 14.1465 14.0653 13.9858 13.869C13.0533 12.7341 12.0962 11.5635 11.1461 10.4C11.1743 10.4833 11.2055 10.5697 11.2368 10.6562Z" fill="white"/>
</svg>
