<svg width="16" height="16" viewBox="0 0 16 16" fill="none" xmlns="http://www.w3.org/2000/svg">
<path d="M8 16C3.6 16 0 12.4 0 8C0 3.6 3.6 0 8 0C12.4 0 16 3.6 16 8C16 12.4 12.4 16 8 16Z" fill="#002868"/>
<path d="M12.0332 12.8001H3.96917C3.54677 12.8001 3.20117 12.4545 3.20117 12.0321V3.96807C3.20117 3.54567 3.54677 3.20007 3.96917 3.20007H12.0332C12.4556 3.20007 12.8012 3.54567 12.8012 3.96807V12.0321C12.8012 12.4545 12.4556 12.8001 12.0332 12.8001Z" fill="white"/>
<path d="M5.07274 11.8337C5.04746 11.8337 5.02698 11.8106 5.02698 11.7854V10.4954C5.02698 10.4702 5.0065 10.4471 4.98122 10.4471H4.52586C4.50026 10.4471 4.47754 10.4266 4.47754 10.4014V10.1521C4.47754 10.1268 4.50058 10.1038 4.52586 10.1038H5.92746C5.95274 10.1038 5.97578 10.1265 5.97578 10.1521V10.4014C5.97578 10.4266 5.95274 10.4471 5.92746 10.4471H5.47466C5.44938 10.4471 5.42634 10.4698 5.42634 10.4954V11.7854C5.42634 11.8106 5.40586 11.8337 5.38058 11.8337H5.07274Z" fill="#002868"/>
<path d="M7.37387 10.1521C7.37387 10.1268 7.39435 10.1038 7.41963 10.1038H7.72491C7.75019 10.1038 7.77323 10.1265 7.77323 10.1521V11.0324C7.77323 11.554 7.47819 11.8567 7.01003 11.8567C6.54443 11.8567 6.25195 11.554 6.25195 11.0324V10.1521C6.25195 10.1268 6.27243 10.1038 6.29771 10.1038H6.60299C6.62827 10.1038 6.65131 10.1265 6.65131 10.1521V11.0449C6.65131 11.3018 6.78347 11.4849 7.01259 11.4849C7.24171 11.4849 7.37387 11.3018 7.37387 11.0449V10.1521V10.1521Z" fill="#002868"/>
<path d="M9.17588 10.6686C9.13524 10.6686 9.12245 10.6532 9.10709 10.6228C9.05365 10.498 8.93653 10.4193 8.75861 10.4193C8.59829 10.4193 8.46357 10.4753 8.46357 10.5822C8.46357 10.6993 8.58836 10.7476 8.86292 10.7806C9.2802 10.8289 9.51925 10.9563 9.51925 11.2868C9.51925 11.6583 9.19349 11.8542 8.77653 11.8542C8.41525 11.8542 8.10484 11.6785 8.05652 11.3099C8.0514 11.2743 8.06933 11.2615 8.10485 11.2615H8.38484C8.42036 11.2615 8.44085 11.2769 8.45109 11.3047C8.48917 11.427 8.61909 11.5211 8.80725 11.5211C8.97269 11.5211 9.11765 11.4599 9.11765 11.3303C9.11765 11.1751 8.96501 11.1473 8.65973 11.1089C8.30869 11.0631 8.06452 10.9614 8.06452 10.6382C8.06452 10.315 8.34196 10.0836 8.77684 10.0836C9.16852 10.0836 9.44084 10.2948 9.49684 10.6103C9.50452 10.6459 9.49429 10.6689 9.45621 10.6689H9.17588V10.6686Z" fill="#002868"/>
<path d="M9.8651 11.8337C9.83982 11.8337 9.81934 11.8106 9.81934 11.7854V10.1521C9.81934 10.1268 9.83982 10.1038 9.8651 10.1038H10.5569C11.0709 10.1038 11.4702 10.4574 11.4702 10.9738C11.4702 11.4826 11.076 11.8337 10.5569 11.8337H9.8651ZM10.5569 11.49C10.8344 11.49 11.0504 11.2711 11.0504 10.9684C11.0504 10.6657 10.8341 10.4468 10.5544 10.4468H10.267C10.2417 10.4468 10.2213 10.4695 10.2213 10.4951V11.4439C10.2213 11.4692 10.2417 11.4897 10.267 11.4897H10.5569V11.49Z" fill="#002868"/>
<path d="M12.5441 9.15212H3.45612C3.38572 9.15212 3.32812 9.09452 3.32812 9.02412V3.96812C3.32812 3.61612 3.61612 3.32812 3.96812 3.32812H12.0321C12.3841 3.32812 12.6721 3.61612 12.6721 3.96812V9.02412C12.6721 9.09452 12.6145 9.15212 12.5441 9.15212Z" fill="#002868"/>
<path d="M8.47195 8.1141H7.63995C7.58715 8.1141 7.54395 8.0709 7.54395 8.0181V4.4981C7.54395 4.4453 7.58715 4.4021 7.63995 4.4021H8.47195C8.52475 4.4021 8.56795 4.4453 8.56795 4.4981V8.0181C8.56795 8.0709 8.52475 8.1141 8.47195 8.1141Z" fill="white"/>
<path d="M9.88763 5.4261H6.11163C6.05883 5.4261 6.01562 5.3829 6.01562 5.3301V4.4981C6.01562 4.4453 6.05883 4.4021 6.11163 4.4021H9.88763C9.94043 4.4021 9.98363 4.4453 9.98363 4.4981V5.3301C9.98363 5.3829 9.94043 5.4261 9.88763 5.4261Z" fill="white"/>
</svg>
