<svg width="18" height="18" viewBox="0 0 18 18" fill="none" xmlns="http://www.w3.org/2000/svg">
<rect width="18" height="18" rx="4" fill="#41C25E"/>
<path d="M6 10.9333V9.06665C6 8.69328 6 8.50662 6.08175 8.36401C6.15365 8.23857 6.2683 8.13658 6.40942 8.07266C6.56986 8 6.78003 8 7.20007 8H10.8001C11.2201 8 11.43 8 11.5904 8.07266C11.7315 8.13658 11.8464 8.23857 11.9183 8.36401C12.0001 8.50662 12 8.69328 12 9.06665V10.9333C12 11.3067 12.0001 11.4934 11.9183 11.636C11.8464 11.7615 11.7315 11.8634 11.5904 11.9273C11.43 12 11.2201 12 10.8001 12H7.20007C6.78003 12 6.56986 12 6.40942 11.9273C6.2683 11.8634 6.15365 11.7615 6.08175 11.636C6 11.4934 6 11.3067 6 10.9333ZM7.875 7.92308V7C7.875 6.44772 8.37868 6 9 6C9.62132 6 10.125 6.44772 10.125 7V7.92308C10.125 7.96556 10.0861 8 10.0383 8H7.96143C7.91363 8 7.875 7.96556 7.875 7.92308Z" stroke="white" stroke-linecap="round" stroke-linejoin="round"/>
</svg>
