<svg width="33" height="33" viewBox="0 0 33 33" fill="none" xmlns="http://www.w3.org/2000/svg">
<path d="M32.5052 20.4918C30.3014 29.3311 21.3481 34.7101 12.5077 32.5063C3.67142 30.3026 -1.70809 21.3492 0.496205 12.5104C2.69895 3.67001 11.6518 -1.71002 20.4896 0.49376C29.3294 2.69754 34.7084 11.6519 32.5047 20.4918H32.5052Z" fill="#56CE60"/>
<path d="M21.1671 12.54C20.785 10.8205 19.4824 9.76104 17.6413 9.46577V7.64209H15.6787V9.43104C13.5771 9.70893 11.9619 10.9768 11.9619 13.1479C11.9619 15.6316 13.8377 16.3437 15.6787 16.83V20.5816C14.5498 20.321 13.9766 19.5742 13.7508 18.4974L11.4929 19.1921C11.8056 20.9637 13.2298 22.4226 15.6787 22.7005V24.6631H17.6413V22.6831C19.9687 22.3531 21.5145 20.981 21.5145 18.8621C21.5145 16.4479 19.5692 15.6142 17.6413 15.0931V11.5674C18.4403 11.8452 18.8919 12.4358 19.1003 13.2L21.1671 12.54ZM14.2371 12.9916C14.2371 12.21 14.6713 11.6542 15.6787 11.4631V14.5721C14.8277 14.2768 14.2371 13.8426 14.2371 12.9916ZM19.2045 19.001C19.2045 19.9042 18.5792 20.4079 17.6413 20.5989V17.3684C18.5445 17.681 19.2045 18.0979 19.2045 19.001Z" fill="white"/>
</svg>
