<svg width="33" height="33" viewBox="0 0 33 33" fill="none" xmlns="http://www.w3.org/2000/svg">
<path d="M16.5 33C25.6127 33 33 25.6127 33 16.5C33 7.3873 25.6127 0 16.5 0C7.3873 0 0 7.3873 0 16.5C0 25.6127 7.3873 33 16.5 33Z" fill="#2775C9"/>
<path d="M16.5 29C9.59575 29 4 23.4043 4 16.5C4 9.59575 9.59575 4 16.5 4C23.4043 4 29 9.59575 29 16.5C29 19.8152 27.683 22.9946 25.3388 25.3388C22.9946 27.683 19.8152 29 16.5 29ZM15.7553 11.8617C15.0714 11.8956 14.4248 12.184 13.9426 12.6701C13.4604 13.1563 13.1773 13.8052 13.1489 14.4894C13.1489 15.7766 13.9362 16.617 15.6064 16.9681L16.7766 17.2447C17.9149 17.5106 18.383 17.8936 18.383 18.5426C18.383 19.1915 17.5638 19.8298 16.5 19.8298C16.1221 19.8644 15.7421 19.792 15.4035 19.6208C15.0648 19.4496 14.7812 19.1865 14.5851 18.8617C14.527 18.7384 14.4353 18.6341 14.3204 18.5607C14.2056 18.4873 14.0724 18.4478 13.9362 18.4468H13.3085C13.2602 18.4557 13.2142 18.4741 13.1731 18.5009C13.132 18.5277 13.0965 18.5624 13.0688 18.6029C13.0412 18.6435 13.0218 18.6891 13.0118 18.7371C13.0018 18.7852 13.0014 18.8348 13.0106 18.883C13.1635 19.507 13.519 20.0627 14.0214 20.4631C14.5239 20.8635 15.1449 21.086 15.7872 21.0957V21.9894C15.7872 22.1883 15.8663 22.379 16.0069 22.5197C16.1476 22.6603 16.3383 22.7394 16.5372 22.7394C16.7361 22.7394 16.9269 22.6603 17.0676 22.5197C17.2082 22.379 17.2872 22.1883 17.2872 21.9894V21.0851C18.0136 21.0769 18.7081 20.7854 19.2227 20.2727C19.7373 19.7601 20.0315 19.0668 20.0426 18.3404C20.0426 16.9894 19.266 16.2128 17.4255 15.8191L16.3617 15.5851C15.2979 15.3191 14.7979 14.9681 14.7979 14.3723C14.7979 13.7766 15.4362 13.117 16.5 13.117C16.835 13.082 17.173 13.1448 17.4732 13.2977C17.7734 13.4506 18.0228 13.6871 18.1915 13.9787C18.2599 14.1243 18.3681 14.2476 18.5037 14.3342C18.6392 14.4208 18.7966 14.4672 18.9574 14.4681H19.4574C19.5711 14.4403 19.6694 14.369 19.731 14.2695C19.7927 14.17 19.8129 14.0504 19.7872 13.9362C19.6431 13.36 19.3207 12.8441 18.866 12.4621C18.4114 12.08 17.8477 11.8513 17.2553 11.8085V11.0745C17.2553 10.8756 17.1763 10.6848 17.0356 10.5441C16.895 10.4035 16.7042 10.3245 16.5053 10.3245C16.3064 10.3245 16.1156 10.4035 15.975 10.5441C15.8343 10.6848 15.7553 10.8756 15.7553 11.0745V11.8617ZM7.12766 16.5C7.12888 18.4596 7.74572 20.3694 8.89105 21.9595C10.0364 23.5496 11.6523 24.7397 13.5106 25.3617H13.6596C13.7865 25.3617 13.9083 25.3113 13.9981 25.2215C14.0879 25.1317 14.1383 25.0099 14.1383 24.883V24.6596C14.1386 24.4615 14.0802 24.2679 13.9703 24.1031C13.8605 23.9383 13.7042 23.8099 13.5213 23.734C12.074 23.1499 10.8344 22.1466 9.96147 20.8529C9.08854 19.5591 8.62214 18.0341 8.62214 16.4734C8.62214 14.9127 9.08854 13.3877 9.96147 12.094C10.8344 10.8002 12.074 9.79692 13.5213 9.21277C13.7034 9.1388 13.8593 9.01228 13.9692 8.84933C14.0791 8.68639 14.138 8.49441 14.1383 8.29787V8.05319C14.139 7.98135 14.1223 7.9104 14.0898 7.84636C14.0572 7.78232 14.0097 7.72708 13.9512 7.68532C13.8927 7.64357 13.8251 7.61652 13.7539 7.60648C13.6828 7.59644 13.6103 7.60371 13.5426 7.62766C11.6766 8.24478 10.0524 9.43415 8.90088 11.0269C7.74933 12.6196 7.12888 14.5346 7.12766 16.5ZM25.8723 16.5C25.8689 14.5422 25.251 12.6348 24.1058 11.0468C22.9607 9.45885 21.346 8.27036 19.4894 7.64894H19.3298C19.1972 7.64894 19.07 7.70161 18.9762 7.79538C18.8825 7.88915 18.8298 8.01633 18.8298 8.14894V8.30851C18.8341 8.51369 18.8976 8.71325 19.0128 8.88313C19.1279 9.05301 19.2897 9.18596 19.4787 9.26596C20.9227 9.85182 22.1589 10.8552 23.0293 12.1477C23.8998 13.4402 24.3647 14.963 24.3647 16.5213C24.3647 18.0795 23.8998 19.6024 23.0293 20.8948C22.1589 22.1873 20.9227 23.1907 19.4787 23.7766C19.2933 23.8574 19.1348 23.9894 19.0218 24.1571C18.9087 24.3248 18.8458 24.5212 18.8404 24.7234V24.9043C18.8413 24.9831 18.8609 25.0607 18.8975 25.1305C18.9341 25.2004 18.9867 25.2606 19.051 25.3063C19.1153 25.3519 19.1895 25.3817 19.2676 25.3932C19.3456 25.4047 19.4253 25.3975 19.5 25.3723C21.358 24.7479 22.9729 23.5555 24.1164 21.9634C25.2598 20.3713 25.8741 18.4602 25.8723 16.5Z" fill="white"/>
</svg>
