<svg width="16" height="16" viewBox="0 0 16 16" fill="none" xmlns="http://www.w3.org/2000/svg">
<circle cx="8" cy="8" r="8" fill="#0293D6"/>
<path d="M4.78711 12.0034C5.12648 12.39 5.53923 12.7054 6.00143 12.9312C6.46363 13.1571 6.96608 13.2889 7.47962 13.319C8.09317 13.2865 8.67203 13.0243 9.10125 12.5847C9.94788 11.8596 10.8367 11.1853 11.7632 10.5653L12.2833 10.3511C12.4975 10.2594 12.8647 10.0452 13.2012 9.64742C13.5684 9.15787 13.6296 8.63773 13.6296 8.45415C13.5889 7.87516 13.3992 7.31653 13.0788 6.83252C12.2429 8.32202 11.0449 9.57669 9.59559 10.4805C8.14629 11.3843 6.49248 11.9081 4.78711 12.0034V12.0034Z" fill="white"/>
<path d="M5.94922 3.31388C6.17762 3.07263 6.45275 2.88039 6.75784 2.74888C7.06294 2.61738 7.3916 2.54936 7.72383 2.54896C7.93432 2.53487 8.14551 2.56278 8.34512 2.63107C8.54472 2.69935 8.72876 2.80665 8.88651 2.94672C9.76415 3.56848 10.8095 3.90984 11.885 3.92582C12.1604 3.95642 12.7111 4.04821 13.0783 4.50716C13.3536 4.87432 13.3842 5.27208 13.3842 5.45566C13.3596 5.92844 13.2562 6.39379 13.0783 6.83251L5.94922 3.31388Z" fill="#EBE638"/>
<path d="M4.78725 12.0033C4.51188 11.9727 4.14472 11.8809 3.71636 11.6974C3.28801 11.5138 2.76786 11.2996 2.4313 10.7183C2.21712 10.3511 2.18652 9.98395 2.18652 9.73918C2.19399 9.09003 2.35105 8.45135 2.64547 7.87277C2.9384 7.15765 3.13393 6.40641 3.22681 5.63921L3.3798 5.02728C3.47159 4.72131 3.53278 4.41534 3.74696 4.10937L4.08352 3.74221C4.63941 3.39271 5.29727 3.24173 5.94992 3.31386C5.076 4.56401 4.51437 6.00538 4.31208 7.51723C4.10979 9.02909 4.27273 10.5674 4.78725 12.0033V12.0033Z" fill="#BAD147"/>
<path d="M5.94973 3.31384C5.91913 3.31384 7.60195 3.40563 8.64224 3.77279L9.49895 4.13996C9.16239 4.10936 7.02061 4.01757 5.39898 5.6392C3.349 7.71978 4.02213 10.5653 4.05273 10.7183C3.57766 10.1206 3.33818 9.36945 3.3796 8.60708C3.41988 7.59526 3.66899 6.6027 4.11129 5.69177C4.55359 4.78085 5.17951 3.97125 5.94973 3.31384V3.31384Z" fill="#78B650"/>
<path d="M10.0498 10.8713C10.6286 9.81906 10.8851 8.61975 10.7871 7.4228C10.6892 6.22585 10.2412 5.08417 9.49902 4.14001C10.3853 4.28819 11.2005 4.71724 11.8244 5.36388C12.1915 5.66985 12.6505 6.1288 13.0788 6.83253C12.4739 8.4395 11.4231 9.84057 10.0498 10.8713V10.8713Z" fill="#2F8260"/>
<path d="M11.0291 5.48617C10.5396 4.66005 9.83582 4.29289 9.52986 4.13991C9.28508 4.07871 6.99033 3.71155 5.24631 5.39438C3.83886 6.74063 3.74707 8.48465 3.74707 8.82121C3.75355 9.9743 4.14077 11.0929 4.84855 12.0033C5.7581 12.1784 6.69271 12.1784 7.60226 12.0033C8.06121 11.9115 9.1321 11.7279 10.05 10.9324C10.1724 10.81 11.5186 9.55553 11.6104 7.56674C11.6104 7.23018 11.6104 6.37347 11.0291 5.48617ZM9.92761 9.92269C9.64349 10.2318 9.29822 10.4784 8.91372 10.647C8.52922 10.8155 8.11387 10.9023 7.69405 10.9018C7.51047 10.9018 6.2866 10.8712 5.42989 9.8615C5.3075 9.70852 4.69557 8.9742 4.72617 7.87271C4.78736 6.40407 5.95004 5.54736 6.19481 5.36378C6.40899 5.21079 6.92913 4.87423 7.69405 4.84363C7.87763 4.81304 8.52016 4.78244 9.1627 5.1496C10.5701 5.91452 10.6313 7.75033 10.6313 7.87271C10.6313 8.20928 10.6313 9.12718 9.92761 9.92269Z" fill="#085229"/>
</svg>
