<svg width="33" height="33" viewBox="0 0 33 33" fill="none" xmlns="http://www.w3.org/2000/svg">
<path d="M32.9104 16.5003C32.9104 25.565 25.5622 32.9135 16.4975 32.9135C7.4328 32.9135 0.0844727 25.565 0.0844727 16.5003C0.0844727 7.43567 7.4328 0.0873413 16.4975 0.0873413C25.5621 0.0873413 32.9104 7.43567 32.9104 16.5003Z" fill="#26A17B"/>
<path d="M14.8147 16.2129V13.3415H10.9202V10.8246H21.8029V13.377H17.9084V16.2129H14.8147Z" fill="white"/>
<path fill-rule="evenodd" clip-rule="evenodd" d="M9.24585 16.532C9.24585 15.5748 12.376 14.795 16.2705 14.795C20.165 14.795 23.2951 15.5748 23.2951 16.532C23.2951 17.4891 20.165 18.269 16.2705 18.269C12.376 18.269 9.24585 17.4891 9.24585 16.532ZM22.7128 16.532C22.458 16.1775 20.347 15.0785 16.2705 15.0785C12.194 15.0785 10.083 16.142 9.8282 16.532C10.083 16.8865 12.194 17.4182 16.2705 17.4182C20.3833 17.4182 22.458 16.8865 22.7128 16.532Z" fill="white"/>
<path d="M17.9084 17.0991V15.114C17.3989 15.0785 16.8529 15.0431 16.307 15.0431C15.7974 15.0431 15.3242 15.0431 14.8511 15.0785V17.0637C15.2878 17.0637 15.7974 17.0991 16.307 17.0991C16.8529 17.1346 17.3989 17.1346 17.9084 17.0991Z" fill="white"/>
<path d="M16.2706 18.269C15.761 18.269 15.2879 18.269 14.8147 18.2335V23.5154H17.8721V18.1981C17.3625 18.2335 16.8165 18.269 16.2706 18.269Z" fill="white"/>
</svg>
