<svg width="16" height="16" viewBox="0 0 16 16" fill="none" xmlns="http://www.w3.org/2000/svg">
<path d="M15.9566 7.99979C15.9566 12.3948 12.3938 15.9577 7.99886 15.9577C3.60384 15.9577 0.0410156 12.3948 0.0410156 7.99979C0.0410156 3.60482 3.60384 0.0419922 7.99886 0.0419922C12.3938 0.0419922 15.9566 3.60482 15.9566 7.99979Z" fill="white"/>
<path d="M7.18316 7.86055V6.46836H5.29492V5.24805H10.5714V6.48555H8.68316V7.86055H7.18316Z" fill="#41C25E"/>
<path fill-rule="evenodd" clip-rule="evenodd" d="M4.48242 8.01504C4.48242 7.55098 6.00007 7.17285 7.8883 7.17285C9.77654 7.17285 11.2942 7.55098 11.2942 8.01504C11.2942 8.4791 9.77654 8.85723 7.8883 8.85723C6.00007 8.85723 4.48242 8.4791 4.48242 8.01504ZM11.0118 8.01504C10.8883 7.84316 9.86477 7.31035 7.8883 7.31035C5.91183 7.31035 4.8883 7.82598 4.76477 8.01504C4.8883 8.18691 5.91183 8.44473 7.8883 8.44473C9.88242 8.44473 10.8883 8.18691 11.0118 8.01504Z" fill="#41C25E"/>
<path d="M8.68157 8.28984V7.32734C8.43451 7.31016 8.16981 7.29297 7.9051 7.29297C7.65804 7.29297 7.42863 7.29297 7.19922 7.31016V8.27266C7.41098 8.27266 7.65804 8.28984 7.9051 8.28984C8.16981 8.30703 8.43451 8.30703 8.68157 8.28984Z" fill="#41C25E"/>
<path d="M7.88752 8.85664C7.64046 8.85664 7.41105 8.85664 7.18164 8.83945V11.4004H8.66399V8.82227C8.41693 8.83945 8.15223 8.85664 7.88752 8.85664Z" fill="#41C25E"/>
</svg>
