<svg width="33" height="33" viewBox="0 0 33 33" fill="none" xmlns="http://www.w3.org/2000/svg">
<circle cx="16.5" cy="16.5" r="16.5" fill="black"/>
<path d="M23.5051 10.9959L21.27 12.1364L10.4769 17.6422C10.4404 17.3634 10.4221 17.0825 10.422 16.8014C10.4234 15.6795 10.7175 14.5775 11.2751 13.6045C11.8327 12.6315 12.6344 11.8213 13.6008 11.2541C14.5673 10.6869 15.6649 10.3824 16.785 10.3707C17.9051 10.3591 19.0088 10.6408 19.9867 11.1878L21.2661 10.5349L21.4569 10.4374C20.2849 9.58549 18.9006 9.07469 17.4569 8.96145C16.0132 8.84822 14.5664 9.13696 13.2763 9.79576C11.9862 10.4546 10.9031 11.4578 10.1467 12.6945C9.39035 13.9313 8.99011 15.3534 8.99026 16.8037C8.99026 17.004 8.99786 17.2035 9.01304 17.4023C9.0343 17.6837 8.97198 17.9652 8.83392 18.2112C8.69585 18.4572 8.48821 18.6569 8.23711 18.785L7.5625 19.1295V20.7365L9.54865 19.7226L10.1918 19.3938L10.8256 19.0705L22.2038 13.2643L23.4823 12.6122L26.125 11.2633V9.65716L23.5051 10.9959Z" fill="white"/>
<path d="M26.125 12.8709L11.472 20.3431L10.1934 20.9967L7.5625 22.3394V23.9447L10.1754 22.6115L12.4105 21.471L23.2145 15.9573C23.251 16.2379 23.2694 16.5206 23.2695 16.8036C23.2688 17.9268 22.9748 19.0302 22.4167 20.0044C21.8585 20.9786 21.0557 21.7897 20.0879 22.357C19.1201 22.9244 18.0209 23.2284 16.8995 23.2388C15.7781 23.2493 14.6735 22.9657 13.6953 22.4164L13.6168 22.4581L12.2298 23.166C13.4015 24.018 14.7855 24.5289 16.229 24.6424C17.6725 24.7559 19.1192 24.4676 20.4093 23.8092C21.6993 23.1509 22.7826 22.1481 23.5393 20.9118C24.296 19.6755 24.6968 18.2538 24.6972 16.8036C24.6972 16.6015 24.6894 16.3994 24.6745 16.1996C24.6532 15.9182 24.7155 15.6369 24.8534 15.3909C24.9913 15.1449 25.1987 14.9452 25.4496 14.8168L26.125 14.4723V12.8709Z" fill="white"/>
</svg>
