<svg width="34" height="34" viewBox="0 0 34 34" fill="none" xmlns="http://www.w3.org/2000/svg">
<path d="M16.9999 33.6154C26.1763 33.6154 33.6153 26.1765 33.6153 17C33.6153 7.8236 26.1763 0.384644 16.9999 0.384644C7.82348 0.384644 0.384521 7.8236 0.384521 17C0.384521 26.1765 7.82348 33.6154 16.9999 33.6154Z" fill="white"/>
<path d="M30.8492 25.9029H24.2917V17L16.9998 24.1948L9.70796 17V25.9029H3.15051H2.94067C5.87841 30.5097 11.0719 33.6154 16.9998 33.6154C22.9278 33.6154 28.1213 30.5615 31.059 25.9029H30.8492Z" fill="#4C4C4C"/>
<path d="M6.25494 22.1125V8.42238L16.9999 19.0529L27.7449 8.42238V22.1125H32.7242C33.3008 20.453 33.6153 18.6899 33.6153 16.8231C33.6153 7.74824 26.1724 0.384644 16.9999 0.384644C7.82737 0.384644 0.384521 7.74824 0.384521 16.8231C0.384521 18.6899 0.699008 20.453 1.27557 22.1125H6.25494V22.1125Z" fill="#FF6B01"/>
</svg>
