<svg width="33" height="33" viewBox="0 0 33 33" fill="none" xmlns="http://www.w3.org/2000/svg">
<path d="M16.5 33C25.6127 33 33 25.6127 33 16.5C33 7.3873 25.6127 0 16.5 0C7.3873 0 0 7.3873 0 16.5C0 25.6127 7.3873 33 16.5 33Z" fill="#1276A7"/>
<path d="M18.4951 9.29438C17.4624 9.88229 16.8509 10.9439 16.8509 12.0635C16.8509 12.6514 17.0945 13.2439 17.3995 13.7725C17.6431 14.2446 17.7626 15.0687 16.9123 15.4814C16.3055 15.8333 15.5117 15.5987 15.1486 15.0093C14.7855 14.5371 14.3595 14.065 13.8109 13.7131C12.7782 13.1251 11.56 13.1251 10.5272 13.7131C9.49443 14.301 8.88452 15.3653 8.88452 16.4851C8.88452 17.605 9.49129 18.6663 10.527 19.2558C11.5597 19.8437 12.7779 19.8437 13.8107 19.2558C14.3593 18.9603 14.7852 18.4912 15.0871 17.9596C15.3307 17.5468 16.0004 17.0152 16.8507 17.4874C17.4575 17.8392 17.6398 18.6085 17.338 19.1964C17.0331 19.7279 16.8507 20.3174 16.8507 20.9053C16.8507 22.0264 17.4575 23.0865 18.4949 23.6745C19.5276 24.2624 20.7459 24.2624 21.7786 23.6745C22.8114 23.0865 23.423 22.0249 23.423 20.9053C23.423 19.7858 22.8146 18.7242 21.7788 18.1347C21.2302 17.8392 20.6219 17.722 19.9538 17.722C19.4052 17.722 18.6774 17.3701 18.6774 16.4851C18.6774 15.7769 19.226 15.2483 19.9538 15.2483C20.5606 15.2483 21.2302 15.131 21.7788 14.8356C22.8115 14.2477 23.423 13.186 23.423 12.0665C23.423 10.9471 22.8146 9.88541 21.7788 9.29742C21.2916 9.00195 20.6847 8.88467 20.1363 8.88467C19.5909 8.88162 18.9794 9.00195 18.4953 9.29438" fill="white"/>
</svg>
